<?xml version="1.0" encoding="utf-8"?>
<!-- Generator: Adobe Illustrator 24.1.0, SVG Export Plug-In . SVG Version: 6.00 Build 0)  -->
<svg version="1.1"
	 id="svg8" inkscape:export-filename="/media/juhele/data_2TB/_GRAFIKA/GHS hazard symbols/GHS06_toxic_substances.png" inkscape:export-xdpi="99.027519" inkscape:export-ydpi="99.027519" inkscape:version="0.92.3 (unknown)" sodipodi:docname="GHS06_toxic_substances.svg" xmlns:cc="http://creativecommons.org/ns#" xmlns:dc="http://purl.org/dc/elements/1.1/" xmlns:inkscape="http://www.inkscape.org/namespaces/inkscape" xmlns:rdf="http://www.w3.org/1999/02/22-rdf-syntax-ns#" xmlns:sodipodi="http://sodipodi.sourceforge.net/DTD/sodipodi-0.dtd" xmlns:svg="http://www.w3.org/2000/svg"
	 xmlns="http://www.w3.org/2000/svg" xmlns:xlink="http://www.w3.org/1999/xlink" x="0px" y="0px" viewBox="0 0 775.6 775.5"
	 style="enable-background:new 0 0 775.6 775.5;" xml:space="preserve">
<style type="text/css">
	.st0{fill:#FFEB1D;}
	.st1{fill:none;}
	.st2{fill:#1D1D1B;}
</style>
<g>
	<polygon class="st0" points="28.2,657.8 387,36.4 746.6,657.8 	"/>
	<path d="M387,84.4L705,633.8H69.8L387,84.4 M387,7.9c-6.6,0-13.1,3.2-16.9,9.7L3.5,652.6c-7.5,13,1.9,29.2,16.9,29.2h734.1
		c15,0,24.4-16.2,16.9-29.2l-367.4-635C400.1,11.1,393.5,7.9,387,7.9L387,7.9z"/>
</g>
<g>
	<path class="st1" d="M375.6,265.8c-1.1,0.1-2.1,0.3-3.2,0.5c-0.1,0-0.1,0-0.2,0c-1,0.2-2,0.4-3,0.6c-0.1,0-0.2,0-0.3,0.1
		c-1,0.2-2,0.5-3,0.8c-0.1,0-0.2,0.1-0.3,0.1c-1,0.3-2,0.6-2.9,0.9c-0.1,0-0.1,0-0.2,0.1c-2.1,0.7-4.1,1.5-6.1,2.3
		c-4.9,2.1-9.5,4.8-13.8,7.9c0,0-0.1,0.1-0.1,0.1c-0.7,0.5-1.5,1.1-2.2,1.7c-0.2,0.1-0.3,0.2-0.5,0.4c-0.7,0.5-1.3,1.1-1.9,1.6
		c-0.2,0.2-0.4,0.4-0.6,0.5c-0.6,0.5-1.2,1.1-1.8,1.6c-0.2,0.2-0.5,0.4-0.7,0.7c-0.6,0.5-1.1,1.1-1.6,1.6c-0.2,0.3-0.5,0.5-0.7,0.8
		c-0.5,0.5-1,1.1-1.5,1.6c-0.2,0.3-0.5,0.6-0.7,0.8c-0.5,0.6-0.9,1.1-1.4,1.7c-0.2,0.3-0.5,0.6-0.7,0.9c-0.4,0.6-0.9,1.1-1.3,1.7
		c-0.2,0.3-0.4,0.6-0.7,0.9c-0.4,0.6-0.9,1.2-1.3,1.8c-0.2,0.3-0.3,0.5-0.5,0.8c-0.8,1.3-1.6,2.6-2.4,3.9c-0.2,0.3-0.4,0.6-0.5,0.9
		c-0.3,0.5-0.5,1-0.8,1.6c-0.3,0.5-0.5,1-0.8,1.5c-0.2,0.5-0.5,1-0.7,1.5c-0.2,0.5-0.5,1.1-0.7,1.6c-0.2,0.5-0.4,1-0.6,1.5
		c-0.2,0.6-0.4,1.1-0.7,1.7c-0.2,0.5-0.4,1-0.5,1.5c-0.2,0.6-0.4,1.2-0.6,1.7c-0.2,0.5-0.3,1-0.5,1.5c-0.2,0.6-0.4,1.2-0.5,1.8
		c-0.1,0.5-0.3,1-0.4,1.5c-0.2,0.6-0.3,1.3-0.4,1.9c-0.1,0.5-0.2,1-0.3,1.5c-0.1,0.7-0.2,1.3-0.4,2c-0.1,0.5-0.2,1-0.2,1.5
		c-0.1,0.7-0.2,1.4-0.3,2.1c-0.1,0.5-0.1,0.9-0.2,1.4c-0.1,0.8-0.1,1.6-0.2,2.4c0,0.4-0.1,0.8-0.1,1.2c-0.1,1.2-0.1,2.4-0.1,3.6
		c0,17.4,6.1,33.5,16.3,46c10.9-11.8,25.1-20,41.1-23.6c20.9-4.7,42.3-0.9,60.4,10.5c5.1,3.2,9.7,7,13.8,11
		c9.2-12.2,14.7-27.5,14.7-44c0-1.2,0-2.4-0.1-3.6c0-0.4-0.1-0.8-0.1-1.2c-0.1-0.8-0.1-1.6-0.2-2.4c0-0.5-0.1-0.9-0.2-1.4
		c-0.1-0.7-0.2-1.4-0.3-2.1c-0.1-0.5-0.2-1-0.2-1.5c-0.1-0.7-0.2-1.3-0.4-2c-0.1-0.5-0.2-1-0.3-1.5c-0.1-0.6-0.3-1.3-0.4-1.9
		c-0.1-0.5-0.2-1-0.4-1.5c-0.2-0.6-0.3-1.3-0.5-1.9c-0.1-0.5-0.3-1-0.4-1.5c-0.2-0.6-0.4-1.2-0.6-1.8c-0.2-0.5-0.3-0.9-0.5-1.4
		c-0.2-0.6-0.5-1.2-0.7-1.8c-0.2-0.5-0.4-0.9-0.6-1.4c-0.3-0.6-0.6-1.3-0.8-1.9c-0.2-0.4-0.4-0.8-0.6-1.2c-0.4-0.8-0.8-1.5-1.2-2.3
		c-0.2-0.5-0.5-0.9-0.7-1.4c-0.4-0.8-0.8-1.5-1.3-2.2c-0.3-0.4-0.5-0.8-0.8-1.3c-0.3-0.5-0.7-1.1-1-1.6c-0.3-0.5-0.6-0.9-0.9-1.3
		c-0.3-0.5-0.7-0.9-1-1.4c-0.3-0.5-0.7-0.9-1-1.3c-0.3-0.4-0.7-0.9-1-1.3c-0.4-0.5-0.7-0.9-1.1-1.3c-0.3-0.4-0.7-0.8-1-1.2
		c-0.4-0.4-0.8-0.9-1.2-1.3c-0.4-0.4-0.7-0.7-1.1-1.1c-0.4-0.4-0.8-0.9-1.3-1.3c-0.4-0.3-0.7-0.7-1.1-1c-0.5-0.4-0.9-0.9-1.4-1.3
		c-0.4-0.3-0.7-0.6-1.1-0.9c-0.5-0.4-1-0.8-1.5-1.3c-0.3-0.3-0.7-0.5-1-0.8c-0.6-0.4-1.1-0.9-1.7-1.3c-0.2-0.1-0.3-0.2-0.5-0.3
		c-2.2-1.6-4.5-3.1-6.9-4.5c-0.3-0.2-0.6-0.3-0.8-0.5c-0.6-0.4-1.3-0.7-2-1c-0.3-0.2-0.7-0.4-1-0.5c-0.6-0.3-1.3-0.6-1.9-0.9
		c-0.4-0.2-0.7-0.3-1.1-0.5c-0.7-0.3-1.3-0.6-2-0.8c-0.4-0.2-0.8-0.3-1.1-0.5c-0.7-0.3-1.3-0.5-2-0.7c-0.4-0.1-0.8-0.3-1.2-0.4
		c-0.7-0.2-1.4-0.4-2.1-0.7c-0.4-0.1-0.8-0.2-1.2-0.3c-0.7-0.2-1.4-0.4-2.2-0.6c-0.4-0.1-0.7-0.2-1.1-0.3c-0.8-0.2-1.5-0.3-2.3-0.5
		c-0.3-0.1-0.6-0.1-0.9-0.2c-0.8-0.2-1.7-0.3-2.5-0.4"/>
	<path class="st1" d="M437.4,390c-3.7-3.8-7.9-7.2-12.5-10.2c-11.3-7.2-24.2-10.9-37.3-10.9c-5.1,0-10.3,0.6-15.4,1.7
		c-14.2,3.2-26.8,10.6-36.4,21.1c13.1,12.2,30.6,19.7,49.9,19.7C405.9,411.4,424.2,403.2,437.4,390z"/>
	<path class="st1" d="M364.1,453.5c-9.6-17.8-25.5-30-43.5-35.3c-9.1,29.4,2.1,62.5,29.3,79.8c6.4,4.1,13.4,7,20.6,8.8
		C375.1,489.4,373.3,470.4,364.1,453.5z"/>
	<path class="st1" d="M240.8,531.6c0.6,0.9,1.3,1.7,2,2.6c0,0.1,0.1,0.1,0.1,0.2c0.7,0.8,1.3,1.6,2,2.4c0.1,0.1,0.1,0.2,0.2,0.2
		c0.7,0.8,1.4,1.5,2.1,2.2c0.1,0.1,0.1,0.1,0.2,0.2c0.7,0.7,1.4,1.4,2.2,2.1c0,0,0.1,0.1,0.1,0.1c1.7,1.6,3.4,3,5.2,4.4
		c4.2,3.2,8.6,6,13.3,8.2c0,0,0.1,0,0.1,0.1c0.8,0.4,1.7,0.8,2.5,1.1c0.2,0.1,0.4,0.2,0.5,0.2c0.8,0.3,1.6,0.6,2.4,0.9
		c0.3,0.1,0.5,0.2,0.8,0.3c0.7,0.3,1.5,0.5,2.3,0.8c0.3,0.1,0.6,0.2,0.9,0.3c0.7,0.2,1.5,0.5,2.2,0.7c0.3,0.1,0.7,0.2,1,0.3
		c0.7,0.2,1.4,0.4,2.2,0.5c0.4,0.1,0.7,0.2,1.1,0.2c0.7,0.2,1.4,0.3,2.1,0.4c0.4,0.1,0.8,0.1,1.1,0.2c0.7,0.1,1.4,0.2,2.1,0.3
		c0.4,0.1,0.8,0.1,1.1,0.1c0.7,0.1,1.5,0.2,2.2,0.3c0.3,0,0.6,0,0.9,0.1c1.5,0.1,3,0.2,4.5,0.2c0.4,0,0.7,0,1.1,0c0.6,0,1.2,0,1.8,0
		c0.6,0,1.1,0,1.7,0c0.6,0,1.1-0.1,1.7-0.1c0.6,0,1.2-0.1,1.7-0.1c0.5,0,1.1-0.1,1.6-0.2c0.6-0.1,1.2-0.1,1.8-0.2
		c0.5-0.1,1.1-0.2,1.6-0.2c0.6-0.1,1.2-0.2,1.8-0.3c0.5-0.1,1-0.2,1.6-0.3c0.6-0.1,1.2-0.3,1.8-0.4c0.5-0.1,1-0.2,1.5-0.4
		c0.6-0.2,1.2-0.3,1.9-0.5c0.5-0.1,1-0.3,1.5-0.4c0.6-0.2,1.3-0.4,1.9-0.6c0.5-0.2,1-0.3,1.4-0.5c0.7-0.2,1.3-0.5,2-0.8
		c0.4-0.2,0.9-0.3,1.3-0.5c0.7-0.3,1.4-0.6,2.2-1c0.4-0.2,0.7-0.3,1.1-0.5c1.1-0.5,2.2-1.1,3.2-1.6c15.3-8.3,26.5-21.3,32.7-36.2
		c-8-2.1-15.6-5.4-22.8-9.9c-30.9-19.6-43.8-57.1-33.8-90.6c-15.2-2.3-31.2,0.1-45.7,8c-1.1,0.6-2.1,1.2-3.1,1.8
		c-0.3,0.2-0.7,0.4-1,0.6c-0.7,0.4-1.3,0.8-2,1.3c-0.4,0.3-0.8,0.5-1.2,0.8c-0.6,0.4-1.2,0.8-1.7,1.2c-0.4,0.3-0.8,0.6-1.2,0.9
		c-0.5,0.4-1.1,0.8-1.6,1.3c-0.4,0.3-0.8,0.6-1.2,1c-0.5,0.4-1,0.9-1.5,1.3c-0.4,0.3-0.8,0.7-1.1,1c-0.5,0.4-0.9,0.9-1.4,1.4
		c-0.4,0.4-0.7,0.7-1.1,1.1c-0.4,0.5-0.9,0.9-1.3,1.4c-0.3,0.4-0.7,0.7-1,1.1c-0.4,0.5-0.8,1-1.3,1.5c-0.3,0.4-0.6,0.7-0.9,1.1
		c-0.4,0.5-0.8,1.1-1.2,1.6c-0.3,0.4-0.5,0.7-0.8,1.1c-0.5,0.7-1,1.4-1.5,2.1c-0.3,0.4-0.6,0.8-0.8,1.3c-0.5,0.7-0.9,1.5-1.4,2.2
		c-0.3,0.4-0.5,0.9-0.7,1.3c-0.3,0.5-0.6,1.1-0.9,1.6c-0.3,0.5-0.5,1-0.7,1.5c-0.3,0.5-0.5,1-0.8,1.5c-0.2,0.5-0.5,1-0.7,1.6
		c-0.2,0.5-0.4,1-0.7,1.5c-0.2,0.5-0.4,1.1-0.6,1.6c-0.2,0.5-0.4,1-0.6,1.5c-0.2,0.6-0.4,1.1-0.6,1.7c-0.2,0.5-0.3,1-0.5,1.5
		c-0.2,0.6-0.4,1.2-0.5,1.7c-0.1,0.5-0.3,1-0.4,1.4c-0.2,0.6-0.3,1.2-0.5,1.8c-0.1,0.5-0.2,0.9-0.3,1.4c-0.1,0.6-0.3,1.3-0.4,1.9
		c-0.1,0.4-0.1,0.8-0.2,1.2c-0.1,0.7-0.2,1.4-0.3,2.1c0,0.2,0,0.4-0.1,0.6c-0.4,2.7-0.6,5.4-0.6,8.2c0,0.3,0,0.6,0,1
		c0,0.7,0,1.5,0,2.2c0,0.4,0,0.8,0,1.1c0,0.7,0.1,1.4,0.1,2.2c0,0.4,0.1,0.8,0.1,1.2c0.1,0.7,0.1,1.4,0.2,2.1c0,0.4,0.1,0.8,0.1,1.2
		c0.1,0.7,0.2,1.4,0.3,2.1c0.1,0.4,0.1,0.8,0.2,1.2c0.1,0.7,0.3,1.4,0.4,2.1c0.1,0.4,0.2,0.8,0.3,1.2c0.2,0.7,0.3,1.4,0.5,2.2
		c0.1,0.4,0.2,0.7,0.3,1.1c0.2,0.7,0.4,1.5,0.6,2.2c0.1,0.3,0.2,0.6,0.3,0.9c0.3,0.8,0.5,1.6,0.8,2.4"/>
	<path class="st1" d="M411.5,452.1c-10.8,17.1-13.7,36.9-9.6,55.2c0.3-0.1,0.5-0.1,0.8-0.2c18.2-4.1,33.8-15,43.8-30.8
		c10.9-17.3,13.4-37.5,8.4-55.8C437.6,425,421.9,435.8,411.5,452.1z"/>
	<path class="st1" d="M539.9,521.5c0.4-1,0.9-2,1.3-3c0-0.1,0.1-0.1,0.1-0.2c0.4-1,0.7-1.9,1.1-2.9c0-0.1,0.1-0.2,0.1-0.3
		c0.3-1,0.6-1.9,0.9-2.9c0-0.1,0.1-0.2,0.1-0.3c0.3-1,0.6-2,0.8-3c0-0.1,0-0.1,0-0.2c0.5-2.2,1-4.4,1.3-6.6c0.8-5.2,1-10.5,0.7-15.7
		c0,0,0-0.1,0-0.1c-0.1-0.9-0.1-1.8-0.2-2.8c0-0.2,0-0.4-0.1-0.6c-0.1-0.8-0.2-1.7-0.3-2.5c0-0.3-0.1-0.5-0.1-0.8
		c-0.1-0.8-0.3-1.6-0.4-2.4c-0.1-0.3-0.1-0.6-0.2-0.9c-0.2-0.7-0.3-1.5-0.5-2.2c-0.1-0.3-0.2-0.7-0.3-1c-0.2-0.7-0.4-1.4-0.6-2.2
		c-0.1-0.4-0.2-0.7-0.3-1.1c-0.2-0.7-0.4-1.4-0.7-2.1c-0.1-0.4-0.3-0.7-0.4-1.1c-0.2-0.7-0.5-1.4-0.7-2c-0.1-0.4-0.3-0.7-0.4-1.1
		c-0.3-0.7-0.5-1.4-0.8-2c-0.1-0.3-0.3-0.6-0.4-0.8c-0.6-1.4-1.3-2.7-2-4.1c-0.2-0.3-0.3-0.6-0.5-1c-0.3-0.5-0.6-1-0.9-1.5
		c-0.3-0.5-0.5-0.9-0.8-1.4c-0.3-0.5-0.6-0.9-0.9-1.4c-0.3-0.5-0.6-1-1-1.5c-0.3-0.5-0.6-0.9-1-1.3c-0.3-0.5-0.7-1-1.1-1.5
		c-0.3-0.4-0.7-0.9-1-1.3c-0.4-0.5-0.8-1-1.2-1.4c-0.3-0.4-0.7-0.8-1-1.2c-0.4-0.5-0.8-0.9-1.3-1.4c-0.4-0.4-0.7-0.8-1.1-1.2
		c-0.4-0.5-0.9-0.9-1.4-1.4c-0.4-0.4-0.7-0.7-1.1-1.1c-0.5-0.5-1-0.9-1.5-1.4c-0.4-0.3-0.7-0.7-1.1-1c-0.5-0.5-1.1-0.9-1.6-1.4
		c-0.4-0.3-0.7-0.6-1.1-0.9c-0.6-0.5-1.3-1-1.9-1.4c-0.3-0.2-0.6-0.5-1-0.7c-1-0.7-2-1.4-3-2c-14.7-9.4-31.6-12.8-47.7-10.9
		c5.4,20.8,2.6,43.7-9.8,63.2c-11.5,18.1-29.3,30.6-50.1,35.3c0,0,0,0-0.1,0c5.4,14.4,15.3,27.2,29.3,36c1,0.6,2.1,1.3,3.1,1.9
		c0.3,0.2,0.7,0.4,1,0.6c0.7,0.4,1.4,0.8,2.1,1.1c0.4,0.2,0.8,0.4,1.3,0.6c0.6,0.3,1.3,0.6,1.9,0.9c0.5,0.2,0.9,0.4,1.4,0.6
		c0.6,0.3,1.3,0.5,1.9,0.8c0.5,0.2,0.9,0.4,1.4,0.5c0.6,0.2,1.2,0.4,1.9,0.7c0.5,0.2,1,0.3,1.5,0.5c0.6,0.2,1.2,0.4,1.9,0.6
		c0.5,0.1,1,0.3,1.5,0.4c0.6,0.2,1.3,0.3,1.9,0.5c0.5,0.1,1,0.2,1.5,0.3c0.6,0.1,1.3,0.3,1.9,0.4c0.5,0.1,1,0.2,1.4,0.3
		c0.7,0.1,1.4,0.2,2,0.3c0.4,0.1,0.9,0.1,1.3,0.2c0.9,0.1,1.7,0.2,2.6,0.2c0.5,0,1,0.1,1.5,0.1c0.9,0.1,1.7,0.1,2.6,0.1
		c0.5,0,1,0,1.5,0c0.6,0,1.2,0,1.9,0c0.5,0,1.1,0,1.6-0.1c0.6,0,1.1-0.1,1.7-0.1c0.6,0,1.1-0.1,1.7-0.1c0.5-0.1,1.1-0.1,1.6-0.2
		c0.6-0.1,1.2-0.1,1.7-0.2c0.5-0.1,1.1-0.2,1.6-0.2c0.6-0.1,1.2-0.2,1.8-0.3c0.5-0.1,1-0.2,1.5-0.3c0.6-0.1,1.2-0.3,1.8-0.4
		c0.5-0.1,1-0.2,1.4-0.4c0.6-0.2,1.2-0.3,1.8-0.5c0.5-0.1,0.9-0.3,1.4-0.4c0.6-0.2,1.2-0.4,1.9-0.6c0.4-0.1,0.8-0.3,1.2-0.4
		c0.7-0.2,1.3-0.5,2-0.7c0.2-0.1,0.4-0.2,0.6-0.2c2.5-1,5-2.2,7.4-3.4c0.3-0.2,0.6-0.3,0.9-0.5c0.6-0.4,1.3-0.7,1.9-1.1
		c0.3-0.2,0.7-0.4,1-0.6c0.6-0.4,1.2-0.8,1.8-1.2c0.3-0.2,0.7-0.4,1-0.7c0.6-0.4,1.2-0.8,1.8-1.2c0.3-0.2,0.7-0.5,1-0.7
		c0.6-0.4,1.1-0.9,1.7-1.3c0.3-0.3,0.6-0.5,1-0.8c0.6-0.5,1.1-0.9,1.7-1.4c0.3-0.3,0.6-0.5,0.9-0.8c0.6-0.5,1.1-1,1.6-1.5
		c0.3-0.3,0.5-0.5,0.8-0.8c0.6-0.5,1.1-1.1,1.6-1.7c0.2-0.2,0.4-0.5,0.6-0.7c0.6-0.6,1.2-1.3,1.7-1.9"/>
	<path class="st2" d="M508.1,409.7c-14.5-9.2-30.7-13.6-46.7-13.6c7.4-12.8,11.7-27.7,11.7-43.6c0-44.6-33.5-81.4-76.7-86.8
		c0,0,0,0.1,0,0.1c0.9,0.1,1.7,0.3,2.5,0.4c0.3,0.1,0.6,0.1,0.9,0.2c0.8,0.2,1.5,0.3,2.3,0.5c0.4,0.1,0.7,0.2,1.1,0.3
		c0.7,0.2,1.4,0.4,2.2,0.6c0.4,0.1,0.8,0.2,1.2,0.3c0.7,0.2,1.4,0.4,2.1,0.7c0.4,0.1,0.8,0.3,1.2,0.4c0.7,0.2,1.3,0.5,2,0.7
		c0.4,0.1,0.8,0.3,1.1,0.5c0.7,0.3,1.3,0.5,2,0.8c0.4,0.2,0.7,0.3,1.1,0.5c0.7,0.3,1.3,0.6,1.9,0.9c0.3,0.2,0.7,0.3,1,0.5
		c0.7,0.3,1.3,0.7,2,1c0.3,0.2,0.6,0.3,0.8,0.5c2.4,1.4,4.7,2.8,6.9,4.5c0.2,0.1,0.3,0.2,0.5,0.3c0.6,0.4,1.1,0.9,1.7,1.3
		c0.3,0.3,0.7,0.5,1,0.8c0.5,0.4,1,0.8,1.5,1.3c0.4,0.3,0.7,0.6,1.1,0.9c0.5,0.4,0.9,0.8,1.4,1.3c0.4,0.3,0.7,0.7,1.1,1
		c0.4,0.4,0.9,0.9,1.3,1.3c0.4,0.4,0.7,0.7,1.1,1.1c0.4,0.4,0.8,0.9,1.2,1.3c0.4,0.4,0.7,0.8,1,1.2c0.4,0.4,0.7,0.9,1.1,1.3
		c0.3,0.4,0.7,0.9,1,1.3c0.3,0.4,0.7,0.9,1,1.3c0.3,0.5,0.7,0.9,1,1.4c0.3,0.4,0.6,0.9,0.9,1.3c0.3,0.5,0.7,1,1,1.6
		c0.3,0.4,0.5,0.8,0.8,1.3c0.4,0.7,0.9,1.5,1.3,2.2c0.3,0.5,0.5,0.9,0.7,1.4c0.4,0.8,0.8,1.5,1.2,2.3c0.2,0.4,0.4,0.8,0.6,1.2
		c0.3,0.6,0.6,1.2,0.8,1.9c0.2,0.4,0.4,0.9,0.6,1.4c0.2,0.6,0.5,1.2,0.7,1.8c0.2,0.5,0.3,0.9,0.5,1.4c0.2,0.6,0.4,1.2,0.6,1.8
		c0.2,0.5,0.3,1,0.4,1.5c0.2,0.6,0.4,1.2,0.5,1.9c0.1,0.5,0.3,1,0.4,1.5c0.2,0.6,0.3,1.3,0.4,1.9c0.1,0.5,0.2,1,0.3,1.5
		c0.1,0.7,0.2,1.3,0.4,2c0.1,0.5,0.2,1,0.2,1.5c0.1,0.7,0.2,1.4,0.3,2.1c0.1,0.5,0.1,0.9,0.2,1.4c0.1,0.8,0.1,1.6,0.2,2.4
		c0,0.4,0.1,0.8,0.1,1.2c0.1,1.2,0.1,2.4,0.1,3.6c0,16.5-5.5,31.8-14.7,44c-4.1-4.1-8.7-7.8-13.8-11c-18.1-11.5-39.5-15.2-60.4-10.5
		c-16,3.6-30.2,11.8-41.1,23.6c-10.2-12.6-16.3-28.6-16.3-46c0-1.2,0-2.4,0.1-3.6c0-0.4,0.1-0.8,0.1-1.2c0.1-0.8,0.1-1.6,0.2-2.4
		c0-0.5,0.1-0.9,0.2-1.4c0.1-0.7,0.2-1.4,0.3-2.1c0.1-0.5,0.2-1,0.2-1.5c0.1-0.7,0.2-1.3,0.4-2c0.1-0.5,0.2-1,0.3-1.5
		c0.1-0.6,0.3-1.3,0.4-1.9c0.1-0.5,0.3-1,0.4-1.5c0.2-0.6,0.3-1.2,0.5-1.8c0.2-0.5,0.3-1,0.5-1.5c0.2-0.6,0.4-1.2,0.6-1.7
		c0.2-0.5,0.4-1,0.5-1.5c0.2-0.6,0.4-1.1,0.7-1.7c0.2-0.5,0.4-1,0.6-1.5c0.2-0.5,0.5-1.1,0.7-1.6c0.2-0.5,0.5-1,0.7-1.5
		c0.2-0.5,0.5-1,0.8-1.5c0.3-0.5,0.5-1.1,0.8-1.6c0.2-0.3,0.4-0.6,0.5-0.9c0.7-1.3,1.5-2.6,2.4-3.9c0.2-0.3,0.3-0.5,0.5-0.8
		c0.4-0.6,0.8-1.2,1.3-1.8c0.2-0.3,0.4-0.6,0.7-0.9c0.4-0.6,0.9-1.2,1.3-1.7c0.2-0.3,0.5-0.6,0.7-0.9c0.5-0.6,0.9-1.1,1.4-1.7
		c0.2-0.3,0.5-0.6,0.7-0.8c0.5-0.6,1-1.1,1.5-1.6c0.2-0.3,0.5-0.5,0.7-0.8c0.5-0.5,1.1-1.1,1.6-1.6c0.2-0.2,0.5-0.4,0.7-0.7
		c0.6-0.5,1.2-1.1,1.8-1.6c0.2-0.2,0.4-0.4,0.6-0.5c0.6-0.6,1.3-1.1,1.9-1.6c0.2-0.1,0.3-0.2,0.5-0.4c0.7-0.6,1.5-1.1,2.2-1.7
		c0,0,0.1-0.1,0.1-0.1c4.3-3.1,8.9-5.8,13.8-7.9c2-0.9,4-1.7,6.1-2.3c0.1,0,0.1,0,0.2-0.1c1-0.3,1.9-0.6,2.9-0.9
		c0.1,0,0.2-0.1,0.3-0.1c1-0.3,2-0.5,3-0.8c0.1,0,0.2,0,0.3-0.1c1-0.2,2-0.4,3-0.6c0.1,0,0.1,0,0.2,0c1.1-0.2,2.1-0.4,3.2-0.5
		c0,0,0-0.1,0-0.1c-43.5,5-77.4,42-77.4,86.8c0,15,3.8,29.2,10.5,41.6c-12.9,0.5-25.8,3.9-37.9,10.5
		c-39.3,21.2-55.7,68.2-39.9,108.7c0,0,0.1,0,0.1,0c0,0,0,0,0,0c-0.3-0.8-0.6-1.6-0.8-2.4c-0.1-0.3-0.2-0.6-0.3-0.9
		c-0.2-0.7-0.4-1.5-0.6-2.2c-0.1-0.4-0.2-0.7-0.3-1.1c-0.2-0.7-0.4-1.4-0.5-2.2c-0.1-0.4-0.2-0.8-0.3-1.2c-0.1-0.7-0.3-1.4-0.4-2.1
		c-0.1-0.4-0.1-0.8-0.2-1.2c-0.1-0.7-0.2-1.4-0.3-2.1c-0.1-0.4-0.1-0.8-0.1-1.2c-0.1-0.7-0.2-1.4-0.2-2.1c0-0.4-0.1-0.8-0.1-1.2
		c0-0.7-0.1-1.4-0.1-2.2c0-0.4,0-0.8,0-1.1c0-0.7,0-1.5,0-2.2c0-0.3,0-0.6,0-1c0.1-2.7,0.3-5.5,0.6-8.2c0-0.2,0-0.4,0.1-0.6
		c0.1-0.7,0.2-1.4,0.3-2.1c0.1-0.4,0.1-0.8,0.2-1.2c0.1-0.6,0.3-1.3,0.4-1.9c0.1-0.5,0.2-0.9,0.3-1.4c0.1-0.6,0.3-1.2,0.5-1.8
		c0.1-0.5,0.3-1,0.4-1.4c0.2-0.6,0.3-1.2,0.5-1.7c0.2-0.5,0.3-1,0.5-1.5c0.2-0.6,0.4-1.1,0.6-1.7c0.2-0.5,0.4-1,0.6-1.5
		c0.2-0.5,0.4-1.1,0.6-1.6c0.2-0.5,0.4-1,0.7-1.5c0.2-0.5,0.5-1,0.7-1.6c0.2-0.5,0.5-1,0.8-1.5c0.2-0.5,0.5-1,0.7-1.5
		c0.3-0.5,0.6-1.1,0.9-1.6c0.2-0.4,0.5-0.9,0.7-1.3c0.4-0.8,0.9-1.5,1.4-2.2c0.3-0.4,0.5-0.8,0.8-1.3c0.5-0.7,1-1.4,1.5-2.1
		c0.3-0.4,0.5-0.7,0.8-1.1c0.4-0.5,0.8-1.1,1.2-1.6c0.3-0.4,0.6-0.8,0.9-1.1c0.4-0.5,0.8-1,1.3-1.5c0.3-0.4,0.7-0.7,1-1.1
		c0.4-0.5,0.9-1,1.3-1.4c0.4-0.4,0.7-0.7,1.1-1.1c0.5-0.5,0.9-0.9,1.4-1.4c0.4-0.3,0.7-0.7,1.1-1c0.5-0.4,1-0.9,1.5-1.3
		c0.4-0.3,0.8-0.7,1.2-1c0.5-0.4,1.1-0.8,1.6-1.3c0.4-0.3,0.8-0.6,1.2-0.9c0.6-0.4,1.2-0.8,1.7-1.2c0.4-0.3,0.8-0.5,1.2-0.8
		c0.7-0.4,1.3-0.9,2-1.3c0.3-0.2,0.7-0.4,1-0.6c1-0.6,2.1-1.2,3.1-1.8c14.5-7.9,30.6-10.3,45.7-8c-10,33.5,2.9,70.9,33.8,90.6
		c7.1,4.5,14.8,7.8,22.8,9.9c-6.2,14.9-17.4,27.9-32.7,36.2c-1.1,0.6-2.1,1.1-3.2,1.6c-0.4,0.2-0.7,0.3-1.1,0.5
		c-0.7,0.3-1.4,0.7-2.2,1c-0.4,0.2-0.9,0.4-1.3,0.5c-0.7,0.3-1.3,0.5-2,0.8c-0.5,0.2-0.9,0.3-1.4,0.5c-0.6,0.2-1.3,0.4-1.9,0.6
		c-0.5,0.2-1,0.3-1.5,0.4c-0.6,0.2-1.2,0.4-1.9,0.5c-0.5,0.1-1,0.3-1.5,0.4c-0.6,0.1-1.2,0.3-1.8,0.4c-0.5,0.1-1,0.2-1.6,0.3
		c-0.6,0.1-1.2,0.2-1.8,0.3c-0.5,0.1-1.1,0.2-1.6,0.2c-0.6,0.1-1.2,0.1-1.8,0.2c-0.5,0.1-1.1,0.1-1.6,0.2c-0.6,0.1-1.2,0.1-1.7,0.1
		c-0.6,0-1.1,0.1-1.7,0.1c-0.6,0-1.1,0-1.7,0c-0.6,0-1.2,0-1.8,0c-0.4,0-0.7,0-1.1,0c-1.5,0-3-0.1-4.5-0.2c-0.3,0-0.6,0-0.9-0.1
		c-0.7-0.1-1.5-0.2-2.2-0.3c-0.4,0-0.8-0.1-1.1-0.1c-0.7-0.1-1.4-0.2-2.1-0.3c-0.4-0.1-0.8-0.1-1.1-0.2c-0.7-0.1-1.4-0.3-2.1-0.4
		c-0.4-0.1-0.7-0.2-1.1-0.2c-0.7-0.2-1.4-0.4-2.2-0.5c-0.3-0.1-0.7-0.2-1-0.3c-0.7-0.2-1.5-0.4-2.2-0.7c-0.3-0.1-0.6-0.2-0.9-0.3
		c-0.8-0.3-1.5-0.5-2.3-0.8c-0.3-0.1-0.5-0.2-0.8-0.3c-0.8-0.3-1.6-0.6-2.4-0.9c-0.2-0.1-0.4-0.2-0.5-0.2c-0.8-0.4-1.7-0.7-2.5-1.1
		c0,0-0.1,0-0.1-0.1c-4.7-2.2-9.2-5-13.3-8.2c-1.8-1.4-3.5-2.8-5.2-4.4c0,0-0.1-0.1-0.1-0.1c-0.7-0.7-1.5-1.4-2.2-2.1
		c-0.1-0.1-0.1-0.1-0.2-0.2c-0.7-0.7-1.4-1.5-2.1-2.2c-0.1-0.1-0.1-0.2-0.2-0.2c-0.7-0.8-1.3-1.6-2-2.4c0-0.1-0.1-0.1-0.1-0.2
		c-0.7-0.8-1.3-1.7-2-2.6c0,0-0.1,0-0.1,0.1c25.1,35.9,73.7,48.1,113.2,26.7c13.6-7.4,24.5-17.8,32.2-30
		c6.8,11.4,16.3,21.5,28.3,29.1c37.7,23.9,86.7,15.4,114.3-18.3c0,0-0.1-0.1-0.1-0.1c-0.6,0.7-1.1,1.3-1.7,1.9
		c-0.2,0.2-0.4,0.5-0.6,0.7c-0.5,0.6-1.1,1.1-1.6,1.7c-0.3,0.3-0.5,0.5-0.8,0.8c-0.5,0.5-1.1,1-1.6,1.5c-0.3,0.3-0.6,0.5-0.9,0.8
		c-0.5,0.5-1.1,0.9-1.7,1.4c-0.3,0.3-0.6,0.5-1,0.8c-0.6,0.4-1.1,0.9-1.7,1.3c-0.3,0.2-0.7,0.5-1,0.7c-0.6,0.4-1.2,0.8-1.8,1.2
		c-0.3,0.2-0.7,0.4-1,0.7c-0.6,0.4-1.2,0.8-1.8,1.2c-0.3,0.2-0.7,0.4-1,0.6c-0.6,0.4-1.3,0.7-1.9,1.1c-0.3,0.2-0.6,0.3-0.9,0.5
		c-2.4,1.3-4.9,2.4-7.4,3.4c-0.2,0.1-0.4,0.2-0.6,0.2c-0.7,0.3-1.3,0.5-2,0.7c-0.4,0.1-0.8,0.3-1.2,0.4c-0.6,0.2-1.2,0.4-1.9,0.6
		c-0.5,0.1-0.9,0.3-1.4,0.4c-0.6,0.2-1.2,0.3-1.8,0.5c-0.5,0.1-1,0.2-1.4,0.4c-0.6,0.1-1.2,0.3-1.8,0.4c-0.5,0.1-1,0.2-1.5,0.3
		c-0.6,0.1-1.2,0.2-1.8,0.3c-0.5,0.1-1.1,0.2-1.6,0.2c-0.6,0.1-1.1,0.2-1.7,0.2c-0.5,0.1-1.1,0.1-1.6,0.2c-0.6,0.1-1.1,0.1-1.7,0.1
		c-0.6,0-1.1,0.1-1.7,0.1c-0.5,0-1.1,0.1-1.6,0.1c-0.6,0-1.2,0-1.9,0c-0.5,0-1,0-1.5,0c-0.9,0-1.7-0.1-2.6-0.1c-0.5,0-1-0.1-1.5-0.1
		c-0.9-0.1-1.7-0.1-2.6-0.2c-0.4-0.1-0.9-0.1-1.3-0.2c-0.7-0.1-1.4-0.2-2-0.3c-0.5-0.1-1-0.2-1.4-0.3c-0.6-0.1-1.3-0.2-1.9-0.4
		c-0.5-0.1-1-0.2-1.5-0.3c-0.6-0.1-1.3-0.3-1.9-0.5c-0.5-0.1-1-0.3-1.5-0.4c-0.6-0.2-1.2-0.4-1.9-0.6c-0.5-0.2-1-0.3-1.5-0.5
		c-0.6-0.2-1.2-0.4-1.9-0.7c-0.5-0.2-0.9-0.3-1.4-0.5c-0.6-0.2-1.3-0.5-1.9-0.8c-0.5-0.2-0.9-0.4-1.4-0.6c-0.6-0.3-1.3-0.6-1.9-0.9
		c-0.4-0.2-0.8-0.4-1.3-0.6c-0.7-0.4-1.4-0.7-2.1-1.1c-0.3-0.2-0.7-0.4-1-0.6c-1-0.6-2.1-1.2-3.1-1.9c-14-8.9-23.9-21.6-29.3-36
		c0,0,0,0,0.1,0c20.9-4.7,38.7-17.2,50.1-35.3c12.4-19.5,15.2-42.4,9.8-63.2c16.1-1.9,32.9,1.5,47.7,10.9c1,0.6,2,1.3,3,2
		c0.3,0.2,0.6,0.5,1,0.7c0.6,0.5,1.3,0.9,1.9,1.4c0.4,0.3,0.7,0.6,1.1,0.9c0.6,0.4,1.1,0.9,1.6,1.4c0.4,0.3,0.8,0.7,1.1,1
		c0.5,0.4,1,0.9,1.5,1.4c0.4,0.4,0.7,0.7,1.1,1.1c0.5,0.5,0.9,0.9,1.4,1.4c0.4,0.4,0.7,0.8,1.1,1.2c0.4,0.5,0.8,0.9,1.3,1.4
		c0.4,0.4,0.7,0.8,1,1.2c0.4,0.5,0.8,1,1.2,1.4c0.3,0.4,0.7,0.8,1,1.3c0.4,0.5,0.7,1,1.1,1.5c0.3,0.4,0.6,0.9,1,1.3
		c0.3,0.5,0.6,1,1,1.5c0.3,0.5,0.6,0.9,0.9,1.4c0.3,0.5,0.6,0.9,0.8,1.4c0.3,0.5,0.6,1,0.9,1.5c0.2,0.3,0.3,0.6,0.5,1
		c0.7,1.3,1.4,2.7,2,4.1c0.1,0.3,0.3,0.6,0.4,0.8c0.3,0.7,0.6,1.4,0.8,2c0.1,0.4,0.3,0.7,0.4,1.1c0.3,0.7,0.5,1.4,0.7,2
		c0.1,0.4,0.3,0.7,0.4,1.1c0.2,0.7,0.4,1.4,0.7,2.1c0.1,0.4,0.2,0.7,0.3,1.1c0.2,0.7,0.4,1.4,0.6,2.2c0.1,0.3,0.2,0.7,0.3,1
		c0.2,0.7,0.3,1.5,0.5,2.2c0.1,0.3,0.1,0.6,0.2,0.9c0.2,0.8,0.3,1.6,0.4,2.4c0,0.3,0.1,0.5,0.1,0.8c0.1,0.8,0.2,1.7,0.3,2.5
		c0,0.2,0,0.4,0.1,0.6c0.1,0.9,0.2,1.8,0.2,2.8c0,0,0,0.1,0,0.1c0.3,5.2,0.1,10.5-0.7,15.7c-0.3,2.2-0.8,4.4-1.3,6.6
		c0,0.1,0,0.1,0,0.2c-0.2,1-0.5,2-0.8,3c0,0.1-0.1,0.2-0.1,0.3c-0.3,1-0.6,1.9-0.9,2.9c0,0.1-0.1,0.2-0.1,0.3
		c-0.3,1-0.7,1.9-1.1,2.9c0,0.1-0.1,0.1-0.1,0.2c-0.4,1-0.8,2-1.3,3c0,0,0.1,0,0.1,0.1C559.1,482.1,546,433.8,508.1,409.7z
		 M404.7,438.8c0,6.7-3.8,12.5-9.3,15.3c-2.4,1.2-5.1,2-8,2c-3.1,0-5.9-0.8-8.4-2.2c-5.3-3-8.9-8.6-8.9-15.1c0-0.1,0-0.2,0-0.3
		c0.1-6.1,3.4-11.4,8.2-14.4c2.6-1.6,5.7-2.6,9.1-2.6c3.5,0,6.8,1.1,9.5,2.8c4.4,2.9,7.4,7.8,7.8,13.5
		C404.7,438.2,404.7,438.5,404.7,438.8z M372.2,370.6c5.1-1.1,10.3-1.7,15.4-1.7c13.1,0,26,3.7,37.3,10.9c4.7,3,8.8,6.4,12.5,10.2
		c-13.2,13.3-31.5,21.5-51.8,21.5c-19.3,0-36.8-7.5-49.9-19.7C345.4,381.2,357.9,373.8,372.2,370.6z M350,497.9
		c-27.2-17.3-38.4-50.4-29.3-79.8c18,5.3,33.9,17.5,43.5,35.3c9.2,17,10.9,36,6.4,53.3C363.4,504.9,356.4,502,350,497.9z
		 M446.5,476.3c-10,15.8-25.6,26.7-43.8,30.8c-0.3,0.1-0.5,0.1-0.8,0.2c-4.1-18.3-1.2-38.1,9.6-55.2c10.3-16.3,26-27.1,43.3-31.6
		C459.9,438.8,457.4,459.1,446.5,476.3z"/>
</g>
</svg>
