<?xml version="1.0" encoding="UTF-8" standalone="no"?>
<!-- Generator: Adobe Illustrator 24.1.0, SVG Export Plug-In . SVG Version: 6.00 Build 0)  -->

<svg
   xmlns:dc="http://purl.org/dc/elements/1.1/"
   xmlns:cc="http://creativecommons.org/ns#"
   xmlns:rdf="http://www.w3.org/1999/02/22-rdf-syntax-ns#"
   xmlns:svg="http://www.w3.org/2000/svg"
   xmlns="http://www.w3.org/2000/svg"
   xmlns:sodipodi="http://sodipodi.sourceforge.net/DTD/sodipodi-0.dtd"
   xmlns:inkscape="http://www.inkscape.org/namespaces/inkscape"
   version="1.1"
   id="svg8"
   inkscape:export-filename="/media/juhele/data_2TB/_GRAFIKA/GHS hazard symbols/GHS06_toxic_substances.png"
   inkscape:export-xdpi="99.027519"
   inkscape:export-ydpi="99.027519"
   inkscape:version="0.92.5 (2060ec1f9f, 2020-04-08)"
   sodipodi:docname="102.svg"
   x="0px"
   y="0px"
   viewBox="0 0 125 125"
   xml:space="preserve"
   width="125"
   height="125"><metadata
   id="metadata1096"><rdf:RDF><cc:Work
       rdf:about=""><dc:format>image/svg+xml</dc:format><dc:type
         rdf:resource="http://purl.org/dc/dcmitype/StillImage" /><dc:title></dc:title></cc:Work></rdf:RDF></metadata><defs
   id="defs1094" /><sodipodi:namedview
   pagecolor="#ffffff"
   bordercolor="#666666"
   borderopacity="1"
   objecttolerance="10"
   gridtolerance="10"
   guidetolerance="10"
   inkscape:pageopacity="0"
   inkscape:pageshadow="2"
   inkscape:window-width="1920"
   inkscape:window-height="1017"
   id="namedview1092"
   showgrid="false"
   inkscape:zoom="1.0934881"
   inkscape:cx="387.79999"
   inkscape:cy="387.75"
   inkscape:window-x="-8"
   inkscape:window-y="-8"
   inkscape:window-maximized="1"
   inkscape:current-layer="svg8" />
<style
   type="text/css"
   id="style1063">
	.st0{fill:#FFEB1D;}
</style>

<g
   id="g1121"
   transform="matrix(0.08406927,0,0,0.08406927,29.927361,33.508712)"><g
     id="g1069">
	<polygon
   id="polygon1065"
   points="387,36.4 746.6,657.8 28.2,657.8 "
   class="st0"
   style="fill:#ffeb1d" />
	<path
   id="path1067"
   d="m 411.7,41.6 v 0 0 M 387,84.4 705,633.8 H 69.8 L 387,84.4 m 0,-76.5 c -6.6,0 -13.1,3.2 -16.9,9.7 L 3.5,652.6 c -7.5,13 1.9,29.2 16.9,29.2 h 734.1 c 15,0 24.4,-16.2 16.9,-29.2 L 404,17.6 C 400.1,11.1 393.5,7.9 387,7.9 Z"
   inkscape:connector-curvature="0" />
</g><g
     transform="matrix(0.78708857,0,0,0.78708857,1.2614394,-0.54923778)"
     id="g893">
	<path
   d="m 339.2,685.7 c -14.8,0 -23.9,-5.1 -28.1,-13.5 H 204.5 V 721 h 265.7 v -48.7 h -96.7 c -6.6,8.3 -19.4,13.4 -34.3,13.4"
   inkscape:connector-curvature="0"
   id="path823" />
	<path
   d="m 363.8,667.6 c 4.3,0 10.5,-2.1 15.6,-12.1 1.1,-2.3 1.4,-5.2 1.6,-8.3 0.1,-1.6 0.3,-4.2 0.7,-5.2 0.5,-0.3 1.6,-0.8 2.4,-1.2 2.9,-1.3 7,-3.1 9.1,-7.3 1.2,-2.4 1.5,-4.7 1.5,-7 0,-1.7 -0.2,-3.3 -0.4,-4.8 -0.2,-1.6 -0.4,-3.2 -0.4,-4.8 0,-0.5 0,-1.1 0.1,-1.7 0.2,-2.8 5.2,-8.9 9.6,-12.8 l -6.8,-7.7 c -2.1,1.8 -12.3,11.2 -13,19.6 -0.3,3.3 0.1,6.1 0.3,8.5 0.3,2.9 0.5,4.6 -0.1,6 -0.5,0.9 -2.4,1.8 -4.1,2.5 -2.6,1.1 -5.6,2.4 -7.2,5.4 -1.4,2.7 -1.7,6.1 -2,9.5 -0.1,1.5 -0.3,3.9 -0.6,4.6 -0.9,1.7 -1.8,3.2 -2.7,4.2 -0.6,1.8 -1.7,4.3 -3.6,7 v 5.6"
   inkscape:connector-curvature="0"
   id="path825" />
	<path
   d="m 350.4,661.2 5.9,8.4 c 3.3,-2.3 5.7,-5 7.5,-7.5 1.9,-2.7 3,-5.2 3.6,-7 0.2,-0.7 0.4,-1.2 0.6,-1.6 0.9,-2.9 0.2,-5.6 -0.4,-8 -0.6,-2.5 -1,-4.1 -0.3,-5.6 0.8,-1.8 2.2,-2.9 3.9,-4.2 2,-1.5 4.4,-3.5 5.9,-6.7 1.9,-4 0.8,-8.4 -0.3,-12.6 -0.7,-3 -1.5,-6.1 -1.1,-8.4 l -10.1,-1.8 c -0.2,1.1 -0.3,2.2 -0.3,3.3 0,3.3 0.8,6.5 1.5,9.5 0.4,1.6 1,4 1,5.2 0,0.2 0,0.4 -0.1,0.5 -0.5,1 -1.4,1.7 -3,3 -2.3,1.8 -5.1,4 -6.9,8 -0.9,2.1 -1.3,4.1 -1.3,6 0,2.5 0.5,4.6 1,6.3 0.2,0.8 0.5,2 0.5,2.5 -0.8,3.2 -2.7,7.3 -7.6,10.7"
   inkscape:connector-curvature="0"
   id="path827" />
	<path
   d="m 305.5,640.3 c 0.7,1.3 1.1,2.5 1.4,3.6 1,0.7 2.5,1.6 2.8,2.1 0.5,1.2 0,4.6 -0.3,6.8 -0.1,0.7 -0.2,1.4 -0.3,2.1 2.4,2.4 6.3,5.3 8.3,6.3 l -3.9,7.7 c 1.9,2.7 4.1,5.4 6.2,7.7 l 7.6,-6.9 c -4.4,-4.8 -7.4,-9.5 -8.2,-11.5 0,-0.1 0,-0.2 0,-0.3 0,-0.9 0.2,-2.6 0.4,-3.8 0.3,-2 0.5,-4.2 0.5,-6.3 0,-1.9 -0.2,-3.8 -0.9,-5.6 -1.3,-3.5 -4.5,-5.5 -7,-7.1 -1.5,-0.9 -3.5,-2.3 -3.6,-3.1 0,-0.2 0,-0.4 0,-0.6 0,-1 0.3,-2.1 0.9,-3.9 0.8,-2.6 1.9,-6 1.9,-11.1 0,-0.7 0,-1.4 -0.1,-2.1 l -10.2,0.6 c 0.3,4.3 -0.6,6.8 -1.4,9.5 -0.8,2.5 -1.7,5.3 -1.3,8.9 0,0.2 0.1,0.3 0.1,0.5 2.5,1.2 5.2,3 7.1,6.5"
   inkscape:connector-curvature="0"
   id="path829" />
	<path
   d="m 283.9,619.1 c 0.2,2 -0.1,3.4 -0.5,5.1 -0.6,2.8 -1.4,6.3 0.9,10.9 2.1,4.1 5.6,5.9 8.2,7.2 2.1,1 3.3,1.7 4,2.9 0.8,1.5 0.7,2.6 0.6,4.4 -0.2,2.2 -0.5,5.1 1.4,8.3 3.1,5.2 11.1,10.8 14.5,12.5 l 0.7,-1.4 3.9,-7.7 c -2.1,-1 -5.9,-3.9 -8.3,-6.3 -0.8,-0.8 -1.5,-1.6 -1.9,-2.2 -0.2,-0.3 -0.2,-0.7 -0.1,-2.2 0.1,-1.7 0.3,-3.9 -0.4,-6.6 -0.3,-1.1 -0.7,-2.3 -1.4,-3.6 -1.9,-3.4 -4.6,-5.2 -7,-6.5 -0.5,-0.3 -1,-0.5 -1.4,-0.7 -2.2,-1.1 -3.1,-1.6 -3.6,-2.6 -0.7,-1.3 -0.6,-1.9 -0.1,-4.1 0.4,-1.9 1,-4.6 0.7,-8.2 -0.6,-6.8 -5.8,-12.4 -10,-17 l -3.1,-3.5 -7.9,6.5 3.5,3.9 c 3.1,3.3 7,7.6 7.3,10.9"
   inkscape:connector-curvature="0"
   id="path831" />
	<path
   d="m 329.2,636.6 c 0,7.9 1.9,18.4 11.1,18.4 9.2,0 11.7,-11.9 11.7,-16.8 0,-4.3 -6.5,-22.5 -8.1,-39.1 -2,0 -3.7,-0.6 -5.2,-1.5 -1.4,18.5 -9.5,31.8 -9.5,39"
   inkscape:connector-curvature="0"
   id="path833" />
	<path
   d="m 473.6,487.5 c -20.1,3.2 -112.1,19.7 -120.9,21.5 -13.1,2.5 -16.1,-9.3 -22.1,-12.2 0,0 8.8,51.8 9.3,55.6 1.8,13.8 -7.6,21 -7.6,31.3 0,3.7 1.6,10.7 6.4,13.8 1.4,0.9 3.1,1.5 5.2,1.5 0.1,0 0.1,0 0.2,0 9,0 10.9,-9 10.9,-15.8 0,-10.6 -5.1,-16.6 -5.1,-19.2 0,-2.6 2.1,-5.5 10.2,-6.8 8.1,-1.3 109.5,-18.9 125.5,-21.5 16,-2.6 27.8,-15.7 25.3,-29.1 -2.6,-13.4 -17,-22.3 -37.3,-19.1 m 7,37.8 c -13.7,0.9 -132.9,12.4 -132.9,12.4 l -2.6,-16.9 c 0,0 118,-20.5 131.9,-22.8 13.9,-2.3 23.7,3.2 23.7,11.9 0,8.8 -6.4,14.5 -20.1,15.4"
   inkscape:connector-curvature="0"
   id="path835" />
	<path
   d="m 617.7,567.9 c -2.8,14.2 -8.7,27.9 -8.7,31.7 0,4.9 1.5,17.1 10.7,17.1 9.2,0 12.1,-10.8 12.1,-18.7 0,-6.2 -5.4,-16.3 -7.7,-30.8 -1.4,-10.7 -1.3,-19.2 -3,-19.2 -0.7,-0.1 -2,11.7 -3.4,19.9"
   inkscape:connector-curvature="0"
   id="path837" />
	<path
   d="m 470.2,467.6 c 16,2.6 128.1,21.2 136.3,22.5 4.6,0.7 8.4,3.8 8.4,5.1 0,1.3 -4.9,6 -4.9,14.3 0,6.3 1,16.3 8.3,17.7 0.5,0.1 1.1,0.2 1.8,0.2 1.7,0 3.3,-0.3 4.6,-0.9 5.5,-2.4 7.7,-9.3 7.7,-15.6 0,-14.6 -7.6,-11.7 -5.8,-25.6 0.5,-3.8 7.9,-54.1 7.9,-54.1 -6,2.8 -7.6,13.1 -20.6,10.6 -8.9,-1.7 -111.7,-20.7 -131.9,-23.9 -20.1,-3.2 -33.8,7.3 -36.4,20.7 -2.6,13.5 8.6,26.5 24.6,29 m 12,-39.7 C 496.1,430.2 621,452 621,452 l -2.6,16.9 c 0,0 -129.2,-11.3 -142.8,-12.2 -13.7,-0.9 -19.8,-5.5 -19.8,-14.3 0,-8.7 10.9,-17 26.4,-14.5"
   inkscape:connector-curvature="0"
   id="path839" />
	<path
   d="m 662.9,597.9 c 0.1,1.4 0.1,2.2 -0.7,4 -1.5,3.3 -4.1,7.4 -8,8.4 l 2.3,10 c 4.4,-1 10.7,-4.3 15.1,-14.1 1.8,-4 1.7,-6.8 1.6,-8.7 -0.1,-1.6 -0.1,-2.3 1.2,-4.4 1,-1.5 1.2,-1.6 2.4,-1.9 2.6,-0.7 5.6,-1.8 8.2,-6.7 3,-5.5 2,-10.1 1.3,-13.5 -0.4,-1.8 -0.7,-3.3 -0.4,-4.8 0.4,-2.3 2,-4.1 5.1,-7.2 1.7,-1.7 3.6,-3.7 5.5,-6.1 l -8,-6.3 c -1.6,2 -3.2,3.7 -4.8,5.3 -3.4,3.5 -6.9,7.1 -7.8,12.7 -0.5,3.3 0.1,6.2 0.5,8.5 0.6,3 0.8,4.4 -0.3,6.5 -0.7,1.3 -0.7,1.3 -1.8,1.6 -2.6,0.7 -5.6,1.8 -8.5,6.3 -2.9,4.5 -3,7.5 -2.8,10.4"
   inkscape:connector-curvature="0"
   id="path841" />
	<path
   d="m 645.4,615.2 c 4.9,-4.3 6.4,-5.9 8.7,-13.1 1.5,-4.7 1.1,-7.8 0.9,-10.3 -0.2,-2 -0.4,-3.4 0.3,-5.9 0.3,-1.3 0.5,-1.4 1.9,-2.1 2.2,-1.2 5.8,-3.1 7.5,-9.5 1.5,-5.8 -0.2,-9.5 -1.4,-12.2 -1,-2.1 -1.5,-3.3 -1,-6.1 l -10.1,-1.8 c -1.1,5.9 0.6,9.5 1.8,12.2 1,2.1 1.4,3.1 0.8,5.3 -0.5,2 -0.9,2.2 -2.4,3 -2,1.1 -5.5,2.9 -7,8.5 -1.2,4.4 -0.9,7.3 -0.6,9.7 0.2,2.1 0.4,3.5 -0.5,6.1 -1.5,4.8 -1.6,4.9 -5.7,8.4 l -2.4,2.1 6.9,7.6 2.3,-1.9"
   inkscape:connector-curvature="0"
   id="path843" />
	<path
   d="m 569.5,581.1 c 1.2,5.1 4.8,7.4 7.5,9 2.4,1.5 3.3,2.1 3.6,3.7 0.5,2.5 0.3,3.2 -0.1,4.3 -0.7,2.1 -1.3,4.4 -0.2,8.2 1.9,6.8 4,9 10.8,15.8 l 7.2,-7.2 c -6.5,-6.5 -7,-7.2 -8.2,-11.4 -0.3,-1.1 -0.3,-1.2 0,-2.2 0.7,-2.2 1.4,-4.8 0.4,-9.7 -1.3,-6 -5.5,-8.6 -8.2,-10.3 -2.1,-1.3 -2.7,-1.8 -2.9,-2.6 -0.4,-1.6 0,-2.9 0.9,-5.3 1,-3 2.3,-6.6 1.7,-11.9 l -10.2,1.2 c 0.3,2.9 -0.3,4.8 -1.2,7.3 -0.9,2.9 -2.1,6.5 -1.1,11.1"
   inkscape:connector-curvature="0"
   id="path845" />
	<path
   d="m 562.6,578.4 c 0,-1.8 -0.3,-3.9 -1.1,-6.5 -2.4,-7 -4.8,-9.7 -7.7,-12.8 l -2.9,-3.3 -7.9,6.5 3.2,3.6 c 2.6,2.8 3.9,4.2 5.5,9.1 0.9,2.6 0.6,4 0.2,6 -0.5,2.6 -1.2,6.3 1.1,11.4 2.5,5.6 6.3,7 8.7,7.9 1.7,0.6 1.9,0.7 2.5,2 1,2.1 0.9,2.7 0.6,3.9 -0.3,1.5 -0.8,3.9 0.6,7.1 1.8,4.2 7,14 15.3,15.2 l 1.5,-10.1 c -2.1,-0.3 -5.3,-4.3 -7.5,-9.2 l -0.1,-0.2 0.1,-0.7 c 0.2,-1 0.4,-2.1 0.4,-3.3 0,-1.9 -0.4,-4.1 -1.7,-6.9 -2.4,-5.1 -5.9,-6.4 -8.3,-7.3 -1.8,-0.7 -2.2,-0.8 -2.9,-2.5 -0.5,-1.1 -0.7,-2 -0.7,-2.8 0,-0.7 0.1,-1.5 0.3,-2.5 0.5,-1.2 0.9,-2.7 0.8,-4.6"
   inkscape:connector-curvature="0"
   id="path847" />
	<path
   d="m 629.5,638.1 c -10,8.1 -32.5,8.7 -44.4,-2.1 l -2.5,-2.3 -3.1,1.4 c -4.6,2.1 -10.7,2.3 -15.6,2.4 -6.2,0.2 -11.1,0.3 -13.7,4.3 -1.8,2.9 -1.7,6.8 0.5,10.7 0.3,0.6 0.8,1.3 1.2,1.9 h 22.3 c -8.3,0 -12.7,-3.9 -14.3,-6.4 1.3,-0.1 2.9,-0.2 4.2,-0.2 4.9,-0.1 10.8,-0.4 16.4,-2.3 6.1,4.7 13.6,7.3 21.2,8.3 5.5,-6.5 14.8,-8.9 20.2,-8.9 v 7.7 c 4.2,-1.1 8.1,-2.7 11.4,-4.9 5.4,2.3 13.1,7 18.4,10.2 4.6,2.8 6.9,4.2 8.4,4.7 4.6,1.8 24,3.4 36,3.4 v -10 c -13.5,0 -29.8,-1.8 -32.3,-2.7 -0.8,-0.3 -4.1,-2.3 -6.8,-3.9 -6.9,-4.2 -16.3,-9.9 -22.8,-12.1 l -2.7,-0.9 -2,1.7"
   inkscape:connector-curvature="0"
   id="path849" />
	<path
   d="m 574.3,654.4 h -38.2 c -17.2,0 -19,10.5 -19,14.2 0,1 0.1,2.3 0.5,3.7 h 15.5 c -4.6,0 -6,-1.8 -6,-3.7 0,-1.9 1.7,-4 9.1,-4 h 61.3 c 0.3,-4.2 1.8,-7.5 3.9,-10.2 h -27.1"
   inkscape:connector-curvature="0"
   id="path851" />
	<path
   d="m 511.7,672.4 c -9.9,0 -16.5,7.7 -16.5,15 0,6.9 6.1,15.2 17,15.2 h 3.2 c 0.7,-3.9 3.9,-9.5 15.5,-10.2 v -0.1 h -18.7 c -3.8,0 -6.7,-3.8 -6.8,-5 0,-1.3 1.9,-4.7 6.3,-4.7 h 66.5 v -10.2 h -66.5"
   inkscape:connector-curvature="0"
   id="path855" />
	<path
   d="m 515.3,702.5 c -0.2,0.8 -0.2,1.6 -0.2,2.2 0,8.4 7.4,15.2 20,15.2 h 0.2 c 1.9,-5.7 8.9,-9.7 18.2,-10.2 v -0.1 H 535 c -6.3,0 -9.8,-3.3 -9.8,-5 0,-1.5 3.9,-2.2 7.8,-2.2 h 45 v -10.2 h -45 c -0.8,0 -1.5,0 -2.3,0.1 -11.6,0.7 -14.7,6.3 -15.4,10.2"
   inkscape:connector-curvature="0"
   id="path857" />
	<path
   d="m 535.4,720 c -0.3,1 -0.5,2.1 -0.5,3.2 0,6.4 5.8,13.3 18.6,14.5 9.3,0.8 49.5,2 56.8,2 6,0 31.1,-0.8 44.7,-4.8 4,-1.2 7.4,-2.7 10.7,-4.3 7,-3.3 14.3,-6.7 30.1,-6.7 v -10.2 c -18.1,0 -26.8,4.1 -34.5,7.6 -3.1,1.4 -5.9,2.8 -9.2,3.7 -11.4,3.3 -34.6,4.3 -41.8,4.3 -6.8,0 -46.9,-1.3 -56,-2 -6.5,-0.5 -9.2,-3 -9.2,-4.3 0.2,-0.6 3.4,-3.2 10.6,-3.2 h 41.2 L 587,709.6 h -31.4 c -0.7,0 -1.4,0 -2,0.1 -9.3,0.6 -16.3,4.6 -18.2,10.3"
   inkscape:connector-curvature="0"
   id="path859" />
	<path
   d="m 601.8,653.9 c -0.1,0.2 -0.3,0.3 -0.4,0.5 -2.1,2.7 -3.6,6.1 -3.9,10.2 0,0.6 -0.1,1.1 -0.1,1.7 0,9.5 5,26.1 38.6,30.4 l 1.3,-10.2 c -11.1,-1.4 -29.6,-5.9 -29.6,-20.2 0,-0.6 0.1,-1.2 0.1,-1.7 1.5,-8.8 9.5,-10.2 16.3,-12.4 l -2,-7.1 c -5.4,-0.1 -14.8,2.3 -20.3,8.8"
   inkscape:connector-curvature="0"
   id="path861" />
</g></g>
</svg>