<?xml version="1.0" encoding="utf-8"?>
<!-- Generator: Adobe Illustrator 24.1.0, SVG Export Plug-In . SVG Version: 6.00 Build 0)  -->
<svg version="1.1"
	 id="svg8" inkscape:export-filename="/media/juhele/data_2TB/_GRAFIKA/GHS hazard symbols/GHS06_toxic_substances.png" inkscape:export-xdpi="99.027519" inkscape:export-ydpi="99.027519" inkscape:version="0.92.3 (unknown)" sodipodi:docname="GHS06_toxic_substances.svg" xmlns:cc="http://creativecommons.org/ns#" xmlns:dc="http://purl.org/dc/elements/1.1/" xmlns:inkscape="http://www.inkscape.org/namespaces/inkscape" xmlns:rdf="http://www.w3.org/1999/02/22-rdf-syntax-ns#" xmlns:sodipodi="http://sodipodi.sourceforge.net/DTD/sodipodi-0.dtd" xmlns:svg="http://www.w3.org/2000/svg"
	 xmlns="http://www.w3.org/2000/svg" xmlns:xlink="http://www.w3.org/1999/xlink" x="0px" y="0px" viewBox="0 0 775.6 775.5"
	 style="enable-background:new 0 0 775.6 775.5;" xml:space="preserve">
<style type="text/css">
	.st0{fill:#FFEB1D;}
</style>
<g>
	<polygon class="st0" points="28.2,657.8 387,36.4 746.6,657.8 	"/>
	<path d="M411.7,41.6L411.7,41.6L411.7,41.6 M387,84.4l318,549.4H69.8L387,84.4 M387,7.9c-6.6,0-13.1,3.2-16.9,9.7L3.5,652.6
		c-7.5,13,1.9,29.2,16.9,29.2h734.1c15,0,24.4-16.2,16.9-29.2L404,17.6C400.1,11.1,393.5,7.9,387,7.9L387,7.9z"/>
</g>
<path id="path823" inkscape:connector-curvature="0" d="M385.5,201.1c-10.4,11.2,0,57.3-21.4,100.5c-11.1-11.9-15.5-34-28.1-45.1
	c6.6,17-11.9,15.5-5.2,74.6c-10-2.5-10.4-6.7-32.5-33.2c4.1,25.8,1.5,42.1,6.7,70.9c0,0-5.4-1.1-31-19.9c8.3,28.1-6.2,87.2,27,129.1
	l-0.1-0.1c2.5,37.9,29.3,69.1,64.7,78.5h-64.2v27.2h179.1v-27.2h-69.8c32.2-8.5,57-35,63.3-68l0,0c8.8-14.1,48.1-59.7,17.9-132.9
	c0,0-8.9,16.3-25.1,20.6c0,0,20.8-34.7,3.7-62.8c0,0-5,20.6-22.1,21.4c0,0,8.3-43.7-14.1-71.7c-8.1,18.4,4.8,26.1-22.1,41.4
	C408.4,247.6,396.6,238,385.5,201.1L385.5,201.1z M379.6,325.1c10.3,6.3,17.7,17.3,20,37.8c1,9,4.4,14.1,6.9,23.4
	c-5.9-1.2-12-1.9-18.3-1.9c-7.6,0-15.1,1-22.2,2.8C364.3,357.3,380,363.9,379.6,325.1z M341.9,346.6c0,0,4.1,26,14.7,43.6
	c-7.5,2.9-14.3,6.8-20.6,11.4C332.5,374.6,340.3,368.5,341.9,346.6z M433.6,359.9c0,0,3.9,26.1,9.1,43.6
	c-8.3-6.7-17.9-11.9-28.4-15.1C418.7,379.3,425.5,367.5,433.6,359.9z M301.2,388.7c0,0,7.8,7.9,28.4,18.1
	c-7.2,6.5-13.3,14.1-18,22.7C308.4,419,303.9,403.1,301.2,388.7z M474.9,398.3c0.7,9.7,0.7,33-3.7,45.8v0.4
	c-3.9-11.9-10.2-22.6-18.4-31.5C458.2,408.8,467.1,402.1,474.9,398.3L474.9,398.3z M387.3,408.5c34.5,0,62.5,28,62.5,62.5
	s-28,62.5-62.5,62.5s-62.5-28-62.5-62.5S352.8,408.5,387.3,408.5z"/>
</svg>
