<?xml version="1.0" encoding="UTF-8" standalone="no"?>
<!-- Generator: Adobe Illustrator 24.1.0, SVG Export Plug-In . SVG Version: 6.00 Build 0)  -->

<svg
   xmlns:dc="http://purl.org/dc/elements/1.1/"
   xmlns:cc="http://creativecommons.org/ns#"
   xmlns:rdf="http://www.w3.org/1999/02/22-rdf-syntax-ns#"
   xmlns:svg="http://www.w3.org/2000/svg"
   xmlns="http://www.w3.org/2000/svg"
   xmlns:sodipodi="http://sodipodi.sourceforge.net/DTD/sodipodi-0.dtd"
   xmlns:inkscape="http://www.inkscape.org/namespaces/inkscape"
   version="1.1"
   id="svg8"
   inkscape:export-filename="/media/juhele/data_2TB/_GRAFIKA/GHS hazard symbols/GHS06_toxic_substances.png"
   inkscape:export-xdpi="99.027519"
   inkscape:export-ydpi="99.027519"
   inkscape:version="0.92.5 (2060ec1f9f, 2020-04-08)"
   sodipodi:docname="103.svg"
   x="0px"
   y="0px"
   viewBox="0 0 125 125"
   xml:space="preserve"
   width="125"
   height="125"><metadata
   id="metadata1161"><rdf:RDF><cc:Work
       rdf:about=""><dc:format>image/svg+xml</dc:format><dc:type
         rdf:resource="http://purl.org/dc/dcmitype/StillImage" /><dc:title></dc:title></cc:Work></rdf:RDF></metadata><defs
   id="defs1159" /><sodipodi:namedview
   pagecolor="#ffffff"
   bordercolor="#666666"
   borderopacity="1"
   objecttolerance="10"
   gridtolerance="10"
   guidetolerance="10"
   inkscape:pageopacity="0"
   inkscape:pageshadow="2"
   inkscape:window-width="1920"
   inkscape:window-height="1017"
   id="namedview1157"
   showgrid="false"
   inkscape:zoom="1.0934881"
   inkscape:cx="387.79999"
   inkscape:cy="387.75"
   inkscape:window-x="-8"
   inkscape:window-y="-8"
   inkscape:window-maximized="1"
   inkscape:current-layer="svg8" />
<style
   type="text/css"
   id="style1147">
	.st0{fill:#FFEB1D;}
</style>

<g
   id="g1167"
   transform="matrix(0.08406927,0,0,0.08406927,29.927361,33.508712)"><g
     id="g1153">
	<polygon
   id="polygon1149"
   points="387,36.4 746.6,657.8 28.2,657.8 "
   class="st0"
   style="fill:#ffeb1d" />
	<path
   id="path1151"
   d="m 411.7,41.6 v 0 0 M 387,84.4 705,633.8 H 69.8 L 387,84.4 m 0,-76.5 c -6.6,0 -13.1,3.2 -16.9,9.7 L 3.5,652.6 c -7.5,13 1.9,29.2 16.9,29.2 h 734.1 c 15,0 24.4,-16.2 16.9,-29.2 L 404,17.6 C 400.1,11.1 393.5,7.9 387,7.9 Z"
   inkscape:connector-curvature="0" />
</g><path
     d="m 385.5,201.1 c -10.4,11.2 0,57.3 -21.4,100.5 -11.1,-11.9 -15.5,-34 -28.1,-45.1 6.6,17 -11.9,15.5 -5.2,74.6 -10,-2.5 -10.4,-6.7 -32.5,-33.2 4.1,25.8 1.5,42.1 6.7,70.9 0,0 -5.4,-1.1 -31,-19.9 8.3,28.1 -6.2,87.2 27,129.1 l -0.1,-0.1 c 2.5,37.9 29.3,69.1 64.7,78.5 h -64.2 v 27.2 h 179.1 v -27.2 h -69.8 c 32.2,-8.5 57,-35 63.3,-68 v 0 c 8.8,-14.1 48.1,-59.7 17.9,-132.9 0,0 -8.9,16.3 -25.1,20.6 0,0 20.8,-34.7 3.7,-62.8 0,0 -5,20.6 -22.1,21.4 0,0 8.3,-43.7 -14.1,-71.7 -8.1,18.4 4.8,26.1 -22.1,41.4 -3.8,-56.8 -15.6,-66.4 -26.7,-103.3 z m -5.9,124 c 10.3,6.3 17.7,17.3 20,37.8 1,9 4.4,14.1 6.9,23.4 -5.9,-1.2 -12,-1.9 -18.3,-1.9 -7.6,0 -15.1,1 -22.2,2.8 -1.7,-29.9 14,-23.3 13.6,-62.1 z m -37.7,21.5 c 0,0 4.1,26 14.7,43.6 -7.5,2.9 -14.3,6.8 -20.6,11.4 -3.5,-27 4.3,-33.1 5.9,-55 z m 91.7,13.3 c 0,0 3.9,26.1 9.1,43.6 -8.3,-6.7 -17.9,-11.9 -28.4,-15.1 4.4,-9.1 11.2,-20.9 19.3,-28.5 z m -132.4,28.8 c 0,0 7.8,7.9 28.4,18.1 -7.2,6.5 -13.3,14.1 -18,22.7 -3.2,-10.5 -7.7,-26.4 -10.4,-40.8 z m 173.7,9.6 c 0.7,9.7 0.7,33 -3.7,45.8 v 0.4 C 467.3,432.6 461,421.9 452.8,413 c 5.4,-4.2 14.3,-10.9 22.1,-14.7 z m -87.6,10.2 c 34.5,0 62.5,28 62.5,62.5 0,34.5 -28,62.5 -62.5,62.5 -34.5,0 -62.5,-28 -62.5,-62.5 0,-34.5 28,-62.5 62.5,-62.5 z"
     inkscape:connector-curvature="0"
     id="path823" /></g>
</svg>