<?xml version="1.0" encoding="utf-8"?>
<!-- Generator: Adobe Illustrator 24.1.0, SVG Export Plug-In . SVG Version: 6.00 Build 0)  -->
<svg version="1.1"
	 id="svg8" inkscape:export-filename="/media/juhele/data_2TB/_GRAFIKA/GHS hazard symbols/GHS06_toxic_substances.png" inkscape:export-xdpi="99.027519" inkscape:export-ydpi="99.027519" inkscape:version="0.92.3 (unknown)" sodipodi:docname="GHS06_toxic_substances.svg" xmlns:cc="http://creativecommons.org/ns#" xmlns:dc="http://purl.org/dc/elements/1.1/" xmlns:inkscape="http://www.inkscape.org/namespaces/inkscape" xmlns:rdf="http://www.w3.org/1999/02/22-rdf-syntax-ns#" xmlns:sodipodi="http://sodipodi.sourceforge.net/DTD/sodipodi-0.dtd" xmlns:svg="http://www.w3.org/2000/svg"
	 xmlns="http://www.w3.org/2000/svg" xmlns:xlink="http://www.w3.org/1999/xlink" x="0px" y="0px" viewBox="0 0 775.6 775.5"
	 style="enable-background:new 0 0 775.6 775.5;" xml:space="preserve">
<style type="text/css">
	.st0{fill:#FFFFFF;stroke:#000000;stroke-width:0.158;stroke-linecap:square;stroke-miterlimit:10;}
	.st1{fill-rule:evenodd;clip-rule:evenodd;}
	.st2{fill:#CC0000;stroke:#CC0000;stroke-width:0.316;stroke-miterlimit:10;}
</style>
<g id="layer1" transform="translate(-8.7127302,-233.00001)" inkscape:groupmode="layer" inkscape:label="Laag 1">
	<g id="g31" transform="matrix(0.05573553,0,0,0.05573553,8.6887639,232.97604)">
		<path id="path11" inkscape:connector-curvature="0" class="st0" d="M13131.2,6973.1c0,3435.7-2785.1,6220.8-6220.8,6220.8
			S689.6,10408.8,689.6,6973.1S3474.7,752.3,6910.4,752.3S13131.2,3537.4,13131.2,6973.1z"/>
		<g id="g17" transform="matrix(1.0137,0,0,0.99214,796.94,-3.5673)">
			<path id="path13" inkscape:connector-curvature="0" class="st1" d="M3872.1,7386.6c20.4,80.5,62.3,153.5,82.1,233.1
				c2,69,33.4,135.7,61.7,198.2c26-38,17.4-83.6,41-117.4v-190.6c48.8,32.6,111.6,51.2,132.9,111.6
				c57.3,93.8,91.6,201.2,118.5,307.4c27.8,142,33.9,290.7,97.7,422.9c25.2-33.6,61.4-69.5,61.7-111.4c13.7-38.2,21.5-77.7,41-114.6
				c-10.9-81.4,31.5,12.8,52.7,38c49.5,58.2,39.7,140,56.2,210.8c16.3,69.7,13.7,139.1-1.1,208.8c-16.3,153-59.9,305.9-42.5,460.2
				c15.2,61.2,5.9,73.8,53,31.9c22.6-35.6,56-67.1,66.6-107.7c22.8,44.7,51.7,87.9,41,140.4c11.5,46.9-16.9,84.4-20.6,127.9
				c5.9,56.2-32.6,105.5-20.4,162.8c-36.9,104.2-88.8,205.8-175,277.6c-75.1,78.1-154.6,159.3-262.2,188.9
				c-98.8,45.6-205.4,76.6-314.8,67.5c-46.9,13-80.8-29.1-126.6-20.6c-57.1,2.4-82.5-32.6-10.6-39.1
				c117-72.1,236.4-151.1,320.6-261.4c41.5-86.4,99-163.5,136.3-252c-9.1-46.5,32.6-81,21.5-127.9c-7.8-33.4,21.3-128.7-27.8-79.5
				c-28.2,15.8-49.3,38.6-91,41c4.3-28.7,37.6-77.1,36.7-117.2c-5.4-66.4,16.1-138.7-23-197.8c-11.5-23.2-31.3-130.5-51.7-69.5
				c-41.5,76-72.9,159.1-120.5,230.5c-41.7,50.6-61.7,58-42.1-13.7c25.2-131.5,8.5-265.3-17.6-395.3
				c-1.1-74.7-47.3-134.2-86.8-193.9c-46.9-71.6-112.9-126.6-171.7-187.8c-5.4,85.5,5.9,169.8,20.4,253.8
				c-4.1,94.2,3.9,187.3,20.6,280.2c-15.2,88.4-25.2,177.1-20.6,266.8c-20.2,22.4-24.3,122.9-56.4,87.3
				c-68.6-67.9-77.7-171.5-128.3-251.6c4.8-26.7-14.1-135.2-33.6-76.4c-69.7,109.4-43.9,242-48.4,364.5
				c-3.9,76.8,0.9,152.8,25.8,226.2c26.7,71.9,4.1,56.4-36.5,9.1c-38-58-68.6-124.2-95.7-188.4c-35.4-145.2-63-292.4-99-437.6
				c-20,76-74.5,143.7-61.7,226c-35.8,44.5-8,103.3-36.7,151.1c-5.4,53.6,1.7,97-45.6,33.6c-1.3-44.9-57.3-67.3-82.1-102.7
				c9.1,87.5,34.7,171.1,62.7,253.8c9.1,68.2,19.8,135.9,58.6,194.3c45.4,87.5,97.5,173,151.3,254.8
				c58.8,47.5,118.1,94.4,179.1,139.1c-58.8,27.6-125.9,27.8-184.7,0c-69.2,7.2-135.2-23-197.1-49.3
				c-47.1-21.3-77.1-70.1-118.3-94.4c-51.4-6.5-47.3-67.9-85.3-92.7c-9.6-37.6-54.3-67.1-51-112.7c-24.7-35.2-34.9-76-41-118.7
				c-8.9-41.2-31-76.8-20.6-125.9c-38.9-33.2-13.2-92.9-20.6-139.1v-581.3c42.1,7.8,77.5,31.3,108.1,66.9c45.8,48.8,67.9-33,56.2-71
				c-12.4-115.3,38.9-222.3,55.4-334.5c14.1-98.1,2.6-198.8,6.3-298c71.2,28.7,115.1,96.2,143.7,164.3c41.2,31,60.1,78.4,82.1,123.3
				c30.8-66.9,73.6-133.5,82.3-206.9c-8.2-87.3,15.4-173.2,18.5-259.4c-19.1-92.5-18.9-186.5-20.2-280c-10.9-46.2-23-92-39.3-136.8
				c40.8,23.9,91,38.6,126.3,68.2c18.5,49.7,70.6,75.1,84.4,127.9c19.5,40.8,38.9,100.9,58.4,25.2c60.1-119.6,32.3-258.1,38.9-387.3
				c-2.8-107.9-3.9-222.3,56.4-316.5c16.7-6.5,20.4,78.4,37.1,106.6c16.9,80.5,66.6,145,111.6,211.7
				C3816.1,7255,3854.5,7314.9,3872.1,7386.6L3872.1,7386.6z"/>
			<path id="path15" inkscape:connector-curvature="0" class="st1" d="M6295.2,3258.8c-110.5,33.4-117,142.8-93.3,238.8
				c31,303.9,62.3,607.8,93.3,911.7c-137,61.4-274,123.1-411.1,184.5c102.9,140.7,184.1,295,281.3,438.9
				c21.3,81.6,140,163,135.5,224.5c-338.4,142.4-683.8,272-1017.9,422c-211.2,128.9-431.8,246.6-618.7,412.2
				c-232.7,193-531.2,341.7-648.4,638c-7.6,124.8,158.5,81.8,227.1,40.2c65.1-42.8,233.8-130.5,94.9-13.2
				c-96.2,103.5-234.9,208-274,336.5c60.6,74,175-21.3,247-49.3c122.6-45.4,212.3-150.2,346.9-161.5c74.2-7.6-107,108.3-145.2,144.4
				c-128.1,93.8-269.6,178-352.8,318.9c-8.5,121.1,120,109.6,199.7,77.7c247.3-56,478-161.1,713.8-249.4
				c116.4-33.2-47.3,132.6-87,166.5c-75.5,61.9-168.9,103.3-199.1,203.6c-76.6,82.9-25.6,211.2,89.7,131.1
				c64-47.5,132.2-98.8,206.9-124c-112.4,106.8-227.3,223.6-287.6,365.3c-44.3,152.6,88.1,84.2,179.3,61
				c240.1-67.5,405.7-270.7,563.8-450.9c78.4-90.7,204.9-126.6,251.4-245.7c87-79.7,176.5-158.9,249.6-253.5
				c201-163.5,389.7-346.5,624.8-461.9c-194.1,243.3-400.9,475-627.1,689c-132,117-234,256.2-358.6,378.8
				c-133.5,73.4-196,215.6-287.6,328.4c-28.9,94.6-108.1,172.8-82.1,280.7c0,0,44.3,3.7,156.9-88.4
				c68.8-19.1,194.1-151.1,233.1-73.4c-18,92-76.4,183.9-86,287.2c-28.2,132.6-81.4,267.7-28,400.3c14.1,117.7,64.3,203.8,132,59.5
				c152.6-239,267.7-499.1,343.9-771.9c93.8-229.2,225.8-444.4,378.2-638.6c200.8-239.7,373.2-514,640.8-686.2
				c810.8-598.5,1482.4-1124.5,2294.7-1720.6c-294.1-472.4-588.3-944.7-882.4-1417.1c-677.7,253.1-1211.7,439.8-1889.4,692.9
				c-33.4-314.8-72.7-629.3-102.5-944.3C6453.6,3266.9,6388.9,3252.3,6295.2,3258.8z M6295.2,3361.9
				c133.1-41.7,107.5,111.4,121.3,194.5c75.8,701.6,151.5,1403.4,227.3,2105.2c-131.5,33.6-169.1-35.6-157.6-158.5
				C6423.9,4789.4,6351.4,4075.9,6295.2,3361.9z M6336,5353.6c126.6,90.1-30.4,114-61.2,205.6c-75.3,144.1,43,319.1,180.2,369.7
				c81.6,37.6,195.6-71.4,244.6-13c91.8,158.7,217.3,296.3,311.5,453.9c33.4,67.3,169.5,163.9,89.7,226.6
				c-227.9,201-477.4,383.6-643.9,643c-149.6,164.8-264.8,357.3-379,546.6c-137.4,316.9-239.7,648.8-398.8,956
				c-64-116.4,23.9-259.6,36.3-386c6.7-100.9,58.2-194.9,86.6-282.9c-14.3-89.4-97.5-148.9-188.9-96.4
				c-84.9,25-182.1,140.2-104.8-2.6c108.3-229.5,325-373.8,499.3-546.8c133.7-168.9,299.6-308.7,435-475.8
				c122.9-135.9,264.2-271.3,324.7-448c-93.6-61.2-186.9,34.5-279.8,50.1c-243.1,164.3-438.9,388.6-661.9,578.7
				c-312.8,258.3-549.4,616.1-927.1,788.2c36.5-127.9,151.1-210.8,230.3-312.2c38.6-53.4,170-185.4,41.2-201.4
				c-81.8,24.3-143.9,79.7-221.4,117.7c-113.7,130-84.7-9.1,10.6-61.9c132.9-78.1,240.7-209.7,268.1-363.6
				c-116.1-44.9-241.8,44.5-356.7,74.7c-132.4,42.5-264,89.4-393.8,135.2c-54.9-10-280,80.8-169.8-8.7
				c129.6-115.7,260.3-229.9,406.8-324.7c21.5-66,153.9-210.8,9.6-204.9c-114.2,17.6-213,73.2-312.4,127.9
				c-77.3,38.4-147.8,84.7-231.2,118.3c120.3-120.3,241-245.1,366.9-354.7c102.2-97.9-16.3-124-99.6-76.6
				c-77.9,51.9-168.5,75.1-251.8,114.6c-142,52.3-3.5-102,38.9-148.5c135-158.7,313.9-265.3,479.1-386.6
				c182.1-140.4,379.5-260.3,575.9-380.1C5632,5627.2,5986.2,5496.3,6336,5353.6L6336,5353.6z"/>
		</g>
		<path id="path19" inkscape:connector-curvature="0" class="st2" d="M6899.4,941.1c-1487.6,0-2849.8,541.6-3901.3,1438.1
			c-27.6,23.5-54.9,47.2-82.1,71.2c-10.9,9.6-21.7,19.5-32.6,29.2c-23.2,20.8-46.3,41.9-69.2,63.1c-6.1,5.7-12.2,11.3-18.3,17
			c-27.1,25.3-54.1,50.9-80.7,76.7c-30.6,29.6-61,59.3-90.9,89.5c-29.4,29.7-58.7,59.3-87.5,89.5c-29.8,31.4-59,63.6-88.2,95.7
			c-3.3,3.7-6.9,7.2-10.2,10.9c-25.2,27.8-49.9,55.8-74.6,84c-27,31-53,62.3-79.4,93.8c-1,1.1-2.4,2.2-3.4,3.3
			C1401.9,4153.3,872,5506.7,872,6983.9c0,3335.6,2700,6042.1,6027.3,6042.1c1490.9,0,2855.4-544.2,3908.1-1444.2l0.7,0.7
			c8.5-7.2,16.9-14.3,25.2-21.7c3.5-2.8,6.7-5.9,10.2-8.7c20.4-17.8,40.8-35.6,61-53.6c16.1-14.3,31.7-28.4,47.5-42.8
			c4.6-4.1,9.1-8,13.5-12.2c21.1-19.3,41.7-38.9,62.5-58.4c18.7-17.6,37.1-35.2,55.6-53c2.6-2.4,5-5,7.6-7.4
			c23.4-23,46.5-46,69.7-69.2c6.9-6.7,13.7-13.5,20.4-20.4c27.1-27.4,54.1-55.4,80.8-83.4c2.6-2.8,5.4-5.4,8.2-8.2
			c30.4-32.1,61-64.7,90.7-97.7c27.4-30.2,54.1-60.8,80.8-91.4c5-5.9,10-11.3,15-17.1c22.8-26.3,45.4-53.2,67.7-79.9
			c875.5-1049.1,1403-2399.8,1403-3873.5c0-3335.6-2700.7-6043.1-6028-6043.1V941.1z M6899.4,2288.4
			c2585.6,0,4684.1,2103.7,4684.1,4695.6c0,1103.8-380.3,2119.1-1016.8,2921l-6610-6572.7
			C4760.9,2679.7,5784.7,2288.3,6899.4,2288.4L6899.4,2288.4z M3239,4055.6l6611.3,6574c-805.8,656.4-1832.6,1050-2951,1050
			c-2585.6,0-4683.5-2103.7-4683.5-4695.6c0-1107.1,382.8-2125.4,1023.1-2928.6L3239,4055.6z"/>
	</g>
</g>
</svg>
