<?xml version="1.0" encoding="UTF-8" standalone="no"?>
<!-- Generator: Adobe Illustrator 24.1.0, SVG Export Plug-In . SVG Version: 6.00 Build 0)  -->

<svg
   xmlns:dc="http://purl.org/dc/elements/1.1/"
   xmlns:cc="http://creativecommons.org/ns#"
   xmlns:rdf="http://www.w3.org/1999/02/22-rdf-syntax-ns#"
   xmlns:svg="http://www.w3.org/2000/svg"
   xmlns="http://www.w3.org/2000/svg"
   xmlns:sodipodi="http://sodipodi.sourceforge.net/DTD/sodipodi-0.dtd"
   xmlns:inkscape="http://www.inkscape.org/namespaces/inkscape"
   version="1.1"
   id="svg8"
   inkscape:export-filename="/media/juhele/data_2TB/_GRAFIKA/GHS hazard symbols/GHS06_toxic_substances.png"
   inkscape:export-xdpi="99.027519"
   inkscape:export-ydpi="99.027519"
   inkscape:version="0.92.5 (2060ec1f9f, 2020-04-08)"
   sodipodi:docname="105.svg"
   x="0px"
   y="0px"
   viewBox="0 0 125 125"
   xml:space="preserve"
   width="125"
   height="125"><metadata
   id="metadata885"><rdf:RDF><cc:Work
       rdf:about=""><dc:format>image/svg+xml</dc:format><dc:type
         rdf:resource="http://purl.org/dc/dcmitype/StillImage" /><dc:title></dc:title></cc:Work></rdf:RDF></metadata><defs
   id="defs883" /><sodipodi:namedview
   pagecolor="#ffffff"
   bordercolor="#666666"
   borderopacity="1"
   objecttolerance="10"
   gridtolerance="10"
   guidetolerance="10"
   inkscape:pageopacity="0"
   inkscape:pageshadow="2"
   inkscape:window-width="1920"
   inkscape:window-height="1017"
   id="namedview881"
   showgrid="false"
   inkscape:zoom="1.0934881"
   inkscape:cx="387.79999"
   inkscape:cy="387.75"
   inkscape:window-x="-8"
   inkscape:window-y="-8"
   inkscape:window-maximized="1"
   inkscape:current-layer="svg8" />
<style
   type="text/css"
   id="style871">
	.st0{fill:#FFEB1D;}
</style>

<g
   id="g891"
   transform="matrix(0.08406927,0,0,0.08406927,29.927361,33.508712)"><g
     id="g877">
	<polygon
   id="polygon873"
   points="387,36.4 746.6,657.8 28.2,657.8 "
   class="st0"
   style="fill:#ffeb1d" />
	<path
   id="path875"
   d="m 411.7,41.6 v 0 0 M 387,84.4 705,633.8 H 69.8 L 387,84.4 m 0,-76.5 c -6.6,0 -13.1,3.2 -16.9,9.7 L 3.5,652.6 c -7.5,13 1.9,29.2 16.9,29.2 h 734.1 c 15,0 24.4,-16.2 16.9,-29.2 L 404,17.6 C 400.1,11.1 393.5,7.9 387,7.9 Z"
   inkscape:connector-curvature="0" />
</g><path
     d="m 377.3,240.5 c -21.1,40.4 4.6,63.1 -23.8,122.6 -15,-12 -6.3,-57 -36.2,-57.8 4.6,13.8 1.2,19.2 0.4,24.2 -3,19.4 -9.9,36.6 3.5,62.3 -20.6,-10 -21,-28.4 -38.4,-39.9 3.4,19.6 -4.9,59.2 18.3,97.2 -20.6,-2.1 -27.5,-10 -49.8,-31.4 23.3,120.8 40.6,124.1 126.1,130.9 -6.4,-0.7 -49.5,-7.7 -65.1,-57.2 -0.9,-12.3 -1.4,10.8 40,11.5 -26.2,-41.5 -19.1,-33.7 -16,-57.9 10.8,16.5 1.4,18 32,30.3 -9.7,-30.9 15,-52.1 9.6,-87.3 6.8,15.5 30.9,13.1 29.7,87.4 20,-22.3 22.3,-6.8 31.9,-31.8 0.5,13.9 6.7,31.2 -20.5,59.6 6.9,1.9 18.5,3.4 37.2,-9.3 -18.3,20.7 -1.8,21.3 -48,55.2 58.3,0.8 96.6,-36 95.2,-116.5 -1.5,6.9 -3.2,20.7 -34.7,24.9 19.7,-19.6 29.9,-58.6 14.2,-90.8 -5.5,5.1 -14.1,29.1 -34.9,36 10.5,-17.2 8.1,-39.6 8.1,-39.6 0,0 2.7,-30.1 -15.1,-53.4 -5,36.4 -4.6,54.8 -27.6,60.5 3.7,-21.5 4.4,-31.5 -7.1,-56.1 -11.6,-25.4 -25.5,-50.7 -29,-73.6 z M 281,569.5 V 580 590.5 H 383.6 486.2 V 580 569.5 H 383.6 Z"
     inkscape:connector-curvature="0"
     id="path819" /></g>
</svg>