<?xml version="1.0" encoding="utf-8"?>
<!-- Generator: Adobe Illustrator 24.1.0, SVG Export Plug-In . SVG Version: 6.00 Build 0)  -->
<svg version="1.1"
	 id="svg8" inkscape:export-filename="/media/juhele/data_2TB/_GRAFIKA/GHS hazard symbols/GHS06_toxic_substances.png" inkscape:export-xdpi="99.027519" inkscape:export-ydpi="99.027519" inkscape:version="0.92.3 (unknown)" sodipodi:docname="GHS06_toxic_substances.svg" xmlns:cc="http://creativecommons.org/ns#" xmlns:dc="http://purl.org/dc/elements/1.1/" xmlns:inkscape="http://www.inkscape.org/namespaces/inkscape" xmlns:rdf="http://www.w3.org/1999/02/22-rdf-syntax-ns#" xmlns:sodipodi="http://sodipodi.sourceforge.net/DTD/sodipodi-0.dtd" xmlns:svg="http://www.w3.org/2000/svg"
	 xmlns="http://www.w3.org/2000/svg" xmlns:xlink="http://www.w3.org/1999/xlink" x="0px" y="0px" viewBox="0 0 775.6 775.5"
	 style="enable-background:new 0 0 775.6 775.5;" xml:space="preserve">
<style type="text/css">
	.st0{fill:#FFEB1D;}
</style>
<g>
	<polygon class="st0" points="28.2,657.8 387,36.4 746.6,657.8 	"/>
	<path d="M411.7,41.6L411.7,41.6L411.7,41.6 M387,84.4l318,549.4H69.8L387,84.4 M387,7.9c-6.6,0-13.1,3.2-16.9,9.7L3.5,652.6
		c-7.5,13,1.9,29.2,16.9,29.2h734.1c15,0,24.4-16.2,16.9-29.2L404,17.6C400.1,11.1,393.5,7.9,387,7.9L387,7.9z"/>
</g>
<path id="path819" inkscape:connector-curvature="0" d="M377.3,240.5c-21.1,40.4,4.6,63.1-23.8,122.6c-15-12-6.3-57-36.2-57.8
	c4.6,13.8,1.2,19.2,0.4,24.2c-3,19.4-9.9,36.6,3.5,62.3c-20.6-10-21-28.4-38.4-39.9c3.4,19.6-4.9,59.2,18.3,97.2
	c-20.6-2.1-27.5-10-49.8-31.4c23.3,120.8,40.6,124.1,126.1,130.9c-6.4-0.7-49.5-7.7-65.1-57.2c-0.9-12.3-1.4,10.8,40,11.5
	c-26.2-41.5-19.1-33.7-16-57.9c10.8,16.5,1.4,18,32,30.3c-9.7-30.9,15-52.1,9.6-87.3c6.8,15.5,30.9,13.1,29.7,87.4
	c20-22.3,22.3-6.8,31.9-31.8c0.5,13.9,6.7,31.2-20.5,59.6c6.9,1.9,18.5,3.4,37.2-9.3c-18.3,20.7-1.8,21.3-48,55.2
	c58.3,0.8,96.6-36,95.2-116.5c-1.5,6.9-3.2,20.7-34.7,24.9c19.7-19.6,29.9-58.6,14.2-90.8c-5.5,5.1-14.1,29.1-34.9,36
	c10.5-17.2,8.1-39.6,8.1-39.6s2.7-30.1-15.1-53.4c-5,36.4-4.6,54.8-27.6,60.5c3.7-21.5,4.4-31.5-7.1-56.1
	C394.7,288.7,380.8,263.4,377.3,240.5z M281,569.5V580v10.5h102.6h102.6V580v-10.5H383.6H281z"/>
</svg>
