<?xml version="1.0" encoding="UTF-8" standalone="no"?>
<!-- Generator: Adobe Illustrator 24.1.0, SVG Export Plug-In . SVG Version: 6.00 Build 0)  -->

<svg
   xmlns:dc="http://purl.org/dc/elements/1.1/"
   xmlns:cc="http://creativecommons.org/ns#"
   xmlns:rdf="http://www.w3.org/1999/02/22-rdf-syntax-ns#"
   xmlns:svg="http://www.w3.org/2000/svg"
   xmlns="http://www.w3.org/2000/svg"
   xmlns:sodipodi="http://sodipodi.sourceforge.net/DTD/sodipodi-0.dtd"
   xmlns:inkscape="http://www.inkscape.org/namespaces/inkscape"
   version="1.1"
   id="svg8"
   inkscape:export-filename="/media/juhele/data_2TB/_GRAFIKA/GHS hazard symbols/GHS06_toxic_substances.png"
   inkscape:export-xdpi="99.027519"
   inkscape:export-ydpi="99.027519"
   inkscape:version="0.92.5 (2060ec1f9f, 2020-04-08)"
   sodipodi:docname="106.svg"
   x="0px"
   y="0px"
   viewBox="0 0 125 125"
   xml:space="preserve"
   width="125"
   height="125"><metadata
   id="metadata916"><rdf:RDF><cc:Work
       rdf:about=""><dc:format>image/svg+xml</dc:format><dc:type
         rdf:resource="http://purl.org/dc/dcmitype/StillImage" /><dc:title></dc:title></cc:Work></rdf:RDF></metadata><defs
   id="defs914" /><sodipodi:namedview
   pagecolor="#ffffff"
   bordercolor="#666666"
   borderopacity="1"
   objecttolerance="10"
   gridtolerance="10"
   guidetolerance="10"
   inkscape:pageopacity="0"
   inkscape:pageshadow="2"
   inkscape:window-width="1920"
   inkscape:window-height="1017"
   id="namedview912"
   showgrid="false"
   inkscape:zoom="1.0934881"
   inkscape:cx="387.79999"
   inkscape:cy="387.75"
   inkscape:window-x="-8"
   inkscape:window-y="-8"
   inkscape:window-maximized="1"
   inkscape:current-layer="svg8" />
<style
   type="text/css"
   id="style901">
	.st0{fill:#FFEB1D;}
</style>

<g
   id="g923"
   transform="matrix(0.08406927,0,0,0.08406927,29.927361,33.508712)"><g
     id="g907">
	<polygon
   id="polygon903"
   points="387,36.4 746.6,657.8 28.2,657.8 "
   class="st0"
   style="fill:#ffeb1d" />
	<path
   id="path905"
   d="m 411.7,41.6 v 0 0 M 387,84.4 705,633.8 H 69.8 L 387,84.4 m 0,-76.5 c -6.6,0 -13.1,3.2 -16.9,9.7 L 3.5,652.6 c -7.5,13 1.9,29.2 16.9,29.2 h 734.1 c 15,0 24.4,-16.2 16.9,-29.2 L 404,17.6 C 400.1,11.1 393.5,7.9 387,7.9 Z"
   inkscape:connector-curvature="0" />
</g><g
     transform="matrix(0.78708857,0,0,0.78708857,1.2614394,-0.54923778)"
     id="g852">
	<path
   d="m 482.7,613.9 c 11,0 7.3,-4.4 16.6,-4.4 7.6,0 5.1,4.3 15.4,4.3 9.6,0 12,-7.3 12,-10.2 0,-4.6 -5.2,-7.5 -7.5,-13.7 -2.3,-6.2 -6.9,-29 -20.8,-29 -5.1,0 -8.1,2.1 -12,6.7 -6.3,7.4 -6.8,19.8 -10.7,24.7 -3.8,4.7 -5.3,9.7 -5.3,12.3 0,2.8 1.4,9.2 12.3,9.3 m -107.4,78 -10.5,5 c -10.5,5.1 -23.7,15.7 -26.4,37.5 -0.5,3.6 -8.5,13.1 -16.8,13.1 -5.1,0 -11.1,-3.4 -11.9,-8.4 -1.4,-8.6 -7.9,-39.4 -8.2,-40.7 -0.8,-3.8 -4.5,-6.2 -8.3,-5.4 -3.8,0.8 -6.2,4.5 -5.4,8.3 0,0.1 1,4.9 1,4.9 -12.2,-5.8 -12.7,-6.9 -12.7,-11.1 0,-5.2 12,-11.8 21.5,-11.8 8,0 14.1,2.3 20,4.5 5.3,2 10.8,4.1 17.1,4.1 9,0 11.5,-0.9 15.6,-3.1 l 3.5,-1.7 c 5.4,-2.3 47.5,-22.4 66.1,-31.2 2.6,3.7 5.7,7.4 9.3,11 m -4.7,-69.6 c 16.4,10.2 16.1,9.7 16.2,16.1 -0.2,1.7 -0.3,4.6 -0.3,9.9 0,17.5 34,32.1 55.4,32.1 23.7,0 55.1,-16 55.1,-32.7 v -9 c 0,-7.1 0.7,-7.7 14.4,-15.8 v 33.3 c 0,9.3 -12.8,29.2 -35.9,40.8 l -0.7,0.4 c -11.2,5.6 -25.1,12 -30.8,12 -5.3,0 -23.2,-5.2 -37.5,-12.4 -23.1,-11.6 -35.9,-31.5 -35.9,-40.8 z m -144,-54.5 c -0.1,0 -0.1,0 0,0 -0.1,0 -0.1,0 0,0 M 695,529.6 c 3.1,0 4.5,1 5.2,1.8 4.5,4.7 4.1,18.4 3.8,28.4 l -0.2,7.9 c -0.1,3.9 3,6.9 6.9,7 3.9,0.1 7.1,-3.1 7.2,-7 l 0.1,-2.8 c 0.4,1.1 0.6,2 0.6,2.6 V 581 c 0,3.8 -1.1,8.4 -6.4,8.4 -4.4,0 -9.9,-2.7 -15.3,-5.3 -6.2,-3 -12.1,-5.9 -18.1,-5.9 h -1 c -3.5,-0.2 -10.8,-0.5 -21.1,4.3 l -0.2,0.1 -77,39.1 V 602 c 11.4,-5.2 55.1,-25.2 65.9,-30.8 12.2,-6.3 21.5,-19.7 26.9,-27.7 l 2.1,-3 c 3.5,-5 11.2,-10.9 20.6,-10.9 z m -355.2,52.9 h -0.1 c -10.3,-4.8 -17.6,-4.5 -21.1,-4.3 h -1 c -6,0 -11.9,2.9 -18.1,5.9 -5.3,2.6 -11,5.3 -15.3,5.3 -5.3,0 -6.4,-4.6 -6.4,-8.4 v -13.5 c 0,-0.6 0.2,-1.5 0.6,-2.6 l 0.1,2.8 c 0.1,3.9 3.3,7.1 7.2,7 3.9,-0.1 7,-3.1 6.9,-7 l -0.2,-7.9 c -0.3,-10 -0.7,-23.7 3.8,-28.4 0.7,-0.8 2.1,-1.8 5.2,-1.8 9.5,0 17.1,5.9 20.8,10.9 l 2.1,3 c 5.5,8 14.8,21.5 26.9,27.7 9.4,4.9 43.1,20.3 59.4,27.8 v 19.3 z M 495.9,362.8 c 39.1,0 58.2,16.3 82.3,38.2 l 12.8,11.5 4.8,4.1 c 15.3,13.3 29.8,25.8 29.8,33.2 0,9.2 -3.2,18.4 -7.6,26.9 0.5,-3.1 0.5,-5.2 0.5,-9.2 0,-15.2 -4.2,-21.7 -19.7,-37.9 l -10.2,9.7 c 14.5,15.2 15.8,18.4 15.8,28.1 0,6.1 0,6.1 -3.1,19.7 l -4.1,18.3 0.5,1.7 c 0.1,0.2 4.8,17.6 4.8,34.3 0,17.5 -10.7,24 -24.1,32.3 l -4.2,2.6 -14.5,8.7 c -15.3,9 -23,13 -23,28.7 v 9 c 0,5.2 -19.7,18.6 -40.7,18.6 -19.3,0 -40.5,-13.3 -41.3,-18.2 0,-6.4 0.3,-9.2 0.3,-9.2 0,-15.4 -7.5,-19.7 -22.4,-28.4 -4.1,-2.4 -9.3,-5.4 -15.4,-9.2 l -4.2,-2.6 c -13.5,-8.3 -23.2,-13 -23.2,-32.3 0,-20.3 4.8,-27.6 4.8,-33.8 0,-6.3 -6.8,-30.7 -6.8,-34.5 0,-0.5 0.1,-4.6 0.1,-4.6 0,-9.1 1.2,-16.8 15.3,-29.3 1.1,-1 2.9,-4.1 1.5,-5.8 -1.4,-1.7 -2,-2.4 -3.6,-4.4 -0.8,-1 -2.3,-1.3 -3.7,-1.3 -1.4,0 -2.8,0.4 -3.4,0.9 -16.7,14.8 -20.1,26.1 -20.1,39.9 0,0 -0.1,4.1 -0.1,4.7 0,3.8 -0.2,1.9 1.8,9.8 -6,-10.2 -11.1,-21.7 -11.1,-33.3 0,-7.2 13.8,-19.7 28.4,-32.9 l 6.4,-5.8 c 5,-4.6 9.5,-8.9 13.7,-13.1 9.7,-9.5 17.3,-17 26.1,-21.5 20,-10.1 38.1,-13.9 57.1,-13.9 m -83.2,281 c -24.4,11.7 -60.1,28.7 -64.8,30.6 l -4.7,2.3 c -2,1.1 -2.7,1.4 -8.9,1.4 -3.7,0 -7.6,-1.5 -12.1,-3.2 -6.4,-2.4 -14.4,-5.3 -24.9,-5.3 -14.5,0 -35.5,10.1 -35.5,25.9 0,14.1 9,18.3 24,25.3 l 6.4,3.1 c 1.5,7.4 2.9,14.6 3.5,18 2.1,12.6 14.8,20.1 25.8,20.1 15.7,0 29.5,-15.4 30.8,-25.3 1.6,-12.6 7.7,-21.3 18.6,-26.6 l 10.4,-4.9 59.3,-27.9 c 4.1,2.9 8.5,5.6 13.2,8 11.6,5.8 33.6,14.5 43.8,14.5 9.1,0 22.7,-6.9 37.5,-14.3 6.3,-3.2 11.8,-6.7 16.7,-10.5 l 73,35.1 c 10.9,5.3 17,13.9 18.6,26.6 1.3,10 15,25.3 30.8,25.3 11,0 23.7,-7.5 25.8,-20.1 0.6,-3.4 2,-10.6 3.5,-18 l -0.6,0.3 0.6,-0.3 6.4,-3.1 c 14.9,-7 24,-11.3 24,-25.3 0,-15.8 -21,-25.9 -35.5,-25.9 -10.5,0 -18.5,3 -24.9,5.3 -4.5,1.7 -8.5,3.2 -12.1,3.2 -6.3,0 -6.9,-0.3 -8.9,-1.4 l -4.7,-2.3 c -4.9,-2.1 -46.1,-21.7 -70.2,-33.2 0.3,-1 0.6,-2 0.8,-3 16.5,-8.4 83.7,-42.4 84,-42.5 7.1,-3.3 11.5,-3.1 14.4,-3 l 1.7,0.1 c 2.7,0 7.4,2.3 11.9,4.5 6.5,3.2 13.9,6.8 21.5,6.8 12.1,0 20.5,-9.3 20.5,-22.5 v -13.5 c 0,-7.4 -5.1,-17.6 -14.5,-23.3 -0.5,-8.7 -2.4,-16.9 -7.8,-22.5 -3.9,-4 -9.1,-6.1 -15.3,-6.1 -14.8,0 -26.3,8.6 -32.1,16.7 l -2.3,3.3 c -4.5,6.5 -12.8,18.5 -21.8,23.1 -6.5,3.3 -25.6,12.2 -41.9,19.8 10.6,-7.7 19.7,-18.1 19.7,-36.9 0,-11.8 -2,-23.5 -3.6,-30.7 l 2.5,-3.8 c 10.1,-14.7 24,-34.7 24,-57.2 0,-13.9 -14.5,-26.4 -34.6,-43.9 l -4.7,-4.1 -12.5,-11.2 c -24.3,-22.1 -47.1,-42.9 -91.7,-42.9 -21,0 -41.7,5.3 -63.5,16.4 -10.8,5.5 -19.5,14.1 -29.6,24 -4.1,4.1 -8.4,8.3 -13.3,12.7 l -6.3,5.8 c -19.1,17.3 -33,29.9 -33,43.3 0,22.5 13.9,42.6 24,57.2 l 1.8,2.7 c -1.4,10.3 -2.9,23.9 -2.9,33.5 0,13.1 6.1,22.4 14,29.6 -12.7,-5.9 -24.8,-11.6 -29.7,-14.1 -9,-4.6 -17.3,-16.7 -21.8,-23.1 l -2.3,-3.3 c -5.9,-8.1 -17.5,-16.7 -32.1,-16.7 -6.3,0 -11.4,2 -15.3,6.1 -5.4,5.6 -7.3,13.8 -7.8,22.5 0,0 0.1,0 0.1,-0.1 0,0 -0.1,0 -0.1,0.1 -9.5,5.7 -14.5,16 -14.5,23.3 v 13.5 c 0,13.3 8.4,22.5 20.5,22.5 7.6,0 15,-3.6 21.5,-6.8 4.5,-2.2 9.2,-4.5 11.9,-4.5 l 1.7,-0.1 c 2.9,-0.1 7.3,-0.3 14.4,3 0.3,0.1 53.6,27.2 77,38.9 m 160.7,18.9 c 14.4,6.9 65.1,31.1 70.9,33.6 l 3.5,1.7 c 4.1,2.2 6.7,3.1 15.6,3.1 6.2,0 11.7,-2.1 17.1,-4.1 5.9,-2.2 12,-4.5 20,-4.5 9.5,0 21.5,6.6 21.5,11.8 0,4.2 -0.5,5.3 -12.7,11.1 0.6,-2.9 1,-4.8 1,-4.9 0.8,-3.8 -1.6,-7.5 -5.4,-8.3 -3.8,-0.8 -7.5,1.6 -8.3,5.4 -0.3,1.3 -6.8,32.1 -8.2,40.7 -0.8,5 -6.8,8.3 -11.9,8.3 -8.3,0 -16.3,-9.5 -16.8,-13.1 -2.7,-21.8 -15.9,-32.4 -26.4,-37.5 l -68,-32.7 c 3.1,-3.2 5.9,-6.9 8.1,-10.6 M 553.2,556 c 23.5,0 33.3,-29.5 33.3,-37.1 0,-7.6 -6,-10.8 -9.5,-10.8 h -44.6 c -4.8,0 -16.2,3.9 -16.2,11.3 0,2.8 2.1,8.9 6.6,14.8 7.6,10.3 14.3,21.8 30.4,21.8 m -116.7,0 c 16,0 22.8,-11.5 30.5,-21.7 4.5,-5.9 6.6,-12 6.6,-14.8 0,-7.4 -11.5,-11.3 -16.2,-11.3 h -44.6 c -3.5,0 -9.5,3.2 -9.5,10.8 -0.1,7.6 9.8,37.1 33.2,37 m -12.1,29.1 h -10.5 c 5,2.3 8.8,4 10.5,4.8 v -4.8 M 410.5,634 c 0.3,2.9 1.1,5.9 2.4,9.2 z"
   inkscape:connector-curvature="0"
   id="path839-7" />
</g></g>
</svg>