<?xml version="1.0" encoding="utf-8"?>
<!-- Generator: Adobe Illustrator 24.1.0, SVG Export Plug-In . SVG Version: 6.00 Build 0)  -->
<svg version="1.1"
	 id="svg8" inkscape:export-filename="/media/juhele/data_2TB/_GRAFIKA/GHS hazard symbols/GHS06_toxic_substances.png" inkscape:export-xdpi="99.027519" inkscape:export-ydpi="99.027519" inkscape:version="0.92.3 (unknown)" sodipodi:docname="GHS06_toxic_substances.svg" xmlns:cc="http://creativecommons.org/ns#" xmlns:dc="http://purl.org/dc/elements/1.1/" xmlns:inkscape="http://www.inkscape.org/namespaces/inkscape" xmlns:rdf="http://www.w3.org/1999/02/22-rdf-syntax-ns#" xmlns:sodipodi="http://sodipodi.sourceforge.net/DTD/sodipodi-0.dtd" xmlns:svg="http://www.w3.org/2000/svg"
	 xmlns="http://www.w3.org/2000/svg" xmlns:xlink="http://www.w3.org/1999/xlink" x="0px" y="0px" viewBox="0 0 775.6 775.5"
	 style="enable-background:new 0 0 775.6 775.5;" xml:space="preserve">
<style type="text/css">
	.st0{fill:#FFEB1D;}
</style>
<g>
	<polygon class="st0" points="28.2,657.8 387,36.4 746.6,657.8 	"/>
	<path d="M411.7,41.6L411.7,41.6L411.7,41.6 M387,84.4l318,549.4H69.8L387,84.4 M387,7.9c-6.6,0-13.1,3.2-16.9,9.7L3.5,652.6
		c-7.5,13,1.9,29.2,16.9,29.2h734.1c15,0,24.4-16.2,16.9-29.2L404,17.6C400.1,11.1,393.5,7.9,387,7.9L387,7.9z"/>
</g>
<g id="g852" transform="matrix(0.78708857,0,0,0.78708857,1.2614394,-0.54923778)">
	<path id="path839-7" inkscape:connector-curvature="0" d="M482.7,613.9c11,0,7.3-4.4,16.6-4.4c7.6,0,5.1,4.3,15.4,4.3
		c9.6,0,12-7.3,12-10.2c0-4.6-5.2-7.5-7.5-13.7s-6.9-29-20.8-29c-5.1,0-8.1,2.1-12,6.7c-6.3,7.4-6.8,19.8-10.7,24.7
		c-3.8,4.7-5.3,9.7-5.3,12.3C470.4,607.4,471.8,613.8,482.7,613.9 M375.3,691.9l-10.5,5c-10.5,5.1-23.7,15.7-26.4,37.5
		c-0.5,3.6-8.5,13.1-16.8,13.1c-5.1,0-11.1-3.4-11.9-8.4c-1.4-8.6-7.9-39.4-8.2-40.7c-0.8-3.8-4.5-6.2-8.3-5.4s-6.2,4.5-5.4,8.3
		c0,0.1,1,4.9,1,4.9c-12.2-5.8-12.7-6.9-12.7-11.1c0-5.2,12-11.8,21.5-11.8c8,0,14.1,2.3,20,4.5c5.3,2,10.8,4.1,17.1,4.1
		c9,0,11.5-0.9,15.6-3.1l3.5-1.7c5.4-2.3,47.5-22.4,66.1-31.2c2.6,3.7,5.7,7.4,9.3,11 M424.5,597.3c16.4,10.2,16.1,9.7,16.2,16.1
		c-0.2,1.7-0.3,4.6-0.3,9.9c0,17.5,34,32.1,55.4,32.1c23.7,0,55.1-16,55.1-32.7v-9c0-7.1,0.7-7.7,14.4-15.8v33.3
		c0,9.3-12.8,29.2-35.9,40.8l-0.7,0.4c-11.2,5.6-25.1,12-30.8,12c-5.3,0-23.2-5.2-37.5-12.4c-23.1-11.6-35.9-31.5-35.9-40.8
		L424.5,597.3z M280.5,542.8C280.4,542.8,280.4,542.8,280.5,542.8C280.4,542.8,280.4,542.8,280.5,542.8 M695,529.6
		c3.1,0,4.5,1,5.2,1.8c4.5,4.7,4.1,18.4,3.8,28.4l-0.2,7.9c-0.1,3.9,3,6.9,6.9,7s7.1-3.1,7.2-7l0.1-2.8c0.4,1.1,0.6,2,0.6,2.6V581
		c0,3.8-1.1,8.4-6.4,8.4c-4.4,0-9.9-2.7-15.3-5.3c-6.2-3-12.1-5.9-18.1-5.9h-1c-3.5-0.2-10.8-0.5-21.1,4.3l-0.2,0.1l-77,39.1V602
		c11.4-5.2,55.1-25.2,65.9-30.8c12.2-6.3,21.5-19.7,26.9-27.7l2.1-3C677.9,535.5,685.6,529.6,695,529.6L695,529.6z M339.8,582.5
		h-0.1c-10.3-4.8-17.6-4.5-21.1-4.3h-1c-6,0-11.9,2.9-18.1,5.9c-5.3,2.6-11,5.3-15.3,5.3c-5.3,0-6.4-4.6-6.4-8.4v-13.5
		c0-0.6,0.2-1.5,0.6-2.6l0.1,2.8c0.1,3.9,3.3,7.1,7.2,7c3.9-0.1,7-3.1,6.9-7l-0.2-7.9c-0.3-10-0.7-23.7,3.8-28.4
		c0.7-0.8,2.1-1.8,5.2-1.8c9.5,0,17.1,5.9,20.8,10.9l2.1,3c5.5,8,14.8,21.5,26.9,27.7c9.4,4.9,43.1,20.3,59.4,27.8v19.3L339.8,582.5
		z M495.9,362.8c39.1,0,58.2,16.3,82.3,38.2l12.8,11.5l4.8,4.1c15.3,13.3,29.8,25.8,29.8,33.2c0,9.2-3.2,18.4-7.6,26.9
		c0.5-3.1,0.5-5.2,0.5-9.2c0-15.2-4.2-21.7-19.7-37.9l-10.2,9.7c14.5,15.2,15.8,18.4,15.8,28.1c0,6.1,0,6.1-3.1,19.7l-4.1,18.3
		l0.5,1.7c0.1,0.2,4.8,17.6,4.8,34.3c0,17.5-10.7,24-24.1,32.3l-4.2,2.6l-14.5,8.7c-15.3,9-23,13-23,28.7v9
		c0,5.2-19.7,18.6-40.7,18.6c-19.3,0-40.5-13.3-41.3-18.2c0-6.4,0.3-9.2,0.3-9.2c0-15.4-7.5-19.7-22.4-28.4
		c-4.1-2.4-9.3-5.4-15.4-9.2l-4.2-2.6c-13.5-8.3-23.2-13-23.2-32.3c0-20.3,4.8-27.6,4.8-33.8c0-6.3-6.8-30.7-6.8-34.5
		c0-0.5,0.1-4.6,0.1-4.6c0-9.1,1.2-16.8,15.3-29.3c1.1-1,2.9-4.1,1.5-5.8c-1.4-1.7-2-2.4-3.6-4.4c-0.8-1-2.3-1.3-3.7-1.3
		c-1.4,0-2.8,0.4-3.4,0.9c-16.7,14.8-20.1,26.1-20.1,39.9c0,0-0.1,4.1-0.1,4.7c0,3.8-0.2,1.9,1.8,9.8c-6-10.2-11.1-21.7-11.1-33.3
		c0-7.2,13.8-19.7,28.4-32.9l6.4-5.8c5-4.6,9.5-8.9,13.7-13.1c9.7-9.5,17.3-17,26.1-21.5c20-10.1,38.1-13.9,57.1-13.9 M413,643.5
		c-24.4,11.7-60.1,28.7-64.8,30.6l-4.7,2.3c-2,1.1-2.7,1.4-8.9,1.4c-3.7,0-7.6-1.5-12.1-3.2c-6.4-2.4-14.4-5.3-24.9-5.3
		c-14.5,0-35.5,10.1-35.5,25.9c0,14.1,9,18.3,24,25.3l6.4,3.1c1.5,7.4,2.9,14.6,3.5,18c2.1,12.6,14.8,20.1,25.8,20.1
		c15.7,0,29.5-15.4,30.8-25.3c1.6-12.6,7.7-21.3,18.6-26.6l10.4-4.9l59.3-27.9c4.1,2.9,8.5,5.6,13.2,8c11.6,5.8,33.6,14.5,43.8,14.5
		c9.1,0,22.7-6.9,37.5-14.3c6.3-3.2,11.8-6.7,16.7-10.5l73,35.1c10.9,5.3,17,13.9,18.6,26.6c1.3,10,15,25.3,30.8,25.3
		c11,0,23.7-7.5,25.8-20.1c0.6-3.4,2-10.6,3.5-18l-0.6,0.3l0.6-0.3l6.4-3.1c14.9-7,24-11.3,24-25.3c0-15.8-21-25.9-35.5-25.9
		c-10.5,0-18.5,3-24.9,5.3c-4.5,1.7-8.5,3.2-12.1,3.2c-6.3,0-6.9-0.3-8.9-1.4l-4.7-2.3c-4.9-2.1-46.1-21.7-70.2-33.2
		c0.3-1,0.6-2,0.8-3c16.5-8.4,83.7-42.4,84-42.5c7.1-3.3,11.5-3.1,14.4-3l1.7,0.1c2.7,0,7.4,2.3,11.9,4.5c6.5,3.2,13.9,6.8,21.5,6.8
		c12.1,0,20.5-9.3,20.5-22.5v-13.5c0-7.4-5.1-17.6-14.5-23.3c-0.5-8.7-2.4-16.9-7.8-22.5c-3.9-4-9.1-6.1-15.3-6.1
		c-14.8,0-26.3,8.6-32.1,16.7l-2.3,3.3c-4.5,6.5-12.8,18.5-21.8,23.1c-6.5,3.3-25.6,12.2-41.9,19.8c10.6-7.7,19.7-18.1,19.7-36.9
		c0-11.8-2-23.5-3.6-30.7l2.5-3.8c10.1-14.7,24-34.7,24-57.2c0-13.9-14.5-26.4-34.6-43.9l-4.7-4.1L587.8,391
		c-24.3-22.1-47.1-42.9-91.7-42.9c-21,0-41.7,5.3-63.5,16.4c-10.8,5.5-19.5,14.1-29.6,24c-4.1,4.1-8.4,8.3-13.3,12.7l-6.3,5.8
		c-19.1,17.3-33,29.9-33,43.3c0,22.5,13.9,42.6,24,57.2l1.8,2.7c-1.4,10.3-2.9,23.9-2.9,33.5c0,13.1,6.1,22.4,14,29.6
		c-12.7-5.9-24.8-11.6-29.7-14.1c-9-4.6-17.3-16.7-21.8-23.1l-2.3-3.3c-5.9-8.1-17.5-16.7-32.1-16.7c-6.3,0-11.4,2-15.3,6.1
		c-5.4,5.6-7.3,13.8-7.8,22.5c0,0,0.1,0,0.1-0.1c0,0-0.1,0-0.1,0.1c-9.5,5.7-14.5,16-14.5,23.3v13.5c0,13.3,8.4,22.5,20.5,22.5
		c7.6,0,15-3.6,21.5-6.8c4.5-2.2,9.2-4.5,11.9-4.5l1.7-0.1c2.9-0.1,7.3-0.3,14.4,3c0.3,0.1,53.6,27.2,77,38.9 M571.5,653.4
		c14.4,6.9,65.1,31.1,70.9,33.6l3.5,1.7c4.1,2.2,6.7,3.1,15.6,3.1c6.2,0,11.7-2.1,17.1-4.1c5.9-2.2,12-4.5,20-4.5
		c9.5,0,21.5,6.6,21.5,11.8c0,4.2-0.5,5.3-12.7,11.1c0.6-2.9,1-4.8,1-4.9c0.8-3.8-1.6-7.5-5.4-8.3c-3.8-0.8-7.5,1.6-8.3,5.4
		c-0.3,1.3-6.8,32.1-8.2,40.7c-0.8,5-6.8,8.3-11.9,8.3c-8.3,0-16.3-9.5-16.8-13.1c-2.7-21.8-15.9-32.4-26.4-37.5l-68-32.7
		C566.5,660.8,569.3,657.1,571.5,653.4 M553.2,556c23.5,0,33.3-29.5,33.3-37.1s-6-10.8-9.5-10.8h-44.6c-4.8,0-16.2,3.9-16.2,11.3
		c0,2.8,2.1,8.9,6.6,14.8C530.4,544.5,537.1,556,553.2,556 M436.5,556c16,0,22.8-11.5,30.5-21.7c4.5-5.9,6.6-12,6.6-14.8
		c0-7.4-11.5-11.3-16.2-11.3h-44.6c-3.5,0-9.5,3.2-9.5,10.8C403.2,526.6,413.1,556.1,436.5,556 M424.4,585.1h-10.5
		c5,2.3,8.8,4,10.5,4.8V585.1 M410.5,634c0.3,2.9,1.1,5.9,2.4,9.2L410.5,634z"/>
</g>
</svg>
