<?xml version="1.0" encoding="utf-8"?>
<!-- Generator: Adobe Illustrator 24.1.0, SVG Export Plug-In . SVG Version: 6.00 Build 0)  -->
<svg version="1.1"
	 id="svg8" inkscape:export-filename="/media/juhele/data_2TB/_GRAFIKA/GHS hazard symbols/GHS06_toxic_substances.png" inkscape:export-xdpi="99.027519" inkscape:export-ydpi="99.027519" inkscape:version="0.92.3 (unknown)" sodipodi:docname="GHS06_toxic_substances.svg" xmlns:cc="http://creativecommons.org/ns#" xmlns:dc="http://purl.org/dc/elements/1.1/" xmlns:inkscape="http://www.inkscape.org/namespaces/inkscape" xmlns:rdf="http://www.w3.org/1999/02/22-rdf-syntax-ns#" xmlns:sodipodi="http://sodipodi.sourceforge.net/DTD/sodipodi-0.dtd" xmlns:svg="http://www.w3.org/2000/svg"
	 xmlns="http://www.w3.org/2000/svg" xmlns:xlink="http://www.w3.org/1999/xlink" x="0px" y="0px" viewBox="0 0 775.6 775.5"
	 style="enable-background:new 0 0 775.6 775.5;" xml:space="preserve">
<style type="text/css">
	.st0{fill:#FFEB1D;}
</style>
<g>
	<polygon class="st0" points="28.2,657.8 387,36.4 746.6,657.8 	"/>
	<path d="M411.7,41.6L411.7,41.6L411.7,41.6 M387,84.4l318,549.4H69.8L387,84.4 M387,7.9c-6.6,0-13.1,3.2-16.9,9.7L3.5,652.6
		c-7.5,13,1.9,29.2,16.9,29.2h734.1c15,0,24.4-16.2,16.9-29.2L404,17.6C400.1,11.1,393.5,7.9,387,7.9L387,7.9z"/>
</g>
<polygon points="420.9,115.6 254.1,486.3 452.2,164.4 441.8,146.2 389.7,229.6 434.6,125.3 "/>
<polygon points="486.1,230.9 316,440.7 498.5,243.9 "/>
<polygon points="296.5,221.8 244.3,483.1 265.2,277.8 "/>
<polygon points="208.5,383.4 211.1,474.6 197.4,397.1 204.3,387.8 "/>
<polygon points="182.4,421.8 208.5,491.5 204.3,499.4 175.9,435.5 "/>
<polygon points="512.8,277.8 258.7,517.6 532.3,308.4 522.6,300.9 466.5,335.8 522.6,290.2 "/>
<polygon points="554.5,341.7 244.3,541.7 580.6,369 564.3,356 529.1,377.5 559.1,347.1 "/>
<polygon points="613.8,453.1 305.6,524.1 639.2,483.1 "/>
<polygon points="658.8,524.1 373.4,533.2 665.9,541.7 "/>
<polygon points="680.9,565.8 283.4,541.7 697.8,594.5 689.4,582.1 627.5,575.6 682.2,572.3 "/>
<polygon points="532.3,646.6 283.4,565.8 661.4,641.4 610.5,641.4 490.6,618.6 554.5,638.1 "/>
<path d="M463.3,646.6c0,0-1.3-17.6-17.6-19.5c-16.3-2-18.9-3.3-18.9-3.3s-17.6-11.7-26.7-12.4c-9.1-0.7-20-2.6-12.3,3.9
	s46.8,31.3,46.8,31.3H463.3z"/>
<path d="M404.6,641.4L325.1,601v-11.1c0,0,5.9-4.6,0-3.3c-5.9,1.3-2.6,2-5.9,1.3c-3.3-0.7-3.3-0.7-3.3-0.7s-1.3-1.1-3.9-0.9
	c-2.6,0.2-4.6-0.4-3.9,2.8c0.3,1.4,0.3,3.4,0.2,5.2c-0.1,2.4-0.4,4.6-0.4,4.6l-24.6-18.2V573h-3.9l-3.9-4.9l-5.2-2.3c0,0,0,0-2.6,0
	s-9.1,0-9.1,0s-9.1-1.3-8.5,2.3c0.7,3.6,3.9,7.5,3.9,7.5s2.6,3.3,4.6,3.3c2,0,7.2-1.3,11.7,2c4.6,3.3,5.9,6.5,7.8,9.1
	s95.1,56.7,95.1,56.7L404.6,641.4z"/>
<path d="M248.1,594.6c-6.2-4.6-9.3-10.3-7.2-16.6c-0.4-0.1-0.7-0.2-1.1-0.2c-1.6-0.2-3-0.8-3.9-1.8c-1.1,0.2-2.1,0.5-3.1,0.9
	c-5.7,2.3-9.7-7.3-4.2-9.9c4-1.9,7.9-5.5,9.3-9.7c-0.1,0-0.2-0.1-0.4-0.1c-1-0.2-2.3-0.9-3.2-1.3c-2.5-1.1-4.5-2.6-6.8-3.9
	c-2.3-1.3-4.4-1.9-5.9-4.2c-1.5-2.4-1.3-4.2-4.5-4.4c-6.2-0.5-11.2,0.5-15.6-5c-2.4-2.9-1.9-6.3,1.1-8.5c7.1-5.3,6.3-11.5,1.3-16.1
	c-2.8,0.4-5.7-0.9-6.4-3.8c-0.2-0.7-0.4-1.5-0.5-2.2c-22,6.2-38.2,26.4-38.2,50.5c0,29,23.5,52.4,52.4,52.4c14.7,0,27.9-6,37.5-15.8
	C248.4,594.8,248.3,594.7,248.1,594.6z"/>
<path d="M348.9,225c1.1-5,3.1-9.8,5-14.6c1.3-3.1,2.6-6.3,4.5-9c1.9-2.7,4.4-4.9,6.3-7.6c2-2.6,3.4-5.9,2.8-9.2
	c-0.5-2.9-2.6-5.4-2.6-8.3c0-3,2-5.7,1.7-8.7c-0.4-2.9-3.6-5.2-6.4-4.5c-4.5,1-5.7,6.6-7.1,11c-1.9,5.8-5.8,10.8-10.9,14.1
	c-2.2,1.4-4.7,2.6-6.8,4.3c-2,1.7-3.7,4.3-3.3,6.9c0.2,1.7,1.1,3.2,1.1,4.9c0,2.1-1.5,4.4-0.2,6.1c1.8,2.3,7.1,0.6,7.4,3.5
	c0.2,1.5-1.4,3-0.7,4.3c0.3,0.5,0.9,0.8,1.4,1c2.8,1.2,5.7,2.4,8.6,3.5"/>
<path d="M449.1,264.9c1.8-3.7,3.5-7.5,5.3-11.2c0.8-1.8,1.6-4.1,0.2-5.5c-0.8-0.8-2-0.9-3.2-1c-3.8-0.3-8.1-0.5-11.1,1.9
	c-2.5,2-3.7,5.5-6.4,7.1c-4,2.4-8.9-0.1-13.5-0.6c-1.1-0.1-2.3-0.1-3.2,0.5c-1.5,1-1.7,3.1-1.7,5c-0.1,4.1-0.1,8.1-0.2,12.2
	c0,1.2,0,2.3,0.2,3.4c0.7,3.8,3.9,6.6,7.3,8.4c0.7,0.4,1.4,0.7,2.1,0.6c1.3-0.1,2.1-1.4,2.8-2.6c2.9-4.6,7.1-8.4,12.1-10.6
	c3.5-1.6,8.1-3.3,8.4-7.1"/>
<path d="M512.7,449.1c1.3-2.9,2-6,2.2-9.1c-2.2-3.2-6.5-4.3-10.4-4.5c-3.9-0.2-7.9,0.3-11.7-0.7c-1-0.3-1.9-0.7-2.9-0.6
	c-2.4,0.2-3.6,3-4.9,5.1c-3.7,6.2-11.6,8.6-16.4,13.9c-0.6,0.6-1.1,1.3-1.2,2.1c-0.2,1.5,1.1,2.9,2.3,3.9c2.5,2.1,4.9,4.2,7.4,6.2
	c1.6,1.3,3.4,2.7,5.4,2.7c3.4,0,5.4-3.7,7-6.7c1.5-2.8,3.4-5.5,6-7.3s6.1-2.6,9-1.4c0.9,0.3,1.8,0.9,2.7,0.6c0.6-0.2,1-0.7,1.4-1.2
	c1.5-1.9,2.7-4,3.7-6.3"/>
<path d="M408.2,424.8c-0.9-0.6-0.4-2.1,0.4-2.9c0.8-0.8,1.9-1.5,2-2.6c0.2-1.5-1.6-2.5-3-3.1c-1.4-0.6-3.1-1.9-2.5-3.3
	c-3,2.3-5.5,5.1-7.4,8.3c-0.4,0.7-0.8,1.5-0.6,2.2c0.2,0.7,0.8,1.2,1.4,1.6c1.7,1.2,3.7,2.1,5.7,2.6"/>
<path d="M323.3,404.6c-2.8,1-5.7,1.7-8.6,2.2c1.6,2.4,3.2,4.7,4.8,7.1c1.1,1.6,2.9,3.4,4.6,2.6c1.5-0.7,1.7-2.8,3.1-3.7
	c1.1-0.7,2.6-0.4,3.6-1.1c1.1-0.7,1.3-2.1,1.4-3.4c0.1-2,0.1-4-0.2-6c-0.2-1.7-0.6-3.5-1.8-4.7s-3.3-1.8-4.6-0.7
	c-2.2,1.8-0.6,5.8-2.6,7.8"/>
<path d="M444.7,584.7c0.1,1.6-1.7,2.9-3.3,2.8s-3.1-1-4.5-1.9c-1.4-0.9-3-1.7-4.6-1.5c-2.7,0.3-4.4,3.2-7.1,3.8
	c-1.4,0.3-2.9-0.2-4.3-0.6c-4.2-1.3-8.3-2.7-12.5-4c0.7-3.7,0.9-7.6,0.5-11.4c-0.1-0.8-0.2-1.6,0.1-2.3c0.6-1.9,3-2.4,5-2.3
	c3.8,0.1,7.7,1.1,11.1,2.8c1.8-2.2,4.9-3,7.7-2.8c2.8,0.2,5.5,1.3,8.2,2.3c2.1,0.9,4.4,1.8,5.8,3.6c2.2,2.7,1.8,7.1-0.8,9.4
	c-2.4,2.1-6.8,3.3-6.6,6.5"/>
<path d="M374,564.5c-2.4,1.6-4,4.6-3.9,7.5c0,1.1,0.1,2.4-0.9,2.8c-0.9,0.4-1.8-0.5-2.4-1.2c-3-3.6-5.9-7.3-8.9-10.9
	c-0.2-0.2-0.4-0.5-0.4-0.8c0-0.5,0.4-0.9,0.9-1.1c3.9-2.3,9.2-1.8,12.5,1.2c0.7-2.5,5-2.4,5.9,0c0.9,2.4-1.5,5.3-4.1,5.1"/>
<path d="M332.2,561.2c-0.8,1.8-2.6,3-4.6,3c-1.9,0-3.8-1.2-4.6-3c-1.2,0.8-1.4,2.7-0.5,3.8c-1.4-0.5-2.9-1.1-4-2.2s-1.6-2.8-1-4.2
	c0.5-1,1.5-1.7,2-2.7c0.5-1-0.3-2.7-1.3-2.3c3.6,0,7.2,0,10.7-0.1c0.8,0,1.7,0,2.5,0.4c1.3,0.7,1.7,2.4,1.4,3.8
	c-0.3,1.4-1.2,2.6-2.1,3.8"/>
<path d="M283.4,614.6c-0.1-1.5-2.4-1.8-3.7-0.9c-1.3,0.9-2.1,2.4-3.6,2.9c-3.9,1.4-7.7-5.2-11.5-3.5c-0.5,0.2-1,0.6-1.5,0.9
	c-2.7,1.4-6.2-1.2-6.7-4.3c-0.6-3,0.8-6,2.1-8.8c0.4-0.9,0.9-1.8,1.6-2.5c0.9-0.7,2.1-1,3.2-1.1c3.4-0.2,7.3,1.7,8.1,5.1
	c0.2,0.9,0.4,2.1,1.3,2.4c0.7,0.2,1.3-0.4,1.9-0.8c2.5-1.7,6.1-1.5,8.4,0.4c2.3,1.9,3.1,5.5,1.9,8.2"/>
<path d="M267.7,531c-2.5-0.7-5-1.4-7.5-2.1c-1.5-0.4-3.3-1-3.9-2.5c-0.3-0.7-0.3-1.6-0.7-2.3c-0.4-0.9-1.4-1.4-2.3-1.7
	c-4.3-1.1-8,2.9-10.6,6.4c-0.5,0.6-0.9,1.3-1.1,2c-0.2,1.1,0.3,2.3,0,3.4c-0.7,2.4-4.7,3.1-4.5,5.5c2.3-0.3,5-0.4,6.3,1.4
	c1.6,2.2,0.1,5.5,1.5,7.8c7.9-2.1,15.9-4.2,23.8-6.3c0.5-0.1,1-0.3,1.3-0.7c0.5-0.6,0.3-1.4,0.2-2.1c-0.5-2.2-1-4.4-1.5-6.7"/>
<path d="M258,395.2c-3.3,0.7-6.6-0.9-9.3-2.9c-2.7-1.9-5.4-4.2-8.6-5s-7.4,0.7-8.1,3.9c-0.3,1.2,0,2.4,0.1,3.6
	c0.5,3.5,0.7,7,0.5,10.5c0,0.8-0.1,1.7-0.5,2.4c-0.6,1-1.7,1.5-2.7,2.2c-4.6,3.1-5.6,10.3-2,14.5c0.5,0.6,1.1,1.2,1.9,1.5
	c0.7,0.3,1.5,0.3,2.3,0.3c2.3,0,4.6,0.1,6.9,0.1c2.1,0,5-0.8,4.5-2.9c2.6,1,5.7-0.5,7.4-2.7c1.7-2.2,2.4-5.1,3-7.8
	c1.2-5.1,2.4-10.2,3.5-15.3"/>
<path d="M282,386c-2.6,3.1-5.6,6-8.8,8.5c-0.3,0.2-0.6,0.5-0.7,0.9c-0.1,0.5,0.4,0.9,0.8,1.2c2.7,2.1,5.4,4.2,8.1,6.4
	c1.8-3.2,3.7-6.5,5.5-9.7c0.8-1.4,1.6-3.2,0.9-4.6c-0.8,0-1.7-0.1-2.5-0.1"/>
<path d="M295.3,371.8c-2.2,2.3-5,4.2-8,5.3c-0.8,0.3-1.7,0.5-2.4,0.1c-0.4-0.2-0.7-0.7-1-1.1c-1.7-2.7-3.5-6.2-1.7-8.9
	c0.8-1.2,2.2-1.9,3.3-2.7c2.6-2,4.1-5.3,4-8.5c0-1.4-0.1-3.3,1.3-3.7c0.5-0.1,1.1,0,1.6,0.3c3.6,1.6,5.1,5.9,5.5,9.9
	c0.4,3.9,0,8,1.3,11.7c-0.9,0.7-2.1,1-3.2,0.8"/>
<path d="M290.4,481.3c-1.3-1.3-2.5-2.5-3.8-3.8c-1-1-2.3-2.1-3.6-1.6c-2.1,0.7-1.4,4.2-3.2,5.5c-1.8,1.4-4.4-0.7-5.3-2.8
	c-1-2.1-2-4.8-4.3-5.1c-4.4,9.5-9.9,18.5-16.2,26.8c-0.6-2-3.7-2.2-5.1-0.7c-1.4,1.5-1.5,3.9-1,5.9c0.5,2,1.4,3.9,1.6,6
	c3.4,1.5,7.2-1.3,8.8-4.6c1.6-3.3,1.9-7.2,3.5-10.5c1-2.1,3-4.1,5.3-3.6c2.1,0.4,3.1,2.7,3.8,4.7c1.2-2.2,2.4-4.5,3.5-6.7
	c2.9,0.9,6.1-0.1,8.5-1.9c2.4-1.8,4.1-4.4,5.4-7.2c0.7-1.4,1.3-3,0.7-4.5"/>
<path d="M321.2,498.8c1.1,1.7,2.3,3.5,3.4,5.2c0.7,1.1,1.4,2.2,1.5,3.4c0.2,2.3-1.7,4.3-3.8,5.1c-2.1,0.8-4.5,0.6-6.8,0.3
	c-1.7-0.2-3.4-0.3-5.2-0.5c-0.6-0.1-1.2-0.1-1.8-0.4c-1.3-0.7-1.6-2.6-1-3.9c0.6-1.4,1.8-2.3,3-3.1c2.3-1.6,4.8-3,7.3-4.2"/>
<path d="M233,448.6c0.5,3.4,1.1,6.9,1.6,10.3c0.1,0.6,0.2,1.4-0.3,1.8c-0.5,0.5-1.3,0.4-1.9,0.3c-3.3-0.5-6.7-1.1-10-1.6
	c2.7,1.5,5,3.7,6.5,6.4c0.5,1,1.1,2.1,2.1,2.6c0.7,0.4,1.5,0.4,2.2,0.8c0.8,0.6,0.9,1.7,0.9,2.6c0.1,6.3-2.9,12.5-7.8,16.3
	c-1.3,1-3.2,1.9-4.7,1.1c-1.3-0.7-1.6-2.3-2-3.7c-1.1-4.4-3.2-8.5-6.1-11.9c-2.4-2.8-5.5-6.1-4.5-9.6c0.3-1.1,1.1-2.1,1.5-3.2
	c0.7-1.6,0.9-3.4,0.6-5c3.6,0,7.1-2.8,7.8-6.4c4.6-1.2,9.5-0.8,13.9,1"/>
<path d="M242.6,513c1.1,1.1,2.1,2.2,2.6,3.6c0.5,1.4,0.2,3.2-1,4.1c-1.1,0.8-2.8,0.6-3.8,1.5c-0.6,0.5-0.8,1.3-1.2,2
	c-1.1,1.7-3.4,2.1-5.4,1.9s-3.9-0.8-5.9-0.8c-1.3,0-2.7,0.4-4,0.1c-2.7-0.6-4-3.7-4.9-6.4c-0.5-1.7-1.1-3.4-0.6-5.1
	c0.4-1.7,2.1-3.2,3.8-2.7c1.2,0.4,2,1.7,3,2.5c1.2,0.9,2.9,1.2,4.4,0.6c1.3-0.5,2.3-1.6,3.5-2.4c2.5-1.6,5.8-1.3,8.7-0.7
	c0,0.6,0,1.2,0.1,1.8"/>
<path d="M178.9,492.1c-3,2-4.6,6.1-3.6,9.5c1.1,3.5,5.1,5.9,8.6,4.9c1-0.3,1.9-0.8,2.5-1.7c1-1.7,0.1-3.8-0.6-5.7
	c-0.7-1.8-1-4.3,0.6-5.4c-1.9,0.2-3.9-0.4-5.4-1.5c-0.9,0.6-2.1,0.8-3.1,0.6"/>
<path d="M195.5,488.3c-4.1,1.6-6.6,6.4-5.6,10.7c2.4,1.3,5.5,1.1,7.7-0.6c2.1-1.7,3.1-4.7,2.3-7.3c-1.8-1-3.5-2-5.3-3"/>
<path d="M194.3,477.1c-1.2,5.2-8.3,8-12.7,4.9c-2.4-1.7-3.8-4.6-4.6-7.5c-0.7-2.4-1-5.2,0.4-7.2c1.4-2,3.9-2.7,6.2-3.3
	c1.6-0.4,3.4-0.7,4.8,0.2c0.9,0.6,1.5,1.7,1.9,2.7c1.4,3.1,2.9,6.2,4.3,9.4"/>
</svg>
