<?xml version="1.0" encoding="UTF-8" standalone="no"?>
<!-- Generator: Adobe Illustrator 24.1.0, SVG Export Plug-In . SVG Version: 6.00 Build 0)  -->

<svg
   xmlns:dc="http://purl.org/dc/elements/1.1/"
   xmlns:cc="http://creativecommons.org/ns#"
   xmlns:rdf="http://www.w3.org/1999/02/22-rdf-syntax-ns#"
   xmlns:svg="http://www.w3.org/2000/svg"
   xmlns="http://www.w3.org/2000/svg"
   xmlns:sodipodi="http://sodipodi.sourceforge.net/DTD/sodipodi-0.dtd"
   xmlns:inkscape="http://www.inkscape.org/namespaces/inkscape"
   version="1.1"
   id="svg8"
   inkscape:export-filename="/media/juhele/data_2TB/_GRAFIKA/GHS hazard symbols/GHS06_toxic_substances.png"
   inkscape:export-xdpi="99.027519"
   inkscape:export-ydpi="99.027519"
   inkscape:version="0.92.5 (2060ec1f9f, 2020-04-08)"
   sodipodi:docname="107.svg"
   x="0px"
   y="0px"
   viewBox="0 0 125 125"
   xml:space="preserve"
   width="125"
   height="125"><metadata
   id="metadata1097"><rdf:RDF><cc:Work
       rdf:about=""><dc:format>image/svg+xml</dc:format><dc:type
         rdf:resource="http://purl.org/dc/dcmitype/StillImage" /><dc:title></dc:title></cc:Work></rdf:RDF></metadata><defs
   id="defs1095" /><sodipodi:namedview
   pagecolor="#ffffff"
   bordercolor="#666666"
   borderopacity="1"
   objecttolerance="10"
   gridtolerance="10"
   guidetolerance="10"
   inkscape:pageopacity="0"
   inkscape:pageshadow="2"
   inkscape:window-width="1920"
   inkscape:window-height="1017"
   id="namedview1093"
   showgrid="false"
   inkscape:zoom="1.0934881"
   inkscape:cx="387.79999"
   inkscape:cy="387.75"
   inkscape:window-x="-8"
   inkscape:window-y="-8"
   inkscape:window-maximized="1"
   inkscape:current-layer="svg8" />
<style
   type="text/css"
   id="style1016">
	.st0{fill:#FFEB1D;}
</style>


































<g
   id="g1136"
   transform="matrix(0.08406927,0,0,0.08406927,29.927361,33.508712)"><g
     id="g1022">
	<polygon
   id="polygon1018"
   points="387,36.4 746.6,657.8 28.2,657.8 "
   class="st0"
   style="fill:#ffeb1d" />
	<path
   id="path1020"
   d="m 411.7,41.6 v 0 0 M 387,84.4 705,633.8 H 69.8 L 387,84.4 m 0,-76.5 c -6.6,0 -13.1,3.2 -16.9,9.7 L 3.5,652.6 c -7.5,13 1.9,29.2 16.9,29.2 h 734.1 c 15,0 24.4,-16.2 16.9,-29.2 L 404,17.6 C 400.1,11.1 393.5,7.9 387,7.9 Z"
   inkscape:connector-curvature="0" />
</g><polygon
     id="polygon1024"
     points="254.1,486.3 452.2,164.4 441.8,146.2 389.7,229.6 434.6,125.3 420.9,115.6 " /><polygon
     id="polygon1026"
     points="316,440.7 498.5,243.9 486.1,230.9 " /><polygon
     id="polygon1028"
     points="244.3,483.1 265.2,277.8 296.5,221.8 " /><polygon
     id="polygon1030"
     points="204.3,387.8 208.5,383.4 211.1,474.6 197.4,397.1 " /><polygon
     id="polygon1032"
     points="175.9,435.5 182.4,421.8 208.5,491.5 204.3,499.4 " /><polygon
     id="polygon1034"
     points="258.7,517.6 532.3,308.4 522.6,300.9 466.5,335.8 522.6,290.2 512.8,277.8 " /><polygon
     id="polygon1036"
     points="244.3,541.7 580.6,369 564.3,356 529.1,377.5 559.1,347.1 554.5,341.7 " /><polygon
     id="polygon1038"
     points="305.6,524.1 639.2,483.1 613.8,453.1 " /><polygon
     id="polygon1040"
     points="373.4,533.2 665.9,541.7 658.8,524.1 " /><polygon
     id="polygon1042"
     points="283.4,541.7 697.8,594.5 689.4,582.1 627.5,575.6 682.2,572.3 680.9,565.8 " /><polygon
     id="polygon1044"
     points="283.4,565.8 661.4,641.4 610.5,641.4 490.6,618.6 554.5,638.1 532.3,646.6 " /><path
     id="path1046"
     d="m 463.3,646.6 c 0,0 -1.3,-17.6 -17.6,-19.5 -16.3,-2 -18.9,-3.3 -18.9,-3.3 0,0 -17.6,-11.7 -26.7,-12.4 -9.1,-0.7 -20,-2.6 -12.3,3.9 7.7,6.5 46.8,31.3 46.8,31.3 z"
     inkscape:connector-curvature="0" /><path
     id="path1048"
     d="M 404.6,641.4 325.1,601 v -11.1 c 0,0 5.9,-4.6 0,-3.3 -5.9,1.3 -2.6,2 -5.9,1.3 -3.3,-0.7 -3.3,-0.7 -3.3,-0.7 0,0 -1.3,-1.1 -3.9,-0.9 -2.6,0.2 -4.6,-0.4 -3.9,2.8 0.3,1.4 0.3,3.4 0.2,5.2 -0.1,2.4 -0.4,4.6 -0.4,4.6 L 283.3,580.7 V 573 h -3.9 l -3.9,-4.9 -5.2,-2.3 c 0,0 0,0 -2.6,0 -2.6,0 -9.1,0 -9.1,0 0,0 -9.1,-1.3 -8.5,2.3 0.7,3.6 3.9,7.5 3.9,7.5 0,0 2.6,3.3 4.6,3.3 2,0 7.2,-1.3 11.7,2 4.6,3.3 5.9,6.5 7.8,9.1 1.9,2.6 95.1,56.7 95.1,56.7 z"
     inkscape:connector-curvature="0" /><path
     id="path1050"
     d="m 248.1,594.6 c -6.2,-4.6 -9.3,-10.3 -7.2,-16.6 -0.4,-0.1 -0.7,-0.2 -1.1,-0.2 -1.6,-0.2 -3,-0.8 -3.9,-1.8 -1.1,0.2 -2.1,0.5 -3.1,0.9 -5.7,2.3 -9.7,-7.3 -4.2,-9.9 4,-1.9 7.9,-5.5 9.3,-9.7 -0.1,0 -0.2,-0.1 -0.4,-0.1 -1,-0.2 -2.3,-0.9 -3.2,-1.3 -2.5,-1.1 -4.5,-2.6 -6.8,-3.9 -2.3,-1.3 -4.4,-1.9 -5.9,-4.2 -1.5,-2.4 -1.3,-4.2 -4.5,-4.4 -6.2,-0.5 -11.2,0.5 -15.6,-5 -2.4,-2.9 -1.9,-6.3 1.1,-8.5 7.1,-5.3 6.3,-11.5 1.3,-16.1 -2.8,0.4 -5.7,-0.9 -6.4,-3.8 -0.2,-0.7 -0.4,-1.5 -0.5,-2.2 -22,6.2 -38.2,26.4 -38.2,50.5 0,29 23.5,52.4 52.4,52.4 14.7,0 27.9,-6 37.5,-15.8 -0.3,-0.1 -0.4,-0.2 -0.6,-0.3 z"
     inkscape:connector-curvature="0" /><path
     id="path1052"
     d="m 348.9,225 c 1.1,-5 3.1,-9.8 5,-14.6 1.3,-3.1 2.6,-6.3 4.5,-9 1.9,-2.7 4.4,-4.9 6.3,-7.6 2,-2.6 3.4,-5.9 2.8,-9.2 -0.5,-2.9 -2.6,-5.4 -2.6,-8.3 0,-3 2,-5.7 1.7,-8.7 -0.4,-2.9 -3.6,-5.2 -6.4,-4.5 -4.5,1 -5.7,6.6 -7.1,11 -1.9,5.8 -5.8,10.8 -10.9,14.1 -2.2,1.4 -4.7,2.6 -6.8,4.3 -2,1.7 -3.7,4.3 -3.3,6.9 0.2,1.7 1.1,3.2 1.1,4.9 0,2.1 -1.5,4.4 -0.2,6.1 1.8,2.3 7.1,0.6 7.4,3.5 0.2,1.5 -1.4,3 -0.7,4.3 0.3,0.5 0.9,0.8 1.4,1 2.8,1.2 5.7,2.4 8.6,3.5"
     inkscape:connector-curvature="0" /><path
     id="path1054"
     d="m 449.1,264.9 c 1.8,-3.7 3.5,-7.5 5.3,-11.2 0.8,-1.8 1.6,-4.1 0.2,-5.5 -0.8,-0.8 -2,-0.9 -3.2,-1 -3.8,-0.3 -8.1,-0.5 -11.1,1.9 -2.5,2 -3.7,5.5 -6.4,7.1 -4,2.4 -8.9,-0.1 -13.5,-0.6 -1.1,-0.1 -2.3,-0.1 -3.2,0.5 -1.5,1 -1.7,3.1 -1.7,5 -0.1,4.1 -0.1,8.1 -0.2,12.2 0,1.2 0,2.3 0.2,3.4 0.7,3.8 3.9,6.6 7.3,8.4 0.7,0.4 1.4,0.7 2.1,0.6 1.3,-0.1 2.1,-1.4 2.8,-2.6 2.9,-4.6 7.1,-8.4 12.1,-10.6 3.5,-1.6 8.1,-3.3 8.4,-7.1"
     inkscape:connector-curvature="0" /><path
     id="path1056"
     d="m 512.7,449.1 c 1.3,-2.9 2,-6 2.2,-9.1 -2.2,-3.2 -6.5,-4.3 -10.4,-4.5 -3.9,-0.2 -7.9,0.3 -11.7,-0.7 -1,-0.3 -1.9,-0.7 -2.9,-0.6 -2.4,0.2 -3.6,3 -4.9,5.1 -3.7,6.2 -11.6,8.6 -16.4,13.9 -0.6,0.6 -1.1,1.3 -1.2,2.1 -0.2,1.5 1.1,2.9 2.3,3.9 2.5,2.1 4.9,4.2 7.4,6.2 1.6,1.3 3.4,2.7 5.4,2.7 3.4,0 5.4,-3.7 7,-6.7 1.5,-2.8 3.4,-5.5 6,-7.3 2.6,-1.8 6.1,-2.6 9,-1.4 0.9,0.3 1.8,0.9 2.7,0.6 0.6,-0.2 1,-0.7 1.4,-1.2 1.5,-1.9 2.7,-4 3.7,-6.3"
     inkscape:connector-curvature="0" /><path
     id="path1058"
     d="m 408.2,424.8 c -0.9,-0.6 -0.4,-2.1 0.4,-2.9 0.8,-0.8 1.9,-1.5 2,-2.6 0.2,-1.5 -1.6,-2.5 -3,-3.1 -1.4,-0.6 -3.1,-1.9 -2.5,-3.3 -3,2.3 -5.5,5.1 -7.4,8.3 -0.4,0.7 -0.8,1.5 -0.6,2.2 0.2,0.7 0.8,1.2 1.4,1.6 1.7,1.2 3.7,2.1 5.7,2.6"
     inkscape:connector-curvature="0" /><path
     id="path1060"
     d="m 323.3,404.6 c -2.8,1 -5.7,1.7 -8.6,2.2 1.6,2.4 3.2,4.7 4.8,7.1 1.1,1.6 2.9,3.4 4.6,2.6 1.5,-0.7 1.7,-2.8 3.1,-3.7 1.1,-0.7 2.6,-0.4 3.6,-1.1 1.1,-0.7 1.3,-2.1 1.4,-3.4 0.1,-2 0.1,-4 -0.2,-6 -0.2,-1.7 -0.6,-3.5 -1.8,-4.7 -1.2,-1.2 -3.3,-1.8 -4.6,-0.7 -2.2,1.8 -0.6,5.8 -2.6,7.8"
     inkscape:connector-curvature="0" /><path
     id="path1062"
     d="m 444.7,584.7 c 0.1,1.6 -1.7,2.9 -3.3,2.8 -1.6,-0.1 -3.1,-1 -4.5,-1.9 -1.4,-0.9 -3,-1.7 -4.6,-1.5 -2.7,0.3 -4.4,3.2 -7.1,3.8 -1.4,0.3 -2.9,-0.2 -4.3,-0.6 -4.2,-1.3 -8.3,-2.7 -12.5,-4 0.7,-3.7 0.9,-7.6 0.5,-11.4 -0.1,-0.8 -0.2,-1.6 0.1,-2.3 0.6,-1.9 3,-2.4 5,-2.3 3.8,0.1 7.7,1.1 11.1,2.8 1.8,-2.2 4.9,-3 7.7,-2.8 2.8,0.2 5.5,1.3 8.2,2.3 2.1,0.9 4.4,1.8 5.8,3.6 2.2,2.7 1.8,7.1 -0.8,9.4 -2.4,2.1 -6.8,3.3 -6.6,6.5"
     inkscape:connector-curvature="0" /><path
     id="path1064"
     d="m 374,564.5 c -2.4,1.6 -4,4.6 -3.9,7.5 0,1.1 0.1,2.4 -0.9,2.8 -0.9,0.4 -1.8,-0.5 -2.4,-1.2 -3,-3.6 -5.9,-7.3 -8.9,-10.9 -0.2,-0.2 -0.4,-0.5 -0.4,-0.8 0,-0.5 0.4,-0.9 0.9,-1.1 3.9,-2.3 9.2,-1.8 12.5,1.2 0.7,-2.5 5,-2.4 5.9,0 0.9,2.4 -1.5,5.3 -4.1,5.1"
     inkscape:connector-curvature="0" /><path
     id="path1066"
     d="m 332.2,561.2 c -0.8,1.8 -2.6,3 -4.6,3 -1.9,0 -3.8,-1.2 -4.6,-3 -1.2,0.8 -1.4,2.7 -0.5,3.8 -1.4,-0.5 -2.9,-1.1 -4,-2.2 -1.1,-1.1 -1.6,-2.8 -1,-4.2 0.5,-1 1.5,-1.7 2,-2.7 0.5,-1 -0.3,-2.7 -1.3,-2.3 3.6,0 7.2,0 10.7,-0.1 0.8,0 1.7,0 2.5,0.4 1.3,0.7 1.7,2.4 1.4,3.8 -0.3,1.4 -1.2,2.6 -2.1,3.8"
     inkscape:connector-curvature="0" /><path
     id="path1068"
     d="m 283.4,614.6 c -0.1,-1.5 -2.4,-1.8 -3.7,-0.9 -1.3,0.9 -2.1,2.4 -3.6,2.9 -3.9,1.4 -7.7,-5.2 -11.5,-3.5 -0.5,0.2 -1,0.6 -1.5,0.9 -2.7,1.4 -6.2,-1.2 -6.7,-4.3 -0.6,-3 0.8,-6 2.1,-8.8 0.4,-0.9 0.9,-1.8 1.6,-2.5 0.9,-0.7 2.1,-1 3.2,-1.1 3.4,-0.2 7.3,1.7 8.1,5.1 0.2,0.9 0.4,2.1 1.3,2.4 0.7,0.2 1.3,-0.4 1.9,-0.8 2.5,-1.7 6.1,-1.5 8.4,0.4 2.3,1.9 3.1,5.5 1.9,8.2"
     inkscape:connector-curvature="0" /><path
     id="path1070"
     d="m 267.7,531 c -2.5,-0.7 -5,-1.4 -7.5,-2.1 -1.5,-0.4 -3.3,-1 -3.9,-2.5 -0.3,-0.7 -0.3,-1.6 -0.7,-2.3 -0.4,-0.9 -1.4,-1.4 -2.3,-1.7 -4.3,-1.1 -8,2.9 -10.6,6.4 -0.5,0.6 -0.9,1.3 -1.1,2 -0.2,1.1 0.3,2.3 0,3.4 -0.7,2.4 -4.7,3.1 -4.5,5.5 2.3,-0.3 5,-0.4 6.3,1.4 1.6,2.2 0.1,5.5 1.5,7.8 7.9,-2.1 15.9,-4.2 23.8,-6.3 0.5,-0.1 1,-0.3 1.3,-0.7 0.5,-0.6 0.3,-1.4 0.2,-2.1 -0.5,-2.2 -1,-4.4 -1.5,-6.7"
     inkscape:connector-curvature="0" /><path
     id="path1072"
     d="m 258,395.2 c -3.3,0.7 -6.6,-0.9 -9.3,-2.9 -2.7,-1.9 -5.4,-4.2 -8.6,-5 -3.2,-0.8 -7.4,0.7 -8.1,3.9 -0.3,1.2 0,2.4 0.1,3.6 0.5,3.5 0.7,7 0.5,10.5 0,0.8 -0.1,1.7 -0.5,2.4 -0.6,1 -1.7,1.5 -2.7,2.2 -4.6,3.1 -5.6,10.3 -2,14.5 0.5,0.6 1.1,1.2 1.9,1.5 0.7,0.3 1.5,0.3 2.3,0.3 2.3,0 4.6,0.1 6.9,0.1 2.1,0 5,-0.8 4.5,-2.9 2.6,1 5.7,-0.5 7.4,-2.7 1.7,-2.2 2.4,-5.1 3,-7.8 1.2,-5.1 2.4,-10.2 3.5,-15.3"
     inkscape:connector-curvature="0" /><path
     id="path1074"
     d="m 282,386 c -2.6,3.1 -5.6,6 -8.8,8.5 -0.3,0.2 -0.6,0.5 -0.7,0.9 -0.1,0.5 0.4,0.9 0.8,1.2 2.7,2.1 5.4,4.2 8.1,6.4 1.8,-3.2 3.7,-6.5 5.5,-9.7 0.8,-1.4 1.6,-3.2 0.9,-4.6 -0.8,0 -1.7,-0.1 -2.5,-0.1"
     inkscape:connector-curvature="0" /><path
     id="path1076"
     d="m 295.3,371.8 c -2.2,2.3 -5,4.2 -8,5.3 -0.8,0.3 -1.7,0.5 -2.4,0.1 -0.4,-0.2 -0.7,-0.7 -1,-1.1 -1.7,-2.7 -3.5,-6.2 -1.7,-8.9 0.8,-1.2 2.2,-1.9 3.3,-2.7 2.6,-2 4.1,-5.3 4,-8.5 0,-1.4 -0.1,-3.3 1.3,-3.7 0.5,-0.1 1.1,0 1.6,0.3 3.6,1.6 5.1,5.9 5.5,9.9 0.4,3.9 0,8 1.3,11.7 -0.9,0.7 -2.1,1 -3.2,0.8"
     inkscape:connector-curvature="0" /><path
     id="path1078"
     d="m 290.4,481.3 c -1.3,-1.3 -2.5,-2.5 -3.8,-3.8 -1,-1 -2.3,-2.1 -3.6,-1.6 -2.1,0.7 -1.4,4.2 -3.2,5.5 -1.8,1.4 -4.4,-0.7 -5.3,-2.8 -1,-2.1 -2,-4.8 -4.3,-5.1 -4.4,9.5 -9.9,18.5 -16.2,26.8 -0.6,-2 -3.7,-2.2 -5.1,-0.7 -1.4,1.5 -1.5,3.9 -1,5.9 0.5,2 1.4,3.9 1.6,6 3.4,1.5 7.2,-1.3 8.8,-4.6 1.6,-3.3 1.9,-7.2 3.5,-10.5 1,-2.1 3,-4.1 5.3,-3.6 2.1,0.4 3.1,2.7 3.8,4.7 1.2,-2.2 2.4,-4.5 3.5,-6.7 2.9,0.9 6.1,-0.1 8.5,-1.9 2.4,-1.8 4.1,-4.4 5.4,-7.2 0.7,-1.4 1.3,-3 0.7,-4.5"
     inkscape:connector-curvature="0" /><path
     id="path1080"
     d="m 321.2,498.8 c 1.1,1.7 2.3,3.5 3.4,5.2 0.7,1.1 1.4,2.2 1.5,3.4 0.2,2.3 -1.7,4.3 -3.8,5.1 -2.1,0.8 -4.5,0.6 -6.8,0.3 -1.7,-0.2 -3.4,-0.3 -5.2,-0.5 -0.6,-0.1 -1.2,-0.1 -1.8,-0.4 -1.3,-0.7 -1.6,-2.6 -1,-3.9 0.6,-1.4 1.8,-2.3 3,-3.1 2.3,-1.6 4.8,-3 7.3,-4.2"
     inkscape:connector-curvature="0" /><path
     id="path1082"
     d="m 233,448.6 c 0.5,3.4 1.1,6.9 1.6,10.3 0.1,0.6 0.2,1.4 -0.3,1.8 -0.5,0.5 -1.3,0.4 -1.9,0.3 -3.3,-0.5 -6.7,-1.1 -10,-1.6 2.7,1.5 5,3.7 6.5,6.4 0.5,1 1.1,2.1 2.1,2.6 0.7,0.4 1.5,0.4 2.2,0.8 0.8,0.6 0.9,1.7 0.9,2.6 0.1,6.3 -2.9,12.5 -7.8,16.3 -1.3,1 -3.2,1.9 -4.7,1.1 -1.3,-0.7 -1.6,-2.3 -2,-3.7 -1.1,-4.4 -3.2,-8.5 -6.1,-11.9 -2.4,-2.8 -5.5,-6.1 -4.5,-9.6 0.3,-1.1 1.1,-2.1 1.5,-3.2 0.7,-1.6 0.9,-3.4 0.6,-5 3.6,0 7.1,-2.8 7.8,-6.4 4.6,-1.2 9.5,-0.8 13.9,1"
     inkscape:connector-curvature="0" /><path
     id="path1084"
     d="m 242.6,513 c 1.1,1.1 2.1,2.2 2.6,3.6 0.5,1.4 0.2,3.2 -1,4.1 -1.1,0.8 -2.8,0.6 -3.8,1.5 -0.6,0.5 -0.8,1.3 -1.2,2 -1.1,1.7 -3.4,2.1 -5.4,1.9 -2,-0.2 -3.9,-0.8 -5.9,-0.8 -1.3,0 -2.7,0.4 -4,0.1 -2.7,-0.6 -4,-3.7 -4.9,-6.4 -0.5,-1.7 -1.1,-3.4 -0.6,-5.1 0.4,-1.7 2.1,-3.2 3.8,-2.7 1.2,0.4 2,1.7 3,2.5 1.2,0.9 2.9,1.2 4.4,0.6 1.3,-0.5 2.3,-1.6 3.5,-2.4 2.5,-1.6 5.8,-1.3 8.7,-0.7 0,0.6 0,1.2 0.1,1.8"
     inkscape:connector-curvature="0" /><path
     id="path1086"
     d="m 178.9,492.1 c -3,2 -4.6,6.1 -3.6,9.5 1.1,3.5 5.1,5.9 8.6,4.9 1,-0.3 1.9,-0.8 2.5,-1.7 1,-1.7 0.1,-3.8 -0.6,-5.7 -0.7,-1.8 -1,-4.3 0.6,-5.4 -1.9,0.2 -3.9,-0.4 -5.4,-1.5 -0.9,0.6 -2.1,0.8 -3.1,0.6"
     inkscape:connector-curvature="0" /><path
     id="path1088"
     d="m 195.5,488.3 c -4.1,1.6 -6.6,6.4 -5.6,10.7 2.4,1.3 5.5,1.1 7.7,-0.6 2.1,-1.7 3.1,-4.7 2.3,-7.3 -1.8,-1 -3.5,-2 -5.3,-3"
     inkscape:connector-curvature="0" /><path
     id="path1090"
     d="m 194.3,477.1 c -1.2,5.2 -8.3,8 -12.7,4.9 -2.4,-1.7 -3.8,-4.6 -4.6,-7.5 -0.7,-2.4 -1,-5.2 0.4,-7.2 1.4,-2 3.9,-2.7 6.2,-3.3 1.6,-0.4 3.4,-0.7 4.8,0.2 0.9,0.6 1.5,1.7 1.9,2.7 1.4,3.1 2.9,6.2 4.3,9.4"
     inkscape:connector-curvature="0" /></g>
</svg>