<?xml version="1.0" encoding="utf-8"?>
<!-- Generator: Adobe Illustrator 24.1.0, SVG Export Plug-In . SVG Version: 6.00 Build 0)  -->
<svg version="1.1"
	 id="svg8" inkscape:export-filename="/media/juhele/data_2TB/_GRAFIKA/GHS hazard symbols/GHS06_toxic_substances.png" inkscape:export-xdpi="99.027519" inkscape:export-ydpi="99.027519" inkscape:version="0.92.3 (unknown)" sodipodi:docname="GHS06_toxic_substances.svg" xmlns:cc="http://creativecommons.org/ns#" xmlns:dc="http://purl.org/dc/elements/1.1/" xmlns:inkscape="http://www.inkscape.org/namespaces/inkscape" xmlns:rdf="http://www.w3.org/1999/02/22-rdf-syntax-ns#" xmlns:sodipodi="http://sodipodi.sourceforge.net/DTD/sodipodi-0.dtd" xmlns:svg="http://www.w3.org/2000/svg"
	 xmlns="http://www.w3.org/2000/svg" xmlns:xlink="http://www.w3.org/1999/xlink" x="0px" y="0px" viewBox="0 0 775.6 775.5"
	 style="enable-background:new 0 0 775.6 775.5;" xml:space="preserve">
<style type="text/css">
	.st0{fill:#FFEB1D;}
</style>
<g>
	<polygon class="st0" points="28.2,657.8 387,36.4 746.6,657.8 	"/>
	<path d="M411.7,41.6L411.7,41.6L411.7,41.6 M387,84.4l318,549.4H69.8L387,84.4 M387,7.9c-6.6,0-13.1,3.2-16.9,9.7L3.5,652.6
		c-7.5,13,1.9,29.2,16.9,29.2h734.1c15,0,24.4-16.2,16.9-29.2L404,17.6C400.1,11.1,393.5,7.9,387,7.9L387,7.9z"/>
</g>
<path d="M477.5,300.2c-21.4-24.4-53-36.7-94.1-36.7c-37,0-66.1,11.3-86.3,33.6c-30.3,33.3-27.1,77.1-26.6,82.1l24,219.3h62.4
	l-24.6-225.1c-0.1-1.7-0.8-22.1,10.9-34.8c8-8.7,21.6-13.1,40.3-13.1c22.2,0,38.1,5.2,47.3,15.4c13,14.5,11,37.5,11,38.4
	l-22.8,219.2h62.3l22-211.8C504.2,378.2,507.7,334.6,477.5,300.2z M300.8,591.4l-6.5-59.5h48.3l6.5,59.5H300.8z M426.6,591.4
	l6.2-59.5h48.3l-6.2,59.5H426.6z"/>
<g>
	<path d="M228.4,600c-14.2-47.3,3.6-79.8,4.4-81.2l9.6,5.4c-0.2,0.3-16.2,30.1-3.4,72.7L228.4,600z"/>
</g>
<g>
	<path d="M257.5,600c-14.2-47.3,3.6-79.8,4.4-81.2l9.6,5.4c-0.2,0.3-16.2,30.1-3.4,72.7L257.5,600z"/>
</g>
<g>
	<path d="M546.1,518.8c14.2,47.3-3.6,79.8-4.4,81.2l-9.6-5.4c0.2-0.3,16.2-30.1,3.4-72.7L546.1,518.8z"/>
</g>
<g>
	<path d="M517,518.8c14.2,47.3-3.6,79.8-4.4,81.2l-9.6-5.4c0.2-0.3,16.2-30.1,3.4-72.7L517,518.8z"/>
</g>
</svg>
