<?xml version="1.0" encoding="UTF-8" standalone="no"?>
<!-- Generator: Adobe Illustrator 24.1.0, SVG Export Plug-In . SVG Version: 6.00 Build 0)  -->

<svg
   xmlns:dc="http://purl.org/dc/elements/1.1/"
   xmlns:cc="http://creativecommons.org/ns#"
   xmlns:rdf="http://www.w3.org/1999/02/22-rdf-syntax-ns#"
   xmlns:svg="http://www.w3.org/2000/svg"
   xmlns="http://www.w3.org/2000/svg"
   xmlns:sodipodi="http://sodipodi.sourceforge.net/DTD/sodipodi-0.dtd"
   xmlns:inkscape="http://www.inkscape.org/namespaces/inkscape"
   version="1.1"
   id="svg8"
   inkscape:export-filename="/media/juhele/data_2TB/_GRAFIKA/GHS hazard symbols/GHS06_toxic_substances.png"
   inkscape:export-xdpi="99.027519"
   inkscape:export-ydpi="99.027519"
   inkscape:version="0.92.5 (2060ec1f9f, 2020-04-08)"
   sodipodi:docname="109.svg"
   x="0px"
   y="0px"
   viewBox="0 0 125 125"
   xml:space="preserve"
   width="125"
   height="125"><metadata
   id="metadata1256"><rdf:RDF><cc:Work
       rdf:about=""><dc:format>image/svg+xml</dc:format><dc:type
         rdf:resource="http://purl.org/dc/dcmitype/StillImage" /><dc:title></dc:title></cc:Work></rdf:RDF></metadata><defs
   id="defs1254" /><sodipodi:namedview
   pagecolor="#ffffff"
   bordercolor="#666666"
   borderopacity="1"
   objecttolerance="10"
   gridtolerance="10"
   guidetolerance="10"
   inkscape:pageopacity="0"
   inkscape:pageshadow="2"
   inkscape:window-width="1920"
   inkscape:window-height="1017"
   id="namedview1252"
   showgrid="false"
   inkscape:zoom="1.0934881"
   inkscape:cx="387.79999"
   inkscape:cy="387.75"
   inkscape:window-x="-8"
   inkscape:window-y="-8"
   inkscape:window-maximized="1"
   inkscape:current-layer="svg8" />
<style
   type="text/css"
   id="style1225">
	.st0{fill:#FFEB1D;}
</style>





<g
   id="g1270"
   transform="matrix(0.08406927,0,0,0.08406927,29.927361,33.508712)"><g
     id="g1231">
	<polygon
   id="polygon1227"
   points="387,36.4 746.6,657.8 28.2,657.8 "
   class="st0"
   style="fill:#ffeb1d" />
	<path
   id="path1229"
   d="m 411.7,41.6 v 0 0 M 387,84.4 705,633.8 H 69.8 L 387,84.4 m 0,-76.5 c -6.6,0 -13.1,3.2 -16.9,9.7 L 3.5,652.6 c -7.5,13 1.9,29.2 16.9,29.2 h 734.1 c 15,0 24.4,-16.2 16.9,-29.2 L 404,17.6 C 400.1,11.1 393.5,7.9 387,7.9 Z"
   inkscape:connector-curvature="0" />
</g><path
     id="path1233"
     d="m 477.5,300.2 c -21.4,-24.4 -53,-36.7 -94.1,-36.7 -37,0 -66.1,11.3 -86.3,33.6 -30.3,33.3 -27.1,77.1 -26.6,82.1 l 24,219.3 h 62.4 L 332.3,373.4 c -0.1,-1.7 -0.8,-22.1 10.9,-34.8 8,-8.7 21.6,-13.1 40.3,-13.1 22.2,0 38.1,5.2 47.3,15.4 13,14.5 11,37.5 11,38.4 L 419,598.5 h 62.3 l 22,-211.8 c 0.9,-8.5 4.4,-52.1 -25.8,-86.5 z m -176.7,291.2 -6.5,-59.5 h 48.3 l 6.5,59.5 z m 125.8,0 6.2,-59.5 h 48.3 l -6.2,59.5 z"
     inkscape:connector-curvature="0" /><g
     id="g1237">
	<path
   id="path1235"
   d="m 228.4,600 c -14.2,-47.3 3.6,-79.8 4.4,-81.2 l 9.6,5.4 c -0.2,0.3 -16.2,30.1 -3.4,72.7 z"
   inkscape:connector-curvature="0" />
</g><g
     id="g1241">
	<path
   id="path1239"
   d="m 257.5,600 c -14.2,-47.3 3.6,-79.8 4.4,-81.2 l 9.6,5.4 c -0.2,0.3 -16.2,30.1 -3.4,72.7 z"
   inkscape:connector-curvature="0" />
</g><g
     id="g1245">
	<path
   id="path1243"
   d="m 546.1,518.8 c 14.2,47.3 -3.6,79.8 -4.4,81.2 l -9.6,-5.4 c 0.2,-0.3 16.2,-30.1 3.4,-72.7 z"
   inkscape:connector-curvature="0" />
</g><g
     id="g1249">
	<path
   id="path1247"
   d="m 517,518.8 c 14.2,47.3 -3.6,79.8 -4.4,81.2 l -9.6,-5.4 c 0.2,-0.3 16.2,-30.1 3.4,-72.7 z"
   inkscape:connector-curvature="0" />
</g></g>
</svg>