<?xml version="1.0" encoding="UTF-8" standalone="no"?>
<!-- Generator: Adobe Illustrator 24.1.0, SVG Export Plug-In . SVG Version: 6.00 Build 0)  -->

<svg
   xmlns:dc="http://purl.org/dc/elements/1.1/"
   xmlns:cc="http://creativecommons.org/ns#"
   xmlns:rdf="http://www.w3.org/1999/02/22-rdf-syntax-ns#"
   xmlns:svg="http://www.w3.org/2000/svg"
   xmlns="http://www.w3.org/2000/svg"
   xmlns:sodipodi="http://sodipodi.sourceforge.net/DTD/sodipodi-0.dtd"
   xmlns:inkscape="http://www.inkscape.org/namespaces/inkscape"
   version="1.1"
   id="svg8"
   inkscape:export-filename="/media/juhele/data_2TB/_GRAFIKA/GHS hazard symbols/GHS06_toxic_substances.png"
   inkscape:export-xdpi="99.027519"
   inkscape:export-ydpi="99.027519"
   inkscape:version="0.92.5 (2060ec1f9f, 2020-04-08)"
   sodipodi:docname="110.svg"
   x="0px"
   y="0px"
   viewBox="0 0 125 125"
   xml:space="preserve"
   width="125"
   height="125"><metadata
   id="metadata1344"><rdf:RDF><cc:Work
       rdf:about=""><dc:format>image/svg+xml</dc:format><dc:type
         rdf:resource="http://purl.org/dc/dcmitype/StillImage" /><dc:title></dc:title></cc:Work></rdf:RDF></metadata><defs
   id="defs1342" /><sodipodi:namedview
   pagecolor="#ffffff"
   bordercolor="#666666"
   borderopacity="1"
   objecttolerance="10"
   gridtolerance="10"
   guidetolerance="10"
   inkscape:pageopacity="0"
   inkscape:pageshadow="2"
   inkscape:window-width="1920"
   inkscape:window-height="1017"
   id="namedview1340"
   showgrid="false"
   inkscape:zoom="1.0934881"
   inkscape:cx="387.79999"
   inkscape:cy="387.75"
   inkscape:window-x="-8"
   inkscape:window-y="-8"
   inkscape:window-maximized="1"
   inkscape:current-layer="svg8" />
<style
   type="text/css"
   id="style1313">
	.st0{fill:#FFEB1D;}
</style>



<g
   id="g1358"
   transform="matrix(0.08406927,0,0,0.08406927,29.927361,33.508712)"><g
     id="g1319">
	<polygon
   id="polygon1315"
   points="387,36.4 746.6,657.8 28.2,657.8 "
   class="st0"
   style="fill:#ffeb1d" />
	<path
   id="path1317"
   d="m 411.7,41.6 v 0 0 M 387,84.4 705,633.8 H 69.8 L 387,84.4 m 0,-76.5 c -6.6,0 -13.1,3.2 -16.9,9.7 L 3.5,652.6 c -7.5,13 1.9,29.2 16.9,29.2 h 734.1 c 15,0 24.4,-16.2 16.9,-29.2 L 404,17.6 C 400.1,11.1 393.5,7.9 387,7.9 Z"
   inkscape:connector-curvature="0" />
</g><circle
     id="circle1321"
     r="20"
     cy="418.70001"
     cx="388.60001" /><polygon
     id="polygon1323"
     points="437.1,596.6 402.9,457 374.3,457 337.5,596.6 " /><g
     id="g1337">
	<path
   id="path1325"
   d="m 342.7,418.7 c 0,-11.9 4.6,-22.8 12.1,-31 l -15.1,-13.8 c -10.8,11.8 -17.5,27.6 -17.5,44.8 0,18.4 7.6,35.1 19.7,47.2 l 14.4,-14.5 c -8.4,-8.4 -13.6,-20 -13.6,-32.7 z"
   inkscape:connector-curvature="0" />
	<path
   id="path1327"
   d="m 306.5,418.7 c 0,-21.4 8.2,-40.8 21.6,-55.4 L 313,349.5 c -16.8,18.3 -27,42.6 -27,69.3 0,28.5 11.7,54.3 30.5,72.9 l 14.4,-14.5 c -15,-15.1 -24.4,-35.7 -24.4,-58.5 z"
   inkscape:connector-curvature="0" />
	<path
   id="path1329"
   d="m 267.2,418.7 c 0,-31.6 12.1,-60.4 32,-82 l -15.1,-13.8 c -23.2,25.3 -37.4,58.9 -37.4,95.8 0,39.4 16.2,75.1 42.2,100.8 L 303.3,505 C 281,482.9 267.2,452.4 267.2,418.7 Z"
   inkscape:connector-curvature="0" />
	<path
   id="path1331"
   d="m 439.2,418.8 c 0,11.9 -4.6,22.8 -12.1,31 l 15.1,13.8 c 10.8,-11.8 17.5,-27.6 17.5,-44.8 0,-18.4 -7.6,-35.1 -19.7,-47.2 l -14.4,14.5 c 8.3,8.4 13.6,19.9 13.6,32.7 z"
   inkscape:connector-curvature="0" />
	<path
   id="path1333"
   d="m 475.3,418.8 c 0,21.4 -8.2,40.8 -21.6,55.4 l 15.1,13.8 c 16.8,-18.3 27,-42.6 27,-69.3 0,-28.5 -11.7,-54.3 -30.5,-72.9 l -14.4,14.5 c 15.1,15 24.4,35.7 24.4,58.5 z"
   inkscape:connector-curvature="0" />
	<path
   id="path1335"
   d="m 514.7,418.8 c 0,31.6 -12.1,60.4 -32,82 l 15.1,13.8 C 521,489.3 535.2,455.7 535.2,418.8 535.2,379.4 519,343.7 493,318 l -14.4,14.5 c 22.2,22 36.1,52.5 36.1,86.3 z"
   inkscape:connector-curvature="0" />
</g></g>
</svg>