<?xml version="1.0" encoding="utf-8"?>
<!-- Generator: Adobe Illustrator 24.1.0, SVG Export Plug-In . SVG Version: 6.00 Build 0)  -->
<svg version="1.1"
	 id="svg8" inkscape:export-filename="/media/juhele/data_2TB/_GRAFIKA/GHS hazard symbols/GHS06_toxic_substances.png" inkscape:export-xdpi="99.027519" inkscape:export-ydpi="99.027519" inkscape:version="0.92.3 (unknown)" sodipodi:docname="GHS06_toxic_substances.svg" xmlns:cc="http://creativecommons.org/ns#" xmlns:dc="http://purl.org/dc/elements/1.1/" xmlns:inkscape="http://www.inkscape.org/namespaces/inkscape" xmlns:rdf="http://www.w3.org/1999/02/22-rdf-syntax-ns#" xmlns:sodipodi="http://sodipodi.sourceforge.net/DTD/sodipodi-0.dtd" xmlns:svg="http://www.w3.org/2000/svg"
	 xmlns="http://www.w3.org/2000/svg" xmlns:xlink="http://www.w3.org/1999/xlink" x="0px" y="0px" viewBox="0 0 775.6 775.5"
	 style="enable-background:new 0 0 775.6 775.5;" xml:space="preserve">
<style type="text/css">
	.st0{fill:#FFEB1D;}
</style>
<g>
	<polygon class="st0" points="28.2,657.8 387,36.4 746.6,657.8 	"/>
	<path d="M411.7,41.6L411.7,41.6L411.7,41.6 M387,84.4l318,549.4H69.8L387,84.4 M387,7.9c-6.6,0-13.1,3.2-16.9,9.7L3.5,652.6
		c-7.5,13,1.9,29.2,16.9,29.2h734.1c15,0,24.4-16.2,16.9-29.2L404,17.6C400.1,11.1,393.5,7.9,387,7.9L387,7.9z"/>
</g>
<circle cx="388.6" cy="418.7" r="20"/>
<polygon points="402.9,457 374.3,457 337.5,596.6 437.1,596.6 "/>
<g>
	<path d="M342.7,418.7c0-11.9,4.6-22.8,12.1-31l-15.1-13.8c-10.8,11.8-17.5,27.6-17.5,44.8c0,18.4,7.6,35.1,19.7,47.2l14.4-14.5
		C347.9,443,342.7,431.4,342.7,418.7z"/>
	<path d="M306.5,418.7c0-21.4,8.2-40.8,21.6-55.4l-15.1-13.8c-16.8,18.3-27,42.6-27,69.3c0,28.5,11.7,54.3,30.5,72.9l14.4-14.5
		C315.9,462.1,306.5,441.5,306.5,418.7z"/>
	<path d="M267.2,418.7c0-31.6,12.1-60.4,32-82l-15.1-13.8c-23.2,25.3-37.4,58.9-37.4,95.8c0,39.4,16.2,75.1,42.2,100.8l14.4-14.5
		C281,482.9,267.2,452.4,267.2,418.7z"/>
	<path d="M439.2,418.8c0,11.9-4.6,22.8-12.1,31l15.1,13.8c10.8-11.8,17.5-27.6,17.5-44.8c0-18.4-7.6-35.1-19.7-47.2l-14.4,14.5
		C433.9,394.5,439.2,406,439.2,418.8z"/>
	<path d="M475.3,418.8c0,21.4-8.2,40.8-21.6,55.4l15.1,13.8c16.8-18.3,27-42.6,27-69.3c0-28.5-11.7-54.3-30.5-72.9l-14.4,14.5
		C466,375.3,475.3,396,475.3,418.8z"/>
	<path d="M514.7,418.8c0,31.6-12.1,60.4-32,82l15.1,13.8c23.2-25.3,37.4-58.9,37.4-95.8c0-39.4-16.2-75.1-42.2-100.8l-14.4,14.5
		C500.8,354.5,514.7,385,514.7,418.8z"/>
</g>
</svg>
