<?xml version="1.0" encoding="utf-8"?>
<!-- Generator: Adobe Illustrator 24.1.0, SVG Export Plug-In . SVG Version: 6.00 Build 0)  -->
<svg version="1.1"
	 id="svg8" inkscape:export-filename="/media/juhele/data_2TB/_GRAFIKA/GHS hazard symbols/GHS06_toxic_substances.png" inkscape:export-xdpi="99.027519" inkscape:export-ydpi="99.027519" inkscape:version="0.92.3 (unknown)" sodipodi:docname="GHS06_toxic_substances.svg" xmlns:cc="http://creativecommons.org/ns#" xmlns:dc="http://purl.org/dc/elements/1.1/" xmlns:inkscape="http://www.inkscape.org/namespaces/inkscape" xmlns:rdf="http://www.w3.org/1999/02/22-rdf-syntax-ns#" xmlns:sodipodi="http://sodipodi.sourceforge.net/DTD/sodipodi-0.dtd" xmlns:svg="http://www.w3.org/2000/svg"
	 xmlns="http://www.w3.org/2000/svg" xmlns:xlink="http://www.w3.org/1999/xlink" x="0px" y="0px" viewBox="0 0 775.6 775.5"
	 style="enable-background:new 0 0 775.6 775.5;" xml:space="preserve">
<style type="text/css">
	.st0{fill:#FFEB1D;}
</style>
<g>
	<polygon class="st0" points="28.2,657.8 387,36.4 746.6,657.8 	"/>
	<path d="M411.7,41.6L411.7,41.6L411.7,41.6 M387,84.4l318,549.4H69.8L387,84.4 M387,7.9c-6.6,0-13.1,3.2-16.9,9.7L3.5,652.6
		c-7.5,13,1.9,29.2,16.9,29.2h734.1c15,0,24.4-16.2,16.9-29.2L404,17.6C400.1,11.1,393.5,7.9,387,7.9L387,7.9z"/>
</g>
<polygon points="516.8,507.7 479.1,485.4 516.8,472.8 510.2,453.1 455.3,471.4 425.4,453.8 425.3,440.2 453.3,423.9 506.1,438.9 
	511.8,418.9 478.2,409.3 514.7,388 504.2,370.1 466.4,392.2 473.7,353.1 453.3,349.3 442.6,406.1 418.5,420.1 400.4,409.7 
	400.4,379.3 440,341.4 425.6,326.3 400.4,350.5 400.4,308.3 379.6,308.3 379.6,352.1 349.6,326 336,341.7 379.6,379.6 379.6,409.7 
	362.5,419.6 333.8,402.7 321.2,349.3 300.9,354 309,388.1 272.5,366.6 262,384.5 299.7,406.8 262,419.3 268.6,439.1 323.5,420.7 
	354.7,439.1 354.7,451.2 325.5,468.3 272.7,453.2 267,473.2 300.6,482.8 264.1,504.2 274.6,522.1 312.4,500 305.1,539 325.5,542.9 
	336.2,486.1 363.6,470.1 378.4,478.6 378.4,512.8 338.8,550.8 353.2,565.8 378.4,541.7 378.4,583.9 399.2,583.9 399.2,540.1 
	429.2,566.2 442.8,550.5 399.2,512.5 399.2,480.1 414.2,471.3 445,489.5 457.6,542.9 477.9,538.1 469.8,504.1 506.3,525.6 "/>
</svg>
