<?xml version="1.0" encoding="UTF-8" standalone="no"?>
<!-- Generator: Adobe Illustrator 24.1.0, SVG Export Plug-In . SVG Version: 6.00 Build 0)  -->

<svg
   xmlns:dc="http://purl.org/dc/elements/1.1/"
   xmlns:cc="http://creativecommons.org/ns#"
   xmlns:rdf="http://www.w3.org/1999/02/22-rdf-syntax-ns#"
   xmlns:svg="http://www.w3.org/2000/svg"
   xmlns="http://www.w3.org/2000/svg"
   xmlns:sodipodi="http://sodipodi.sourceforge.net/DTD/sodipodi-0.dtd"
   xmlns:inkscape="http://www.inkscape.org/namespaces/inkscape"
   version="1.1"
   id="svg8"
   inkscape:export-filename="/media/juhele/data_2TB/_GRAFIKA/GHS hazard symbols/GHS06_toxic_substances.png"
   inkscape:export-xdpi="99.027519"
   inkscape:export-ydpi="99.027519"
   inkscape:version="0.92.5 (2060ec1f9f, 2020-04-08)"
   sodipodi:docname="112.svg"
   x="0px"
   y="0px"
   viewBox="0 0 125 125"
   xml:space="preserve"
   width="125"
   height="125"><metadata
   id="metadata1468"><rdf:RDF><cc:Work
       rdf:about=""><dc:format>image/svg+xml</dc:format><dc:type
         rdf:resource="http://purl.org/dc/dcmitype/StillImage" /><dc:title></dc:title></cc:Work></rdf:RDF></metadata><defs
   id="defs1466" /><sodipodi:namedview
   pagecolor="#ffffff"
   bordercolor="#666666"
   borderopacity="1"
   objecttolerance="10"
   gridtolerance="10"
   guidetolerance="10"
   inkscape:pageopacity="0"
   inkscape:pageshadow="2"
   inkscape:window-width="1920"
   inkscape:window-height="1017"
   id="namedview1464"
   showgrid="false"
   inkscape:zoom="1.0934881"
   inkscape:cx="387.79999"
   inkscape:cy="387.75"
   inkscape:window-x="-8"
   inkscape:window-y="-8"
   inkscape:window-maximized="1"
   inkscape:current-layer="svg8" />
<style
   type="text/css"
   id="style1453">
	.st0{fill:#FFEB1D;}
</style>

<g
   id="g1474"
   transform="matrix(0.08406927,0,0,0.08406927,29.927361,33.508712)"><g
     id="g1459">
	<polygon
   id="polygon1455"
   points="387,36.4 746.6,657.8 28.2,657.8 "
   class="st0"
   style="fill:#ffeb1d" />
	<path
   id="path1457"
   d="m 411.7,41.6 v 0 0 M 387,84.4 705,633.8 H 69.8 L 387,84.4 m 0,-76.5 c -6.6,0 -13.1,3.2 -16.9,9.7 L 3.5,652.6 c -7.5,13 1.9,29.2 16.9,29.2 h 734.1 c 15,0 24.4,-16.2 16.9,-29.2 L 404,17.6 C 400.1,11.1 393.5,7.9 387,7.9 Z"
   inkscape:connector-curvature="0" />
</g><polygon
     id="polygon1461"
     points="453.3,423.9 506.1,438.9 511.8,418.9 478.2,409.3 514.7,388 504.2,370.1 466.4,392.2 473.7,353.1 453.3,349.3 442.6,406.1 418.5,420.1 400.4,409.7 400.4,379.3 440,341.4 425.6,326.3 400.4,350.5 400.4,308.3 379.6,308.3 379.6,352.1 349.6,326 336,341.7 379.6,379.6 379.6,409.7 362.5,419.6 333.8,402.7 321.2,349.3 300.9,354 309,388.1 272.5,366.6 262,384.5 299.7,406.8 262,419.3 268.6,439.1 323.5,420.7 354.7,439.1 354.7,451.2 325.5,468.3 272.7,453.2 267,473.2 300.6,482.8 264.1,504.2 274.6,522.1 312.4,500 305.1,539 325.5,542.9 336.2,486.1 363.6,470.1 378.4,478.6 378.4,512.8 338.8,550.8 353.2,565.8 378.4,541.7 378.4,583.9 399.2,583.9 399.2,540.1 429.2,566.2 442.8,550.5 399.2,512.5 399.2,480.1 414.2,471.3 445,489.5 457.6,542.9 477.9,538.1 469.8,504.1 506.3,525.6 516.8,507.7 479.1,485.4 516.8,472.8 510.2,453.1 455.3,471.4 425.4,453.8 425.3,440.2 " /></g>
</svg>