<?xml version="1.0" encoding="UTF-8" standalone="no"?>
<!-- Generator: Adobe Illustrator 24.1.0, SVG Export Plug-In . SVG Version: 6.00 Build 0)  -->

<svg
   xmlns:dc="http://purl.org/dc/elements/1.1/"
   xmlns:cc="http://creativecommons.org/ns#"
   xmlns:rdf="http://www.w3.org/1999/02/22-rdf-syntax-ns#"
   xmlns:svg="http://www.w3.org/2000/svg"
   xmlns="http://www.w3.org/2000/svg"
   xmlns:sodipodi="http://sodipodi.sourceforge.net/DTD/sodipodi-0.dtd"
   xmlns:inkscape="http://www.inkscape.org/namespaces/inkscape"
   version="1.1"
   id="svg8"
   x="0px"
   y="0px"
   width="775.6px"
   height="775.5px"
   viewBox="0 0 775.6 775.5"
   style="enable-background:new 0 0 775.6 775.5;"
   xml:space="preserve"
   sodipodi:docname="asbest.svg"
   inkscape:version="0.92.5 (2060ec1f9f, 2020-04-08)"><metadata
   id="metadata9922"><rdf:RDF><cc:Work
       rdf:about=""><dc:format>image/svg+xml</dc:format><dc:type
         rdf:resource="http://purl.org/dc/dcmitype/StillImage" /><dc:title></dc:title></cc:Work></rdf:RDF></metadata><defs
   id="defs9920" />
<style
   type="text/css"
   id="style9894">
	.st0{fill:#FFEB1D;}
	.st1{enable-background:new    ;}
</style>
<g
   id="g9900">
	<polygon
   class="st0"
   points="66.4,588.7 387,33.4 708.4,588.7  "
   id="polygon9896" />
	<path
   d="M 387 7.9003906 C 381.1 7.9003906 375.30039 10.799609 371.90039 16.599609 L 44.300781 584.09961 C 37.600781 595.69961 46.000391 610.19922 59.400391 610.19922 L 715.40039 610.19922 C 728.80039 610.19922 737.2 595.69961 730.5 584.09961 L 402.19922 16.599609 C 398.79922 10.799609 392.9 7.9003906 387 7.9003906 z M 387 76.300781 L 671.19922 567.30078 L 103.59961 567.30078 L 387 76.300781 z M 390.87109 245.02148 C 376.07383 245.02148 361.51171 248.72091 346.24219 256.5918 C 338.60743 260.44853 332.54727 266.50917 325.38477 273.43555 C 322.47254 276.34777 319.48077 279.26043 316.01758 282.33008 L 311.61133 286.42383 C 298.15211 298.6237 288.39062 307.43775 288.39062 316.88281 C 288.39062 332.70329 298.15058 346.87136 305.23438 357.10352 L 306.49414 358.99219 C 305.47093 366.2334 304.44727 375.83709 304.44727 382.52734 C 304.44727 391.73628 308.77749 398.26869 314.28711 403.38477 C 305.39301 399.2132 296.81417 395.19839 293.42969 393.4668 C 287.13298 390.23973 281.22843 381.74031 278.08008 377.25391 L 276.42773 374.9707 C 272.25616 369.30367 264.14875 363.24219 253.83789 363.24219 C 249.43019 363.24219 245.8095 364.66004 243.05469 367.57227 C 239.27666 371.50771 237.93847 377.25329 237.54492 383.39258 C 230.85467 387.40673 227.3125 394.6476 227.3125 399.76367 L 227.3125 409.28711 C 227.3125 418.65346 233.21624 425.10742 241.7168 425.10742 C 247.069 425.10742 252.26301 422.5892 256.82812 420.30664 C 259.97648 418.73246 263.28286 417.1582 265.17188 417.1582 L 266.35352 417.08008 C 268.39995 417.00137 271.46849 416.84381 276.50586 419.20508 C 276.74199 419.28379 314.20805 438.33127 330.6582 446.5957 L 331.68555 449.56641 C 331.9554 450.59315 332.29165 451.64442 332.70508 452.73438 L 332.49023 451.89844 L 332.86133 452.9707 C 315.7028 461.23513 290.59483 473.12093 287.28906 474.45898 L 283.98438 476.11133 C 282.56762 476.89842 282.0952 477.13477 277.6875 477.13477 C 275.09011 477.13477 272.3339 476.1109 269.18555 474.85156 C 264.69914 473.19868 259.0334 471.15234 251.63477 471.15234 C 241.40261 471.15234 226.68359 478.23604 226.68359 489.33398 C 226.68359 499.2513 232.98036 502.2431 243.52734 507.12305 L 248.01367 509.32617 C 249.03689 514.52096 250.05958 519.55807 250.45312 521.99805 C 251.94859 530.89215 260.84259 536.16602 268.63477 536.16602 C 279.65401 536.16602 289.41545 525.30529 290.28125 518.37891 C 291.38317 509.48481 295.71094 503.42451 303.3457 499.64648 L 310.66602 496.18164 L 352.38086 476.58398 C 355.29309 478.63041 358.36415 480.51899 361.66992 482.17188 C 369.85564 486.26474 385.28281 492.4043 392.44531 492.4043 C 398.82073 492.4043 408.42293 487.52486 418.8125 482.33008 C 423.2202 480.04752 427.07587 477.60774 430.53906 474.93164 L 481.85742 499.64648 C 489.49218 503.3458 493.8219 509.4061 494.92383 518.37891 C 495.86833 525.38399 505.47041 536.16602 516.56836 536.16602 C 524.28183 536.16602 533.25453 530.89215 534.75 521.99805 C 535.14354 519.63678 536.16624 514.52096 537.18945 509.32617 L 541.67578 507.12305 C 552.14406 502.16439 558.51953 499.17259 558.51953 489.33398 C 558.51953 478.23604 543.72376 471.15234 533.57031 471.15234 C 526.17168 471.15234 520.58269 473.27739 516.01758 474.85156 C 512.86922 476.0322 510.03626 477.13477 507.51758 477.13477 C 503.10988 477.13477 502.63746 476.89842 501.2207 476.11133 L 497.91406 474.45898 C 494.45087 472.96352 465.48686 459.18904 448.56445 451.08203 C 448.80058 450.37365 448.95782 449.66541 449.11523 448.95703 C 460.68544 443.05387 507.98848 419.12558 508.22461 419.04688 C 513.18327 416.76432 516.33248 416.84317 518.37891 416.92188 L 519.55859 417.00195 C 521.44761 417.00195 524.75399 418.65492 527.90234 420.15039 C 532.46746 422.43295 537.66147 424.95117 543.01367 424.95117 C 551.51423 424.95117 557.41797 418.4185 557.41797 409.13086 L 557.41797 399.60742 C 557.41797 394.41264 553.79709 387.24853 547.18555 383.23438 C 546.87071 377.09508 545.53252 371.34951 541.67578 367.41406 C 538.92097 364.58054 535.30027 363.08594 530.89258 363.08594 C 520.50301 363.08594 512.39755 369.14546 508.30469 374.8125 L 506.65039 377.0957 C 503.50204 381.66082 497.67815 390.08348 491.30273 393.31055 C 486.73762 395.5931 473.27802 401.88999 461.86523 407.24219 C 469.34258 401.81128 475.71875 394.49067 475.71875 381.26758 C 475.71875 373.00315 474.30114 364.73854 473.19922 359.70117 L 474.93164 357.02539 C 482.01544 346.71453 491.77539 332.62517 491.77539 316.80469 C 491.77539 307.04479 481.54201 298.22975 467.45312 285.95117 L 464.14844 283.03906 L 455.33203 275.16797 C 438.25221 259.58362 422.19722 245.02148 390.87109 245.02148 z M 390.94922 255.41211 L 391.10547 255.57031 C 418.57486 255.57031 432.03463 267.05998 448.95703 282.4082 L 457.92969 290.51562 L 461.31445 293.42773 C 472.09757 302.79409 482.25195 311.6099 482.25195 316.80469 C 482.25195 323.25881 479.96808 329.71344 476.89844 335.69531 C 477.21327 333.49146 477.21484 332.07375 477.21484 329.24023 C 477.21484 318.53583 474.22315 313.97138 463.36133 302.55859 L 456.19922 309.40625 C 466.43137 320.11065 467.29688 322.31444 467.29688 329.16211 C 467.29688 333.4911 467.29564 333.49185 465.0918 343.01562 L 462.17969 355.92383 L 462.49609 357.10352 C 462.5748 357.26093 465.87891 369.46125 465.87891 381.26758 C 465.87891 393.54616 458.32339 398.11051 448.95703 404.01367 L 445.9668 405.82422 L 435.73438 411.96484 C 424.95126 418.26155 419.51953 421.09404 419.51953 432.11328 L 419.51953 438.41016 C 419.51953 442.03076 405.66836 451.47656 390.87109 451.47656 C 377.33317 451.47656 362.37713 442.10967 361.82617 438.64648 C 361.82617 434.16008 362.0625 432.19141 362.0625 432.19141 C 362.0625 421.32958 356.78859 418.33851 346.32031 412.19922 C 343.40808 410.54633 339.78797 408.42219 335.45898 405.74609 L 332.46875 403.93555 C 322.94498 398.11109 316.17578 394.80609 316.17578 381.18945 C 316.17578 366.94315 319.56055 361.74696 319.56055 357.41797 C 319.56055 353.01027 314.75977 335.85188 314.75977 333.17578 C 314.75977 332.86095 314.83789 329.94922 314.83789 329.94922 C 314.83789 323.5738 315.70378 318.14352 325.62109 309.32812 C 326.40818 308.61975 327.66775 306.41501 326.64453 305.23438 C 325.62132 304.05374 325.22692 303.58082 324.125 302.16406 C 323.57404 301.45568 322.47185 301.2207 321.52734 301.2207 C 320.50413 301.2207 319.55956 301.53477 319.16602 301.84961 C 307.4384 312.23918 304.99805 320.18932 304.99805 329.94922 C 304.99805 329.94922 304.91992 332.86232 304.91992 333.25586 C 304.91992 335.93196 304.76293 334.59331 306.17969 340.18164 C 301.92941 333.01913 298.38672 324.91228 298.38672 316.72656 C 298.38672 311.6892 308.06805 302.87358 318.37891 293.58594 L 322.86523 289.49219 C 326.40713 286.26512 329.55652 283.19543 332.46875 280.2832 C 339.31642 273.59295 344.66735 268.32023 350.80664 265.17188 C 364.89553 258.08808 377.56871 255.41211 390.94922 255.41211 z M 416.84375 357.6543 C 413.45927 357.6543 405.43164 360.40873 405.43164 365.60352 C 405.43164 367.57124 406.92782 371.90128 410.07617 375.99414 C 415.42837 383.31406 420.15088 391.41992 431.40625 391.41992 C 447.93511 391.41992 454.86133 370.64126 454.86133 365.28906 C 454.86133 359.93686 450.6099 357.6543 448.16992 357.6543 L 416.84375 357.6543 z M 332.70508 357.8125 C 330.2651 357.8125 326.01367 360.09506 326.01367 365.44727 C 325.93496 370.72076 332.86177 391.49863 349.39062 391.41992 C 360.64599 391.41992 365.448 383.3129 370.87891 376.15039 C 374.02726 371.97882 375.52148 367.72944 375.52148 365.76172 C 375.52148 360.56693 367.41515 357.8125 364.10938 357.8125 L 332.70508 357.8125 z M 254.23242 372.8457 C 260.92267 372.8457 266.2737 377.01728 268.87109 380.48047 L 270.36719 382.60547 C 274.22392 388.1938 280.75726 397.7173 289.25781 402.125 C 295.86936 405.58819 319.55929 416.37104 331.05078 421.64453 L 331.05078 435.18359 L 281.30664 410.07422 C 273.98672 406.68974 268.87162 406.92657 266.43164 407.08398 L 265.72266 407.08398 C 261.47238 407.08398 257.38035 409.13072 252.97266 411.25586 C 249.27334 413.06616 245.2591 414.95508 242.18945 414.95508 C 238.49014 414.95508 237.70312 411.72688 237.70312 409.05078 L 237.70312 399.52734 C 237.70312 399.1338 237.85958 398.50389 238.0957 397.7168 L 238.17578 399.68555 C 238.25449 402.44036 240.45808 404.64453 243.21289 404.64453 C 245.9677 404.56582 248.17051 402.44036 248.0918 399.68555 L 247.93555 394.09766 C 247.69942 387.09257 247.46297 377.41124 250.61133 374.10547 C 251.08358 373.55451 252.10728 372.8457 254.23242 372.8457 z M 531.20898 372.8457 C 533.41283 372.8457 534.35587 373.55451 534.82812 374.10547 C 537.97648 377.41124 537.74003 387.01386 537.50391 394.09766 L 537.34766 399.68555 C 537.26895 402.44036 539.47175 404.56582 542.22656 404.64453 C 544.98137 404.72324 547.18692 402.44036 547.26562 399.68555 L 547.34375 397.7168 C 547.65859 398.50389 547.73633 399.1338 547.73633 399.52734 L 547.73633 409.05078 C 547.73633 411.72688 546.94932 414.95508 543.25 414.95508 C 540.18035 414.95508 536.32353 413.06616 532.4668 411.25586 C 528.13781 409.13072 523.96708 407.08398 519.7168 407.08398 L 519.00781 407.08398 C 516.56784 406.92657 511.37403 406.76845 504.13281 410.07422 L 503.97461 410.1543 L 449.82227 437.62305 L 449.82227 423.76953 C 457.85057 420.14892 488.54883 406.06044 496.18359 402.125 C 504.76286 397.7173 511.29424 388.27251 515.07227 382.60547 L 516.56836 380.48047 C 519.16575 377.01728 524.59744 372.8457 531.20898 372.8457 z M 392.83789 394.96289 C 389.21728 394.96289 387.17083 396.45848 384.41602 399.68555 C 380.00832 404.88033 379.61418 413.61689 376.85938 417.08008 C 374.18327 420.38585 373.16016 423.92798 373.16016 425.73828 C 373.23887 427.62729 374.1836 432.1127 381.81836 432.19141 C 389.53183 432.19141 386.93396 429.12305 393.4668 429.12305 C 398.819 429.12305 397.08886 432.11328 404.33008 432.11328 C 411.09904 432.11328 412.75195 426.9976 412.75195 424.95117 C 412.75195 421.72411 409.1314 419.67664 407.47852 415.34766 C 405.82563 411.01867 402.59779 394.96289 392.83789 394.96289 z M 340.89062 420.46484 C 352.46083 427.62735 352.22403 427.31242 352.30273 431.79883 C 352.14532 432.97946 352.06641 435.02529 352.06641 438.72461 C 352.06641 451.00319 375.99395 461.31445 391.02734 461.31445 C 407.71362 461.31445 429.75195 450.05965 429.75195 438.33203 L 429.75195 432.03516 C 429.75195 427.0765 430.22506 426.60454 439.90625 420.9375 L 439.90625 444.39258 C 439.90625 450.92541 430.93336 464.93537 414.64062 473.12109 L 414.16797 473.43555 C 406.29708 477.37099 396.53759 481.85742 392.52344 481.85742 C 388.82412 481.85742 376.23098 478.23717 366.15625 473.12109 C 349.94223 464.93537 340.89062 450.92541 340.89062 444.39258 L 340.89062 420.46484 z M 444.31445 459.97656 C 454.4679 464.85651 490.12198 481.85825 494.21484 483.58984 L 496.6543 484.76953 C 499.56652 486.34371 501.3777 486.97266 507.5957 486.97266 C 511.92469 486.97266 515.86065 485.47731 519.63867 484.06055 C 523.81024 482.48637 528.05952 480.91211 533.72656 480.91211 C 540.41682 480.91211 548.83984 485.55713 548.83984 489.17773 C 548.83984 492.16867 548.52458 492.87589 539.94531 496.96875 C 540.33886 494.92232 540.65234 493.58457 540.65234 493.50586 C 541.20331 490.82976 539.5511 488.2326 536.875 487.68164 C 534.1989 487.13068 531.60174 488.78288 531.05078 491.45898 C 530.81465 492.40349 526.24919 514.04879 525.30469 520.10938 C 524.75373 523.65127 520.50284 525.93359 516.96094 525.93359 C 511.13648 525.93359 505.47109 519.24329 505.15625 516.72461 C 503.26724 501.37638 493.97871 493.89932 486.58008 490.35742 L 438.72461 467.375 C 440.77104 465.17115 442.74028 462.57395 444.31445 459.97656 z M 337.82031 461.78711 C 339.63062 464.3845 341.83483 466.98132 344.35352 469.5 L 306.33789 487.05273 L 298.9375 490.59375 C 291.53887 494.21436 282.25229 501.61271 280.36328 516.96094 C 280.04845 519.47962 274.3811 526.16992 268.55664 526.16992 C 264.93603 526.16992 260.76385 523.80948 260.21289 520.26758 C 259.18968 514.207 254.62617 492.56169 254.46875 491.61719 C 253.91779 488.94109 251.31868 487.28888 248.64258 487.83984 C 245.96648 488.39081 244.31427 490.98796 244.86523 493.66406 C 244.86523 493.74277 245.57422 497.12695 245.57422 497.12695 C 236.99495 493.03409 236.67969 492.24621 236.67969 489.33398 C 236.67969 485.71338 245.10076 481.07031 251.79102 481.07031 C 257.37934 481.07031 261.70929 482.72328 265.88086 484.21875 C 269.58018 485.63551 273.51613 487.13086 277.92383 487.13086 C 284.22054 487.13086 286.02976 486.50191 288.86328 484.92773 L 291.30273 483.74609 C 295.08076 482.09321 324.67593 468.00511 337.82031 461.78711 z M 240.59961 637.69922 C 209.49961 637.69922 190.69922 654.90039 190.69922 677.40039 C 190.69922 696.60039 205.00039 708.80039 226.90039 716.40039 C 242.70039 722.10039 249 726.8 249 735 C 249 743.7 241.79961 749.30078 228.09961 749.30078 C 215.39961 749.30078 203 745.19961 195 741.09961 L 188.90039 765.40039 C 196.40039 769.50039 211.20078 773.40039 226.30078 773.40039 C 262.50078 773.40039 279.5 754.69961 279.5 732.59961 C 279.5 713.99961 268.50078 701.90078 245.30078 693.30078 C 228.20078 686.90078 220.80078 683.09922 220.80078 674.69922 C 220.80078 667.89922 227.1 662 240 662 C 252.9 662 262.29961 665.80078 267.59961 668.30078 L 274.19922 644.30078 C 266.39922 640.80078 255.39961 637.69922 240.59961 637.69922 z M 568.80078 637.69922 C 537.70078 637.69922 518.90039 654.90039 518.90039 677.40039 C 518.90039 696.60039 533.19961 708.80039 555.09961 716.40039 C 570.89961 722.10039 577.19922 726.8 577.19922 735 C 577.19922 743.7 570.00078 749.30078 556.30078 749.30078 C 543.60078 749.30078 531.19922 745.19961 523.19922 741.09961 L 517.09961 765.40039 C 524.59961 769.50039 539.4 773.40039 554.5 773.40039 C 590.7 773.40039 607.69922 754.69961 607.69922 732.59961 C 607.69922 713.99961 596.7 701.90078 573.5 693.30078 C 556.4 686.90078 549 683.09922 549 674.69922 C 549 667.89922 555.29922 662 568.19922 662 C 581.09922 662 590.50078 665.80078 595.80078 668.30078 L 602.40039 644.30078 C 594.60039 640.80078 583.60078 637.69922 568.80078 637.69922 z M 338.09961 638.90039 C 323.29961 638.90039 307.49961 640.09922 299.59961 641.69922 L 299.59961 771.09961 C 306.29961 772.09961 317.20039 773.09961 331.90039 773.09961 C 358.10039 773.09961 374.09922 768.69961 383.69922 761.09961 C 391.89922 754.49961 397.40039 745.09961 397.40039 733.09961 C 397.40039 716.19961 386.29922 704.79922 371.19922 700.69922 L 371.19922 700.30078 C 385.99922 694.80078 392.90039 683.79961 392.90039 672.09961 C 392.90039 660.19961 386.29961 651.20078 377.09961 646.30078 C 367.39961 640.70078 356.29961 638.90039 338.09961 638.90039 z M 96.400391 640 L 56.099609 771.80078 L 87 771.80078 L 96.400391 737.90039 L 134 737.90039 L 144.19922 771.80078 L 176.30078 771.80078 L 135.5 640 L 96.400391 640 z M 417.90039 640 L 417.90039 771.80078 L 502 771.80078 L 502 747.30078 L 447.80078 747.30078 L 447.80078 716 L 496.30078 716 L 496.30078 691.80078 L 447.80078 691.80078 L 447.80078 664.5 L 499.30078 664.5 L 499.30078 640 L 417.90039 640 z M 618 640 L 618 665 L 653.40039 665 L 653.40039 771.80078 L 683.30078 771.80078 L 683.30078 665 L 719.30078 665 L 719.30078 640 L 618 640 z M 341.80078 660.59961 C 355.30078 660.59961 362.90039 665.90039 362.90039 675.90039 C 362.90039 685.80039 354.50039 692.19922 338.90039 692.19922 L 329.19922 692.19922 L 329.09961 692.19922 L 329.09961 661.40039 C 331.59961 661.00039 335.40078 660.59961 341.80078 660.59961 z M 114.59961 662.19922 L 115 662.19922 C 116.9 670.09922 119.29961 679.79922 121.59961 687.69922 L 129.80078 715.69922 L 100.59961 715.69922 L 108.5 687.69922 C 110.7 679.99922 112.59961 670.09922 114.59961 662.19922 z M 329.19922 713.5 L 339.40039 713.5 C 354.20039 713.5 366.19922 718.79961 366.19922 732.09961 C 366.19922 745.89961 354.19922 751 340.69922 751 C 335.59922 751 332.09922 750.99961 329.19922 750.59961 L 329.19922 713.5 z "
   id="path9898" />
</g>
<sodipodi:namedview
   bordercolor="#666666"
   borderopacity="1"
   fit-margin-bottom="10"
   fit-margin-left="10"
   fit-margin-right="10"
   fit-margin-top="10"
   gridtolerance="10"
   guidetolerance="10"
   id="namedview10"
   inkscape:current-layer="svg8"
   inkscape:cx="248.56166"
   inkscape:cy="405.02617"
   inkscape:pageopacity="0"
   inkscape:pageshadow="2"
   inkscape:window-height="1017"
   inkscape:window-maximized="1"
   inkscape:window-width="1920"
   inkscape:window-x="-8"
   inkscape:window-y="-8"
   inkscape:zoom="0.8646487"
   objecttolerance="10"
   pagecolor="#ffffff"
   showgrid="false"
   units="px">
	</sodipodi:namedview>
<g
   id="g852"
   transform="matrix(0.78708857,0,0,0.78708857,1.2614394,-0.54923778)">
	
</g>
<g
   class="st1"
   id="g9917">
	
	
	
	
	
	
</g>
</svg>