<?xml version="1.0" encoding="UTF-8" standalone="no"?>
<!-- Generator: Adobe Illustrator 24.1.0, SVG Export Plug-In . SVG Version: 6.00 Build 0)  -->

<svg
   xmlns:dc="http://purl.org/dc/elements/1.1/"
   xmlns:cc="http://creativecommons.org/ns#"
   xmlns:rdf="http://www.w3.org/1999/02/22-rdf-syntax-ns#"
   xmlns:svg="http://www.w3.org/2000/svg"
   xmlns="http://www.w3.org/2000/svg"
   xmlns:sodipodi="http://sodipodi.sourceforge.net/DTD/sodipodi-0.dtd"
   xmlns:inkscape="http://www.inkscape.org/namespaces/inkscape"
   version="1.1"
   id="svg8"
   x="0px"
   y="0px"
   width="125"
   height="125"
   viewBox="0 0 125 125"
   xml:space="preserve"
   sodipodi:docname="113.svg"
   inkscape:version="0.92.5 (2060ec1f9f, 2020-04-08)"><metadata
   id="metadata9922"><rdf:RDF><cc:Work
       rdf:about=""><dc:format>image/svg+xml</dc:format><dc:type
         rdf:resource="http://purl.org/dc/dcmitype/StillImage" /><dc:title></dc:title></cc:Work></rdf:RDF></metadata><defs
   id="defs9920" />
<style
   type="text/css"
   id="style9894">
	.st0{fill:#FFEB1D;}
	.st1{enable-background:new    ;}
</style>
<g
   id="g9900"
   transform="matrix(0.09407908,0,0,0.09407908,26.053728,25.747971)">
	<polygon
   class="st0"
   points="387,33.4 708.4,588.7 66.4,588.7 "
   id="polygon9896"
   style="fill:#ffeb1d" />
	<path
   d="m 387,7.9003906 c -5.9,0 -11.69961,2.8992184 -15.09961,8.6992184 L 44.300781,584.09961 c -6.7,11.6 1.69961,26.09961 15.09961,26.09961 H 715.40039 c 13.4,0 21.79961,-14.49961 15.09961,-26.09961 L 402.19922,16.599609 C 398.79922,10.799609 392.9,7.9003906 387,7.9003906 Z M 387,76.300781 671.19922,567.30078 H 103.59961 Z m 3.87109,168.720699 c -14.79726,0 -29.35938,3.69943 -44.6289,11.57032 -7.63476,3.85673 -13.69492,9.91737 -20.85742,16.84375 -2.91223,2.91222 -5.904,5.82488 -9.36719,8.89453 l -4.40625,4.09375 c -13.45922,12.19987 -23.22071,21.01392 -23.22071,30.45898 0,15.82048 9.75996,29.98855 16.84376,40.22071 l 1.25976,1.88867 c -1.02321,7.24121 -2.04687,16.8449 -2.04687,23.53515 0,9.20894 4.33022,15.74135 9.83984,20.85743 -8.8941,-4.17157 -17.47294,-8.18638 -20.85742,-9.91797 -6.29671,-3.22707 -12.20126,-11.72649 -15.34961,-16.21289 l -1.65235,-2.28321 c -4.17157,-5.66703 -12.27898,-11.72851 -22.58984,-11.72851 -4.4077,0 -8.02839,1.41785 -10.7832,4.33008 -3.77803,3.93544 -5.11622,9.68102 -5.50977,15.82031 -6.69025,4.01415 -10.23242,11.25502 -10.23242,16.37109 v 9.52344 c 0,9.36635 5.90374,15.82031 14.4043,15.82031 5.3522,0 10.54621,-2.51822 15.11132,-4.80078 3.14836,-1.57418 6.45474,-3.14844 8.34376,-3.14844 l 1.18164,-0.0781 c 2.04643,-0.0787 5.11497,-0.23627 10.15234,2.125 0.23613,0.0787 37.70219,19.12619 54.15234,27.39062 l 1.02735,2.97071 c 0.26985,1.02674 0.6061,2.07801 1.01953,3.16797 l -0.21485,-0.83594 0.3711,1.07226 c -17.15853,8.26443 -42.2665,20.15023 -45.57227,21.48828 l -3.30468,1.65235 c -1.41676,0.78709 -1.88918,1.02344 -6.29688,1.02344 -2.59739,0 -5.3536,-1.02387 -8.50195,-2.28321 -4.48641,-1.65288 -10.15215,-3.69922 -17.55078,-3.69922 -10.23216,0 -24.95118,7.0837 -24.95118,18.18164 0,9.91732 6.29677,12.90912 16.84375,17.78907 l 4.48633,2.20312 c 1.02322,5.19479 2.04591,10.2319 2.43945,12.67188 1.49547,8.8941 10.38947,14.16797 18.18165,14.16797 11.01924,0 20.78068,-10.86073 21.64648,-17.78711 1.10192,-8.8941 5.42969,-14.9544 13.06445,-18.73243 l 7.32032,-3.46484 41.71484,-19.59766 c 2.91223,2.04643 5.98329,3.93501 9.28906,5.5879 8.18572,4.09286 23.61289,10.23242 30.77539,10.23242 6.37542,0 15.97762,-4.87944 26.36719,-10.07422 4.4077,-2.28256 8.26337,-4.72234 11.72656,-7.39844 l 51.31836,24.71484 c 7.63476,3.69932 11.96448,9.75962 13.06641,18.73243 0.9445,7.00508 10.54658,17.78711 21.64453,17.78711 7.71347,0 16.68617,-5.27387 18.18164,-14.16797 0.39354,-2.36127 1.41624,-7.47709 2.43945,-12.67188 l 4.48633,-2.20312 c 10.46828,-4.95866 16.84375,-7.95046 16.84375,-17.78907 0,-11.09794 -14.79577,-18.18164 -24.94922,-18.18164 -7.39863,0 -12.98762,2.12505 -17.55273,3.69922 -3.14836,1.18064 -5.98132,2.28321 -8.5,2.28321 -4.4077,0 -4.88012,-0.23635 -6.29688,-1.02344 l -3.30664,-1.65235 c -3.46319,-1.49546 -32.4272,-15.26994 -49.34961,-23.37695 0.23613,-0.70838 0.39337,-1.41662 0.55078,-2.125 11.57021,-5.90316 58.87325,-29.83145 59.10938,-29.91015 4.95866,-2.28256 8.10787,-2.20371 10.1543,-2.125 l 1.17968,0.0801 c 1.88902,0 5.1954,1.65297 8.34375,3.14844 4.56512,2.28256 9.75913,4.80078 15.11133,4.80078 8.50056,0 14.4043,-6.53267 14.4043,-15.82031 v -9.52344 c 0,-5.19478 -3.62088,-12.35889 -10.23242,-16.37304 -0.31484,-6.1393 -1.65303,-11.88487 -5.50977,-15.82032 -2.75481,-2.83352 -6.37551,-4.32812 -10.7832,-4.32812 -10.38957,0 -18.49503,6.05952 -22.58789,11.72656 l -1.6543,2.2832 c -3.14835,4.56512 -8.97224,12.98778 -15.34766,16.21485 -4.56511,2.28255 -18.02471,8.57944 -29.4375,13.93164 7.47735,-5.43091 13.85352,-12.75152 13.85352,-25.97461 0,-8.26443 -1.41761,-16.52904 -2.51953,-21.56641 l 1.73242,-2.67578 c 7.0838,-10.31086 16.84375,-24.40022 16.84375,-40.2207 0,-9.7599 -10.23338,-18.57494 -24.32227,-30.85352 l -3.30468,-2.91211 -8.81641,-7.87109 c -17.07982,-15.58435 -33.13481,-30.14649 -64.46094,-30.14649 z m 0.0781,10.39063 0.15625,0.1582 c 27.46939,0 40.92916,11.48967 57.85156,26.83789 l 8.97266,8.10742 3.38476,2.91211 c 10.78312,9.36636 20.9375,18.18217 20.9375,23.37696 0,6.45412 -2.28387,12.90875 -5.35351,18.89062 0.31483,-2.20385 0.3164,-3.62156 0.3164,-6.45508 0,-10.7044 -2.99169,-15.26885 -13.85351,-26.68164 l -7.16211,6.84766 c 10.23215,10.7044 11.09766,12.90819 11.09766,19.75586 0,4.32899 -0.001,4.32974 -2.20508,13.85351 l -2.91211,12.90821 0.3164,1.17969 c 0.0787,0.15741 3.38282,12.35773 3.38282,24.16406 0,12.27858 -7.55552,16.84293 -16.92188,22.74609 l -2.99023,1.81055 -10.23242,6.14062 c -10.78312,6.29671 -16.21485,9.1292 -16.21485,20.14844 v 6.29688 c 0,3.6206 -13.85117,13.0664 -28.64844,13.0664 -13.53792,0 -28.49396,-9.36689 -29.04492,-12.83008 0,-4.4864 0.23633,-6.45507 0.23633,-6.45507 0,-10.86183 -5.27391,-13.8529 -15.74219,-19.99219 -2.91223,-1.65289 -6.53234,-3.77703 -10.86133,-6.45313 l -2.99023,-1.81054 c -9.52377,-5.82446 -16.29297,-9.12946 -16.29297,-22.7461 0,-14.2463 3.38477,-19.44249 3.38477,-23.77148 0,-4.4077 -4.80078,-21.56609 -4.80078,-24.24219 0,-0.31483 0.0781,-3.22656 0.0781,-3.22656 0,-6.37542 0.86589,-11.8057 10.7832,-20.6211 0.78709,-0.70837 2.04666,-2.91311 1.02344,-4.09374 -1.02321,-1.18064 -1.41761,-1.65356 -2.51953,-3.07032 -0.55096,-0.70838 -1.65315,-0.94336 -2.59766,-0.94336 -1.02321,0 -1.96778,0.31407 -2.36132,0.62891 -11.72762,10.38957 -14.16797,18.33971 -14.16797,28.09961 0,0 -0.0781,2.9131 -0.0781,3.30664 0,2.6761 -0.15699,1.33745 1.25977,6.92578 -4.25028,-7.16251 -7.79297,-15.26936 -7.79297,-23.45508 0,-5.03736 9.68133,-13.85298 19.99219,-23.14062 l 4.48632,-4.09375 c 3.5419,-3.22707 6.69129,-6.29676 9.60352,-9.20899 6.84767,-6.69025 12.1986,-11.96297 18.33789,-15.11132 14.08889,-7.0838 26.76207,-9.75977 40.14258,-9.75977 z m 25.89453,102.24219 c -3.38448,0 -11.41211,2.75443 -11.41211,7.94922 0,1.96772 1.49618,6.29776 4.64453,10.39062 5.3522,7.31992 10.07471,15.42578 21.33008,15.42578 16.52886,0 23.45508,-20.77866 23.45508,-26.13086 0,-5.3522 -4.25143,-7.63476 -6.69141,-7.63476 z m -84.13867,0.1582 c -2.43998,0 -6.69141,2.28256 -6.69141,7.63477 -0.0787,5.27349 6.8481,26.05136 23.37695,25.97265 11.25537,0 16.05738,-8.10702 21.48829,-15.26953 3.14835,-4.17157 4.64257,-8.42095 4.64257,-10.38867 0,-5.19479 -8.10633,-7.94922 -11.4121,-7.94922 z m -78.47266,15.0332 c 6.69025,0 12.04128,4.17158 14.63867,7.63477 l 1.4961,2.125 c 3.85673,5.58833 10.39007,15.11183 18.89062,19.51953 6.61155,3.46319 30.30148,14.24604 41.79297,19.51953 v 13.53906 l -49.74414,-25.10937 c -7.31992,-3.38448 -12.43502,-3.14765 -14.875,-2.99024 h -0.70898 c -4.25028,0 -8.34231,2.04674 -12.75,4.17188 -3.69932,1.8103 -7.71356,3.69922 -10.78321,3.69922 -3.69931,0 -4.48633,-3.2282 -4.48633,-5.9043 v -9.52344 c 0,-0.39354 0.15646,-1.02345 0.39258,-1.81054 l 0.0801,1.96875 c 0.0787,2.75481 2.2823,4.95898 5.03711,4.95898 2.75481,-0.0787 4.95762,-2.20417 4.87891,-4.95898 l -0.15625,-5.58789 c -0.23613,-7.00509 -0.47258,-16.68642 2.67578,-19.99219 0.47225,-0.55096 1.49595,-1.25977 3.62109,-1.25977 z m 276.97656,0 c 2.20385,0 3.14689,0.70881 3.61914,1.25977 3.14836,3.30577 2.91191,12.90839 2.67579,19.99219 l -0.15625,5.58789 c -0.0787,2.75481 2.12409,4.88027 4.8789,4.95898 2.75481,0.0787 4.96036,-2.20417 5.03906,-4.95898 l 0.0781,-1.96875 c 0.31484,0.78709 0.39258,1.417 0.39258,1.81054 v 9.52344 c 0,2.6761 -0.78701,5.9043 -4.48633,5.9043 -3.06965,0 -6.92647,-1.88892 -10.7832,-3.69922 -4.32899,-2.12514 -8.49972,-4.17188 -12.75,-4.17188 h -0.70899 c -2.43997,-0.15741 -7.63378,-0.31553 -14.875,2.99024 l -0.1582,0.0801 -54.15234,27.46875 v -13.85352 c 8.0283,-3.62061 38.72656,-17.70909 46.36132,-21.64453 8.57927,-4.4077 15.11065,-13.85249 18.88868,-19.51953 l 1.49609,-2.125 c 2.59739,-3.46319 8.02908,-7.63477 14.64062,-7.63477 z m -138.37109,22.11719 c -3.62061,0 -5.66706,1.49559 -8.42187,4.72266 -4.4077,5.19478 -4.80184,13.93134 -7.55664,17.39453 -2.67611,3.30577 -3.69922,6.8479 -3.69922,8.6582 0.0787,1.88901 1.02344,6.37442 8.6582,6.45313 7.71347,0 5.1156,-3.06836 11.64844,-3.06836 5.3522,0 3.62206,2.99023 10.86328,2.99023 6.76896,0 8.42187,-5.11568 8.42187,-7.16211 0,-3.22706 -3.62055,-5.27453 -5.27343,-9.60351 -1.65289,-4.32899 -4.88073,-20.38477 -14.64063,-20.38477 z m -51.94727,25.50195 c 11.57021,7.16251 11.33341,6.84758 11.41211,11.33399 -0.15741,1.18063 -0.23632,3.22646 -0.23632,6.92578 0,12.27858 23.92754,22.58984 38.96093,22.58984 16.68628,0 38.72461,-11.2548 38.72461,-22.98242 v -6.29687 c 0,-4.95866 0.47311,-5.43062 10.1543,-11.09766 v 23.45508 c 0,6.53283 -8.97289,20.54279 -25.26563,28.72851 l -0.47265,0.31446 c -7.87089,3.93544 -17.63038,8.42187 -21.64453,8.42187 -3.69932,0 -16.29246,-3.62025 -26.36719,-8.73633 -16.21402,-8.18572 -25.26563,-22.19568 -25.26563,-28.72851 z m 103.42383,39.51172 c 10.15345,4.87995 45.80753,21.88169 49.90039,23.61328 l 2.43946,1.17969 c 2.91222,1.57418 4.7234,2.20313 10.9414,2.20313 4.32899,0 8.26495,-1.49535 12.04297,-2.91211 4.17157,-1.57418 8.42085,-3.14844 14.08789,-3.14844 6.69026,0 15.11328,4.64502 15.11328,8.26562 0,2.99094 -0.31526,3.69816 -8.89453,7.79102 0.39355,-2.04643 0.70703,-3.38418 0.70703,-3.46289 0.55097,-2.6761 -1.10124,-5.27326 -3.77734,-5.82422 -2.6761,-0.55096 -5.27326,1.10124 -5.82422,3.77734 -0.23613,0.94451 -4.80159,22.58981 -5.74609,28.6504 -0.55096,3.54189 -4.80185,5.82421 -8.34375,5.82421 -5.82446,0 -11.48985,-6.6903 -11.80469,-9.20898 -1.88901,-15.34823 -11.17754,-22.82529 -18.57617,-26.36719 L 438.72461,467.375 c 2.04643,-2.20385 4.01567,-4.80105 5.58984,-7.39844 z m -106.49414,1.81055 c 1.81031,2.59739 4.01452,5.19421 6.53321,7.71289 l -38.01563,17.55273 -7.40039,3.54102 c -7.39863,3.62061 -16.68521,11.01896 -18.57422,26.36719 -0.31483,2.51868 -5.98218,9.20898 -11.80664,9.20898 -3.62061,0 -7.79279,-2.36044 -8.34375,-5.90234 -1.02321,-6.06058 -5.58672,-27.70589 -5.74414,-28.65039 -0.55096,-2.6761 -3.15007,-4.32831 -5.82617,-3.77735 -2.6761,0.55097 -4.32831,3.14812 -3.77735,5.82422 0,0.0787 0.70899,3.46289 0.70899,3.46289 -8.57927,-4.09286 -8.89453,-4.88074 -8.89453,-7.79297 0,-3.6206 8.42107,-8.26367 15.11133,-8.26367 5.58832,0 9.91827,1.65297 14.08984,3.14844 3.69932,1.41676 7.63527,2.91211 12.04297,2.91211 6.29671,0 8.10593,-0.62895 10.93945,-2.20313 l 2.43945,-1.18164 c 3.77803,-1.65288 33.3732,-15.74098 46.51758,-21.95898 z m -97.2207,175.91211 c -31.1,0 -49.90039,17.20117 -49.90039,39.70117 0,19.2 14.30117,31.4 36.20117,39 C 242.70039,722.10039 249,726.8 249,735 c 0,8.7 -7.20039,14.30078 -20.90039,14.30078 -12.7,0 -25.09961,-4.10117 -33.09961,-8.20117 l -6.09961,24.30078 c 7.5,4.1 22.30039,8 37.40039,8 36.2,0 53.19922,-18.70078 53.19922,-40.80078 0,-18.6 -10.99922,-30.69883 -34.19922,-39.29883 -17.1,-6.4 -24.5,-10.20156 -24.5,-18.60156 C 220.80078,667.89922 227.1,662 240,662 c 12.9,0 22.29961,3.80078 27.59961,6.30078 l 6.59961,-24 c -7.8,-3.5 -18.79961,-6.60156 -33.59961,-6.60156 z m 328.20117,0 c -31.1,0 -49.90039,17.20117 -49.90039,39.70117 0,19.2 14.29922,31.4 36.19922,39 15.8,5.7 22.09961,10.39961 22.09961,18.59961 0,8.7 -7.19844,14.30078 -20.89844,14.30078 -12.7,0 -25.10156,-4.10117 -33.10156,-8.20117 l -6.09961,24.30078 c 7.5,4.1 22.30039,8 37.40039,8 36.2,0 53.19922,-18.70078 53.19922,-40.80078 0,-18.6 -10.99922,-30.69883 -34.19922,-39.29883 -17.1,-6.4 -24.5,-10.20156 -24.5,-18.60156 0,-6.8 6.29922,-12.69922 19.19922,-12.69922 12.9,0 22.30156,3.80078 27.60156,6.30078 l 6.59961,-24 c -7.8,-3.5 -18.79961,-6.60156 -33.59961,-6.60156 z m -230.70117,1.20117 c -14.8,0 -30.6,1.19883 -38.5,2.79883 v 129.40039 c 6.7,1 17.60078,2 32.30078,2 26.2,0 42.19883,-4.4 51.79883,-12 8.2,-6.6 13.70117,-16 13.70117,-28 0,-16.9 -11.10117,-28.30039 -26.20117,-32.40039 v -0.39844 c 14.8,-5.5 21.70117,-16.50117 21.70117,-28.20117 0,-11.9 -6.60078,-20.89883 -15.80078,-25.79883 -9.7,-5.6 -20.8,-7.40039 -39,-7.40039 z M 96.400391,640 56.099609,771.80078 H 87 l 9.400391,-33.90039 H 134 l 10.19922,33.90039 h 32.10156 L 135.5,640 Z m 321.499999,0 V 771.80078 H 502 v -24.5 H 447.80078 V 716 h 48.5 v -24.19922 h -48.5 V 664.5 h 51.5 V 640 Z M 618,640 v 25 h 35.40039 v 106.80078 h 29.90039 V 665 h 36 v -25 z m -276.19922,20.59961 c 13.5,0 21.09961,5.30078 21.09961,15.30078 0,9.9 -8.4,16.29883 -24,16.29883 h -9.70117 -0.0996 v -30.79883 c 2.5,-0.4 6.30117,-0.80078 12.70117,-0.80078 z m -227.20117,1.59961 H 115 c 1.9,7.9 4.29961,17.6 6.59961,25.5 l 8.20117,28 h -29.20117 l 7.90039,-28 c 2.2,-7.7 4.09961,-17.6 6.09961,-25.5 z M 329.19922,713.5 h 10.20117 c 14.8,0 26.79883,5.29961 26.79883,18.59961 0,13.8 -12,18.90039 -25.5,18.90039 -5.1,0 -8.6,-3.9e-4 -11.5,-0.40039 z"
   id="path9898"
   inkscape:connector-curvature="0" />
</g>
<sodipodi:namedview
   bordercolor="#666666"
   borderopacity="1"
   fit-margin-bottom="10"
   fit-margin-left="10"
   fit-margin-right="10"
   fit-margin-top="10"
   gridtolerance="10"
   guidetolerance="10"
   id="namedview10"
   inkscape:current-layer="svg8"
   inkscape:cx="248.56166"
   inkscape:cy="405.02617"
   inkscape:pageopacity="0"
   inkscape:pageshadow="2"
   inkscape:window-height="1017"
   inkscape:window-maximized="1"
   inkscape:window-width="1920"
   inkscape:window-x="-8"
   inkscape:window-y="-8"
   inkscape:zoom="0.8646487"
   objecttolerance="10"
   pagecolor="#ffffff"
   showgrid="false"
   units="px">
	</sodipodi:namedview>
<g
   id="g852"
   transform="matrix(0.07404856,0,0,0.07404856,38.118719,50.08792)">
	
</g>
<g
   class="st1"
   id="g9917"
   transform="matrix(0.09407908,0,0,0.09407908,38.000044,50.1396)"
   style="enable-background:new">
	
	
	
	
	
	
</g>
</svg>