<?xml version="1.0" encoding="UTF-8" standalone="no"?>
<!-- Generator: Adobe Illustrator 24.1.0, SVG Export Plug-In . SVG Version: 6.00 Build 0)  -->

<svg
   xmlns:dc="http://purl.org/dc/elements/1.1/"
   xmlns:cc="http://creativecommons.org/ns#"
   xmlns:rdf="http://www.w3.org/1999/02/22-rdf-syntax-ns#"
   xmlns:svg="http://www.w3.org/2000/svg"
   xmlns="http://www.w3.org/2000/svg"
   xmlns:sodipodi="http://sodipodi.sourceforge.net/DTD/sodipodi-0.dtd"
   xmlns:inkscape="http://www.inkscape.org/namespaces/inkscape"
   version="1.1"
   id="svg8"
   inkscape:export-filename="/media/juhele/data_2TB/_GRAFIKA/GHS hazard symbols/GHS06_toxic_substances.png"
   inkscape:export-xdpi="99.027519"
   inkscape:export-ydpi="99.027519"
   inkscape:version="0.92.5 (2060ec1f9f, 2020-04-08)"
   sodipodi:docname="114.svg"
   x="0px"
   y="0px"
   viewBox="0 0 125 125"
   xml:space="preserve"
   width="125"
   height="125"><metadata
   id="metadata1544"><rdf:RDF><cc:Work
       rdf:about=""><dc:format>image/svg+xml</dc:format><dc:type
         rdf:resource="http://purl.org/dc/dcmitype/StillImage" /><dc:title></dc:title></cc:Work></rdf:RDF></metadata><defs
   id="defs1542" /><sodipodi:namedview
   pagecolor="#ffffff"
   bordercolor="#666666"
   borderopacity="1"
   objecttolerance="10"
   gridtolerance="10"
   guidetolerance="10"
   inkscape:pageopacity="0"
   inkscape:pageshadow="2"
   inkscape:window-width="1920"
   inkscape:window-height="1017"
   id="namedview1540"
   showgrid="false"
   inkscape:zoom="1.0934881"
   inkscape:cx="387.79999"
   inkscape:cy="387.75"
   inkscape:window-x="-8"
   inkscape:window-y="-8"
   inkscape:window-maximized="1"
   inkscape:current-layer="svg8" />
<style
   type="text/css"
   id="style1529">
	.st0{fill:#FFEB1D;}
</style>

<g
   id="g1550"
   transform="matrix(0.08406927,0,0,0.08406927,29.927361,33.508712)"><g
     id="g1535">
	<polygon
   id="polygon1531"
   points="387,36.4 746.6,657.8 28.2,657.8 "
   class="st0"
   style="fill:#ffeb1d" />
	<path
   id="path1533"
   d="m 411.7,41.6 v 0 0 M 387,84.4 705,633.8 H 69.8 L 387,84.4 m 0,-76.5 c -6.6,0 -13.1,3.2 -16.9,9.7 L 3.5,652.6 c -7.5,13 1.9,29.2 16.9,29.2 h 734.1 c 15,0 24.4,-16.2 16.9,-29.2 L 404,17.6 C 400.1,11.1 393.5,7.9 387,7.9 Z"
   inkscape:connector-curvature="0" />
</g><path
     id="path1537"
     d="m 632.7,455.4 v -12.6 h -191 c -0.2,-1.7 -0.5,-3.4 -0.8,-5 l 55.8,-16.1 -3.3,-10.1 -54.3,20 c -0.9,-2.6 -2,-5.1 -3.2,-7.4 l 95.4,-55.2 -6.6,-10.7 -92,60.7 c -1.3,-1.9 -2.7,-3.7 -4.3,-5.4 l 40.7,-41.4 -7.9,-7.2 -37.3,44 c -1.9,-1.7 -4,-3.3 -6.2,-4.7 l 56.5,-94.6 -11,-6.1 -50.8,97.7 c -2,-1 -4.2,-1.9 -6.4,-2.7 l 15.5,-56 -10.4,-2.5 -11.1,56.7 c -2.8,-0.6 -5.8,-1 -8.8,-1.2 l 1.2,-110.2 -12.6,0.2 5.4,110 c -2.3,0.1 -4.6,0.4 -6.8,0.9 l -14.8,-56.2 -10.2,3.1 18.8,54.7 c -2.5,0.8 -5,1.8 -7.3,3 l -52.8,-96.7 -10.9,6.4 58.4,93.4 c -1.9,1.3 -3.8,2.6 -5.5,4.1 l -40.4,-41.8 -7.4,7.7 43.1,38.6 c -1.9,2.1 -3.7,4.3 -5.3,6.6 l -93.9,-57.7 -6.3,10.9 97.1,52 c -1.1,2 -2,4.1 -2.8,6.3 l -55.8,-16.2 -2.6,10.3 56.6,12 c -0.6,2.5 -1,5.2 -1.2,7.8 L 222.5,440.3 222.4,452.9 335,451 c 0.1,2.3 0.3,4.6 0.7,6.9 l -56.6,13.2 2.8,10.3 55.2,-17.2 c 0.8,2.8 1.8,5.4 3,8 l -97.6,51.2 6.2,11 94.3,-56.9 c 1.2,2 2.6,3.8 4,5.6 l -42.4,39.7 7.6,7.5 39.2,-42.5 c 1.9,1.8 3.9,3.5 6.1,5 l -61.5,94.6 10.8,6.6 55.9,-97.8 c 2.2,1.2 4.4,2.2 6.8,3.1 l -17,55.6 10.3,2.7 12.8,-56.4 c 3,0.7 6,1.2 9.1,1.4 l -3.3,110.2 H 394 l -3.3,-110.1 c 2.3,-0.1 4.6,-0.4 6.9,-0.7 l 13.8,56.4 10.3,-2.9 -17.7,-55 c 2.8,-0.9 5.6,-1.9 8.2,-3.2 l 52.6,96.8 10.9,-6.3 -58.3,-93.5 c 1.9,-1.2 3.8,-2.6 5.6,-4.1 l 40.3,41.8 7.4,-7.7 -43,-38.6 c 2.1,-2.3 4,-4.7 5.7,-7.3 l 94.7,56.5 6.1,-11 -97.8,-50.7 c 1,-2 1.9,-4.2 2.7,-6.4 l 56,15.4 2.5,-10.4 -56.7,-11.3 c 0.4,-1.7 0.7,-3.4 0.9,-5.1 z"
     inkscape:connector-curvature="0" /></g>
</svg>