<?xml version="1.0" encoding="utf-8"?>
<!-- Generator: Adobe Illustrator 24.1.0, SVG Export Plug-In . SVG Version: 6.00 Build 0)  -->
<svg version="1.1"
	 id="svg8" inkscape:export-filename="/media/juhele/data_2TB/_GRAFIKA/GHS hazard symbols/GHS06_toxic_substances.png" inkscape:export-xdpi="99.027519" inkscape:export-ydpi="99.027519" inkscape:version="0.92.3 (unknown)" sodipodi:docname="GHS06_toxic_substances.svg" xmlns:cc="http://creativecommons.org/ns#" xmlns:dc="http://purl.org/dc/elements/1.1/" xmlns:inkscape="http://www.inkscape.org/namespaces/inkscape" xmlns:rdf="http://www.w3.org/1999/02/22-rdf-syntax-ns#" xmlns:sodipodi="http://sodipodi.sourceforge.net/DTD/sodipodi-0.dtd" xmlns:svg="http://www.w3.org/2000/svg"
	 xmlns="http://www.w3.org/2000/svg" xmlns:xlink="http://www.w3.org/1999/xlink" x="0px" y="0px" viewBox="0 0 775.6 775.5"
	 style="enable-background:new 0 0 775.6 775.5;" xml:space="preserve">
<style type="text/css">
	.st0{fill:#FFEB1D;}
</style>
<g>
	<polygon class="st0" points="28.2,657.8 387,36.4 746.6,657.8 	"/>
	<path d="M411.7,41.6L411.7,41.6L411.7,41.6 M387,84.4l318,549.4H69.8L387,84.4 M387,7.9c-6.6,0-13.1,3.2-16.9,9.7L3.5,652.6
		c-7.5,13,1.9,29.2,16.9,29.2h734.1c15,0,24.4-16.2,16.9-29.2L404,17.6C400.1,11.1,393.5,7.9,387,7.9L387,7.9z"/>
</g>
<path d="M632.7,455.4v-12.6h-191c-0.2-1.7-0.5-3.4-0.8-5l55.8-16.1l-3.3-10.1l-54.3,20c-0.9-2.6-2-5.1-3.2-7.4l95.4-55.2l-6.6-10.7
	L432.7,419c-1.3-1.9-2.7-3.7-4.3-5.4l40.7-41.4l-7.9-7.2L423.9,409c-1.9-1.7-4-3.3-6.2-4.7l56.5-94.6l-11-6.1l-50.8,97.7
	c-2-1-4.2-1.9-6.4-2.7l15.5-56l-10.4-2.5L400,396.8c-2.8-0.6-5.8-1-8.8-1.2l1.2-110.2l-12.6,0.2l5.4,110c-2.3,0.1-4.6,0.4-6.8,0.9
	l-14.8-56.2l-10.2,3.1l18.8,54.7c-2.5,0.8-5,1.8-7.3,3l-52.8-96.7l-10.9,6.4l58.4,93.4c-1.9,1.3-3.8,2.6-5.5,4.1l-40.4-41.8
	l-7.4,7.7l43.1,38.6c-1.9,2.1-3.7,4.3-5.3,6.6l-93.9-57.7l-6.3,10.9l97.1,52c-1.1,2-2,4.1-2.8,6.3l-55.8-16.2l-2.6,10.3l56.6,12
	c-0.6,2.5-1,5.2-1.2,7.8l-112.7-4.5l-0.1,12.6L335,451c0.1,2.3,0.3,4.6,0.7,6.9l-56.6,13.2l2.8,10.3l55.2-17.2c0.8,2.8,1.8,5.4,3,8
	l-97.6,51.2l6.2,11l94.3-56.9c1.2,2,2.6,3.8,4,5.6l-42.4,39.7l7.6,7.5l39.2-42.5c1.9,1.8,3.9,3.5,6.1,5L296,587.4l10.8,6.6
	l55.9-97.8c2.2,1.2,4.4,2.2,6.8,3.1l-17,55.6l10.3,2.7l12.8-56.4c3,0.7,6,1.2,9.1,1.4l-3.3,110.2l12.6,0l-3.3-110.1
	c2.3-0.1,4.6-0.4,6.9-0.7l13.8,56.4l10.3-2.9l-17.7-55c2.8-0.9,5.6-1.9,8.2-3.2l52.6,96.8l10.9-6.3l-58.3-93.5
	c1.9-1.2,3.8-2.6,5.6-4.1l40.3,41.8l7.4-7.7l-43-38.6c2.1-2.3,4-4.7,5.7-7.3l94.7,56.5l6.1-11l-97.8-50.7c1-2,1.9-4.2,2.7-6.4
	l56,15.4l2.5-10.4l-56.7-11.3c0.4-1.7,0.7-3.4,0.9-5.1H632.7z"/>
</svg>
