<?xml version="1.0" encoding="utf-8"?>
<!-- Generator: Adobe Illustrator 24.1.0, SVG Export Plug-In . SVG Version: 6.00 Build 0)  -->
<svg version="1.1"
	 id="svg8" inkscape:export-filename="/media/juhele/data_2TB/_GRAFIKA/GHS hazard symbols/GHS06_toxic_substances.png" inkscape:export-xdpi="99.027519" inkscape:export-ydpi="99.027519" inkscape:version="0.92.3 (unknown)" sodipodi:docname="GHS06_toxic_substances.svg" xmlns:cc="http://creativecommons.org/ns#" xmlns:dc="http://purl.org/dc/elements/1.1/" xmlns:inkscape="http://www.inkscape.org/namespaces/inkscape" xmlns:rdf="http://www.w3.org/1999/02/22-rdf-syntax-ns#" xmlns:sodipodi="http://sodipodi.sourceforge.net/DTD/sodipodi-0.dtd" xmlns:svg="http://www.w3.org/2000/svg"
	 xmlns="http://www.w3.org/2000/svg" xmlns:xlink="http://www.w3.org/1999/xlink" x="0px" y="0px" viewBox="0 0 775.6 775.5"
	 style="enable-background:new 0 0 775.6 775.5;" xml:space="preserve">
<style type="text/css">
	.st0{fill:#FFEB1D;}
</style>
<g>
	<polygon class="st0" points="28.2,657.8 387,36.4 746.6,657.8 	"/>
	<path d="M411.7,41.6L411.7,41.6L411.7,41.6 M387,84.4l318,549.4H69.8L387,84.4 M387,7.9c-6.6,0-13.1,3.2-16.9,9.7L3.5,652.6
		c-7.5,13,1.9,29.2,16.9,29.2h734.1c15,0,24.4-16.2,16.9-29.2L404,17.6C400.1,11.1,393.5,7.9,387,7.9L387,7.9z"/>
</g>
<g transform="translate(617.624,0)">
	<path d="M-351.9,604l-19.2,0.1v-36.1v-36.1l-64.2-0.2l-0.5-17.6l83.5-1L-351.9,604z"/>
	<path d="M-318.5,589.8c-6.6-3.5-10.5-9-10.5-15c0-3.4,10.4-17.3,29-38.8c27.6-31.9,30-34,49.5-44l20.5-10.5l-19.7-2.8
		c-39.9-5.7-46.7-6.1-52-3.5c-4.8,2.4-32.1,13.7-58.4,24.1c-13.1,5.2-21.4,3.2-25.7-6.1c-3.7-8.1,1.4-17.3,12.1-21.6
		c4.5-1.8,15.6-6.8,24.6-11c9-4.2,24-10.7,33.3-14.2l17-6.5l29,3.9c46,6.1,40.1,9.2,57.1-29.8c8.1-18.5,14.6-34.7,14.6-36.1
		c0-1.4-1.8-3.1-4.1-3.8c-2.3-0.7-6.9-3.7-10.3-6.6c-3.4-2.9-14.3-10.8-24.1-17.7c-9.8-6.8-18.8-14.7-19.9-17.6
		c-1.1-2.8-7.4-16.5-14-30.3c-6.6-13.8-11.9-27.2-11.9-29.7c0-7.1,6.7-12.2,14.9-11.4c6.9,0.7,8.2,2.5,21.6,30l14.3,29.3l18.5,12.6
		c10.2,6.9,20.6,14.4,23.2,16.7c2.6,2.3,11,6.7,18.7,10c7.7,3.2,20.4,8.5,28.1,11.8c12.2,5.1,33.7,20.2,45.9,32.2
		c2.1,2.1,7.1,5.7,11,8c9.1,5.4,10.9,9.6,20.6,47.5c8.4,32.9,8.2,37.4-1.4,42.5c-3.4,1.8-6.3,1.6-11.1-0.9c-5.9-3-7.2-6.4-14.3-35
		c-7.4-30.3-8.1-31.9-16.4-37.7c-4.7-3.3-13.8-10.2-20.2-15.3c-6.4-5.1-12.4-8.5-13.3-7.6c-0.9,0.9-9.2,19.1-18.5,40.3
		c-9.3,21.2-18.4,40.4-20.3,42.5c-1.9,2.2-18.9,12.1-37.8,22.1c-33.9,18-34.6,18.5-54.8,41.7c-11.2,12.9-22.1,25.9-24.1,28.8
		C-303,588.3-312.9,592.8-318.5,589.8L-318.5,589.8z"/>
	<path d="M-159.6,358.2c-18.2-11.2-13.3-44.4,8.8-47.6c19.1-4.4,39.3,17.8,29.5,36.1C-127.6,360.9-146.4,364.2-159.6,358.2
		L-159.6,358.2z"/>
</g>
</svg>
