<?xml version="1.0" encoding="UTF-8" standalone="no"?>
<!-- Generator: Adobe Illustrator 24.1.0, SVG Export Plug-In . SVG Version: 6.00 Build 0)  -->

<svg
   xmlns:dc="http://purl.org/dc/elements/1.1/"
   xmlns:cc="http://creativecommons.org/ns#"
   xmlns:rdf="http://www.w3.org/1999/02/22-rdf-syntax-ns#"
   xmlns:svg="http://www.w3.org/2000/svg"
   xmlns="http://www.w3.org/2000/svg"
   xmlns:sodipodi="http://sodipodi.sourceforge.net/DTD/sodipodi-0.dtd"
   xmlns:inkscape="http://www.inkscape.org/namespaces/inkscape"
   version="1.1"
   id="svg8"
   inkscape:export-filename="/media/juhele/data_2TB/_GRAFIKA/GHS hazard symbols/GHS06_toxic_substances.png"
   inkscape:export-xdpi="99.027519"
   inkscape:export-ydpi="99.027519"
   inkscape:version="0.92.5 (2060ec1f9f, 2020-04-08)"
   sodipodi:docname="115.svg"
   x="0px"
   y="0px"
   viewBox="0 0 125 125"
   xml:space="preserve"
   width="125"
   height="125"><metadata
   id="metadata1604"><rdf:RDF><cc:Work
       rdf:about=""><dc:format>image/svg+xml</dc:format><dc:type
         rdf:resource="http://purl.org/dc/dcmitype/StillImage" /><dc:title></dc:title></cc:Work></rdf:RDF></metadata><defs
   id="defs1602" /><sodipodi:namedview
   pagecolor="#ffffff"
   bordercolor="#666666"
   borderopacity="1"
   objecttolerance="10"
   gridtolerance="10"
   guidetolerance="10"
   inkscape:pageopacity="0"
   inkscape:pageshadow="2"
   inkscape:window-width="1920"
   inkscape:window-height="1017"
   id="namedview1600"
   showgrid="false"
   inkscape:zoom="1.0934881"
   inkscape:cx="387.79999"
   inkscape:cy="387.75"
   inkscape:window-x="-8"
   inkscape:window-y="-8"
   inkscape:window-maximized="1"
   inkscape:current-layer="svg8" />
<style
   type="text/css"
   id="style1583">
	.st0{fill:#FFEB1D;}
</style>

<g
   id="g1613"
   transform="matrix(0.08406927,0,0,0.08406927,29.927361,33.508712)"><g
     id="g1589">
	<polygon
   id="polygon1585"
   points="387,36.4 746.6,657.8 28.2,657.8 "
   class="st0"
   style="fill:#ffeb1d" />
	<path
   id="path1587"
   d="m 411.7,41.6 v 0 0 M 387,84.4 705,633.8 H 69.8 L 387,84.4 m 0,-76.5 c -6.6,0 -13.1,3.2 -16.9,9.7 L 3.5,652.6 c -7.5,13 1.9,29.2 16.9,29.2 h 734.1 c 15,0 24.4,-16.2 16.9,-29.2 L 404,17.6 C 400.1,11.1 393.5,7.9 387,7.9 Z"
   inkscape:connector-curvature="0" />
</g><g
     id="g1597"
     transform="translate(617.624)">
	<path
   id="path1591"
   d="m -351.9,604 -19.2,0.1 V 568 531.9 l -64.2,-0.2 -0.5,-17.6 83.5,-1 z"
   inkscape:connector-curvature="0" />
	<path
   id="path1593"
   d="m -318.5,589.8 c -6.6,-3.5 -10.5,-9 -10.5,-15 0,-3.4 10.4,-17.3 29,-38.8 27.6,-31.9 30,-34 49.5,-44 l 20.5,-10.5 -19.7,-2.8 c -39.9,-5.7 -46.7,-6.1 -52,-3.5 -4.8,2.4 -32.1,13.7 -58.4,24.1 -13.1,5.2 -21.4,3.2 -25.7,-6.1 -3.7,-8.1 1.4,-17.3 12.1,-21.6 4.5,-1.8 15.6,-6.8 24.6,-11 9,-4.2 24,-10.7 33.3,-14.2 l 17,-6.5 29,3.9 c 46,6.1 40.1,9.2 57.1,-29.8 8.1,-18.5 14.6,-34.7 14.6,-36.1 0,-1.4 -1.8,-3.1 -4.1,-3.8 -2.3,-0.7 -6.9,-3.7 -10.3,-6.6 -3.4,-2.9 -14.3,-10.8 -24.1,-17.7 -9.8,-6.8 -18.8,-14.7 -19.9,-17.6 -1.1,-2.8 -7.4,-16.5 -14,-30.3 -6.6,-13.8 -11.9,-27.2 -11.9,-29.7 0,-7.1 6.7,-12.2 14.9,-11.4 6.9,0.7 8.2,2.5 21.6,30 l 14.3,29.3 18.5,12.6 c 10.2,6.9 20.6,14.4 23.2,16.7 2.6,2.3 11,6.7 18.7,10 7.7,3.2 20.4,8.5 28.1,11.8 12.2,5.1 33.7,20.2 45.9,32.2 2.1,2.1 7.1,5.7 11,8 9.1,5.4 10.9,9.6 20.6,47.5 8.4,32.9 8.2,37.4 -1.4,42.5 -3.4,1.8 -6.3,1.6 -11.1,-0.9 -5.9,-3 -7.2,-6.4 -14.3,-35 -7.4,-30.3 -8.1,-31.9 -16.4,-37.7 -4.7,-3.3 -13.8,-10.2 -20.2,-15.3 -6.4,-5.1 -12.4,-8.5 -13.3,-7.6 -0.9,0.9 -9.2,19.1 -18.5,40.3 -9.3,21.2 -18.4,40.4 -20.3,42.5 -1.9,2.2 -18.9,12.1 -37.8,22.1 -33.9,18 -34.6,18.5 -54.8,41.7 -11.2,12.9 -22.1,25.9 -24.1,28.8 -5.2,8 -15.1,12.5 -20.7,9.5 z"
   inkscape:connector-curvature="0" />
	<path
   id="path1595"
   d="m -159.6,358.2 c -18.2,-11.2 -13.3,-44.4 8.8,-47.6 19.1,-4.4 39.3,17.8 29.5,36.1 -6.3,14.2 -25.1,17.5 -38.3,11.5 z"
   inkscape:connector-curvature="0" />
</g></g>
</svg>