<?xml version="1.0" encoding="utf-8"?>
<!-- Generator: Adobe Illustrator 24.1.0, SVG Export Plug-In . SVG Version: 6.00 Build 0)  -->
<svg version="1.1"
	 id="svg8" inkscape:export-filename="/media/juhele/data_2TB/_GRAFIKA/GHS hazard symbols/GHS06_toxic_substances.png" inkscape:export-xdpi="99.027519" inkscape:export-ydpi="99.027519" inkscape:version="0.92.3 (unknown)" sodipodi:docname="GHS06_toxic_substances.svg" xmlns:cc="http://creativecommons.org/ns#" xmlns:dc="http://purl.org/dc/elements/1.1/" xmlns:inkscape="http://www.inkscape.org/namespaces/inkscape" xmlns:rdf="http://www.w3.org/1999/02/22-rdf-syntax-ns#" xmlns:sodipodi="http://sodipodi.sourceforge.net/DTD/sodipodi-0.dtd" xmlns:svg="http://www.w3.org/2000/svg"
	 xmlns="http://www.w3.org/2000/svg" xmlns:xlink="http://www.w3.org/1999/xlink" x="0px" y="0px" viewBox="0 0 775.6 775.5"
	 style="enable-background:new 0 0 775.6 775.5;" xml:space="preserve">
<style type="text/css">
	.st0{fill:#FFEB1D;}
</style>
<g>
	<polygon class="st0" points="28.2,657.8 387,36.4 746.6,657.8 	"/>
	<path d="M411.7,41.6L411.7,41.6L411.7,41.6 M387,84.4L705,633.8H69.8L387,84.4 M387,7.9c-6.6,0-13.1,3.2-16.9,9.7L3.5,652.6
		c-7.5,13,1.9,29.2,16.9,29.2h734.1c15,0,24.4-16.2,16.9-29.2l-367.4-635C400.1,11.1,393.5,7.9,387,7.9L387,7.9z"/>
</g>
<g id="layer3" transform="translate(-73.77379,-269.05022)" inkscape:groupmode="layer" inkscape:label="Ebene 2">
	
		<path id="path3802" inkscape:connector-curvature="0" sodipodi:nodetypes="ssssscssssssssssssssssssssssscssssssscsssssscsssssssssssssscscssscsssssssssssscssssssssssccscc" d="
		M526.8,874.2c0-0.3,11.8-16.1,26.2-35c31.8-41.7,51.1-67.1,76-100.3c10.4-13.8,19.4-25.6,20-26.2c0.6-0.6,2.7,1.7,4.6,5.1l3.6,6.2
		L644,741.3c-7.3,9.5-17,22.2-21.4,28.2c-4.5,6-8.5,11.2-8.9,11.5c-0.4,0.4-7.1,9.2-14.9,19.7c-7.8,10.5-14.5,19.3-14.9,19.7
		c-0.7,0.6-26.5,34.4-36.6,47.9c-4.8,6.4-4.9,6.5-12.6,6.5C530.3,874.8,526.8,874.5,526.8,874.2z M491.7,856.1
		c-0.7-1.3-1.7-4.8-2.2-7.8c-1.4-7.8-3.7-11.5-13.5-22.2c-11.8-12.9-15.4-18.6-17-27.1c-1-5-5-13.1-13.8-27.8
		c-6.8-11.4-13.1-21.5-14-22.4s-5.3-2.1-9.9-2.6c-6.8-0.7-10.4-0.2-19.7,2.7c-22,6.8-29,8.2-40.6,8.2c-17.2,0-24.1-1.4-25.3-5
		c-0.6-1.6-0.9-3.5-0.7-4.2c0.2-0.7-0.9-2.1-2.4-3.1c-3-2.1-3.6-5.9-1.4-9.9c1.5-2.8,9.1-5.9,21.1-8.5c8.1-1.7,8-1.8-15-2.4
		l-23.1-0.7l-6.8-4.4c-3.7-2.4-8.2-6.2-9.9-8.5c-1.7-2.3-3.9-4.1-4.9-4.1c-2.2,0-6.8-7.2-8.1-12.6c-0.7-3-0.1-4.6,2.9-7.6
		c3.3-3.3,5.6-4,16.3-5.4c7.8-1,18.3-3.7,27.8-7.1c25.2-9.1,30.1-10.6,34-10.7c2.1,0,5.8-0.9,8.3-1.9c3.7-1.5,5.1-3.4,7.4-9.5
		c1.6-4.2,3.1-11.4,3.5-16c0.5-6.1,1.3-8.8,3-9.9c2.7-1.6,16.4-6.9,36.4-13.9c28.4-10,36.5-16.6,43.4-35.3
		c2.2-5.9,4.4-11.3,4.9-12.1c0.5-0.7,1.7-3.8,2.7-6.8c4-12.6,10.4-20.7,13.8-17.3c0.7,0.7,1.4,8.2,1.7,16.8
		c0.6,22.8,3.8,26.4,13.8,16c3-3.1,11.9-10.4,19.8-16.3c8-5.9,14.8-11.6,15.2-12.8c1.1-2.8,5.9-2.6,6.6,0.3
		c0.8,3.4-1.1,30.9-3.5,49.9c-1.1,9-2.1,19.5-2.1,23.4c-0.1,6.6,0.2,7.3,4.1,9.3c4,2.1,14.7,12.4,37.9,36.5
		c11,11.4,29.3,28.1,33.3,30.4c2.4,1.3,2.3,1.5-0.2,4.8c-1.4,1.9-9,11.9-16.9,22.2s-14.6,19.2-15,19.5c-0.4,0.4-7.1,9.2-14.9,19.7
		c-7.8,10.5-14.5,19.3-14.9,19.7c-0.4,0.4-7.1,9.2-14.9,19.7s-14.8,19.7-15.6,20.5s-7.5,9.8-14.9,19.9c-7.5,10.1-14,18.5-14.6,18.5
		C493.3,858.4,492.3,857.4,491.7,856.1z M412.2,664.9c2.7-1.1,7.6-2,10.9-2c4.2,0,5.9-0.5,5.5-1.7c-0.9-2.9-14.8-9.2-20.3-9.2
		c-5.7,0-6.2,1.3-4.3,10.7C405,667.6,405.5,667.7,412.2,664.9z M528.5,850.7c-4-0.8-9.9-7.9-9.9-12c0-5,2.6-9.5,6.8-12
		c4.7-2.8,7.2-2.8,12-0.3c9.6,5,8.8,20.2-1.3,23.7c-2.4,0.8-4.4,1.4-4.5,1.3C531.6,851.4,530.2,851.1,528.5,850.7L528.5,850.7z
		 M567.5,796.4c-9.3-3.4-10.5-15.7-2.2-22.4c7.8-6.3,19.9,0.4,19.9,11C585.2,793.6,576.1,799.5,567.5,796.4z M610,743.3
		c-4.3-0.7-9.9-7.9-9.9-12.8c0-5.1,7.7-13.3,12.5-13.3c6.8,0,13.2,6.6,13.3,13.6C625.9,739,618.6,744.7,610,743.3z"/>
</g>
</svg>
