<?xml version="1.0" encoding="UTF-8" standalone="no"?>
<!-- Generator: Adobe Illustrator 24.1.0, SVG Export Plug-In . SVG Version: 6.00 Build 0)  -->

<svg
   xmlns:dc="http://purl.org/dc/elements/1.1/"
   xmlns:cc="http://creativecommons.org/ns#"
   xmlns:rdf="http://www.w3.org/1999/02/22-rdf-syntax-ns#"
   xmlns:svg="http://www.w3.org/2000/svg"
   xmlns="http://www.w3.org/2000/svg"
   xmlns:sodipodi="http://sodipodi.sourceforge.net/DTD/sodipodi-0.dtd"
   xmlns:inkscape="http://www.inkscape.org/namespaces/inkscape"
   version="1.1"
   id="svg8"
   inkscape:export-filename="/media/juhele/data_2TB/_GRAFIKA/GHS hazard symbols/GHS06_toxic_substances.png"
   inkscape:export-xdpi="99.027519"
   inkscape:export-ydpi="99.027519"
   inkscape:version="0.92.5 (2060ec1f9f, 2020-04-08)"
   sodipodi:docname="116.svg"
   x="0px"
   y="0px"
   viewBox="0 0 125 125"
   xml:space="preserve"
   width="125"
   height="125"><metadata
   id="metadata1655"><rdf:RDF><cc:Work
       rdf:about=""><dc:format>image/svg+xml</dc:format><dc:type
         rdf:resource="http://purl.org/dc/dcmitype/StillImage" /><dc:title></dc:title></cc:Work></rdf:RDF></metadata><defs
   id="defs1653" /><sodipodi:namedview
   pagecolor="#ffffff"
   bordercolor="#666666"
   borderopacity="1"
   objecttolerance="10"
   gridtolerance="10"
   guidetolerance="10"
   inkscape:pageopacity="0"
   inkscape:pageshadow="2"
   inkscape:window-width="1920"
   inkscape:window-height="1017"
   id="namedview1651"
   showgrid="false"
   inkscape:zoom="1.0934881"
   inkscape:cx="387.79999"
   inkscape:cy="387.75"
   inkscape:window-x="-8"
   inkscape:window-y="-8"
   inkscape:window-maximized="1"
   inkscape:current-layer="layer3" />
<style
   type="text/css"
   id="style1640">
	.st0{fill:#FFEB1D;}
</style>

<g
   id="layer3"
   transform="translate(-73.77379,-919.55022)"
   inkscape:groupmode="layer"
   inkscape:label="Ebene 2">
	
		<g
   id="g1675"
   transform="matrix(0.08406927,0,0,0.08406927,97.499043,930.44008)"><g
     transform="translate(73.77379,269.05022)"
     id="g1663"><g
       id="g1646">
	<polygon
   class="st0"
   points="387,36.4 746.6,657.8 28.2,657.8 "
   id="polygon1642"
   style="fill:#ffeb1d" />
	<path
   d="m 411.7,41.6 v 0 0 M 387,84.4 705,633.8 H 69.8 L 387,84.4 m 0,-76.5 c -6.6,0 -13.1,3.2 -16.9,9.7 L 3.5,652.6 c -7.5,13 1.9,29.2 16.9,29.2 h 734.1 c 15,0 24.4,-16.2 16.9,-29.2 L 404,17.6 C 400.1,11.1 393.5,7.9 387,7.9 Z"
   id="path1644"
   inkscape:connector-curvature="0" />
</g></g><g
     id="g1658"><path
       id="path3802"
       inkscape:connector-curvature="0"
       sodipodi:nodetypes="ssssscssssssssssssssssssssssscssssssscsssssscsssssssssssssscscssscsssssssssssscssssssssssccscc"
       d="m 526.8,874.2 c 0,-0.3 11.8,-16.1 26.2,-35 31.8,-41.7 51.1,-67.1 76,-100.3 10.4,-13.8 19.4,-25.6 20,-26.2 0.6,-0.6 2.7,1.7 4.6,5.1 l 3.6,6.2 -13.2,17.3 c -7.3,9.5 -17,22.2 -21.4,28.2 -4.5,6 -8.5,11.2 -8.9,11.5 -0.4,0.4 -7.1,9.2 -14.9,19.7 -7.8,10.5 -14.5,19.3 -14.9,19.7 -0.7,0.6 -26.5,34.4 -36.6,47.9 -4.8,6.4 -4.9,6.5 -12.6,6.5 -4.4,0 -7.9,-0.3 -7.9,-0.6 z m -35.1,-18.1 c -0.7,-1.3 -1.7,-4.8 -2.2,-7.8 -1.4,-7.8 -3.7,-11.5 -13.5,-22.2 -11.8,-12.9 -15.4,-18.6 -17,-27.1 -1,-5 -5,-13.1 -13.8,-27.8 -6.8,-11.4 -13.1,-21.5 -14,-22.4 -0.9,-0.9 -5.3,-2.1 -9.9,-2.6 -6.8,-0.7 -10.4,-0.2 -19.7,2.7 -22,6.8 -29,8.2 -40.6,8.2 -17.2,0 -24.1,-1.4 -25.3,-5 -0.6,-1.6 -0.9,-3.5 -0.7,-4.2 0.2,-0.7 -0.9,-2.1 -2.4,-3.1 -3,-2.1 -3.6,-5.9 -1.4,-9.9 1.5,-2.8 9.1,-5.9 21.1,-8.5 8.1,-1.7 8,-1.8 -15,-2.4 l -23.1,-0.7 -6.8,-4.4 c -3.7,-2.4 -8.2,-6.2 -9.9,-8.5 -1.7,-2.3 -3.9,-4.1 -4.9,-4.1 -2.2,0 -6.8,-7.2 -8.1,-12.6 -0.7,-3 -0.1,-4.6 2.9,-7.6 3.3,-3.3 5.6,-4 16.3,-5.4 7.8,-1 18.3,-3.7 27.8,-7.1 25.2,-9.1 30.1,-10.6 34,-10.7 2.1,0 5.8,-0.9 8.3,-1.9 3.7,-1.5 5.1,-3.4 7.4,-9.5 1.6,-4.2 3.1,-11.4 3.5,-16 0.5,-6.1 1.3,-8.8 3,-9.9 2.7,-1.6 16.4,-6.9 36.4,-13.9 28.4,-10 36.5,-16.6 43.4,-35.3 2.2,-5.9 4.4,-11.3 4.9,-12.1 0.5,-0.7 1.7,-3.8 2.7,-6.8 4,-12.6 10.4,-20.7 13.8,-17.3 0.7,0.7 1.4,8.2 1.7,16.8 0.6,22.8 3.8,26.4 13.8,16 3,-3.1 11.9,-10.4 19.8,-16.3 8,-5.9 14.8,-11.6 15.2,-12.8 1.1,-2.8 5.9,-2.6 6.6,0.3 0.8,3.4 -1.1,30.9 -3.5,49.9 -1.1,9 -2.1,19.5 -2.1,23.4 -0.1,6.6 0.2,7.3 4.1,9.3 4,2.1 14.7,12.4 37.9,36.5 11,11.4 29.3,28.1 33.3,30.4 2.4,1.3 2.3,1.5 -0.2,4.8 -1.4,1.9 -9,11.9 -16.9,22.2 -7.9,10.3 -14.6,19.2 -15,19.5 -0.4,0.4 -7.1,9.2 -14.9,19.7 -7.8,10.5 -14.5,19.3 -14.9,19.7 -0.4,0.4 -7.1,9.2 -14.9,19.7 -7.8,10.5 -14.8,19.7 -15.6,20.5 -0.8,0.8 -7.5,9.8 -14.9,19.9 -7.5,10.1 -14,18.5 -14.6,18.5 -0.5,0.2 -1.5,-0.8 -2.1,-2.1 z M 412.2,664.9 c 2.7,-1.1 7.6,-2 10.9,-2 4.2,0 5.9,-0.5 5.5,-1.7 -0.9,-2.9 -14.8,-9.2 -20.3,-9.2 -5.7,0 -6.2,1.3 -4.3,10.7 1,4.9 1.5,5 8.2,2.2 z m 116.3,185.8 c -4,-0.8 -9.9,-7.9 -9.9,-12 0,-5 2.6,-9.5 6.8,-12 4.7,-2.8 7.2,-2.8 12,-0.3 9.6,5 8.8,20.2 -1.3,23.7 -2.4,0.8 -4.4,1.4 -4.5,1.3 0,0 -1.4,-0.3 -3.1,-0.7 z m 39,-54.3 C 558.2,793 557,780.7 565.3,774 c 7.8,-6.3 19.9,0.4 19.9,11 0,8.6 -9.1,14.5 -17.7,11.4 z M 610,743.3 c -4.3,-0.7 -9.9,-7.9 -9.9,-12.8 0,-5.1 7.7,-13.3 12.5,-13.3 6.8,0 13.2,6.6 13.3,13.6 0,8.2 -7.3,13.9 -15.9,12.5 z" /></g></g>
</g>
</svg>