<?xml version="1.0" encoding="UTF-8" standalone="no"?>
<!-- Generator: Adobe Illustrator 24.1.0, SVG Export Plug-In . SVG Version: 6.00 Build 0)  -->

<svg
   xmlns:dc="http://purl.org/dc/elements/1.1/"
   xmlns:cc="http://creativecommons.org/ns#"
   xmlns:rdf="http://www.w3.org/1999/02/22-rdf-syntax-ns#"
   xmlns:svg="http://www.w3.org/2000/svg"
   xmlns="http://www.w3.org/2000/svg"
   xmlns:sodipodi="http://sodipodi.sourceforge.net/DTD/sodipodi-0.dtd"
   xmlns:inkscape="http://www.inkscape.org/namespaces/inkscape"
   version="1.1"
   id="svg8"
   inkscape:export-filename="/media/juhele/data_2TB/_GRAFIKA/GHS hazard symbols/GHS06_toxic_substances.png"
   inkscape:export-xdpi="99.027519"
   inkscape:export-ydpi="99.027519"
   inkscape:version="0.92.5 (2060ec1f9f, 2020-04-08)"
   sodipodi:docname="117.svg"
   x="0px"
   y="0px"
   viewBox="0 0 125 125"
   xml:space="preserve"
   width="125"
   height="125"><metadata
   id="metadata1729"><rdf:RDF><cc:Work
       rdf:about=""><dc:format>image/svg+xml</dc:format><dc:type
         rdf:resource="http://purl.org/dc/dcmitype/StillImage" /><dc:title></dc:title></cc:Work></rdf:RDF></metadata><defs
   id="defs1727" /><sodipodi:namedview
   pagecolor="#ffffff"
   bordercolor="#666666"
   borderopacity="1"
   objecttolerance="10"
   gridtolerance="10"
   guidetolerance="10"
   inkscape:pageopacity="0"
   inkscape:pageshadow="2"
   inkscape:window-width="1920"
   inkscape:window-height="1017"
   id="namedview1725"
   showgrid="false"
   inkscape:zoom="1.0934881"
   inkscape:cx="387.79999"
   inkscape:cy="387.75"
   inkscape:window-x="-8"
   inkscape:window-y="-8"
   inkscape:window-maximized="1"
   inkscape:current-layer="svg8" />
<style
   type="text/css"
   id="style1708">
	.st0{fill:#FFEB1D;}
	.st1{fill:none;stroke:#000000;stroke-width:8.8583;stroke-miterlimit:4.3194;}
</style>

<g
   id="g1742"
   transform="matrix(0.08406927,0,0,0.08406927,29.927361,33.508712)"><g
     id="g1714">
	<polygon
   id="polygon1710"
   points="746.6,657.8 28.2,657.8 387,36.4 "
   class="st0"
   style="fill:#ffeb1d" />
	<path
   id="path1712"
   d="m 411.7,41.6 v 0 0 M 387,84.4 705,633.8 H 69.8 L 387,84.4 m 0,-76.5 c -6.6,0 -13.1,3.2 -16.9,9.7 L 3.5,652.6 c -7.5,13 1.9,29.2 16.9,29.2 h 734.1 c 15,0 24.4,-16.2 16.9,-29.2 L 404,17.6 C 400.1,11.1 393.5,7.9 387,7.9 Z"
   inkscape:connector-curvature="0" />
</g><g
     transform="translate(668.93985)"
     id="g4345">
	<g
   transform="matrix(1.079838,0,0,1.079838,6.9109,-9.025744)"
   id="g2853">
		<path
   d="m -271.6,182.4 c 0,0 34.2,55.1 -24.2,82.2 -22.9,10.6 -53.5,18.6 -26.4,70.8"
   class="st1"
   id="path1936"
   inkscape:connector-curvature="0"
   style="fill:none;stroke:#000000;stroke-width:8.85830021;stroke-miterlimit:4.31939983" />
		<path
   d="m -293.5,223.5 c 2.6,27.7 59.5,19.8 61.7,53.2 2.1,33.1 -41.3,36.3 -67.9,33.9 -83.3,-7.5 -62.4,35.6 -16.8,27.1"
   class="st1"
   id="path1940"
   inkscape:connector-curvature="0"
   style="fill:none;stroke:#000000;stroke-width:8.85830021;stroke-miterlimit:4.31939983" />
	</g>
	<g
   transform="matrix(1.079838,0,0,1.079838,6.9109,-9.025744)"
   id="g1961">
		<path
   d="m -243.9,360.5 v 18.2 h -78.9 v -17.9 h -32.3 v 17.9 h -38.6 v 136.5 h 108.4 c 3.2,3.5 7.3,8 9.5,13.9 6,16.2 28.2,21.8 47.9,21.2 54.1,-1.7 34.5,3.5 62.2,8.2 19.8,3.4 18.1,14.7 73.8,9.5 14.2,-1.3 22.6,-10.1 21.6,-19.5 -2.5,-23.1 -26.6,-11.2 -26.7,-35.5 0,-18.4 -6.4,-24.1 -19.8,-23.9 -38.2,0.4 -42.9,3.7 -44.8,-26.7 0,0 0,0 0,0 v -83.8 h -0.8 c -0.6,-12.6 -4.1,-13 -11.2,-13 h -33 c -5.2,0.3 -6.2,-5.2 -6.2,-5.2 h -31.1 z m -137,32.3 h 193.8 v 108.3 h -193.8 z"
   id="rect1934"
   inkscape:connector-curvature="0" />
		<rect
   height="12.4"
   width="42.400002"
   y="416.89999"
   x="-238.3"
   id="rect1942" />
		<path
   d="m -356.8,401.9 v 15 h -15 v 12.4 h 15 v 15 h 12.4 v -15 h 15 v -12.4 h -15 v -15 z"
   id="rect1944"
   inkscape:connector-curvature="0" />
	</g>
</g></g>
</svg>