<?xml version="1.0" encoding="utf-8"?>
<!-- Generator: Adobe Illustrator 24.1.0, SVG Export Plug-In . SVG Version: 6.00 Build 0)  -->
<svg version="1.1"
	 id="svg8" inkscape:export-filename="/media/juhele/data_2TB/_GRAFIKA/GHS hazard symbols/GHS06_toxic_substances.png" inkscape:export-xdpi="99.027519" inkscape:export-ydpi="99.027519" inkscape:version="0.92.3 (unknown)" sodipodi:docname="GHS06_toxic_substances.svg" xmlns:cc="http://creativecommons.org/ns#" xmlns:dc="http://purl.org/dc/elements/1.1/" xmlns:inkscape="http://www.inkscape.org/namespaces/inkscape" xmlns:rdf="http://www.w3.org/1999/02/22-rdf-syntax-ns#" xmlns:sodipodi="http://sodipodi.sourceforge.net/DTD/sodipodi-0.dtd" xmlns:svg="http://www.w3.org/2000/svg"
	 xmlns="http://www.w3.org/2000/svg" xmlns:xlink="http://www.w3.org/1999/xlink" x="0px" y="0px" viewBox="0 0 775.6 775.5"
	 style="enable-background:new 0 0 775.6 775.5;" xml:space="preserve">
<style type="text/css">
	.st0{fill:#FFEB1D;}
	.st1{fill:none;stroke:#000000;stroke-width:8.8583;stroke-miterlimit:4.3194;}
</style>
<g>
	<polygon class="st0" points="28.2,657.8 387,36.4 746.6,657.8 	"/>
	<path d="M411.7,41.6L411.7,41.6L411.7,41.6 M387,84.4l318,549.4H69.8L387,84.4 M387,7.9c-6.6,0-13.1,3.2-16.9,9.7L3.5,652.6
		c-7.5,13,1.9,29.2,16.9,29.2h734.1c15,0,24.4-16.2,16.9-29.2L404,17.6C400.1,11.1,393.5,7.9,387,7.9L387,7.9z"/>
</g>
<g id="g4345" transform="translate(668.93985,0)">
	<g id="g2853" transform="matrix(1.079838,0,0,1.079838,6.9109,-9.025744)">
		<path id="path1936" class="st1" d="M-271.6,182.4c0,0,34.2,55.1-24.2,82.2c-22.9,10.6-53.5,18.6-26.4,70.8"/>
		<path id="path1940" class="st1" d="M-293.5,223.5c2.6,27.7,59.5,19.8,61.7,53.2c2.1,33.1-41.3,36.3-67.9,33.9
			c-83.3-7.5-62.4,35.6-16.8,27.1"/>
	</g>
	<g id="g1961" transform="matrix(1.079838,0,0,1.079838,6.9109,-9.025744)">
		<path id="rect1934" d="M-243.9,360.5v18.2h-78.9v-17.9h-32.3v17.9h-38.6v136.5h108.4c3.2,3.5,7.3,8,9.5,13.9
			c6,16.2,28.2,21.8,47.9,21.2c54.1-1.7,34.5,3.5,62.2,8.2c19.8,3.4,18.1,14.7,73.8,9.5c14.2-1.3,22.6-10.1,21.6-19.5
			c-2.5-23.1-26.6-11.2-26.7-35.5c0-18.4-6.4-24.1-19.8-23.9c-38.2,0.4-42.9,3.7-44.8-26.7c0,0,0,0,0,0v-83.8h-0.8
			c-0.6-12.6-4.1-13-11.2-13h-33c-5.2,0.3-6.2-5.2-6.2-5.2H-243.9z M-380.9,392.8h193.8v108.3h-193.8V392.8z"/>
		<rect id="rect1942" x="-238.3" y="416.9" width="42.4" height="12.4"/>
		<path id="rect1944" d="M-356.8,401.9v15h-15v12.4h15v15h12.4v-15h15v-12.4h-15v-15H-356.8z"/>
	</g>
</g>
</svg>
