<?xml version="1.0" encoding="UTF-8" standalone="no"?>
<!-- Generator: Adobe Illustrator 24.1.0, SVG Export Plug-In . SVG Version: 6.00 Build 0)  -->

<svg
   xmlns:dc="http://purl.org/dc/elements/1.1/"
   xmlns:cc="http://creativecommons.org/ns#"
   xmlns:rdf="http://www.w3.org/1999/02/22-rdf-syntax-ns#"
   xmlns:svg="http://www.w3.org/2000/svg"
   xmlns="http://www.w3.org/2000/svg"
   xmlns:sodipodi="http://sodipodi.sourceforge.net/DTD/sodipodi-0.dtd"
   xmlns:inkscape="http://www.inkscape.org/namespaces/inkscape"
   version="1.1"
   id="svg8"
   x="0px"
   y="0px"
   width="125"
   height="125"
   viewBox="0 0 125 125"
   xml:space="preserve"
   sodipodi:docname="119.svg"
   inkscape:version="0.92.5 (2060ec1f9f, 2020-04-08)"><metadata
   id="metadata10691"><rdf:RDF><cc:Work
       rdf:about=""><dc:format>image/svg+xml</dc:format><dc:type
         rdf:resource="http://purl.org/dc/dcmitype/StillImage" /><dc:title></dc:title></cc:Work></rdf:RDF></metadata><defs
   id="defs10689" /><sodipodi:namedview
   pagecolor="#ffffff"
   bordercolor="#666666"
   borderopacity="1"
   objecttolerance="10"
   gridtolerance="10"
   guidetolerance="10"
   inkscape:pageopacity="0"
   inkscape:pageshadow="2"
   inkscape:window-width="1920"
   inkscape:window-height="1017"
   id="namedview10687"
   showgrid="false"
   inkscape:zoom="0.87885424"
   inkscape:cx="387.79999"
   inkscape:cy="387.75"
   inkscape:window-x="-8"
   inkscape:window-y="-8"
   inkscape:window-maximized="1"
   inkscape:current-layer="svg8" />
<style
   type="text/css"
   id="style10654">
	.st0{fill:#FFEB1D;}
	.st1{enable-background:new    ;}
</style>


<g
   id="g1835"
   transform="matrix(0.09498349,0,0,0.09498349,25.689167,25.722374)"><g
     id="g10660">
	<polygon
   id="polygon10656"
   points="387.1,33.1 705.3,583 69.5,583 "
   class="st0"
   style="fill:#ffeb1d" />
	<path
   id="path10658"
   d="m 387.09961,7.9003906 c -5.8,0 -11.6,2.7996094 -15,8.5996094 l -324.400391,562 c -6.6,11.5 1.7,25.80078 15,25.80078 H 712.40039 c 13.3,0 21.6,-14.30078 15,-25.80078 L 402.30078,16.5 c -3.7,-5.8 -9.50117,-8.5996094 -15.20117,-8.5996094 z m 0,67.6992184 L 668.5,561.80078 H 106.30078 Z M 295.5,306 v 16.5 h -33.69922 v 129.09961 h 219 v -129 H 447.69922 V 306 h -34.59961 v 16.5 h -83 V 306 Z m -24,26.30078 H 471 V 442 H 271.5 Z m 224.90039,11.79883 V 460.5 H 293.09961 v 9.69922 H 506.19922 V 344.09961 Z M 425.5,354.30078 v 15 h -15.09961 v 9.79883 H 425.5 v 15 h 9.69922 v -15 h 15 v -9.79883 h -15 v -15 z m 100.30078,11.79883 v 115.09961 h -205 v 9.70117 H 535.59961 V 366.09961 Z m -232.70117,3.20117 V 379 h 39.80078 v -9.69922 z m -33.5,259 c -9.5,0 -15.7,6.5 -15.5,15 -0.2,8.2 6.00078,14.69922 15.30078,14.69922 9.6,0 15.79883,-6.59922 15.79883,-14.69922 -0.3,-8.5 -6.19961,-14.9 -15.59961,-15 z m 115.40039,0 c -9.5,0 -15.7,6.5 -15.5,15 -0.2,8.2 6.00078,14.69922 15.30078,14.69922 9.6,0 15.79883,-6.59922 15.79883,-14.69922 -0.2,-8.5 -6.19961,-14.9 -15.59961,-15 z m -228.30078,5.5 c 0,0 3.9e-4,130.59961 -0.0996,130.59961 h 81.59961 V 739.59961 H 176.30078 V 633.80078 Z m 311.60156,33.59961 c -30.3,0 -50.5,19.59922 -50.5,50.19922 0,30.7 21.3,48.90039 49,48.90039 25.4,0 50,-15.8 50,-50.5 0,-28.5 -19.4,-48.49961 -48.5,-48.59961 z M 581,667.59961 c -15.8,0 -25.40078,9.09961 -29.30078,15.09961 h -0.59961 l -1.29883,-13 h -25.60156 c 0.4,8.3 0.80078,18.30117 0.80078,30.20117 L 524.69922,764.5 h 29.5 v -54.59961 c 0,-2.6 0.40117,-5.50078 1.20117,-7.30078 2,-5.5 6.9,-11.09961 15,-11.09961 10.8,0 15,8.3 15,20.5 v 52.5 h 29.5 v -56.19922 c 0,-28 -14.50039,-40.70117 -33.90039,-40.70117 z m -336.30078,2.09961 v 94.70117 h 29.5 v -94.70117 z m 115.40039,0 v 94.70117 h 29.5 v -94.70117 z m 97.59961,18.70117 c 13.4,0 18.80078,14.3 18.80078,28.5 0,17.1 -7.40078,28.5 -18.80078,28.5 -12.6,0 -19.39844,-12.2 -19.39844,-28.5 0,-13.9 5.19844,-28.5 19.39844,-28.5 z"
   inkscape:connector-curvature="0" />
</g><g
     id="g10672">
	
	
	
	
	
</g><g
     id="g10684"
     class="st1"
     style="enable-background:new">
	
	
	
	
	
</g></g>
</svg>