<?xml version="1.0" encoding="utf-8"?>
<!-- Generator: Adobe Illustrator 24.1.0, SVG Export Plug-In . SVG Version: 6.00 Build 0)  -->
<svg version="1.1"
	 id="svg8" inkscape:export-filename="/media/juhele/data_2TB/_GRAFIKA/GHS hazard symbols/GHS06_toxic_substances.png" inkscape:export-xdpi="99.027519" inkscape:export-ydpi="99.027519" inkscape:version="0.92.3 (unknown)" sodipodi:docname="GHS06_toxic_substances.svg" xmlns:cc="http://creativecommons.org/ns#" xmlns:dc="http://purl.org/dc/elements/1.1/" xmlns:inkscape="http://www.inkscape.org/namespaces/inkscape" xmlns:rdf="http://www.w3.org/1999/02/22-rdf-syntax-ns#" xmlns:sodipodi="http://sodipodi.sourceforge.net/DTD/sodipodi-0.dtd" xmlns:svg="http://www.w3.org/2000/svg"
	 xmlns="http://www.w3.org/2000/svg" xmlns:xlink="http://www.w3.org/1999/xlink" x="0px" y="0px" viewBox="0 0 775.6 775.5"
	 style="enable-background:new 0 0 775.6 775.5;" xml:space="preserve">
<style type="text/css">
	.st0{fill:#FFEB1D;}
	.st1{enable-background:new    ;}
</style>
<g>
	<polygon class="st0" points="28.2,657.8 387,36.4 746.6,657.8 	"/>
	<path d="M411.7,41.6L411.7,41.6L411.7,41.6 M387,84.4l318,549.4H69.8L387,84.4 M387,7.9c-6.6,0-13.1,3.2-16.9,9.7L3.5,652.6
		c-7.5,13,1.9,29.2,16.9,29.2h734.1c15,0,24.4-16.2,16.9-29.2L404,17.6C400.1,11.1,393.5,7.9,387,7.9L387,7.9z"/>
</g>
<g>
	<path d="M492.9,363.5h-37.4v-18.7h-39.1v18.7h-93.8v-18.7h-39.1v18.7h-38.1v145.9h247.5V363.5z M481.9,498.4H256.4V374.5h225.5
		V498.4z"/>
	<polygon points="521.6,387.8 510.6,387.8 510.6,519.3 280.8,519.3 280.8,530.3 521.6,530.3 	"/>
	<polygon points="543.8,412.7 543.8,542.7 312.1,542.7 312.1,553.7 554.8,553.7 554.8,412.7 	"/>
	<rect x="280.8" y="416.3" width="45" height="11"/>
	<polygon points="430.4,444.3 441.4,444.3 441.4,427.3 458.4,427.3 458.4,416.3 441.4,416.3 441.4,399.3 430.4,399.3 430.4,416.3 
		413.4,416.3 413.4,427.3 430.4,427.3 	"/>
</g>
<g class="st1">
	<path d="M115.4,715.2h33.5v119.5h58.7v28h-92.2V715.2z"/>
	<path d="M260.6,725.9c0,9.2-7,16.6-17.9,16.6c-10.5,0-17.5-7.4-17.3-16.6c-0.2-9.6,6.8-16.9,17.5-16.9
		C253.6,709,260.3,716.3,260.6,725.9z M226.2,862.7v-107h33.3v107H226.2z"/>
	<path d="M391,725.9c0,9.2-7,16.6-17.9,16.6c-10.5,0-17.5-7.4-17.3-16.6c-0.2-9.6,6.8-16.9,17.5-16.9C384,709,390.8,716.3,391,725.9
		z M356.6,862.7v-107h33.3v107H356.6z"/>
	<path d="M522.3,808c0,39.2-27.8,57.1-56.5,57.1c-31.3,0-55.4-20.6-55.4-55.2s22.8-56.7,57.1-56.7
		C500.4,753.2,522.3,775.8,522.3,808z M444.9,809.1c0,18.4,7.7,32.2,21.9,32.2c12.9,0,21.2-12.9,21.2-32.2c0-16-6.1-32.2-21.2-32.2
		C450.8,776.9,444.9,793.3,444.9,809.1z"/>
	<path d="M542.9,789.8c0-13.4-0.4-24.7-0.9-34.1h28.9l1.5,14.7h0.7c4.4-6.8,15.3-17.1,33.1-17.1c21.9,0,38.3,14.4,38.3,46v63.5
		h-33.3v-59.3c0-13.8-4.8-23.2-16.9-23.2c-9.2,0-14.7,6.3-16.9,12.5c-0.9,2-1.3,5.3-1.3,8.3v61.7h-33.3V789.8z"/>
</g>
</svg>
