<?xml version="1.0" encoding="UTF-8" standalone="no"?>
<!-- Generator: Adobe Illustrator 24.1.0, SVG Export Plug-In . SVG Version: 6.00 Build 0)  -->

<svg
   xmlns:dc="http://purl.org/dc/elements/1.1/"
   xmlns:cc="http://creativecommons.org/ns#"
   xmlns:rdf="http://www.w3.org/1999/02/22-rdf-syntax-ns#"
   xmlns:svg="http://www.w3.org/2000/svg"
   xmlns="http://www.w3.org/2000/svg"
   xmlns:sodipodi="http://sodipodi.sourceforge.net/DTD/sodipodi-0.dtd"
   xmlns:inkscape="http://www.inkscape.org/namespaces/inkscape"
   version="1.1"
   id="svg8"
   x="0px"
   y="0px"
   width="775.6px"
   height="775.5px"
   viewBox="0 0 775.6 775.5"
   style="enable-background:new 0 0 775.6 775.5;"
   xml:space="preserve"
   sodipodi:docname="lithiumhoudende_batterijen.svg"
   inkscape:version="0.92.5 (2060ec1f9f, 2020-04-08)"><metadata
   id="metadata10691"><rdf:RDF><cc:Work
       rdf:about=""><dc:format>image/svg+xml</dc:format><dc:type
         rdf:resource="http://purl.org/dc/dcmitype/StillImage" /><dc:title></dc:title></cc:Work></rdf:RDF></metadata><defs
   id="defs10689" /><sodipodi:namedview
   pagecolor="#ffffff"
   bordercolor="#666666"
   borderopacity="1"
   objecttolerance="10"
   gridtolerance="10"
   guidetolerance="10"
   inkscape:pageopacity="0"
   inkscape:pageshadow="2"
   inkscape:window-width="1920"
   inkscape:window-height="1017"
   id="namedview10687"
   showgrid="false"
   inkscape:zoom="0.87885424"
   inkscape:cx="387.79999"
   inkscape:cy="387.75"
   inkscape:window-x="-8"
   inkscape:window-y="-8"
   inkscape:window-maximized="1"
   inkscape:current-layer="svg8" />
<style
   type="text/css"
   id="style10654">
	.st0{fill:#FFEB1D;}
	.st1{enable-background:new    ;}
</style>
<g
   id="g10660">
	<polygon
   class="st0"
   points="69.5,583 387.1,33.1 705.3,583  "
   id="polygon10656" />
	<path
   d="M 387.09961 7.9003906 C 381.29961 7.9003906 375.49961 10.7 372.09961 16.5 L 47.699219 578.5 C 41.099219 590 49.399219 604.30078 62.699219 604.30078 L 712.40039 604.30078 C 725.70039 604.30078 734.00039 590 727.40039 578.5 L 402.30078 16.5 C 398.60078 10.7 392.79961 7.9003906 387.09961 7.9003906 z M 387.09961 75.599609 L 668.5 561.80078 L 106.30078 561.80078 L 387.09961 75.599609 z M 295.5 306 L 295.5 322.5 L 261.80078 322.5 L 261.80078 451.59961 L 480.80078 451.59961 L 480.80078 322.59961 L 447.69922 322.59961 L 447.69922 306 L 413.09961 306 L 413.09961 322.5 L 330.09961 322.5 L 330.09961 306 L 295.5 306 z M 271.5 332.30078 L 471 332.30078 L 471 442 L 271.5 442 L 271.5 332.30078 z M 496.40039 344.09961 L 496.40039 460.5 L 293.09961 460.5 L 293.09961 470.19922 L 506.19922 470.19922 L 506.19922 344.09961 L 496.40039 344.09961 z M 425.5 354.30078 L 425.5 369.30078 L 410.40039 369.30078 L 410.40039 379.09961 L 425.5 379.09961 L 425.5 394.09961 L 435.19922 394.09961 L 435.19922 379.09961 L 450.19922 379.09961 L 450.19922 369.30078 L 435.19922 369.30078 L 435.19922 354.30078 L 425.5 354.30078 z M 525.80078 366.09961 L 525.80078 481.19922 L 320.80078 481.19922 L 320.80078 490.90039 L 535.59961 490.90039 L 535.59961 366.09961 L 525.80078 366.09961 z M 293.09961 369.30078 L 293.09961 379 L 332.90039 379 L 332.90039 369.30078 L 293.09961 369.30078 z M 259.59961 628.30078 C 250.09961 628.30078 243.89961 634.80078 244.09961 643.30078 C 243.89961 651.50078 250.10039 658 259.40039 658 C 269.00039 658 275.19922 651.40078 275.19922 643.30078 C 274.89922 634.80078 268.99961 628.40078 259.59961 628.30078 z M 375 628.30078 C 365.5 628.30078 359.3 634.80078 359.5 643.30078 C 359.3 651.50078 365.50078 658 374.80078 658 C 384.40078 658 390.59961 651.40078 390.59961 643.30078 C 390.39961 634.80078 384.4 628.40078 375 628.30078 z M 146.69922 633.80078 C 146.69922 633.80078 146.69961 764.40039 146.59961 764.40039 L 228.19922 764.40039 L 228.19922 739.59961 L 176.30078 739.59961 L 176.30078 633.80078 L 146.69922 633.80078 z M 458.30078 667.40039 C 428.00078 667.40039 407.80078 686.99961 407.80078 717.59961 C 407.80078 748.29961 429.10078 766.5 456.80078 766.5 C 482.20078 766.5 506.80078 750.7 506.80078 716 C 506.80078 687.5 487.40078 667.50039 458.30078 667.40039 z M 581 667.59961 C 565.2 667.59961 555.59922 676.69922 551.69922 682.69922 L 551.09961 682.69922 L 549.80078 669.69922 L 524.19922 669.69922 C 524.59922 677.99922 525 688.00039 525 699.90039 L 524.69922 764.5 L 554.19922 764.5 L 554.19922 709.90039 C 554.19922 707.30039 554.60039 704.39961 555.40039 702.59961 C 557.40039 697.09961 562.30039 691.5 570.40039 691.5 C 581.20039 691.5 585.40039 699.8 585.40039 712 L 585.40039 764.5 L 614.90039 764.5 L 614.90039 708.30078 C 614.90039 680.30078 600.4 667.59961 581 667.59961 z M 244.69922 669.69922 L 244.69922 764.40039 L 274.19922 764.40039 L 274.19922 669.69922 L 244.69922 669.69922 z M 360.09961 669.69922 L 360.09961 764.40039 L 389.59961 764.40039 L 389.59961 669.69922 L 360.09961 669.69922 z M 457.69922 688.40039 C 471.09922 688.40039 476.5 702.70039 476.5 716.90039 C 476.5 734.00039 469.09922 745.40039 457.69922 745.40039 C 445.09922 745.40039 438.30078 733.20039 438.30078 716.90039 C 438.30078 703.00039 443.49922 688.40039 457.69922 688.40039 z "
   id="path10658" />
</g>
<g
   id="g10672">
	
	
	
	
	
</g>
<g
   class="st1"
   id="g10684">
	
	
	
	
	
</g>
</svg>