<?xml version="1.0" encoding="utf-8"?>
<!-- Generator: Adobe Illustrator 24.1.0, SVG Export Plug-In . SVG Version: 6.00 Build 0)  -->
<svg version="1.1"
	 id="svg8" inkscape:export-filename="/media/juhele/data_2TB/_GRAFIKA/GHS hazard symbols/GHS06_toxic_substances.png" inkscape:export-xdpi="99.027519" inkscape:export-ydpi="99.027519" inkscape:version="0.92.3 (unknown)" sodipodi:docname="GHS06_toxic_substances.svg" xmlns:cc="http://creativecommons.org/ns#" xmlns:dc="http://purl.org/dc/elements/1.1/" xmlns:inkscape="http://www.inkscape.org/namespaces/inkscape" xmlns:rdf="http://www.w3.org/1999/02/22-rdf-syntax-ns#" xmlns:sodipodi="http://sodipodi.sourceforge.net/DTD/sodipodi-0.dtd" xmlns:svg="http://www.w3.org/2000/svg"
	 xmlns="http://www.w3.org/2000/svg" xmlns:xlink="http://www.w3.org/1999/xlink" x="0px" y="0px" viewBox="0 0 775.6 775.5"
	 style="enable-background:new 0 0 775.6 775.5;" xml:space="preserve">
<style type="text/css">
	.st0{fill:#FFEB1D;}
	.st1{fill:none;stroke:#000000;stroke-width:2;stroke-linecap:round;stroke-miterlimit:10;}
</style>
<g>
	<polygon class="st0" points="28.2,657.8 387,36.4 746.6,657.8 	"/>
	<path d="M411.7,41.6L411.7,41.6L411.7,41.6 M387,84.4l318,549.4H69.8L387,84.4 M387,7.9c-6.6,0-13.1,3.2-16.9,9.7L3.5,652.6
		c-7.5,13,1.9,29.2,16.9,29.2h734.1c15,0,24.4-16.2,16.9-29.2L404,17.6C400.1,11.1,393.5,7.9,387,7.9L387,7.9z"/>
</g>
<g id="layer1_1_" transform="translate(-229.37408,-269.0993)" inkscape:groupmode="layer" inkscape:label="Laag 1">
	<g>
		<path d="M708.3,607.1c-23.9,5-45.7,4.4-63-16c-1.2-1.4-3.8-2.4-5.7-2.3c-9.6,0.5-19.3,0.8-28.8,2.3c-11.1,1.8-20.5,6.7-22.4,19.2
			c-2,13.3,1.7,24.8,13.3,32.7c12.9,8.8,27.7,9.9,42.7,11.3c12.9,1.2,26.3,2.3,38.2,6.9c26.8,10.4,43.4,38,41.7,64.9
			c-1.7,26.1-25.4,54-53.2,61.4c-25.5,6.9-49.5,1.3-69.6-14.7c-16.7-13.3-31.3-29.2-45.9-44.9c-10.8-11.6-19.9-24.8-30.1-37
			c-3.6-4.3-7.9-8-12.4-11.3c-18.2-13.2-43.5-3.4-48.4,18.5c-2.3,10.4,3,22.3,14.9,26.1c12.2,3.9,25.4,5.6,38.3,6.3
			c19.7,1,36.4,7.5,49.8,21.9c15.9,17.1,17.3,40.2,3.6,58c-15,19.5-38.5,25.7-58.8,14.6c-7.8-4.3-14-11.2-21.5-16.3
			c-4.7-3.2-10.1-6.7-15.5-7.3c-12.4-1.3-20.5,8.4-18.5,20.7c1.2,7.3,3.4,14.5,4.7,21.9c3.5,19.6-4.9,35.7-22.3,42.4
			c-3.2,1.2-6.8,1.3-10.3,1.9c-0.6-0.9-1.3-1.7-1.9-2.6c2.7-3.4,5-7.1,8.1-10.1c14.3-14,16.7-24.3,9.4-42.8c-0.5-1.2-1-2.3-1.5-3.4
			c-9.3-25.3,7.7-46.1,34.5-41.4c9,1.6,17.7,5.6,26.3,9c7.2,2.8,13.9,7.1,21.3,9.4c11,3.5,22.6-3.2,26.7-14.6
			c4.5-12.3,1.3-22.6-11.2-26.6c-13.8-4.5-28.4-6.3-42.7-9.1c-6.4-1.3-12.8-2.3-19.3-3.3c-33-5.5-44.6-33.4-37.2-62.4
			c4.1-16.2,12.8-29.7,25.6-40.4c26.3-21.9,63.9-15.9,87.2,13.7c14.8,18.9,29.3,38,44.9,56.2c12,13.9,25.9,26.2,44.1,32.1
			c12.4,4,25.1,0.3,32.9-9.4c11-13.7,8.3-34.4-7.4-42.7c-9.6-5.1-21-7.2-31.8-9.1c-10-1.8-20.6-0.7-30.7-2.3
			c-29.2-4.8-50.8-32-53.4-63.9c-2.8-35.2,21-55.3,42.4-61.5c17.5-5.1,35.1-3.4,52.7,0c2.1,0.4,4.3,1,6.4,0.8
			c24.5-2.5,44.2,7.5,55.8,28.6C717.8,605.3,712.6,606.2,708.3,607.1z"/>
		<path d="M775.9,822.9c23.5,15.1,18.8,40.4,26,60.8c0.5,1.4-1.1,3.5-1.7,5.3c-1.6-1.6-4.1-2.9-4.6-4.7c-3-11.4-6.2-22.9-8-34.5
			c-1.6-10.4-8-16.1-17.4-21.8c0,2.9-0.3,4.6,0,6.2c2.9,12.6-1.6,22.7-10.7,31c-7.9,7.2-17.9,8.4-25.9,3.7
			c-8.1-4.8-11.9-15.7-9.1-26.4c2.8-10.8,8.3-17,20.8-23.6c-13.6-0.8-15.6,0-24,9.6c-7.4,8.5-14.7,17-22.2,25.3
			c-2,2.2-4.8,3.8-7.2,5.7c-0.7-0.6-1.5-1.2-2.2-1.9c1.1-2.2,1.7-4.7,3.3-6.5c4.7-5.8,9.8-11.3,14.7-17c16.6-18.9,16.6-18.9,40-24
			c-7.9-6.2-15.2-9.5-24.9-5.4c-8.3,3.5-17,6-25.6,8.7c-2.6,0.8-5.5,0.8-8.6-0.3c8.5-9,21.1-8.6,30.8-14.2
			c11.5-6.7,21.4-0.2,32.8,3.3c-6-14.2-12.8-19.1-24.9-19c-5.3,0-10.6,0.6-15.9,0.5c-3-0.1-6-1.2-9-1.8c0-0.8,0-1.6,0-2.5
			c1.8-0.7,3.5-1.5,5.3-2c2.1-0.5,4.3-0.5,6.5-0.8c17.6-2.6,33.4-0.9,42.6,18.6c0.9-0.9,1.8-1.7,2.7-2.6c-3-9.7-5.4-19.6-9.2-29
			c-3-7.5-7.7-14.2-11.2-21.5c-0.7-1.5,0.1-3.8,0.2-5.7c1.8,0.8,4.4,1.1,5.2,2.5c5.3,9.5,11.6,18.8,15,29c4.1,12.6,4.3,26.9,24,28
			c11.7-13.5,29.1-20.3,48.2-23.2c0.7,1.4,1.4,2.8,2.1,4.1c-17.8,7.4-38,10.9-49.6,28.6c0.4,0.1,1.3,0.5,1.7,0.2
			c13.7-8.7,24.9-3.8,35.6,6.1c4.3,4,9.7,6.9,14.2,10.6c1.3,1,1.3,3.5,1.9,5.3c-1.9-0.1-4.3,0.5-5.7-0.5c-6.5-4.2-13.3-8.3-19-13.6
			c-6.9-6.4-13.7-7.3-21.7-2.9c-2.1,1.2-4.6,1.9-6.9,2.8c0.4,0.6,0.6,1.3,0.8,1.3c13.2-2.6,20.5,3.4,25.2,15.5
			c3.7,9.5,9.2,18.3,13.6,27.6c0.9,1.8,0.2,4.4,0.2,6.6c-2-1.3-5-2.1-6-4c-4.6-8.1-8.6-16.6-12.8-24.9
			C797.3,819.6,797.3,819.6,775.9,822.9z"/>
	</g>
</g>
<polyline class="st1" points="475.7,330.9 497.2,342 499.1,348.8 "/>
<line class="st1" x1="503" y1="339.9" x2="497.2" y2="342"/>
</svg>
