<?xml version="1.0" encoding="UTF-8" standalone="no"?>
<!-- Generator: Adobe Illustrator 24.1.0, SVG Export Plug-In . SVG Version: 6.00 Build 0)  -->

<svg
   xmlns:dc="http://purl.org/dc/elements/1.1/"
   xmlns:cc="http://creativecommons.org/ns#"
   xmlns:rdf="http://www.w3.org/1999/02/22-rdf-syntax-ns#"
   xmlns:svg="http://www.w3.org/2000/svg"
   xmlns="http://www.w3.org/2000/svg"
   xmlns:sodipodi="http://sodipodi.sourceforge.net/DTD/sodipodi-0.dtd"
   xmlns:inkscape="http://www.inkscape.org/namespaces/inkscape"
   version="1.1"
   id="svg8"
   inkscape:export-filename="/media/juhele/data_2TB/_GRAFIKA/GHS hazard symbols/GHS06_toxic_substances.png"
   inkscape:export-xdpi="99.027519"
   inkscape:export-ydpi="99.027519"
   inkscape:version="0.92.5 (2060ec1f9f, 2020-04-08)"
   sodipodi:docname="120.svg"
   x="0px"
   y="0px"
   viewBox="0 0 125 125"
   xml:space="preserve"
   width="125"
   height="125"><metadata
   id="metadata1895"><rdf:RDF><cc:Work
       rdf:about=""><dc:format>image/svg+xml</dc:format><dc:type
         rdf:resource="http://purl.org/dc/dcmitype/StillImage" /><dc:title></dc:title></cc:Work></rdf:RDF></metadata><defs
   id="defs1893" /><sodipodi:namedview
   pagecolor="#ffffff"
   bordercolor="#666666"
   borderopacity="1"
   objecttolerance="10"
   gridtolerance="10"
   guidetolerance="10"
   inkscape:pageopacity="0"
   inkscape:pageshadow="2"
   inkscape:window-width="1920"
   inkscape:window-height="1017"
   id="namedview1891"
   showgrid="false"
   inkscape:zoom="1.0934881"
   inkscape:cx="387.79999"
   inkscape:cy="387.75"
   inkscape:window-x="-8"
   inkscape:window-y="-8"
   inkscape:window-maximized="1"
   inkscape:current-layer="svg8" />
<style
   type="text/css"
   id="style1871">
	.st0{fill:#FFEB1D;}
	.st1{fill:none;stroke:#000000;stroke-width:2;stroke-linecap:round;stroke-miterlimit:10;}
</style>

<g
   id="layer1_1_"
   transform="translate(-229.37408,-919.5993)"
   inkscape:groupmode="layer"
   inkscape:label="Laag 1">
	
</g>

<g
   id="g1924"
   transform="matrix(0.08406927,0,0,0.08406927,29.927361,33.508712)"><g
     id="g1906"
     transform="translate(-229.37408,-269.0993)"><g
       id="g1877"
       transform="translate(229.37408,269.0993)">
	<polygon
   class="st0"
   points="387,36.4 746.6,657.8 28.2,657.8 "
   id="polygon1873"
   style="fill:#ffeb1d" />
	<path
   d="m 411.7,41.6 v 0 0 M 387,84.4 705,633.8 H 69.8 L 387,84.4 m 0,-76.5 c -6.6,0 -13.1,3.2 -16.9,9.7 L 3.5,652.6 c -7.5,13 1.9,29.2 16.9,29.2 h 734.1 c 15,0 24.4,-16.2 16.9,-29.2 L 404,17.6 C 400.1,11.1 393.5,7.9 387,7.9 Z"
   id="path1875"
   inkscape:connector-curvature="0" />
</g><g
       id="g1883">
		<path
   d="m 708.3,607.1 c -23.9,5 -45.7,4.4 -63,-16 -1.2,-1.4 -3.8,-2.4 -5.7,-2.3 -9.6,0.5 -19.3,0.8 -28.8,2.3 -11.1,1.8 -20.5,6.7 -22.4,19.2 -2,13.3 1.7,24.8 13.3,32.7 12.9,8.8 27.7,9.9 42.7,11.3 12.9,1.2 26.3,2.3 38.2,6.9 26.8,10.4 43.4,38 41.7,64.9 -1.7,26.1 -25.4,54 -53.2,61.4 -25.5,6.9 -49.5,1.3 -69.6,-14.7 -16.7,-13.3 -31.3,-29.2 -45.9,-44.9 -10.8,-11.6 -19.9,-24.8 -30.1,-37 -3.6,-4.3 -7.9,-8 -12.4,-11.3 -18.2,-13.2 -43.5,-3.4 -48.4,18.5 -2.3,10.4 3,22.3 14.9,26.1 12.2,3.9 25.4,5.6 38.3,6.3 19.7,1 36.4,7.5 49.8,21.9 15.9,17.1 17.3,40.2 3.6,58 -15,19.5 -38.5,25.7 -58.8,14.6 -7.8,-4.3 -14,-11.2 -21.5,-16.3 -4.7,-3.2 -10.1,-6.7 -15.5,-7.3 -12.4,-1.3 -20.5,8.4 -18.5,20.7 1.2,7.3 3.4,14.5 4.7,21.9 3.5,19.6 -4.9,35.7 -22.3,42.4 -3.2,1.2 -6.8,1.3 -10.3,1.9 -0.6,-0.9 -1.3,-1.7 -1.9,-2.6 2.7,-3.4 5,-7.1 8.1,-10.1 14.3,-14 16.7,-24.3 9.4,-42.8 -0.5,-1.2 -1,-2.3 -1.5,-3.4 -9.3,-25.3 7.7,-46.1 34.5,-41.4 9,1.6 17.7,5.6 26.3,9 7.2,2.8 13.9,7.1 21.3,9.4 11,3.5 22.6,-3.2 26.7,-14.6 4.5,-12.3 1.3,-22.6 -11.2,-26.6 -13.8,-4.5 -28.4,-6.3 -42.7,-9.1 -6.4,-1.3 -12.8,-2.3 -19.3,-3.3 -33,-5.5 -44.6,-33.4 -37.2,-62.4 4.1,-16.2 12.8,-29.7 25.6,-40.4 26.3,-21.9 63.9,-15.9 87.2,13.7 14.8,18.9 29.3,38 44.9,56.2 12,13.9 25.9,26.2 44.1,32.1 12.4,4 25.1,0.3 32.9,-9.4 11,-13.7 8.3,-34.4 -7.4,-42.7 -9.6,-5.1 -21,-7.2 -31.8,-9.1 -10,-1.8 -20.6,-0.7 -30.7,-2.3 -29.2,-4.8 -50.8,-32 -53.4,-63.9 -2.8,-35.2 21,-55.3 42.4,-61.5 17.5,-5.1 35.1,-3.4 52.7,0 2.1,0.4 4.3,1 6.4,0.8 24.5,-2.5 44.2,7.5 55.8,28.6 7.5,12.8 2.3,13.7 -2,14.6 z"
   id="path1879"
   inkscape:connector-curvature="0" />
		<path
   d="m 775.9,822.9 c 23.5,15.1 18.8,40.4 26,60.8 0.5,1.4 -1.1,3.5 -1.7,5.3 -1.6,-1.6 -4.1,-2.9 -4.6,-4.7 -3,-11.4 -6.2,-22.9 -8,-34.5 -1.6,-10.4 -8,-16.1 -17.4,-21.8 0,2.9 -0.3,4.6 0,6.2 2.9,12.6 -1.6,22.7 -10.7,31 -7.9,7.2 -17.9,8.4 -25.9,3.7 -8.1,-4.8 -11.9,-15.7 -9.1,-26.4 2.8,-10.8 8.3,-17 20.8,-23.6 -13.6,-0.8 -15.6,0 -24,9.6 -7.4,8.5 -14.7,17 -22.2,25.3 -2,2.2 -4.8,3.8 -7.2,5.7 -0.7,-0.6 -1.5,-1.2 -2.2,-1.9 1.1,-2.2 1.7,-4.7 3.3,-6.5 4.7,-5.8 9.8,-11.3 14.7,-17 16.6,-18.9 16.6,-18.9 40,-24 -7.9,-6.2 -15.2,-9.5 -24.9,-5.4 -8.3,3.5 -17,6 -25.6,8.7 -2.6,0.8 -5.5,0.8 -8.6,-0.3 8.5,-9 21.1,-8.6 30.8,-14.2 11.5,-6.7 21.4,-0.2 32.8,3.3 -6,-14.2 -12.8,-19.1 -24.9,-19 -5.3,0 -10.6,0.6 -15.9,0.5 -3,-0.1 -6,-1.2 -9,-1.8 0,-0.8 0,-1.6 0,-2.5 1.8,-0.7 3.5,-1.5 5.3,-2 2.1,-0.5 4.3,-0.5 6.5,-0.8 17.6,-2.6 33.4,-0.9 42.6,18.6 0.9,-0.9 1.8,-1.7 2.7,-2.6 -3,-9.7 -5.4,-19.6 -9.2,-29 -3,-7.5 -7.7,-14.2 -11.2,-21.5 -0.7,-1.5 0.1,-3.8 0.2,-5.7 1.8,0.8 4.4,1.1 5.2,2.5 5.3,9.5 11.6,18.8 15,29 4.1,12.6 4.3,26.9 24,28 11.7,-13.5 29.1,-20.3 48.2,-23.2 0.7,1.4 1.4,2.8 2.1,4.1 -17.8,7.4 -38,10.9 -49.6,28.6 0.4,0.1 1.3,0.5 1.7,0.2 13.7,-8.7 24.9,-3.8 35.6,6.1 4.3,4 9.7,6.9 14.2,10.6 1.3,1 1.3,3.5 1.9,5.3 -1.9,-0.1 -4.3,0.5 -5.7,-0.5 -6.5,-4.2 -13.3,-8.3 -19,-13.6 -6.9,-6.4 -13.7,-7.3 -21.7,-2.9 -2.1,1.2 -4.6,1.9 -6.9,2.8 0.4,0.6 0.6,1.3 0.8,1.3 13.2,-2.6 20.5,3.4 25.2,15.5 3.7,9.5 9.2,18.3 13.6,27.6 0.9,1.8 0.2,4.4 0.2,6.6 -2,-1.3 -5,-2.1 -6,-4 -4.6,-8.1 -8.6,-16.6 -12.8,-24.9 -8,-15.9 -8,-15.9 -29.4,-12.6 z"
   id="path1881"
   inkscape:connector-curvature="0" />
	</g></g><polyline
     id="polyline1886"
     points="475.7,330.9 497.2,342 499.1,348.8 "
     class="st1"
     style="fill:none;stroke:#000000;stroke-width:2;stroke-linecap:round;stroke-miterlimit:10" /><line
     id="line1888"
     y2="342"
     x2="497.20001"
     y1="339.89999"
     x1="503"
     class="st1"
     style="fill:none;stroke:#000000;stroke-width:2;stroke-linecap:round;stroke-miterlimit:10" /></g>
</svg>