<?xml version="1.0" encoding="utf-8"?>
<!-- Generator: Adobe Illustrator 24.1.0, SVG Export Plug-In . SVG Version: 6.00 Build 0)  -->
<svg version="1.1"
	 id="svg8" inkscape:export-filename="/media/juhele/data_2TB/_GRAFIKA/GHS hazard symbols/GHS06_toxic_substances.png" inkscape:export-xdpi="99.027519" inkscape:export-ydpi="99.027519" inkscape:version="0.92.3 (unknown)" sodipodi:docname="GHS06_toxic_substances.svg" xmlns:cc="http://creativecommons.org/ns#" xmlns:dc="http://purl.org/dc/elements/1.1/" xmlns:inkscape="http://www.inkscape.org/namespaces/inkscape" xmlns:rdf="http://www.w3.org/1999/02/22-rdf-syntax-ns#" xmlns:sodipodi="http://sodipodi.sourceforge.net/DTD/sodipodi-0.dtd" xmlns:svg="http://www.w3.org/2000/svg"
	 xmlns="http://www.w3.org/2000/svg" xmlns:xlink="http://www.w3.org/1999/xlink" x="0px" y="0px" viewBox="0 0 775.6 775.5"
	 style="enable-background:new 0 0 775.6 775.5;" xml:space="preserve">
<style type="text/css">
	.st0{fill:#FFEB1D;}
</style>
<g>
	<polygon class="st0" points="28.2,657.8 387,36.4 746.6,657.8 	"/>
	<path d="M411.7,41.6L411.7,41.6L411.7,41.6 M387,84.4l318,549.4H69.8L387,84.4 M387,7.9c-6.6,0-13.1,3.2-16.9,9.7L3.5,652.6
		c-7.5,13,1.9,29.2,16.9,29.2h734.1c15,0,24.4-16.2,16.9-29.2L404,17.6C400.1,11.1,393.5,7.9,387,7.9L387,7.9z"/>
</g>
<g id="path823">
	<path d="M486.8,470H246.2v4.4h233.2C481.8,472.6,484.2,471.2,486.8,470z"/>
</g>
<g>
	<path d="M574.6,590.7h-24l12.3-16.4l-43.6-4l31.7-15.2L518,531.3c-2.9,5-9.3,7.3-14.2,9.9c-9.1,4.8-18.7,8.4-28.6,11.3
		c-9.6,2.9-19.3,5.1-28.3,9.5c-1.6,2-3.2,4.1-4.6,6.3c-2.2,3.5-3.8,7.3-6.3,10.6c-0.6,0.8-1.2,1.7-1.8,2.4c0.1,3.2-1.9,6.5-6.1,6.5
		c-2,0-3.5-0.7-4.5-1.9c-14.6-2-26.1-11.8-39.1-17.8c-0.5-0.2-0.9-0.5-1.2-0.7c-5.4,2.2-11.9,4.8-19.6,8
		c-22.1,9.2-45.4,19.1-52.6,22.3c-11.4-5.5-58.6,8.2-64.1,9.8l0.5,3.4l326.1,1.7l1.8,0L574.6,590.7z"/>
	<path d="M267.8,399.1c-7,5.1-13.5,10.6-13.6,10.6l1.6,3c0.2-0.1,4.9-1.3,8.5-2.4c9.2-2.7,15.6,1.4,15.9,1.6l46.6,25.3l-1.8,92.6
		l-37.4,21.9l1,3.2l44.3-4.1l17.1,14.6l12.6-18.3l48.9-7.1l0.5-3.3l-39.8-19.9v-63c3.3-3.8,24.7-28.2,30.1-34.2
		c5.4-6,19.6-6.6,19.7-6.7l0.9,0l32.2-49.9l-2.8-2.1c-0.2,0.2-20.4,22.7-28.6,29.8c-6.4,5.5-15.3,5.7-23.2,5.9
		c-1.8,0.1-3.5,0.1-5.1,0.2l-0.2,0c-6,1.2-15.9,10.7-22.6,17.8c1.8-4,4-9.1,6.6-14.8c6.4-13.9,5.2-20.5,3.5-29.7l-0.4-2
		c-1.2-6.8,20.8-37.7,35-55.5l0.4-0.5v-10.1l-38.4,44.3l-6.3-46.2h-7.6l0.1,1.8c0.1,1.8,1.8,44.6,3,54.1c1,8.3,0.7,20,0.6,22.6
		l-20.9,30.1c-3.5-13.1-15.2-56.7-18.9-66c-3.9-10.2,1.9-44.3,1.9-44.6l0.5-2.6l-8.4,2l-6.9,22l-22.4-34.5l-5.6,4.5l0.6,1.3
		c0.1,0.1,7.3,14.6,16.8,30.7c7.4,12.5,7.7,32.4,7.6,39.8l-47.5-28.8V343l0.7,0.5c0.3,0.3,34.8,27.6,43.7,34.7
		c6.5,5.2,10.1,21,11.4,27.9c-8.4-4-31.4-15-35.4-16.5C284.6,388.9,280.9,389.5,267.8,399.1z"/>
</g>
<path d="M431.2,591.8l-64-28.2l-0.1-3.5l2.2-0.1c1.6-0.1,15.5-0.7,21.9-3.4l0,0c10.9-4.5,29.2-12.2,39.8-27.4
	c0.9-1.4,2.1-3.1,3.4-5.1c14.5-21.7,52.8-79.4,104.1-74.3l2.9,0.3l-1.1,2.7c-2,4.8-6.7,12.9-9.8,18.2l36.2-11.2l0,2.9
	c0,0.5,0,13.6-9.2,30.9c-15.3,28.6-43.9,46-65.2,55.5l-0.2,0.1c-12,4.2-20.7,7-27,9.1c-11,3.5-14.7,4.7-16.2,6.9
	c-2.9,4.1-16.5,24.9-16.7,25.1L431.2,591.8z M378.1,563.6l51.4,22.7c3.2-5,13.2-20.1,15.7-23.7c2.4-3.3,6.1-4.5,18.4-8.5
	c6.3-2,14.9-4.8,26.9-9c20.6-9.2,48.2-25.9,63-53.3c6.3-11.7,8.1-21.4,8.6-26.1l-41.4,12.7l3-4.9c0.1-0.1,7.4-12.1,11.1-19.7
	c-0.9,0-1.9-0.1-2.8-0.1c-45.7,0-80.6,52.4-94.1,72.7c-1.4,2-2.5,3.8-3.5,5.1c-11.3,16.3-30.3,24.2-41.7,28.9
	C389,562.1,383.1,563.1,378.1,563.6z"/>
<g id="ellipse831">
	<ellipse cx="535" cy="492.8" rx="6.6" ry="5.7"/>
</g>
</svg>
