<?xml version="1.0" encoding="UTF-8" standalone="no"?>
<!-- Generator: Adobe Illustrator 24.1.0, SVG Export Plug-In . SVG Version: 6.00 Build 0)  -->

<svg
   xmlns:dc="http://purl.org/dc/elements/1.1/"
   xmlns:cc="http://creativecommons.org/ns#"
   xmlns:rdf="http://www.w3.org/1999/02/22-rdf-syntax-ns#"
   xmlns:svg="http://www.w3.org/2000/svg"
   xmlns="http://www.w3.org/2000/svg"
   xmlns:sodipodi="http://sodipodi.sourceforge.net/DTD/sodipodi-0.dtd"
   xmlns:inkscape="http://www.inkscape.org/namespaces/inkscape"
   version="1.1"
   id="svg8"
   inkscape:export-filename="/media/juhele/data_2TB/_GRAFIKA/GHS hazard symbols/GHS06_toxic_substances.png"
   inkscape:export-xdpi="99.027519"
   inkscape:export-ydpi="99.027519"
   inkscape:version="0.92.5 (2060ec1f9f, 2020-04-08)"
   sodipodi:docname="121.svg"
   x="0px"
   y="0px"
   viewBox="0 0 125 125"
   xml:space="preserve"
   width="125"
   height="125"><metadata
   id="metadata1990"><rdf:RDF><cc:Work
       rdf:about=""><dc:format>image/svg+xml</dc:format><dc:type
         rdf:resource="http://purl.org/dc/dcmitype/StillImage" /><dc:title></dc:title></cc:Work></rdf:RDF></metadata><defs
   id="defs1988" /><sodipodi:namedview
   pagecolor="#ffffff"
   bordercolor="#666666"
   borderopacity="1"
   objecttolerance="10"
   gridtolerance="10"
   guidetolerance="10"
   inkscape:pageopacity="0"
   inkscape:pageshadow="2"
   inkscape:window-width="1920"
   inkscape:window-height="1017"
   id="namedview1986"
   showgrid="false"
   inkscape:zoom="1.0934881"
   inkscape:cx="387.79999"
   inkscape:cy="387.75"
   inkscape:window-x="-8"
   inkscape:window-y="-8"
   inkscape:window-maximized="1"
   inkscape:current-layer="svg8" />
<style
   type="text/css"
   id="style1963">
	.st0{fill:#FFEB1D;}
</style>




<g
   id="g2003"
   transform="matrix(0.08406927,0,0,0.08406927,29.927361,33.508712)"><g
     id="g1969">
	<polygon
   id="polygon1965"
   points="387,36.4 746.6,657.8 28.2,657.8 "
   class="st0"
   style="fill:#ffeb1d" />
	<path
   id="path1967"
   d="m 411.7,41.6 v 0 0 M 387,84.4 705,633.8 H 69.8 L 387,84.4 m 0,-76.5 c -6.6,0 -13.1,3.2 -16.9,9.7 L 3.5,652.6 c -7.5,13 1.9,29.2 16.9,29.2 h 734.1 c 15,0 24.4,-16.2 16.9,-29.2 L 404,17.6 C 400.1,11.1 393.5,7.9 387,7.9 Z"
   inkscape:connector-curvature="0" />
</g><g
     id="path823">
	<path
   id="path1971"
   d="M 486.8,470 H 246.2 v 4.4 h 233.2 c 2.4,-1.8 4.8,-3.2 7.4,-4.4 z"
   inkscape:connector-curvature="0" />
</g><g
     id="g1978">
	<path
   id="path1974"
   d="m 574.6,590.7 h -24 l 12.3,-16.4 -43.6,-4 31.7,-15.2 -33,-23.8 c -2.9,5 -9.3,7.3 -14.2,9.9 -9.1,4.8 -18.7,8.4 -28.6,11.3 -9.6,2.9 -19.3,5.1 -28.3,9.5 -1.6,2 -3.2,4.1 -4.6,6.3 -2.2,3.5 -3.8,7.3 -6.3,10.6 -0.6,0.8 -1.2,1.7 -1.8,2.4 0.1,3.2 -1.9,6.5 -6.1,6.5 -2,0 -3.5,-0.7 -4.5,-1.9 -14.6,-2 -26.1,-11.8 -39.1,-17.8 -0.5,-0.2 -0.9,-0.5 -1.2,-0.7 -5.4,2.2 -11.9,4.8 -19.6,8 -22.1,9.2 -45.4,19.1 -52.6,22.3 -11.4,-5.5 -58.6,8.2 -64.1,9.8 l 0.5,3.4 326.1,1.7 h 1.8 z"
   inkscape:connector-curvature="0" />
	<path
   id="path1976"
   d="m 267.8,399.1 c -7,5.1 -13.5,10.6 -13.6,10.6 l 1.6,3 c 0.2,-0.1 4.9,-1.3 8.5,-2.4 9.2,-2.7 15.6,1.4 15.9,1.6 l 46.6,25.3 -1.8,92.6 -37.4,21.9 1,3.2 44.3,-4.1 17.1,14.6 12.6,-18.3 48.9,-7.1 0.5,-3.3 -39.8,-19.9 v -63 c 3.3,-3.8 24.7,-28.2 30.1,-34.2 5.4,-6 19.6,-6.6 19.7,-6.7 h 0.9 l 32.2,-49.9 -2.8,-2.1 c -0.2,0.2 -20.4,22.7 -28.6,29.8 -6.4,5.5 -15.3,5.7 -23.2,5.9 -1.8,0.1 -3.5,0.1 -5.1,0.2 h -0.2 c -6,1.2 -15.9,10.7 -22.6,17.8 1.8,-4 4,-9.1 6.6,-14.8 6.4,-13.9 5.2,-20.5 3.5,-29.7 l -0.4,-2 c -1.2,-6.8 20.8,-37.7 35,-55.5 l 0.4,-0.5 V 302 l -38.4,44.3 -6.3,-46.2 h -7.6 l 0.1,1.8 c 0.1,1.8 1.8,44.6 3,54.1 1,8.3 0.7,20 0.6,22.6 l -20.9,30.1 c -3.5,-13.1 -15.2,-56.7 -18.9,-66 -3.9,-10.2 1.9,-44.3 1.9,-44.6 l 0.5,-2.6 -8.4,2 -6.9,22 -22.4,-34.5 -5.6,4.5 0.6,1.3 c 0.1,0.1 7.3,14.6 16.8,30.7 7.4,12.5 7.7,32.4 7.6,39.8 L 265.9,332.5 V 343 l 0.7,0.5 c 0.3,0.3 34.8,27.6 43.7,34.7 6.5,5.2 10.1,21 11.4,27.9 -8.4,-4 -31.4,-15 -35.4,-16.5 -1.7,-0.7 -5.4,-0.1 -18.5,9.5 z"
   inkscape:connector-curvature="0" />
</g><path
     id="path1980"
     d="m 431.2,591.8 -64,-28.2 -0.1,-3.5 2.2,-0.1 c 1.6,-0.1 15.5,-0.7 21.9,-3.4 v 0 c 10.9,-4.5 29.2,-12.2 39.8,-27.4 0.9,-1.4 2.1,-3.1 3.4,-5.1 14.5,-21.7 52.8,-79.4 104.1,-74.3 l 2.9,0.3 -1.1,2.7 c -2,4.8 -6.7,12.9 -9.8,18.2 l 36.2,-11.2 v 2.9 c 0,0.5 0,13.6 -9.2,30.9 -15.3,28.6 -43.9,46 -65.2,55.5 l -0.2,0.1 c -12,4.2 -20.7,7 -27,9.1 -11,3.5 -14.7,4.7 -16.2,6.9 -2.9,4.1 -16.5,24.9 -16.7,25.1 z m -53.1,-28.2 51.4,22.7 c 3.2,-5 13.2,-20.1 15.7,-23.7 2.4,-3.3 6.1,-4.5 18.4,-8.5 6.3,-2 14.9,-4.8 26.9,-9 20.6,-9.2 48.2,-25.9 63,-53.3 6.3,-11.7 8.1,-21.4 8.6,-26.1 l -41.4,12.7 3,-4.9 c 0.1,-0.1 7.4,-12.1 11.1,-19.7 -0.9,0 -1.9,-0.1 -2.8,-0.1 -45.7,0 -80.6,52.4 -94.1,72.7 -1.4,2 -2.5,3.8 -3.5,5.1 -11.3,16.3 -30.3,24.2 -41.7,28.9 -3.7,1.7 -9.6,2.7 -14.6,3.2 z"
     inkscape:connector-curvature="0" /><g
     id="ellipse831">
	<ellipse
   id="ellipse1982"
   ry="5.6999998"
   rx="6.5999999"
   cy="492.79999"
   cx="535" />
</g></g>
</svg>