<?xml version="1.0" encoding="utf-8"?>
<!-- Generator: Adobe Illustrator 24.1.0, SVG Export Plug-In . SVG Version: 6.00 Build 0)  -->
<svg version="1.1"
	 id="svg8" inkscape:export-filename="/media/juhele/data_2TB/_GRAFIKA/GHS hazard symbols/GHS06_toxic_substances.png" inkscape:export-xdpi="99.027519" inkscape:export-ydpi="99.027519" inkscape:version="0.92.3 (unknown)" sodipodi:docname="GHS06_toxic_substances.svg" xmlns:cc="http://creativecommons.org/ns#" xmlns:dc="http://purl.org/dc/elements/1.1/" xmlns:inkscape="http://www.inkscape.org/namespaces/inkscape" xmlns:rdf="http://www.w3.org/1999/02/22-rdf-syntax-ns#" xmlns:sodipodi="http://sodipodi.sourceforge.net/DTD/sodipodi-0.dtd" xmlns:svg="http://www.w3.org/2000/svg"
	 xmlns="http://www.w3.org/2000/svg" xmlns:xlink="http://www.w3.org/1999/xlink" x="0px" y="0px" viewBox="0 0 775.6 775.5"
	 style="enable-background:new 0 0 775.6 775.5;" xml:space="preserve">
<style type="text/css">
	.st0{fill:#FFEB1D;}
	.st1{fill:none;stroke:#FF1AAD;stroke-width:22;stroke-linecap:round;stroke-linejoin:round;stroke-miterlimit:10;}
</style>
<g>
	<polygon class="st0" points="28.2,657.8 387,36.4 746.6,657.8 	"/>
	<path d="M411.7,41.6L411.7,41.6L411.7,41.6 M387,84.4l318,549.4H69.8L387,84.4 M387,7.9c-6.6,0-13.1,3.2-16.9,9.7L3.5,652.6
		c-7.5,13,1.9,29.2,16.9,29.2h734.1c15,0,24.4-16.2,16.9-29.2L404,17.6C400.1,11.1,393.5,7.9,387,7.9L387,7.9z"/>
</g>
<rect x="140.1" y="589.3" width="497.8" height="26.1"/>
<g>
	<path d="M503.4,334.7c-5.6-2.4-12,0.2-14.4,5.8l-20.2,47.7l-46.9,16.2l-42.4-18.6l-45.2-28.4L314,300.8c-2.1-5.7-8.4-8.7-14.1-6.6
		c-5.7,2.1-8.7,8.3-6.6,14.1l21.5,59.9c0.8,2.2,2.2,4.1,4.1,5.4l50.7,34.8l-29.1,66.4l-68.2-3.3c-1.7-0.1-3.3,0.2-4.9,0.9l-69.7,30
		c-5.6,2.4-8.2,8.9-5.8,14.5c2.4,5.6,8.9,8.2,14.5,5.8l67.4-29l66,3.2l5.9,2.6l-45.5,15c-1.1,0.3-2,0.9-2.9,1.5l-61.9,44.3
		c-4.9,3.5-6.1,10.4-2.5,15.3c2.1,3,5.5,4.6,9,4.6c2.2,0,4.5-0.7,6.4-2.1l60.5-43.3l71.1-23.5c4.1-1.4,7-5,7.5-9.2l32.2-73.3
		l61.2-21.2c2.9-1,5.3-3.2,6.5-6.1l22.2-52.2C511.6,343.6,509,337.1,503.4,334.7z"/>
	<ellipse transform="matrix(0.3827 -0.9239 0.9239 0.3827 -88.5203 609.2855)" cx="411.7" cy="370.9" rx="23.8" ry="23.8"/>
</g>
</svg>
