<?xml version="1.0" encoding="UTF-8" standalone="no"?>
<!-- Generator: Adobe Illustrator 24.1.0, SVG Export Plug-In . SVG Version: 6.00 Build 0)  -->

<svg
   xmlns:dc="http://purl.org/dc/elements/1.1/"
   xmlns:cc="http://creativecommons.org/ns#"
   xmlns:rdf="http://www.w3.org/1999/02/22-rdf-syntax-ns#"
   xmlns:svg="http://www.w3.org/2000/svg"
   xmlns="http://www.w3.org/2000/svg"
   xmlns:sodipodi="http://sodipodi.sourceforge.net/DTD/sodipodi-0.dtd"
   xmlns:inkscape="http://www.inkscape.org/namespaces/inkscape"
   version="1.1"
   id="svg8"
   inkscape:export-filename="/media/juhele/data_2TB/_GRAFIKA/GHS hazard symbols/GHS06_toxic_substances.png"
   inkscape:export-xdpi="99.027519"
   inkscape:export-ydpi="99.027519"
   inkscape:version="0.92.5 (2060ec1f9f, 2020-04-08)"
   sodipodi:docname="122.svg"
   x="0px"
   y="0px"
   viewBox="0 0 125 125"
   xml:space="preserve"
   width="125"
   height="125"><metadata
   id="metadata2080"><rdf:RDF><cc:Work
       rdf:about=""><dc:format>image/svg+xml</dc:format><dc:type
         rdf:resource="http://purl.org/dc/dcmitype/StillImage" /><dc:title></dc:title></cc:Work></rdf:RDF></metadata><defs
   id="defs2078" /><sodipodi:namedview
   pagecolor="#ffffff"
   bordercolor="#666666"
   borderopacity="1"
   objecttolerance="10"
   gridtolerance="10"
   guidetolerance="10"
   inkscape:pageopacity="0"
   inkscape:pageshadow="2"
   inkscape:window-width="1920"
   inkscape:window-height="1017"
   id="namedview2076"
   showgrid="false"
   inkscape:zoom="1.0934881"
   inkscape:cx="387.79999"
   inkscape:cy="387.75"
   inkscape:window-x="-8"
   inkscape:window-y="-8"
   inkscape:window-maximized="1"
   inkscape:current-layer="svg8" />
<style
   type="text/css"
   id="style2059">
	.st0{fill:#FFEB1D;}
	.st1{fill:none;stroke:#FF1AAD;stroke-width:22;stroke-linecap:round;stroke-linejoin:round;stroke-miterlimit:10;}
</style>


<g
   id="g2089"
   transform="matrix(0.08406927,0,0,0.08406927,29.927361,33.508712)"><g
     id="g2065">
	<polygon
   id="polygon2061"
   points="387,36.4 746.6,657.8 28.2,657.8 "
   class="st0"
   style="fill:#ffeb1d" />
	<path
   id="path2063"
   d="m 411.7,41.6 v 0 0 M 387,84.4 705,633.8 H 69.8 L 387,84.4 m 0,-76.5 c -6.6,0 -13.1,3.2 -16.9,9.7 L 3.5,652.6 c -7.5,13 1.9,29.2 16.9,29.2 h 734.1 c 15,0 24.4,-16.2 16.9,-29.2 L 404,17.6 C 400.1,11.1 393.5,7.9 387,7.9 Z"
   inkscape:connector-curvature="0" />
</g><rect
     id="rect2067"
     height="26.1"
     width="497.79999"
     y="589.29999"
     x="140.10001" /><g
     id="g2073">
	<path
   id="path2069"
   d="m 503.4,334.7 c -5.6,-2.4 -12,0.2 -14.4,5.8 l -20.2,47.7 -46.9,16.2 -42.4,-18.6 -45.2,-28.4 -20.3,-56.6 c -2.1,-5.7 -8.4,-8.7 -14.1,-6.6 -5.7,2.1 -8.7,8.3 -6.6,14.1 l 21.5,59.9 c 0.8,2.2 2.2,4.1 4.1,5.4 l 50.7,34.8 -29.1,66.4 -68.2,-3.3 c -1.7,-0.1 -3.3,0.2 -4.9,0.9 l -69.7,30 c -5.6,2.4 -8.2,8.9 -5.8,14.5 2.4,5.6 8.9,8.2 14.5,5.8 l 67.4,-29 66,3.2 5.9,2.6 -45.5,15 c -1.1,0.3 -2,0.9 -2.9,1.5 l -61.9,44.3 c -4.9,3.5 -6.1,10.4 -2.5,15.3 2.1,3 5.5,4.6 9,4.6 2.2,0 4.5,-0.7 6.4,-2.1 l 60.5,-43.3 71.1,-23.5 c 4.1,-1.4 7,-5 7.5,-9.2 l 32.2,-73.3 61.2,-21.2 c 2.9,-1 5.3,-3.2 6.5,-6.1 l 22.2,-52.2 c 2.1,-5.7 -0.5,-12.2 -6.1,-14.6 z"
   inkscape:connector-curvature="0" />
	<circle
   id="ellipse2071"
   cy="370.89999"
   cx="411.70001"
   transform="matrix(0.3827,-0.9239,0.9239,0.3827,-88.5203,609.2855)"
   r="23.799999" />
</g></g>
</svg>