<?xml version="1.0" encoding="utf-8"?>
<!-- Generator: Adobe Illustrator 24.1.0, SVG Export Plug-In . SVG Version: 6.00 Build 0)  -->
<svg version="1.1"
	 id="svg8" inkscape:export-filename="/media/juhele/data_2TB/_GRAFIKA/GHS hazard symbols/GHS06_toxic_substances.png" inkscape:export-xdpi="99.027519" inkscape:export-ydpi="99.027519" inkscape:version="0.92.3 (unknown)" sodipodi:docname="GHS06_toxic_substances.svg" xmlns:cc="http://creativecommons.org/ns#" xmlns:dc="http://purl.org/dc/elements/1.1/" xmlns:inkscape="http://www.inkscape.org/namespaces/inkscape" xmlns:rdf="http://www.w3.org/1999/02/22-rdf-syntax-ns#" xmlns:sodipodi="http://sodipodi.sourceforge.net/DTD/sodipodi-0.dtd" xmlns:svg="http://www.w3.org/2000/svg"
	 xmlns="http://www.w3.org/2000/svg" xmlns:xlink="http://www.w3.org/1999/xlink" x="0px" y="0px" viewBox="0 0 775.6 775.5"
	 style="enable-background:new 0 0 775.6 775.5;" xml:space="preserve">
<style type="text/css">
	.st0{fill:#FFEB1D;}
	.st1{fill:none;stroke:#FF1AAD;stroke-width:22;stroke-linecap:round;stroke-linejoin:round;stroke-miterlimit:10;}
</style>
<g>
	<polygon class="st0" points="28.2,657.8 387,36.4 746.6,657.8 	"/>
	<path d="M411.7,41.6L411.7,41.6L411.7,41.6 M387,84.4l318,549.4H69.8L387,84.4 M387,7.9c-6.6,0-13.1,3.2-16.9,9.7L3.5,652.6
		c-7.5,13,1.9,29.2,16.9,29.2h734.1c15,0,24.4-16.2,16.9-29.2L404,17.6C400.1,11.1,393.5,7.9,387,7.9L387,7.9z"/>
</g>
<g>
	<path d="M409.9,269.1c0-29-17.5-30.2-17.5-30.2v-21.4c7.1-2.9,12.1-9.8,12.1-17.9c0-8.1-5-15.1-12.1-17.9v-11.4h5.2v-26.9h-26.9
		v26.9h7.5v11.4c-7.2,2.8-12.3,9.8-12.3,18c0,8.2,5.1,15.2,12.3,18v21.3h0c0,0,0,0,0.4,4.2c0.4,4.2,26.5,26,6.7,26
		c-19.8,0-19.4-19.3-19.4-19.3c-11.5,23.2-0.2,34.5,7.2,39.1l-87.4,132.7l-49.2,18.6v73.7l36.6,20.8l100.5-34.1v-83.4l-26.5-18.7
		l-46.6,17.6L373.6,305v112.1l9.3,6.5V292c2.3,0.2,5.4,0.2,8.6-0.3l64.6,183.6l12.3,8.5l-68.1-195.1
		C405.7,285.6,409.9,279.8,409.9,269.1z"/>
	<polygon points="382.9,507.1 283.9,540.7 364.4,586.5 459.1,547.5 459.1,477.3 382.9,423.6 	"/>
	<polygon points="468.3,483.8 468.3,553.7 374.6,592.3 404.5,609.3 506.6,572.4 506.6,510.8 	"/>
</g>
</svg>
