<?xml version="1.0" encoding="UTF-8" standalone="no"?>
<!-- Generator: Adobe Illustrator 24.1.0, SVG Export Plug-In . SVG Version: 6.00 Build 0)  -->

<svg
   xmlns:dc="http://purl.org/dc/elements/1.1/"
   xmlns:cc="http://creativecommons.org/ns#"
   xmlns:rdf="http://www.w3.org/1999/02/22-rdf-syntax-ns#"
   xmlns:svg="http://www.w3.org/2000/svg"
   xmlns="http://www.w3.org/2000/svg"
   xmlns:sodipodi="http://sodipodi.sourceforge.net/DTD/sodipodi-0.dtd"
   xmlns:inkscape="http://www.inkscape.org/namespaces/inkscape"
   version="1.1"
   id="svg8"
   inkscape:export-filename="/media/juhele/data_2TB/_GRAFIKA/GHS hazard symbols/GHS06_toxic_substances.png"
   inkscape:export-xdpi="99.027519"
   inkscape:export-ydpi="99.027519"
   inkscape:version="0.92.5 (2060ec1f9f, 2020-04-08)"
   sodipodi:docname="123.svg"
   x="0px"
   y="0px"
   viewBox="0 0 125 125"
   xml:space="preserve"
   width="125"
   height="125"><metadata
   id="metadata2143"><rdf:RDF><cc:Work
       rdf:about=""><dc:format>image/svg+xml</dc:format><dc:type
         rdf:resource="http://purl.org/dc/dcmitype/StillImage" /><dc:title></dc:title></cc:Work></rdf:RDF></metadata><defs
   id="defs2141" /><sodipodi:namedview
   pagecolor="#ffffff"
   bordercolor="#666666"
   borderopacity="1"
   objecttolerance="10"
   gridtolerance="10"
   guidetolerance="10"
   inkscape:pageopacity="0"
   inkscape:pageshadow="2"
   inkscape:window-width="1920"
   inkscape:window-height="1017"
   id="namedview2139"
   showgrid="false"
   inkscape:zoom="1.0934881"
   inkscape:cx="387.79999"
   inkscape:cy="387.75"
   inkscape:window-x="-8"
   inkscape:window-y="-8"
   inkscape:window-maximized="1"
   inkscape:current-layer="svg8" />
<style
   type="text/css"
   id="style2122">
	.st0{fill:#FFEB1D;}
	.st1{fill:none;stroke:#FF1AAD;stroke-width:22;stroke-linecap:round;stroke-linejoin:round;stroke-miterlimit:10;}
</style>

<g
   id="g2152"
   transform="matrix(0.08406927,0,0,0.08406927,29.927361,33.508712)"><g
     id="g2128">
	<polygon
   id="polygon2124"
   points="387,36.4 746.6,657.8 28.2,657.8 "
   class="st0"
   style="fill:#ffeb1d" />
	<path
   id="path2126"
   d="m 411.7,41.6 v 0 0 M 387,84.4 705,633.8 H 69.8 L 387,84.4 m 0,-76.5 c -6.6,0 -13.1,3.2 -16.9,9.7 L 3.5,652.6 c -7.5,13 1.9,29.2 16.9,29.2 h 734.1 c 15,0 24.4,-16.2 16.9,-29.2 L 404,17.6 C 400.1,11.1 393.5,7.9 387,7.9 Z"
   inkscape:connector-curvature="0" />
</g><g
     id="g2136">
	<path
   id="path2130"
   d="m 409.9,269.1 c 0,-29 -17.5,-30.2 -17.5,-30.2 v -21.4 c 7.1,-2.9 12.1,-9.8 12.1,-17.9 0,-8.1 -5,-15.1 -12.1,-17.9 v -11.4 h 5.2 v -26.9 h -26.9 v 26.9 h 7.5 v 11.4 c -7.2,2.8 -12.3,9.8 -12.3,18 0,8.2 5.1,15.2 12.3,18 v 21.3 0 c 0,0 0,0 0.4,4.2 0.4,4.2 26.5,26 6.7,26 -19.8,0 -19.4,-19.3 -19.4,-19.3 -11.5,23.2 -0.2,34.5 7.2,39.1 l -87.4,132.7 -49.2,18.6 V 514 l 36.6,20.8 100.5,-34.1 V 417.3 L 347.1,398.6 300.5,416.2 373.6,305 v 112.1 l 9.3,6.5 V 292 c 2.3,0.2 5.4,0.2 8.6,-0.3 l 64.6,183.6 12.3,8.5 -68.1,-195.1 c 5.4,-3.1 9.6,-8.9 9.6,-19.6 z"
   inkscape:connector-curvature="0" />
	<polygon
   id="polygon2132"
   points="283.9,540.7 364.4,586.5 459.1,547.5 459.1,477.3 382.9,423.6 382.9,507.1 " />
	<polygon
   id="polygon2134"
   points="468.3,553.7 374.6,592.3 404.5,609.3 506.6,572.4 506.6,510.8 468.3,483.8 " />
</g></g>
</svg>