<?xml version="1.0" encoding="utf-8"?>
<!-- Generator: Adobe Illustrator 24.1.0, SVG Export Plug-In . SVG Version: 6.00 Build 0)  -->
<svg version="1.1"
	 id="svg8" inkscape:export-filename="/media/juhele/data_2TB/_GRAFIKA/GHS hazard symbols/GHS06_toxic_substances.png" inkscape:export-xdpi="99.027519" inkscape:export-ydpi="99.027519" inkscape:version="0.92.3 (unknown)" sodipodi:docname="GHS06_toxic_substances.svg" xmlns:cc="http://creativecommons.org/ns#" xmlns:dc="http://purl.org/dc/elements/1.1/" xmlns:inkscape="http://www.inkscape.org/namespaces/inkscape" xmlns:rdf="http://www.w3.org/1999/02/22-rdf-syntax-ns#" xmlns:sodipodi="http://sodipodi.sourceforge.net/DTD/sodipodi-0.dtd" xmlns:svg="http://www.w3.org/2000/svg"
	 xmlns="http://www.w3.org/2000/svg" xmlns:xlink="http://www.w3.org/1999/xlink" x="0px" y="0px" viewBox="0 0 775.6 775.5"
	 style="enable-background:new 0 0 775.6 775.5;" xml:space="preserve">
<style type="text/css">
	.st0{fill:#FFEB1D;}
</style>
<g>
	<polygon class="st0" points="28.2,657.8 387,36.4 746.6,657.8 	"/>
	<path d="M411.7,41.6L411.7,41.6L411.7,41.6 M387,84.4l318,549.4H69.8L387,84.4 M387,7.9c-6.6,0-13.1,3.2-16.9,9.7L3.5,652.6
		c-7.5,13,1.9,29.2,16.9,29.2h734.1c15,0,24.4-16.2,16.9-29.2L404,17.6C400.1,11.1,393.5,7.9,387,7.9L387,7.9z"/>
</g>
<g>
	<path d="M321.5,545.4l-18-13.4c1.5-1.8,37-45.7-4.2-103.8c-26.5-37.3-25-70.9-19.1-92.6c6.4-23.5,19.3-38.2,19.8-38.8l17.7,13.8
		c-1.7,1.9-40.5,47.7,0.7,105.7c26.4,37.1,26,70.1,21,91.2C334,530.5,322,544.8,321.5,545.4z"/>
</g>
<g>
	<path d="M402.1,545.4l-18-13.4c1.5-1.8,37-45.7-4.2-103.8c-26.5-37.3-25-70.9-19.1-92.6c6.4-23.5,19.3-38.2,19.8-38.8l17.7,13.8
		c-1.7,1.9-40.5,47.7,0.7,105.7c26.4,37.1,26,70.1,21,91.2C414.6,530.5,402.6,544.8,402.1,545.4z"/>
</g>
<g>
	<path d="M483,545.4L465,532c1.5-1.8,37-45.7-4.2-103.8c-26.5-37.3-25-70.9-19.1-92.6c6.4-23.5,19.3-38.2,19.8-38.8l17.7,13.8
		c-1.7,1.9-40.5,47.7,0.7,105.7c26.4,37.1,26,70.1,21,91.2C495.5,530.5,483.5,544.8,483,545.4z"/>
</g>
<g>
	<rect x="227.1" y="567.3" width="325.8" height="29.1"/>
</g>
</svg>
