<?xml version="1.0" encoding="UTF-8" standalone="no"?>
<!-- Generator: Adobe Illustrator 24.1.0, SVG Export Plug-In . SVG Version: 6.00 Build 0)  -->

<svg
   xmlns:dc="http://purl.org/dc/elements/1.1/"
   xmlns:cc="http://creativecommons.org/ns#"
   xmlns:rdf="http://www.w3.org/1999/02/22-rdf-syntax-ns#"
   xmlns:svg="http://www.w3.org/2000/svg"
   xmlns="http://www.w3.org/2000/svg"
   xmlns:sodipodi="http://sodipodi.sourceforge.net/DTD/sodipodi-0.dtd"
   xmlns:inkscape="http://www.inkscape.org/namespaces/inkscape"
   version="1.1"
   id="svg8"
   inkscape:export-filename="/media/juhele/data_2TB/_GRAFIKA/GHS hazard symbols/GHS06_toxic_substances.png"
   inkscape:export-xdpi="99.027519"
   inkscape:export-ydpi="99.027519"
   inkscape:version="0.92.5 (2060ec1f9f, 2020-04-08)"
   sodipodi:docname="124.svg"
   x="0px"
   y="0px"
   viewBox="0 0 125 125"
   xml:space="preserve"
   width="125"
   height="125"><metadata
   id="metadata2222"><rdf:RDF><cc:Work
       rdf:about=""><dc:format>image/svg+xml</dc:format><dc:type
         rdf:resource="http://purl.org/dc/dcmitype/StillImage" /><dc:title></dc:title></cc:Work></rdf:RDF></metadata><defs
   id="defs2220" /><sodipodi:namedview
   pagecolor="#ffffff"
   bordercolor="#666666"
   borderopacity="1"
   objecttolerance="10"
   gridtolerance="10"
   guidetolerance="10"
   inkscape:pageopacity="0"
   inkscape:pageshadow="2"
   inkscape:window-width="1920"
   inkscape:window-height="1017"
   id="namedview2218"
   showgrid="false"
   inkscape:zoom="1.0934881"
   inkscape:cx="387.79999"
   inkscape:cy="387.75"
   inkscape:window-x="-8"
   inkscape:window-y="-8"
   inkscape:window-maximized="1"
   inkscape:current-layer="svg8" />
<style
   type="text/css"
   id="style2193">
	.st0{fill:#FFEB1D;}
</style>




<g
   id="g2235"
   transform="matrix(0.08406927,0,0,0.08406927,29.927361,33.508712)"><g
     id="g2199">
	<polygon
   id="polygon2195"
   points="387,36.4 746.6,657.8 28.2,657.8 "
   class="st0"
   style="fill:#ffeb1d" />
	<path
   id="path2197"
   d="m 411.7,41.6 v 0 0 M 387,84.4 705,633.8 H 69.8 L 387,84.4 m 0,-76.5 c -6.6,0 -13.1,3.2 -16.9,9.7 L 3.5,652.6 c -7.5,13 1.9,29.2 16.9,29.2 h 734.1 c 15,0 24.4,-16.2 16.9,-29.2 L 404,17.6 C 400.1,11.1 393.5,7.9 387,7.9 Z"
   inkscape:connector-curvature="0" />
</g><g
     id="g2203">
	<path
   id="path2201"
   d="m 321.5,545.4 -18,-13.4 c 1.5,-1.8 37,-45.7 -4.2,-103.8 -26.5,-37.3 -25,-70.9 -19.1,-92.6 6.4,-23.5 19.3,-38.2 19.8,-38.8 l 17.7,13.8 c -1.7,1.9 -40.5,47.7 0.7,105.7 26.4,37.1 26,70.1 21,91.2 -5.4,23 -17.4,37.3 -17.9,37.9 z"
   inkscape:connector-curvature="0" />
</g><g
     id="g2207">
	<path
   id="path2205"
   d="m 402.1,545.4 -18,-13.4 c 1.5,-1.8 37,-45.7 -4.2,-103.8 -26.5,-37.3 -25,-70.9 -19.1,-92.6 6.4,-23.5 19.3,-38.2 19.8,-38.8 l 17.7,13.8 c -1.7,1.9 -40.5,47.7 0.7,105.7 26.4,37.1 26,70.1 21,91.2 -5.4,23 -17.4,37.3 -17.9,37.9 z"
   inkscape:connector-curvature="0" />
</g><g
     id="g2211">
	<path
   id="path2209"
   d="M 483,545.4 465,532 c 1.5,-1.8 37,-45.7 -4.2,-103.8 -26.5,-37.3 -25,-70.9 -19.1,-92.6 6.4,-23.5 19.3,-38.2 19.8,-38.8 l 17.7,13.8 c -1.7,1.9 -40.5,47.7 0.7,105.7 26.4,37.1 26,70.1 21,91.2 -5.4,23 -17.4,37.3 -17.9,37.9 z"
   inkscape:connector-curvature="0" />
</g><g
     id="g2215">
	<rect
   id="rect2213"
   height="29.1"
   width="325.79999"
   y="567.29999"
   x="227.10001" />
</g></g>
</svg>