<?xml version="1.0" encoding="utf-8"?>
<!-- Generator: Adobe Illustrator 24.1.0, SVG Export Plug-In . SVG Version: 6.00 Build 0)  -->
<svg version="1.1"
	 id="svg8" inkscape:export-filename="/media/juhele/data_2TB/_GRAFIKA/GHS hazard symbols/GHS06_toxic_substances.png" inkscape:export-xdpi="99.027519" inkscape:export-ydpi="99.027519" inkscape:version="0.92.3 (unknown)" sodipodi:docname="GHS06_toxic_substances.svg" xmlns:cc="http://creativecommons.org/ns#" xmlns:dc="http://purl.org/dc/elements/1.1/" xmlns:inkscape="http://www.inkscape.org/namespaces/inkscape" xmlns:rdf="http://www.w3.org/1999/02/22-rdf-syntax-ns#" xmlns:sodipodi="http://sodipodi.sourceforge.net/DTD/sodipodi-0.dtd" xmlns:svg="http://www.w3.org/2000/svg"
	 xmlns="http://www.w3.org/2000/svg" xmlns:xlink="http://www.w3.org/1999/xlink" x="0px" y="0px" viewBox="0 0 775.6 775.5"
	 style="enable-background:new 0 0 775.6 775.5;" xml:space="preserve">
<style type="text/css">
	.st0{fill:#FFEB1D;}
</style>
<g>
	<polygon class="st0" points="28.2,657.8 387,36.4 746.6,657.8 	"/>
	<path d="M411.7,41.6L411.7,41.6L411.7,41.6 M387,84.4l318,549.4H69.8L387,84.4 M387,7.9c-6.6,0-13.1,3.2-16.9,9.7L3.5,652.6
		c-7.5,13,1.9,29.2,16.9,29.2h734.1c15,0,24.4-16.2,16.9-29.2L404,17.6C400.1,11.1,393.5,7.9,387,7.9L387,7.9z"/>
</g>
<path id="path819" inkscape:connector-curvature="0" d="M538.5,445.1c-9.4,17.9,2,28-10.6,54.4c-6.7-5.3-2.8-25.3-16.1-25.6
	c2,6.1,0.5,8.5,0.2,10.7c-1.3,8.6-4.4,16.2,1.6,27.6c-9.2-4.4-9.3-12.6-17-17.7c1.5,8.7-2.2,26.3,8.1,43.1
	c-9.2-0.9-12.2-4.4-22.1-13.9c10.4,53.6,18,55,55.9,58.1c-2.8-0.3-21.9-3.4-28.9-25.4c-0.4-5.4-0.6,4.8,17.8,5.1
	c-11.6-18.4-8.5-15-7.1-25.7c4.8,7.3,0.6,8,14.2,13.4c-4.3-13.7,6.7-23.1,4.3-38.7c3,6.9,13.7,5.8,13.2,38.8
	c8.9-9.9,9.9-3,14.2-14.1c0.2,6.2,3,13.8-9.1,26.4c3.1,0.8,8.2,1.5,16.5-4.1c-8.1,9.2-0.8,9.4-21.3,24.5c25.9,0.4,42.9-16,42.2-51.7
	c-0.7,3.1-1.4,9.2-15.4,11c8.8-8.7,13.3-26,6.3-40.3c-2.4,2.3-6.3,12.9-15.5,16c4.7-7.6,3.6-17.6,3.6-17.6s1.2-13.4-6.7-23.7
	c-2.2,16.2-2,24.3-12.2,26.8c1.6-9.6,2-14-3.2-24.9C546.2,466.4,540.1,455.2,538.5,445.1z M495.8,591v4.7v4.7h45.5h45.5v-4.7V591
	h-45.5H495.8z"/>
<g transform="scale(.8)">
	<path d="M553.6,453.5c-1,0.3-1.9,0.6-2.6,1c-1.2,0.6-374.6,233-375.3,233.6c-5.8,4.6-8,13.2-6.2,23.9c0.3,2.2,1.4,6,2.2,8.4
		c1.4,3.9,2.9,7.1,5.2,10.7c8.8,14.8,22.6,24.4,34,23.4c1.3-0.1,4.2-1,5.4-1.5c0.9-0.5,372.5-231.6,374.6-233
		c4-2.8,6.4-6.8,7.4-12.7c0.5-3.3,0.5-6.1,0-10.3c-0.4-3.3-0.4-4.8,0.3-7.2c0.9-2.9,3.1-5.9,5.6-7.6c0.5-0.3,10.9-6.9,23.5-14.7
		c12.4-7.8,22.9-14.4,23.2-14.8c4.7-4.2,4.3-12.8-1-18.6c-2.9-3.2-6.8-5-10.5-4.6c-1.2,0.1-2.9,0.7-4,1.3
		c-0.5,0.3-10.9,6.8-23.1,14.5c-12.3,7.6-22.5,14.1-22.8,14.3c-0.4,0.2-1.4,0.6-2.7,1c-2.3,0.7-3.2,0.8-5.3,0.6
		c-2.6-0.2-4.4-1-7.7-3c-4.8-3.1-8.7-4.6-12.8-5.3c-1.7-0.2-3.5-0.3-5-0.1C555.6,452.9,554.6,453.2,553.6,453.5L553.6,453.5z"/>
</g>
<polygon points="195.5,391.8 357.2,384.7 357.2,376.9 217.6,359.1 210.5,368.4 276.4,375.5 199.4,380.8 "/>
<polygon points="404,367.1 491.9,234.8 466.5,205.5 "/>
<polygon points="448,164.4 398.1,362.5 428.7,139.7 "/>
<polygon points="410.5,96.7 390,350.8 385.3,60.8 "/>
<polygon points="368.1,89.5 385.3,313 342.1,129.3 352.5,118.2 363.7,161.8 363.7,100.6 "/>
<polygon points="318,171.6 319.2,175.1 377.3,343.5 342.1,137.1 335.6,152.1 347.6,220.5 326.4,159.9 "/>
<polygon points="318,185.9 334.9,257 371.4,347.1 297.1,215.9 "/>
<polygon points="289.3,230.2 377.3,362.5 276.6,251.1 "/>
<polygon points="276.4,260.9 350.6,347.1 267.8,278.5 "/>
<polygon points="254.1,292.1 371.4,371.6 238.5,304 "/>
<polygon points="309.4,401.3 321.2,410.1 368.1,391.8 "/>
<path d="M259.7,337.2c-1.9-3,0.1-6.8,0.3-10.4c0-0.3,0-0.7-0.1-1c-0.2-0.5-0.8-0.7-1.2-0.9c-1.4-0.6-3-1.2-4.4-0.7
	c-1.2,0.4-2,1.4-2.8,2.4c-1.5,1.8-2.9,3.7-4.4,5.5c-0.4,0.4-0.7,0.9-0.8,1.5c-0.1,0.6,0.3,1.2,0.6,1.7c1.1,2,2.3,4,3.4,6
	c0.4,0.7,0.8,1.4,0.7,2.1c0,0.5-0.2,0.9-0.4,1.4c-0.7,1.6-1.2,3.4-1.1,5.1c0.1,1.8,0.9,3.6,2.4,4.5c1.6,1,3.7,0.8,5.4,0
	c1.7-0.9,3-2.3,4.2-3.8c1.3-1.6,2.5-3.4,2.6-5.4c0.1-1.9-0.7-3.7-1.6-5.3c-1.1-1.9-2.5-3.7-4-5.4"/>
<path d="M296,341.7c0.4-0.5,0-1.4-0.5-1.9c-1.7-1.8-4.3-2.8-6.8-2.5c-0.3,0-0.6,0.1-0.9,0.3c-0.3,0.3-0.5,0.7-0.6,1.1
	c-0.8,2.7-1.5,5.6-0.5,8.2c0.5,1.2,1.3,2.2,2.1,3.2c0.7,0.9,1.5,1.8,2.7,2c0.7,0.1,1.4-0.1,2.1-0.1c3.1-0.3,6.1,2.7,5.8,5.8
	c2.2,0.8,4.9-0.6,5.5-2.8c0.3-1.2,0.1-2.4-0.2-3.6c-0.3-1.4-0.7-2.7-1.5-3.9c-1.6-2.4-4.3-3.6-7-4.8"/>
<path d="M303.1,328.7c1.6-2.4,3.4-5,3.2-7.9c-0.1-1.6-0.8-3.2-1.6-4.7c-0.5-1-1.1-2.1-1.6-3.1c-0.5-0.9-1-1.9-1.9-2.6
	c-0.8-0.6-1.8-0.8-2.7-1c-0.6-0.1-1.3-0.2-1.9,0c-1.1,0.5-1.3,2-0.9,3.1s1.2,2.1,1.7,3.2s0.4,2.6-0.6,3.3c-0.4,0.3-0.9,0.3-1.3,0.6
	c-0.5,0.4-0.6,1-0.7,1.6c-0.3,2.4,0.4,4.9,2,6.8"/>
<path d="M337.9,341.7c-1.1-0.8-2.3-1.7-3.4-2.5c-0.9-0.7-2-1.4-3-1c-0.3,1-0.7,2-0.7,3.1c0,1.1,0.3,2.2,1.1,2.8
	c0.4,0.3,0.8,0.5,1.3,0.7c1.3,0.6,2.7,1.2,4,1.8c0.6,0.3,1.4,0.6,2,0.2c0.9-0.5,0.8-1.9,0.2-2.7c-0.6-0.8-1.5-1.4-2-2.3"/>
<path d="M367.4,363.6c0.3-2.2,0.6-4.5-0.1-6.6c-0.2-0.6-0.5-1.2-1-1.7c-0.5-0.4-1.1-0.6-1.7-1c-1.4-0.8-2.7-2.4-4.2-1.9
	c-1.2,0.4-1.5,2-1.2,3.3c0.3,1.2,1.1,2.3,1.3,3.6c0,0.2,0.1,0.4,0,0.6c-0.3,1.2-2.3,0.8-2.9,1.9c-0.3,0.5-0.1,1.2,0.3,1.7
	s0.9,0.7,1.4,1c2.1,1.2,4.1,2.7,5.9,4.4c1.1,1.1,2.2,2.3,3.7,2.7c0.4,0.1,0.8,0.1,1.2-0.1c0.9-0.7-0.1-2.4,0.9-3c1.4,0,2.8,0,4.2,0
	c0.2,0,0.5,0,0.7-0.1c0.6-0.3,0.5-1.2,0.3-1.8c-1.1-2.9-4.4-4.8-7.5-4.3c-0.3,0-0.7,0.1-0.9-0.1c-0.1-0.1-0.2-0.3-0.2-0.4
	c-0.2-0.5-0.4-1-0.6-1.5"/>
<path d="M346.9,366.2c-0.7-0.9-1.8-1.6-3-1.7c-0.4,0.6-0.9,1.2-1.3,1.8c-0.5,0.6-0.9,1.3-1.1,2.1c-0.1,0.8,0.1,1.7,0.8,2.1
	c0.7,0.4,1.8-0.2,1.7-1c1.8-0.3,3.8,0.4,5,1.8c0.4-1.7-0.4-3.6-1.9-4.6"/>
<path d="M338.2,360.3c-1.5,0.1-3.2,0.2-4.6-0.4c-0.8-0.4-1.5-1-2.3-1.4c-0.9-0.5-2-0.8-3-0.8c-0.3,0-0.6,0-0.9,0.2
	c-0.3,0.2-0.4,0.5-0.5,0.8c-0.8,2.4,0,5,1.1,7.2c0.3,0.7,0.7,1.3,1.3,1.8c1.3,1.2,3.7,1,4.9-0.3c0.4-0.5,0.7-1.1,1.1-1.7
	c0.4-0.5,1-1,1.6-1c0.3,0,0.6,0.1,0.9,0.1c0.6-0.1,1-0.8,0.9-1.4s-0.4-1.1-0.8-1.6"/>
<path d="M376.7,346.2c-1-0.4-2-0.7-3.1-0.8c-0.3,0-0.5,0-0.8,0.1c-0.5,0.2-0.8,0.7-1,1.2c-0.4,1.2-0.4,2.5,0.1,3.6
	c0.4-0.6,1.3-0.8,1.9-0.4c0.9,0.8,1.7,1.9,2.1,3c0.1,0.2,0.2,0.5,0.4,0.6c0.4,0.2,0.8-0.3,1-0.7c0.5-1.1,1-2.2,1.5-3.3
	c0.1-0.2,0.2-0.5,0.4-0.6c0.5-0.4,1.2-0.1,1.8-0.1c1,0,1.9-1,2.1-2c0.1-1-0.4-2.1-1.1-2.9c-0.7-0.8-1.6-1.3-2.5-1.9
	c-1.7,0.8-0.9,3.8-2.6,4.6"/>
<path d="M362.9,294.1c0.2,1.9-0.5,3.9-2,5.1c-0.8,0.7-1.8,1.2-2.3,2.1c-0.3,0.6-0.4,1.2-0.4,1.9c0.1,2.7,1.7,5.1,3.2,7.3
	c0.5,0.7,1.1,1.5,2,1.8c1.3,0.4,2.9-1,2.6-2.3c1.1-0.3,2.6,0.4,3.4-0.5c0.4-0.5,0.3-1.1,0.3-1.7c-0.6-4.5-2.3-8.8-4.9-12.5"/>
<path d="M403.2,306.6c-0.5-0.6-0.9-1.2-1.4-1.8c-0.6-0.8-1.6-1.8-2.6-1.3c-0.6,0.3-0.8,0.9-0.9,1.5c0,0.6,0.1,1.2,0.2,1.8
	c0.4,2.5-0.7,5.1-2.7,6.6c-0.1,2.7,0.7,5.5,2.3,7.7c0.2,0.3,0.4,0.6,0.7,0.6c0.4,0.1,0.8-0.2,1.1-0.4c0.9-0.7,1.8-1.6,2.3-2.6
	c0.6-1.1,0.7-2.4,0.8-3.6c0.2-2.6,0.3-5.3,0.2-7.9"/>
<path d="M419.8,298.1c-4.4,3.3-6.8,9-6.2,14.4c0.3,2.3,1,4.7,0.2,7c-0.3,0.7-0.7,1.4-0.7,2.2s0.6,1.6,1.3,1.5
	c0.4-0.1,0.7-0.4,0.9-0.7c1.2-1.6,1.8-3.7,2.4-5.6c1.2-4,2.3-8.1,3.5-12.1c0.2-0.7,0.4-1.3,0.7-1.9c0.4-0.7,1.1-1.4,1.2-2.2
	c0.1-0.8-0.5-1.6-1.2-2.1c-1.8-1.3-4.5-1.1-6.1,0.4"/>
<path d="M404.6,328.6c-0.2-1.1-1-2-2.1-2.4s-2.3-0.2-3.2,0.4c-1.8,1.3-1.9,3.9-1.5,6c0.2,0.9,0.4,1.7,1,2.4c0.6,0.7,1.5,1.1,2.3,0.8
	c0.6-0.2,1-0.7,1.3-1.2c1-1.6,1.6-3.4,1.7-5.3"/>
<path d="M395.5,348.2c-0.1-1.1-0.1-2.3-0.6-3.3c-0.5-1-1.5-1.9-2.6-1.8c-1.1,0.1-2,1-2.3,2c-0.3,1-0.1,2.2,0.3,3.2
	c0.5,1.2,1.4,2.3,2.6,2.5c1.2,0.2,2.6-1.1,2.1-2.2"/>
<path d="M406.8,356c-1.3,0.4-2.6,1-3.9,1.1c-1.4,0.1-2.9-0.5-3.3-1.8c-0.1-0.4-0.1-0.8-0.4-1c-0.4-0.3-1-0.2-1.3,0.2
	c-0.3,0.4-0.4,0.9-0.4,1.4c-0.4,3.7-0.7,7.4-1,11.1c-0.1,0.7-0.1,1.4,0.1,2.1c0.3,0.8,0.9,1.5,1.6,2.1c0.4,0.4,1,0.8,1.5,0.6
	c0.3-0.1,0.5-0.4,0.8-0.5c1-0.5,2,0.5,3.1,0.6c0.6,0.1,1.2-0.1,1.8-0.4c1.7-0.8,3.2-2,4.2-3.5c0.3-0.4,0.5-0.8,0.9-0.9
	c0.2-0.1,0.5-0.1,0.7-0.1c1.9-0.2,3.2-2.4,2.7-4.3c-0.5-1.8-2.5-3.1-4.4-3c-0.7,0-1.5,0.1-1.9-0.4c-0.2-0.3-0.3-0.7-0.3-1.1
	c0-0.9-0.1-1.7-0.1-2.6"/>
<path d="M428.6,350.7c-1.2,0.2-2.5,0.4-3.7,0.6c-0.9,0.1-1.8,0.3-2.5,0.7c-0.8,0.4-1.5,1.1-1.7,1.9c-0.3,1.3,0.6,2.6,0.4,3.9
	c-0.1,0.8-0.6,1.5-0.9,2.2c-0.6,1.2-0.8,2.6-0.5,4c0.1,0.5,0.2,0.9,0.6,1.2c0.3,0.2,0.7,0.3,1,0.3c1,0.1,2,0.2,2.9-0.2
	c2.5-1.1,2.5-4.9,4.7-6.6c0.7-0.5,1.6-0.8,2.4-1.1c0.8-0.4,1.6-0.9,1.9-1.8c0.4-1.4-0.9-2.8-2.2-3.6c-1.1-0.7-2.4-1.3-3.7-0.9"/>
<path d="M412.2,381.3c-0.5,1.6-2.9,1.8-4.3,0.8c-1.4-1-2.1-2.7-3.1-4.1s-2.7-2.6-4.3-2.1c-2,0.7-2.3,3.2-3.5,4.9
	c-0.1,0.2-0.3,0.4-0.5,0.5c-0.6,0.3-1.3-0.1-1.9-0.4c-1.9-1.1-4.4-1.9-6.2-0.6c-0.5,0.4-0.9,0.8-1.4,1.1c-0.6,0.3-1.2,0.4-1.8,0.6
	c-1.6,0.6-2.7,2.1-3.1,3.8c-0.4,1.6-0.1,3.4,0.5,5c0.3,0.7,0.6,1.6,0.2,2.3c-0.7,1.2-2.5,0.5-3.6-0.2c-1.8-1-3.6-1.9-5.6-2.4
	c-0.2-0.1-0.5-0.1-0.7,0c-0.4,0.2-0.3,0.9-0.1,1.3c0.6,1.6,1.3,3.1,1.9,4.7c0.3,0.9,0.7,1.7,0.7,2.6c0,0.9-0.3,1.8-0.5,2.7
	c-0.7,4,2.2,8.1,6,9.7s8.2,1,11.9-0.7c3.7-1.7,6.9-4.4,10-7.1c2.9-2.6,5.8-5.2,7.9-8.4s3.6-7,3.4-10.9"/>
<path d="M370.5,398c-1-1.4-2-2.7-3-4.1c-0.1-0.1-0.1-0.2-0.3-0.2c-0.1-0.1-0.3,0-0.5,0c-0.7,0.4-0.9,1.4-0.8,2.2
	c0.1,0.8,0.2,1.7-0.3,2.4c-0.2,0.3-0.6,0.5-0.8,0.9c-0.2,0.4-0.1,0.8,0,1.3c0.2,1,0.6,1.9,1.2,2.8c0.3,0.5,0.8,1,1.3,1.3
	s1.3,0.3,1.8-0.1c0.4-0.3,0.5-0.8,0.6-1.3c0.5-1.9,1-3.8,1.4-5.7"/>
<path d="M379.4,374.2c-0.9-1-2.8-0.4-3.6,0.7c-0.8,1.1-1,2.6-1.6,3.9c-0.5,0.9-1.2,1.8-1.7,2.7c-0.5,0.9-0.8,2-0.5,3
	c0.4,1.2,1.7,1.9,2.9,2.4c0.4,0.2,0.8,0.4,1.3,0.4c0.5,0,1-0.2,1.4-0.5c2-1.4,2.1-4.2,1.7-6.6c-0.2-1.1-0.5-2.3,0.1-3.2
	c0.3-0.4,0.7-0.7,0.9-1.1c0.2-0.5,0-1.1-0.4-1.6s-0.9-0.7-1.4-0.9"/>
<path d="M385.9,364.1c-1.7,0.4-2.6,2.2-3.1,3.9c-0.4,1.6-0.4,3.6,1,4.6c0.6,0.4,1.3,0.6,1.8,1s0.9,1.2,0.5,1.8
	c1.1,0.5,2.3-0.2,3.3-0.8c1.4-1,2.9-2.2,2.9-3.9c0-1.1-0.8-2.1-1.5-3c-0.8-0.9-1.6-1.9-2.6-2.5c-1-0.7-2.3-1-3.4-0.6"/>
</svg>
