<?xml version="1.0" encoding="UTF-8" standalone="no"?>
<!-- Generator: Adobe Illustrator 24.1.0, SVG Export Plug-In . SVG Version: 6.00 Build 0)  -->

<svg
   xmlns:dc="http://purl.org/dc/elements/1.1/"
   xmlns:cc="http://creativecommons.org/ns#"
   xmlns:rdf="http://www.w3.org/1999/02/22-rdf-syntax-ns#"
   xmlns:svg="http://www.w3.org/2000/svg"
   xmlns="http://www.w3.org/2000/svg"
   xmlns:sodipodi="http://sodipodi.sourceforge.net/DTD/sodipodi-0.dtd"
   xmlns:inkscape="http://www.inkscape.org/namespaces/inkscape"
   version="1.1"
   id="svg8"
   inkscape:export-filename="/media/juhele/data_2TB/_GRAFIKA/GHS hazard symbols/GHS06_toxic_substances.png"
   inkscape:export-xdpi="99.027519"
   inkscape:export-ydpi="99.027519"
   inkscape:version="0.92.5 (2060ec1f9f, 2020-04-08)"
   sodipodi:docname="125.svg"
   x="0px"
   y="0px"
   viewBox="0 0 125 125"
   xml:space="preserve"
   width="125"
   height="125"><metadata
   id="metadata2403"><rdf:RDF><cc:Work
       rdf:about=""><dc:format>image/svg+xml</dc:format><dc:type
         rdf:resource="http://purl.org/dc/dcmitype/StillImage" /><dc:title></dc:title></cc:Work></rdf:RDF></metadata><defs
   id="defs2401" /><sodipodi:namedview
   pagecolor="#ffffff"
   bordercolor="#666666"
   borderopacity="1"
   objecttolerance="10"
   gridtolerance="10"
   guidetolerance="10"
   inkscape:pageopacity="0"
   inkscape:pageshadow="2"
   inkscape:window-width="1920"
   inkscape:window-height="1017"
   id="namedview2399"
   showgrid="false"
   inkscape:zoom="1.0934881"
   inkscape:cx="387.79999"
   inkscape:cy="387.75"
   inkscape:window-x="-8"
   inkscape:window-y="-8"
   inkscape:window-maximized="1"
   inkscape:current-layer="svg8" />
<style
   type="text/css"
   id="style2325">
	.st0{fill:#FFEB1D;}
</style>
































<g
   id="g2441"
   transform="matrix(0.08406927,0,0,0.08406927,29.927361,33.508712)"><g
     id="g2331">
	<polygon
   id="polygon2327"
   points="387,36.4 746.6,657.8 28.2,657.8 "
   class="st0"
   style="fill:#ffeb1d" />
	<path
   id="path2329"
   d="m 411.7,41.6 v 0 0 M 387,84.4 705,633.8 H 69.8 L 387,84.4 m 0,-76.5 c -6.6,0 -13.1,3.2 -16.9,9.7 L 3.5,652.6 c -7.5,13 1.9,29.2 16.9,29.2 h 734.1 c 15,0 24.4,-16.2 16.9,-29.2 L 404,17.6 C 400.1,11.1 393.5,7.9 387,7.9 Z"
   inkscape:connector-curvature="0" />
</g><path
     d="m 538.5,445.1 c -9.4,17.9 2,28 -10.6,54.4 -6.7,-5.3 -2.8,-25.3 -16.1,-25.6 2,6.1 0.5,8.5 0.2,10.7 -1.3,8.6 -4.4,16.2 1.6,27.6 -9.2,-4.4 -9.3,-12.6 -17,-17.7 1.5,8.7 -2.2,26.3 8.1,43.1 -9.2,-0.9 -12.2,-4.4 -22.1,-13.9 10.4,53.6 18,55 55.9,58.1 -2.8,-0.3 -21.9,-3.4 -28.9,-25.4 -0.4,-5.4 -0.6,4.8 17.8,5.1 -11.6,-18.4 -8.5,-15 -7.1,-25.7 4.8,7.3 0.6,8 14.2,13.4 -4.3,-13.7 6.7,-23.1 4.3,-38.7 3,6.9 13.7,5.8 13.2,38.8 8.9,-9.9 9.9,-3 14.2,-14.1 0.2,6.2 3,13.8 -9.1,26.4 3.1,0.8 8.2,1.5 16.5,-4.1 -8.1,9.2 -0.8,9.4 -21.3,24.5 25.9,0.4 42.9,-16 42.2,-51.7 -0.7,3.1 -1.4,9.2 -15.4,11 8.8,-8.7 13.3,-26 6.3,-40.3 -2.4,2.3 -6.3,12.9 -15.5,16 4.7,-7.6 3.6,-17.6 3.6,-17.6 0,0 1.2,-13.4 -6.7,-23.7 -2.2,16.2 -2,24.3 -12.2,26.8 1.6,-9.6 2,-14 -3.2,-24.9 -5.2,-11.2 -11.3,-22.4 -12.9,-32.5 z M 495.8,591 v 4.7 4.7 h 45.5 45.5 v -4.7 -4.7 h -45.5 z"
     inkscape:connector-curvature="0"
     id="path819" /><g
     id="g2336"
     transform="scale(0.8)">
	<path
   id="path2334"
   d="m 553.6,453.5 c -1,0.3 -1.9,0.6 -2.6,1 -1.2,0.6 -374.6,233 -375.3,233.6 -5.8,4.6 -8,13.2 -6.2,23.9 0.3,2.2 1.4,6 2.2,8.4 1.4,3.9 2.9,7.1 5.2,10.7 8.8,14.8 22.6,24.4 34,23.4 1.3,-0.1 4.2,-1 5.4,-1.5 0.9,-0.5 372.5,-231.6 374.6,-233 4,-2.8 6.4,-6.8 7.4,-12.7 0.5,-3.3 0.5,-6.1 0,-10.3 -0.4,-3.3 -0.4,-4.8 0.3,-7.2 0.9,-2.9 3.1,-5.9 5.6,-7.6 0.5,-0.3 10.9,-6.9 23.5,-14.7 12.4,-7.8 22.9,-14.4 23.2,-14.8 4.7,-4.2 4.3,-12.8 -1,-18.6 -2.9,-3.2 -6.8,-5 -10.5,-4.6 -1.2,0.1 -2.9,0.7 -4,1.3 -0.5,0.3 -10.9,6.8 -23.1,14.5 -12.3,7.6 -22.5,14.1 -22.8,14.3 -0.4,0.2 -1.4,0.6 -2.7,1 -2.3,0.7 -3.2,0.8 -5.3,0.6 -2.6,-0.2 -4.4,-1 -7.7,-3 -4.8,-3.1 -8.7,-4.6 -12.8,-5.3 -1.7,-0.2 -3.5,-0.3 -5,-0.1 -0.4,0.1 -1.4,0.4 -2.4,0.7 z"
   inkscape:connector-curvature="0" />
</g><polygon
     id="polygon2338"
     points="195.5,391.8 357.2,384.7 357.2,376.9 217.6,359.1 210.5,368.4 276.4,375.5 199.4,380.8 " /><polygon
     id="polygon2340"
     points="491.9,234.8 466.5,205.5 404,367.1 " /><polygon
     id="polygon2342"
     points="398.1,362.5 428.7,139.7 448,164.4 " /><polygon
     id="polygon2344"
     points="390,350.8 385.3,60.8 410.5,96.7 " /><polygon
     id="polygon2346"
     points="385.3,313 342.1,129.3 352.5,118.2 363.7,161.8 363.7,100.6 368.1,89.5 " /><polygon
     id="polygon2348"
     points="318,171.6 319.2,175.1 377.3,343.5 342.1,137.1 335.6,152.1 347.6,220.5 326.4,159.9 " /><polygon
     id="polygon2350"
     points="297.1,215.9 318,185.9 334.9,257 371.4,347.1 " /><polygon
     id="polygon2352"
     points="377.3,362.5 276.6,251.1 289.3,230.2 " /><polygon
     id="polygon2354"
     points="350.6,347.1 267.8,278.5 276.4,260.9 " /><polygon
     id="polygon2356"
     points="371.4,371.6 238.5,304 254.1,292.1 " /><polygon
     id="polygon2358"
     points="321.2,410.1 368.1,391.8 309.4,401.3 " /><path
     id="path2360"
     d="m 259.7,337.2 c -1.9,-3 0.1,-6.8 0.3,-10.4 0,-0.3 0,-0.7 -0.1,-1 -0.2,-0.5 -0.8,-0.7 -1.2,-0.9 -1.4,-0.6 -3,-1.2 -4.4,-0.7 -1.2,0.4 -2,1.4 -2.8,2.4 -1.5,1.8 -2.9,3.7 -4.4,5.5 -0.4,0.4 -0.7,0.9 -0.8,1.5 -0.1,0.6 0.3,1.2 0.6,1.7 1.1,2 2.3,4 3.4,6 0.4,0.7 0.8,1.4 0.7,2.1 0,0.5 -0.2,0.9 -0.4,1.4 -0.7,1.6 -1.2,3.4 -1.1,5.1 0.1,1.8 0.9,3.6 2.4,4.5 1.6,1 3.7,0.8 5.4,0 1.7,-0.9 3,-2.3 4.2,-3.8 1.3,-1.6 2.5,-3.4 2.6,-5.4 0.1,-1.9 -0.7,-3.7 -1.6,-5.3 -1.1,-1.9 -2.5,-3.7 -4,-5.4"
     inkscape:connector-curvature="0" /><path
     id="path2362"
     d="m 296,341.7 c 0.4,-0.5 0,-1.4 -0.5,-1.9 -1.7,-1.8 -4.3,-2.8 -6.8,-2.5 -0.3,0 -0.6,0.1 -0.9,0.3 -0.3,0.3 -0.5,0.7 -0.6,1.1 -0.8,2.7 -1.5,5.6 -0.5,8.2 0.5,1.2 1.3,2.2 2.1,3.2 0.7,0.9 1.5,1.8 2.7,2 0.7,0.1 1.4,-0.1 2.1,-0.1 3.1,-0.3 6.1,2.7 5.8,5.8 2.2,0.8 4.9,-0.6 5.5,-2.8 0.3,-1.2 0.1,-2.4 -0.2,-3.6 -0.3,-1.4 -0.7,-2.7 -1.5,-3.9 -1.6,-2.4 -4.3,-3.6 -7,-4.8"
     inkscape:connector-curvature="0" /><path
     id="path2364"
     d="m 303.1,328.7 c 1.6,-2.4 3.4,-5 3.2,-7.9 -0.1,-1.6 -0.8,-3.2 -1.6,-4.7 -0.5,-1 -1.1,-2.1 -1.6,-3.1 -0.5,-0.9 -1,-1.9 -1.9,-2.6 -0.8,-0.6 -1.8,-0.8 -2.7,-1 -0.6,-0.1 -1.3,-0.2 -1.9,0 -1.1,0.5 -1.3,2 -0.9,3.1 0.4,1.1 1.2,2.1 1.7,3.2 0.5,1.1 0.4,2.6 -0.6,3.3 -0.4,0.3 -0.9,0.3 -1.3,0.6 -0.5,0.4 -0.6,1 -0.7,1.6 -0.3,2.4 0.4,4.9 2,6.8"
     inkscape:connector-curvature="0" /><path
     id="path2366"
     d="m 337.9,341.7 c -1.1,-0.8 -2.3,-1.7 -3.4,-2.5 -0.9,-0.7 -2,-1.4 -3,-1 -0.3,1 -0.7,2 -0.7,3.1 0,1.1 0.3,2.2 1.1,2.8 0.4,0.3 0.8,0.5 1.3,0.7 1.3,0.6 2.7,1.2 4,1.8 0.6,0.3 1.4,0.6 2,0.2 0.9,-0.5 0.8,-1.9 0.2,-2.7 -0.6,-0.8 -1.5,-1.4 -2,-2.3"
     inkscape:connector-curvature="0" /><path
     id="path2368"
     d="m 367.4,363.6 c 0.3,-2.2 0.6,-4.5 -0.1,-6.6 -0.2,-0.6 -0.5,-1.2 -1,-1.7 -0.5,-0.4 -1.1,-0.6 -1.7,-1 -1.4,-0.8 -2.7,-2.4 -4.2,-1.9 -1.2,0.4 -1.5,2 -1.2,3.3 0.3,1.2 1.1,2.3 1.3,3.6 0,0.2 0.1,0.4 0,0.6 -0.3,1.2 -2.3,0.8 -2.9,1.9 -0.3,0.5 -0.1,1.2 0.3,1.7 0.4,0.5 0.9,0.7 1.4,1 2.1,1.2 4.1,2.7 5.9,4.4 1.1,1.1 2.2,2.3 3.7,2.7 0.4,0.1 0.8,0.1 1.2,-0.1 0.9,-0.7 -0.1,-2.4 0.9,-3 1.4,0 2.8,0 4.2,0 0.2,0 0.5,0 0.7,-0.1 0.6,-0.3 0.5,-1.2 0.3,-1.8 -1.1,-2.9 -4.4,-4.8 -7.5,-4.3 -0.3,0 -0.7,0.1 -0.9,-0.1 -0.1,-0.1 -0.2,-0.3 -0.2,-0.4 -0.2,-0.5 -0.4,-1 -0.6,-1.5"
     inkscape:connector-curvature="0" /><path
     id="path2370"
     d="m 346.9,366.2 c -0.7,-0.9 -1.8,-1.6 -3,-1.7 -0.4,0.6 -0.9,1.2 -1.3,1.8 -0.5,0.6 -0.9,1.3 -1.1,2.1 -0.1,0.8 0.1,1.7 0.8,2.1 0.7,0.4 1.8,-0.2 1.7,-1 1.8,-0.3 3.8,0.4 5,1.8 0.4,-1.7 -0.4,-3.6 -1.9,-4.6"
     inkscape:connector-curvature="0" /><path
     id="path2372"
     d="m 338.2,360.3 c -1.5,0.1 -3.2,0.2 -4.6,-0.4 -0.8,-0.4 -1.5,-1 -2.3,-1.4 -0.9,-0.5 -2,-0.8 -3,-0.8 -0.3,0 -0.6,0 -0.9,0.2 -0.3,0.2 -0.4,0.5 -0.5,0.8 -0.8,2.4 0,5 1.1,7.2 0.3,0.7 0.7,1.3 1.3,1.8 1.3,1.2 3.7,1 4.9,-0.3 0.4,-0.5 0.7,-1.1 1.1,-1.7 0.4,-0.5 1,-1 1.6,-1 0.3,0 0.6,0.1 0.9,0.1 0.6,-0.1 1,-0.8 0.9,-1.4 -0.1,-0.6 -0.4,-1.1 -0.8,-1.6"
     inkscape:connector-curvature="0" /><path
     id="path2374"
     d="m 376.7,346.2 c -1,-0.4 -2,-0.7 -3.1,-0.8 -0.3,0 -0.5,0 -0.8,0.1 -0.5,0.2 -0.8,0.7 -1,1.2 -0.4,1.2 -0.4,2.5 0.1,3.6 0.4,-0.6 1.3,-0.8 1.9,-0.4 0.9,0.8 1.7,1.9 2.1,3 0.1,0.2 0.2,0.5 0.4,0.6 0.4,0.2 0.8,-0.3 1,-0.7 0.5,-1.1 1,-2.2 1.5,-3.3 0.1,-0.2 0.2,-0.5 0.4,-0.6 0.5,-0.4 1.2,-0.1 1.8,-0.1 1,0 1.9,-1 2.1,-2 0.1,-1 -0.4,-2.1 -1.1,-2.9 -0.7,-0.8 -1.6,-1.3 -2.5,-1.9 -1.7,0.8 -0.9,3.8 -2.6,4.6"
     inkscape:connector-curvature="0" /><path
     id="path2376"
     d="m 362.9,294.1 c 0.2,1.9 -0.5,3.9 -2,5.1 -0.8,0.7 -1.8,1.2 -2.3,2.1 -0.3,0.6 -0.4,1.2 -0.4,1.9 0.1,2.7 1.7,5.1 3.2,7.3 0.5,0.7 1.1,1.5 2,1.8 1.3,0.4 2.9,-1 2.6,-2.3 1.1,-0.3 2.6,0.4 3.4,-0.5 0.4,-0.5 0.3,-1.1 0.3,-1.7 -0.6,-4.5 -2.3,-8.8 -4.9,-12.5"
     inkscape:connector-curvature="0" /><path
     id="path2378"
     d="m 403.2,306.6 c -0.5,-0.6 -0.9,-1.2 -1.4,-1.8 -0.6,-0.8 -1.6,-1.8 -2.6,-1.3 -0.6,0.3 -0.8,0.9 -0.9,1.5 0,0.6 0.1,1.2 0.2,1.8 0.4,2.5 -0.7,5.1 -2.7,6.6 -0.1,2.7 0.7,5.5 2.3,7.7 0.2,0.3 0.4,0.6 0.7,0.6 0.4,0.1 0.8,-0.2 1.1,-0.4 0.9,-0.7 1.8,-1.6 2.3,-2.6 0.6,-1.1 0.7,-2.4 0.8,-3.6 0.2,-2.6 0.3,-5.3 0.2,-7.9"
     inkscape:connector-curvature="0" /><path
     id="path2380"
     d="m 419.8,298.1 c -4.4,3.3 -6.8,9 -6.2,14.4 0.3,2.3 1,4.7 0.2,7 -0.3,0.7 -0.7,1.4 -0.7,2.2 0,0.8 0.6,1.6 1.3,1.5 0.4,-0.1 0.7,-0.4 0.9,-0.7 1.2,-1.6 1.8,-3.7 2.4,-5.6 1.2,-4 2.3,-8.1 3.5,-12.1 0.2,-0.7 0.4,-1.3 0.7,-1.9 0.4,-0.7 1.1,-1.4 1.2,-2.2 0.1,-0.8 -0.5,-1.6 -1.2,-2.1 -1.8,-1.3 -4.5,-1.1 -6.1,0.4"
     inkscape:connector-curvature="0" /><path
     id="path2382"
     d="m 404.6,328.6 c -0.2,-1.1 -1,-2 -2.1,-2.4 -1.1,-0.4 -2.3,-0.2 -3.2,0.4 -1.8,1.3 -1.9,3.9 -1.5,6 0.2,0.9 0.4,1.7 1,2.4 0.6,0.7 1.5,1.1 2.3,0.8 0.6,-0.2 1,-0.7 1.3,-1.2 1,-1.6 1.6,-3.4 1.7,-5.3"
     inkscape:connector-curvature="0" /><path
     id="path2384"
     d="m 395.5,348.2 c -0.1,-1.1 -0.1,-2.3 -0.6,-3.3 -0.5,-1 -1.5,-1.9 -2.6,-1.8 -1.1,0.1 -2,1 -2.3,2 -0.3,1 -0.1,2.2 0.3,3.2 0.5,1.2 1.4,2.3 2.6,2.5 1.2,0.2 2.6,-1.1 2.1,-2.2"
     inkscape:connector-curvature="0" /><path
     id="path2386"
     d="m 406.8,356 c -1.3,0.4 -2.6,1 -3.9,1.1 -1.4,0.1 -2.9,-0.5 -3.3,-1.8 -0.1,-0.4 -0.1,-0.8 -0.4,-1 -0.4,-0.3 -1,-0.2 -1.3,0.2 -0.3,0.4 -0.4,0.9 -0.4,1.4 -0.4,3.7 -0.7,7.4 -1,11.1 -0.1,0.7 -0.1,1.4 0.1,2.1 0.3,0.8 0.9,1.5 1.6,2.1 0.4,0.4 1,0.8 1.5,0.6 0.3,-0.1 0.5,-0.4 0.8,-0.5 1,-0.5 2,0.5 3.1,0.6 0.6,0.1 1.2,-0.1 1.8,-0.4 1.7,-0.8 3.2,-2 4.2,-3.5 0.3,-0.4 0.5,-0.8 0.9,-0.9 0.2,-0.1 0.5,-0.1 0.7,-0.1 1.9,-0.2 3.2,-2.4 2.7,-4.3 -0.5,-1.8 -2.5,-3.1 -4.4,-3 -0.7,0 -1.5,0.1 -1.9,-0.4 -0.2,-0.3 -0.3,-0.7 -0.3,-1.1 0,-0.9 -0.1,-1.7 -0.1,-2.6"
     inkscape:connector-curvature="0" /><path
     id="path2388"
     d="m 428.6,350.7 c -1.2,0.2 -2.5,0.4 -3.7,0.6 -0.9,0.1 -1.8,0.3 -2.5,0.7 -0.8,0.4 -1.5,1.1 -1.7,1.9 -0.3,1.3 0.6,2.6 0.4,3.9 -0.1,0.8 -0.6,1.5 -0.9,2.2 -0.6,1.2 -0.8,2.6 -0.5,4 0.1,0.5 0.2,0.9 0.6,1.2 0.3,0.2 0.7,0.3 1,0.3 1,0.1 2,0.2 2.9,-0.2 2.5,-1.1 2.5,-4.9 4.7,-6.6 0.7,-0.5 1.6,-0.8 2.4,-1.1 0.8,-0.4 1.6,-0.9 1.9,-1.8 0.4,-1.4 -0.9,-2.8 -2.2,-3.6 -1.1,-0.7 -2.4,-1.3 -3.7,-0.9"
     inkscape:connector-curvature="0" /><path
     id="path2390"
     d="m 412.2,381.3 c -0.5,1.6 -2.9,1.8 -4.3,0.8 -1.4,-1 -2.1,-2.7 -3.1,-4.1 -1,-1.4 -2.7,-2.6 -4.3,-2.1 -2,0.7 -2.3,3.2 -3.5,4.9 -0.1,0.2 -0.3,0.4 -0.5,0.5 -0.6,0.3 -1.3,-0.1 -1.9,-0.4 -1.9,-1.1 -4.4,-1.9 -6.2,-0.6 -0.5,0.4 -0.9,0.8 -1.4,1.1 -0.6,0.3 -1.2,0.4 -1.8,0.6 -1.6,0.6 -2.7,2.1 -3.1,3.8 -0.4,1.6 -0.1,3.4 0.5,5 0.3,0.7 0.6,1.6 0.2,2.3 -0.7,1.2 -2.5,0.5 -3.6,-0.2 -1.8,-1 -3.6,-1.9 -5.6,-2.4 -0.2,-0.1 -0.5,-0.1 -0.7,0 -0.4,0.2 -0.3,0.9 -0.1,1.3 0.6,1.6 1.3,3.1 1.9,4.7 0.3,0.9 0.7,1.7 0.7,2.6 0,0.9 -0.3,1.8 -0.5,2.7 -0.7,4 2.2,8.1 6,9.7 3.8,1.6 8.2,1 11.9,-0.7 3.7,-1.7 6.9,-4.4 10,-7.1 2.9,-2.6 5.8,-5.2 7.9,-8.4 2.1,-3.2 3.6,-7 3.4,-10.9"
     inkscape:connector-curvature="0" /><path
     id="path2392"
     d="m 370.5,398 c -1,-1.4 -2,-2.7 -3,-4.1 -0.1,-0.1 -0.1,-0.2 -0.3,-0.2 -0.1,-0.1 -0.3,0 -0.5,0 -0.7,0.4 -0.9,1.4 -0.8,2.2 0.1,0.8 0.2,1.7 -0.3,2.4 -0.2,0.3 -0.6,0.5 -0.8,0.9 -0.2,0.4 -0.1,0.8 0,1.3 0.2,1 0.6,1.9 1.2,2.8 0.3,0.5 0.8,1 1.3,1.3 0.5,0.3 1.3,0.3 1.8,-0.1 0.4,-0.3 0.5,-0.8 0.6,-1.3 0.5,-1.9 1,-3.8 1.4,-5.7"
     inkscape:connector-curvature="0" /><path
     id="path2394"
     d="m 379.4,374.2 c -0.9,-1 -2.8,-0.4 -3.6,0.7 -0.8,1.1 -1,2.6 -1.6,3.9 -0.5,0.9 -1.2,1.8 -1.7,2.7 -0.5,0.9 -0.8,2 -0.5,3 0.4,1.2 1.7,1.9 2.9,2.4 0.4,0.2 0.8,0.4 1.3,0.4 0.5,0 1,-0.2 1.4,-0.5 2,-1.4 2.1,-4.2 1.7,-6.6 -0.2,-1.1 -0.5,-2.3 0.1,-3.2 0.3,-0.4 0.7,-0.7 0.9,-1.1 0.2,-0.5 0,-1.1 -0.4,-1.6 -0.4,-0.5 -0.9,-0.7 -1.4,-0.9"
     inkscape:connector-curvature="0" /><path
     id="path2396"
     d="m 385.9,364.1 c -1.7,0.4 -2.6,2.2 -3.1,3.9 -0.4,1.6 -0.4,3.6 1,4.6 0.6,0.4 1.3,0.6 1.8,1 0.5,0.4 0.9,1.2 0.5,1.8 1.1,0.5 2.3,-0.2 3.3,-0.8 1.4,-1 2.9,-2.2 2.9,-3.9 0,-1.1 -0.8,-2.1 -1.5,-3 -0.8,-0.9 -1.6,-1.9 -2.6,-2.5 -1,-0.7 -2.3,-1 -3.4,-0.6"
     inkscape:connector-curvature="0" /></g>
</svg>