<?xml version="1.0" encoding="utf-8"?>
<!-- Generator: Adobe Illustrator 24.1.0, SVG Export Plug-In . SVG Version: 6.00 Build 0)  -->
<svg version="1.1"
	 id="svg8" inkscape:export-filename="/media/juhele/data_2TB/_GRAFIKA/GHS hazard symbols/GHS06_toxic_substances.png" inkscape:export-xdpi="99.027519" inkscape:export-ydpi="99.027519" inkscape:version="0.92.3 (unknown)" sodipodi:docname="GHS06_toxic_substances.svg" xmlns:cc="http://creativecommons.org/ns#" xmlns:dc="http://purl.org/dc/elements/1.1/" xmlns:inkscape="http://www.inkscape.org/namespaces/inkscape" xmlns:rdf="http://www.w3.org/1999/02/22-rdf-syntax-ns#" xmlns:sodipodi="http://sodipodi.sourceforge.net/DTD/sodipodi-0.dtd" xmlns:svg="http://www.w3.org/2000/svg"
	 xmlns="http://www.w3.org/2000/svg" xmlns:xlink="http://www.w3.org/1999/xlink" x="0px" y="0px" viewBox="0 0 775.6 775.5"
	 style="enable-background:new 0 0 775.6 775.5;" xml:space="preserve">
<style type="text/css">
	.st0{fill:#FFEB1D;}
</style>
<g>
	<polygon class="st0" points="28.2,657.8 387,36.4 746.6,657.8 	"/>
	<path d="M411.7,41.6L411.7,41.6L411.7,41.6 M387,84.4l318,549.4H69.8L387,84.4 M387,7.9c-6.6,0-13.1,3.2-16.9,9.7L3.5,652.6
		c-7.5,13,1.9,29.2,16.9,29.2h734.1c15,0,24.4-16.2,16.9-29.2L404,17.6C400.1,11.1,393.5,7.9,387,7.9L387,7.9z"/>
</g>
<g>
	<path d="M603,487.1c-2.3-4.5-7.9-6.2-12.3-3.8l-70.4,36.9l-21.5-11.8l-37.2-78.6c-2-4.2-6.9-6.2-11.2-4.7l-4.1-19.1H406v-51.3
		c6.7-1.8,11.5-7.9,11.5-15.2c0-8.7-7.1-15.8-15.8-15.8c-8.7,0-15.8,7.1-15.8,15.8c0,7,4.6,12.9,10.8,15v51.5H246.6l-59,103.9v57.5
		h21.6c7.2,18.1,24.8,30.9,45.4,30.9c20.6,0,38.3-12.8,45.4-30.9h43.7c7.2,18.1,24.8,30.9,45.4,30.9c6.9,0,13.4-1.4,19.3-4l65.7,0.9
		c0,0,0.1,0,0.1,0c2.9,0,5.4-1.3,7.1-3.4l0.1,0.1l27.7-45.3l89.9-47.1C603.6,497,605.3,491.5,603,487.1z M254.7,589
		c-21.9,0-39.7-17.8-39.7-39.7c0-21.9,17.8-39.7,39.7-39.7c21.9,0,39.7,17.8,39.7,39.7C294.4,571.2,276.6,589,254.7,589z
		 M302.7,558.1c0.5-2.9,0.8-5.8,0.8-8.8c0-26.9-21.9-48.9-48.9-48.9c-27,0-48.9,21.9-48.9,48.9c0,3,0.3,6,0.8,8.8h-9.8v-46L252,415
		h187l28.2,131.2l-4.7,7.6l-10.5-31.5c-1.5-4.6-6.3-7.2-11-5.9l-12.8,3.3c-8.9-11.7-23-19.3-38.9-19.3c-26.9,0-48.9,21.9-48.9,48.9
		c0,3,0.3,6,0.8,8.8H302.7z M436.4,536.4l0.9-0.2l7.3,21.9h-7.3c0.5-2.9,0.8-5.8,0.8-8.8C438.2,544.8,437.5,540.5,436.4,536.4z
		 M349.5,549.3c0-21.9,17.8-39.7,39.7-39.7c11.5,0,21.9,4.9,29.1,12.7l-29.6,7.8c-4.9,1.3-7.8,6.3-6.5,11.1
		c1.3,4.9,6.3,7.8,11.1,6.5l34.2-9c0.9,3.4,1.4,6.9,1.4,10.5c0,21.9-17.8,39.7-39.7,39.7C367.4,589,349.5,571.2,349.5,549.3z
		 M430,576.2c1.9-2.8,3.4-5.8,4.7-9h12.9l3.1,9.3L430,576.2z M474,535l-14.3-66.5l24,50.8L474,535z"/>
	<ellipse transform="matrix(0.3827 -0.9239 0.9239 0.3827 -136.4895 787.9728)" cx="521.4" cy="496.1" rx="16.4" ry="16.4"/>
	<path d="M422.2,360.9c1,0.7,2.2,1.1,3.4,1.1c1.9,0,3.7-0.9,4.9-2.6c4.2-5.9,6.3-12.9,6.3-20.1c0-6.8-1.9-13.4-5.6-19
		c-1.8-2.8-5.5-3.6-8.3-1.8c-2.8,1.8-3.6,5.5-1.8,8.3c2.4,3.7,3.7,8,3.7,12.5c0,4.8-1.4,9.3-4.2,13.2
		C418.8,355.3,419.5,359,422.2,360.9z"/>
	<path d="M443.3,369.5c1,0.7,2.2,1.1,3.4,1.1c1.9,0,3.8-0.9,4.9-2.6c6-8.5,9.1-18.5,9.1-28.9c0-9.7-2.8-19.2-8-27.3
		c-1.8-2.8-5.5-3.6-8.3-1.8c-2.8,1.8-3.6,5.5-1.8,8.3c4,6.2,6.1,13.4,6.1,20.8c0,7.9-2.4,15.5-6.9,22
		C440,363.8,440.6,367.5,443.3,369.5z"/>
	<path d="M470.1,338.7c0,13.4-4.1,26.3-11.7,37.3c-1.9,2.7-1.2,6.5,1.5,8.4c1,0.7,2.2,1.1,3.4,1.1c1.9,0,3.8-0.9,4.9-2.6
		c9.1-13,13.9-28.3,13.9-44.2c0-14.9-4.2-29.3-12.3-41.8c-1.8-2.8-5.5-3.6-8.3-1.8c-2.8,1.8-3.6,5.5-1.8,8.3
		C466.5,313.9,470.1,326.1,470.1,338.7z"/>
</g>
</svg>
