<?xml version="1.0" encoding="UTF-8" standalone="no"?>
<!-- Generator: Adobe Illustrator 24.1.0, SVG Export Plug-In . SVG Version: 6.00 Build 0)  -->

<svg
   xmlns:dc="http://purl.org/dc/elements/1.1/"
   xmlns:cc="http://creativecommons.org/ns#"
   xmlns:rdf="http://www.w3.org/1999/02/22-rdf-syntax-ns#"
   xmlns:svg="http://www.w3.org/2000/svg"
   xmlns="http://www.w3.org/2000/svg"
   xmlns:sodipodi="http://sodipodi.sourceforge.net/DTD/sodipodi-0.dtd"
   xmlns:inkscape="http://www.inkscape.org/namespaces/inkscape"
   version="1.1"
   id="svg8"
   inkscape:export-filename="/media/juhele/data_2TB/_GRAFIKA/GHS hazard symbols/GHS06_toxic_substances.png"
   inkscape:export-xdpi="99.027519"
   inkscape:export-ydpi="99.027519"
   inkscape:version="0.92.5 (2060ec1f9f, 2020-04-08)"
   sodipodi:docname="126.svg"
   x="0px"
   y="0px"
   viewBox="0 0 125 125"
   xml:space="preserve"
   width="125"
   height="125"><metadata
   id="metadata2503"><rdf:RDF><cc:Work
       rdf:about=""><dc:format>image/svg+xml</dc:format><dc:type
         rdf:resource="http://purl.org/dc/dcmitype/StillImage" /><dc:title></dc:title></cc:Work></rdf:RDF></metadata><defs
   id="defs2501" /><sodipodi:namedview
   pagecolor="#ffffff"
   bordercolor="#666666"
   borderopacity="1"
   objecttolerance="10"
   gridtolerance="10"
   guidetolerance="10"
   inkscape:pageopacity="0"
   inkscape:pageshadow="2"
   inkscape:window-width="1920"
   inkscape:window-height="1017"
   id="namedview2499"
   showgrid="false"
   inkscape:zoom="1.0934881"
   inkscape:cx="387.79999"
   inkscape:cy="387.75"
   inkscape:window-x="-8"
   inkscape:window-y="-8"
   inkscape:window-maximized="1"
   inkscape:current-layer="svg8" />
<style
   type="text/css"
   id="style2478">
	.st0{fill:#FFEB1D;}
</style>

<g
   id="g2514"
   transform="matrix(0.08406927,0,0,0.08406927,29.927361,33.508712)"><g
     id="g2484">
	<polygon
   id="polygon2480"
   points="387,36.4 746.6,657.8 28.2,657.8 "
   class="st0"
   style="fill:#ffeb1d" />
	<path
   id="path2482"
   d="m 411.7,41.6 v 0 0 M 387,84.4 705,633.8 H 69.8 L 387,84.4 m 0,-76.5 c -6.6,0 -13.1,3.2 -16.9,9.7 L 3.5,652.6 c -7.5,13 1.9,29.2 16.9,29.2 h 734.1 c 15,0 24.4,-16.2 16.9,-29.2 L 404,17.6 C 400.1,11.1 393.5,7.9 387,7.9 Z"
   inkscape:connector-curvature="0" />
</g><g
     id="g2496">
	<path
   id="path2486"
   d="m 603,487.1 c -2.3,-4.5 -7.9,-6.2 -12.3,-3.8 l -70.4,36.9 -21.5,-11.8 -37.2,-78.6 c -2,-4.2 -6.9,-6.2 -11.2,-4.7 L 446.3,406 H 406 v -51.3 c 6.7,-1.8 11.5,-7.9 11.5,-15.2 0,-8.7 -7.1,-15.8 -15.8,-15.8 -8.7,0 -15.8,7.1 -15.8,15.8 0,7 4.6,12.9 10.8,15 V 406 H 246.6 l -59,103.9 v 57.5 h 21.6 c 7.2,18.1 24.8,30.9 45.4,30.9 20.6,0 38.3,-12.8 45.4,-30.9 h 43.7 c 7.2,18.1 24.8,30.9 45.4,30.9 6.9,0 13.4,-1.4 19.3,-4 l 65.7,0.9 c 0,0 0.1,0 0.1,0 2.9,0 5.4,-1.3 7.1,-3.4 l 0.1,0.1 27.7,-45.3 89.9,-47.1 c 4.6,-2.5 6.3,-8 4,-12.4 z M 254.7,589 c -21.9,0 -39.7,-17.8 -39.7,-39.7 0,-21.9 17.8,-39.7 39.7,-39.7 21.9,0 39.7,17.8 39.7,39.7 0,21.9 -17.8,39.7 -39.7,39.7 z m 48,-30.9 c 0.5,-2.9 0.8,-5.8 0.8,-8.8 0,-26.9 -21.9,-48.9 -48.9,-48.9 -27,0 -48.9,21.9 -48.9,48.9 0,3 0.3,6 0.8,8.8 h -9.8 v -46 L 252,415 h 187 l 28.2,131.2 -4.7,7.6 -10.5,-31.5 c -1.5,-4.6 -6.3,-7.2 -11,-5.9 l -12.8,3.3 c -8.9,-11.7 -23,-19.3 -38.9,-19.3 -26.9,0 -48.9,21.9 -48.9,48.9 0,3 0.3,6 0.8,8.8 z m 133.7,-21.7 0.9,-0.2 7.3,21.9 h -7.3 c 0.5,-2.9 0.8,-5.8 0.8,-8.8 0.1,-4.5 -0.6,-8.8 -1.7,-12.9 z m -86.9,12.9 c 0,-21.9 17.8,-39.7 39.7,-39.7 11.5,0 21.9,4.9 29.1,12.7 l -29.6,7.8 c -4.9,1.3 -7.8,6.3 -6.5,11.1 1.3,4.9 6.3,7.8 11.1,6.5 l 34.2,-9 c 0.9,3.4 1.4,6.9 1.4,10.5 0,21.9 -17.8,39.7 -39.7,39.7 -21.8,0.1 -39.7,-17.7 -39.7,-39.6 z m 80.5,26.9 c 1.9,-2.8 3.4,-5.8 4.7,-9 h 12.9 l 3.1,9.3 z m 44,-41.2 -14.3,-66.5 24,50.8 z"
   inkscape:connector-curvature="0" />
	<circle
   id="ellipse2488"
   cy="496.10001"
   cx="521.40002"
   transform="matrix(0.3827,-0.9239,0.9239,0.3827,-136.4895,787.9728)"
   r="16.4" />
	<path
   id="path2490"
   d="m 422.2,360.9 c 1,0.7 2.2,1.1 3.4,1.1 1.9,0 3.7,-0.9 4.9,-2.6 4.2,-5.9 6.3,-12.9 6.3,-20.1 0,-6.8 -1.9,-13.4 -5.6,-19 -1.8,-2.8 -5.5,-3.6 -8.3,-1.8 -2.8,1.8 -3.6,5.5 -1.8,8.3 2.4,3.7 3.7,8 3.7,12.5 0,4.8 -1.4,9.3 -4.2,13.2 -1.8,2.8 -1.1,6.5 1.6,8.4 z"
   inkscape:connector-curvature="0" />
	<path
   id="path2492"
   d="m 443.3,369.5 c 1,0.7 2.2,1.1 3.4,1.1 1.9,0 3.8,-0.9 4.9,-2.6 6,-8.5 9.1,-18.5 9.1,-28.9 0,-9.7 -2.8,-19.2 -8,-27.3 -1.8,-2.8 -5.5,-3.6 -8.3,-1.8 -2.8,1.8 -3.6,5.5 -1.8,8.3 4,6.2 6.1,13.4 6.1,20.8 0,7.9 -2.4,15.5 -6.9,22 -1.8,2.7 -1.2,6.4 1.5,8.4 z"
   inkscape:connector-curvature="0" />
	<path
   id="path2494"
   d="m 470.1,338.7 c 0,13.4 -4.1,26.3 -11.7,37.3 -1.9,2.7 -1.2,6.5 1.5,8.4 1,0.7 2.2,1.1 3.4,1.1 1.9,0 3.8,-0.9 4.9,-2.6 9.1,-13 13.9,-28.3 13.9,-44.2 0,-14.9 -4.2,-29.3 -12.3,-41.8 -1.8,-2.8 -5.5,-3.6 -8.3,-1.8 -2.8,1.8 -3.6,5.5 -1.8,8.3 6.8,10.5 10.4,22.7 10.4,35.3 z"
   inkscape:connector-curvature="0" />
</g></g>
</svg>