<?xml version="1.0" encoding="UTF-8" standalone="no"?>
<!-- Generator: Adobe Illustrator 24.1.0, SVG Export Plug-In . SVG Version: 6.00 Build 0)  -->

<svg
   xmlns:dc="http://purl.org/dc/elements/1.1/"
   xmlns:cc="http://creativecommons.org/ns#"
   xmlns:rdf="http://www.w3.org/1999/02/22-rdf-syntax-ns#"
   xmlns:svg="http://www.w3.org/2000/svg"
   xmlns="http://www.w3.org/2000/svg"
   xmlns:sodipodi="http://sodipodi.sourceforge.net/DTD/sodipodi-0.dtd"
   xmlns:inkscape="http://www.inkscape.org/namespaces/inkscape"
   version="1.1"
   id="svg8"
   inkscape:export-filename="/media/juhele/data_2TB/_GRAFIKA/GHS hazard symbols/GHS06_toxic_substances.png"
   inkscape:export-xdpi="99.027519"
   inkscape:export-ydpi="99.027519"
   inkscape:version="0.92.5 (2060ec1f9f, 2020-04-08)"
   sodipodi:docname="127.svg"
   x="0px"
   y="0px"
   viewBox="0 0 125 125"
   xml:space="preserve"
   width="125"
   height="125"><metadata
   id="metadata2564"><rdf:RDF><cc:Work
       rdf:about=""><dc:format>image/svg+xml</dc:format><dc:type
         rdf:resource="http://purl.org/dc/dcmitype/StillImage" /><dc:title></dc:title></cc:Work></rdf:RDF></metadata><defs
   id="defs2562" /><sodipodi:namedview
   pagecolor="#ffffff"
   bordercolor="#666666"
   borderopacity="1"
   objecttolerance="10"
   gridtolerance="10"
   guidetolerance="10"
   inkscape:pageopacity="0"
   inkscape:pageshadow="2"
   inkscape:window-width="1920"
   inkscape:window-height="1017"
   id="namedview2560"
   showgrid="false"
   inkscape:zoom="1.0934881"
   inkscape:cx="387.79999"
   inkscape:cy="387.75"
   inkscape:window-x="-8"
   inkscape:window-y="-8"
   inkscape:window-maximized="1"
   inkscape:current-layer="svg8" />
<style
   type="text/css"
   id="style2545">
	.st0{fill:#FFEB1D;}
</style>


<g
   id="g2572"
   transform="matrix(0.08406927,0,0,0.08406927,29.927361,33.508712)"><g
     id="g2551">
	<polygon
   id="polygon2547"
   points="387,36.4 746.6,657.8 28.2,657.8 "
   class="st0"
   style="fill:#ffeb1d" />
	<path
   id="path2549"
   d="m 411.7,41.6 v 0 0 M 387,84.4 705,633.8 H 69.8 L 387,84.4 m 0,-76.5 c -6.6,0 -13.1,3.2 -16.9,9.7 L 3.5,652.6 c -7.5,13 1.9,29.2 16.9,29.2 h 734.1 c 15,0 24.4,-16.2 16.9,-29.2 L 404,17.6 C 400.1,11.1 393.5,7.9 387,7.9 Z"
   inkscape:connector-curvature="0" />
</g><polygon
     id="polygon2553"
     points="132,600.8 641.3,600.8 254.7,395.6 " /><g
     id="g2557">
	<path
   id="path2555"
   d="m 299.4,389.1 94.7,-61.1 10.6,5.7 -94.9,61 z m 55.4,-50 c -9.4,17.6 -25.4,20.8 -37.6,14.3 -12.8,-6.8 -17.8,-21.8 -9.3,-37.6 8,-15 23.3,-21.5 37.7,-13.8 14.4,7.8 16.9,22.7 9.2,37.1 z m -32,-16 c -4.7,8.8 -5.1,16.7 0.6,19.8 5.6,3 11.3,-1.3 16.4,-10.7 4.6,-8.5 5.8,-16.4 -0.3,-19.6 -5.9,-3.2 -12.2,2.1 -16.7,10.5 z m 73.9,83.3 c -9.4,17.6 -25.4,20.8 -37.6,14.3 -12.7,-6.8 -17.6,-21.7 -9.3,-37.6 8,-15 23.3,-21.5 37.7,-13.8 14.4,7.8 16.9,22.7 9.2,37.1 z m -31.9,-15.9 c -4.8,8.7 -5.2,16.7 0.4,19.7 5.6,3 11.3,-1.3 16.4,-10.7 4.6,-8.5 5.9,-16.3 -0.2,-19.6 -6,-3.2 -12.1,2.2 -16.6,10.6 z"
   inkscape:connector-curvature="0" />
</g></g>
</svg>