<?xml version="1.0" encoding="utf-8"?>
<!-- Generator: Adobe Illustrator 24.1.0, SVG Export Plug-In . SVG Version: 6.00 Build 0)  -->
<svg version="1.1"
	 id="svg8" inkscape:export-filename="/media/juhele/data_2TB/_GRAFIKA/GHS hazard symbols/GHS06_toxic_substances.png" inkscape:export-xdpi="99.027519" inkscape:export-ydpi="99.027519" inkscape:version="0.92.3 (unknown)" sodipodi:docname="GHS06_toxic_substances.svg" xmlns:cc="http://creativecommons.org/ns#" xmlns:dc="http://purl.org/dc/elements/1.1/" xmlns:inkscape="http://www.inkscape.org/namespaces/inkscape" xmlns:rdf="http://www.w3.org/1999/02/22-rdf-syntax-ns#" xmlns:sodipodi="http://sodipodi.sourceforge.net/DTD/sodipodi-0.dtd" xmlns:svg="http://www.w3.org/2000/svg"
	 xmlns="http://www.w3.org/2000/svg" xmlns:xlink="http://www.w3.org/1999/xlink" x="0px" y="0px" viewBox="0 0 775.6 775.5"
	 style="enable-background:new 0 0 775.6 775.5;" xml:space="preserve">
<style type="text/css">
	.st0{fill:#FFEB1D;}
</style>
<g>
	<polygon class="st0" points="28.2,657.8 387,36.4 746.6,657.8 	"/>
	<path d="M411.7,41.6L411.7,41.6L411.7,41.6 M387,84.4l318,549.4H69.8L387,84.4 M387,7.9c-6.6,0-13.1,3.2-16.9,9.7L3.5,652.6
		c-7.5,13,1.9,29.2,16.9,29.2h734.1c15,0,24.4-16.2,16.9-29.2L404,17.6C400.1,11.1,393.5,7.9,387,7.9L387,7.9z"/>
</g>
<polygon points="254.7,395.6 132,600.8 641.3,600.8 "/>
<g>
	<path d="M299.4,389.1l94.7-61.1l10.6,5.7l-94.9,61L299.4,389.1z M354.8,339.1c-9.4,17.6-25.4,20.8-37.6,14.3
		c-12.8-6.8-17.8-21.8-9.3-37.6c8-15,23.3-21.5,37.7-13.8C360,309.8,362.5,324.7,354.8,339.1z M322.8,323.1
		c-4.7,8.8-5.1,16.7,0.6,19.8c5.6,3,11.3-1.3,16.4-10.7c4.6-8.5,5.8-16.4-0.3-19.6C333.6,309.4,327.3,314.7,322.8,323.1z
		 M396.7,406.4c-9.4,17.6-25.4,20.8-37.6,14.3c-12.7-6.8-17.6-21.7-9.3-37.6c8-15,23.3-21.5,37.7-13.8
		C401.9,377.1,404.4,392,396.7,406.4z M364.8,390.5c-4.8,8.7-5.2,16.7,0.4,19.7c5.6,3,11.3-1.3,16.4-10.7c4.6-8.5,5.9-16.3-0.2-19.6
		C375.4,376.7,369.3,382.1,364.8,390.5z"/>
</g>
</svg>
