<?xml version="1.0" encoding="utf-8"?>
<!-- Generator: Adobe Illustrator 24.1.0, SVG Export Plug-In . SVG Version: 6.00 Build 0)  -->
<svg version="1.1"
	 id="svg8" inkscape:export-filename="/media/juhele/data_2TB/_GRAFIKA/GHS hazard symbols/GHS06_toxic_substances.png" inkscape:export-xdpi="99.027519" inkscape:export-ydpi="99.027519" inkscape:version="0.92.3 (unknown)" sodipodi:docname="GHS06_toxic_substances.svg" xmlns:cc="http://creativecommons.org/ns#" xmlns:dc="http://purl.org/dc/elements/1.1/" xmlns:inkscape="http://www.inkscape.org/namespaces/inkscape" xmlns:rdf="http://www.w3.org/1999/02/22-rdf-syntax-ns#" xmlns:sodipodi="http://sodipodi.sourceforge.net/DTD/sodipodi-0.dtd" xmlns:svg="http://www.w3.org/2000/svg"
	 xmlns="http://www.w3.org/2000/svg" xmlns:xlink="http://www.w3.org/1999/xlink" x="0px" y="0px" viewBox="0 0 775.6 775.5"
	 style="enable-background:new 0 0 775.6 775.5;" xml:space="preserve">
<style type="text/css">
	.st0{fill:#FFEB1D;}
</style>
<g>
	<polygon class="st0" points="28.2,657.8 387,36.4 746.6,657.8 	"/>
	<path d="M411.7,41.6L411.7,41.6L411.7,41.6 M387,84.4l318,549.4H69.8L387,84.4 M387,7.9c-6.6,0-13.1,3.2-16.9,9.7L3.5,652.6
		c-7.5,13,1.9,29.2,16.9,29.2h734.1c15,0,24.4-16.2,16.9-29.2L404,17.6C400.1,11.1,393.5,7.9,387,7.9L387,7.9z"/>
</g>
<g>
	<path d="M389.5,426.9c-0.1-2.4-2-4.3-4.3-4.3c-2.4,0-4.3,1.9-4.3,4.3c0,1.6,0.9,3,2.3,3.7c-1.3,0.4-2.2,1.6-2.2,2.9
		c0,1.7,1.4,3.1,3.1,3.1c1.7,0,3.1-1.4,3.1-3.1c0-1-0.5-1.9-1.3-2.5C387.9,430.7,389.5,429,389.5,426.9z"/>
	<path d="M372.7,491.6c0,2.4,1.9,4.3,4.3,4.3c2.4,0,4.3-1.9,4.3-4.3c-0.1-2.4-2-4.3-4.3-4.3C374.6,487.3,372.7,489.2,372.7,491.6z"
		/>
	<path d="M410.6,458.7c0-0.8-0.2-1.5-0.6-2.1c-0.7-1.6-2.3-2.7-4.2-2.7c-0.8,0-1.5,0.2-2.1,0.5c-0.4-1.4-1.7-2.4-3.3-2.5
		c-1.9,0-3.4,1.6-3.4,3.4c0,1.9,1.6,3.4,3.4,3.4c0.3,0,0.6-0.1,0.8-0.1c0.2,2.4,2.1,4.3,4.6,4.3c0.4,0,0.7-0.1,1-0.1
		C408.9,462.7,410.6,460.9,410.6,458.7z"/>
	<path d="M295.9,412.7c0.8,3.8,4.1,6.6,8.1,6.6c0.7,0,1.4-0.1,2.1-0.3c0.9,3.6,4.2,6.2,8,6.2c0.4,0,0.8-0.1,1.2-0.1
		c1,3.6,4.2,6.2,8,6.2c1.2,0,2.2-0.3,3.2-0.7c0.3,2.7,2.5,4.8,5.3,4.8c0.6,0,1.1-0.1,1.6-0.3c0.7,3.9,4.1,6.9,8.2,6.9
		c3.2,0,6-1.8,7.4-4.5c1.4,1.1,3.2,1.7,5,1.7c1.2,0,2.4-0.3,3.4-0.8c1.1,2.3,3.1,4.1,5.6,4.8c-0.1,0.3-0.2,0.6-0.2,1
		c0,1.7,1.4,3.1,3.1,3.1s3.1-1.4,3.1-3.1c0-0.4-0.1-0.8-0.2-1.1c3.6-1.3,6.1-4.6,6.1-8.6c0-1.8-0.6-3.5-1.5-5c1.5-0.2,2.7-1.5,2.7-3
		c0-1.3-0.9-2.5-2-2.9c1.3-1.5,2.1-3.4,2.1-5.5c0-0.4-0.1-0.8-0.1-1.2c3.2-1.2,5.4-4.2,5.4-7.8c0-2.2-0.9-4.2-2.3-5.7
		c0.3,0.1,0.6,0.2,0.8,0.2c1.7,0,3.1-1.4,3.1-3.1s-1.4-3.1-3.1-3.1c-0.7,0-1.3,0.2-1.8,0.6c-0.6-1.2-1.7-2-3-2.2
		c1.1-1.7,1.7-3.7,1.7-5.8c0-1.4-0.3-2.7-0.7-3.9c3.2-1.2,5.4-4.2,5.4-7.8c0-2.1-0.8-4-2-5.4c2.3-0.8,4-3,4-5.5c0-2.1-1.2-4-2.8-5
		c0.8-1,1.3-2.3,1.3-3.6c0-0.4-0.1-0.7-0.1-1c1.2-0.1,2.3-0.5,3.2-1.2c-0.1,0.4-0.1,0.7-0.1,1.1c0,2.1,1.1,3.9,2.7,4.9
		c-0.3,0.9-0.5,1.9-0.5,2.8c0,3.4,2,6.3,4.9,7.6c-0.3,1-0.4,2-0.4,3c0,3.5,1.7,6.7,4.2,8.7c-2.3,1-3.8,3.2-3.8,5.9s1.6,4.9,3.8,5.9
		c-0.5,0.8-0.7,1.7-0.7,2.7c0,2.1,1.3,3.9,3,4.8c-0.5,1.3-0.8,2.7-0.8,4.1c0,1.8,0.4,3.4,1.2,4.9c-0.4,0.4-0.7,0.8-1,1.3
		c-0.6-0.6-1.3-0.9-2.2-0.9c-1.7,0-3.1,1.4-3.1,3.1c0,1.7,1.4,3.1,3.1,3.1c0.2,0,0.3,0,0.4-0.1c0,0.3-0.1,0.6-0.1,0.9
		c0,2.1,0.6,4.1,1.7,5.8c-0.9,1.7-1.4,3.6-1.4,5.7c0,3.1,1.2,6,3.1,8.1c-0.6,0.9-0.9,1.9-0.9,3c0,3.1,2.5,5.7,5.7,5.7
		c2.8,0,5.1-2,5.6-4.7c1.6-0.2,3-0.6,4.3-1.3c0.7,1.5,2.2,2.5,3.9,2.5c2.4,0,4.3-1.9,4.3-4.3c0-1.8-1.1-3.3-2.7-3.9
		c0.5-0.9,0.8-1.9,0.9-3c0.9,0.3,1.9,0.4,2.9,0.4c0.1,0,0.3,0,0.4,0c0.8,1.9,2.6,3.3,4.8,3.3c1.7,0,3.2-0.8,4.1-2.1
		c0.6,1.9,2.3,3.4,4.4,3.4c1.6,0,3-0.8,3.8-2.1c0.9,0.6,1.9,0.9,3,0.9c3.2,0,5.8-2.6,5.8-5.8c0-1.1-0.3-2.1-0.8-2.9
		c0.5,0.2,0.9,0.2,1.4,0.2c2.5,0,4.6-2.1,4.6-4.6c0-0.2,0-0.4-0.1-0.7c1,1.9,2.9,3.2,5.2,3.2c3.2,0,5.7-2.5,5.8-5.7
		c1.5-1,2.6-2.6,2.8-4.4c0.3,0.1,0.6,0.2,1,0.2c1.7,0,3.1-1.4,3.1-3.1c0-0.4-0.1-0.7-0.2-1l-4.7-1.5l-48.6-15.6l-0.2-20.7
		c7.4-7.9,13.1-18.1,17.3-29.3c7.9-21,12.1-43.2,12.1-54.9c0-30-28.8-69.2-64.3-69.2s-64.3,31-64.3,69.3c0,24.9,9.3,59.7,27.4,81.1
		l-2.2,22.6L295.9,412.7z M370,426.5v0.2l-0.2-0.1C369.8,426.6,369.9,426.5,370,426.5z"/>
	<path d="M385.6,531.1c2.6,0,4.8-2.1,4.8-4.7c0-1.9-1.2-3.6-2.8-4.3c0.3-0.5,0.5-1.1,0.5-1.7c0-1.9-1.5-3.4-3.4-3.4h-0.1
		c-1.9,0-3.4,1.5-3.4,3.4c0,1,0.5,1.9,1.2,2.6c-0.9,0.9-1.5,2.1-1.5,3.4C380.8,529.1,382.9,531.1,385.6,531.1z"/>
	<path d="M417.2,486.1c0-2.5-2.1-4.6-4.6-4.6c-2.5,0-4.6,2.1-4.6,4.6c0,0.6,0.1,1.1,0.3,1.7c-1.7,0.3-2.9,1.7-2.9,3.4
		c0,0.5,0.1,1,0.3,1.4c0.5,1.2,1.7,2.1,3,2.1h0.1c1.9,0,3.4-1.5,3.4-3.4c0-0.2-0.1-0.3-0.1-0.5c0.2,0,0.3,0,0.4,0
		C415.1,490.7,417.2,488.6,417.2,486.1z"/>
	<path d="M376.2,444.1c0,1.7,1.4,3.1,3.1,3.1c1.7,0,3.1-1.4,3.1-3.1c0-1.7-1.4-3.1-3.1-3.1C377.5,441,376.2,442.3,376.2,444.1z"/>
	<path d="M487.9,418.5C487.9,418.5,487.9,418.5,487.9,418.5C487.9,418.5,487.9,418.5,487.9,418.5L487.9,418.5z"/>
	<path d="M382.1,584.3c0-2.8-0.9-5.3-2.3-7.4c2.4-1.5,3.9-4.1,3.9-7.1c0-3.4-2-6.3-4.9-7.6c1.2-0.9,1.9-2.2,1.9-3.8
		c0-1.6-0.8-3-2-3.9c0.7-0.8,1.1-1.9,1.1-3c0-2.6-2.1-4.7-4.8-4.7c-0.4,0-0.8,0.1-1.2,0.2c0.6-1.1,0.9-2.3,0.9-3.6
		c0-1.2-0.3-2.4-0.8-3.4c2.5-0.2,4.4-2.2,4.4-4.7c0-2-1.3-3.8-3.1-4.4c1.8-1.5,2.9-3.8,2.9-6.3c0-2.9-1.5-5.4-3.7-6.9
		c1.3-1.5,2.1-3.4,2.1-5.5c0-1.9-0.6-3.5-1.6-4.9c1.3-0.5,2.3-1.7,2.3-3.2c0-1.9-1.5-3.4-3.4-3.4c-1.2,0-2.2,0.6-2.8,1.5
		c-1.5-1.9-3.9-3.1-6.5-3.1c-1.2,0-2.4,0.3-3.4,0.8c-0.8-1.5-2.4-2.5-4.2-2.5l0.2-0.2c-2.6,0-4.8,2.1-4.8,4.7c0,2.4,1.8,4.3,4,4.7
		c0,0.2-0.1,0.4-0.1,0.6c-1.5-1.2-3.3-1.9-5.3-1.9c-3,0-5.7,1.6-7.1,4c-1.3-1.4-3-2.2-5-2.2c-3.2,0-5.8,2.2-6.5,5.1
		c-1.1-0.8-2.4-1.2-3.8-1.2c-3.7,0-6.8,3-6.8,6.8c0,0.5,0.1,1,0.2,1.5c-1.8-1.6-4.2-2.6-6.8-2.6c-4.2,0-7.7,2.5-9.2,6.1
		c-1.1-0.8-2.4-1.2-3.8-1.2c-3.7,0-6.8,3-6.8,6.8c0,0.6,0.1,1.1,0.2,1.6l-2.3-2.4c-0.3,2.4-2,4.6-5.2,4.6c-6.7,0-7-9.9-0.8-10.8
		l-44.3-45.2V613h134.5c1.1-0.5,1.8-1.5,1.8-2.8c0-1.2-0.7-2.2-1.7-2.7c1.2-0.4,2-1.5,2-2.8c0-1.2-0.8-2.3-1.8-2.7
		c1.1-0.7,1.8-1.9,1.8-3.2c0-1.9-1.3-3.4-3-3.8C379.8,592.7,382.1,588.7,382.1,584.3z M282.1,537.7c-4.1,0-4.1-6.4,0-6.4
		C286.3,531.3,286.3,537.7,282.1,537.7z"/>
	<path d="M508.3,425.2c-2.6-0.9-20.1-6.6-20.4-6.7c-2,0.2-3.7,1.7-4.1,3.7c-0.6-0.3-1.3-0.5-2.1-0.5c-2.5,0-4.6,2.1-4.6,4.6
		c0,0.3,0,0.5,0.1,0.7c-1.4-1.1-3.1-1.7-5-1.7c-4.6,0-8.3,3.7-8.3,8.3v0.1c-0.9-0.2-1.7-0.4-2.6-0.4c-6.1,0-11,4.9-11,11
		c0,0.6,0.1,1.1,0.2,1.7c-0.7-0.3-1.4-0.5-2.1-0.5c-1.8,0-3.3,0.9-4.2,2.1c-1-0.4-2.1-0.5-3.2-0.5c-5.4,0-9.8,4.3-10,9.6
		c-0.4-0.1-0.7-0.1-1.1-0.1c-2.9,0-5.3,2.4-5.3,5.3c0,0.9,0.2,1.7,0.6,2.5c-0.9-0.5-1.8-0.8-2.9-0.8c-3.2,0-5.8,2.6-5.8,5.8
		c0,1.7,0.7,3.2,1.9,4.2v0.1c-1.4,0.2-2.5,1.1-2.9,2.3c-0.2,0.4-0.3,0.8-0.3,1.3c0,1.1,0.6,2,1.4,2.6c0.6,0.5,1.3,0.7,2.1,0.7
		c1.5,0,2.7-0.9,3.2-2.2c0.8,0.5,1.7,0.7,2.7,0.7c0.5,0,0.9-0.1,1.3-0.2c-0.1,0.4-0.1,0.7-0.1,1.1c0,1.3,0.3,2.6,0.8,3.8
		c-1.9,0.5-3.3,2.1-3.3,4.1c0,0.6,0.2,1.2,0.4,1.8c0.6,1.6,2.1,2.6,3.8,2.6c1.5,0,2.7-0.8,3.5-1.9c0.3-0.4,0.5-0.8,0.7-1.3
		c1.3,0.6,2.8,1,4.3,1c0.5,0,1-0.1,1.4-0.1c-0.3,0.8-0.5,1.5-0.5,2.4c0,1.1,0.3,2.1,0.8,3c-0.2-0.1-0.5-0.1-0.7-0.1
		c-1.9,0-3.4,1.5-3.4,3.4c0,1.9,1.5,3.4,3.4,3.4c1.7,0,3.1-1.3,3.4-2.9c0.9,3.6,4.2,6.3,8,6.3c1.8,0,3.4-0.6,4.7-1.5
		c0.4,3.4,3.3,5.9,6.7,5.9c1.8,0,3.4-0.7,4.6-1.8c0,0.2-0.1,0.4-0.1,0.6c0,4.6,3.7,8.3,8.3,8.3c1.6,0,3.1-0.5,4.3-1.2
		c-0.7,0.9-1,1.9-1,3.1c0,2.3,1.5,4.3,3.6,4.9l0,0c0.5,0,1,0.2,1.4,0.3c0.5-0.8,1.4-1.4,2.6-1.4c3.9,0,4.1,5.7,0.7,6.3
		c0.1,2.7-1.7,5.5-5.2,5.5c-4.7,0-6.3-5-4.6-8.2c-0.9-1.1-2.2-1.8-3.7-1.8c-0.8,0-1.6,0.2-2.3,0.6c-0.8-2.8-3.4-4.9-6.5-4.9
		c-1.3,0-2.6,0.4-3.6,1.1c0-0.2,0.1-0.4,0.1-0.5c0-4.6-3.7-8.3-8.3-8.3c-1.1,0-2.1,0.2-3.1,0.6c-0.1-2.5-2.2-4.5-4.7-4.5
		c-2.6,0-4.7,2.1-4.7,4.8c0,0.2,0,0.4,0.1,0.6c-1.2-1.9-3.3-3.2-5.7-3.2c-0.4,0-0.8,0.1-1.2,0.1c-0.1-4.6-3.8-8.2-8.3-8.2
		c-0.5,0-0.9,0.1-1.4,0.1c-0.2-2.4-2.3-4.3-4.7-4.3c-2.1,0-3.8,1.3-4.4,3.1c-0.2,0-0.4-0.1-0.7-0.1c-1,0-1.9,0.2-2.8,0.4
		c-0.8-2.2-2.9-3.7-5.3-3.7l0.1,0.3c-3.1,0-5.7,2.6-5.7,5.7c0,1,0.3,1.9,0.7,2.7c-0.8-0.7-1.9-1.1-3-1.1c-2.6,0-4.8,2.1-4.8,4.7
		c0,2.3,1.6,4.1,3.7,4.6c-0.6,1.2-1,2.5-1,3.9c0,2.7,1.3,5.1,3.3,6.6c-0.8,1.4-1.2,3.1-1.2,4.8c0,2.7,1.1,5.1,2.8,6.9
		c-0.6,1.3-0.9,2.6-0.9,4.1c0,0.6,0.1,1.1,0.2,1.7c-0.7-0.5-1.5-0.8-2.4-0.9c0.6-0.8,0.9-1.8,0.9-2.8c0-2.6-2.1-4.7-4.8-4.7
		c-2.6,0-4.8,2.1-4.8,4.7c0,1.3,0.5,2.4,1.3,3.2c-2,0.6-3.4,2.4-3.4,4.5c0,2.6,2.1,4.7,4.8,4.7c0.2,0,0.3-0.1,0.5-0.1
		c-0.9,1.5-1.4,3.2-1.4,5.1c0,3.5,1.8,6.6,4.5,8.4c-3.6,1.6-6.1,5.1-6.1,9.3c0,3,1.4,5.7,3.5,7.6c-2.2,1.5-3.6,4-3.6,6.9
		c0,1.2,0.3,2.3,0.7,3.3c-0.6,1-1,2.2-1,3.5c0,1.5,0.5,2.8,1.3,3.9c-0.7,0.6-1.2,1.4-1.2,2.3c0,1,0.5,1.9,1.3,2.5
		c-0.8,0.6-1.4,1.5-1.4,2.5c0,0.2,0,0.4,0.1,0.6c-0.7,0.6-1.1,1.4-1.1,2.3c0,0.8,0.3,1.4,0.7,2l-1.5,1.5h146V450.1
		C530.3,440.8,520.4,429.3,508.3,425.2z M485.4,538.4c-4.1,0-4.1-6.4,0-6.4C489.6,532,489.5,538.4,485.4,538.4z"/>
	<path d="M359,469.4c2.4,0,4.3-1.9,4.3-4.3s-1.9-4.3-4.3-4.3c-1.2,0-2.2,0.5-3,1.3c-0.4-1.3-1.6-2.3-3-2.3c-1.7,0-3.1,1.4-3.1,3.1
		s1.4,3.1,3.1,3.1c0.7,0,1.3-0.2,1.8-0.6C354.9,467.7,356.8,469.4,359,469.4z"/>
	<path d="M352.2,487.9c-1.9,0-3.4,1.5-3.4,3.4c0,1.9,1.5,3.4,3.4,3.4c1.9,0,3.4-1.5,3.4-3.4S354.1,487.9,352.2,487.9z"/>
	<path d="M355.4,448.6c0-2.4-2-4.4-4.4-4.4s-4.4,2-4.4,4.4c0,2.4,2,4.4,4.4,4.4S355.4,451,355.4,448.6z"/>
	<path d="M349.6,479.1c0.4-0.8,0.6-1.7,0.6-2.7c0-0.6-0.1-1.2-0.3-1.7c1.7,0,3.1-1.4,3.1-3.1s-1.4-3.1-3.1-3.1h-0.3
		c-0.2-2.6-1.5-4.8-3.4-6.2c0-0.2,0.1-0.4,0.1-0.6c0-4.6-3.7-8.3-8.3-8.3c-1.6,0-3.1,0.5-4.4,1.3c0.2-0.5,0.3-1,0.3-1.6
		c0-2.4-2-4.4-4.4-4.4c-0.5,0-0.9,0.1-1.3,0.2c0.1-0.4,0.1-0.8,0.1-1.2c0-4.6-3.7-8.3-8.3-8.3c-1.4,0-2.8,0.4-3.9,1
		c-1.1-1.7-2.7-3-4.7-3.6c0.3-0.6,0.4-1.2,0.4-1.8c0-2.4-2-4.4-4.4-4.4c-0.6,0-1.1,0.1-1.6,0.3c-0.1-4.6-3.8-8.3-8.3-8.3
		c-0.8,0-1.5,0.1-2.2,0.3c-0.7-1.6-2.2-2.7-4-2.7c-1.1,0-2.1,0.4-2.8,1c-0.3-2.1-2.1-3.8-4.3-3.8l-0.1-0.1c-0.9,0-1.6,0.3-2.3,0.7
		c-11.6,4.4-21.1,8.1-24.8,9.6c-8.1,3.3-14.2,12-14.2,20.6v27.8l44.5,45.2c0.2,0,0.5,0,0.7,0c1,0,1.9,0.2,2.6,0.6
		c1.9-0.4,3.5-1.6,4.5-3.2c0.9,0.4,1.9,0.6,2.9,0.6c4.6,0,8.3-3.7,8.3-8.3c0-0.4-0.1-0.7-0.1-1c1.3,1.5,3.1,2.5,5.2,2.5
		c3.7,0,6.8-3,6.8-6.8c0-1-0.3-2-0.6-2.8c1.4-0.5,2.5-1.4,3.3-2.5c0.9,0.9,2.1,1.4,3.4,1.4c2.6,0,4.8-2.1,4.8-4.7
		c0-1.4-0.6-2.6-1.5-3.5c1.7-0.9,3.1-2.4,3.6-4.3c1.1,1.2,2.6,2,4.3,2.2c-0.7,0.8-1.1,1.9-1.1,3c0,2.6,2.1,4.7,4.8,4.7
		s4.8-2.1,4.8-4.7c0-2.2-1.4-3.9-3.4-4.5c1.5-1.3,2.5-3.1,2.5-5.2c0-0.6-0.1-1.2-0.3-1.8c0.2,0,0.4,0.1,0.6,0.1c1,0,1.9-0.2,2.7-0.6
		c0.1,1.8,1.6,3.3,3.4,3.3c1.9,0,3.4-1.5,3.4-3.4C352.8,480.6,351.4,479.1,349.6,479.1z"/>
</g>
</svg>
