<?xml version="1.0" encoding="UTF-8" standalone="no"?>
<!-- Generator: Adobe Illustrator 24.1.0, SVG Export Plug-In . SVG Version: 6.00 Build 0)  -->

<svg
   xmlns:dc="http://purl.org/dc/elements/1.1/"
   xmlns:cc="http://creativecommons.org/ns#"
   xmlns:rdf="http://www.w3.org/1999/02/22-rdf-syntax-ns#"
   xmlns:svg="http://www.w3.org/2000/svg"
   xmlns="http://www.w3.org/2000/svg"
   xmlns:sodipodi="http://sodipodi.sourceforge.net/DTD/sodipodi-0.dtd"
   xmlns:inkscape="http://www.inkscape.org/namespaces/inkscape"
   version="1.1"
   id="svg8"
   inkscape:export-filename="/media/juhele/data_2TB/_GRAFIKA/GHS hazard symbols/GHS06_toxic_substances.png"
   inkscape:export-xdpi="99.027519"
   inkscape:export-ydpi="99.027519"
   inkscape:version="0.92.5 (2060ec1f9f, 2020-04-08)"
   sodipodi:docname="128.svg"
   x="0px"
   y="0px"
   viewBox="0 0 125 125"
   xml:space="preserve"
   width="125"
   height="125"><metadata
   id="metadata2691"><rdf:RDF><cc:Work
       rdf:about=""><dc:format>image/svg+xml</dc:format><dc:type
         rdf:resource="http://purl.org/dc/dcmitype/StillImage" /><dc:title></dc:title></cc:Work></rdf:RDF></metadata><defs
   id="defs2689" /><sodipodi:namedview
   pagecolor="#ffffff"
   bordercolor="#666666"
   borderopacity="1"
   objecttolerance="10"
   gridtolerance="10"
   guidetolerance="10"
   inkscape:pageopacity="0"
   inkscape:pageshadow="2"
   inkscape:window-width="1920"
   inkscape:window-height="1017"
   id="namedview2687"
   showgrid="false"
   inkscape:zoom="1.0934881"
   inkscape:cx="387.79999"
   inkscape:cy="387.75"
   inkscape:window-x="-8"
   inkscape:window-y="-8"
   inkscape:window-maximized="1"
   inkscape:current-layer="svg8" />
<style
   type="text/css"
   id="style2648">
	.st0{fill:#FFEB1D;}
</style>

<g
   id="g2711"
   transform="matrix(0.08406927,0,0,0.08406927,29.927361,33.508712)"><g
     id="g2654">
	<polygon
   id="polygon2650"
   points="387,36.4 746.6,657.8 28.2,657.8 "
   class="st0"
   style="fill:#ffeb1d" />
	<path
   id="path2652"
   d="m 411.7,41.6 v 0 0 M 387,84.4 705,633.8 H 69.8 L 387,84.4 m 0,-76.5 c -6.6,0 -13.1,3.2 -16.9,9.7 L 3.5,652.6 c -7.5,13 1.9,29.2 16.9,29.2 h 734.1 c 15,0 24.4,-16.2 16.9,-29.2 L 404,17.6 C 400.1,11.1 393.5,7.9 387,7.9 Z"
   inkscape:connector-curvature="0" />
</g><g
     id="g2684">
	<path
   id="path2656"
   d="m 389.5,426.9 c -0.1,-2.4 -2,-4.3 -4.3,-4.3 -2.4,0 -4.3,1.9 -4.3,4.3 0,1.6 0.9,3 2.3,3.7 -1.3,0.4 -2.2,1.6 -2.2,2.9 0,1.7 1.4,3.1 3.1,3.1 1.7,0 3.1,-1.4 3.1,-3.1 0,-1 -0.5,-1.9 -1.3,-2.5 2,-0.3 3.6,-2 3.6,-4.1 z"
   inkscape:connector-curvature="0" />
	<path
   id="path2658"
   d="m 372.7,491.6 c 0,2.4 1.9,4.3 4.3,4.3 2.4,0 4.3,-1.9 4.3,-4.3 -0.1,-2.4 -2,-4.3 -4.3,-4.3 -2.4,0 -4.3,1.9 -4.3,4.3 z"
   inkscape:connector-curvature="0" />
	<path
   id="path2660"
   d="m 410.6,458.7 c 0,-0.8 -0.2,-1.5 -0.6,-2.1 -0.7,-1.6 -2.3,-2.7 -4.2,-2.7 -0.8,0 -1.5,0.2 -2.1,0.5 -0.4,-1.4 -1.7,-2.4 -3.3,-2.5 -1.9,0 -3.4,1.6 -3.4,3.4 0,1.9 1.6,3.4 3.4,3.4 0.3,0 0.6,-0.1 0.8,-0.1 0.2,2.4 2.1,4.3 4.6,4.3 0.4,0 0.7,-0.1 1,-0.1 2.1,-0.1 3.8,-1.9 3.8,-4.1 z"
   inkscape:connector-curvature="0" />
	<path
   id="path2662"
   d="m 295.9,412.7 c 0.8,3.8 4.1,6.6 8.1,6.6 0.7,0 1.4,-0.1 2.1,-0.3 0.9,3.6 4.2,6.2 8,6.2 0.4,0 0.8,-0.1 1.2,-0.1 1,3.6 4.2,6.2 8,6.2 1.2,0 2.2,-0.3 3.2,-0.7 0.3,2.7 2.5,4.8 5.3,4.8 0.6,0 1.1,-0.1 1.6,-0.3 0.7,3.9 4.1,6.9 8.2,6.9 3.2,0 6,-1.8 7.4,-4.5 1.4,1.1 3.2,1.7 5,1.7 1.2,0 2.4,-0.3 3.4,-0.8 1.1,2.3 3.1,4.1 5.6,4.8 -0.1,0.3 -0.2,0.6 -0.2,1 0,1.7 1.4,3.1 3.1,3.1 1.7,0 3.1,-1.4 3.1,-3.1 0,-0.4 -0.1,-0.8 -0.2,-1.1 3.6,-1.3 6.1,-4.6 6.1,-8.6 0,-1.8 -0.6,-3.5 -1.5,-5 1.5,-0.2 2.7,-1.5 2.7,-3 0,-1.3 -0.9,-2.5 -2,-2.9 1.3,-1.5 2.1,-3.4 2.1,-5.5 0,-0.4 -0.1,-0.8 -0.1,-1.2 3.2,-1.2 5.4,-4.2 5.4,-7.8 0,-2.2 -0.9,-4.2 -2.3,-5.7 0.3,0.1 0.6,0.2 0.8,0.2 1.7,0 3.1,-1.4 3.1,-3.1 0,-1.7 -1.4,-3.1 -3.1,-3.1 -0.7,0 -1.3,0.2 -1.8,0.6 -0.6,-1.2 -1.7,-2 -3,-2.2 1.1,-1.7 1.7,-3.7 1.7,-5.8 0,-1.4 -0.3,-2.7 -0.7,-3.9 3.2,-1.2 5.4,-4.2 5.4,-7.8 0,-2.1 -0.8,-4 -2,-5.4 2.3,-0.8 4,-3 4,-5.5 0,-2.1 -1.2,-4 -2.8,-5 0.8,-1 1.3,-2.3 1.3,-3.6 0,-0.4 -0.1,-0.7 -0.1,-1 1.2,-0.1 2.3,-0.5 3.2,-1.2 -0.1,0.4 -0.1,0.7 -0.1,1.1 0,2.1 1.1,3.9 2.7,4.9 -0.3,0.9 -0.5,1.9 -0.5,2.8 0,3.4 2,6.3 4.9,7.6 -0.3,1 -0.4,2 -0.4,3 0,3.5 1.7,6.7 4.2,8.7 -2.3,1 -3.8,3.2 -3.8,5.9 0,2.7 1.6,4.9 3.8,5.9 -0.5,0.8 -0.7,1.7 -0.7,2.7 0,2.1 1.3,3.9 3,4.8 -0.5,1.3 -0.8,2.7 -0.8,4.1 0,1.8 0.4,3.4 1.2,4.9 -0.4,0.4 -0.7,0.8 -1,1.3 -0.6,-0.6 -1.3,-0.9 -2.2,-0.9 -1.7,0 -3.1,1.4 -3.1,3.1 0,1.7 1.4,3.1 3.1,3.1 0.2,0 0.3,0 0.4,-0.1 0,0.3 -0.1,0.6 -0.1,0.9 0,2.1 0.6,4.1 1.7,5.8 -0.9,1.7 -1.4,3.6 -1.4,5.7 0,3.1 1.2,6 3.1,8.1 -0.6,0.9 -0.9,1.9 -0.9,3 0,3.1 2.5,5.7 5.7,5.7 2.8,0 5.1,-2 5.6,-4.7 1.6,-0.2 3,-0.6 4.3,-1.3 0.7,1.5 2.2,2.5 3.9,2.5 2.4,0 4.3,-1.9 4.3,-4.3 0,-1.8 -1.1,-3.3 -2.7,-3.9 0.5,-0.9 0.8,-1.9 0.9,-3 0.9,0.3 1.9,0.4 2.9,0.4 0.1,0 0.3,0 0.4,0 0.8,1.9 2.6,3.3 4.8,3.3 1.7,0 3.2,-0.8 4.1,-2.1 0.6,1.9 2.3,3.4 4.4,3.4 1.6,0 3,-0.8 3.8,-2.1 0.9,0.6 1.9,0.9 3,0.9 3.2,0 5.8,-2.6 5.8,-5.8 0,-1.1 -0.3,-2.1 -0.8,-2.9 0.5,0.2 0.9,0.2 1.4,0.2 2.5,0 4.6,-2.1 4.6,-4.6 0,-0.2 0,-0.4 -0.1,-0.7 1,1.9 2.9,3.2 5.2,3.2 3.2,0 5.7,-2.5 5.8,-5.7 1.5,-1 2.6,-2.6 2.8,-4.4 0.3,0.1 0.6,0.2 1,0.2 1.7,0 3.1,-1.4 3.1,-3.1 0,-0.4 -0.1,-0.7 -0.2,-1 l -4.7,-1.5 -48.6,-15.6 -0.2,-20.7 c 7.4,-7.9 13.1,-18.1 17.3,-29.3 7.9,-21 12.1,-43.2 12.1,-54.9 0,-30 -28.8,-69.2 -64.3,-69.2 -35.5,0 -64.3,31 -64.3,69.3 0,24.9 9.3,59.7 27.4,81.1 l -2.2,22.6 z m 74.1,13.8 v 0.2 l -0.2,-0.1 c 0,0 0.1,-0.1 0.2,-0.1 z"
   inkscape:connector-curvature="0" />
	<path
   id="path2664"
   d="m 385.6,531.1 c 2.6,0 4.8,-2.1 4.8,-4.7 0,-1.9 -1.2,-3.6 -2.8,-4.3 0.3,-0.5 0.5,-1.1 0.5,-1.7 0,-1.9 -1.5,-3.4 -3.4,-3.4 h -0.1 c -1.9,0 -3.4,1.5 -3.4,3.4 0,1 0.5,1.9 1.2,2.6 -0.9,0.9 -1.5,2.1 -1.5,3.4 -0.1,2.7 2,4.7 4.7,4.7 z"
   inkscape:connector-curvature="0" />
	<path
   id="path2666"
   d="m 417.2,486.1 c 0,-2.5 -2.1,-4.6 -4.6,-4.6 -2.5,0 -4.6,2.1 -4.6,4.6 0,0.6 0.1,1.1 0.3,1.7 -1.7,0.3 -2.9,1.7 -2.9,3.4 0,0.5 0.1,1 0.3,1.4 0.5,1.2 1.7,2.1 3,2.1 h 0.1 c 1.9,0 3.4,-1.5 3.4,-3.4 0,-0.2 -0.1,-0.3 -0.1,-0.5 0.2,0 0.3,0 0.4,0 2.6,-0.1 4.7,-2.2 4.7,-4.7 z"
   inkscape:connector-curvature="0" />
	<path
   id="path2668"
   d="m 376.2,444.1 c 0,1.7 1.4,3.1 3.1,3.1 1.7,0 3.1,-1.4 3.1,-3.1 0,-1.7 -1.4,-3.1 -3.1,-3.1 -1.8,0 -3.1,1.3 -3.1,3.1 z"
   inkscape:connector-curvature="0" />
	<path
   id="path2670"
   d="m 487.9,418.5 c 0,0 0,0 0,0 0,0 0,0 0,0 z"
   inkscape:connector-curvature="0" />
	<path
   id="path2672"
   d="m 382.1,584.3 c 0,-2.8 -0.9,-5.3 -2.3,-7.4 2.4,-1.5 3.9,-4.1 3.9,-7.1 0,-3.4 -2,-6.3 -4.9,-7.6 1.2,-0.9 1.9,-2.2 1.9,-3.8 0,-1.6 -0.8,-3 -2,-3.9 0.7,-0.8 1.1,-1.9 1.1,-3 0,-2.6 -2.1,-4.7 -4.8,-4.7 -0.4,0 -0.8,0.1 -1.2,0.2 0.6,-1.1 0.9,-2.3 0.9,-3.6 0,-1.2 -0.3,-2.4 -0.8,-3.4 2.5,-0.2 4.4,-2.2 4.4,-4.7 0,-2 -1.3,-3.8 -3.1,-4.4 1.8,-1.5 2.9,-3.8 2.9,-6.3 0,-2.9 -1.5,-5.4 -3.7,-6.9 1.3,-1.5 2.1,-3.4 2.1,-5.5 0,-1.9 -0.6,-3.5 -1.6,-4.9 1.3,-0.5 2.3,-1.7 2.3,-3.2 0,-1.9 -1.5,-3.4 -3.4,-3.4 -1.2,0 -2.2,0.6 -2.8,1.5 -1.5,-1.9 -3.9,-3.1 -6.5,-3.1 -1.2,0 -2.4,0.3 -3.4,0.8 -0.8,-1.5 -2.4,-2.5 -4.2,-2.5 l 0.2,-0.2 c -2.6,0 -4.8,2.1 -4.8,4.7 0,2.4 1.8,4.3 4,4.7 0,0.2 -0.1,0.4 -0.1,0.6 -1.5,-1.2 -3.3,-1.9 -5.3,-1.9 -3,0 -5.7,1.6 -7.1,4 -1.3,-1.4 -3,-2.2 -5,-2.2 -3.2,0 -5.8,2.2 -6.5,5.1 -1.1,-0.8 -2.4,-1.2 -3.8,-1.2 -3.7,0 -6.8,3 -6.8,6.8 0,0.5 0.1,1 0.2,1.5 -1.8,-1.6 -4.2,-2.6 -6.8,-2.6 -4.2,0 -7.7,2.5 -9.2,6.1 -1.1,-0.8 -2.4,-1.2 -3.8,-1.2 -3.7,0 -6.8,3 -6.8,6.8 0,0.6 0.1,1.1 0.2,1.6 l -2.3,-2.4 c -0.3,2.4 -2,4.6 -5.2,4.6 -6.7,0 -7,-9.9 -0.8,-10.8 L 242.9,476.2 V 613 h 134.5 c 1.1,-0.5 1.8,-1.5 1.8,-2.8 0,-1.2 -0.7,-2.2 -1.7,-2.7 1.2,-0.4 2,-1.5 2,-2.8 0,-1.2 -0.8,-2.3 -1.8,-2.7 1.1,-0.7 1.8,-1.9 1.8,-3.2 0,-1.9 -1.3,-3.4 -3,-3.8 3.3,-2.3 5.6,-6.3 5.6,-10.7 z m -100,-46.6 c -4.1,0 -4.1,-6.4 0,-6.4 4.2,0 4.2,6.4 0,6.4 z"
   inkscape:connector-curvature="0" />
	<path
   id="path2674"
   d="m 508.3,425.2 c -2.6,-0.9 -20.1,-6.6 -20.4,-6.7 -2,0.2 -3.7,1.7 -4.1,3.7 -0.6,-0.3 -1.3,-0.5 -2.1,-0.5 -2.5,0 -4.6,2.1 -4.6,4.6 0,0.3 0,0.5 0.1,0.7 -1.4,-1.1 -3.1,-1.7 -5,-1.7 -4.6,0 -8.3,3.7 -8.3,8.3 v 0.1 c -0.9,-0.2 -1.7,-0.4 -2.6,-0.4 -6.1,0 -11,4.9 -11,11 0,0.6 0.1,1.1 0.2,1.7 -0.7,-0.3 -1.4,-0.5 -2.1,-0.5 -1.8,0 -3.3,0.9 -4.2,2.1 -1,-0.4 -2.1,-0.5 -3.2,-0.5 -5.4,0 -9.8,4.3 -10,9.6 -0.4,-0.1 -0.7,-0.1 -1.1,-0.1 -2.9,0 -5.3,2.4 -5.3,5.3 0,0.9 0.2,1.7 0.6,2.5 -0.9,-0.5 -1.8,-0.8 -2.9,-0.8 -3.2,0 -5.8,2.6 -5.8,5.8 0,1.7 0.7,3.2 1.9,4.2 v 0.1 c -1.4,0.2 -2.5,1.1 -2.9,2.3 -0.2,0.4 -0.3,0.8 -0.3,1.3 0,1.1 0.6,2 1.4,2.6 0.6,0.5 1.3,0.7 2.1,0.7 1.5,0 2.7,-0.9 3.2,-2.2 0.8,0.5 1.7,0.7 2.7,0.7 0.5,0 0.9,-0.1 1.3,-0.2 -0.1,0.4 -0.1,0.7 -0.1,1.1 0,1.3 0.3,2.6 0.8,3.8 -1.9,0.5 -3.3,2.1 -3.3,4.1 0,0.6 0.2,1.2 0.4,1.8 0.6,1.6 2.1,2.6 3.8,2.6 1.5,0 2.7,-0.8 3.5,-1.9 0.3,-0.4 0.5,-0.8 0.7,-1.3 1.3,0.6 2.8,1 4.3,1 0.5,0 1,-0.1 1.4,-0.1 -0.3,0.8 -0.5,1.5 -0.5,2.4 0,1.1 0.3,2.1 0.8,3 -0.2,-0.1 -0.5,-0.1 -0.7,-0.1 -1.9,0 -3.4,1.5 -3.4,3.4 0,1.9 1.5,3.4 3.4,3.4 1.7,0 3.1,-1.3 3.4,-2.9 0.9,3.6 4.2,6.3 8,6.3 1.8,0 3.4,-0.6 4.7,-1.5 0.4,3.4 3.3,5.9 6.7,5.9 1.8,0 3.4,-0.7 4.6,-1.8 0,0.2 -0.1,0.4 -0.1,0.6 0,4.6 3.7,8.3 8.3,8.3 1.6,0 3.1,-0.5 4.3,-1.2 -0.7,0.9 -1,1.9 -1,3.1 0,2.3 1.5,4.3 3.6,4.9 v 0 c 0.5,0 1,0.2 1.4,0.3 0.5,-0.8 1.4,-1.4 2.6,-1.4 3.9,0 4.1,5.7 0.7,6.3 0.1,2.7 -1.7,5.5 -5.2,5.5 -4.7,0 -6.3,-5 -4.6,-8.2 -0.9,-1.1 -2.2,-1.8 -3.7,-1.8 -0.8,0 -1.6,0.2 -2.3,0.6 -0.8,-2.8 -3.4,-4.9 -6.5,-4.9 -1.3,0 -2.6,0.4 -3.6,1.1 0,-0.2 0.1,-0.4 0.1,-0.5 0,-4.6 -3.7,-8.3 -8.3,-8.3 -1.1,0 -2.1,0.2 -3.1,0.6 -0.1,-2.5 -2.2,-4.5 -4.7,-4.5 -2.6,0 -4.7,2.1 -4.7,4.8 0,0.2 0,0.4 0.1,0.6 -1.2,-1.9 -3.3,-3.2 -5.7,-3.2 -0.4,0 -0.8,0.1 -1.2,0.1 -0.1,-4.6 -3.8,-8.2 -8.3,-8.2 -0.5,0 -0.9,0.1 -1.4,0.1 -0.2,-2.4 -2.3,-4.3 -4.7,-4.3 -2.1,0 -3.8,1.3 -4.4,3.1 -0.2,0 -0.4,-0.1 -0.7,-0.1 -1,0 -1.9,0.2 -2.8,0.4 -0.8,-2.2 -2.9,-3.7 -5.3,-3.7 l 0.1,0.3 c -3.1,0 -5.7,2.6 -5.7,5.7 0,1 0.3,1.9 0.7,2.7 -0.8,-0.7 -1.9,-1.1 -3,-1.1 -2.6,0 -4.8,2.1 -4.8,4.7 0,2.3 1.6,4.1 3.7,4.6 -0.6,1.2 -1,2.5 -1,3.9 0,2.7 1.3,5.1 3.3,6.6 -0.8,1.4 -1.2,3.1 -1.2,4.8 0,2.7 1.1,5.1 2.8,6.9 -0.6,1.3 -0.9,2.6 -0.9,4.1 0,0.6 0.1,1.1 0.2,1.7 -0.7,-0.5 -1.5,-0.8 -2.4,-0.9 0.6,-0.8 0.9,-1.8 0.9,-2.8 0,-2.6 -2.1,-4.7 -4.8,-4.7 -2.6,0 -4.8,2.1 -4.8,4.7 0,1.3 0.5,2.4 1.3,3.2 -2,0.6 -3.4,2.4 -3.4,4.5 0,2.6 2.1,4.7 4.8,4.7 0.2,0 0.3,-0.1 0.5,-0.1 -0.9,1.5 -1.4,3.2 -1.4,5.1 0,3.5 1.8,6.6 4.5,8.4 -3.6,1.6 -6.1,5.1 -6.1,9.3 0,3 1.4,5.7 3.5,7.6 -2.2,1.5 -3.6,4 -3.6,6.9 0,1.2 0.3,2.3 0.7,3.3 -0.6,1 -1,2.2 -1,3.5 0,1.5 0.5,2.8 1.3,3.9 -0.7,0.6 -1.2,1.4 -1.2,2.3 0,1 0.5,1.9 1.3,2.5 -0.8,0.6 -1.4,1.5 -1.4,2.5 0,0.2 0,0.4 0.1,0.6 -0.7,0.6 -1.1,1.4 -1.1,2.3 0,0.8 0.3,1.4 0.7,2 l -1.5,1.5 h 146 V 450.1 c 0,-9.3 -9.9,-20.8 -22,-24.9 z m -22.9,113.2 c -4.1,0 -4.1,-6.4 0,-6.4 4.2,0 4.1,6.4 0,6.4 z"
   inkscape:connector-curvature="0" />
	<path
   id="path2676"
   d="m 359,469.4 c 2.4,0 4.3,-1.9 4.3,-4.3 0,-2.4 -1.9,-4.3 -4.3,-4.3 -1.2,0 -2.2,0.5 -3,1.3 -0.4,-1.3 -1.6,-2.3 -3,-2.3 -1.7,0 -3.1,1.4 -3.1,3.1 0,1.7 1.4,3.1 3.1,3.1 0.7,0 1.3,-0.2 1.8,-0.6 0.1,2.3 2,4 4.2,4 z"
   inkscape:connector-curvature="0" />
	<path
   id="path2678"
   d="m 352.2,487.9 c -1.9,0 -3.4,1.5 -3.4,3.4 0,1.9 1.5,3.4 3.4,3.4 1.9,0 3.4,-1.5 3.4,-3.4 0,-1.9 -1.5,-3.4 -3.4,-3.4 z"
   inkscape:connector-curvature="0" />
	<path
   id="path2680"
   d="m 355.4,448.6 c 0,-2.4 -2,-4.4 -4.4,-4.4 -2.4,0 -4.4,2 -4.4,4.4 0,2.4 2,4.4 4.4,4.4 2.4,0 4.4,-2 4.4,-4.4 z"
   inkscape:connector-curvature="0" />
	<path
   id="path2682"
   d="m 349.6,479.1 c 0.4,-0.8 0.6,-1.7 0.6,-2.7 0,-0.6 -0.1,-1.2 -0.3,-1.7 1.7,0 3.1,-1.4 3.1,-3.1 0,-1.7 -1.4,-3.1 -3.1,-3.1 h -0.3 c -0.2,-2.6 -1.5,-4.8 -3.4,-6.2 0,-0.2 0.1,-0.4 0.1,-0.6 0,-4.6 -3.7,-8.3 -8.3,-8.3 -1.6,0 -3.1,0.5 -4.4,1.3 0.2,-0.5 0.3,-1 0.3,-1.6 0,-2.4 -2,-4.4 -4.4,-4.4 -0.5,0 -0.9,0.1 -1.3,0.2 0.1,-0.4 0.1,-0.8 0.1,-1.2 0,-4.6 -3.7,-8.3 -8.3,-8.3 -1.4,0 -2.8,0.4 -3.9,1 -1.1,-1.7 -2.7,-3 -4.7,-3.6 0.3,-0.6 0.4,-1.2 0.4,-1.8 0,-2.4 -2,-4.4 -4.4,-4.4 -0.6,0 -1.1,0.1 -1.6,0.3 -0.1,-4.6 -3.8,-8.3 -8.3,-8.3 -0.8,0 -1.5,0.1 -2.2,0.3 -0.7,-1.6 -2.2,-2.7 -4,-2.7 -1.1,0 -2.1,0.4 -2.8,1 -0.3,-2.1 -2.1,-3.8 -4.3,-3.8 l -0.1,-0.1 c -0.9,0 -1.6,0.3 -2.3,0.7 -11.6,4.4 -21.1,8.1 -24.8,9.6 -8.1,3.3 -14.2,12 -14.2,20.6 V 476 l 44.5,45.2 c 0.2,0 0.5,0 0.7,0 1,0 1.9,0.2 2.6,0.6 1.9,-0.4 3.5,-1.6 4.5,-3.2 0.9,0.4 1.9,0.6 2.9,0.6 4.6,0 8.3,-3.7 8.3,-8.3 0,-0.4 -0.1,-0.7 -0.1,-1 1.3,1.5 3.1,2.5 5.2,2.5 3.7,0 6.8,-3 6.8,-6.8 0,-1 -0.3,-2 -0.6,-2.8 1.4,-0.5 2.5,-1.4 3.3,-2.5 0.9,0.9 2.1,1.4 3.4,1.4 2.6,0 4.8,-2.1 4.8,-4.7 0,-1.4 -0.6,-2.6 -1.5,-3.5 1.7,-0.9 3.1,-2.4 3.6,-4.3 1.1,1.2 2.6,2 4.3,2.2 -0.7,0.8 -1.1,1.9 -1.1,3 0,2.6 2.1,4.7 4.8,4.7 2.7,0 4.8,-2.1 4.8,-4.7 0,-2.2 -1.4,-3.9 -3.4,-4.5 1.5,-1.3 2.5,-3.1 2.5,-5.2 0,-0.6 -0.1,-1.2 -0.3,-1.8 0.2,0 0.4,0.1 0.6,0.1 1,0 1.9,-0.2 2.7,-0.6 0.1,1.8 1.6,3.3 3.4,3.3 1.9,0 3.4,-1.5 3.4,-3.4 -0.1,-1.7 -1.5,-3.2 -3.3,-3.2 z"
   inkscape:connector-curvature="0" />
</g></g>
</svg>