<?xml version="1.0" encoding="utf-8"?>
<!-- Generator: Adobe Illustrator 24.1.0, SVG Export Plug-In . SVG Version: 6.00 Build 0)  -->
<svg version="1.1"
	 id="svg8" inkscape:export-filename="/media/juhele/data_2TB/_GRAFIKA/GHS hazard symbols/GHS06_toxic_substances.png" inkscape:export-xdpi="99.027519" inkscape:export-ydpi="99.027519" inkscape:version="0.92.3 (unknown)" sodipodi:docname="GHS06_toxic_substances.svg" xmlns:cc="http://creativecommons.org/ns#" xmlns:dc="http://purl.org/dc/elements/1.1/" xmlns:inkscape="http://www.inkscape.org/namespaces/inkscape" xmlns:rdf="http://www.w3.org/1999/02/22-rdf-syntax-ns#" xmlns:sodipodi="http://sodipodi.sourceforge.net/DTD/sodipodi-0.dtd" xmlns:svg="http://www.w3.org/2000/svg"
	 xmlns="http://www.w3.org/2000/svg" xmlns:xlink="http://www.w3.org/1999/xlink" x="0px" y="0px" viewBox="0 0 775.6 775.5"
	 style="enable-background:new 0 0 775.6 775.5;" xml:space="preserve">
<style type="text/css">
	.st0{fill:#FFEB1D;}
</style>
<g>
	<polygon class="st0" points="28.2,657.8 387,36.4 746.6,657.8 	"/>
	<path d="M411.7,41.6L411.7,41.6L411.7,41.6 M387,84.4l318,549.4H69.8L387,84.4 M387,7.9c-6.6,0-13.1,3.2-16.9,9.7L3.5,652.6
		c-7.5,13,1.9,29.2,16.9,29.2h734.1c15,0,24.4-16.2,16.9-29.2L404,17.6C400.1,11.1,393.5,7.9,387,7.9L387,7.9z"/>
</g>
<g>
	<path d="M387.3,225.5c21.2-0.1,41.5,15.5,44.7,39.3c0.5,3.3,0.3,6.7,0,10c-1,9.2-1.9,18.4-2.8,27.7c-1.2,11.9-2.4,23.8-3.6,35.8
		c-0.9,8.7-1.7,17.5-2.6,26.2c-0.9,8.7-1.8,17.5-2.7,26.2c-0.7,7.1-1.4,14.2-2.1,21.2c-0.6,6.3-1,12.6-1.9,18.8
		c-2,13.5-13.8,23.8-27.4,24.5c-14.8,0.8-28.5-9.8-30.7-25.5c-0.5-4-0.7-8.1-1.1-12.2c-0.9-9.1-1.8-18.1-2.7-27.2
		c-0.7-7-1.4-14-2.1-21c-0.9-8.9-1.8-17.8-2.7-26.7c-0.7-6.9-1.4-13.8-2.1-20.7c-0.9-9.1-1.8-18.1-2.8-27.2
		c-0.8-7.9-1.9-15.9-2.3-23.8c-0.4-7,1.3-13.7,4.4-19.9c7.2-14.1,18.7-22.6,34.5-24.9C383.4,225.8,385.4,225.7,387.3,225.5z"/>
	<path d="M427.5,528c0.1,22.5-18.7,40.2-40.4,40c-20.3-0.1-39.8-16.6-39.8-40.2c0-21.7,17.4-40.1,40.2-40
		C411.5,487.9,427.8,507.6,427.5,528z"/>
</g>
</svg>
