<?xml version="1.0" encoding="UTF-8" standalone="no"?>
<!-- Generator: Adobe Illustrator 24.1.0, SVG Export Plug-In . SVG Version: 6.00 Build 0)  -->

<svg
   xmlns:dc="http://purl.org/dc/elements/1.1/"
   xmlns:cc="http://creativecommons.org/ns#"
   xmlns:rdf="http://www.w3.org/1999/02/22-rdf-syntax-ns#"
   xmlns:svg="http://www.w3.org/2000/svg"
   xmlns="http://www.w3.org/2000/svg"
   xmlns:sodipodi="http://sodipodi.sourceforge.net/DTD/sodipodi-0.dtd"
   xmlns:inkscape="http://www.inkscape.org/namespaces/inkscape"
   version="1.1"
   id="svg8"
   inkscape:export-filename="/media/juhele/data_2TB/_GRAFIKA/GHS hazard symbols/GHS06_toxic_substances.png"
   inkscape:export-xdpi="99.027519"
   inkscape:export-ydpi="99.027519"
   inkscape:version="0.92.5 (2060ec1f9f, 2020-04-08)"
   sodipodi:docname="129.svg"
   x="0px"
   y="0px"
   viewBox="0 0 125 125"
   xml:space="preserve"
   width="125"
   height="125"><metadata
   id="metadata2761"><rdf:RDF><cc:Work
       rdf:about=""><dc:format>image/svg+xml</dc:format><dc:type
         rdf:resource="http://purl.org/dc/dcmitype/StillImage" /><dc:title></dc:title></cc:Work></rdf:RDF></metadata><defs
   id="defs2759" /><sodipodi:namedview
   pagecolor="#ffffff"
   bordercolor="#666666"
   borderopacity="1"
   objecttolerance="10"
   gridtolerance="10"
   guidetolerance="10"
   inkscape:pageopacity="0"
   inkscape:pageshadow="2"
   inkscape:window-width="1920"
   inkscape:window-height="1017"
   id="namedview2757"
   showgrid="false"
   inkscape:zoom="1.0934881"
   inkscape:cx="387.79999"
   inkscape:cy="387.75"
   inkscape:window-x="-8"
   inkscape:window-y="-8"
   inkscape:window-maximized="1"
   inkscape:current-layer="svg8" />
<style
   type="text/css"
   id="style2742">
	.st0{fill:#FFEB1D;}
</style>

<g
   id="g2769"
   transform="matrix(0.08406927,0,0,0.08406927,29.927361,33.508712)"><g
     id="g2748">
	<polygon
   id="polygon2744"
   points="746.6,657.8 28.2,657.8 387,36.4 "
   class="st0"
   style="fill:#ffeb1d" />
	<path
   id="path2746"
   d="m 411.7,41.6 v 0 0 M 387,84.4 705,633.8 H 69.8 L 387,84.4 m 0,-76.5 c -6.6,0 -13.1,3.2 -16.9,9.7 L 3.5,652.6 c -7.5,13 1.9,29.2 16.9,29.2 h 734.1 c 15,0 24.4,-16.2 16.9,-29.2 L 404,17.6 C 400.1,11.1 393.5,7.9 387,7.9 Z"
   inkscape:connector-curvature="0" />
</g><g
     id="g2754">
	<path
   id="path2750"
   d="m 387.3,225.5 c 21.2,-0.1 41.5,15.5 44.7,39.3 0.5,3.3 0.3,6.7 0,10 -1,9.2 -1.9,18.4 -2.8,27.7 -1.2,11.9 -2.4,23.8 -3.6,35.8 -0.9,8.7 -1.7,17.5 -2.6,26.2 -0.9,8.7 -1.8,17.5 -2.7,26.2 -0.7,7.1 -1.4,14.2 -2.1,21.2 -0.6,6.3 -1,12.6 -1.9,18.8 -2,13.5 -13.8,23.8 -27.4,24.5 -14.8,0.8 -28.5,-9.8 -30.7,-25.5 -0.5,-4 -0.7,-8.1 -1.1,-12.2 -0.9,-9.1 -1.8,-18.1 -2.7,-27.2 -0.7,-7 -1.4,-14 -2.1,-21 -0.9,-8.9 -1.8,-17.8 -2.7,-26.7 -0.7,-6.9 -1.4,-13.8 -2.1,-20.7 -0.9,-9.1 -1.8,-18.1 -2.8,-27.2 -0.8,-7.9 -1.9,-15.9 -2.3,-23.8 -0.4,-7 1.3,-13.7 4.4,-19.9 7.2,-14.1 18.7,-22.6 34.5,-24.9 2.1,-0.3 4.1,-0.4 6,-0.6 z"
   inkscape:connector-curvature="0" />
	<path
   id="path2752"
   d="m 427.5,528 c 0.1,22.5 -18.7,40.2 -40.4,40 -20.3,-0.1 -39.8,-16.6 -39.8,-40.2 0,-21.7 17.4,-40.1 40.2,-40 24,0.1 40.3,19.8 40,40.2 z"
   inkscape:connector-curvature="0" />
</g></g>
</svg>