<?xml version="1.0" encoding="UTF-8" standalone="no"?>
<!-- Generator: Adobe Illustrator 24.1.0, SVG Export Plug-In . SVG Version: 6.00 Build 0)  -->

<svg
   xmlns:dc="http://purl.org/dc/elements/1.1/"
   xmlns:cc="http://creativecommons.org/ns#"
   xmlns:rdf="http://www.w3.org/1999/02/22-rdf-syntax-ns#"
   xmlns:svg="http://www.w3.org/2000/svg"
   xmlns="http://www.w3.org/2000/svg"
   xmlns:sodipodi="http://sodipodi.sourceforge.net/DTD/sodipodi-0.dtd"
   xmlns:inkscape="http://www.inkscape.org/namespaces/inkscape"
   version="1.1"
   id="svg8"
   inkscape:export-filename="/media/juhele/data_2TB/_GRAFIKA/GHS hazard symbols/GHS06_toxic_substances.png"
   inkscape:export-xdpi="99.027519"
   inkscape:export-ydpi="99.027519"
   inkscape:version="0.92.5 (2060ec1f9f, 2020-04-08)"
   sodipodi:docname="insluiting.svg"
   x="0px"
   y="0px"
   viewBox="0 0 125 125"
   xml:space="preserve"
   width="125"
   height="125"><metadata
   id="metadata885"><rdf:RDF><cc:Work
       rdf:about=""><dc:format>image/svg+xml</dc:format><dc:type
         rdf:resource="http://purl.org/dc/dcmitype/StillImage" /><dc:title></dc:title></cc:Work></rdf:RDF></metadata><defs
   id="defs883" /><sodipodi:namedview
   pagecolor="#ffffff"
   bordercolor="#666666"
   borderopacity="1"
   objecttolerance="10"
   gridtolerance="10"
   guidetolerance="10"
   inkscape:pageopacity="0"
   inkscape:pageshadow="2"
   inkscape:window-width="1920"
   inkscape:window-height="1017"
   id="namedview881"
   showgrid="false"
   inkscape:zoom="7"
   inkscape:cx="69.576964"
   inkscape:cy="56.321429"
   inkscape:window-x="-8"
   inkscape:window-y="-8"
   inkscape:window-maximized="1"
   inkscape:current-layer="g891" />
<style
   type="text/css"
   id="style871">
	.st0{fill:#FFEB1D;}
</style>

<g
   id="g891"
   transform="matrix(0.08406927,0,0,0.08406927,29.927361,33.508712)"><g
     id="g4559"><g
       id="g877">
	<polygon
   style="fill:#ffeb1d"
   class="st0"
   points="387,36.4 746.6,657.8 28.2,657.8 "
   id="polygon873" />
	<path
   inkscape:connector-curvature="0"
   d="m 411.7,41.6 v 0 0 M 387,84.4 705,633.8 H 69.8 L 387,84.4 m 0,-76.5 c -6.6,0 -13.1,3.2 -16.9,9.7 L 3.5,652.6 c -7.5,13 1.9,29.2 16.9,29.2 h 734.1 c 15,0 24.4,-16.2 16.9,-29.2 L 404,17.6 C 400.1,11.1 393.5,7.9 387,7.9 Z"
   id="path875" />
</g><path
       inkscape:connector-curvature="0"
       id="rect825"
       d="m 385.75073,255.42213 c -26.29595,0 -49.70626,13.93965 -65.72427,34.63941 -15.86852,20.50658 -25.19671,47.84559 -25.3697,77.73538 h -17.8192 c -7.90776,0 -14.28788,6.35687 -14.28788,14.26464 v 182.16471 c 0,7.90776 6.38012,14.26464 14.28788,14.26464 h 214.43441 c 7.90777,0 14.28789,-6.35688 14.28789,-14.26464 V 382.06156 c 0,-7.90777 -6.38012,-14.26464 -14.28789,-14.26464 h -14.42728 c -0.17299,-29.88979 -9.50118,-57.2288 -25.3697,-77.73538 -16.018,-20.69976 -39.42832,-34.63941 -65.72426,-34.63941 z m 0,31.08486 c 15.44586,0 29.83102,7.93168 41.16769,22.58183 11.20138,14.47533 18.66392,35.32907 18.84142,58.7081 H 325.71839 c 0.17747,-23.37908 7.66325,-44.23274 18.86464,-58.7081 11.33668,-14.65015 25.72184,-22.58183 41.1677,-22.58183 z m -2.53233,118.67074 a 44.181255,42.202614 0 0 1 44.16466,42.18991 44.181255,42.202614 0 0 1 -19.74748,35.12729 v 32.71112 c 0,12.6775 -11.1453,23.32525 -24.41718,23.32525 -13.27188,0 -24.44041,-10.64775 -24.44041,-23.32525 v -32.68789 a 44.181255,42.202614 0 0 1 -19.74747,-35.15052 44.181255,42.202614 0 0 1 44.18788,-42.18991 z"
       style="fill:#000000;fill-opacity:1;fill-rule:evenodd;stroke:none;stroke-width:33.17653656;stroke-miterlimit:4;stroke-dasharray:none" /></g></g>
</svg>