<?xml version="1.0" encoding="UTF-8" standalone="no"?>
<!-- Generator: Adobe Illustrator 24.1.0, SVG Export Plug-In . SVG Version: 6.00 Build 0)  -->

<svg
   xmlns:dc="http://purl.org/dc/elements/1.1/"
   xmlns:cc="http://creativecommons.org/ns#"
   xmlns:rdf="http://www.w3.org/1999/02/22-rdf-syntax-ns#"
   xmlns:svg="http://www.w3.org/2000/svg"
   xmlns="http://www.w3.org/2000/svg"
   xmlns:sodipodi="http://sodipodi.sourceforge.net/DTD/sodipodi-0.dtd"
   xmlns:inkscape="http://www.inkscape.org/namespaces/inkscape"
   version="1.1"
   id="svg8"
   inkscape:export-filename="/media/juhele/data_2TB/_GRAFIKA/GHS hazard symbols/GHS06_toxic_substances.png"
   inkscape:export-xdpi="99.027519"
   inkscape:export-ydpi="99.027519"
   inkscape:version="0.92.5 (2060ec1f9f, 2020-04-08)"
   sodipodi:docname="instorting.svg"
   x="0px"
   y="0px"
   viewBox="0 0 125 125"
   xml:space="preserve"
   width="125"
   height="125"><metadata
   id="metadata885"><rdf:RDF><cc:Work
       rdf:about=""><dc:format>image/svg+xml</dc:format><dc:type
         rdf:resource="http://purl.org/dc/dcmitype/StillImage" /><dc:title></dc:title></cc:Work></rdf:RDF></metadata><defs
   id="defs883" /><sodipodi:namedview
   pagecolor="#ffffff"
   bordercolor="#666666"
   borderopacity="1"
   objecttolerance="10"
   gridtolerance="10"
   guidetolerance="10"
   inkscape:pageopacity="0"
   inkscape:pageshadow="2"
   inkscape:window-width="1920"
   inkscape:window-height="1017"
   id="namedview881"
   showgrid="false"
   inkscape:zoom="1"
   inkscape:cx="48.927815"
   inkscape:cy="74.088584"
   inkscape:window-x="-8"
   inkscape:window-y="-8"
   inkscape:window-maximized="1"
   inkscape:current-layer="g4559" />
<style
   type="text/css"
   id="style871">
	.st0{fill:#FFEB1D;}
</style>

<g
   id="g891"
   transform="matrix(0.08406927,0,0,0.08406927,29.927361,33.508712)"><g
     id="g4559"><g
       id="g877">
	<polygon
   style="fill:#ffeb1d"
   class="st0"
   points="387,36.4 746.6,657.8 28.2,657.8 "
   id="polygon873" />
	<path
   inkscape:connector-curvature="0"
   d="m 411.7,41.6 v 0 0 M 387,84.4 705,633.8 H 69.8 L 387,84.4 m 0,-76.5 c -6.6,0 -13.1,3.2 -16.9,9.7 L 3.5,652.6 c -7.5,13 1.9,29.2 16.9,29.2 h 734.1 c 15,0 24.4,-16.2 16.9,-29.2 L 404,17.6 C 400.1,11.1 393.5,7.9 387,7.9 Z"
   id="path875" />
</g><path
       style="fill:#000000;fill-opacity:1;fill-rule:evenodd;stroke:none;stroke-width:27.99409866;stroke-miterlimit:4;stroke-dasharray:none;stroke-opacity:1"
       d="m 508.49245,349.0546 -109.10934,61.51862 c 0.9428,0.18323 0.15282,0.0532 1.14271,0.38578 0.0725,0.0235 0.14591,-0.0432 0.21672,0 1.73163,1.05778 0.98206,1.05921 1.65498,1.02874 1.53611,-0.23342 2.94429,-1.38429 4.53144,-1.31163 0.0402,0.002 0.0778,-0.005 0.11822,0 0.19281,-0.2064 0.3954,-0.39158 0.59104,-0.59153 0.68313,-0.34884 1.36853,-0.69619 2.04901,-1.05445 0.59394,-1.25033 1.25434,-2.36694 2.24601,-2.80333 1.16511,-0.51237 2.00279,0.0304 3.23113,0.48865 0.19931,-0.0361 0.40097,-0.0214 0.59106,-0.10285 0.3121,-0.1339 0.76284,-0.70013 1.0442,-0.82301 0.8812,-0.38445 1.77835,-0.53499 2.71886,-0.46292 -0.019,2.21083 0.23181,4.59585 0,6.6868 0.0746,0.22577 0.13582,0.47662 0.21674,0.6944 -0.0879,0.0119 -0.18607,0.0378 -0.27583,0.0257 -0.0312,0.16111 0.0214,0.35849 -0.0196,0.51437 -0.29144,1.10405 -1.48252,0.5249 -2.22631,0.77156 -1.89407,0.6281 -2.76484,0.8574 -4.49204,1.59455 -0.42567,1.10268 -0.52979,1.52235 -1.65497,2.18606 -0.43945,0.25929 -1.31561,0.0893 -2.10809,0.0516 -0.61203,0.5411 -1.36782,0.77343 -2.00961,1.08018 -0.15575,0.0743 -0.28383,0.26472 -0.43345,0.36004 -1.69294,1.0773 0.10095,-0.29127 -1.59586,1.08021 l -1.2412,0.54007 c -0.11455,0.13554 -0.21613,0.33995 -0.35464,0.41149 -3.8837,1.98319 -0.27699,-0.10684 -2.95529,1.05447 -0.42367,0.18375 -0.80965,0.46709 -1.22153,0.6944 l -2.24602,0.8487 c -1.34426,0.48434 -2.37039,0.64791 -3.52664,1.59455 -0.0352,0.0296 0.0728,0.17164 0.0394,0.20576 -0.32292,0.32856 -0.69984,0.5471 -1.04421,0.82298 -0.0802,0.065 -0.14485,0.18079 -0.23641,0.20576 -0.47728,0.13372 -0.97259,0.16862 -1.45793,0.25716 -0.17088,9.2e-4 -0.32808,-0.0192 -0.49256,0.0257 -0.0318,0.0104 -0.0318,0.10274 -0.0591,0.12861 -0.16234,0.14962 -0.33829,0.24191 -0.51225,0.36005 -0.8909,0.6049 -2.54726,1.64816 -3.30994,2.41754 -0.091,0.0921 -0.16856,0.20918 -0.25612,0.30862 0.0722,0.23374 0.18813,0.5273 0.25612,0.74583 0.0462,0.17733 0.0357,0.0906 0.0787,0.25719 0.082,0.16233 0.15479,0.32679 0.2364,0.48865 1.76602,-1.08896 3.53927,-2.19422 5.47714,-2.57185 0.58367,-0.11366 1.19067,0.0798 1.79289,0.1286 0.66588,-0.0455 1.18919,0.54423 1.71407,1.13162 0.59168,-0.72094 1.78759,-0.82576 2.44304,-0.95159 0.0539,-0.15493 0.0402,-0.38124 0.13791,-0.46293 0.55136,-0.46026 2.1781,-1.25519 2.83708,-1.46595 0.38944,-0.12467 0.78879,-0.15321 1.18213,-0.2572 0.0111,-0.068 -0.0653,-0.0961 0.1379,-0.1543 0,0 0.0196,-0.0257 0.0196,-0.0257 l 0.96541,-0.20574 c -0.18361,0.0305 -0.62411,0.12898 -0.98511,0.23147 -0.017,0.0561 -0.0225,0.14255 -0.0591,0.1543 -0.003,0.15579 0.38106,0.35296 2.91589,0.48868 0.40993,0.0219 -0.89592,-0.22707 -1.20181,-0.74587 -0.18392,-0.31293 0.48384,-0.0448 0.72897,-0.0515 1.30108,-0.0349 1.17762,-0.0231 2.71884,0.0772 0.44887,-0.0349 0.91967,0.0198 1.35945,-0.0772 1.47967,-0.32446 2.60843,-5.9999 2.91589,3.67775 1.10594,0.91457 0.77465,1.73669 0.0787,2.41753 0.004,0.38685 0.0366,0.4017 0.0394,0.82299 0.0132,1.97994 -5.14985,6.27496 -5.61505,6.71253 -1.85707,1.95026 -3.92201,3.32607 -5.85148,5.09228 -0.38589,0.35321 -0.73633,0.78622 -1.10331,1.18305 -0.16255,0.17588 -0.29129,0.69279 -0.49254,0.54007 -0.77494,-0.5877 -0.78514,-0.64056 -1.28063,-0.9773 0.10892,0.27573 0.27098,0.52563 0.35463,0.82298 0.1243,0.44102 -0.15357,0.69378 -0.45315,0.92587 -1.09501,-2.01543 -2.57331,-3.55019 -4.01919,-4.52644 -2.64361,-1.78496 -5.65689,-2.59758 -8.92498,-2.59758 -2.72485,0 -5.20414,0.70819 -7.50645,1.9289 l -128.85067,-72.08893 -13.94898,41.38104 13.41703,7.50981 h -11.48624 v 129.364 28.54752 h 282.66373 v -43.28422 h -0.0395 V 394.0877 h -13.25938 l 13.96866,-7.86986 z m -16.76633,52.77432 v 132.60455 h -39.00985 c 1.44549,-2.39476 1.9792,-5.35967 1.98989,-7.76698 0.0153,-3.44283 -0.71006,-6.69679 -2.0096,-9.85019 -1.29953,-3.15339 -2.99213,-5.73193 -5.20131,-7.61267 -2.20916,-1.88074 -5.6882,-3.38666 -9.08259,-1.00301 -3.3944,2.38365 -4.35853,7.0246 -4.37382,10.46741 -0.0138,3.10235 0.64533,6.01325 1.71406,8.87291 0.11728,0.31382 0.16702,0.63971 0.29553,0.95156 0.96878,2.35079 2.23286,4.27585 3.68426,5.94097 h -6.83658 l 2.85679,-6.89253 -44.70369,-31.63376 c -0.94068,-0.64805 -1.86524,-1.32585 -2.64007,-2.26323 -0.0425,-0.0522 -0.0776,-0.10044 -0.11822,-0.1543 -0.35524,-0.0879 -0.71015,-0.1867 -1.06389,-0.28292 -0.99182,-0.59631 -1.97944,-1.18862 -2.975,-1.77457 -1.52238,0.18723 -3.0418,0.19767 -4.43293,-0.72012 -1.63418,-1.07853 -2.14508,-2.54241 -3.17203,-4.42359 -0.24364,-0.22292 -0.46382,-0.49117 -0.72896,-0.66867 -0.43542,-0.29141 -1.33978,-0.4333 -1.73377,-0.69441 -1.23411,-0.81798 -2.30952,-1.82795 -3.29023,-3.06048 1.56148,-1.62368 2.93837,-3.7219 4.64968,-4.98939 0.0755,-0.26177 0.17337,-0.50786 0.2364,-0.77155 0.10438,0.10149 0.22535,0.18697 0.31524,0.30861 0.14652,-0.081 0.24027,-0.26982 0.39404,-0.33435 1.0889,-0.45739 1.98782,1.43763 2.97497,2.18608 2.51389,1.90597 3.62188,2.83373 6.02882,4.4493 1.2351,-0.28813 1.65345,-0.4528 3.34932,0.46293 0.66235,0.3576 1.52192,1.57607 2.36422,2.59756 1.04795,0.36391 2.01833,1.14731 2.93561,1.72314 0.22254,0.13979 0.49852,0.14065 0.72896,0.25719 2.60646,1.31918 -0.31363,0.10379 2.50215,1.20878 l 1.75347,1.15733 c 0.22001,0.0425 0.46819,-0.0177 0.66985,0.10285 5.6391,3.39 0.21499,0.44029 3.9601,2.93191 0.5925,0.39408 1.22233,0.68184 1.83229,1.02872 l 3.0538,2.1861 c 1.81101,1.32395 3.05748,2.47093 4.98459,3.2148 0.0586,0.0219 0.0379,-0.22223 0.0985,-0.20574 0.583,0.15991 1.12463,0.49403 1.69434,0.7201 0.1328,0.0522 0.27627,0.0326 0.39406,0.12861 0.61635,0.49856 1.19915,1.07789 1.79287,1.62026 0.18806,0.2133 0.35977,0.44454 0.57134,0.61724 0.0416,0.033 0.0903,-0.0666 0.13791,-0.0515 0.28221,0.092 0.53475,0.25576 0.80779,0.38577 1.39812,0.66589 3.96707,1.98349 5.33923,2.36611 0.16388,0.0453 0.32719,0.0416 0.49255,0.0772 0.0841,-0.26451 0.13899,-0.62638 0.21673,-0.87443 0.0724,-0.19012 0.0501,-0.10473 0.1182,-0.28289 0.0234,-0.22362 0.0367,-0.44578 0.0591,-0.66869 -2.69466,-1.40205 -5.39494,-2.79043 -7.78227,-4.93796 -0.71899,-0.64681 -1.24563,-1.57488 -1.87168,-2.36609 -0.76171,-0.80057 -0.93734,-1.88779 -1.10331,-2.98334 -1.15104,-0.2044 -2.52347,-1.61263 -3.32962,-2.34038 -0.16686,0.048 -0.32835,0.21607 -0.49256,0.1543 -0.92515,-0.34811 -3.24848,-1.77437 -4.1177,-2.44325 -0.51369,-0.39521 -0.97405,-0.89614 -1.47764,-1.31166 -0.0595,0.0371 0.008,0.15993 -0.25613,-0.0515 -0.0138,0.005 -0.0255,-0.002 -0.0394,0 l -1.20183,-1.05445 c 0.22245,0.20742 0.77399,0.67834 1.24123,1.05445 0.0575,-0.0206 0.1295,-0.0627 0.17731,-0.0257 0.0298,0.0233 0.0501,0.0524 0.0787,0.0772 0.13927,-0.085 -0.18035,-0.7238 -2.93559,-4.08922 -0.43404,-0.53016 0.81426,1.2875 0.78807,2.05748 -0.016,0.46368 -0.55413,-0.57215 -0.82747,-0.87444 -1.45049,-1.60473 -1.31614,-1.49117 -2.93559,-3.49772 -0.51636,-0.53659 -0.9875,-1.11524 -1.53678,-1.59455 -1.84804,-1.6128 -7.05762,1.16689 -0.65014,-6.42963 -0.57483,-2.06761 0.37839,-2.26797 1.61555,-1.90316 0.26462,-0.29388 0.24146,-0.3513 0.53196,-0.66866 1.36539,-1.49175 10.00146,1.80045 10.81637,2.05747 3.39471,0.8744 6.64305,2.42113 9.98888,3.52343 0.66916,0.22047 1.35044,0.35006 2.02931,0.51436 0.3008,0.0727 0.79213,-0.16034 0.90627,0.20575 0.43978,1.40922 0.44018,1.46843 0.74868,2.34039 0.0736,-0.34194 0.0423,-0.72804 0.1576,-1.05444 0.2544,-0.72001 1.23086,-0.004 1.8323,0.15429 3.22406,0.84531 5.27821,1.76043 8.07779,3.44628 0.0448,-0.13589 0.0936,-0.27507 0.13791,-0.41149 -0.10223,-0.26262 -0.17435,-0.51174 -0.33492,-0.79728 l -0.78809,-1.02875 c -0.1395,-0.0493 -0.29373,-0.0498 -0.41374,-0.15428 -0.44907,-0.38959 -0.82602,-0.90708 -1.28062,-1.28595 -0.0468,-0.0399 -0.0522,0.1173 -0.0787,0.18004 -0.85946,-0.74744 -1.75772,-1.42502 -2.58096,-2.23751 -1.22159,-1.20562 -2.34379,-2.53812 -3.52663,-3.80633 -1.12672,-1.18616 -2.713,-2.80573 -4.21622,-4.34643 l -21.86913,-12.24218 c 0.0238,-0.33264 0.13792,-0.60274 0.13792,-0.95158 0,-0.85595 -0.1795,-1.58136 -0.31523,-2.34039 0.39428,-0.0104 0.78809,-0.0308 1.18211,-0.0516 0.98575,-0.0662 2.34695,-0.21879 3.64486,-0.33435 z m -228.68042,26.64437 122.58547,68.59121 -5.87118,14.14518 15.01288,10.62175 h -19.80046 c 1.46032,-2.1235 2.30513,-4.95977 2.30513,-7.767 0,-5.39872 -2.99014,-11.08467 -7.88077,-11.08467 -4.89065,0 -7.86108,5.68595 -7.86108,11.08467 0,4.50209 2.15072,9.00346 5.67417,10.44172 v 9.92732 H 263.0457 Z m 132.85018,2.23752 c 0.18109,0.19019 0.35701,0.43781 0.55164,0.5658 0.14996,0.0978 -0.24556,-0.41079 -0.39402,-0.51438 -0.0496,-0.0346 -0.0797,-0.0432 -0.15762,-0.0515 z m 6.91536,3.98636 c -0.16597,0.0491 -0.36886,0.19487 -0.57133,0.2829 0.005,0.0688 0.0588,0.10738 0.0591,0.18003 0.17353,-0.15372 0.3396,-0.30664 0.51224,-0.46293 z m -4.61023,8.28134 c 0.45726,0.60683 0.90293,1.24218 1.37912,1.74888 -0.0669,-2.18292 0.008,-1.04011 -1.37912,-1.74888 z m 21.98735,34.51422 c -1.44778,1.71062 -0.71077,0.76855 0.31523,3.03479 -0.0787,-1.02527 -0.14643,-2.06041 -0.31523,-3.03479 z m -10.52083,3.42057 c 0.21617,0.17145 0.54412,0.32617 0.82749,0.51436 0.0416,-0.059 0.009,-0.15125 0.0591,-0.20574 -0.29731,-0.10296 -0.58853,-0.20868 -0.88659,-0.30862 z m 21.00228,7.99845 c 0.0693,0.0892 0.14388,0.1714 0.21671,0.25717 0.0353,-0.0948 0.003,-0.0311 0.0395,-0.12858 -0.0841,-0.0509 -0.17286,-0.0792 -0.25613,-0.12859 z m -16.41172,2.54613 c -0.0959,-0.26081 -0.0122,0.58543 0.0787,0.84869 0.031,0.0879 0.0578,0.15343 0.13792,0.25721 -0.066,-0.36871 -0.093,-0.76658 -0.21671,-1.1059 z m -44.86132,20.52335 c 1.77247,0 2.22632,1.65938 2.22632,2.0832 0,0.42382 -0.45385,2.0832 -2.22632,2.0832 -1.77247,0 -2.20662,-1.65938 -2.20662,-2.0832 0,-0.42382 0.43415,-2.0832 2.20662,-2.0832 z m 32.31119,14.76242 10.87545,7.68982 h -10.87545 z"
       id="rect4561"
       inkscape:connector-curvature="0" /></g></g>
</svg>