<?xml version="1.0" encoding="utf-8"?>
<!-- Generator: Adobe Illustrator 24.1.0, SVG Export Plug-In . SVG Version: 6.00 Build 0)  -->
<svg version="1.1"
	 id="svg8" inkscape:export-filename="/media/juhele/data_2TB/_GRAFIKA/GHS hazard symbols/GHS02_flammable_substances.png" inkscape:export-xdpi="99.027519" inkscape:export-ydpi="99.027519" inkscape:version="0.92.3 (unknown)" sodipodi:docname="GHS02_flammable_substances.svg" xmlns:cc="http://creativecommons.org/ns#" xmlns:dc="http://purl.org/dc/elements/1.1/" xmlns:inkscape="http://www.inkscape.org/namespaces/inkscape" xmlns:rdf="http://www.w3.org/1999/02/22-rdf-syntax-ns#" xmlns:sodipodi="http://sodipodi.sourceforge.net/DTD/sodipodi-0.dtd" xmlns:svg="http://www.w3.org/2000/svg"
	 xmlns="http://www.w3.org/2000/svg" xmlns:xlink="http://www.w3.org/1999/xlink" x="0px" y="0px" viewBox="0 0 775.6 775.5"
	 style="enable-background:new 0 0 775.6 775.5;" xml:space="preserve">
<style type="text/css">
	.st0{fill:#FFFFFF;}
	.st1{fill:#FF0000;}
</style>
<g id="g832" transform="translate(1.475,1.0815306)">
	<path id="path815" inkscape:connector-curvature="0" class="st0" d="M34.2,386.6l352,352l352.1-352.1
		c-117.4-117.3-234.6-234.8-352-352L34.2,386.6z"/>
	<path id="path817" inkscape:connector-curvature="0" class="st1" d="M197.4,197.7L8.5,386.6l188.9,188.9l188.9,188.9l188.9-188.9
		l188.9-188.9L575.2,197.7C471.4,93.8,386.4,8.8,386.3,8.8C386.3,8.8,301.3,93.8,197.4,197.7L197.4,197.7z M545.3,227.6l158.9,158.9
		l-159,159l-159,159l-158.9-159l-158.9-159l158.9-158.9c87.4-87.4,158.9-158.9,159-158.9C386.4,68.7,457.9,140.2,545.3,227.6z"/>
	<path id="path819" inkscape:connector-curvature="0" d="M386.5,162.2c-23.4,44.8,5.1,70-26.4,136c-16.7-13.3-7-63.2-40.2-64.1
		c5.1,15.3,1.3,21.3,0.4,26.8c-3.3,21.5-11,40.6,3.9,69.1c-22.9-11.1-23.3-31.5-42.6-44.3c3.8,21.7-5.4,65.7,20.3,107.9
		c-22.9-2.3-30.5-11.1-55.3-34.8c25.9,134,45.1,137.7,139.9,145.3c-7.1-0.8-54.9-8.5-72.2-63.5c-1-13.6-1.5,12,44.4,12.8
		c-29.1-46.1-21.2-37.4-17.8-64.2c12,18.3,1.5,20,35.5,33.6c-10.8-34.3,16.7-57.8,10.7-96.9c7.5,17.2,34.3,14.5,33,97
		c22.2-24.7,24.8-7.6,35.4-35.3c0.6,15.4,7.4,34.6-22.7,66.1c7.7,2.1,20.5,3.8,41.3-10.3c-20.3,23-2,23.6-53.3,61.2
		c64.7,0.9,107.2-39.9,105.6-129.3c-1.7,7.7-3.6,23-38.5,27.6c21.9-21.7,33.2-65,15.8-100.7c-6.1,5.7-15.7,32.3-38.7,39.9
		c11.7-19.1,9-43.9,9-43.9s3-33.4-16.8-59.2c-5.5,40.4-5.1,60.8-30.6,67.1c4.1-23.9,4.9-35-7.9-62.2
		C405.8,215.7,390.4,187.7,386.5,162.2z M279.7,527.3V539v11.7h113.8h113.8l0-11.7l0-11.7l-113.8,0L279.7,527.3z"/>
</g>
</svg>
