<?xml version="1.0" encoding="UTF-8" standalone="no"?>
<!-- Generator: Adobe Illustrator 24.1.0, SVG Export Plug-In . SVG Version: 6.00 Build 0)  -->

<svg
   xmlns:dc="http://purl.org/dc/elements/1.1/"
   xmlns:cc="http://creativecommons.org/ns#"
   xmlns:rdf="http://www.w3.org/1999/02/22-rdf-syntax-ns#"
   xmlns:svg="http://www.w3.org/2000/svg"
   xmlns="http://www.w3.org/2000/svg"
   xmlns:sodipodi="http://sodipodi.sourceforge.net/DTD/sodipodi-0.dtd"
   xmlns:inkscape="http://www.inkscape.org/namespaces/inkscape"
   version="1.1"
   id="svg8"
   inkscape:export-filename="/media/juhele/data_2TB/_GRAFIKA/GHS hazard symbols/GHS02_flammable_substances.png"
   inkscape:export-xdpi="99.027519"
   inkscape:export-ydpi="99.027519"
   inkscape:version="0.92.5 (2060ec1f9f, 2020-04-08)"
   sodipodi:docname="201.svg"
   x="0px"
   y="0px"
   viewBox="0 0 125 125"
   xml:space="preserve"
   width="125"
   height="125"><metadata
   id="metadata2803"><rdf:RDF><cc:Work
       rdf:about=""><dc:format>image/svg+xml</dc:format><dc:type
         rdf:resource="http://purl.org/dc/dcmitype/StillImage" /><dc:title></dc:title></cc:Work></rdf:RDF></metadata><defs
   id="defs2801" /><sodipodi:namedview
   pagecolor="#ffffff"
   bordercolor="#666666"
   borderopacity="1"
   objecttolerance="10"
   gridtolerance="10"
   guidetolerance="10"
   inkscape:pageopacity="0"
   inkscape:pageshadow="2"
   inkscape:window-width="1920"
   inkscape:window-height="1017"
   id="namedview2799"
   showgrid="false"
   inkscape:zoom="1.0934881"
   inkscape:cx="387.79999"
   inkscape:cy="387.75"
   inkscape:window-x="-8"
   inkscape:window-y="-8"
   inkscape:window-maximized="1"
   inkscape:current-layer="svg8" />
<style
   type="text/css"
   id="style2792">
	.st0{fill:#FFFFFF;}
	.st1{fill:#FF0000;}
</style>
<g
   id="g832"
   transform="matrix(0.08602435,0,0,0.08602435,29.268794,29.242986)">
	<path
   id="path815"
   inkscape:connector-curvature="0"
   class="st0"
   d="m 34.2,386.6 352,352 352.1,-352.1 C 620.9,269.2 503.7,151.7 386.3,34.5 Z"
   style="fill:#ffffff" />
	<path
   id="path817"
   inkscape:connector-curvature="0"
   class="st1"
   d="M 197.4,197.7 8.5,386.6 197.4,575.5 386.3,764.4 575.2,575.5 764.1,386.6 575.2,197.7 C 471.4,93.8 386.4,8.8 386.3,8.8 c 0,0 -85,85 -188.9,188.9 z m 347.9,29.9 158.9,158.9 -159,159 -159,159 -158.9,-159 -158.9,-159 158.9,-158.9 c 87.4,-87.4 158.9,-158.9 159,-158.9 0.1,0 71.6,71.5 159,158.9 z"
   style="fill:#ff0000" />
	<path
   id="path819"
   inkscape:connector-curvature="0"
   d="m 386.5,162.2 c -23.4,44.8 5.1,70 -26.4,136 -16.7,-13.3 -7,-63.2 -40.2,-64.1 5.1,15.3 1.3,21.3 0.4,26.8 -3.3,21.5 -11,40.6 3.9,69.1 -22.9,-11.1 -23.3,-31.5 -42.6,-44.3 3.8,21.7 -5.4,65.7 20.3,107.9 -22.9,-2.3 -30.5,-11.1 -55.3,-34.8 25.9,134 45.1,137.7 139.9,145.3 -7.1,-0.8 -54.9,-8.5 -72.2,-63.5 -1,-13.6 -1.5,12 44.4,12.8 -29.1,-46.1 -21.2,-37.4 -17.8,-64.2 12,18.3 1.5,20 35.5,33.6 -10.8,-34.3 16.7,-57.8 10.7,-96.9 7.5,17.2 34.3,14.5 33,97 22.2,-24.7 24.8,-7.6 35.4,-35.3 0.6,15.4 7.4,34.6 -22.7,66.1 7.7,2.1 20.5,3.8 41.3,-10.3 -20.3,23 -2,23.6 -53.3,61.2 64.7,0.9 107.2,-39.9 105.6,-129.3 -1.7,7.7 -3.6,23 -38.5,27.6 21.9,-21.7 33.2,-65 15.8,-100.7 -6.1,5.7 -15.7,32.3 -38.7,39.9 11.7,-19.1 9,-43.9 9,-43.9 0,0 3,-33.4 -16.8,-59.2 -5.5,40.4 -5.1,60.8 -30.6,67.1 4.1,-23.9 4.9,-35 -7.9,-62.2 -12.9,-28.2 -28.3,-56.2 -32.2,-81.7 z M 279.7,527.3 V 539 550.7 H 393.5 507.3 V 539 527.3 H 393.5 Z" />
</g>
</svg>