<?xml version="1.0" encoding="utf-8"?>
<!-- Generator: Adobe Illustrator 24.1.0, SVG Export Plug-In . SVG Version: 6.00 Build 0)  -->
<svg version="1.1"
	 id="svg8" inkscape:export-filename="/media/juhele/data_2TB/_GRAFIKA/GHS hazard symbols/GHS03_oxidizing_substances.png" inkscape:export-xdpi="99.027519" inkscape:export-ydpi="99.027519" inkscape:version="0.92.3 (unknown)" sodipodi:docname="GHS03_oxidizing_substances.svg" xmlns:cc="http://creativecommons.org/ns#" xmlns:dc="http://purl.org/dc/elements/1.1/" xmlns:inkscape="http://www.inkscape.org/namespaces/inkscape" xmlns:rdf="http://www.w3.org/1999/02/22-rdf-syntax-ns#" xmlns:sodipodi="http://sodipodi.sourceforge.net/DTD/sodipodi-0.dtd" xmlns:svg="http://www.w3.org/2000/svg"
	 xmlns="http://www.w3.org/2000/svg" xmlns:xlink="http://www.w3.org/1999/xlink" x="0px" y="0px" viewBox="0 0 775.6 775.5"
	 style="enable-background:new 0 0 775.6 775.5;" xml:space="preserve">
<style type="text/css">
	.st0{fill:#FFFFFF;}
	.st1{fill:#FF0000;}
</style>
<g id="g836" transform="translate(-0.3,-1.418469)">
	<path id="path819-3" inkscape:connector-curvature="0" class="st0" d="M33.6,385.8l352,352l352.1-352.1
		c-117.4-117.3-234.6-234.8-352-352L33.6,385.8z"/>
	<path id="path821" inkscape:connector-curvature="0" class="st1" d="M196.8,196.9L7.9,385.8l188.9,188.9l188.9,188.9l188.9-188.9
		l188.9-188.9L574.7,196.8C470.8,93,385.8,8,385.7,8C385.7,8,300.7,93,196.8,196.9L196.8,196.9z M544.7,226.8l158.9,158.9l-159,159
		l-159,159l-158.9-159l-158.9-159l158.9-158.9c87.4-87.4,158.9-158.9,159-158.9C385.8,67.8,457.3,139.4,544.7,226.8z"/>
	<path id="path823" inkscape:connector-curvature="0" d="M382.5,112.3c-11.8,12.7,0,65.2-24.4,114.4c-12.6-13.5-17.7-38.7-32-51.3
		c7.5,19.3-13.5,17.7-5.9,84.9c-11.4-2.9-11.8-7.6-37-37.8c4.7,29.4,1.7,47.9,7.6,80.7c0,0-6.1-1.3-35.3-22.7
		c9.5,32-7.1,99.3,30.7,146.9l-0.1-0.1c2.9,43.1,33.3,78.7,73.7,89.4h-73.1v31h203.9v-31h-79.5c36.6-9.7,64.9-39.8,72.1-77.4v0
		c10-16,54.8-67.9,20.4-151.3c0,0-10.1,18.5-28.6,23.5c0,0,23.7-39.5,4.2-71.5c0,0-5.7,23.4-25.2,24.4c0,0,9.5-49.8-16-81.6
		c-9.2,21,5.5,29.7-25.2,47.1C408.6,165.2,395.1,154.3,382.5,112.3L382.5,112.3z M375.8,253.5c11.7,7.2,20.2,19.7,22.8,43
		c1.1,10.3,5,16.1,7.8,26.6c-6.7-1.4-13.7-2.2-20.8-2.2c-8.7,0-17.2,1.1-25.3,3.2C358.4,290.1,376.2,297.6,375.8,253.5z
		 M332.9,277.9c0,0,4.7,29.6,16.7,49.6c-8.5,3.3-16.3,7.7-23.5,13C322.2,309.8,331.1,302.9,332.9,277.9z M437.2,293.1
		c0,0,4.4,29.7,10.4,49.6c-9.5-7.6-20.4-13.5-32.3-17.2C420.3,315.2,428,301.7,437.2,293.1z M286.6,325.9c0,0,8.9,9,32.3,20.6
		c-8.2,7.4-15.1,16.1-20.5,25.8C294.7,360.3,289.6,342.3,286.6,325.9z M484.3,336.8c0.8,11,0.8,37.6-4.2,52.1l0,0.5
		c-4.4-13.5-11.6-25.7-20.9-35.9C465.2,348.7,475.4,341.1,484.3,336.8L484.3,336.8z M384.6,348.4c39.3,0,71.2,31.9,71.2,71.2
		s-31.9,71.2-71.2,71.2s-71.2-31.9-71.2-71.2S345.3,348.4,384.6,348.4z"/>
</g>
</svg>
