<?xml version="1.0" encoding="UTF-8" standalone="no"?>
<!-- Generator: Adobe Illustrator 24.1.0, SVG Export Plug-In . SVG Version: 6.00 Build 0)  -->

<svg
   xmlns:dc="http://purl.org/dc/elements/1.1/"
   xmlns:cc="http://creativecommons.org/ns#"
   xmlns:rdf="http://www.w3.org/1999/02/22-rdf-syntax-ns#"
   xmlns:svg="http://www.w3.org/2000/svg"
   xmlns="http://www.w3.org/2000/svg"
   xmlns:sodipodi="http://sodipodi.sourceforge.net/DTD/sodipodi-0.dtd"
   xmlns:inkscape="http://www.inkscape.org/namespaces/inkscape"
   version="1.1"
   id="svg8"
   inkscape:export-filename="/media/juhele/data_2TB/_GRAFIKA/GHS hazard symbols/GHS03_oxidizing_substances.png"
   inkscape:export-xdpi="99.027519"
   inkscape:export-ydpi="99.027519"
   inkscape:version="0.92.5 (2060ec1f9f, 2020-04-08)"
   sodipodi:docname="202.svg"
   x="0px"
   y="0px"
   viewBox="0 0 125 125"
   xml:space="preserve"
   width="125"
   height="125"><metadata
   id="metadata2837"><rdf:RDF><cc:Work
       rdf:about=""><dc:format>image/svg+xml</dc:format><dc:type
         rdf:resource="http://purl.org/dc/dcmitype/StillImage" /><dc:title></dc:title></cc:Work></rdf:RDF></metadata><defs
   id="defs2835" /><sodipodi:namedview
   pagecolor="#ffffff"
   bordercolor="#666666"
   borderopacity="1"
   objecttolerance="10"
   gridtolerance="10"
   guidetolerance="10"
   inkscape:pageopacity="0"
   inkscape:pageshadow="2"
   inkscape:window-width="1920"
   inkscape:window-height="1017"
   id="namedview2833"
   showgrid="false"
   inkscape:zoom="1.0934881"
   inkscape:cx="387.79999"
   inkscape:cy="387.75"
   inkscape:window-x="-8"
   inkscape:window-y="-8"
   inkscape:window-maximized="1"
   inkscape:current-layer="svg8" />
<style
   type="text/css"
   id="style2826">
	.st0{fill:#FFFFFF;}
	.st1{fill:#FF0000;}
</style>
<g
   id="g2843"
   transform="matrix(0.08602435,0,0,0.08602435,29.346216,29.433829)"><g
     transform="translate(-0.3,-1.418469)"
     id="g836">
	<path
   d="m 33.6,385.8 352,352 352.1,-352.1 C 620.3,268.4 503.1,150.9 385.7,33.7 Z"
   class="st0"
   inkscape:connector-curvature="0"
   id="path819-3"
   style="fill:#ffffff" />
	<path
   d="M 196.8,196.9 7.9,385.8 196.8,574.7 385.7,763.6 574.6,574.7 763.5,385.8 574.7,196.8 C 470.8,93 385.8,8 385.7,8 c 0,0 -85,85 -188.9,188.9 z m 347.9,29.9 158.9,158.9 -159,159 -159,159 -158.9,-159 -158.9,-159 158.9,-158.9 c 87.4,-87.4 158.9,-158.9 159,-158.9 0.1,-0.1 71.6,71.5 159,158.9 z"
   class="st1"
   inkscape:connector-curvature="0"
   id="path821"
   style="fill:#ff0000" />
	<path
   d="m 382.5,112.3 c -11.8,12.7 0,65.2 -24.4,114.4 -12.6,-13.5 -17.7,-38.7 -32,-51.3 7.5,19.3 -13.5,17.7 -5.9,84.9 -11.4,-2.9 -11.8,-7.6 -37,-37.8 4.7,29.4 1.7,47.9 7.6,80.7 0,0 -6.1,-1.3 -35.3,-22.7 9.5,32 -7.1,99.3 30.7,146.9 l -0.1,-0.1 c 2.9,43.1 33.3,78.7 73.7,89.4 h -73.1 v 31 h 203.9 v -31 h -79.5 c 36.6,-9.7 64.9,-39.8 72.1,-77.4 v 0 c 10,-16 54.8,-67.9 20.4,-151.3 0,0 -10.1,18.5 -28.6,23.5 0,0 23.7,-39.5 4.2,-71.5 0,0 -5.7,23.4 -25.2,24.4 0,0 9.5,-49.8 -16,-81.6 -9.2,21 5.5,29.7 -25.2,47.1 -4.2,-64.7 -17.7,-75.6 -30.3,-117.6 z m -6.7,141.2 c 11.7,7.2 20.2,19.7 22.8,43 1.1,10.3 5,16.1 7.8,26.6 -6.7,-1.4 -13.7,-2.2 -20.8,-2.2 -8.7,0 -17.2,1.1 -25.3,3.2 -1.9,-34 15.9,-26.5 15.5,-70.6 z m -42.9,24.4 c 0,0 4.7,29.6 16.7,49.6 -8.5,3.3 -16.3,7.7 -23.5,13 -3.9,-30.7 5,-37.6 6.8,-62.6 z m 104.3,15.2 c 0,0 4.4,29.7 10.4,49.6 -9.5,-7.6 -20.4,-13.5 -32.3,-17.2 5,-10.3 12.7,-23.8 21.9,-32.4 z m -150.6,32.8 c 0,0 8.9,9 32.3,20.6 -8.2,7.4 -15.1,16.1 -20.5,25.8 -3.7,-12 -8.8,-30 -11.8,-46.4 z m 197.7,10.9 c 0.8,11 0.8,37.6 -4.2,52.1 v 0.5 c -4.4,-13.5 -11.6,-25.7 -20.9,-35.9 6,-4.8 16.2,-12.4 25.1,-16.7 z m -99.7,11.6 c 39.3,0 71.2,31.9 71.2,71.2 0,39.3 -31.9,71.2 -71.2,71.2 -39.3,0 -71.2,-31.9 -71.2,-71.2 0,-39.3 31.9,-71.2 71.2,-71.2 z"
   inkscape:connector-curvature="0"
   id="path823" />
</g></g>
</svg>