<?xml version="1.0" encoding="utf-8"?>
<!-- Generator: Adobe Illustrator 24.1.0, SVG Export Plug-In . SVG Version: 6.00 Build 0)  -->
<svg version="1.1"
	 id="svg8" inkscape:export-filename="/media/juhele/data_2TB/_GRAFIKA/GHS hazard symbols/GHS01_explosive_substances.png" inkscape:export-xdpi="99.027519" inkscape:export-ydpi="99.027519" inkscape:version="0.92.3 (unknown)" sodipodi:docname="GHS01_explosive_substances.svg" xmlns:cc="http://creativecommons.org/ns#" xmlns:dc="http://purl.org/dc/elements/1.1/" xmlns:inkscape="http://www.inkscape.org/namespaces/inkscape" xmlns:rdf="http://www.w3.org/1999/02/22-rdf-syntax-ns#" xmlns:sodipodi="http://sodipodi.sourceforge.net/DTD/sodipodi-0.dtd" xmlns:svg="http://www.w3.org/2000/svg"
	 xmlns="http://www.w3.org/2000/svg" xmlns:xlink="http://www.w3.org/1999/xlink" x="0px" y="0px" viewBox="0 0 775.6 775.5"
	 style="enable-background:new 0 0 775.6 775.5;" xml:space="preserve">
<style type="text/css">
	.st0{fill:#FFFFFF;}
	.st1{fill:#FF0000;}
</style>
<path id="path2" inkscape:connector-curvature="0" class="st0" d="M35.7,387.8l352,352l352.1-352.1
	c-117.4-117.3-234.6-234.8-352-352L35.7,387.8z"/>
<path id="path4" inkscape:connector-curvature="0" class="st1" d="M198.9,198.9L10,387.8l188.9,188.9l188.9,188.9l188.9-188.9
	l188.9-188.9L576.8,198.9C472.9,95,387.9,10,387.8,10C387.8,10,302.8,95,198.9,198.9L198.9,198.9z M546.8,228.8l158.9,158.9
	l-159,159l-159,159l-158.9-159l-158.9-159l158.9-158.9c87.4-87.4,158.9-158.9,159-158.9C387.9,69.8,459.4,141.4,546.8,228.8z"/>
<path id="path6" inkscape:connector-curvature="0" d="M421.7,184.5c-0.1,0-0.2,0.1-0.2,0.3c-0.1,0.2-12.1,34.5-26.7,76.2
	s-26.6,76-26.7,76c-0.2,0.2-1.2-0.2-1.2-0.4c0-0.1,31.3-97.4,31.6-98.3c0-0.1-0.9-0.7-2.8-1.9c-2.8-1.7-3.2-1.9-3.2-1.7
	c0,0.2-26,101.7-26.1,101.8c0,0-0.7-0.1-1.6-0.4c-2-0.6-5.4-1.3-7.6-1.5c-2.5-0.3-8-0.3-10.3,0c-10.4,1.4-18.7,5.7-26.1,13.3
	c-5.1,5.3-9.2,12.2-11.4,19.1c-0.3,0.8-0.5,1.5-0.6,1.6s-4-2.9-8.9-6.5c-4.8-3.6-8.8-6.6-8.9-6.6c0,0,0.5,1,1.1,2.2l1.1,2.2l7.6,5.1
	c7.3,4.9,7.6,5.1,7.5,5.4c-0.1,0.3,0.2,0.6,2.3,2.9c1.3,1.4,2.7,2.9,3.2,3.4l0.8,0.8l2.2-0.1l2.2-0.1l4.2,2.8c2.3,1.5,4,2.6,3.8,2.5
	c-0.2-0.2-1.9-1.5-3.7-2.8c-1.8-1.4-3.2-2.5-3.1-2.5c0.1,0,3-0.2,6.5-0.4l6.3-0.3l9.1,4.6c5,2.5,9.2,4.5,9.2,4.5
	c0,0,2.3-2.7,5.1-6.1c2.8-3.3,5.1-6.2,5.2-6.3c0.1-0.2-0.2-1.1-2.2-5.9c-1.3-3.1-2.3-5.7-2.3-5.7c0,0,3.2,0.3,7.1,0.7
	c3.9,0.4,7,0.7,7.1,0.7c0-0.1,0.5-2,1.1-4.3l1-4.2l3.1,0c1.7,0,3.6,0,4.2,0.1l1.1,0.1l-10.7,11.7c-5.9,6.4-10.9,11.9-11,12
	c-0.5,0.6,3.8-3.7,13.8-13.8l9.8-10l3.7-0.1l3.6-0.1l-0.6-0.9c-0.4-0.5-1.1-1.4-1.5-2c-0.5-0.6-0.8-1.1-0.8-1.1c0-0.1,1.4-1.5,3-3.2
	l3-3l0.3,0.7c0.2,0.4,0.3,0.8,0.3,0.8c0,0.2,0.2,0.1,5.2-2.2c2.6-1.2,4.7-2.1,4.8-2c0.1,0.1,0.5,1.7,1.1,3.6c0.5,1.9,1,3.5,1.1,3.6
	c0.1,0.1,15.3-12.2,15.8-12.7c0.1-0.1,2-3.6,4.2-7.7c2.2-4.1,4.2-7.7,4.3-8s0.3-0.6,0.2-0.5c-0.1,0-3.2,2.6-7,5.7l-6.8,5.6l-4.9,0.1
	c-2.7,0.1-5.1,0.1-5.3,0.1c-0.4,0,2.3-2.8,45.8-46.7c25.4-25.7,46.2-46.7,46.2-46.7c0-0.1-1.2-1.3-2.7-2.7c-2.5-2.5-2.7-2.6-2.9-2.4
	c-0.1,0.1-21.3,23.1-47,51.1l-46.7,50.9l-3.7,2.6c-2,1.4-3.8,2.7-3.8,2.7c-0.1,0.1,0,0.4,0.3,1.1c0.4,0.8,0.4,1,0.2,1.2
	c-0.1,0.2-5,5.5-5.9,6.5c-0.2,0.2-0.2,0.2-1.3-0.8c-2.1-2.1-4.1-3.7-6.6-5.4l-1.2-0.8l23.2-39.8c18.3-31.4,23.1-39.8,23-39.9
	c-0.1-0.1-1.3-0.8-2.6-1.7l-2.5-1.5l-0.4,0.8c-0.2,0.4-9.6,19-20.9,41.2c-11.6,23-20.5,40.4-20.6,40.4c-0.1,0-0.1-0.2,0.1-0.7
	c0.1-0.4,12.4-34.6,27.3-76.2c14.9-41.5,27.1-75.6,27.1-75.6c-0.1-0.1-9.1-4.3-10.1-4.7C421.8,184.5,421.8,184.5,421.7,184.5
	L421.7,184.5z M375.8,242.7l-1.3,3.2l-1.3,3.3l-2.5-1c-1.4-0.5-2.5-1-2.6-0.9c0,0.1-0.6,2.8-1.3,6.1c-0.7,3.3-1.2,6.1-1.3,6.2
	c0,0.2,0.5,0.5,2.5,1.4c1.4,0.7,2.7,1.3,2.7,1.3c0.1,0.1,0.7,2.3,1.4,4.9c0.7,2.6,1.3,4.8,1.4,4.9c0,0,1.1-1.4,2.3-3.3
	c2.4-3.5,2.4-3.5,9.8-11.6l0.4-0.4l-2.2-7l-2.2-7l-0.9-0.1c-0.5-0.1-1.9-0.1-3-0.1L375.8,242.7z M547.6,273.8
	c-0.1,0-0.1,0.1-0.2,0.3c-0.4,1.3-4.4,13.6-4.4,13.7c0,0-2.7,0.2-6,0.3l-6,0.3l-1.7,1.3c-0.9,0.7-1.7,1.3-1.7,1.3
	c0,0-1.6,10.2-1.6,10.2c0.1,0,9.3,5.3,9.3,5.3c0,0,1.7-1.8,3.7-4c2-2.2,3.7-4,3.8-4c0,0,3.4,2.3,7.4,5l7.4,5l0-1.8
	c0-1,0-5.1-0.1-9.1l-0.1-7.2l-4.9-8.4C549.8,277.6,547.6,273.8,547.6,273.8L547.6,273.8z M422.2,278.9l-0.2,0.3
	c-0.1,0.2-0.9,1.3-1.7,2.4l-1.5,2.1l-0.9,4.7c-0.5,2.6-0.9,4.8-0.9,4.9c0,0.2,1.1,1.2,3.3,3.1c1.8,1.6,3.3,2.8,3.4,2.8
	c0.1,0,1.2-1.3,2.5-2.9l2.4-2.9l0.5-2.6c0.3-1.4,0.6-2.9,0.7-3.3l0.1-0.8l-1.4-3.9c-0.8-2.1-1.5-3.9-1.5-3.9
	c-0.1-0.1-0.6,0.5-1.2,1.1l-1.1,1.2l-1.2-1.2L422.2,278.9z M499.2,285.8c-0.1,0-27.8,19.6-61.8,43.5c-33.9,23.9-61.7,43.5-61.7,43.5
	c0,0,27.8-17.2,61.8-38.3l61.7-38.3V291C499.3,288.1,499.3,285.8,499.2,285.8L499.2,285.8z M487,319.8l-2.5,2.8l-2.5,2.8l-1.2,3.2
	c-0.7,1.8-1.2,3.2-1.2,3.3c0.1,0.1,22,2.7,22.1,2.6c0,0-3.3-3.3-7.3-7.4L487,319.8z M588.3,321.7c-0.1,0-49,12.6-108.7,28.1
	S371,378.1,371,378.1c0,0,220.3-49.9,220.4-49.9C591.5,328.1,588.4,321.8,588.3,321.7z M460.3,336.7c-0.1,0-16.3,7.7-36.2,17.1
	c-19.9,9.4-36.2,17.1-36.3,17.2c-0.1,0.1-0.1,0.1,0.1,0c0.4-0.2,73-28.1,73-28.2c0,0-0.1-1.4-0.2-3.1
	C460.6,337.9,460.4,336.7,460.3,336.7L460.3,336.7z M617.7,344.2c-0.2,0-53.8,9.1-119.3,20.2c-65.5,11.1-119.2,20.2-119.4,20.2
	c-0.2,0-0.8-0.4-1.7-1.1l-1.5-1.2l-0.1,4.8l-0.1,4.8l-3.8,2.6c-2.1,1.4-3.8,2.5-3.9,2.5c-0.1,0-1.7-1.1-3.5-2.4
	c-4.9-3.6-5-3.5-0.3,0.1c1.8,1.4,3.3,2.5,3.3,2.6c0.1,0.1-5.9,4.2-6.1,4.1c-0.1,0-15-12.7-18.6-15.9l-0.8-0.7l-6.9,6
	c-3.8,3.3-6.9,6-7,6c-0.1,0-4-1-8.7-2.3l-8.5-2.3l2.4,0.1c1.3,0,3.3,0.1,4.5,0.1c2,0.1-3.7-0.4-10.4-0.8c-1.2-0.1-8-0.5-15-1
	l-12.7-0.8l0-0.4c-0.1-0.4,0-0.4-1.1,0c-0.8,0.3-0.9,0.3-3.4,0.1c-1.4-0.1-2.8-0.2-3.2-0.2l-0.7-0.1l-0.6-1.1l-0.6-1.1l-4.3-0.2
	c-2.4-0.1-4.6-0.2-5-0.2H260l-0.6,0.9l-0.5,0.9l-0.6-0.1c-0.4,0-13.5-0.9-29.3-1.9c-15.8-1-28.9-1.9-29.1-1.9l-0.5,0l1.5,1.6
	c1.3,1.4,1.5,1.6,1.9,1.6c0.3,0,12.7,0.5,27.7,1.1c15,0.6,27.3,1.1,27.3,1.2c0,0-0.6,1.1-1.3,2.4c-0.8,1.3-1.4,2.4-1.3,2.4
	c0.1,0.1,1.9,1.4,4,2.9l3.9,2.8l4.3,0.7c2.4,0.4,4.4,0.7,4.5,0.7c0.1,0,0.7-1,1.5-2.2l1.3-2.2h2.7h2.7v-0.5c0-0.3-0.1-1.8-0.2-3.3
	c-0.1-1.5-0.2-2.8-0.2-2.9c0.1-0.1,27.2,1,27.9,1.1c0.3,0.1,0.4,0.1,0.4,0.4c0,0.5,0.7,3.4,1.2,5.1c0.4,1.5,0.4,1.5,0.2,1.5
	c-0.1,0-33.5,3.9-74.2,8.5c-40.6,4.7-73.9,8.5-73.9,8.5c0,0-0.3,3.3-0.3,3.3c0,0,33.4-4.5,74.2-10s74.2-10,74.3-10
	c0.1,0,0.3,0.3,0.5,0.8c0.2,0.4,0.5,1.3,0.8,2c0.3,0.7,0.5,1.3,0.4,1.3c0,0-25,5.5-55.5,12.3c-30.5,6.7-55.5,12.3-55.7,12.4
	c-0.2,0.1-0.3,0.4-0.6,1.9c-0.2,1-0.3,1.8-0.3,1.9c0.1,0.1,111.8-27.5,112.3-27.7c0.1,0,0.3,0.3,0.5,0.8c0.3,0.6,0.3,0.8,0.2,0.9
	c-0.1,0-8.5,2.3-18.7,5l-18.6,4.9l-0.2,1.9c-0.1,1-0.2,1.9-0.2,1.9c0,0,8.7-2.8,19.3-6.3c19.3-6.4,19.5-6.4,19.5-5.9
	c0,0.1-13.6,7.5-30.2,16.4l-30.2,16.3l0.1,1.2c0.1,0.7,0.1,1.4,0.1,1.7l0.1,0.5l30-17.6c16.5-9.7,30.1-17.7,30.2-17.8
	c0.2-0.1,0.4,0.2,1.2,1.6c0.9,1.6,2.2,3.4,3.5,5c0.5,0.7,0.5,0.7,0.3,0.9c-0.1,0.1-16,12.8-35.3,28.2l-35.1,28l2.5,2.4
	c1.4,1.3,2.6,2.5,2.7,2.5c0.2,0.1,4.8-4.2,21-19c11.4-10.5,20.8-19,20.8-19c0,0-0.2,0.4-0.4,0.8c-0.2,0.4-0.4,0.8-0.4,0.9
	c0,0.1,3.5,4,4.3,4.8c0.2,0.2,0.3,0.2,2.7-0.9l2.5-1.1l1.3,1.3l1.3,1.2l2.5-1.5l2.5-1.5l1-3.2c0.5-1.8,1-3.3,1-3.4
	c0-0.1-1-0.8-2.3-1.6l-2.3-1.4l-3.7-0.1l-3.6-0.1l9-8.2c4.9-4.5,9-8.2,9-8.2c0,0,1,1,2.2,2.2c1.2,1.2,2.8,2.6,3.5,3.2
	c8.4,6.7,18,10,28.2,9.7c8.1-0.2,15.3-2.5,22.1-7c2.8-1.8,4.6-3.3,7.2-5.8l1.6-1.5l24,19.3c13.2,10.6,24,19.3,24,19.3
	c0,0-0.6-1.5-1.4-3.3l-1.5-3.3L407,433l-22.3-16.3l0.4-0.5c0.2-0.3,0.9-1.1,1.4-1.8c0.5-0.7,1-1.2,1.1-1.2
	c0.1,0,13.5,10.5,29.9,23.3c16.4,12.8,30,23.4,30.2,23.6l0.5,0.4l1.4-1.4c0.8-0.8,1.4-1.5,1.4-1.5c0,0-14-10.2-31.2-22.6
	c-17.1-12.4-31.2-22.6-31.3-22.7c-0.2-0.2-0.2-0.3,0.6-1.4c0.5-0.8,0.8-1.2,0.9-1.2c0.1,0,12.8,7.8,28.3,17.3
	c15.4,9.5,28.1,17.2,28.2,17.1c0,0-0.6-1.5-1.5-3.2l-1.6-3.1L417,423.1l-26.5-14.5l0.9-1.8c0.5-1,1.1-2.2,1.4-2.7l0.4-1l16.4,4.2
	c9,2.3,16.4,4.3,16.5,4.3c0.1,0.1-1.2,1.9-1.3,1.9c-0.1,0-2.3-0.4-4.9-0.9c-2.6-0.5-4.8-0.9-4.9-0.9c-0.1,0-0.7,0.9-1.6,2.5
	l-1.4,2.6l3.3,2.4c1.8,1.3,4.1,3,5.1,3.8l1.8,1.3l13.4,2.3c7.4,1.3,13.4,2.3,13.4,2.2c0,0,0.3-3.4,0.4-5.7l0-0.8l-2.2-2.5l-2.2-2.5
	l-2.7-1.2c-1.5-0.6-2.7-1.2-2.7-1.2c0,0,8.6,2.2,19,4.9c10.5,2.7,19.1,4.9,19.2,4.9c0.1,0,0.1,0,0.1-0.1c0-0.1,0.4-2.6,0.8-5.7
	c0.5-3.1,0.8-5.6,0.8-5.6c0,0-19.3-2.7-42.8-6c-23.5-3.3-42.8-6-42.8-6c0,0,0.2-0.9,0.6-1.9c0.4-1,0.6-2,0.6-2.1
	c0-0.1-0.9-0.5-3.3-1.4l-3.3-1.2l-0.7-1.2c-0.4-0.6-0.6-1.2-0.6-1.2c0,0,18.5,0.8,41.1,1.9l41,1.9l0.3,0.3l0.3,0.4l7.4,0.5l7.4,0.5
	l0.4-0.5l0.4-0.5l52.5,2.5c28.9,1.4,52.5,2.4,52.5,2.4c0,0-1-0.8-2.2-1.7l-2.2-1.7l-49.4-1.5c-27.2-0.9-49.5-1.6-49.6-1.6
	c-0.1,0,1.4-1.8,3.6-4.3c2.1-2.3,3.7-4.3,3.7-4.3c0,0-6-2.7-13.2-5.9c-7.2-3.2-13.2-5.9-13.2-5.9c-0.1,0-1.7,1.5-3.6,3.3l-3.5,3.4
	l-5,1.7c-2.7,0.9-5,1.7-5,1.7c0,0,0.5,2.1,1.1,4.5c0.6,2.5,1.1,4.5,1.1,4.6c-0.1,0-14.9-0.4-33-1c-18.1-0.6-32.9-1-33-1
	c-0.1,0-0.3-0.5-0.7-1c-0.6-0.9-0.7-1.1-4.1-3.8l-3.5-2.8l0.7-0.1c0.4-0.1,54.2-7.4,119.5-16.2l118.9-16.1l0.1-4.1v-4.1H617.7z
	 M282.4,363.8c0,0,0,0.1,0,0.1c0.1,0.1,0.3,0.8,0.5,1.3l0.4,1l19.7,9.5c10.8,5.2,19.7,9.4,19.7,9.4c0,0-8.8-4.7-19.5-10.4
	c-10.7-5.7-19.9-10.5-20.2-10.7C282.6,363.8,282.4,363.8,282.4,363.8L282.4,363.8z M265.1,375.4c0,0-0.9,0.7-1.9,1.6
	c-1,0.9-1.8,1.6-1.8,1.7c0.1,0.1,58.7,9.2,58.8,9.2C320.3,387.8,265.3,375.4,265.1,375.4z M320.6,387.8c-0.1,0-0.2,0-0.2,0.1
	C320.5,387.9,320.6,387.9,320.6,387.8C320.8,387.9,320.8,387.8,320.6,387.8z M271.9,390.7l0.9,0.1c0.5,0.1,1,0.1,1.2,0.1
	c0.3,0,0.3,0.1-0.4,0.3c-1.3,0.5-1.2,0.5-1.5,0L271.9,390.7z M465.6,392.4c0.1,0,0.7,0.6,1.3,1.3l1.2,1.3l-2.1-0.1
	c-1.2-0.1-3.5-0.1-5.2-0.2c-1.7,0-2.9-0.1-2.8-0.2C458.3,394.4,465.5,392.4,465.6,392.4z M320.2,392.6
	C320.2,392.7,320.2,392.7,320.2,392.6c0,0.1,0.1,0.1,0.2,0.1c0.1,0,0-0.1-0.1-0.1C320.3,392.6,320.3,392.6,320.2,392.6z
	 M224.2,396.4c-0.1,0-1.8,1.3-3.9,2.9l-3.8,2.8l0,1.5c0,1.5,0,1.5,0.2,1.6c0.5,0.1,21,2,21.2,1.9C238,407.2,224.5,396.5,224.2,396.4
	z M249.8,421c0,0.1,7.7,7.5,7.8,7.5c0.1,0,1.4-0.5,2.8-1.1l2.7-1.1V424v-2.3h-0.3c-0.4,0-11.2-0.6-12.2-0.7
	C250.1,421,249.8,421,249.8,421z M221.5,440.6c0,0-0.1,0.1-0.1,0.2c0,0.1-0.6,2.1-1.4,4.5l-1.3,4.4l0.4,0.6c2.2,3,7.6,10.4,7.7,10.4
	c0.1,0,0.3-0.6,0.6-1.3c0.3-0.8,0.8-2.3,1.2-3.5l0.7-2.1l0.5-0.1c0.3,0,1.3-0.1,2.4-0.2l1.9-0.1l1.5-1.6l1.5-1.6l0.8-2.4
	c0.4-1.3,0.7-2.4,0.7-2.4c-0.1-0.1-7.1-2.7-7.2-2.7c-0.1,0-0.6,0.6-1.2,1.3c-0.6,0.7-1.1,1.3-1.2,1.3c-0.1,0-1.8-1.1-3.7-2.3
	C223.2,441.6,221.5,440.6,221.5,440.6L221.5,440.6z"/>
</svg>
