<?xml version="1.0" encoding="UTF-8" standalone="no"?>
<!-- Generator: Adobe Illustrator 24.1.0, SVG Export Plug-In . SVG Version: 6.00 Build 0)  -->

<svg
   xmlns:dc="http://purl.org/dc/elements/1.1/"
   xmlns:cc="http://creativecommons.org/ns#"
   xmlns:rdf="http://www.w3.org/1999/02/22-rdf-syntax-ns#"
   xmlns:svg="http://www.w3.org/2000/svg"
   xmlns="http://www.w3.org/2000/svg"
   xmlns:sodipodi="http://sodipodi.sourceforge.net/DTD/sodipodi-0.dtd"
   xmlns:inkscape="http://www.inkscape.org/namespaces/inkscape"
   version="1.1"
   id="svg8"
   inkscape:export-filename="/media/juhele/data_2TB/_GRAFIKA/GHS hazard symbols/GHS01_explosive_substances.png"
   inkscape:export-xdpi="99.027519"
   inkscape:export-ydpi="99.027519"
   inkscape:version="0.92.5 (2060ec1f9f, 2020-04-08)"
   sodipodi:docname="203.svg"
   x="0px"
   y="0px"
   viewBox="0 0 125 125"
   xml:space="preserve"
   width="125"
   height="125"><metadata
   id="metadata2875"><rdf:RDF><cc:Work
       rdf:about=""><dc:format>image/svg+xml</dc:format><dc:type
         rdf:resource="http://purl.org/dc/dcmitype/StillImage" /><dc:title></dc:title></cc:Work></rdf:RDF></metadata><defs
   id="defs2873" /><sodipodi:namedview
   pagecolor="#ffffff"
   bordercolor="#666666"
   borderopacity="1"
   objecttolerance="10"
   gridtolerance="10"
   guidetolerance="10"
   inkscape:pageopacity="0"
   inkscape:pageshadow="2"
   inkscape:window-width="728"
   inkscape:window-height="480"
   id="namedview2871"
   showgrid="false"
   inkscape:zoom="1.0934881"
   inkscape:cx="387.79999"
   inkscape:cy="387.75"
   inkscape:window-x="0"
   inkscape:window-y="0"
   inkscape:window-maximized="1"
   inkscape:current-layer="svg8" />
<style
   type="text/css"
   id="style2865">
	.st0{fill:#FFFFFF;}
	.st1{fill:#FF0000;}
</style>


<g
   id="g2880"
   transform="matrix(0.08602435,0,0,0.08602435,29.139757,29.139757)"><path
     d="m 35.7,387.8 352,352 352.1,-352.1 C 622.4,270.4 505.2,152.9 387.8,35.7 Z"
     class="st0"
     inkscape:connector-curvature="0"
     id="path2"
     style="fill:#ffffff" /><path
     d="M 198.9,198.9 10,387.8 198.9,576.7 387.8,765.6 576.7,576.7 765.6,387.8 576.8,198.9 C 472.9,95 387.9,10 387.8,10 c 0,0 -85,85 -188.9,188.9 z m 347.9,29.9 158.9,158.9 -159,159 -159,159 -158.9,-159 -158.9,-159 158.9,-158.9 c 87.4,-87.4 158.9,-158.9 159,-158.9 0.1,-0.1 71.6,71.5 159,158.9 z"
     class="st1"
     inkscape:connector-curvature="0"
     id="path4"
     style="fill:#ff0000" /><path
     d="m 421.7,184.5 c -0.1,0 -0.2,0.1 -0.2,0.3 -0.1,0.2 -12.1,34.5 -26.7,76.2 -14.6,41.7 -26.6,76 -26.7,76 -0.2,0.2 -1.2,-0.2 -1.2,-0.4 0,-0.1 31.3,-97.4 31.6,-98.3 0,-0.1 -0.9,-0.7 -2.8,-1.9 -2.8,-1.7 -3.2,-1.9 -3.2,-1.7 0,0.2 -26,101.7 -26.1,101.8 0,0 -0.7,-0.1 -1.6,-0.4 -2,-0.6 -5.4,-1.3 -7.6,-1.5 -2.5,-0.3 -8,-0.3 -10.3,0 -10.4,1.4 -18.7,5.7 -26.1,13.3 -5.1,5.3 -9.2,12.2 -11.4,19.1 -0.3,0.8 -0.5,1.5 -0.6,1.6 -0.1,0.1 -4,-2.9 -8.9,-6.5 -4.8,-3.6 -8.8,-6.6 -8.9,-6.6 0,0 0.5,1 1.1,2.2 l 1.1,2.2 7.6,5.1 c 7.3,4.9 7.6,5.1 7.5,5.4 -0.1,0.3 0.2,0.6 2.3,2.9 1.3,1.4 2.7,2.9 3.2,3.4 l 0.8,0.8 2.2,-0.1 2.2,-0.1 4.2,2.8 c 2.3,1.5 4,2.6 3.8,2.5 -0.2,-0.2 -1.9,-1.5 -3.7,-2.8 -1.8,-1.4 -3.2,-2.5 -3.1,-2.5 0.1,0 3,-0.2 6.5,-0.4 l 6.3,-0.3 9.1,4.6 c 5,2.5 9.2,4.5 9.2,4.5 0,0 2.3,-2.7 5.1,-6.1 2.8,-3.3 5.1,-6.2 5.2,-6.3 0.1,-0.2 -0.2,-1.1 -2.2,-5.9 -1.3,-3.1 -2.3,-5.7 -2.3,-5.7 0,0 3.2,0.3 7.1,0.7 3.9,0.4 7,0.7 7.1,0.7 0,-0.1 0.5,-2 1.1,-4.3 l 1,-4.2 h 3.1 c 1.7,0 3.6,0 4.2,0.1 l 1.1,0.1 -10.7,11.7 c -5.9,6.4 -10.9,11.9 -11,12 -0.5,0.6 3.8,-3.7 13.8,-13.8 l 9.8,-10 3.7,-0.1 3.6,-0.1 -0.6,-0.9 c -0.4,-0.5 -1.1,-1.4 -1.5,-2 -0.5,-0.6 -0.8,-1.1 -0.8,-1.1 0,-0.1 1.4,-1.5 3,-3.2 l 3,-3 0.3,0.7 c 0.2,0.4 0.3,0.8 0.3,0.8 0,0.2 0.2,0.1 5.2,-2.2 2.6,-1.2 4.7,-2.1 4.8,-2 0.1,0.1 0.5,1.7 1.1,3.6 0.5,1.9 1,3.5 1.1,3.6 0.1,0.1 15.3,-12.2 15.8,-12.7 0.1,-0.1 2,-3.6 4.2,-7.7 2.2,-4.1 4.2,-7.7 4.3,-8 0.1,-0.3 0.3,-0.6 0.2,-0.5 -0.1,0 -3.2,2.6 -7,5.7 l -6.8,5.6 -4.9,0.1 c -2.7,0.1 -5.1,0.1 -5.3,0.1 -0.4,0 2.3,-2.8 45.8,-46.7 25.4,-25.7 46.2,-46.7 46.2,-46.7 0,-0.1 -1.2,-1.3 -2.7,-2.7 -2.5,-2.5 -2.7,-2.6 -2.9,-2.4 -0.1,0.1 -21.3,23.1 -47,51.1 l -46.7,50.9 -3.7,2.6 c -2,1.4 -3.8,2.7 -3.8,2.7 -0.1,0.1 0,0.4 0.3,1.1 0.4,0.8 0.4,1 0.2,1.2 -0.1,0.2 -5,5.5 -5.9,6.5 -0.2,0.2 -0.2,0.2 -1.3,-0.8 -2.1,-2.1 -4.1,-3.7 -6.6,-5.4 l -1.2,-0.8 23.2,-39.8 c 18.3,-31.4 23.1,-39.8 23,-39.9 -0.1,-0.1 -1.3,-0.8 -2.6,-1.7 l -2.5,-1.5 -0.4,0.8 c -0.2,0.4 -9.6,19 -20.9,41.2 -11.6,23 -20.5,40.4 -20.6,40.4 -0.1,0 -0.1,-0.2 0.1,-0.7 0.1,-0.4 12.4,-34.6 27.3,-76.2 14.9,-41.5 27.1,-75.6 27.1,-75.6 -0.1,-0.1 -9.1,-4.3 -10.1,-4.7 0.1,0.2 0.1,0.2 0,0.2 z m -45.9,58.2 -1.3,3.2 -1.3,3.3 -2.5,-1 c -1.4,-0.5 -2.5,-1 -2.6,-0.9 0,0.1 -0.6,2.8 -1.3,6.1 -0.7,3.3 -1.2,6.1 -1.3,6.2 0,0.2 0.5,0.5 2.5,1.4 1.4,0.7 2.7,1.3 2.7,1.3 0.1,0.1 0.7,2.3 1.4,4.9 0.7,2.6 1.3,4.8 1.4,4.9 0,0 1.1,-1.4 2.3,-3.3 2.4,-3.5 2.4,-3.5 9.8,-11.6 l 0.4,-0.4 -2.2,-7 -2.2,-7 -0.9,-0.1 c -0.5,-0.1 -1.9,-0.1 -3,-0.1 z m 171.8,31.1 c -0.1,0 -0.1,0.1 -0.2,0.3 -0.4,1.3 -4.4,13.6 -4.4,13.7 0,0 -2.7,0.2 -6,0.3 l -6,0.3 -1.7,1.3 c -0.9,0.7 -1.7,1.3 -1.7,1.3 0,0 -1.6,10.2 -1.6,10.2 0.1,0 9.3,5.3 9.3,5.3 0,0 1.7,-1.8 3.7,-4 2,-2.2 3.7,-4 3.8,-4 0,0 3.4,2.3 7.4,5 l 7.4,5 v -1.8 c 0,-1 0,-5.1 -0.1,-9.1 l -0.1,-7.2 -4.9,-8.4 c -2.7,-4.4 -4.9,-8.2 -4.9,-8.2 z m -125.4,5.1 -0.2,0.3 c -0.1,0.2 -0.9,1.3 -1.7,2.4 l -1.5,2.1 -0.9,4.7 c -0.5,2.6 -0.9,4.8 -0.9,4.9 0,0.2 1.1,1.2 3.3,3.1 1.8,1.6 3.3,2.8 3.4,2.8 0.1,0 1.2,-1.3 2.5,-2.9 l 2.4,-2.9 0.5,-2.6 c 0.3,-1.4 0.6,-2.9 0.7,-3.3 l 0.1,-0.8 -1.4,-3.9 c -0.8,-2.1 -1.5,-3.9 -1.5,-3.9 -0.1,-0.1 -0.6,0.5 -1.2,1.1 l -1.1,1.2 -1.2,-1.2 z m 77,6.9 c -0.1,0 -27.8,19.6 -61.8,43.5 -33.9,23.9 -61.7,43.5 -61.7,43.5 0,0 27.8,-17.2 61.8,-38.3 l 61.7,-38.3 V 291 c 0.1,-2.9 0.1,-5.2 0,-5.2 z m -12.2,34 -2.5,2.8 -2.5,2.8 -1.2,3.2 c -0.7,1.8 -1.2,3.2 -1.2,3.3 0.1,0.1 22,2.7 22.1,2.6 0,0 -3.3,-3.3 -7.3,-7.4 z m 101.3,1.9 c -0.1,0 -49,12.6 -108.7,28.1 -59.7,15.5 -108.6,28.3 -108.6,28.3 0,0 220.3,-49.9 220.4,-49.9 0.1,-0.1 -3,-6.4 -3.1,-6.5 z m -128,15 c -0.1,0 -16.3,7.7 -36.2,17.1 -19.9,9.4 -36.2,17.1 -36.3,17.2 -0.1,0.1 -0.1,0.1 0.1,0 0.4,-0.2 73,-28.1 73,-28.2 0,0 -0.1,-1.4 -0.2,-3.1 -0.1,-1.8 -0.3,-3 -0.4,-3 z m 157.4,7.5 c -0.2,0 -53.8,9.1 -119.3,20.2 -65.5,11.1 -119.2,20.2 -119.4,20.2 -0.2,0 -0.8,-0.4 -1.7,-1.1 l -1.5,-1.2 -0.1,4.8 -0.1,4.8 -3.8,2.6 c -2.1,1.4 -3.8,2.5 -3.9,2.5 -0.1,0 -1.7,-1.1 -3.5,-2.4 -4.9,-3.6 -5,-3.5 -0.3,0.1 1.8,1.4 3.3,2.5 3.3,2.6 0.1,0.1 -5.9,4.2 -6.1,4.1 -0.1,0 -15,-12.7 -18.6,-15.9 l -0.8,-0.7 -6.9,6 c -3.8,3.3 -6.9,6 -7,6 -0.1,0 -4,-1 -8.7,-2.3 l -8.5,-2.3 2.4,0.1 c 1.3,0 3.3,0.1 4.5,0.1 2,0.1 -3.7,-0.4 -10.4,-0.8 -1.2,-0.1 -8,-0.5 -15,-1 l -12.7,-0.8 v -0.4 c -0.1,-0.4 0,-0.4 -1.1,0 -0.8,0.3 -0.9,0.3 -3.4,0.1 -1.4,-0.1 -2.8,-0.2 -3.2,-0.2 l -0.7,-0.1 -0.6,-1.1 -0.6,-1.1 -4.3,-0.2 c -2.4,-0.1 -4.6,-0.2 -5,-0.2 H 260 l -0.6,0.9 -0.5,0.9 -0.6,-0.1 c -0.4,0 -13.5,-0.9 -29.3,-1.9 -15.8,-1 -28.9,-1.9 -29.1,-1.9 h -0.5 l 1.5,1.6 c 1.3,1.4 1.5,1.6 1.9,1.6 0.3,0 12.7,0.5 27.7,1.1 15,0.6 27.3,1.1 27.3,1.2 0,0 -0.6,1.1 -1.3,2.4 -0.8,1.3 -1.4,2.4 -1.3,2.4 0.1,0.1 1.9,1.4 4,2.9 l 3.9,2.8 4.3,0.7 c 2.4,0.4 4.4,0.7 4.5,0.7 0.1,0 0.7,-1 1.5,-2.2 l 1.3,-2.2 h 2.7 2.7 V 397 c 0,-0.3 -0.1,-1.8 -0.2,-3.3 -0.1,-1.5 -0.2,-2.8 -0.2,-2.9 0.1,-0.1 27.2,1 27.9,1.1 0.3,0.1 0.4,0.1 0.4,0.4 0,0.5 0.7,3.4 1.2,5.1 0.4,1.5 0.4,1.5 0.2,1.5 -0.1,0 -33.5,3.9 -74.2,8.5 -40.6,4.7 -73.9,8.5 -73.9,8.5 0,0 -0.3,3.3 -0.3,3.3 0,0 33.4,-4.5 74.2,-10 40.8,-5.5 74.2,-10 74.3,-10 0.1,0 0.3,0.3 0.5,0.8 0.2,0.4 0.5,1.3 0.8,2 0.3,0.7 0.5,1.3 0.4,1.3 0,0 -25,5.5 -55.5,12.3 -30.5,6.7 -55.5,12.3 -55.7,12.4 -0.2,0.1 -0.3,0.4 -0.6,1.9 -0.2,1 -0.3,1.8 -0.3,1.9 0.1,0.1 111.8,-27.5 112.3,-27.7 0.1,0 0.3,0.3 0.5,0.8 0.3,0.6 0.3,0.8 0.2,0.9 -0.1,0 -8.5,2.3 -18.7,5 l -18.6,4.9 -0.2,1.9 c -0.1,1 -0.2,1.9 -0.2,1.9 0,0 8.7,-2.8 19.3,-6.3 19.3,-6.4 19.5,-6.4 19.5,-5.9 0,0.1 -13.6,7.5 -30.2,16.4 l -30.2,16.3 0.1,1.2 c 0.1,0.7 0.1,1.4 0.1,1.7 l 0.1,0.5 30,-17.6 c 16.5,-9.7 30.1,-17.7 30.2,-17.8 0.2,-0.1 0.4,0.2 1.2,1.6 0.9,1.6 2.2,3.4 3.5,5 0.5,0.7 0.5,0.7 0.3,0.9 -0.1,0.1 -16,12.8 -35.3,28.2 l -35.1,28 2.5,2.4 c 1.4,1.3 2.6,2.5 2.7,2.5 0.2,0.1 4.8,-4.2 21,-19 11.4,-10.5 20.8,-19 20.8,-19 0,0 -0.2,0.4 -0.4,0.8 -0.2,0.4 -0.4,0.8 -0.4,0.9 0,0.1 3.5,4 4.3,4.8 0.2,0.2 0.3,0.2 2.7,-0.9 l 2.5,-1.1 1.3,1.3 1.3,1.2 2.5,-1.5 2.5,-1.5 1,-3.2 c 0.5,-1.8 1,-3.3 1,-3.4 0,-0.1 -1,-0.8 -2.3,-1.6 l -2.3,-1.4 -3.7,-0.1 -3.6,-0.1 9,-8.2 c 4.9,-4.5 9,-8.2 9,-8.2 0,0 1,1 2.2,2.2 1.2,1.2 2.8,2.6 3.5,3.2 8.4,6.7 18,10 28.2,9.7 8.1,-0.2 15.3,-2.5 22.1,-7 2.8,-1.8 4.6,-3.3 7.2,-5.8 l 1.6,-1.5 24,19.3 c 13.2,10.6 24,19.3 24,19.3 0,0 -0.6,-1.5 -1.4,-3.3 l -1.5,-3.3 -22.2,-16.2 -22.3,-16.3 0.4,-0.5 c 0.2,-0.3 0.9,-1.1 1.4,-1.8 0.5,-0.7 1,-1.2 1.1,-1.2 0.1,0 13.5,10.5 29.9,23.3 16.4,12.8 30,23.4 30.2,23.6 l 0.5,0.4 1.4,-1.4 c 0.8,-0.8 1.4,-1.5 1.4,-1.5 0,0 -14,-10.2 -31.2,-22.6 -17.1,-12.4 -31.2,-22.6 -31.3,-22.7 -0.2,-0.2 -0.2,-0.3 0.6,-1.4 0.5,-0.8 0.8,-1.2 0.9,-1.2 0.1,0 12.8,7.8 28.3,17.3 15.4,9.5 28.1,17.2 28.2,17.1 0,0 -0.6,-1.5 -1.5,-3.2 l -1.6,-3.1 -26.4,-14.7 -26.5,-14.5 0.9,-1.8 c 0.5,-1 1.1,-2.2 1.4,-2.7 l 0.4,-1 16.4,4.2 c 9,2.3 16.4,4.3 16.5,4.3 0.1,0.1 -1.2,1.9 -1.3,1.9 -0.1,0 -2.3,-0.4 -4.9,-0.9 -2.6,-0.5 -4.8,-0.9 -4.9,-0.9 -0.1,0 -0.7,0.9 -1.6,2.5 l -1.4,2.6 3.3,2.4 c 1.8,1.3 4.1,3 5.1,3.8 l 1.8,1.3 13.4,2.3 c 7.4,1.3 13.4,2.3 13.4,2.2 0,0 0.3,-3.4 0.4,-5.7 v -0.8 l -2.2,-2.5 -2.2,-2.5 -2.7,-1.2 c -1.5,-0.6 -2.7,-1.2 -2.7,-1.2 0,0 8.6,2.2 19,4.9 10.5,2.7 19.1,4.9 19.2,4.9 0.1,0 0.1,0 0.1,-0.1 0,-0.1 0.4,-2.6 0.8,-5.7 0.5,-3.1 0.8,-5.6 0.8,-5.6 0,0 -19.3,-2.7 -42.8,-6 -23.5,-3.3 -42.8,-6 -42.8,-6 0,0 0.2,-0.9 0.6,-1.9 0.4,-1 0.6,-2 0.6,-2.1 0,-0.1 -0.9,-0.5 -3.3,-1.4 l -3.3,-1.2 -0.7,-1.2 c -0.4,-0.6 -0.6,-1.2 -0.6,-1.2 0,0 18.5,0.8 41.1,1.9 l 41,1.9 0.3,0.3 0.3,0.4 7.4,0.5 7.4,0.5 0.4,-0.5 0.4,-0.5 52.5,2.5 c 28.9,1.4 52.5,2.4 52.5,2.4 0,0 -1,-0.8 -2.2,-1.7 l -2.2,-1.7 -49.4,-1.5 c -27.2,-0.9 -49.5,-1.6 -49.6,-1.6 -0.1,0 1.4,-1.8 3.6,-4.3 2.1,-2.3 3.7,-4.3 3.7,-4.3 0,0 -6,-2.7 -13.2,-5.9 -7.2,-3.2 -13.2,-5.9 -13.2,-5.9 -0.1,0 -1.7,1.5 -3.6,3.3 l -3.5,3.4 -5,1.7 c -2.7,0.9 -5,1.7 -5,1.7 0,0 0.5,2.1 1.1,4.5 0.6,2.5 1.1,4.5 1.1,4.6 -0.1,0 -14.9,-0.4 -33,-1 -18.1,-0.6 -32.9,-1 -33,-1 -0.1,0 -0.3,-0.5 -0.7,-1 -0.6,-0.9 -0.7,-1.1 -4.1,-3.8 l -3.5,-2.8 0.7,-0.1 c 0.4,-0.1 54.2,-7.4 119.5,-16.2 L 617.9,352 618,347.9 v -4.1 h -0.3 z m -335.3,19.6 c 0,0 0,0.1 0,0.1 0.1,0.1 0.3,0.8 0.5,1.3 l 0.4,1 19.7,9.5 c 10.8,5.2 19.7,9.4 19.7,9.4 0,0 -8.8,-4.7 -19.5,-10.4 C 292.5,369 283.3,364.2 283,364 c -0.4,-0.2 -0.6,-0.2 -0.6,-0.2 z m -17.3,11.6 c 0,0 -0.9,0.7 -1.9,1.6 -1,0.9 -1.8,1.6 -1.8,1.7 0.1,0.1 58.7,9.2 58.8,9.2 0.1,-0.1 -54.9,-12.5 -55.1,-12.5 z m 55.5,12.4 c -0.1,0 -0.2,0 -0.2,0.1 0.1,0 0.2,0 0.2,-0.1 0.2,0.1 0.2,0 0,0 z m -48.7,2.9 0.9,0.1 c 0.5,0.1 1,0.1 1.2,0.1 0.3,0 0.3,0.1 -0.4,0.3 -1.3,0.5 -1.2,0.5 -1.5,0 z m 193.7,1.7 c 0.1,0 0.7,0.6 1.3,1.3 l 1.2,1.3 -2.1,-0.1 c -1.2,-0.1 -3.5,-0.1 -5.2,-0.2 -1.7,0 -2.9,-0.1 -2.8,-0.2 0.3,-0.1 7.5,-2.1 7.6,-2.1 z m -145.4,0.2 c 0,0.1 0,0.1 0,0 0,0.1 0.1,0.1 0.2,0.1 0.1,0 0,-0.1 -0.1,-0.1 0,0 0,0 -0.1,0 z m -96,3.8 c -0.1,0 -1.8,1.3 -3.9,2.9 l -3.8,2.8 v 1.5 c 0,1.5 0,1.5 0.2,1.6 0.5,0.1 21,2 21.2,1.9 0.1,0.1 -13.4,-10.6 -13.7,-10.7 z m 25.6,24.6 c 0,0.1 7.7,7.5 7.8,7.5 0.1,0 1.4,-0.5 2.8,-1.1 l 2.7,-1.1 v -2.3 -2.3 h -0.3 c -0.4,0 -11.2,-0.6 -12.2,-0.7 -0.5,0 -0.8,0 -0.8,0 z m -28.3,19.6 c 0,0 -0.1,0.1 -0.1,0.2 0,0.1 -0.6,2.1 -1.4,4.5 l -1.3,4.4 0.4,0.6 c 2.2,3 7.6,10.4 7.7,10.4 0.1,0 0.3,-0.6 0.6,-1.3 0.3,-0.8 0.8,-2.3 1.2,-3.5 l 0.7,-2.1 0.5,-0.1 c 0.3,0 1.3,-0.1 2.4,-0.2 l 1.9,-0.1 1.5,-1.6 1.5,-1.6 0.8,-2.4 c 0.4,-1.3 0.7,-2.4 0.7,-2.4 -0.1,-0.1 -7.1,-2.7 -7.2,-2.7 -0.1,0 -0.6,0.6 -1.2,1.3 -0.6,0.7 -1.1,1.3 -1.2,1.3 -0.1,0 -1.8,-1.1 -3.7,-2.3 -2.1,-1.4 -3.8,-2.4 -3.8,-2.4 z"
     inkscape:connector-curvature="0"
     id="path6" /></g>
</svg>