<?xml version="1.0" encoding="utf-8"?>
<!-- Generator: Adobe Illustrator 24.1.0, SVG Export Plug-In . SVG Version: 6.00 Build 0)  -->
<svg version="1.1"
	 id="svg8" inkscape:export-filename="/media/juhele/data_2TB/_GRAFIKA/GHS hazard symbols/GHS06_toxic_substances.png" inkscape:export-xdpi="99.027519" inkscape:export-ydpi="99.027519" inkscape:version="0.92.3 (unknown)" sodipodi:docname="GHS06_toxic_substances.svg" xmlns:cc="http://creativecommons.org/ns#" xmlns:dc="http://purl.org/dc/elements/1.1/" xmlns:inkscape="http://www.inkscape.org/namespaces/inkscape" xmlns:rdf="http://www.w3.org/1999/02/22-rdf-syntax-ns#" xmlns:sodipodi="http://sodipodi.sourceforge.net/DTD/sodipodi-0.dtd" xmlns:svg="http://www.w3.org/2000/svg"
	 xmlns="http://www.w3.org/2000/svg" xmlns:xlink="http://www.w3.org/1999/xlink" x="0px" y="0px" viewBox="0 0 775.6 775.5"
	 style="enable-background:new 0 0 775.6 775.5;" xml:space="preserve">
<style type="text/css">
	.st0{fill:#FF0000;}
	.st1{fill:#FFFFFF;}
</style>
<g id="g893" transform="matrix(0.78708857,0,0,0.78708857,1.2614394,-0.54923778)">
	<path id="path819-3" inkscape:connector-curvature="0" class="st0" d="M490.5,969.6l480-480l-480-480l-480,480L490.5,969.6z"/>
	<path id="path821" inkscape:connector-curvature="0" class="st1" d="M490.5,893.5L86.8,489.8L490.5,86l403.7,403.7L490.5,893.5z"/>
	<path id="path823" inkscape:connector-curvature="0" d="M311.6,511.9c-14.8,0-23.9-5.1-28.1-13.5H176.8v48.7h265.7v-48.7h-96.7
		C339.3,506.8,326.5,511.9,311.6,511.9"/>
	<path id="path825" inkscape:connector-curvature="0" d="M336.1,493.8c4.3,0,10.5-2.1,15.6-12.1c1.1-2.3,1.4-5.2,1.6-8.3
		c0.1-1.6,0.3-4.2,0.7-5.2c0.5-0.3,1.6-0.8,2.4-1.2c2.9-1.3,7-3.1,9.1-7.3c1.2-2.4,1.5-4.7,1.5-7c0-1.7-0.2-3.3-0.4-4.8
		c-0.2-1.6-0.4-3.2-0.4-4.8c0-0.5,0-1.1,0.1-1.7c0.2-2.8,5.2-8.9,9.6-12.8l-6.8-7.7c-2.1,1.8-12.3,11.2-13,19.6
		c-0.3,3.3,0.1,6.1,0.3,8.5c0.3,2.9,0.5,4.6-0.1,6c-0.5,0.9-2.4,1.8-4.1,2.5c-2.6,1.1-5.6,2.4-7.2,5.4c-1.4,2.7-1.7,6.1-2,9.5
		c-0.1,1.5-0.3,3.9-0.6,4.6c-0.9,1.7-1.8,3.2-2.7,4.2c-0.6,1.8-1.7,4.3-3.6,7L336.1,493.8"/>
	<path id="path827" inkscape:connector-curvature="0" d="M322.8,487.4l5.9,8.4c3.3-2.3,5.7-5,7.5-7.5c1.9-2.7,3-5.2,3.6-7
		c0.2-0.7,0.4-1.2,0.6-1.6c0.9-2.9,0.2-5.6-0.4-8c-0.6-2.5-1-4.1-0.3-5.6c0.8-1.8,2.2-2.9,3.9-4.2c2-1.5,4.4-3.5,5.9-6.7
		c1.9-4,0.8-8.4-0.3-12.6c-0.7-3-1.5-6.1-1.1-8.4l-10.1-1.8c-0.2,1.1-0.3,2.2-0.3,3.3c0,3.3,0.8,6.5,1.5,9.5c0.4,1.6,1,4,1,5.2
		c0,0.2,0,0.4-0.1,0.5c-0.5,1-1.4,1.7-3,3c-2.3,1.8-5.1,4-6.9,8c-0.9,2.1-1.3,4.1-1.3,6c0,2.5,0.5,4.6,1,6.3c0.2,0.8,0.5,2,0.5,2.5
		C329.5,479.8,327.7,484,322.8,487.4"/>
	<path id="path829" inkscape:connector-curvature="0" d="M277.9,466.4c0.7,1.3,1.1,2.5,1.4,3.6c1,0.7,2.5,1.6,2.8,2.1
		c0.5,1.2,0,4.6-0.3,6.8c-0.1,0.7-0.2,1.4-0.3,2.1c2.4,2.4,6.3,5.3,8.3,6.3l-3.9,7.7c1.9,2.7,4.1,5.4,6.2,7.7l7.6-6.9
		c-4.4-4.8-7.4-9.5-8.2-11.5c0-0.1,0-0.2,0-0.3c0-0.9,0.2-2.6,0.4-3.8c0.3-2,0.5-4.2,0.5-6.3c0-1.9-0.2-3.8-0.9-5.6
		c-1.3-3.5-4.5-5.5-7-7.1c-1.5-0.9-3.5-2.3-3.6-3.1c0-0.2,0-0.4,0-0.6c0-1,0.3-2.1,0.9-3.9c0.8-2.6,1.9-6,1.9-11.1
		c0-0.7,0-1.4-0.1-2.1l-10.2,0.6c0.3,4.3-0.6,6.8-1.4,9.5c-0.8,2.5-1.7,5.3-1.3,8.9c0,0.2,0.1,0.3,0.1,0.5
		C273.2,461.2,276,463,277.9,466.4"/>
	<path id="path831" inkscape:connector-curvature="0" d="M256.3,445.2c0.2,2-0.1,3.4-0.5,5.1c-0.6,2.8-1.4,6.3,0.9,10.9
		c2.1,4.1,5.6,5.9,8.2,7.2c2.1,1,3.3,1.7,4,2.9c0.8,1.5,0.7,2.6,0.6,4.4c-0.2,2.2-0.5,5.1,1.4,8.3c3.1,5.2,11.1,10.8,14.5,12.5
		l0.7-1.4l3.9-7.7c-2.1-1-5.9-3.9-8.3-6.3c-0.8-0.8-1.5-1.6-1.9-2.2c-0.2-0.3-0.2-0.7-0.1-2.2c0.1-1.7,0.3-3.9-0.4-6.6
		c-0.3-1.1-0.7-2.3-1.4-3.6c-1.9-3.4-4.6-5.2-7-6.5c-0.5-0.3-1-0.5-1.4-0.7c-2.2-1.1-3.1-1.6-3.6-2.6c-0.7-1.3-0.6-1.9-0.1-4.1
		c0.4-1.9,1-4.6,0.7-8.2c-0.6-6.8-5.8-12.4-10-17l-3.1-3.5l-7.9,6.5l3.5,3.9C252.1,437.7,256,442,256.3,445.2"/>
	<path id="path833" inkscape:connector-curvature="0" d="M301.6,452.2c0,7.9,1.9,18.4,11.1,18.4c9.2,0,11.7-11.9,11.7-16.8
		c0-4.3-6.5-22.5-8.1-39.1c-2,0-3.7-0.6-5.2-1.5C309.6,431.7,301.5,445,301.6,452.2"/>
	<path id="path835" inkscape:connector-curvature="0" d="M446,303.1c-20.1,3.2-112.1,19.7-120.9,21.5c-13.1,2.5-16.1-9.3-22.1-12.2
		c0,0,8.8,51.8,9.3,55.6c1.8,13.8-7.6,21-7.6,31.3c0,3.7,1.6,10.7,6.4,13.8c1.4,0.9,3.1,1.5,5.2,1.5c0.1,0,0.1,0,0.2,0
		c9,0,10.9-9,10.9-15.8c0-10.6-5.1-16.6-5.1-19.2c0-2.6,2.1-5.5,10.2-6.8s109.5-18.9,125.5-21.5c16-2.6,27.8-15.7,25.3-29.1
		C480.6,308.8,466.2,299.9,446,303.1 M453,340.8c-13.7,0.9-132.9,12.4-132.9,12.4l-2.6-16.9c0,0,118-20.5,131.9-22.8
		c13.9-2.3,23.7,3.2,23.7,11.9C473.1,334.3,466.7,340,453,340.8"/>
	<path id="path837" inkscape:connector-curvature="0" d="M665.6,408c-2.8,14.2-8.7,27.9-8.7,31.7c0,4.9,1.5,17.1,10.7,17.1
		c9.2,0,12.1-10.8,12.1-18.7c0-6.2-5.4-16.3-7.7-30.8c-1.3,0.6-2.9,0.9-4.6,0.9C666.8,408.2,666.2,408.2,665.6,408"/>
	<path id="path839" inkscape:connector-curvature="0" d="M517.5,348.4c16,2.6,128.1,21.2,136.3,22.5c4.6,0.7,8.4,3.8,8.4,5.1
		s-4.9,6-4.9,14.3c0,6.3,1,16.3,8.3,17.7c0.5,0.1,1.1,0.2,1.8,0.2c1.7,0,3.3-0.3,4.6-0.9c5.5-2.4,7.7-9.3,7.7-15.6
		c0-14.6-7.6-11.7-5.8-25.6c0.5-3.8,7.9-54.1,7.9-54.1c-6,2.8-7.6,13.1-20.6,10.6c-8.9-1.7-111.7-20.7-131.9-23.9
		c-20.1-3.2-33.8,7.3-36.4,20.7C490.2,332.9,501.5,345.9,517.5,348.4 M529.5,308.8c13.9,2.3,138.8,24.1,138.8,24.1l-2.6,16.9
		c0,0-129.2-11.3-142.8-12.2c-13.7-0.9-19.8-5.5-19.8-14.3C503.1,314.5,513.9,306.2,529.5,308.8"/>
	<path id="path841" inkscape:connector-curvature="0" d="M710.8,424c0.1,1.4,0.1,2.2-0.7,4c-1.5,3.3-4.1,7.4-8,8.4l2.3,10
		c4.4-1,10.7-4.3,15.1-14.1c1.8-4,1.7-6.8,1.6-8.7c-0.1-1.6-0.1-2.3,1.2-4.4c1-1.5,1.2-1.6,2.4-1.9c2.6-0.7,5.6-1.8,8.2-6.7
		c3-5.5,2-10.1,1.3-13.5c-0.4-1.8-0.7-3.3-0.4-4.8c0.4-2.3,2-4.1,5.1-7.2c1.7-1.7,3.6-3.7,5.5-6.1l-8-6.3c-1.6,2-3.2,3.7-4.8,5.3
		c-3.4,3.5-6.9,7.1-7.8,12.7c-0.5,3.3,0.1,6.2,0.5,8.5c0.6,3,0.8,4.4-0.3,6.5c-0.7,1.3-0.7,1.3-1.8,1.6c-2.6,0.7-5.6,1.8-8.5,6.3
		c-2.9,4.5-3,7.5-2.8,10.4"/>
	<path id="path843" inkscape:connector-curvature="0" d="M693.3,441.4c4.9-4.3,6.4-5.9,8.7-13.1c1.5-4.7,1.1-7.8,0.9-10.3
		c-0.2-2-0.4-3.4,0.3-5.9c0.3-1.3,0.5-1.4,1.9-2.1c2.2-1.2,5.8-3.1,7.5-9.5c1.5-5.8-0.2-9.5-1.4-12.2c-1-2.1-1.5-3.3-1-6.1
		l-10.1-1.8c-1.1,5.9,0.6,9.5,1.8,12.2c1,2.1,1.4,3.1,0.8,5.3c-0.5,2-0.9,2.2-2.4,3c-2,1.1-5.5,2.9-7,8.5c-1.2,4.4-0.9,7.3-0.6,9.7
		c0.2,2.1,0.4,3.5-0.5,6.1c-1.5,4.8-1.6,4.9-5.7,8.4l-2.4,2.1l6.9,7.6L693.3,441.4"/>
	<path id="path845" inkscape:connector-curvature="0" d="M617.5,407.2c1.2,5.1,4.8,7.4,7.5,9c2.4,1.5,3.3,2.1,3.6,3.7
		c0.5,2.5,0.3,3.2-0.1,4.3c-0.7,2.1-1.3,4.4-0.2,8.2c1.9,6.8,4,9,10.8,15.8l7.2-7.2c-6.5-6.5-7-7.2-8.2-11.4c-0.3-1.1-0.3-1.2,0-2.2
		c0.7-2.2,1.4-4.8,0.4-9.7c-1.3-6-5.5-8.6-8.2-10.3c-2.1-1.3-2.7-1.8-2.9-2.6c-0.4-1.6,0-2.9,0.9-5.3c1-3,2.3-6.6,1.7-11.9
		l-10.2,1.2c0.3,2.9-0.3,4.8-1.2,7.3C617.7,399.1,616.4,402.7,617.5,407.2"/>
	<path id="path847" inkscape:connector-curvature="0" d="M610.5,404.6c0-1.8-0.3-3.9-1.1-6.5c-2.4-7-4.8-9.7-7.7-12.8l-2.9-3.3
		l-7.9,6.5l3.2,3.6c2.6,2.8,3.9,4.2,5.5,9.1c0.9,2.6,0.6,4,0.2,6c-0.5,2.6-1.2,6.3,1.1,11.4c2.5,5.6,6.3,7,8.7,7.9
		c1.7,0.6,1.9,0.7,2.5,2c1,2.1,0.9,2.7,0.6,3.9c-0.3,1.5-0.8,3.9,0.6,7.1c1.8,4.2,7,14,15.3,15.2l1.5-10.1c-2.1-0.3-5.3-4.3-7.5-9.2
		l-0.1-0.2l0.1-0.7c0.2-1,0.4-2.1,0.4-3.3c0-1.9-0.4-4.1-1.7-6.9c-2.4-5.1-5.9-6.4-8.3-7.3c-1.8-0.7-2.2-0.8-2.9-2.5
		c-0.5-1.1-0.7-2-0.7-2.8c0-0.7,0.1-1.5,0.3-2.5C610.3,408,610.6,406.4,610.5,404.6"/>
	<path id="path849" inkscape:connector-curvature="0" d="M677.5,464.3c-10,8.1-32.5,8.7-44.4-2.1l-2.5-2.3l-3.1,1.4
		c-4.6,2.1-10.7,2.3-15.6,2.4c-6.2,0.2-11.1,0.3-13.7,4.3c-1.8,2.9-1.7,6.8,0.5,10.7c0.3,0.6,0.8,1.3,1.2,1.9h22.3
		c-8.3,0-12.7-3.9-14.3-6.4c1.3-0.1,2.9-0.2,4.2-0.2c4.9-0.1,10.8-0.4,16.4-2.3c6.1,4.7,13.6,7.3,21.2,8.3
		c5.5-6.5,14.8-8.9,20.2-8.9v7.7c4.2-1.1,8.1-2.7,11.4-4.9c5.4,2.3,13.1,7,18.4,10.2c4.6,2.8,6.9,4.2,8.4,4.7c4.6,1.8,24,3.4,36,3.4
		v-10.2c-13.5,0-29.8-1.8-32.3-2.7c-0.8-0.3-4.1-2.3-6.8-3.9c-6.9-4.2-16.3-9.9-22.8-12.1l-2.7-0.9L677.5,464.3"/>
	<path id="path851" inkscape:connector-curvature="0" d="M622.3,480.6h-38.2c-17.2,0-19,10.5-19,14.2c0,1,0.1,2.3,0.5,3.7H581
		c-4.6,0-6-1.8-6-3.7c0-1.9,1.7-4,9.1-4h61.3c0.3-4.2,1.8-7.5,3.9-10.2L622.3,480.6"/>
	<path id="path855" inkscape:connector-curvature="0" d="M559.6,498.6c-9.9,0-16.5,7.7-16.5,15c0,6.9,6.1,15.2,17,15.2h3.2
		c0.7-3.9,3.9-9.5,15.5-10.2v-0.1h-18.7c-3.8,0-6.7-3.8-6.8-5c0-1.3,1.9-4.7,6.3-4.7h66.5v-10.2H559.6"/>
	<path id="path857" inkscape:connector-curvature="0" d="M563.2,528.7c-0.2,0.8-0.2,1.6-0.2,2.2c0,8.4,7.4,15.2,20,15.2h0.2
		c1.9-5.7,8.9-9.7,18.2-10.2v-0.1H583c-6.3,0-9.8-3.3-9.8-5c0-1.5,3.9-2.2,7.8-2.2h45v-10.2h-45c-0.8,0-1.5,0-2.3,0.1
		C567,519.2,563.9,524.8,563.2,528.7"/>
	<path id="path859" inkscape:connector-curvature="0" d="M583.3,546.2c-0.3,1-0.5,2.1-0.5,3.2c0,6.4,5.8,13.3,18.6,14.5
		c9.3,0.8,49.5,2,56.8,2c6,0,31.1-0.8,44.7-4.8c4-1.2,7.4-2.7,10.7-4.3c7-3.3,14.3-6.7,30.1-6.7V540c-18.1,0-26.8,4.1-34.5,7.6
		c-3.1,1.4-5.9,2.8-9.2,3.7c-11.4,3.3-34.6,4.3-41.8,4.3c-6.8,0-46.9-1.3-56-2c-6.5-0.5-9.2-3-9.2-4.3c0.2-0.6,3.4-3.2,10.6-3.2
		h41.2l-9.9-10.2h-31.4c-0.7,0-1.4,0-2,0.1C592.2,536.5,585.3,540.5,583.3,546.2"/>
	<path id="path861" inkscape:connector-curvature="0" d="M649.7,480c-0.1,0.2-0.3,0.3-0.4,0.5c-2.1,2.7-3.6,6.1-3.9,10.2
		c0,0.6-0.1,1.1-0.1,1.7c0,9.5,5,26.1,38.6,30.4l1.3-10.2c-11.1-1.4-29.6-5.9-29.6-20.2c0-0.6,0.1-1.2,0.1-1.7
		c1.5-8.8,17.5-12.9,17.7-12.9l-3.4-6.7C664.6,471.2,655.2,473.6,649.7,480"/>
</g>
</svg>
