<?xml version="1.0" encoding="UTF-8" standalone="no"?>
<!-- Generator: Adobe Illustrator 24.1.0, SVG Export Plug-In . SVG Version: 6.00 Build 0)  -->

<svg
   xmlns:dc="http://purl.org/dc/elements/1.1/"
   xmlns:cc="http://creativecommons.org/ns#"
   xmlns:rdf="http://www.w3.org/1999/02/22-rdf-syntax-ns#"
   xmlns:svg="http://www.w3.org/2000/svg"
   xmlns="http://www.w3.org/2000/svg"
   xmlns:sodipodi="http://sodipodi.sourceforge.net/DTD/sodipodi-0.dtd"
   xmlns:inkscape="http://www.inkscape.org/namespaces/inkscape"
   version="1.1"
   id="svg8"
   inkscape:export-filename="/media/juhele/data_2TB/_GRAFIKA/GHS hazard symbols/GHS07_hazardous_substances.png"
   inkscape:export-xdpi="99.027519"
   inkscape:export-ydpi="99.027519"
   inkscape:version="0.92.5 (2060ec1f9f, 2020-04-08)"
   sodipodi:docname="206.svg"
   x="0px"
   y="0px"
   viewBox="0 0 125 125"
   xml:space="preserve"
   width="125"
   height="125"><metadata
   id="metadata3024"><rdf:RDF><cc:Work
       rdf:about=""><dc:format>image/svg+xml</dc:format><dc:type
         rdf:resource="http://purl.org/dc/dcmitype/StillImage" /><dc:title></dc:title></cc:Work></rdf:RDF></metadata><defs
   id="defs3022" /><sodipodi:namedview
   pagecolor="#ffffff"
   bordercolor="#666666"
   borderopacity="1"
   objecttolerance="10"
   gridtolerance="10"
   guidetolerance="10"
   inkscape:pageopacity="0"
   inkscape:pageshadow="2"
   inkscape:window-width="1920"
   inkscape:window-height="1017"
   id="namedview3020"
   showgrid="false"
   inkscape:zoom="1.0934881"
   inkscape:cx="387.79999"
   inkscape:cy="387.75"
   inkscape:window-x="-8"
   inkscape:window-y="-8"
   inkscape:window-maximized="1"
   inkscape:current-layer="svg8" />
<style
   type="text/css"
   id="style3013">
	.st0{fill:#FFFFFF;}
	.st1{fill:#FF0000;}
</style>
<g
   id="g3030"
   transform="matrix(0.08602435,0,0,0.08602435,29.177212,29.393067)"><g
     transform="translate(1.1646037,-1.0446272)"
     id="g836">
	<path
   d="m 34.1,385.9 352,352 352.1,-352.1 C 620.8,268.5 503.6,151 386.2,33.8 Z"
   class="st0"
   inkscape:connector-curvature="0"
   id="path819"
   style="fill:#ffffff" />
	<path
   d="M 8.4,385.9 386.2,763.7 764,385.8 386.2,8.1 Z m 695.7,-0.1 -318,318 L 68.3,385.8 386.2,68 Z"
   class="st1"
   inkscape:connector-curvature="0"
   id="path821"
   style="fill:#ff0000" />
	<path
   d="m 386,190.1 c -1.2,0 -2.1,0 -2.6,0.1 -16.5,1.1 -31.1,7 -40.2,16.1 -2.9,2.9 -4.8,5.4 -6.4,8.7 -1.1,2.3 -1.7,4 -2.2,6.3 -0.3,1.5 -0.4,1.8 -0.4,4.7 0,2.8 0,3.2 0.3,4.9 0.3,1.8 26,175.2 26.4,178.1 0.3,2 0.9,4.6 1.7,6.5 3.8,9.6 12.2,16.4 22.3,17.8 1.9,0.3 6,0.3 7.9,0 12.4,-1.8 22.3,-11.8 24,-24.3 0.5,-3.5 26,-176.5 26.4,-178.2 0.3,-1.6 0.3,-2.1 0.3,-4.7 0,-3 -0.1,-4.1 -0.7,-6.3 -1,-3.6 -2.9,-7.3 -5.5,-10.6 -2,-2.6 -5.4,-5.6 -8.6,-7.9 -7.3,-5.1 -17.3,-8.9 -27.5,-10.4 -4.5,-0.7 -6.2,-0.8 -11.4,-0.8 -1.3,0 -2.7,0 -3.8,0 z m 2.8,268.2 c -0.7,0 -1.3,0 -1.9,0 -10,0.4 -19.5,4.7 -26.9,12.1 -2.2,2.2 -3.7,4 -5.4,6.6 -4.1,6.2 -6.3,12.1 -7.4,20.2 -0.2,1.6 -0.2,8.9 0,10.7 1.1,8.8 4.3,16.7 9.7,23.4 1.3,1.6 3.9,4.4 5.5,5.7 4.8,4.1 10.7,7.2 16.5,8.7 3.8,1 5.8,1.2 10,1.2 4.1,0 6.2,-0.3 9.8,-1.2 9.9,-2.5 18.7,-8.8 24.6,-17.6 4.3,-6.5 6.8,-13.8 7.5,-21.8 0.2,-2.2 0.1,-7.6 -0.2,-9.5 -0.7,-5.5 -2.1,-9.9 -4.3,-14.5 -6.3,-12.9 -18.3,-21.9 -31.9,-23.7 -1.5,-0.2 -3.7,-0.3 -5.6,-0.3 z"
   inkscape:connector-curvature="0"
   id="path823" />
</g></g>
</svg>