<?xml version="1.0" encoding="utf-8"?>
<!-- Generator: Adobe Illustrator 24.1.0, SVG Export Plug-In . SVG Version: 6.00 Build 0)  -->
<svg version="1.1"
	 id="svg8" inkscape:export-filename="/media/juhele/data_2TB/_GRAFIKA/GHS hazard symbols/GHS07_hazardous_substances.png" inkscape:export-xdpi="99.027519" inkscape:export-ydpi="99.027519" inkscape:version="0.92.3 (unknown)" sodipodi:docname="GHS07_hazardous_substances.svg" xmlns:cc="http://creativecommons.org/ns#" xmlns:dc="http://purl.org/dc/elements/1.1/" xmlns:inkscape="http://www.inkscape.org/namespaces/inkscape" xmlns:rdf="http://www.w3.org/1999/02/22-rdf-syntax-ns#" xmlns:sodipodi="http://sodipodi.sourceforge.net/DTD/sodipodi-0.dtd" xmlns:svg="http://www.w3.org/2000/svg"
	 xmlns="http://www.w3.org/2000/svg" xmlns:xlink="http://www.w3.org/1999/xlink" x="0px" y="0px" viewBox="0 0 775.6 775.5"
	 style="enable-background:new 0 0 775.6 775.5;" xml:space="preserve">
<style type="text/css">
	.st0{fill:#FFFFFF;}
	.st1{fill:#FF0000;}
</style>
<g id="g836" transform="translate(1.1646037,-1.0446272)">
	<path id="path819" inkscape:connector-curvature="0" class="st0" d="M34.1,385.9l352,352l352.1-352.1
		c-117.4-117.3-234.6-234.8-352-352L34.1,385.9z"/>
	<path id="path821" inkscape:connector-curvature="0" class="st1" d="M8.4,385.9l377.8,377.8L764,385.8L386.2,8.1L8.4,385.9z
		 M704.1,385.8l-318,318l-317.8-318L386.2,68L704.1,385.8z"/>
	<path id="path823" inkscape:connector-curvature="0" d="M386,190.1c-1.2,0-2.1,0-2.6,0.1c-16.5,1.1-31.1,7-40.2,16.1
		c-2.9,2.9-4.8,5.4-6.4,8.7c-1.1,2.3-1.7,4-2.2,6.3c-0.3,1.5-0.4,1.8-0.4,4.7c0,2.8,0,3.2,0.3,4.9c0.3,1.8,26,175.2,26.4,178.1
		c0.3,2,0.9,4.6,1.7,6.5c3.8,9.6,12.2,16.4,22.3,17.8c1.9,0.3,6,0.3,7.9,0c12.4-1.8,22.3-11.8,24-24.3c0.5-3.5,26-176.5,26.4-178.2
		c0.3-1.6,0.3-2.1,0.3-4.7c0-3-0.1-4.1-0.7-6.3c-1-3.6-2.9-7.3-5.5-10.6c-2-2.6-5.4-5.6-8.6-7.9c-7.3-5.1-17.3-8.9-27.5-10.4
		c-4.5-0.7-6.2-0.8-11.4-0.8C388.5,190.1,387.1,190.1,386,190.1L386,190.1z M388.8,458.3c-0.7,0-1.3,0-1.9,0
		c-10,0.4-19.5,4.7-26.9,12.1c-2.2,2.2-3.7,4-5.4,6.6c-4.1,6.2-6.3,12.1-7.4,20.2c-0.2,1.6-0.2,8.9,0,10.7
		c1.1,8.8,4.3,16.7,9.7,23.4c1.3,1.6,3.9,4.4,5.5,5.7c4.8,4.1,10.7,7.2,16.5,8.7c3.8,1,5.8,1.2,10,1.2c4.1,0,6.2-0.3,9.8-1.2
		c9.9-2.5,18.7-8.8,24.6-17.6c4.3-6.5,6.8-13.8,7.5-21.8c0.2-2.2,0.1-7.6-0.2-9.5c-0.7-5.5-2.1-9.9-4.3-14.5
		c-6.3-12.9-18.3-21.9-31.9-23.7C392.9,458.4,390.7,458.3,388.8,458.3L388.8,458.3z"/>
</g>
</svg>
