<?xml version="1.0" encoding="UTF-8" standalone="no"?>
<!-- Generator: Adobe Illustrator 24.1.0, SVG Export Plug-In . SVG Version: 6.00 Build 0)  -->

<svg
   xmlns:dc="http://purl.org/dc/elements/1.1/"
   xmlns:cc="http://creativecommons.org/ns#"
   xmlns:rdf="http://www.w3.org/1999/02/22-rdf-syntax-ns#"
   xmlns:svg="http://www.w3.org/2000/svg"
   xmlns="http://www.w3.org/2000/svg"
   xmlns:sodipodi="http://sodipodi.sourceforge.net/DTD/sodipodi-0.dtd"
   xmlns:inkscape="http://www.inkscape.org/namespaces/inkscape"
   version="1.1"
   id="Laag_1"
   x="0px"
   y="0px"
   viewBox="0 0 125 125"
   xml:space="preserve"
   sodipodi:docname="207.svg"
   width="125"
   height="125"
   inkscape:version="0.92.5 (2060ec1f9f, 2020-04-08)"><metadata
   id="metadata3089"><rdf:RDF><cc:Work
       rdf:about=""><dc:format>image/svg+xml</dc:format><dc:type
         rdf:resource="http://purl.org/dc/dcmitype/StillImage" /><dc:title></dc:title></cc:Work></rdf:RDF></metadata><defs
   id="defs3087" /><sodipodi:namedview
   pagecolor="#ffffff"
   bordercolor="#666666"
   borderopacity="1"
   objecttolerance="10"
   gridtolerance="10"
   guidetolerance="10"
   inkscape:pageopacity="0"
   inkscape:pageshadow="2"
   inkscape:window-width="1920"
   inkscape:window-height="1017"
   id="namedview3085"
   showgrid="false"
   inkscape:zoom="1.4645941"
   inkscape:cx="289.5"
   inkscape:cy="289.5"
   inkscape:window-x="-8"
   inkscape:window-y="-8"
   inkscape:window-maximized="1"
   inkscape:current-layer="Laag_1" />
<style
   type="text/css"
   id="style3074">
	.st0{fill:#FFFFFF;}
	.st1{fill:#FF0000;}
</style>


<g
   id="g3095"
   transform="matrix(0.11469914,0,0,0.11469914,29.311804,29.277394)"><path
     id="path3076"
     d="m 25.3,289.7 264,264 264.1,-264.1 c -88.1,-88 -175.9,-176.1 -264,-264 z"
     class="st0"
     inkscape:connector-curvature="0"
     style="fill:#ffffff" /><path
     id="path3078"
     d="M 147.7,148 6,289.7 289.3,573 572.7,289.6 431.1,148 C 353.2,70.1 289.4,6.3 289.4,6.3 c 0,0 -63.8,63.8 -141.7,141.7 z M 408.6,170.4 527.8,289.6 289.3,528.1 170.1,408.9 51,289.6 170.2,170.4 C 235.8,104.8 289.4,51.2 289.4,51.2 c 0,0 53.7,53.7 119.2,119.2 z"
     class="st1"
     inkscape:connector-curvature="0"
     style="fill:#ff0000" /><g
     id="g3082"
     transform="scale(0.8)">
	<path
   id="path3080"
   d="m 437.6,288 c -1,0 -1.9,0 -2.6,0.2 -1.2,0.2 -231.3,62 -232.1,62.3 -6.5,2.6 -10.9,9.7 -12.2,19.9 -0.3,2.1 -0.4,5.8 -0.3,8.2 0.2,3.9 0.7,7.2 1.7,11.1 3.9,15.8 13.7,28.3 24.3,30.6 1.2,0.3 4.1,0.3 5.3,0.1 1,-0.2 229,-61.3 231.3,-62 4.4,-1.4 7.7,-4.4 10.2,-9.4 1.4,-2.8 2.2,-5.4 2.9,-9.3 0.6,-3.1 1,-4.4 2.3,-6.4 1.6,-2.4 4.4,-4.5 7.2,-5.3 0.5,-0.1 11.8,-3.2 25.3,-6.8 13.4,-3.6 24.7,-6.7 25.1,-6.9 5.4,-2.5 7.4,-10.4 4.3,-17.1 -1.7,-3.7 -4.8,-6.4 -8.2,-7.1 -1.1,-0.2 -2.8,-0.2 -4,0.1 -0.5,0.1 -11.7,3.1 -24.9,6.7 -13.2,3.5 -24.3,6.5 -24.6,6.6 -0.4,0.1 -1.4,0.2 -2.7,0.2 -2.3,0 -3.1,-0.2 -5,-0.9 -2.3,-0.9 -3.7,-2.1 -6.1,-4.8 -3.5,-4.1 -6.6,-6.6 -10.1,-8.3 -1.5,-0.7 -3.1,-1.2 -4.5,-1.5 -0.6,-0.2 -1.6,-0.2 -2.6,-0.2 z"
   inkscape:connector-curvature="0" />
</g></g>
</svg>