<?xml version="1.0" encoding="utf-8"?>
<!-- Generator: Adobe Illustrator 24.1.0, SVG Export Plug-In . SVG Version: 6.00 Build 0)  -->
<svg version="1.1"
	 id="Laag_1" xmlns:cc="http://creativecommons.org/ns#" xmlns:dc="http://purl.org/dc/elements/1.1/" xmlns:rdf="http://www.w3.org/1999/02/22-rdf-syntax-ns#"
	 xmlns="http://www.w3.org/2000/svg" xmlns:xlink="http://www.w3.org/1999/xlink" x="0px" y="0px" viewBox="0 0 579 579"
	 style="enable-background:new 0 0 579 579;" xml:space="preserve">
<style type="text/css">
	.st0{fill:#FFFFFF;}
	.st1{fill:#FF0000;}
</style>
<path class="st0" d="M25.3,289.7l264,264l264.1-264.1c-88.1-88-175.9-176.1-264-264L25.3,289.7L25.3,289.7z"/>
<path class="st1" d="M147.7,148L6,289.7L289.3,573l283.4-283.4L431.1,148C353.2,70.1,289.4,6.3,289.4,6.3
	C289.4,6.3,225.6,70.1,147.7,148L147.7,148z M408.6,170.4l119.2,119.2L289.3,528.1L170.1,408.9L51,289.6l119.2-119.2
	c65.6-65.6,119.2-119.2,119.2-119.2C289.4,51.2,343.1,104.9,408.6,170.4L408.6,170.4z"/>
<g transform="scale(.8)">
	<path d="M437.6,288c-1,0-1.9,0-2.6,0.2c-1.2,0.2-231.3,62-232.1,62.3c-6.5,2.6-10.9,9.7-12.2,19.9c-0.3,2.1-0.4,5.8-0.3,8.2
		c0.2,3.9,0.7,7.2,1.7,11.1c3.9,15.8,13.7,28.3,24.3,30.6c1.2,0.3,4.1,0.3,5.3,0.1c1-0.2,229-61.3,231.3-62
		c4.4-1.4,7.7-4.4,10.2-9.4c1.4-2.8,2.2-5.4,2.9-9.3c0.6-3.1,1-4.4,2.3-6.4c1.6-2.4,4.4-4.5,7.2-5.3c0.5-0.1,11.8-3.2,25.3-6.8
		c13.4-3.6,24.7-6.7,25.1-6.9c5.4-2.5,7.4-10.4,4.3-17.1c-1.7-3.7-4.8-6.4-8.2-7.1c-1.1-0.2-2.8-0.2-4,0.1
		c-0.5,0.1-11.7,3.1-24.9,6.7c-13.2,3.5-24.3,6.5-24.6,6.6c-0.4,0.1-1.4,0.2-2.7,0.2c-2.3,0-3.1-0.2-5-0.9c-2.3-0.9-3.7-2.1-6.1-4.8
		c-3.5-4.1-6.6-6.6-10.1-8.3c-1.5-0.7-3.1-1.2-4.5-1.5C439.6,288,438.6,288,437.6,288L437.6,288z"/>
</g>
</svg>
