<?xml version="1.0" encoding="utf-8"?>
<!-- Generator: Adobe Illustrator 24.1.0, SVG Export Plug-In . SVG Version: 6.00 Build 0)  -->
<svg version="1.1"
	 id="svg8" inkscape:export-filename="/media/juhele/data_2TB/_GRAFIKA/GHS hazard symbols/GHS09_environmentally_hazardous_substances.png" inkscape:export-xdpi="99.027519" inkscape:export-ydpi="99.027519" inkscape:version="0.92.3 (unknown)" sodipodi:docname="GHS09_environmentally_hazardous_substances.svg" xmlns:cc="http://creativecommons.org/ns#" xmlns:dc="http://purl.org/dc/elements/1.1/" xmlns:inkscape="http://www.inkscape.org/namespaces/inkscape" xmlns:rdf="http://www.w3.org/1999/02/22-rdf-syntax-ns#" xmlns:sodipodi="http://sodipodi.sourceforge.net/DTD/sodipodi-0.dtd" xmlns:svg="http://www.w3.org/2000/svg"
	 xmlns="http://www.w3.org/2000/svg" xmlns:xlink="http://www.w3.org/1999/xlink" x="0px" y="0px" viewBox="0 0 775.6 775.5"
	 style="enable-background:new 0 0 775.6 775.5;" xml:space="preserve">
<style type="text/css">
	.st0{fill:#FF0000;}
	.st1{fill:#FFFFFF;}
	.st2{stroke:#000000;stroke-width:5.2473;stroke-miterlimit:4.1978;}
	.st3{stroke:#000000;stroke-width:4.1978;stroke-miterlimit:4.1978;}
	.st4{fill:#FFFFFF;stroke:#000000;stroke-width:5.2473;stroke-miterlimit:4.1978;}
</style>
<g id="g848" transform="matrix(0.78708857,0,0,0.78708857,1.5968523,1.6519176)">
	<path id="path819" inkscape:connector-curvature="0" class="st0" d="M490.7,970.6l480-480l-480-480l-480,480L490.7,970.6z"/>
	<path id="path821" inkscape:connector-curvature="0" class="st1" d="M490.7,894.4L86.9,490.7L490.7,87l403.7,403.7L490.7,894.4z"/>
	<g id="g829">
		<path id="path823" inkscape:connector-curvature="0" class="st2" d="M298.9,490.3h374.9"/>
		<path id="path825" inkscape:connector-curvature="0" class="st3" d="M617.6,558l44,31.7l-41.8,20.1l56.3,5.1l-15.1,20.1H692
			l0.7,22.3l-392.3-2.1c0,0,65.6-19.4,76.4-11.5c14.4-6.5,119.7-51.2,119.7-48.3 M395.6,560.9l2.2-113.9l-57-30.9
			c0,0-8.7-5.8-20.9-2.2c-4.3,1.4-10.1,2.9-10.1,2.9s31.1-26,36.8-23.8c5.8,2.2,46.1,21.6,46.1,21.6s-4.3-30.3-15.1-38.9
			c-10.8-8.7-52.6-41.8-52.6-41.8v-7.9l57,34.6c0,0,2.2-33.2-9.3-52.6c-11.5-19.5-20.1-36.8-20.1-36.8l3.6-2.9l28.1,43.3l9.3-29.6
			l5.8-1.4c0,0-7.2,41.8-2.2,54.8c5.1,13,23.8,83.6,23.8,83.6l28.1-40.4c0,0,0.7-16.6-0.7-28.1c-1.4-11.5-3.6-64.9-3.6-64.9h5.1
			l7.9,58.4l45.5-52.6v5.8c0,0-44.7,56.3-42.5,68.5c2.2,12.3,4.3,19.5-3.6,36.8c-7.9,17.3-13,29.6-13,29.6s23.8-28.1,34.6-30.3
			c10.8-0.7,25.2,0.7,35.3-7.9c10.1-8.7,34.6-36,34.6-36l-38.2,59.1c0,0-18,0.7-25.2,8.7c-7.2,7.9-36.8,41.8-36.8,41.8v77.9l49,24.5
			l-59.8,8.7l-14.4,20.9l-19.5-16.6l-54.2,5L395.6,560.9z"/>
		<path id="path827" inkscape:connector-curvature="0" class="st4" d="M474.3,594.2c13.7-5.7,36-15.1,49-33.9
			c13.5-19.4,61.3-100.9,126.9-94.4c-3.6,8.7-15.1,27.4-15.1,27.4l46.8-14.4c0,0,0.7,62-88,101.6c-41.1,14.4-49.7,15.1-53.3,20.1
			c-3.6,5.1-20.1,30.3-20.1,30.3l-73.5-32.4C446.9,598.5,465.7,597.8,474.3,594.2L474.3,594.2z"/>
	</g>
	<ellipse id="ellipse831" cx="646.4" cy="515.1" rx="7.9" ry="6.8"/>
</g>
</svg>
