<?xml version="1.0" encoding="UTF-8" standalone="no"?>
<!-- Generator: Adobe Illustrator 24.1.0, SVG Export Plug-In . SVG Version: 6.00 Build 0)  -->

<svg
   xmlns:dc="http://purl.org/dc/elements/1.1/"
   xmlns:cc="http://creativecommons.org/ns#"
   xmlns:rdf="http://www.w3.org/1999/02/22-rdf-syntax-ns#"
   xmlns:svg="http://www.w3.org/2000/svg"
   xmlns="http://www.w3.org/2000/svg"
   xmlns:sodipodi="http://sodipodi.sourceforge.net/DTD/sodipodi-0.dtd"
   xmlns:inkscape="http://www.inkscape.org/namespaces/inkscape"
   version="1.1"
   id="svg8"
   inkscape:export-filename="/media/juhele/data_2TB/_GRAFIKA/GHS hazard symbols/GHS09_environmentally_hazardous_substances.png"
   inkscape:export-xdpi="99.027519"
   inkscape:export-ydpi="99.027519"
   inkscape:version="0.92.5 (2060ec1f9f, 2020-04-08)"
   sodipodi:docname="208.svg"
   x="0px"
   y="0px"
   viewBox="0 0 125 125"
   xml:space="preserve"
   width="125"
   height="125"><metadata
   id="metadata3137"><rdf:RDF><cc:Work
       rdf:about=""><dc:format>image/svg+xml</dc:format><dc:type
         rdf:resource="http://purl.org/dc/dcmitype/StillImage" /><dc:title></dc:title></cc:Work></rdf:RDF></metadata><defs
   id="defs3135" /><sodipodi:namedview
   pagecolor="#ffffff"
   bordercolor="#666666"
   borderopacity="1"
   objecttolerance="10"
   gridtolerance="10"
   guidetolerance="10"
   inkscape:pageopacity="0"
   inkscape:pageshadow="2"
   inkscape:window-width="1920"
   inkscape:window-height="1017"
   id="namedview3133"
   showgrid="false"
   inkscape:zoom="1.0934881"
   inkscape:cx="387.79999"
   inkscape:cy="387.75"
   inkscape:window-x="-8"
   inkscape:window-y="-8"
   inkscape:window-maximized="1"
   inkscape:current-layer="svg8" />
<style
   type="text/css"
   id="style3122">
	.st0{fill:#FF0000;}
	.st1{fill:#FFFFFF;}
	.st2{stroke:#000000;stroke-width:5.2473;stroke-miterlimit:4.1978;}
	.st3{stroke:#000000;stroke-width:4.1978;stroke-miterlimit:4.1978;}
	.st4{fill:#FFFFFF;stroke:#000000;stroke-width:5.2473;stroke-miterlimit:4.1978;}
</style>
<g
   id="g848"
   transform="matrix(0.06770833,0,0,0.06770833,29.275522,29.282293)">
	<path
   id="path819"
   inkscape:connector-curvature="0"
   class="st0"
   d="m 490.7,970.6 480,-480 -480,-480 -480,480 z"
   style="fill:#ff0000" />
	<path
   id="path821"
   inkscape:connector-curvature="0"
   class="st1"
   d="M 490.7,894.4 86.9,490.7 490.7,87 894.4,490.7 Z"
   style="fill:#ffffff" />
	<g
   id="g829">
		<path
   id="path823"
   inkscape:connector-curvature="0"
   class="st2"
   d="M 298.9,490.3 H 673.8"
   style="stroke:#000000;stroke-width:5.24730015;stroke-miterlimit:4.19780016" />
		<path
   id="path825"
   inkscape:connector-curvature="0"
   class="st3"
   d="m 617.6,558 44,31.7 -41.8,20.1 56.3,5.1 L 661,635 h 31 l 0.7,22.3 -392.3,-2.1 c 0,0 65.6,-19.4 76.4,-11.5 14.4,-6.5 119.7,-51.2 119.7,-48.3 m -100.9,-34.5 2.2,-113.9 -57,-30.9 c 0,0 -8.7,-5.8 -20.9,-2.2 -4.3,1.4 -10.1,2.9 -10.1,2.9 0,0 31.1,-26 36.8,-23.8 5.8,2.2 46.1,21.6 46.1,21.6 0,0 -4.3,-30.3 -15.1,-38.9 C 366.8,367 325,333.9 325,333.9 V 326 l 57,34.6 c 0,0 2.2,-33.2 -9.3,-52.6 -11.5,-19.5 -20.1,-36.8 -20.1,-36.8 l 3.6,-2.9 28.1,43.3 9.3,-29.6 5.8,-1.4 c 0,0 -7.2,41.8 -2.2,54.8 5.1,13 23.8,83.6 23.8,83.6 l 28.1,-40.4 c 0,0 0.7,-16.6 -0.7,-28.1 -1.4,-11.5 -3.6,-64.9 -3.6,-64.9 h 5.1 l 7.9,58.4 45.5,-52.6 v 5.8 c 0,0 -44.7,56.3 -42.5,68.5 2.2,12.3 4.3,19.5 -3.6,36.8 -7.9,17.3 -13,29.6 -13,29.6 0,0 23.8,-28.1 34.6,-30.3 10.8,-0.7 25.2,0.7 35.3,-7.9 10.1,-8.7 34.6,-36 34.6,-36 L 510.5,417 c 0,0 -18,0.7 -25.2,8.7 -7.2,7.9 -36.8,41.8 -36.8,41.8 v 77.9 l 49,24.5 -59.8,8.7 -14.4,20.9 -19.5,-16.6 -54.2,5 z"
   style="stroke:#000000;stroke-width:4.19780016;stroke-miterlimit:4.19780016" />
		<path
   id="path827"
   inkscape:connector-curvature="0"
   class="st4"
   d="m 474.3,594.2 c 13.7,-5.7 36,-15.1 49,-33.9 13.5,-19.4 61.3,-100.9 126.9,-94.4 -3.6,8.7 -15.1,27.4 -15.1,27.4 l 46.8,-14.4 c 0,0 0.7,62 -88,101.6 -41.1,14.4 -49.7,15.1 -53.3,20.1 -3.6,5.1 -20.1,30.3 -20.1,30.3 L 447,598.5 c -0.1,0 18.7,-0.7 27.3,-4.3 z"
   style="fill:#ffffff;stroke:#000000;stroke-width:5.24730015;stroke-miterlimit:4.19780016" />
	</g>
	<ellipse
   id="ellipse831"
   cx="646.40002"
   cy="515.09998"
   rx="7.9000001"
   ry="6.8000002" />
</g>
</svg>