<?xml version="1.0" encoding="UTF-8" standalone="no"?>
<!-- Generator: Adobe Illustrator 24.1.0, SVG Export Plug-In . SVG Version: 6.00 Build 0)  -->

<svg
   xmlns:dc="http://purl.org/dc/elements/1.1/"
   xmlns:cc="http://creativecommons.org/ns#"
   xmlns:rdf="http://www.w3.org/1999/02/22-rdf-syntax-ns#"
   xmlns:svg="http://www.w3.org/2000/svg"
   xmlns="http://www.w3.org/2000/svg"
   xmlns:sodipodi="http://sodipodi.sourceforge.net/DTD/sodipodi-0.dtd"
   xmlns:inkscape="http://www.inkscape.org/namespaces/inkscape"
   version="1.1"
   id="svg8"
   inkscape:export-filename="/media/juhele/data_2TB/_GRAFIKA/GHS hazard symbols/GHS06_toxic_substances.png"
   inkscape:export-xdpi="99.027519"
   inkscape:export-ydpi="99.027519"
   inkscape:version="0.92.5 (2060ec1f9f, 2020-04-08)"
   sodipodi:docname="24.svg"
   x="0px"
   y="0px"
   viewBox="0 0 125 125"
   xml:space="preserve"
   width="125"
   height="125"><metadata
   id="metadata926"><rdf:RDF><cc:Work
       rdf:about=""><dc:format>image/svg+xml</dc:format><dc:type
         rdf:resource="http://purl.org/dc/dcmitype/StillImage" /><dc:title></dc:title></cc:Work></rdf:RDF></metadata><defs
   id="defs924" /><sodipodi:namedview
   pagecolor="#ffffff"
   bordercolor="#666666"
   borderopacity="1"
   objecttolerance="10"
   gridtolerance="10"
   guidetolerance="10"
   inkscape:pageopacity="0"
   inkscape:pageshadow="2"
   inkscape:window-width="1920"
   inkscape:window-height="1017"
   id="namedview922"
   showgrid="false"
   inkscape:zoom="1.0934881"
   inkscape:cx="387.79999"
   inkscape:cy="387.75"
   inkscape:window-x="-8"
   inkscape:window-y="-8"
   inkscape:window-maximized="1"
   inkscape:current-layer="svg8" />
<style
   type="text/css"
   id="style905">
	.st0{fill:#FFEB1D;}
</style>




<g
   id="g935"
   transform="translate(29.135971,59.527142)"><g
     transform="matrix(0.08406927,0,0,0.08406927,0.79139059,-26.01843)"
     id="g911">
	<polygon
   style="fill:#ffeb1d"
   id="polygon907"
   points="387,36.4 746.6,657.8 28.2,657.8 "
   class="st0" />
	<path
   inkscape:connector-curvature="0"
   id="path909"
   d="m 411.7,41.6 v 0 0 M 387,84.4 705,633.8 H 69.8 L 387,84.4 m 0,-76.5 c -6.6,0 -13.1,3.2 -16.9,9.7 L 3.5,652.6 c -7.5,13 1.9,29.2 16.9,29.2 h 734.1 c 15,0 24.4,-16.2 16.9,-29.2 L 404,17.6 C 400.1,11.1 393.5,7.9 387,7.9 Z" />
</g><polygon
     transform="matrix(0.08406927,0,0,0.08406927,0.79139059,-26.01843)"
     id="polygon913"
     points="580,589.9 580,516.9 554,542.9 403,543.9 403,589.9 " /><ellipse
     style="stroke-width:0.08406927"
     id="ellipse915"
     ry="3.6990478"
     rx="4.2454982"
     cy="3.817749"
     cx="35.80624" /><polygon
     transform="matrix(0.08406927,0,0,0.08406927,0.79139059,-26.01843)"
     id="polygon917"
     points="345,344.8 322,316.9 301,324.9 354,589.9 382,582.9 " /><polygon
     transform="matrix(0.08406927,0,0,0.08406927,0.79139059,-26.01843)"
     id="polygon919"
     points="235,589.9 281,344.8 327,589.9 " /></g>
</svg>