<?xml version="1.0" encoding="UTF-8" standalone="no"?>
<!-- Generator: Adobe Illustrator 24.1.0, SVG Export Plug-In . SVG Version: 6.00 Build 0)  -->

<svg
   xmlns:dc="http://purl.org/dc/elements/1.1/"
   xmlns:cc="http://creativecommons.org/ns#"
   xmlns:rdf="http://www.w3.org/1999/02/22-rdf-syntax-ns#"
   xmlns:svg="http://www.w3.org/2000/svg"
   xmlns="http://www.w3.org/2000/svg"
   xmlns:sodipodi="http://sodipodi.sourceforge.net/DTD/sodipodi-0.dtd"
   xmlns:inkscape="http://www.inkscape.org/namespaces/inkscape"
   version="1.1"
   id="svg8"
   inkscape:export-filename="/media/juhele/data_2TB/_GRAFIKA/GHS hazard symbols/GHS06_toxic_substances.png"
   inkscape:export-xdpi="99.027519"
   inkscape:export-ydpi="99.027519"
   inkscape:version="0.92.5 (2060ec1f9f, 2020-04-08)"
   sodipodi:docname="3.svg"
   x="0px"
   y="0px"
   viewBox="0 0 125 125"
   xml:space="preserve"
   width="125"
   height="125"><metadata
   id="metadata859"><rdf:RDF><cc:Work
       rdf:about=""><dc:format>image/svg+xml</dc:format><dc:type
         rdf:resource="http://purl.org/dc/dcmitype/StillImage" /><dc:title></dc:title></cc:Work></rdf:RDF></metadata><defs
   id="defs857" /><sodipodi:namedview
   pagecolor="#ffffff"
   bordercolor="#666666"
   borderopacity="1"
   objecttolerance="10"
   gridtolerance="10"
   guidetolerance="10"
   inkscape:pageopacity="0"
   inkscape:pageshadow="2"
   inkscape:window-width="1920"
   inkscape:window-height="1017"
   id="namedview855"
   showgrid="false"
   inkscape:zoom="1.0934881"
   inkscape:cx="387.79999"
   inkscape:cy="387.75"
   inkscape:window-x="-8"
   inkscape:window-y="-8"
   inkscape:window-maximized="1"
   inkscape:current-layer="svg8" />
<style
   type="text/css"
   id="style838">
	.st0{fill:#FFEB1D;}
</style>





<g
   id="g872"
   transform="translate(29.135971,59.527142)"><g
     transform="matrix(0.08406927,0,0,0.08406927,0.79139059,-26.01843)"
     id="g844">
	<polygon
   style="fill:#ffeb1d"
   id="polygon840"
   points="387,36.4 746.6,657.8 28.2,657.8 "
   class="st0" />
	<path
   inkscape:connector-curvature="0"
   id="path842"
   d="m 411.7,41.6 v 0 0 M 387,84.4 705,633.8 H 69.8 L 387,84.4 m 0,-76.5 c -6.6,0 -13.1,3.2 -16.9,9.7 L 3.5,652.6 c -7.5,13 1.9,29.2 16.9,29.2 h 734.1 c 15,0 24.4,-16.2 16.9,-29.2 L 404,17.6 C 400.1,11.1 393.5,7.9 387,7.9 Z" />
</g><path
     style="stroke-width:0.08406927"
     inkscape:connector-curvature="0"
     d="M 19.160526,18.48784 V 17.78166 H 17.403478 15.64643 V 16.983 16.18435 h 1.740234 1.731827 l 0.100883,-0.66415 0.100883,-0.66415 1.042459,1.07609 1.042459,1.07608 -1.118121,1.0845 -1.118121,1.08449 -0.0084,-0.68937 z"
     id="path3937" /><path
     style="stroke-width:0.08406927"
     inkscape:connector-curvature="0"
     d="m 46.449411,18.02546 -1.042459,-1.07608 1.118121,-1.0845 1.118121,-1.08449 v 0.70618 0.70618 h 1.91678 1.916779 v 0.79866 0.79866 h -1.899966 -1.899965 l -0.05885,1.43758 z"
     id="path3935" /><path
     style="stroke-width:0.08406927"
     inkscape:connector-curvature="0"
     d="m 47.399393,9.14775 0.437161,0.91635 h -2.664996 l -0.05885,13.73692 h 10.895377 l 0.01681,0.87432 H 39.53051 L 39.345557,9.15615 h 8.053836 z m -5.472909,0.86591 h -1.563688 v 0.94998 l 4.068952,3.81675 v -2.50527 z m -1.61413,3.65701 v 2.51368 c 0,0 4.094173,4.07735 4.119394,3.93444 v -2.51367 z m 0.02522,5.06097 v 2.06811 l 2.740658,2.99286 h 1.008831 L 44.406526,22.809 Z"
     id="path3050" /><path
     style="stroke-width:0.08406927"
     inkscape:connector-curvature="0"
     d="m 19.387513,9.14775 -0.43716,0.91635 h 2.664996 l 0.05885,13.73692 h -10.88697 l -0.01681,0.87432 H 27.256402 L 27.441355,9.15615 h -8.053836 z m 5.472909,0.86591 h 1.572096 v 0.94998 l -4.068953,3.81675 v -2.50527 z m 1.61413,3.65701 v 2.51368 c 0,0 -4.094173,4.07735 -4.119394,3.93444 v -2.51367 z m -0.02522,5.06097 v 2.06811 l -2.740658,2.99286 H 22.708249 L 22.388786,22.809 Z"
     id="path3052" /><g
     transform="matrix(0.08406927,0,0,0.08406927,0.79139059,-26.01843)"
     id="layer2">
	<g
   transform="translate(642.5)"
   id="g3072">
		<path
   inkscape:connector-curvature="0"
   d="m -230.7,301.5 c 0,12.6 -10.2,22.9 -22.9,22.9 -12.7,0 -22.9,-10.2 -22.9,-22.9 0,-12.6 10.2,-22.9 22.9,-22.9 12.7,0 22.9,10.3 22.9,22.9 z"
   id="path3068" />
		<path
   inkscape:connector-curvature="0"
   d="m -309.2,361 c 2.5,-16.8 14.6,-27 32.7,-28.8 h 52.3 c 13.4,3 26.1,9.5 26.1,28.8 v 104.6 c 0,9.2 -22.2,10.5 -22,0 l 0.2,-95.3 -4.4,0.2 v 222 c 0,10.5 -26.1,10.5 -26.1,0 V 456.9 c -1.1,-2.6 -2.6,-3.4 -4,-0.2 l -0.7,135.7 c -0.5,10.5 -25.4,10.5 -25.4,0 l -0.5,-222.5 -4.3,-0.2 -0.2,95.9 c -0.2,9.2 -23.8,10.5 -23.8,0 V 361 Z"
   id="path3070" />
	</g>
</g></g>
</svg>