<?xml version="1.0" encoding="utf-8"?>
<!-- Generator: Adobe Illustrator 24.1.0, SVG Export Plug-In . SVG Version: 6.00 Build 0)  -->
<svg version="1.1"
	 id="svg8" inkscape:export-filename="/media/juhele/data_2TB/_GRAFIKA/GHS hazard symbols/GHS06_toxic_substances.png" inkscape:export-xdpi="99.027519" inkscape:export-ydpi="99.027519" inkscape:version="0.92.3 (unknown)" sodipodi:docname="GHS06_toxic_substances.svg" xmlns:cc="http://creativecommons.org/ns#" xmlns:dc="http://purl.org/dc/elements/1.1/" xmlns:inkscape="http://www.inkscape.org/namespaces/inkscape" xmlns:rdf="http://www.w3.org/1999/02/22-rdf-syntax-ns#" xmlns:sodipodi="http://sodipodi.sourceforge.net/DTD/sodipodi-0.dtd" xmlns:svg="http://www.w3.org/2000/svg"
	 xmlns="http://www.w3.org/2000/svg" xmlns:xlink="http://www.w3.org/1999/xlink" x="0px" y="0px" viewBox="0 0 775.6 775.5"
	 style="enable-background:new 0 0 775.6 775.5;" xml:space="preserve">
<style type="text/css">
	.st0{fill:#FFEB1D;}
</style>
<g>
	<polygon class="st0" points="28.2,657.8 387,36.4 746.6,657.8 	"/>
	<path d="M411.7,41.6L411.7,41.6L411.7,41.6 M387,84.4L705,633.8H69.8L387,84.4 M387,7.9c-6.6,0-13.1,3.2-16.9,9.7L3.5,652.6
		c-7.5,13,1.9,29.2,16.9,29.2h734.1c15,0,24.4-16.2,16.9-29.2l-367.4-635C400.1,11.1,393.5,7.9,387,7.9L387,7.9z"/>
</g>
<path id="path3937" d="M218.5,529.4V521h-20.9h-20.9v-9.5V502h20.7H218l1.2-7.9l1.2-7.9l12.4,12.8l12.4,12.8l-13.3,12.9l-13.3,12.9
	L218.5,529.4L218.5,529.4z"/>
<path id="path3935" d="M543.1,523.9l-12.4-12.8l13.3-12.9l13.3-12.9v8.4v8.4h22.8h22.8v9.5v9.5h-22.6h-22.6l-0.7,17.1L543.1,523.9z"
	/>
<path id="path3050" d="M554.4,418.3l5.2,10.9h-31.7l-0.7,163.4h129.6l0.2,10.4H460.8l-2.2-184.6H554.4z M489.3,428.6h-18.6v11.3
	l48.4,45.4v-29.8L489.3,428.6z M470.1,472.1V502c0,0,48.7,48.5,49,46.8v-29.9L470.1,472.1z M470.4,532.3v24.6l32.6,35.6H515
	l3.8-11.7L470.4,532.3z"/>
<path id="path3052" d="M221.2,418.3l-5.2,10.9h31.7l0.7,163.4H118.9l-0.2,10.4h196.1l2.2-184.6H221.2z M286.3,428.6H305v11.3
	l-48.4,45.4v-29.8L286.3,428.6z M305.5,472.1V502c0,0-48.7,48.5-49,46.8v-29.9L305.5,472.1z M305.2,532.3v24.6l-32.6,35.6h-11.9
	l-3.8-11.7L305.2,532.3z"/>
<g id="layer2">
	<g id="g3072" transform="translate(642.5,0)">
		<path id="path3068" d="M-230.7,301.5c0,12.6-10.2,22.9-22.9,22.9s-22.9-10.2-22.9-22.9c0-12.6,10.2-22.9,22.9-22.9
			S-230.7,288.9-230.7,301.5z"/>
		<path id="path3070" d="M-309.2,361c2.5-16.8,14.6-27,32.7-28.8h52.3c13.4,3,26.1,9.5,26.1,28.8v104.6c0,9.2-22.2,10.5-22,0
			l0.2-95.3l-4.4,0.2v222c0,10.5-26.1,10.5-26.1,0V456.9c-1.1-2.6-2.6-3.4-4-0.2l-0.7,135.7c-0.5,10.5-25.4,10.5-25.4,0l-0.5-222.5
			l-4.3-0.2l-0.2,95.9c-0.2,9.2-23.8,10.5-23.8,0V361z"/>
	</g>
</g>
</svg>
