<?xml version="1.0" encoding="UTF-8" standalone="no"?>
<!-- Generator: Adobe Illustrator 24.1.0, SVG Export Plug-In . SVG Version: 6.00 Build 0)  -->

<svg
   xmlns:dc="http://purl.org/dc/elements/1.1/"
   xmlns:cc="http://creativecommons.org/ns#"
   xmlns:rdf="http://www.w3.org/1999/02/22-rdf-syntax-ns#"
   xmlns:svg="http://www.w3.org/2000/svg"
   xmlns="http://www.w3.org/2000/svg"
   xmlns:sodipodi="http://sodipodi.sourceforge.net/DTD/sodipodi-0.dtd"
   xmlns:inkscape="http://www.inkscape.org/namespaces/inkscape"
   version="1.1"
   id="svg8"
   inkscape:export-filename="/media/juhele/data_2TB/_GRAFIKA/GHS hazard symbols/GHS06_toxic_substances.png"
   inkscape:export-xdpi="99.027519"
   inkscape:export-ydpi="99.027519"
   inkscape:version="0.92.5 (2060ec1f9f, 2020-04-08)"
   sodipodi:docname="101.svg"
   x="0px"
   y="0px"
   viewBox="0 0 125 125"
   xml:space="preserve"
   width="125"
   height="125"><metadata
   id="metadata1005"><rdf:RDF><cc:Work
       rdf:about=""><dc:format>image/svg+xml</dc:format><dc:type
         rdf:resource="http://purl.org/dc/dcmitype/StillImage" /><dc:title></dc:title></cc:Work></rdf:RDF></metadata><defs
   id="defs1003" /><sodipodi:namedview
   pagecolor="#ffffff"
   bordercolor="#666666"
   borderopacity="1"
   objecttolerance="10"
   gridtolerance="10"
   guidetolerance="10"
   inkscape:pageopacity="0"
   inkscape:pageshadow="2"
   inkscape:window-width="728"
   inkscape:window-height="480"
   id="namedview1001"
   showgrid="false"
   inkscape:zoom="1.0934881"
   inkscape:cx="387.79999"
   inkscape:cy="387.75"
   inkscape:window-x="0"
   inkscape:window-y="0"
   inkscape:window-maximized="1"
   inkscape:current-layer="svg8" />
<style
   type="text/css"
   id="style976">
	.st0{fill:#FFEB1D;}
	.st1{fill:none;}
	.st2{fill:#1D1D1B;}
</style>

<g
   id="g1018"
   transform="matrix(0.08406927,0,0,0.08406927,29.927361,33.508712)"><g
     id="g982">
	<polygon
   id="polygon978"
   points="387,36.4 746.6,657.8 28.2,657.8 "
   class="st0"
   style="fill:#ffeb1d" />
	<path
   id="path980"
   d="M 387,84.4 705,633.8 H 69.8 L 387,84.4 m 0,-76.5 c -6.6,0 -13.1,3.2 -16.9,9.7 L 3.5,652.6 c -7.5,13 1.9,29.2 16.9,29.2 h 734.1 c 15,0 24.4,-16.2 16.9,-29.2 L 404,17.6 C 400.1,11.1 393.5,7.9 387,7.9 Z"
   inkscape:connector-curvature="0" />
</g><g
     id="g998">
	<path
   id="path984"
   d="m 375.6,265.8 c -1.1,0.1 -2.1,0.3 -3.2,0.5 -0.1,0 -0.1,0 -0.2,0 -1,0.2 -2,0.4 -3,0.6 -0.1,0 -0.2,0 -0.3,0.1 -1,0.2 -2,0.5 -3,0.8 -0.1,0 -0.2,0.1 -0.3,0.1 -1,0.3 -2,0.6 -2.9,0.9 -0.1,0 -0.1,0 -0.2,0.1 -2.1,0.7 -4.1,1.5 -6.1,2.3 -4.9,2.1 -9.5,4.8 -13.8,7.9 0,0 -0.1,0.1 -0.1,0.1 -0.7,0.5 -1.5,1.1 -2.2,1.7 -0.2,0.1 -0.3,0.2 -0.5,0.4 -0.7,0.5 -1.3,1.1 -1.9,1.6 -0.2,0.2 -0.4,0.4 -0.6,0.5 -0.6,0.5 -1.2,1.1 -1.8,1.6 -0.2,0.2 -0.5,0.4 -0.7,0.7 -0.6,0.5 -1.1,1.1 -1.6,1.6 -0.2,0.3 -0.5,0.5 -0.7,0.8 -0.5,0.5 -1,1.1 -1.5,1.6 -0.2,0.3 -0.5,0.6 -0.7,0.8 -0.5,0.6 -0.9,1.1 -1.4,1.7 -0.2,0.3 -0.5,0.6 -0.7,0.9 -0.4,0.6 -0.9,1.1 -1.3,1.7 -0.2,0.3 -0.4,0.6 -0.7,0.9 -0.4,0.6 -0.9,1.2 -1.3,1.8 -0.2,0.3 -0.3,0.5 -0.5,0.8 -0.8,1.3 -1.6,2.6 -2.4,3.9 -0.2,0.3 -0.4,0.6 -0.5,0.9 -0.3,0.5 -0.5,1 -0.8,1.6 -0.3,0.5 -0.5,1 -0.8,1.5 -0.2,0.5 -0.5,1 -0.7,1.5 -0.2,0.5 -0.5,1.1 -0.7,1.6 -0.2,0.5 -0.4,1 -0.6,1.5 -0.2,0.6 -0.4,1.1 -0.7,1.7 -0.2,0.5 -0.4,1 -0.5,1.5 -0.2,0.6 -0.4,1.2 -0.6,1.7 -0.2,0.5 -0.3,1 -0.5,1.5 -0.2,0.6 -0.4,1.2 -0.5,1.8 -0.1,0.5 -0.3,1 -0.4,1.5 -0.2,0.6 -0.3,1.3 -0.4,1.9 -0.1,0.5 -0.2,1 -0.3,1.5 -0.1,0.7 -0.2,1.3 -0.4,2 -0.1,0.5 -0.2,1 -0.2,1.5 -0.1,0.7 -0.2,1.4 -0.3,2.1 -0.1,0.5 -0.1,0.9 -0.2,1.4 -0.1,0.8 -0.1,1.6 -0.2,2.4 0,0.4 -0.1,0.8 -0.1,1.2 -0.1,1.2 -0.1,2.4 -0.1,3.6 0,17.4 6.1,33.5 16.3,46 10.9,-11.8 25.1,-20 41.1,-23.6 20.9,-4.7 42.3,-0.9 60.4,10.5 5.1,3.2 9.7,7 13.8,11 9.2,-12.2 14.7,-27.5 14.7,-44 0,-1.2 0,-2.4 -0.1,-3.6 0,-0.4 -0.1,-0.8 -0.1,-1.2 -0.1,-0.8 -0.1,-1.6 -0.2,-2.4 0,-0.5 -0.1,-0.9 -0.2,-1.4 -0.1,-0.7 -0.2,-1.4 -0.3,-2.1 -0.1,-0.5 -0.2,-1 -0.2,-1.5 -0.1,-0.7 -0.2,-1.3 -0.4,-2 -0.1,-0.5 -0.2,-1 -0.3,-1.5 -0.1,-0.6 -0.3,-1.3 -0.4,-1.9 -0.1,-0.5 -0.2,-1 -0.4,-1.5 -0.2,-0.6 -0.3,-1.3 -0.5,-1.9 -0.1,-0.5 -0.3,-1 -0.4,-1.5 -0.2,-0.6 -0.4,-1.2 -0.6,-1.8 -0.2,-0.5 -0.3,-0.9 -0.5,-1.4 -0.2,-0.6 -0.5,-1.2 -0.7,-1.8 -0.2,-0.5 -0.4,-0.9 -0.6,-1.4 -0.3,-0.6 -0.6,-1.3 -0.8,-1.9 -0.2,-0.4 -0.4,-0.8 -0.6,-1.2 -0.4,-0.8 -0.8,-1.5 -1.2,-2.3 -0.2,-0.5 -0.5,-0.9 -0.7,-1.4 -0.4,-0.8 -0.8,-1.5 -1.3,-2.2 -0.3,-0.4 -0.5,-0.8 -0.8,-1.3 -0.3,-0.5 -0.7,-1.1 -1,-1.6 -0.3,-0.5 -0.6,-0.9 -0.9,-1.3 -0.3,-0.5 -0.7,-0.9 -1,-1.4 -0.3,-0.5 -0.7,-0.9 -1,-1.3 -0.3,-0.4 -0.7,-0.9 -1,-1.3 -0.4,-0.5 -0.7,-0.9 -1.1,-1.3 -0.3,-0.4 -0.7,-0.8 -1,-1.2 -0.4,-0.4 -0.8,-0.9 -1.2,-1.3 -0.4,-0.4 -0.7,-0.7 -1.1,-1.1 -0.4,-0.4 -0.8,-0.9 -1.3,-1.3 -0.4,-0.3 -0.7,-0.7 -1.1,-1 -0.5,-0.4 -0.9,-0.9 -1.4,-1.3 -0.4,-0.3 -0.7,-0.6 -1.1,-0.9 -0.5,-0.4 -1,-0.8 -1.5,-1.3 -0.3,-0.3 -0.7,-0.5 -1,-0.8 -0.6,-0.4 -1.1,-0.9 -1.7,-1.3 -0.2,-0.1 -0.3,-0.2 -0.5,-0.3 -2.2,-1.6 -4.5,-3.1 -6.9,-4.5 -0.3,-0.2 -0.6,-0.3 -0.8,-0.5 -0.6,-0.4 -1.3,-0.7 -2,-1 -0.3,-0.2 -0.7,-0.4 -1,-0.5 -0.6,-0.3 -1.3,-0.6 -1.9,-0.9 -0.4,-0.2 -0.7,-0.3 -1.1,-0.5 -0.7,-0.3 -1.3,-0.6 -2,-0.8 -0.4,-0.2 -0.8,-0.3 -1.1,-0.5 -0.7,-0.3 -1.3,-0.5 -2,-0.7 -0.4,-0.1 -0.8,-0.3 -1.2,-0.4 -0.7,-0.2 -1.4,-0.4 -2.1,-0.7 -0.4,-0.1 -0.8,-0.2 -1.2,-0.3 -0.7,-0.2 -1.4,-0.4 -2.2,-0.6 -0.4,-0.1 -0.7,-0.2 -1.1,-0.3 -0.8,-0.2 -1.5,-0.3 -2.3,-0.5 -0.3,-0.1 -0.6,-0.1 -0.9,-0.2 -0.8,-0.2 -1.7,-0.3 -2.5,-0.4"
   class="st1"
   inkscape:connector-curvature="0"
   style="fill:none" />
	<path
   id="path986"
   d="m 437.4,390 c -3.7,-3.8 -7.9,-7.2 -12.5,-10.2 -11.3,-7.2 -24.2,-10.9 -37.3,-10.9 -5.1,0 -10.3,0.6 -15.4,1.7 -14.2,3.2 -26.8,10.6 -36.4,21.1 13.1,12.2 30.6,19.7 49.9,19.7 20.2,0 38.5,-8.2 51.7,-21.4 z"
   class="st1"
   inkscape:connector-curvature="0"
   style="fill:none" />
	<path
   id="path988"
   d="m 364.1,453.5 c -9.6,-17.8 -25.5,-30 -43.5,-35.3 -9.1,29.4 2.1,62.5 29.3,79.8 6.4,4.1 13.4,7 20.6,8.8 4.6,-17.4 2.8,-36.4 -6.4,-53.3 z"
   class="st1"
   inkscape:connector-curvature="0"
   style="fill:none" />
	<path
   id="path990"
   d="m 240.8,531.6 c 0.6,0.9 1.3,1.7 2,2.6 0,0.1 0.1,0.1 0.1,0.2 0.7,0.8 1.3,1.6 2,2.4 0.1,0.1 0.1,0.2 0.2,0.2 0.7,0.8 1.4,1.5 2.1,2.2 0.1,0.1 0.1,0.1 0.2,0.2 0.7,0.7 1.4,1.4 2.2,2.1 0,0 0.1,0.1 0.1,0.1 1.7,1.6 3.4,3 5.2,4.4 4.2,3.2 8.6,6 13.3,8.2 0,0 0.1,0 0.1,0.1 0.8,0.4 1.7,0.8 2.5,1.1 0.2,0.1 0.4,0.2 0.5,0.2 0.8,0.3 1.6,0.6 2.4,0.9 0.3,0.1 0.5,0.2 0.8,0.3 0.7,0.3 1.5,0.5 2.3,0.8 0.3,0.1 0.6,0.2 0.9,0.3 0.7,0.2 1.5,0.5 2.2,0.7 0.3,0.1 0.7,0.2 1,0.3 0.7,0.2 1.4,0.4 2.2,0.5 0.4,0.1 0.7,0.2 1.1,0.2 0.7,0.2 1.4,0.3 2.1,0.4 0.4,0.1 0.8,0.1 1.1,0.2 0.7,0.1 1.4,0.2 2.1,0.3 0.4,0.1 0.8,0.1 1.1,0.1 0.7,0.1 1.5,0.2 2.2,0.3 0.3,0 0.6,0 0.9,0.1 1.5,0.1 3,0.2 4.5,0.2 0.4,0 0.7,0 1.1,0 0.6,0 1.2,0 1.8,0 0.6,0 1.1,0 1.7,0 0.6,0 1.1,-0.1 1.7,-0.1 0.6,0 1.2,-0.1 1.7,-0.1 0.5,0 1.1,-0.1 1.6,-0.2 0.6,-0.1 1.2,-0.1 1.8,-0.2 0.5,-0.1 1.1,-0.2 1.6,-0.2 0.6,-0.1 1.2,-0.2 1.8,-0.3 0.5,-0.1 1,-0.2 1.6,-0.3 0.6,-0.1 1.2,-0.3 1.8,-0.4 0.5,-0.1 1,-0.2 1.5,-0.4 0.6,-0.2 1.2,-0.3 1.9,-0.5 0.5,-0.1 1,-0.3 1.5,-0.4 0.6,-0.2 1.3,-0.4 1.9,-0.6 0.5,-0.2 1,-0.3 1.4,-0.5 0.7,-0.2 1.3,-0.5 2,-0.8 0.4,-0.2 0.9,-0.3 1.3,-0.5 0.7,-0.3 1.4,-0.6 2.2,-1 0.4,-0.2 0.7,-0.3 1.1,-0.5 1.1,-0.5 2.2,-1.1 3.2,-1.6 15.3,-8.3 26.5,-21.3 32.7,-36.2 -8,-2.1 -15.6,-5.4 -22.8,-9.9 -30.9,-19.6 -43.8,-57.1 -33.8,-90.6 -15.2,-2.3 -31.2,0.1 -45.7,8 -1.1,0.6 -2.1,1.2 -3.1,1.8 -0.3,0.2 -0.7,0.4 -1,0.6 -0.7,0.4 -1.3,0.8 -2,1.3 -0.4,0.3 -0.8,0.5 -1.2,0.8 -0.6,0.4 -1.2,0.8 -1.7,1.2 -0.4,0.3 -0.8,0.6 -1.2,0.9 -0.5,0.4 -1.1,0.8 -1.6,1.3 -0.4,0.3 -0.8,0.6 -1.2,1 -0.5,0.4 -1,0.9 -1.5,1.3 -0.4,0.3 -0.8,0.7 -1.1,1 -0.5,0.4 -0.9,0.9 -1.4,1.4 -0.4,0.4 -0.7,0.7 -1.1,1.1 -0.4,0.5 -0.9,0.9 -1.3,1.4 -0.3,0.4 -0.7,0.7 -1,1.1 -0.4,0.5 -0.8,1 -1.3,1.5 -0.3,0.4 -0.6,0.7 -0.9,1.1 -0.4,0.5 -0.8,1.1 -1.2,1.6 -0.3,0.4 -0.5,0.7 -0.8,1.1 -0.5,0.7 -1,1.4 -1.5,2.1 -0.3,0.4 -0.6,0.8 -0.8,1.3 -0.5,0.7 -0.9,1.5 -1.4,2.2 -0.3,0.4 -0.5,0.9 -0.7,1.3 -0.3,0.5 -0.6,1.1 -0.9,1.6 -0.3,0.5 -0.5,1 -0.7,1.5 -0.3,0.5 -0.5,1 -0.8,1.5 -0.2,0.5 -0.5,1 -0.7,1.6 -0.2,0.5 -0.4,1 -0.7,1.5 -0.2,0.5 -0.4,1.1 -0.6,1.6 -0.2,0.5 -0.4,1 -0.6,1.5 -0.2,0.6 -0.4,1.1 -0.6,1.7 -0.2,0.5 -0.3,1 -0.5,1.5 -0.2,0.6 -0.4,1.2 -0.5,1.7 -0.1,0.5 -0.3,1 -0.4,1.4 -0.2,0.6 -0.3,1.2 -0.5,1.8 -0.1,0.5 -0.2,0.9 -0.3,1.4 -0.1,0.6 -0.3,1.3 -0.4,1.9 -0.1,0.4 -0.1,0.8 -0.2,1.2 -0.1,0.7 -0.2,1.4 -0.3,2.1 0,0.2 0,0.4 -0.1,0.6 -0.4,2.7 -0.6,5.4 -0.6,8.2 0,0.3 0,0.6 0,1 0,0.7 0,1.5 0,2.2 0,0.4 0,0.8 0,1.1 0,0.7 0.1,1.4 0.1,2.2 0,0.4 0.1,0.8 0.1,1.2 0.1,0.7 0.1,1.4 0.2,2.1 0,0.4 0.1,0.8 0.1,1.2 0.1,0.7 0.2,1.4 0.3,2.1 0.1,0.4 0.1,0.8 0.2,1.2 0.1,0.7 0.3,1.4 0.4,2.1 0.1,0.4 0.2,0.8 0.3,1.2 0.2,0.7 0.3,1.4 0.5,2.2 0.1,0.4 0.2,0.7 0.3,1.1 0.2,0.7 0.4,1.5 0.6,2.2 0.1,0.3 0.2,0.6 0.3,0.9 0.3,0.8 0.5,1.6 0.8,2.4"
   class="st1"
   inkscape:connector-curvature="0"
   style="fill:none" />
	<path
   id="path992"
   d="m 411.5,452.1 c -10.8,17.1 -13.7,36.9 -9.6,55.2 0.3,-0.1 0.5,-0.1 0.8,-0.2 18.2,-4.1 33.8,-15 43.8,-30.8 10.9,-17.3 13.4,-37.5 8.4,-55.8 -17.3,4.5 -33,15.3 -43.4,31.6 z"
   class="st1"
   inkscape:connector-curvature="0"
   style="fill:none" />
	<path
   id="path994"
   d="m 539.9,521.5 c 0.4,-1 0.9,-2 1.3,-3 0,-0.1 0.1,-0.1 0.1,-0.2 0.4,-1 0.7,-1.9 1.1,-2.9 0,-0.1 0.1,-0.2 0.1,-0.3 0.3,-1 0.6,-1.9 0.9,-2.9 0,-0.1 0.1,-0.2 0.1,-0.3 0.3,-1 0.6,-2 0.8,-3 0,-0.1 0,-0.1 0,-0.2 0.5,-2.2 1,-4.4 1.3,-6.6 0.8,-5.2 1,-10.5 0.7,-15.7 0,0 0,-0.1 0,-0.1 -0.1,-0.9 -0.1,-1.8 -0.2,-2.8 0,-0.2 0,-0.4 -0.1,-0.6 -0.1,-0.8 -0.2,-1.7 -0.3,-2.5 0,-0.3 -0.1,-0.5 -0.1,-0.8 -0.1,-0.8 -0.3,-1.6 -0.4,-2.4 -0.1,-0.3 -0.1,-0.6 -0.2,-0.9 -0.2,-0.7 -0.3,-1.5 -0.5,-2.2 -0.1,-0.3 -0.2,-0.7 -0.3,-1 -0.2,-0.7 -0.4,-1.4 -0.6,-2.2 -0.1,-0.4 -0.2,-0.7 -0.3,-1.1 -0.2,-0.7 -0.4,-1.4 -0.7,-2.1 -0.1,-0.4 -0.3,-0.7 -0.4,-1.1 -0.2,-0.7 -0.5,-1.4 -0.7,-2 -0.1,-0.4 -0.3,-0.7 -0.4,-1.1 -0.3,-0.7 -0.5,-1.4 -0.8,-2 -0.1,-0.3 -0.3,-0.6 -0.4,-0.8 -0.6,-1.4 -1.3,-2.7 -2,-4.1 -0.2,-0.3 -0.3,-0.6 -0.5,-1 -0.3,-0.5 -0.6,-1 -0.9,-1.5 -0.3,-0.5 -0.5,-0.9 -0.8,-1.4 -0.3,-0.5 -0.6,-0.9 -0.9,-1.4 -0.3,-0.5 -0.6,-1 -1,-1.5 -0.3,-0.5 -0.6,-0.9 -1,-1.3 -0.3,-0.5 -0.7,-1 -1.1,-1.5 -0.3,-0.4 -0.7,-0.9 -1,-1.3 -0.4,-0.5 -0.8,-1 -1.2,-1.4 -0.3,-0.4 -0.7,-0.8 -1,-1.2 -0.4,-0.5 -0.8,-0.9 -1.3,-1.4 -0.4,-0.4 -0.7,-0.8 -1.1,-1.2 -0.4,-0.5 -0.9,-0.9 -1.4,-1.4 -0.4,-0.4 -0.7,-0.7 -1.1,-1.1 -0.5,-0.5 -1,-0.9 -1.5,-1.4 -0.4,-0.3 -0.7,-0.7 -1.1,-1 -0.5,-0.5 -1.1,-0.9 -1.6,-1.4 -0.4,-0.3 -0.7,-0.6 -1.1,-0.9 -0.6,-0.5 -1.3,-1 -1.9,-1.4 -0.3,-0.2 -0.6,-0.5 -1,-0.7 -1,-0.7 -2,-1.4 -3,-2 -14.7,-9.4 -31.6,-12.8 -47.7,-10.9 5.4,20.8 2.6,43.7 -9.8,63.2 -11.5,18.1 -29.3,30.6 -50.1,35.3 0,0 0,0 -0.1,0 5.4,14.4 15.3,27.2 29.3,36 1,0.6 2.1,1.3 3.1,1.9 0.3,0.2 0.7,0.4 1,0.6 0.7,0.4 1.4,0.8 2.1,1.1 0.4,0.2 0.8,0.4 1.3,0.6 0.6,0.3 1.3,0.6 1.9,0.9 0.5,0.2 0.9,0.4 1.4,0.6 0.6,0.3 1.3,0.5 1.9,0.8 0.5,0.2 0.9,0.4 1.4,0.5 0.6,0.2 1.2,0.4 1.9,0.7 0.5,0.2 1,0.3 1.5,0.5 0.6,0.2 1.2,0.4 1.9,0.6 0.5,0.1 1,0.3 1.5,0.4 0.6,0.2 1.3,0.3 1.9,0.5 0.5,0.1 1,0.2 1.5,0.3 0.6,0.1 1.3,0.3 1.9,0.4 0.5,0.1 1,0.2 1.4,0.3 0.7,0.1 1.4,0.2 2,0.3 0.4,0.1 0.9,0.1 1.3,0.2 0.9,0.1 1.7,0.2 2.6,0.2 0.5,0 1,0.1 1.5,0.1 0.9,0.1 1.7,0.1 2.6,0.1 0.5,0 1,0 1.5,0 0.6,0 1.2,0 1.9,0 0.5,0 1.1,0 1.6,-0.1 0.6,0 1.1,-0.1 1.7,-0.1 0.6,0 1.1,-0.1 1.7,-0.1 0.5,-0.1 1.1,-0.1 1.6,-0.2 0.6,-0.1 1.2,-0.1 1.7,-0.2 0.5,-0.1 1.1,-0.2 1.6,-0.2 0.6,-0.1 1.2,-0.2 1.8,-0.3 0.5,-0.1 1,-0.2 1.5,-0.3 0.6,-0.1 1.2,-0.3 1.8,-0.4 0.5,-0.1 1,-0.2 1.4,-0.4 0.6,-0.2 1.2,-0.3 1.8,-0.5 0.5,-0.1 0.9,-0.3 1.4,-0.4 0.6,-0.2 1.2,-0.4 1.9,-0.6 0.4,-0.1 0.8,-0.3 1.2,-0.4 0.7,-0.2 1.3,-0.5 2,-0.7 0.2,-0.1 0.4,-0.2 0.6,-0.2 2.5,-1 5,-2.2 7.4,-3.4 0.3,-0.2 0.6,-0.3 0.9,-0.5 0.6,-0.4 1.3,-0.7 1.9,-1.1 0.3,-0.2 0.7,-0.4 1,-0.6 0.6,-0.4 1.2,-0.8 1.8,-1.2 0.3,-0.2 0.7,-0.4 1,-0.7 0.6,-0.4 1.2,-0.8 1.8,-1.2 0.3,-0.2 0.7,-0.5 1,-0.7 0.6,-0.4 1.1,-0.9 1.7,-1.3 0.3,-0.3 0.6,-0.5 1,-0.8 0.6,-0.5 1.1,-0.9 1.7,-1.4 0.3,-0.3 0.6,-0.5 0.9,-0.8 0.6,-0.5 1.1,-1 1.6,-1.5 0.3,-0.3 0.5,-0.5 0.8,-0.8 0.6,-0.5 1.1,-1.1 1.6,-1.7 0.2,-0.2 0.4,-0.5 0.6,-0.7 0.6,-0.6 1.2,-1.3 1.7,-1.9"
   class="st1"
   inkscape:connector-curvature="0"
   style="fill:none" />
	<path
   id="path996"
   d="m 508.1,409.7 c -14.5,-9.2 -30.7,-13.6 -46.7,-13.6 7.4,-12.8 11.7,-27.7 11.7,-43.6 0,-44.6 -33.5,-81.4 -76.7,-86.8 0,0 0,0.1 0,0.1 0.9,0.1 1.7,0.3 2.5,0.4 0.3,0.1 0.6,0.1 0.9,0.2 0.8,0.2 1.5,0.3 2.3,0.5 0.4,0.1 0.7,0.2 1.1,0.3 0.7,0.2 1.4,0.4 2.2,0.6 0.4,0.1 0.8,0.2 1.2,0.3 0.7,0.2 1.4,0.4 2.1,0.7 0.4,0.1 0.8,0.3 1.2,0.4 0.7,0.2 1.3,0.5 2,0.7 0.4,0.1 0.8,0.3 1.1,0.5 0.7,0.3 1.3,0.5 2,0.8 0.4,0.2 0.7,0.3 1.1,0.5 0.7,0.3 1.3,0.6 1.9,0.9 0.3,0.2 0.7,0.3 1,0.5 0.7,0.3 1.3,0.7 2,1 0.3,0.2 0.6,0.3 0.8,0.5 2.4,1.4 4.7,2.8 6.9,4.5 0.2,0.1 0.3,0.2 0.5,0.3 0.6,0.4 1.1,0.9 1.7,1.3 0.3,0.3 0.7,0.5 1,0.8 0.5,0.4 1,0.8 1.5,1.3 0.4,0.3 0.7,0.6 1.1,0.9 0.5,0.4 0.9,0.8 1.4,1.3 0.4,0.3 0.7,0.7 1.1,1 0.4,0.4 0.9,0.9 1.3,1.3 0.4,0.4 0.7,0.7 1.1,1.1 0.4,0.4 0.8,0.9 1.2,1.3 0.4,0.4 0.7,0.8 1,1.2 0.4,0.4 0.7,0.9 1.1,1.3 0.3,0.4 0.7,0.9 1,1.3 0.3,0.4 0.7,0.9 1,1.3 0.3,0.5 0.7,0.9 1,1.4 0.3,0.4 0.6,0.9 0.9,1.3 0.3,0.5 0.7,1 1,1.6 0.3,0.4 0.5,0.8 0.8,1.3 0.4,0.7 0.9,1.5 1.3,2.2 0.3,0.5 0.5,0.9 0.7,1.4 0.4,0.8 0.8,1.5 1.2,2.3 0.2,0.4 0.4,0.8 0.6,1.2 0.3,0.6 0.6,1.2 0.8,1.9 0.2,0.4 0.4,0.9 0.6,1.4 0.2,0.6 0.5,1.2 0.7,1.8 0.2,0.5 0.3,0.9 0.5,1.4 0.2,0.6 0.4,1.2 0.6,1.8 0.2,0.5 0.3,1 0.4,1.5 0.2,0.6 0.4,1.2 0.5,1.9 0.1,0.5 0.3,1 0.4,1.5 0.2,0.6 0.3,1.3 0.4,1.9 0.1,0.5 0.2,1 0.3,1.5 0.1,0.7 0.2,1.3 0.4,2 0.1,0.5 0.2,1 0.2,1.5 0.1,0.7 0.2,1.4 0.3,2.1 0.1,0.5 0.1,0.9 0.2,1.4 0.1,0.8 0.1,1.6 0.2,2.4 0,0.4 0.1,0.8 0.1,1.2 0.1,1.2 0.1,2.4 0.1,3.6 0,16.5 -5.5,31.8 -14.7,44 -4.1,-4.1 -8.7,-7.8 -13.8,-11 -18.1,-11.5 -39.5,-15.2 -60.4,-10.5 -16,3.6 -30.2,11.8 -41.1,23.6 -10.2,-12.6 -16.3,-28.6 -16.3,-46 0,-1.2 0,-2.4 0.1,-3.6 0,-0.4 0.1,-0.8 0.1,-1.2 0.1,-0.8 0.1,-1.6 0.2,-2.4 0,-0.5 0.1,-0.9 0.2,-1.4 0.1,-0.7 0.2,-1.4 0.3,-2.1 0.1,-0.5 0.2,-1 0.2,-1.5 0.1,-0.7 0.2,-1.3 0.4,-2 0.1,-0.5 0.2,-1 0.3,-1.5 0.1,-0.6 0.3,-1.3 0.4,-1.9 0.1,-0.5 0.3,-1 0.4,-1.5 0.2,-0.6 0.3,-1.2 0.5,-1.8 0.2,-0.5 0.3,-1 0.5,-1.5 0.2,-0.6 0.4,-1.2 0.6,-1.7 0.2,-0.5 0.4,-1 0.5,-1.5 0.2,-0.6 0.4,-1.1 0.7,-1.7 0.2,-0.5 0.4,-1 0.6,-1.5 0.2,-0.5 0.5,-1.1 0.7,-1.6 0.2,-0.5 0.5,-1 0.7,-1.5 0.2,-0.5 0.5,-1 0.8,-1.5 0.3,-0.5 0.5,-1.1 0.8,-1.6 0.2,-0.3 0.4,-0.6 0.5,-0.9 0.7,-1.3 1.5,-2.6 2.4,-3.9 0.2,-0.3 0.3,-0.5 0.5,-0.8 0.4,-0.6 0.8,-1.2 1.3,-1.8 0.2,-0.3 0.4,-0.6 0.7,-0.9 0.4,-0.6 0.9,-1.2 1.3,-1.7 0.2,-0.3 0.5,-0.6 0.7,-0.9 0.5,-0.6 0.9,-1.1 1.4,-1.7 0.2,-0.3 0.5,-0.6 0.7,-0.8 0.5,-0.6 1,-1.1 1.5,-1.6 0.2,-0.3 0.5,-0.5 0.7,-0.8 0.5,-0.5 1.1,-1.1 1.6,-1.6 0.2,-0.2 0.5,-0.4 0.7,-0.7 0.6,-0.5 1.2,-1.1 1.8,-1.6 0.2,-0.2 0.4,-0.4 0.6,-0.5 0.6,-0.6 1.3,-1.1 1.9,-1.6 0.2,-0.1 0.3,-0.2 0.5,-0.4 0.7,-0.6 1.5,-1.1 2.2,-1.7 0,0 0.1,-0.1 0.1,-0.1 4.3,-3.1 8.9,-5.8 13.8,-7.9 2,-0.9 4,-1.7 6.1,-2.3 0.1,0 0.1,0 0.2,-0.1 1,-0.3 1.9,-0.6 2.9,-0.9 0.1,0 0.2,-0.1 0.3,-0.1 1,-0.3 2,-0.5 3,-0.8 0.1,0 0.2,0 0.3,-0.1 1,-0.2 2,-0.4 3,-0.6 0.1,0 0.1,0 0.2,0 1.1,-0.2 2.1,-0.4 3.2,-0.5 0,0 0,-0.1 0,-0.1 -43.5,5 -77.4,42 -77.4,86.8 0,15 3.8,29.2 10.5,41.6 -12.9,0.5 -25.8,3.9 -37.9,10.5 -39.3,21.2 -55.7,68.2 -39.9,108.7 0,0 0.1,0 0.1,0 0,0 0,0 0,0 -0.3,-0.8 -0.6,-1.6 -0.8,-2.4 -0.1,-0.3 -0.2,-0.6 -0.3,-0.9 -0.2,-0.7 -0.4,-1.5 -0.6,-2.2 -0.1,-0.4 -0.2,-0.7 -0.3,-1.1 -0.2,-0.7 -0.4,-1.4 -0.5,-2.2 -0.1,-0.4 -0.2,-0.8 -0.3,-1.2 -0.1,-0.7 -0.3,-1.4 -0.4,-2.1 -0.1,-0.4 -0.1,-0.8 -0.2,-1.2 -0.1,-0.7 -0.2,-1.4 -0.3,-2.1 -0.1,-0.4 -0.1,-0.8 -0.1,-1.2 -0.1,-0.7 -0.2,-1.4 -0.2,-2.1 0,-0.4 -0.1,-0.8 -0.1,-1.2 0,-0.7 -0.1,-1.4 -0.1,-2.2 0,-0.4 0,-0.8 0,-1.1 0,-0.7 0,-1.5 0,-2.2 0,-0.3 0,-0.6 0,-1 0.1,-2.7 0.3,-5.5 0.6,-8.2 0,-0.2 0,-0.4 0.1,-0.6 0.1,-0.7 0.2,-1.4 0.3,-2.1 0.1,-0.4 0.1,-0.8 0.2,-1.2 0.1,-0.6 0.3,-1.3 0.4,-1.9 0.1,-0.5 0.2,-0.9 0.3,-1.4 0.1,-0.6 0.3,-1.2 0.5,-1.8 0.1,-0.5 0.3,-1 0.4,-1.4 0.2,-0.6 0.3,-1.2 0.5,-1.7 0.2,-0.5 0.3,-1 0.5,-1.5 0.2,-0.6 0.4,-1.1 0.6,-1.7 0.2,-0.5 0.4,-1 0.6,-1.5 0.2,-0.5 0.4,-1.1 0.6,-1.6 0.2,-0.5 0.4,-1 0.7,-1.5 0.2,-0.5 0.5,-1 0.7,-1.6 0.2,-0.5 0.5,-1 0.8,-1.5 0.2,-0.5 0.5,-1 0.7,-1.5 0.3,-0.5 0.6,-1.1 0.9,-1.6 0.2,-0.4 0.5,-0.9 0.7,-1.3 0.4,-0.8 0.9,-1.5 1.4,-2.2 0.3,-0.4 0.5,-0.8 0.8,-1.3 0.5,-0.7 1,-1.4 1.5,-2.1 0.3,-0.4 0.5,-0.7 0.8,-1.1 0.4,-0.5 0.8,-1.1 1.2,-1.6 0.3,-0.4 0.6,-0.8 0.9,-1.1 0.4,-0.5 0.8,-1 1.3,-1.5 0.3,-0.4 0.7,-0.7 1,-1.1 0.4,-0.5 0.9,-1 1.3,-1.4 0.4,-0.4 0.7,-0.7 1.1,-1.1 0.5,-0.5 0.9,-0.9 1.4,-1.4 0.4,-0.3 0.7,-0.7 1.1,-1 0.5,-0.4 1,-0.9 1.5,-1.3 0.4,-0.3 0.8,-0.7 1.2,-1 0.5,-0.4 1.1,-0.8 1.6,-1.3 0.4,-0.3 0.8,-0.6 1.2,-0.9 0.6,-0.4 1.2,-0.8 1.7,-1.2 0.4,-0.3 0.8,-0.5 1.2,-0.8 0.7,-0.4 1.3,-0.9 2,-1.3 0.3,-0.2 0.7,-0.4 1,-0.6 1,-0.6 2.1,-1.2 3.1,-1.8 14.5,-7.9 30.6,-10.3 45.7,-8 -10,33.5 2.9,70.9 33.8,90.6 7.1,4.5 14.8,7.8 22.8,9.9 -6.2,14.9 -17.4,27.9 -32.7,36.2 -1.1,0.6 -2.1,1.1 -3.2,1.6 -0.4,0.2 -0.7,0.3 -1.1,0.5 -0.7,0.3 -1.4,0.7 -2.2,1 -0.4,0.2 -0.9,0.4 -1.3,0.5 -0.7,0.3 -1.3,0.5 -2,0.8 -0.5,0.2 -0.9,0.3 -1.4,0.5 -0.6,0.2 -1.3,0.4 -1.9,0.6 -0.5,0.2 -1,0.3 -1.5,0.4 -0.6,0.2 -1.2,0.4 -1.9,0.5 -0.5,0.1 -1,0.3 -1.5,0.4 -0.6,0.1 -1.2,0.3 -1.8,0.4 -0.5,0.1 -1,0.2 -1.6,0.3 -0.6,0.1 -1.2,0.2 -1.8,0.3 -0.5,0.1 -1.1,0.2 -1.6,0.2 -0.6,0.1 -1.2,0.1 -1.8,0.2 -0.5,0.1 -1.1,0.1 -1.6,0.2 -0.6,0.1 -1.2,0.1 -1.7,0.1 -0.6,0 -1.1,0.1 -1.7,0.1 -0.6,0 -1.1,0 -1.7,0 -0.6,0 -1.2,0 -1.8,0 -0.4,0 -0.7,0 -1.1,0 -1.5,0 -3,-0.1 -4.5,-0.2 -0.3,0 -0.6,0 -0.9,-0.1 -0.7,-0.1 -1.5,-0.2 -2.2,-0.3 -0.4,0 -0.8,-0.1 -1.1,-0.1 -0.7,-0.1 -1.4,-0.2 -2.1,-0.3 -0.4,-0.1 -0.8,-0.1 -1.1,-0.2 -0.7,-0.1 -1.4,-0.3 -2.1,-0.4 -0.4,-0.1 -0.7,-0.2 -1.1,-0.2 -0.7,-0.2 -1.4,-0.4 -2.2,-0.5 -0.3,-0.1 -0.7,-0.2 -1,-0.3 -0.7,-0.2 -1.5,-0.4 -2.2,-0.7 -0.3,-0.1 -0.6,-0.2 -0.9,-0.3 -0.8,-0.3 -1.5,-0.5 -2.3,-0.8 -0.3,-0.1 -0.5,-0.2 -0.8,-0.3 -0.8,-0.3 -1.6,-0.6 -2.4,-0.9 -0.2,-0.1 -0.4,-0.2 -0.5,-0.2 -0.8,-0.4 -1.7,-0.7 -2.5,-1.1 0,0 -0.1,0 -0.1,-0.1 -4.7,-2.2 -9.2,-5 -13.3,-8.2 -1.8,-1.4 -3.5,-2.8 -5.2,-4.4 0,0 -0.1,-0.1 -0.1,-0.1 -0.7,-0.7 -1.5,-1.4 -2.2,-2.1 -0.1,-0.1 -0.1,-0.1 -0.2,-0.2 -0.7,-0.7 -1.4,-1.5 -2.1,-2.2 -0.1,-0.1 -0.1,-0.2 -0.2,-0.2 -0.7,-0.8 -1.3,-1.6 -2,-2.4 0,-0.1 -0.1,-0.1 -0.1,-0.2 -0.7,-0.8 -1.3,-1.7 -2,-2.6 0,0 -0.1,0 -0.1,0.1 25.1,35.9 73.7,48.1 113.2,26.7 13.6,-7.4 24.5,-17.8 32.2,-30 6.8,11.4 16.3,21.5 28.3,29.1 37.7,23.9 86.7,15.4 114.3,-18.3 0,0 -0.1,-0.1 -0.1,-0.1 -0.6,0.7 -1.1,1.3 -1.7,1.9 -0.2,0.2 -0.4,0.5 -0.6,0.7 -0.5,0.6 -1.1,1.1 -1.6,1.7 -0.3,0.3 -0.5,0.5 -0.8,0.8 -0.5,0.5 -1.1,1 -1.6,1.5 -0.3,0.3 -0.6,0.5 -0.9,0.8 -0.5,0.5 -1.1,0.9 -1.7,1.4 -0.3,0.3 -0.6,0.5 -1,0.8 -0.6,0.4 -1.1,0.9 -1.7,1.3 -0.3,0.2 -0.7,0.5 -1,0.7 -0.6,0.4 -1.2,0.8 -1.8,1.2 -0.3,0.2 -0.7,0.4 -1,0.7 -0.6,0.4 -1.2,0.8 -1.8,1.2 -0.3,0.2 -0.7,0.4 -1,0.6 -0.6,0.4 -1.3,0.7 -1.9,1.1 -0.3,0.2 -0.6,0.3 -0.9,0.5 -2.4,1.3 -4.9,2.4 -7.4,3.4 -0.2,0.1 -0.4,0.2 -0.6,0.2 -0.7,0.3 -1.3,0.5 -2,0.7 -0.4,0.1 -0.8,0.3 -1.2,0.4 -0.6,0.2 -1.2,0.4 -1.9,0.6 -0.5,0.1 -0.9,0.3 -1.4,0.4 -0.6,0.2 -1.2,0.3 -1.8,0.5 -0.5,0.1 -1,0.2 -1.4,0.4 -0.6,0.1 -1.2,0.3 -1.8,0.4 -0.5,0.1 -1,0.2 -1.5,0.3 -0.6,0.1 -1.2,0.2 -1.8,0.3 -0.5,0.1 -1.1,0.2 -1.6,0.2 -0.6,0.1 -1.1,0.2 -1.7,0.2 -0.5,0.1 -1.1,0.1 -1.6,0.2 -0.6,0.1 -1.1,0.1 -1.7,0.1 -0.6,0 -1.1,0.1 -1.7,0.1 -0.5,0 -1.1,0.1 -1.6,0.1 -0.6,0 -1.2,0 -1.9,0 -0.5,0 -1,0 -1.5,0 -0.9,0 -1.7,-0.1 -2.6,-0.1 -0.5,0 -1,-0.1 -1.5,-0.1 -0.9,-0.1 -1.7,-0.1 -2.6,-0.2 -0.4,-0.1 -0.9,-0.1 -1.3,-0.2 -0.7,-0.1 -1.4,-0.2 -2,-0.3 -0.5,-0.1 -1,-0.2 -1.4,-0.3 -0.6,-0.1 -1.3,-0.2 -1.9,-0.4 -0.5,-0.1 -1,-0.2 -1.5,-0.3 -0.6,-0.1 -1.3,-0.3 -1.9,-0.5 -0.5,-0.1 -1,-0.3 -1.5,-0.4 -0.6,-0.2 -1.2,-0.4 -1.9,-0.6 -0.5,-0.2 -1,-0.3 -1.5,-0.5 -0.6,-0.2 -1.2,-0.4 -1.9,-0.7 -0.5,-0.2 -0.9,-0.3 -1.4,-0.5 -0.6,-0.2 -1.3,-0.5 -1.9,-0.8 -0.5,-0.2 -0.9,-0.4 -1.4,-0.6 -0.6,-0.3 -1.3,-0.6 -1.9,-0.9 -0.4,-0.2 -0.8,-0.4 -1.3,-0.6 -0.7,-0.4 -1.4,-0.7 -2.1,-1.1 -0.3,-0.2 -0.7,-0.4 -1,-0.6 -1,-0.6 -2.1,-1.2 -3.1,-1.9 -14,-8.9 -23.9,-21.6 -29.3,-36 0,0 0,0 0.1,0 20.9,-4.7 38.7,-17.2 50.1,-35.3 12.4,-19.5 15.2,-42.4 9.8,-63.2 16.1,-1.9 32.9,1.5 47.7,10.9 1,0.6 2,1.3 3,2 0.3,0.2 0.6,0.5 1,0.7 0.6,0.5 1.3,0.9 1.9,1.4 0.4,0.3 0.7,0.6 1.1,0.9 0.6,0.4 1.1,0.9 1.6,1.4 0.4,0.3 0.8,0.7 1.1,1 0.5,0.4 1,0.9 1.5,1.4 0.4,0.4 0.7,0.7 1.1,1.1 0.5,0.5 0.9,0.9 1.4,1.4 0.4,0.4 0.7,0.8 1.1,1.2 0.4,0.5 0.8,0.9 1.3,1.4 0.4,0.4 0.7,0.8 1,1.2 0.4,0.5 0.8,1 1.2,1.4 0.3,0.4 0.7,0.8 1,1.3 0.4,0.5 0.7,1 1.1,1.5 0.3,0.4 0.6,0.9 1,1.3 0.3,0.5 0.6,1 1,1.5 0.3,0.5 0.6,0.9 0.9,1.4 0.3,0.5 0.6,0.9 0.8,1.4 0.3,0.5 0.6,1 0.9,1.5 0.2,0.3 0.3,0.6 0.5,1 0.7,1.3 1.4,2.7 2,4.1 0.1,0.3 0.3,0.6 0.4,0.8 0.3,0.7 0.6,1.4 0.8,2 0.1,0.4 0.3,0.7 0.4,1.1 0.3,0.7 0.5,1.4 0.7,2 0.1,0.4 0.3,0.7 0.4,1.1 0.2,0.7 0.4,1.4 0.7,2.1 0.1,0.4 0.2,0.7 0.3,1.1 0.2,0.7 0.4,1.4 0.6,2.2 0.1,0.3 0.2,0.7 0.3,1 0.2,0.7 0.3,1.5 0.5,2.2 0.1,0.3 0.1,0.6 0.2,0.9 0.2,0.8 0.3,1.6 0.4,2.4 0,0.3 0.1,0.5 0.1,0.8 0.1,0.8 0.2,1.7 0.3,2.5 0,0.2 0,0.4 0.1,0.6 0.1,0.9 0.2,1.8 0.2,2.8 0,0 0,0.1 0,0.1 0.3,5.2 0.1,10.5 -0.7,15.7 -0.3,2.2 -0.8,4.4 -1.3,6.6 0,0.1 0,0.1 0,0.2 -0.2,1 -0.5,2 -0.8,3 0,0.1 -0.1,0.2 -0.1,0.3 -0.3,1 -0.6,1.9 -0.9,2.9 0,0.1 -0.1,0.2 -0.1,0.3 -0.3,1 -0.7,1.9 -1.1,2.9 0,0.1 -0.1,0.1 -0.1,0.2 -0.4,1 -0.8,2 -1.3,3 0,0 0.1,0 0.1,0.1 18.7,-40.2 5.6,-88.5 -32.3,-112.6 z m -103.4,29.1 c 0,6.7 -3.8,12.5 -9.3,15.3 -2.4,1.2 -5.1,2 -8,2 -3.1,0 -5.9,-0.8 -8.4,-2.2 -5.3,-3 -8.9,-8.6 -8.9,-15.1 0,-0.1 0,-0.2 0,-0.3 0.1,-6.1 3.4,-11.4 8.2,-14.4 2.6,-1.6 5.7,-2.6 9.1,-2.6 3.5,0 6.8,1.1 9.5,2.8 4.4,2.9 7.4,7.8 7.8,13.5 0,0.4 0,0.7 0,1 z m -32.5,-68.2 c 5.1,-1.1 10.3,-1.7 15.4,-1.7 13.1,0 26,3.7 37.3,10.9 4.7,3 8.8,6.4 12.5,10.2 -13.2,13.3 -31.5,21.5 -51.8,21.5 -19.3,0 -36.8,-7.5 -49.9,-19.7 9.7,-10.6 22.2,-18 36.5,-21.2 z M 350,497.9 c -27.2,-17.3 -38.4,-50.4 -29.3,-79.8 18,5.3 33.9,17.5 43.5,35.3 9.2,17 10.9,36 6.4,53.3 -7.2,-1.8 -14.2,-4.7 -20.6,-8.8 z m 96.5,-21.6 c -10,15.8 -25.6,26.7 -43.8,30.8 -0.3,0.1 -0.5,0.1 -0.8,0.2 -4.1,-18.3 -1.2,-38.1 9.6,-55.2 10.3,-16.3 26,-27.1 43.3,-31.6 5.1,18.3 2.6,38.6 -8.3,55.8 z"
   class="st2"
   inkscape:connector-curvature="0"
   style="fill:#1d1d1b" />
</g></g>
</svg>