<?xml version="1.0" encoding="utf-8"?>
<!-- Generator: Adobe Illustrator 24.1.0, SVG Export Plug-In . SVG Version: 6.00 Build 0)  -->
<svg version="1.1"
	 id="svg8" inkscape:export-filename="/media/juhele/data_2TB/_GRAFIKA/GHS hazard symbols/GHS06_toxic_substances.png" inkscape:export-xdpi="99.027519" inkscape:export-ydpi="99.027519" inkscape:version="0.92.3 (unknown)" sodipodi:docname="GHS06_toxic_substances.svg" xmlns:cc="http://creativecommons.org/ns#" xmlns:dc="http://purl.org/dc/elements/1.1/" xmlns:inkscape="http://www.inkscape.org/namespaces/inkscape" xmlns:rdf="http://www.w3.org/1999/02/22-rdf-syntax-ns#" xmlns:sodipodi="http://sodipodi.sourceforge.net/DTD/sodipodi-0.dtd" xmlns:svg="http://www.w3.org/2000/svg"
	 xmlns="http://www.w3.org/2000/svg" xmlns:xlink="http://www.w3.org/1999/xlink" x="0px" y="0px" viewBox="0 0 775.6 775.5"
	 style="enable-background:new 0 0 775.6 775.5;" xml:space="preserve">
<style type="text/css">
	.st0{fill:#FFEB1D;}
</style>
<g>
	<polygon class="st0" points="28.2,657.8 387,36.4 746.6,657.8 	"/>
	<path d="M411.7,41.6L411.7,41.6L411.7,41.6 M387,84.4l318,549.4H69.8L387,84.4 M387,7.9c-6.6,0-13.1,3.2-16.9,9.7L3.5,652.6
		c-7.5,13,1.9,29.2,16.9,29.2h734.1c15,0,24.4-16.2,16.9-29.2L404,17.6C400.1,11.1,393.5,7.9,387,7.9L387,7.9z"/>
</g>
<g>
	<path d="M381.2,435.4c-2-0.4-4.1-0.6-6.2-0.6c-19.6,0-35.6,16-35.6,35.6s16,35.6,35.6,35.6s35.6-16,35.6-35.6
		c0-17.2-12.3-31.7-28.6-34.9l43-65.7l38.4,37.2l0.9-63.1l21.4-18l-11.2-8.9l-19.6-0.5l8.5,8.5l-17,11.2l0.8,32l-26.2-24.9
		l-26.5,42.3l-2.5-42.9l-65.5,5.4l33.9-35.1v-22.1l-92,85.5l107.9-13.7L381.2,435.4z"/>
	<polygon points="370.2,312.9 478,312.9 447.6,260.1 447.4,259.9 335.7,259.9 321.2,286.7 368.9,287.1 	"/>
	<path d="M524.1,504.9l-30-80.8c-5.8-12.4-16.7-13.3-24.3-10.3c-7.6,3-14.2,10.9-11.3,19.6l23.9,63.3l-64.9,14.2l-72.3,8
		c-9.2,0.7-15.4,2.7-21.9,11.1L249,602.4l52.8,0.4l0.2,0l41.7-42.5l4.6,42.5l81.3-0.9l-5.1-54.6l90.1-20.6
		C523.4,523.3,527,515.2,524.1,504.9z"/>
</g>
</svg>
