<?xml version="1.0" encoding="UTF-8" standalone="no"?>
<!-- Created with Inkscape (http://www.inkscape.org/) -->

<svg
   xmlns:dc="http://purl.org/dc/elements/1.1/"
   xmlns:cc="http://creativecommons.org/ns#"
   xmlns:rdf="http://www.w3.org/1999/02/22-rdf-syntax-ns#"
   xmlns:svg="http://www.w3.org/2000/svg"
   xmlns="http://www.w3.org/2000/svg"
   xmlns:sodipodi="http://sodipodi.sourceforge.net/DTD/sodipodi-0.dtd"
   xmlns:inkscape="http://www.inkscape.org/namespaces/inkscape"
   version="1.1"
   width="125"
   height="125"
   id="svg2"
   xml:space="preserve"
   sodipodi:docname="1011.svg"
   inkscape:version="0.92.5 (2060ec1f9f, 2020-04-08)"><sodipodi:namedview
     pagecolor="#ffffff"
     bordercolor="#666666"
     borderopacity="1"
     objecttolerance="10"
     gridtolerance="10"
     guidetolerance="10"
     inkscape:pageopacity="0"
     inkscape:pageshadow="2"
     inkscape:window-width="1920"
     inkscape:window-height="1017"
     id="namedview3972"
     showgrid="false"
     inkscape:zoom="2.5187406"
     inkscape:cx="70.868752"
     inkscape:cy="32.900002"
     inkscape:window-x="-8"
     inkscape:window-y="-8"
     inkscape:window-maximized="1"
     inkscape:current-layer="g14" /><metadata
     id="metadata8"><rdf:RDF><cc:Work
         rdf:about=""><dc:format>image/svg+xml</dc:format><dc:type
           rdf:resource="http://purl.org/dc/dcmitype/StillImage" /><dc:title></dc:title></cc:Work></rdf:RDF></metadata><defs
     id="defs6"><clipPath
       id="clipPath18"><path
         d="M 0,0 H 1133.86 V 526 H 0 Z"
         id="path20"
         inkscape:connector-curvature="0" /></clipPath></defs><g
     transform="matrix(1.25,0,0,-1.25,0,125)"
     id="g10"><g
       transform="scale(0.1)"
       id="g12"><g
         id="g14"><g
           id="g4523"
           transform="matrix(0.96273,0,0,0.92759857,-42.394331,260.44762)"><path
             d="M 311.26667,0 H 822.59333 V 526.43 H 311.26667 Z"
             id="path22"
             style="fill:#00a650;fill-opacity:1;fill-rule:nonzero;stroke:none;stroke-width:0.67153633"
             inkscape:connector-curvature="0" /><path
             d="M 566.582,29.8945 632.91,132.52 588.223,124.836 v 212.25 h -42.586 v -212.25 l -44.684,7.684 65.629,-102.6255"
             id="path24"
             style="fill:#ffffff;fill-opacity:1;fill-rule:nonzero;stroke:none"
             inkscape:connector-curvature="0" /><path
             d="m 619.648,154.855 v 46.083 h 59.336 c 3.496,0 6.993,2.792 6.993,6.984 v 224.121 c 0,3.488 -3.497,6.98 -6.993,6.98 H 454.871 v 0 c -4.191,0 -6.98,-3.492 -6.98,-6.98 V 207.922 c 0,-4.192 2.789,-6.984 6.98,-6.984 h 59.344 v -46.083 h -59.344 c -29.324,0 -53.062,23.739 -53.062,53.067 v 224.121 c 0,29.324 23.738,53.066 53.062,53.066 h 224.113 c 29.328,0 53.067,-23.742 53.067,-53.066 V 207.922 c 0,-29.328 -23.739,-53.067 -53.067,-53.067 h -59.336"
             id="path26"
             style="fill:#ffffff;fill-opacity:1;fill-rule:nonzero;stroke:none"
             inkscape:connector-curvature="0" /></g></g></g></g></svg>