<?xml version="1.0" encoding="UTF-8" standalone="no"?>
<!-- Created with Inkscape (http://www.inkscape.org/) -->

<svg
   xmlns:dc="http://purl.org/dc/elements/1.1/"
   xmlns:cc="http://creativecommons.org/ns#"
   xmlns:rdf="http://www.w3.org/1999/02/22-rdf-syntax-ns#"
   xmlns:svg="http://www.w3.org/2000/svg"
   xmlns="http://www.w3.org/2000/svg"
   version="1.1"
   width="141.7375"
   height="65.800003"
   id="svg2"
   xml:space="preserve"><metadata
     id="metadata8"><rdf:RDF><cc:Work
         rdf:about=""><dc:format>image/svg+xml</dc:format><dc:type
           rdf:resource="http://purl.org/dc/dcmitype/StillImage" /><dc:title></dc:title></cc:Work></rdf:RDF></metadata><defs
     id="defs6"><clipPath
       id="clipPath18"><path
         d="m 0,0 1133.86,0 0,526 L 0,526 0,0 z"
         id="path20" /></clipPath></defs><g
     transform="matrix(1.25,0,0,-1.25,0,65.8)"
     id="g10"><g
       transform="scale(0.1,0.1)"
       id="g12"><g
         id="g14"><g
           clip-path="url(#clipPath18)"
           id="g16"><path
             d="m 0,0 1133.86,0 0,526.43 L 0,526.43 0,0 z"
             id="path22"
             style="fill:#00a650;fill-opacity:1;fill-rule:nonzero;stroke:none" /><path
             d="m 566.582,29.8945 66.328,102.6255 -44.687,-7.684 0,212.25 -42.586,0 0,-212.25 -44.684,7.684 65.629,-102.6255"
             id="path24"
             style="fill:#ffffff;fill-opacity:1;fill-rule:nonzero;stroke:none" /><path
             d="m 619.648,154.855 0,46.083 59.336,0 c 3.496,0 6.993,2.792 6.993,6.984 l 0,224.121 c 0,3.488 -3.497,6.98 -6.993,6.98 l -224.113,0 0,0 c -4.191,0 -6.98,-3.492 -6.98,-6.98 l 0,-224.121 c 0,-4.192 2.789,-6.984 6.98,-6.984 l 59.344,0 0,-46.083 -59.344,0 c -29.324,0 -53.062,23.739 -53.062,53.067 l 0,224.121 c 0,29.324 23.738,53.066 53.062,53.066 l 224.113,0 c 29.328,0 53.067,-23.742 53.067,-53.066 l 0,-224.121 c 0,-29.328 -23.739,-53.067 -53.067,-53.067 l -59.336,0"
             id="path26"
             style="fill:#ffffff;fill-opacity:1;fill-rule:nonzero;stroke:none" /></g></g></g></g></svg>