<?xml version="1.0" encoding="UTF-8" standalone="no"?>
<!-- Generator: Adobe Illustrator 24.1.0, SVG Export Plug-In . SVG Version: 6.00 Build 0)  -->

<svg
   xmlns:dc="http://purl.org/dc/elements/1.1/"
   xmlns:cc="http://creativecommons.org/ns#"
   xmlns:rdf="http://www.w3.org/1999/02/22-rdf-syntax-ns#"
   xmlns:svg="http://www.w3.org/2000/svg"
   xmlns="http://www.w3.org/2000/svg"
   xmlns:sodipodi="http://sodipodi.sourceforge.net/DTD/sodipodi-0.dtd"
   xmlns:inkscape="http://www.inkscape.org/namespaces/inkscape"
   version="1.1"
   id="svg2"
   x="0px"
   y="0px"
   width="125"
   height="125"
   viewBox="0 0 125 125"
   xml:space="preserve"
   sodipodi:docname="153-2.svg"
   inkscape:version="0.92.5 (2060ec1f9f, 2020-04-08)"><metadata
   id="metadata2223"><rdf:RDF><cc:Work
       rdf:about=""><dc:format>image/svg+xml</dc:format><dc:type
         rdf:resource="http://purl.org/dc/dcmitype/StillImage" /><dc:title></dc:title></cc:Work></rdf:RDF></metadata><defs
   id="defs2221" /><sodipodi:namedview
   pagecolor="#ffffff"
   bordercolor="#666666"
   borderopacity="1"
   objecttolerance="10"
   gridtolerance="10"
   guidetolerance="10"
   inkscape:pageopacity="0"
   inkscape:pageshadow="2"
   inkscape:window-width="1920"
   inkscape:window-height="1017"
   id="namedview2219"
   showgrid="false"
   inkscape:zoom="3.3286318"
   inkscape:cx="35.450001"
   inkscape:cy="35.450001"
   inkscape:window-x="-8"
   inkscape:window-y="-8"
   inkscape:window-maximized="1"
   inkscape:current-layer="svg2" />
<style
   type="text/css"
   id="style2212">
	.st0{fill:#FFFFFF;}
</style>
<rect
   x="31.339407"
   y="31.462709"
   class="st0"
   width="63.5"
   height="63.5"
   id="rect2214"
   style="fill:#ffffff" />
<path
   d="m 30.439407,30.562709 v 1.1 27.6 36.600002 h 65.3 V 30.562709 Z m 1.8,29.4 h 38.2 v 6.6 h -38.2 z m 24,-1.8 v -12.1 h 6.2 v 12.1 z m -16,0 v -12.1 h 6.2 v 12.1 z m 8,-12.1 h 6.2 v 12.1 h -6.2 z m 8,-1 v -12.7 h 6.2 v 12.7 z m -1.8,0 h -6.2 v -12.7 h 6.2 z m -8,0 h -6.2 v -12.7 h 6.2 z m -8,0 h -6.2 v -12.7 h 6.2 z m -6.2,1 h 6.2 v 12.1 h -6.2 z m 22.7,22.3 v 11.900002 h -6.2 V 68.362709 Z m 1.8,0 h 6.2 v 11.900002 h -6.2 z m 8,0 h 5.7 v 11.900002 h -5.7 z m -17.8,0 v 11.900002 h -6.2 V 68.362709 Z m 0,12.900002 v 12.8 h -6.2 v -12.8 z m 1.8,0 h 6.2 v 12.8 h -6.2 z m 8,0 h 6.2 v 12.8 h -6.2 z m 8,0 h 5.7 v 12.8 h -5.7 z m 5.7,-23.100002 h -6.2 v -12.1 h 3.8 l -3.1,2.9 0.6,0.7 4.4,-4.1 -4.4,-4.1 -0.6,0.8 3.1,2.8 h -3.8 v -12.7 h 6.2 z m -38.2,10.2 h 6.7 v 11.900002 h -3.7 l 3.1,-2.8 -0.7,-0.8 -4.4,4.1 4.4,4.1 0.7,-0.7 -3.1,-2.9 h 3.7 v 12.8 h -6.7 z m 61.7,25.700002 h -21.7 V 32.362709 h 21.7 z"
   id="path2216"
   inkscape:connector-curvature="0" />
</svg>