<?xml version="1.0" encoding="utf-8"?>
<!-- Generator: Adobe Illustrator 24.1.0, SVG Export Plug-In . SVG Version: 6.00 Build 0)  -->
<svg version="1.1" baseProfile="basic"
	 id="svg2" xmlns:cc="http://creativecommons.org/ns#" xmlns:dc="http://purl.org/dc/elements/1.1/" xmlns:inkscape="http://www.inkscape.org/namespaces/inkscape" xmlns:rdf="http://www.w3.org/1999/02/22-rdf-syntax-ns#" xmlns:sodipodi="http://sodipodi.sourceforge.net/DTD/sodipodi-0.dtd" xmlns:svg="http://www.w3.org/2000/svg"
	 xmlns="http://www.w3.org/2000/svg" xmlns:xlink="http://www.w3.org/1999/xlink" x="0px" y="0px" viewBox="0 0 70.9 70.9"
	 xml:space="preserve">
<style type="text/css">
	.st0{fill:#FFFFFF;}
</style>
<g>
	<rect x="4.3" y="4.7" class="st0" width="6.2" height="12.7"/>
	<polygon class="st0" points="7.3,53.6 10.4,56.5 9.7,57.2 5.3,53.1 9.7,49 10.4,49.8 7.3,52.6 11,52.6 11,40.7 4.3,40.7 4.3,66.4 
		11,66.4 11,53.6 	"/>
	<rect x="20.8" y="53.6" class="st0" width="6.2" height="12.8"/>
	<rect x="12.8" y="53.6" class="st0" width="6.2" height="12.8"/>
	<polygon class="st0" points="40.1,17.4 37,14.6 37.6,13.8 42,17.9 37.6,22 37,21.3 40.1,18.4 36.3,18.4 36.3,30.5 42.5,30.5 
		42.5,4.7 36.3,4.7 36.3,17.4 	"/>
	<rect x="20.3" y="4.7" class="st0" width="6.2" height="12.7"/>
	<rect x="12.3" y="4.7" class="st0" width="6.2" height="12.7"/>
	<rect x="36.8" y="53.6" class="st0" width="5.7" height="12.8"/>
	<rect x="28.3" y="4.7" class="st0" width="6.2" height="12.7"/>
	<rect x="28.8" y="53.6" class="st0" width="6.2" height="12.8"/>
	<rect x="12.3" y="18.4" class="st0" width="6.2" height="12.1"/>
	<rect x="12.8" y="40.7" class="st0" width="6.2" height="11.9"/>
	<rect x="20.3" y="18.4" class="st0" width="6.2" height="12.1"/>
	<rect x="44.3" y="4.7" class="st0" width="21.7" height="61.7"/>
	<rect x="28.3" y="18.4" class="st0" width="6.2" height="12.1"/>
	<rect x="4.3" y="18.4" class="st0" width="6.2" height="12.1"/>
	<rect x="28.8" y="40.7" class="st0" width="6.2" height="11.9"/>
	<rect x="20.8" y="40.7" class="st0" width="6.2" height="11.9"/>
	<rect x="4.3" y="32.3" class="st0" width="38.2" height="6.6"/>
	<rect x="36.8" y="40.7" class="st0" width="5.7" height="11.9"/>
	<path d="M2.5,2.9V4v27.6v36.6h65.3V2.9H2.5z M4.3,4.7h6.2v12.7H4.3V4.7z M18.5,4.7v12.7h-6.2V4.7H18.5z M26.5,4.7v12.7h-6.2V4.7
		H26.5z M34.5,4.7v12.7h-6.2V4.7H34.5z M42.5,4.7v25.8h-6.2V18.4h3.8L37,21.3l0.6,0.7l4.4-4.1l-4.4-4.1L37,14.6l3.1,2.8h-3.8V4.7
		H42.5z M36.8,66.4V53.6h5.7v12.8H36.8z M4.3,40.7H11v11.9H7.3l3.1-2.8L9.7,49l-4.4,4.1l4.4,4.1l0.7-0.7l-3.1-2.9H11v12.8H4.3V40.7z
		 M4.3,32.3h38.2v6.6H4.3V32.3z M4.3,18.4h6.2v12.1H4.3V18.4z M34.5,30.5h-6.2V18.4h6.2V30.5z M26.5,30.5h-6.2V18.4h6.2V30.5z
		 M18.5,30.5h-6.2V18.4h6.2V30.5z M12.8,40.7H19v11.9h-6.2V40.7z M20.8,40.7H27v11.9h-6.2V40.7z M28.8,40.7H35v11.9h-6.2V40.7z
		 M36.8,40.7h5.7v11.9h-5.7V40.7z M12.8,53.6H19v12.8h-6.2V53.6z M20.8,53.6H27v12.8h-6.2V53.6z M28.8,53.6H35v12.8h-6.2V53.6z
		 M66,66.4H44.3V4.7H66V66.4z"/>
</g>
</svg>
