<?xml version="1.0" encoding="utf-8"?>
<!-- Generator: Adobe Illustrator 24.1.0, SVG Export Plug-In . SVG Version: 6.00 Build 0)  -->
<svg version="1.1"
	 id="svg2" xmlns:cc="http://creativecommons.org/ns#" xmlns:dc="http://purl.org/dc/elements/1.1/" xmlns:inkscape="http://www.inkscape.org/namespaces/inkscape" xmlns:rdf="http://www.w3.org/1999/02/22-rdf-syntax-ns#" xmlns:sodipodi="http://sodipodi.sourceforge.net/DTD/sodipodi-0.dtd" xmlns:svg="http://www.w3.org/2000/svg"
	 xmlns="http://www.w3.org/2000/svg" xmlns:xlink="http://www.w3.org/1999/xlink" x="0px" y="0px" viewBox="0 0 70.9 70.9"
	 style="enable-background:new 0 0 70.9 70.9;" xml:space="preserve">
<style type="text/css">
	.st0{fill:#FFFFFF;stroke:#000000;stroke-width:1.806;}
	.st1{fill:none;stroke:#000000;stroke-width:1.806;}
	.st2{fill:none;stroke:#000000;}
</style>
<rect x="3.4" y="3.8" class="st0" width="63.5" height="63.5"/>
<line class="st1" x1="43.4" y1="3.8" x2="43.4" y2="67.3"/>
<line class="st1" x1="11.4" y1="3.8" x2="11.4" y2="31.4"/>
<line class="st1" x1="3.4" y1="4" x2="3.4" y2="31.6"/>
<line class="st1" x1="19.4" y1="3.8" x2="19.4" y2="31.4"/>
<line class="st1" x1="27.4" y1="3.8" x2="27.4" y2="31.4"/>
<line class="st1" x1="35.4" y1="3.8" x2="35.4" y2="31.4"/>
<line class="st1" x1="3.4" y1="31.4" x2="43.4" y2="31.4"/>
<g>
	<g>
		<line class="st2" x1="3.4" y1="17.9" x2="41" y2="17.9"/>
		<g>
			<polygon points="37.6,22 37,21.3 40.6,17.9 37,14.6 37.6,13.8 42,17.9 			"/>
		</g>
	</g>
</g>
<line class="st1" x1="35.9" y1="67.2" x2="35.9" y2="39.6"/>
<line class="st1" x1="27.9" y1="67.2" x2="27.9" y2="39.6"/>
<line class="st1" x1="19.9" y1="67.2" x2="19.9" y2="39.6"/>
<line class="st1" x1="11.9" y1="67.2" x2="11.9" y2="39.6"/>
<g>
	<g>
		<line class="st2" x1="43.9" y1="53.1" x2="6.4" y2="53.1"/>
		<g>
			<polygon points="9.7,49 10.4,49.8 6.8,53.1 10.4,56.5 9.7,57.2 5.3,53.1 			"/>
		</g>
	</g>
</g>
<line class="st1" x1="3.4" y1="39.8" x2="43.4" y2="39.8"/>
</svg>
