<?xml version="1.0" encoding="UTF-8" standalone="no"?>
<!-- Generator: Adobe Illustrator 24.1.0, SVG Export Plug-In . SVG Version: 6.00 Build 0)  -->

<svg
   xmlns:dc="http://purl.org/dc/elements/1.1/"
   xmlns:cc="http://creativecommons.org/ns#"
   xmlns:rdf="http://www.w3.org/1999/02/22-rdf-syntax-ns#"
   xmlns:svg="http://www.w3.org/2000/svg"
   xmlns="http://www.w3.org/2000/svg"
   xmlns:sodipodi="http://sodipodi.sourceforge.net/DTD/sodipodi-0.dtd"
   xmlns:inkscape="http://www.inkscape.org/namespaces/inkscape"
   version="1.1"
   id="svg2"
   x="0px"
   y="0px"
   width="125"
   height="125"
   viewBox="0 0 125 125"
   xml:space="preserve"
   sodipodi:docname="173.svg"
   inkscape:version="0.92.5 (2060ec1f9f, 2020-04-08)"><metadata
   id="metadata2754"><rdf:RDF><cc:Work
       rdf:about=""><dc:format>image/svg+xml</dc:format><dc:type
         rdf:resource="http://purl.org/dc/dcmitype/StillImage" /><dc:title></dc:title></cc:Work></rdf:RDF></metadata><defs
   id="defs2752" /><sodipodi:namedview
   pagecolor="#ffffff"
   bordercolor="#666666"
   borderopacity="1"
   objecttolerance="10"
   gridtolerance="10"
   guidetolerance="10"
   inkscape:pageopacity="0"
   inkscape:pageshadow="2"
   inkscape:window-width="1920"
   inkscape:window-height="1017"
   id="namedview2750"
   showgrid="false"
   inkscape:zoom="3.3286318"
   inkscape:cx="35.450001"
   inkscape:cy="35.450001"
   inkscape:window-x="-8"
   inkscape:window-y="-8"
   inkscape:window-maximized="1"
   inkscape:current-layer="g2744" />
<style
   type="text/css"
   id="style2736">
	.st0{fill:#FFFFFF;}
	.st1{opacity:1.005025e-02;}
	.st2{fill:#FFF377;}
</style>
<g
   id="g2740"
   transform="matrix(0.89670244,0,0,0.87087805,31.005623,31.606955)">
	<circle
   class="st0"
   cx="35.5"
   cy="35.099998"
   r="33.299999"
   id="circle2738"
   style="fill:#ffffff" />
</g>
<g
   id="rect836"
   transform="translate(27.33856,27.061862)">
	<g
   class="st1"
   id="g2744">
		<path
   class="st2"
   d="m 35.5,5.5901463 v 0 c 16.858006,0 30.487883,13.2373467 30.487883,29.6098537 v 0 c 0,16.372507 -13.629877,29.609854 -30.487883,29.609854 v 0 C 18.641994,64.809854 5.012117,51.572507 5.012117,35.2 v 0 C 5.012117,18.91458 18.731664,5.5901463 35.5,5.5901463 Z"
   id="path2742"
   inkscape:connector-curvature="0"
   style="fill:#ffffff;fill-opacity:1;stroke-width:0.8836959" />
	</g>
	<path
   d="M 35.5,4.806356 C 18.283313,4.806356 4.2050848,18.479141 4.2050848,35.2 4.2050848,51.920859 18.283313,65.593644 35.5,65.593644 52.716687,65.593644 66.794915,51.920859 66.794915,35.2 66.794915,18.479141 52.716687,4.806356 35.5,4.806356 Z M 5.8191492,34.590385 C 5.9088195,29.62638 7.3435434,24.923639 9.76464,20.9176 l 11.926142,7.054112 c -1.076043,2.00302 -1.703734,4.180215 -1.793404,6.531586 z m 17.2166868,-5.747795 9.505046,5.660708 -11.02944,0.08709 c 0.08967,-2.090107 0.627692,-4.006039 1.524394,-5.747795 z m 28.515138,5.57362 c -0.08967,-2.438459 -0.807033,-4.702742 -1.972746,-6.705761 L 61.23536,20.743424 c 2.421097,4.006039 3.855821,8.621693 3.945491,13.49861 z m -1.703735,0 -11.657132,0.08709 9.863727,-5.921971 c 1.076043,1.741756 1.703735,3.744775 1.793405,5.834883 z m -12.195153,-1.393405 5.559555,-9.579659 c 1.614064,0.957966 3.048788,2.264283 4.214501,3.831864 z m -1.345054,-1.045054 -0.08967,-10.624712 c 1.972745,0.08709 3.76615,0.522527 5.380215,1.306317 z m 0,-12.192292 -0.08967,-13.4115225 c 4.662853,0.087088 9.056695,1.3063171 13.002185,3.2222488 L 42.494279,21.265951 c -1.883075,-0.870878 -4.035161,-1.393405 -6.187247,-1.480492 z m -1.614064,0.08709 c -2.241756,0.174176 -4.393842,0.696703 -6.276917,1.654669 L 21.601112,9.7703609 C 25.546603,7.7673414 29.940445,6.5481121 34.603298,6.3739365 Z m 0,1.567581 0.08967,11.060151 -5.559555,-9.579659 c 1.614064,-0.870878 3.497139,-1.393404 5.469885,-1.480492 z m -1.524394,11.582678 -9.325706,-5.57362 c 1.076043,-1.480492 2.331427,-2.786809 3.945491,-3.744775 z m 3.228128,5.486532 3.40747,5.834883 -3.317799,4.441478 z m 0,11.756853 7.621971,4.528566 0.807032,-1.306317 -5.469885,-3.309337 c 1.076043,-0.261263 2.152086,-0.609614 3.138459,-1.045053 l 6.725268,11.669766 c -3.85582,1.915931 -8.159992,3.135161 -12.733174,3.222248 z m 2.062416,-1.480492 2.152086,-2.873898 1.076043,1.828844 c -0.986373,0.435439 -2.062416,0.78379 -3.228129,1.045054 z m 3.228129,-4.267303 0.986373,-1.393405 -1.255384,-0.957966 -0.627692,0.783791 -3.138458,-5.486532 9.594716,5.747795 c -1.076043,1.480493 -2.510767,2.78681 -4.124831,3.744776 z m -3.49714,-8.534605 11.657132,-0.08709 c -0.08967,2.177196 -0.717362,4.180215 -1.793405,5.921971 z m 13.360867,0 13.629877,-0.08709 c -0.08967,5.051093 -1.614065,9.666747 -4.035161,13.759874 L 49.488558,42.689551 c 1.165713,-2.003019 1.883075,-4.267302 2.062416,-6.705761 z M 60.338658,19.43711 48.681526,26.404135 c -1.255384,-1.741756 -2.869448,-3.222249 -4.752523,-4.354391 l 6.725268,-11.669765 c 3.855821,2.264282 7.17362,5.399443 9.684387,9.057131 z m -40.17227,-8.882956 6.814939,11.756854 c -1.793405,1.132141 -3.317799,2.612634 -4.483512,4.35439 l -11.926143,-7.1412 c 2.421097,-3.657688 5.738896,-6.705761 9.594716,-8.970044 z M 5.8191492,36.157966 34.692968,36.070878 34.782638,64.026063 C 19.090345,63.677712 6.3571707,51.398332 5.8191492,36.157966 Z M 50.654271,60.020024 43.929003,48.350259 c 1.883075,-1.132142 3.497139,-2.525547 4.752523,-4.267303 l 11.657132,6.967025 c -2.510767,3.657687 -5.828566,6.705761 -9.684387,8.970043 z"
   id="path2746"
   inkscape:connector-curvature="0"
   style="stroke-width:0.8836959" />
</g>
</svg>