<?xml version="1.0" encoding="utf-8"?>
<!-- Generator: Adobe Illustrator 24.1.0, SVG Export Plug-In . SVG Version: 6.00 Build 0)  -->
<svg version="1.1"
	 id="svg2" xmlns:cc="http://creativecommons.org/ns#" xmlns:dc="http://purl.org/dc/elements/1.1/" xmlns:inkscape="http://www.inkscape.org/namespaces/inkscape" xmlns:rdf="http://www.w3.org/1999/02/22-rdf-syntax-ns#" xmlns:sodipodi="http://sodipodi.sourceforge.net/DTD/sodipodi-0.dtd" xmlns:svg="http://www.w3.org/2000/svg"
	 xmlns="http://www.w3.org/2000/svg" xmlns:xlink="http://www.w3.org/1999/xlink" x="0px" y="0px" viewBox="0 0 70.9 70.9"
	 style="enable-background:new 0 0 70.9 70.9;" xml:space="preserve">
<style type="text/css">
	.st0{fill:#FFFFFF;}
	.st1{opacity:1.005025e-02;}
	.st2{fill:none;stroke:#000000;stroke-width:1.806;}
	.st3{fill:none;stroke:#000000;}
	.st4{fill:#FFF377;fill-opacity:1.005025e-02;stroke:#000000;stroke-width:1.806;}
</style>
<circle class="st0" cx="35.5" cy="35.1" r="33.3"/>
<g id="rect836_3_">
	<path class="st1" d="M18.9,35.2L18.9,35.2c0-9.3,7.5-16.8,16.8-16.8l0,0c9.3,0,16.8,7.5,16.8,16.8l0,0C52.5,44.5,45,52,35.7,52l0,0
		"/>
	<g>
		<path class="st2" d="M18.9,35.2c0-9.3,7.5-16.8,16.8-16.8s16.8,7.5,16.8,16.8c0,8.6-6.5,15.7-14.9,16.7"/>
		<g>
			<polygon points="42.1,43.2 43.5,44.3 38.3,51.5 45.9,56.2 45,57.7 35.7,52 			"/>
		</g>
	</g>
</g>
<line class="st2" x1="35.4" y1="1.9" x2="35.7" y2="68.6"/>
<line class="st2" x1="2" y1="35.4" x2="68.8" y2="35.1"/>
<line class="st2" x1="6.9" y1="17.8" x2="63.8" y2="52.7"/>
<line class="st2" x1="19" y1="6.1" x2="51.7" y2="64.3"/>
<line class="st2" x1="63.8" y1="17.8" x2="34.8" y2="35.6"/>
<line class="st2" x1="51.7" y1="6.1" x2="35.4" y2="35.2"/>
<path id="rect836" class="st4" d="M35.5,1.2L35.5,1.2c18.8,0,34,15.2,34,34v0c0,18.8-15.2,34-34,34l0,0c-18.8,0-34-15.2-34-34v0
	C1.5,16.5,16.8,1.2,35.5,1.2z"/>
</svg>
