<?xml version="1.0" encoding="UTF-8" standalone="no"?>
<!-- Generator: Adobe Illustrator 24.1.0, SVG Export Plug-In . SVG Version: 6.00 Build 0)  -->

<svg
   xmlns:dc="http://purl.org/dc/elements/1.1/"
   xmlns:cc="http://creativecommons.org/ns#"
   xmlns:rdf="http://www.w3.org/1999/02/22-rdf-syntax-ns#"
   xmlns:svg="http://www.w3.org/2000/svg"
   xmlns="http://www.w3.org/2000/svg"
   xmlns:sodipodi="http://sodipodi.sourceforge.net/DTD/sodipodi-0.dtd"
   xmlns:inkscape="http://www.inkscape.org/namespaces/inkscape"
   version="1.1"
   id="svg2"
   x="0px"
   y="0px"
   width="125"
   height="125"
   viewBox="0 0 125 125"
   xml:space="preserve"
   sodipodi:docname="174.svg"
   inkscape:version="0.92.5 (2060ec1f9f, 2020-04-08)"><metadata
   id="metadata3357"><rdf:RDF><cc:Work
       rdf:about=""><dc:format>image/svg+xml</dc:format><dc:type
         rdf:resource="http://purl.org/dc/dcmitype/StillImage" /><dc:title></dc:title></cc:Work></rdf:RDF></metadata><defs
   id="defs3355" /><sodipodi:namedview
   pagecolor="#ffffff"
   bordercolor="#666666"
   borderopacity="1"
   objecttolerance="10"
   gridtolerance="10"
   guidetolerance="10"
   inkscape:pageopacity="0"
   inkscape:pageshadow="2"
   inkscape:window-width="1920"
   inkscape:window-height="1017"
   id="namedview3353"
   showgrid="false"
   inkscape:zoom="5.0352608"
   inkscape:cx="78.54608"
   inkscape:cy="54.698758"
   inkscape:window-x="-8"
   inkscape:window-y="-8"
   inkscape:window-maximized="1"
   inkscape:current-layer="svg2" />
<style
   type="text/css"
   id="style3346">
	.st0{fill:#FFFFFF;}
</style>
<rect
   x="31.484833"
   y="43.897396"
   class="st0"
   width="62.718571"
   height="40.131821"
   id="rect3348"
   style="fill:#ffffff;stroke-width:0.9212001" />
<path
   d="m 30.67031,43.053499 v 1.125191 40.131824 0.562595 h 64.347618 v -41.81961 z m 9.502813,1.687787 h 6.244705 V 63.869539 H 40.173123 Z M 38.544069,63.869539 H 32.299363 V 44.741286 h 6.244706 z m 31.58554,0 H 63.884903 V 44.741286 h 6.244706 z m 1.629054,-19.128253 h 6.335208 V 63.869539 H 71.758663 Z M 62.25585,63.869539 H 56.011143 V 44.741286 h 6.244707 z m -7.873759,0 H 48.046882 V 44.741286 h 6.335209 z m -7.964263,0.93766 V 83.185322 H 40.173123 V 64.807199 Z m 1.629054,0 h 6.335209 v 18.378123 h -6.335209 z m 7.964261,0 h 6.244707 v 18.378123 h -6.244707 z m 7.87376,0 h 6.244706 v 18.378123 h -6.244706 z m 7.87376,0 h 6.335208 v 18.378123 h -6.335208 z m 7.964262,0 h 6.244706 v 18.378123 h -6.244706 z m 0,-0.93766 V 44.741286 h 6.244706 v 19.128253 z m -47.423562,0.93766 h 6.244706 V 83.185322 H 32.299363 Z M 93.388875,83.185322 H 87.596684 V 64.807199 h 3.801126 l -2.805593,2.719212 0.633521,0.656362 3.982131,-3.844404 -3.982131,-3.844406 -0.633521,0.75013 2.805593,2.625446 H 87.596684 V 44.741286 h 5.792191 z"
   id="path3350"
   inkscape:connector-curvature="0"
   style="stroke-width:0.9212001" />
</svg>