<?xml version="1.0" encoding="UTF-8" standalone="no"?>
<!-- Created with Inkscape (http://www.inkscape.org/) -->

<svg
   xmlns:dc="http://purl.org/dc/elements/1.1/"
   xmlns:cc="http://creativecommons.org/ns#"
   xmlns:rdf="http://www.w3.org/1999/02/22-rdf-syntax-ns#"
   xmlns:svg="http://www.w3.org/2000/svg"
   xmlns="http://www.w3.org/2000/svg"
   version="1.1"
   width="70.862503"
   height="43.862499"
   id="svg2"
   xml:space="preserve"><metadata
     id="metadata8"><rdf:RDF><cc:Work
         rdf:about=""><dc:format>image/svg+xml</dc:format><dc:type
           rdf:resource="http://purl.org/dc/dcmitype/StillImage" /><dc:title></dc:title></cc:Work></rdf:RDF></metadata><defs
     id="defs6"><clipPath
       id="clipPath18"><path
         d="M 0,350.938 0,0 l 566.934,0 0,350.938 -566.934,0 z"
         id="path20" /></clipPath></defs><g
     transform="matrix(1.25,0,0,-1.25,0,43.8625)"
     id="g10"><path
       d="m 1.1849917,1.2027984 62.3305633,-0.23699833 0,4.73996673 6.398955,-0.2369983 0,32.4687725 -6.398955,0.236998 0,4.739967 -62.80455999,-0.236998 z"
       transform="matrix(0.8,0,0,-0.8,0,35.09)"
       id="path3005"
       style="fill:#ffffff;fill-opacity:1;stroke:none" /><g
       transform="scale(0.1,0.1)"
       id="g12"><g
         id="g14"><g
           clip-path="url(#clipPath18)"
           id="g16"><path
             d="M 509.934,344.648 259.961,176.691 10.2656,344.043 509.934,344.648"
             id="path22"
             style="fill:#ed1c24;fill-opacity:1;fill-rule:nonzero;stroke:none" /><path
             d="M 509.934,8.75 259.961,176.691 10.2656,9.43359 509.934,8.75"
             id="path24"
             style="fill:#ed1c24;fill-opacity:1;fill-rule:nonzero;stroke:none" /><path
             d="m 501.504,336.215 c 0,-9.61 0,-38.235 0,-38.235 0,0 39.934,0 50.703,0 0,-13.121 0,-231.9722 0,-245.0777 -10.769,0 -50.703,0 -50.703,0 0,0 0,-28.5742 0,-38.1835 -14.094,0 -472.6837,0 -486.7813,0 0,13.7968 0,307.7152 0,321.4962 14.0976,0 472.6873,0 486.7813,0 z M 0,350.938 0,0 516.23,0 c 0,0 0,28.5742 0,38.1758 10.774,0 50.704,0 50.704,0 l 0,274.5232 c 0,0 -39.93,0 -50.704,0 0,9.61 0,38.239 0,38.239 l -516.23,0"
             id="path26"
             style="fill:#231f20;fill-opacity:1;fill-rule:nonzero;stroke:none" /><path
             d="M 7.36328,7.36328 508.867,343.574 m 0,-336.21072 L 7.36328,343.574"
             id="path28"
             style="fill:none;stroke:#231f20;stroke-width:7.27569008;stroke-linecap:butt;stroke-linejoin:miter;stroke-miterlimit:4;stroke-opacity:1;stroke-dasharray:none" /></g></g></g></g></svg>