<?xml version="1.0" encoding="UTF-8"?>
<svg width="96" height="33.763" version="1.1" xml:space="preserve" xmlns="http://www.w3.org/2000/svg"><defs><clipPath id="clipPath18"><path d="m0 0h368.51v270h-368.51z"/></clipPath></defs><g transform="matrix(1.25 0 0 -1.25 0 33.762)"><path transform="matrix(.8 0 0 -.8 0 27.01)" d="m1.3865 13.119h27.268l-11.092-11.862h11.4l14.943 15.56-15.56 15.56-10.476-0.30811 10.63-11.246-27.268-0.15406z" fill="#fff"/><g transform="scale(.1)"><g clip-path="url(#clipPath18)"><path d="m230.16 155.96h23.969s-71.488 71.488-94.297 94.313c25.105-0.016 60.644-0.036 66.199-0.036 5.242-5.3 102.42-103.63 114.48-115.84-12.129-12.128-109.25-109.29-114.48-114.53-5.527 0.0078-41.164 0.0312-66.277 0.039 22.801 22.801 94.351 94.356 94.351 94.356s-216.12 0.078-234.23 0.078c0.0039 11.266 0.0156 30.355 0.0195 41.621h210.27zm-101.34 97.227s54.551-54.551 77.371-77.364h-206.14l-0.054688-81.336s168.12-0.0586 206.17-0.0703c-22.805-22.812-94.336-94.344-94.336-94.344l122.43-0.070312 134.24 134.32-134.16 135.77-122.49 0.051 16.969-16.957" fill="#ed1c24"/></g></g></g></svg>
