<?xml version="1.0" encoding="UTF-8" standalone="no"?>
<svg
   xmlns:dc="http://purl.org/dc/elements/1.1/"
   xmlns:cc="http://creativecommons.org/ns#"
   xmlns:rdf="http://www.w3.org/1999/02/22-rdf-syntax-ns#"
   xmlns:svg="http://www.w3.org/2000/svg"
   xmlns="http://www.w3.org/2000/svg"
   xmlns:sodipodi="http://sodipodi.sourceforge.net/DTD/sodipodi-0.dtd"
   xmlns:inkscape="http://www.inkscape.org/namespaces/inkscape"
   width="33.763"
   height="96"
   version="1.1"
   xml:space="preserve"
   id="svg56"
   sodipodi:docname="47.svg"
   inkscape:version="0.92.5 (2060ec1f9f, 2020-04-08)"><metadata
     id="metadata60"><rdf:RDF><cc:Work
         rdf:about=""><dc:format>image/svg+xml</dc:format><dc:type
           rdf:resource="http://purl.org/dc/dcmitype/StillImage" /><dc:title></dc:title></cc:Work></rdf:RDF></metadata><sodipodi:namedview
     pagecolor="#ffffff"
     bordercolor="#666666"
     borderopacity="1"
     objecttolerance="10"
     gridtolerance="10"
     guidetolerance="10"
     inkscape:pageopacity="0"
     inkscape:pageshadow="2"
     inkscape:window-width="1920"
     inkscape:window-height="1017"
     id="namedview58"
     showgrid="false"
     inkscape:zoom="8.58"
     inkscape:cx="48"
     inkscape:cy="40.191524"
     inkscape:window-x="-8"
     inkscape:window-y="-8"
     inkscape:window-maximized="1"
     inkscape:current-layer="svg56" /><defs
     id="defs44"><clipPath
       id="clipPath18"><path
         d="M 0,0 H 368.51 V 270 H 0 Z"
         id="path41"
         inkscape:connector-curvature="0" /></clipPath></defs><g
     transform="matrix(0,-1.25,-1.25,0,33.971094,96.201874)"
     id="g54"><path
       transform="matrix(0.8,0,0,-0.8,0,27.01)"
       d="m 1.3865,13.119 h 27.268 L 17.5625,1.257 h 11.4 l 14.943,15.56 -15.56,15.56 -10.476,-0.30811 10.63,-11.246 -27.268,-0.15406 z"
       id="path46"
       inkscape:connector-curvature="0"
       style="fill:#ffffff" /><g
       transform="scale(0.1)"
       id="g52"><g
         clip-path="url(#clipPath18)"
         id="g50"><path
           d="m 230.16,155.96 h 23.969 c 0,0 -71.488,71.488 -94.297,94.313 25.105,-0.016 60.644,-0.036 66.199,-0.036 5.242,-5.3 102.42,-103.63 114.48,-115.84 -12.129,-12.128 -109.25,-109.29 -114.48,-114.53 -5.527,0.0078 -41.164,0.0312 -66.277,0.039 22.801,22.801 94.351,94.356 94.351,94.356 0,0 -216.12,0.078 -234.23,0.078 0.0039,11.266 0.0156,30.355 0.0195,41.621 h 210.27 z m -101.34,97.227 c 0,0 54.551,-54.551 77.371,-77.364 H 0.051 L -0.003688,94.487 c 0,0 168.119998,-0.0586 206.169998,-0.0703 -22.805,-22.812 -94.336,-94.344 -94.336,-94.344 l 122.43,-0.070312 134.24,134.320002 -134.16,135.77 -122.49,0.051 16.969,-16.957"
           id="path48"
           inkscape:connector-curvature="0"
           style="fill:#ed1c24" /></g></g></g></svg>