<svg id="svg" version="1.1" width="400" height="384.3137254901961" viewBox="0 0 400 384.3137254901961" xmlns="http://www.w3.org/2000/svg" xmlns:xlink="http://www.w3.org/1999/xlink" ><g id="svgg"><path id="path0" d="M186.232 166.250 L 186.346 168.654 225.769 168.654 L 265.192 168.654 265.307 166.250 L 265.421 163.846 225.769 163.846 L 186.117 163.846 186.232 166.250 M186.387 174.070 C 186.100 174.820,186.087 181.827,186.371 182.885 C 186.576 183.648,186.864 183.653,225.885 183.562 L 265.192 183.470 265.300 178.466 L 265.407 173.462 226.014 173.462 C 190.447 173.462,186.598 173.521,186.387 174.070 M186.387 189.070 C 186.259 189.405,186.154 213.981,186.154 243.685 L 186.154 297.692 166.251 297.692 L 146.348 297.692 186.102 337.449 L 225.857 377.205 265.439 337.545 L 305.021 297.885 285.203 297.785 L 265.385 297.685 265.385 243.073 L 265.385 188.462 226.003 188.462 C 190.446 188.462,186.598 188.521,186.387 189.070 " stroke="none" fill="#0d0d0d" fill-rule="evenodd"></path><path id="path1" d="M185.848 166.248 L 185.962 169.038 225.858 169.136 L 265.754 169.234 265.978 168.342 C 266.101 167.851,266.148 166.595,266.082 165.551 L 265.962 163.654 225.848 163.556 L 185.735 163.458 185.848 166.248 M265.307 166.250 L 265.192 168.654 225.769 168.654 L 186.346 168.654 186.232 166.250 L 186.117 163.846 225.769 163.846 L 265.421 163.846 265.307 166.250 M186.238 173.401 C 185.869 173.636,185.773 175.004,185.854 178.876 L 185.962 184.038 225.535 184.136 C 254.458 184.208,265.250 184.118,265.631 183.801 C 266.328 183.223,266.381 174.227,265.692 173.538 C 265.152 172.998,187.086 172.863,186.238 173.401 M265.300 178.466 L 265.192 183.470 225.885 183.562 C 186.864 183.653,186.576 183.648,186.371 182.885 C 186.087 181.827,186.100 174.820,186.387 174.070 C 186.598 173.521,190.447 173.462,226.014 173.462 L 265.407 173.462 265.300 178.466 M186.026 188.333 C 185.885 188.474,185.769 213.050,185.769 242.945 L 185.769 297.301 166.250 297.404 L 146.731 297.507 166.442 297.600 L 186.154 297.692 186.154 243.685 C 186.154 213.981,186.259 189.405,186.387 189.070 C 186.598 188.521,190.446 188.462,226.003 188.462 L 265.385 188.462 265.385 243.073 L 265.385 297.685 285.203 297.785 L 305.021 297.885 265.439 337.545 L 225.857 377.205 186.118 337.464 C 164.262 315.607,146.316 297.786,146.240 297.862 C 146.164 297.939,164.038 315.964,185.960 337.918 L 225.819 377.834 265.653 338.001 C 289.334 314.319,305.378 297.993,305.220 297.738 C 305.030 297.430,299.435 297.308,285.554 297.308 L 266.154 297.308 266.154 243.154 C 266.154 201.547,266.047 188.893,265.692 188.538 C 265.189 188.035,186.527 187.832,186.026 188.333 " stroke="none" fill="#686868" fill-rule="evenodd"></path><path id="path2" d="M0.000 192.308 L 0.000 384.615 200.000 384.615 L 400.000 384.615 400.000 192.308 L 400.000 0.000 200.000 0.000 L 0.000 0.000 0.000 192.308 M82.308 190.002 L 82.308 373.465 44.712 373.367 L 7.115 373.269 7.017 190.385 C 6.963 89.798,7.001 7.284,7.101 7.019 C 7.245 6.639,15.140 6.538,44.796 6.538 L 82.308 6.538 82.308 190.002 M154.815 21.157 C 156.634 22.002,158.194 22.692,158.282 22.692 C 158.370 22.692,159.528 23.189,160.856 23.795 C 165.369 25.858,166.728 26.468,170.385 28.077 C 174.436 29.859,176.164 30.637,180.317 32.549 C 181.866 33.263,183.203 33.846,183.288 33.846 C 183.373 33.846,184.528 34.342,185.856 34.949 C 190.369 37.011,191.728 37.622,195.385 39.231 C 199.436 41.013,201.164 41.791,205.317 43.703 C 206.866 44.416,208.202 45.000,208.286 45.000 C 208.437 45.000,210.262 45.817,215.701 48.319 C 217.250 49.032,218.579 49.615,218.654 49.615 C 218.729 49.615,220.144 50.228,221.799 50.977 C 223.454 51.727,225.154 52.496,225.577 52.687 C 226.000 52.878,227.212 53.414,228.269 53.876 C 229.327 54.339,231.058 55.112,232.115 55.595 C 233.173 56.077,235.683 57.194,237.692 58.078 C 241.347 59.685,242.698 60.292,247.221 62.359 C 248.549 62.965,249.704 63.462,249.789 63.462 C 249.874 63.462,251.211 64.045,252.760 64.757 C 256.434 66.448,259.881 68.008,261.442 68.687 C 262.130 68.986,263.255 69.475,263.942 69.774 C 265.503 70.453,268.950 72.014,272.624 73.704 C 274.173 74.417,275.510 75.000,275.595 75.000 C 275.680 75.000,276.836 75.496,278.163 76.103 C 279.491 76.710,281.442 77.598,282.500 78.077 C 283.558 78.556,285.509 79.444,286.837 80.051 C 288.164 80.658,289.320 81.154,289.405 81.154 C 289.490 81.154,290.827 81.737,292.376 82.451 C 296.528 84.363,298.256 85.141,302.308 86.923 C 305.965 88.532,307.324 89.142,311.837 91.205 C 313.164 91.811,314.320 92.308,314.405 92.308 C 314.490 92.308,315.827 92.891,317.376 93.604 C 321.850 95.662,324.217 96.728,327.308 98.075 C 328.894 98.766,331.460 99.915,333.009 100.628 C 334.558 101.340,335.887 101.923,335.963 101.923 C 336.038 101.923,337.194 102.420,338.531 103.028 C 341.350 104.309,353.164 109.606,360.962 113.085 C 366.415 115.517,368.109 116.272,371.923 117.965 C 376.560 120.023,380.172 121.646,383.392 123.119 C 384.729 123.730,385.887 124.231,385.966 124.231 C 386.044 124.231,387.546 124.891,389.304 125.698 C 391.062 126.505,393.063 127.392,393.750 127.668 C 395.277 128.282,395.289 128.580,393.897 131.625 C 391.814 136.183,391.219 137.508,389.619 141.154 C 388.736 143.163,387.781 145.327,387.497 145.962 C 386.949 147.180,386.437 148.341,383.846 154.231 C 382.237 157.888,381.627 159.247,379.564 163.760 C 378.958 165.087,378.462 166.243,378.462 166.328 C 378.462 166.413,377.878 167.750,377.166 169.299 C 375.433 173.065,373.890 176.476,373.282 177.885 C 372.241 180.294,371.570 181.810,370.469 184.231 C 368.957 187.558,367.961 189.790,366.954 192.115 C 364.363 198.096,364.306 198.166,362.783 197.322 C 361.963 196.867,357.728 195.000,357.517 195.000 C 357.433 195.000,356.096 194.416,354.547 193.703 C 350.382 191.785,348.660 191.010,344.615 189.232 C 342.606 188.348,340.010 187.192,338.846 186.664 C 333.630 184.294,323.016 179.552,319.615 178.073 C 316.825 176.859,315.196 176.127,310.087 173.794 C 308.759 173.188,307.603 172.692,307.518 172.692 C 307.433 172.692,306.096 172.109,304.547 171.395 C 300.395 169.484,298.667 168.705,294.615 166.923 C 290.958 165.314,289.599 164.704,285.087 162.641 C 283.759 162.035,282.603 161.538,282.518 161.538 C 282.433 161.538,281.010 160.916,279.355 160.156 C 277.700 159.396,275.252 158.271,273.915 157.656 C 272.579 157.041,271.415 156.538,271.329 156.538 C 271.243 156.538,270.087 156.042,268.760 155.436 C 267.432 154.829,265.481 153.941,264.423 153.463 C 263.365 152.985,261.233 152.010,259.683 151.297 C 258.134 150.584,256.797 150.000,256.712 150.000 C 256.627 150.000,255.472 149.504,254.144 148.897 C 249.631 146.835,248.272 146.224,244.615 144.615 C 242.606 143.731,240.269 142.695,239.423 142.311 C 238.577 141.928,236.067 140.809,233.846 139.824 C 228.784 137.579,228.181 137.307,224.491 135.613 C 222.836 134.853,221.421 134.231,221.346 134.231 C 221.271 134.231,219.856 133.618,218.201 132.869 C 216.546 132.120,214.846 131.350,214.423 131.159 C 214.000 130.968,212.788 130.433,211.731 129.970 C 210.673 129.507,208.722 128.633,207.394 128.026 C 206.067 127.419,204.911 126.923,204.826 126.923 C 204.741 126.923,203.404 126.339,201.855 125.626 C 200.306 124.913,198.173 123.938,197.115 123.460 C 196.058 122.982,194.106 122.094,192.779 121.488 C 191.451 120.881,190.296 120.385,190.211 120.385 C 190.126 120.385,188.789 119.801,187.240 119.089 C 183.473 117.356,180.063 115.813,178.654 115.205 C 175.532 113.857,174.235 113.276,167.585 110.244 C 166.362 109.687,165.293 109.231,165.209 109.231 C 165.125 109.231,163.789 108.647,162.240 107.934 C 160.691 107.221,158.558 106.246,157.500 105.768 C 156.442 105.289,154.491 104.402,153.163 103.795 C 151.836 103.189,150.680 102.692,150.594 102.692 C 150.508 102.692,149.344 102.189,148.008 101.575 C 146.671 100.960,144.223 99.835,142.568 99.075 C 140.913 98.314,139.490 97.692,139.406 97.692 C 139.322 97.692,138.340 97.276,137.223 96.767 C 136.106 96.259,132.423 94.605,129.038 93.093 C 125.654 91.581,122.053 89.972,121.036 89.517 C 118.877 88.551,118.877 88.586,120.998 83.969 C 121.757 82.315,122.623 80.399,122.920 79.712 C 124.214 76.724,124.607 75.833,125.594 73.654 C 126.169 72.385,127.222 70.079,127.935 68.530 C 128.648 66.981,129.231 65.644,129.231 65.560 C 129.231 65.476,129.687 64.407,130.244 63.184 C 132.565 58.093,133.556 55.898,134.026 54.808 C 134.299 54.173,134.976 52.654,135.531 51.432 C 136.085 50.210,136.538 49.131,136.538 49.035 C 136.538 48.939,137.205 47.430,138.019 45.681 C 140.247 40.896,141.154 38.873,141.154 38.686 C 141.154 38.594,141.776 37.164,142.536 35.509 C 143.296 33.854,144.150 31.981,144.435 31.346 C 145.523 28.923,148.737 21.675,149.260 20.465 C 149.917 18.947,150.102 18.970,154.815 21.157 M266.082 165.551 C 266.148 166.595,266.101 167.851,265.978 168.342 L 265.754 169.234 225.858 169.136 L 185.962 169.038 185.848 166.248 L 185.735 163.458 225.848 163.556 L 265.962 163.654 266.082 165.551 M265.692 173.538 C 266.381 174.227,266.328 183.223,265.631 183.801 C 265.250 184.118,254.458 184.208,225.535 184.136 L 185.962 184.038 185.854 178.876 C 185.773 175.004,185.869 173.636,186.238 173.401 C 187.086 172.863,265.152 172.998,265.692 173.538 M265.692 188.538 C 266.047 188.893,266.154 201.547,266.154 243.154 L 266.154 297.308 285.554 297.308 C 299.435 297.308,305.030 297.430,305.220 297.738 C 305.378 297.993,289.334 314.319,265.653 338.001 L 225.819 377.834 185.948 337.906 C 156.845 308.760,146.218 297.888,146.596 297.648 C 146.882 297.467,155.813 297.317,166.442 297.314 L 185.769 297.308 185.769 242.949 C 185.769 213.051,185.885 188.474,186.026 188.333 C 186.527 187.832,265.189 188.035,265.692 188.538 " stroke="none" fill="#ffffff" fill-rule="evenodd"></path><path id="path3" d="M7.403 190.096 L 7.500 373.269 44.712 373.367 L 81.923 373.465 81.923 190.194 L 81.923 6.923 44.615 6.923 L 7.307 6.923 7.403 190.096 M149.923 20.484 C 149.623 20.958,149.067 22.038,148.689 22.885 C 147.535 25.464,146.486 27.844,146.146 28.654 C 145.968 29.077,145.318 30.548,144.700 31.923 C 144.083 33.298,143.275 35.115,142.904 35.962 C 141.660 38.807,140.703 40.952,139.986 42.500 C 139.595 43.346,138.896 44.904,138.433 45.962 C 137.969 47.019,137.094 48.971,136.488 50.298 C 135.881 51.626,135.385 52.781,135.385 52.866 C 135.385 52.951,134.763 54.375,134.002 56.030 C 133.242 57.684,132.117 60.132,131.502 61.469 C 130.888 62.806,130.385 63.970,130.385 64.056 C 130.385 64.141,129.888 65.298,129.282 66.625 C 128.675 67.952,127.787 69.904,127.308 70.962 C 126.829 72.019,125.940 73.971,125.334 75.298 C 124.727 76.626,124.231 77.782,124.231 77.867 C 124.231 78.042,122.355 82.225,120.930 85.231 C 119.977 87.240,119.722 88.846,120.357 88.846 C 120.553 88.846,122.025 89.452,123.627 90.192 C 125.230 90.933,126.615 91.538,126.704 91.538 C 126.794 91.538,128.221 92.161,129.876 92.921 C 131.531 93.681,133.978 94.806,135.315 95.421 C 136.652 96.036,137.816 96.538,137.902 96.538 C 137.988 96.538,139.144 97.035,140.471 97.641 C 141.799 98.248,143.750 99.136,144.808 99.615 C 145.865 100.094,147.817 100.983,149.144 101.589 C 150.472 102.196,151.666 102.692,151.798 102.692 C 151.930 102.692,152.921 103.110,154.000 103.621 C 156.780 104.938,161.491 107.100,163.077 107.787 C 169.064 110.381,172.385 111.867,176.961 113.997 C 178.146 114.549,179.223 115.000,179.354 115.000 C 179.486 115.000,181.248 115.783,183.270 116.741 C 185.292 117.699,187.805 118.820,188.853 119.233 C 189.901 119.647,192.016 120.567,193.552 121.280 C 195.089 121.992,196.952 122.846,197.692 123.177 C 198.433 123.509,199.990 124.208,201.154 124.731 C 202.317 125.255,204.135 126.059,205.192 126.517 C 206.250 126.976,207.808 127.678,208.654 128.076 C 211.116 129.236,214.623 130.769,214.812 130.769 C 214.962 130.769,217.687 132.010,223.269 134.620 C 225.733 135.771,229.240 137.308,229.406 137.308 C 229.568 137.308,234.001 139.324,237.940 141.189 C 239.239 141.804,240.403 142.308,240.526 142.308 C 240.649 142.308,241.836 142.804,243.163 143.411 C 244.491 144.017,246.442 144.906,247.500 145.385 C 248.558 145.864,250.509 146.752,251.837 147.359 C 253.164 147.965,254.320 148.462,254.405 148.462 C 254.490 148.462,255.827 149.045,257.376 149.757 C 262.489 152.110,265.373 153.405,268.654 154.820 C 269.288 155.093,270.933 155.829,272.308 156.454 C 273.683 157.079,275.673 157.974,276.731 158.444 C 277.788 158.913,279.346 159.605,280.192 159.982 C 281.038 160.359,282.337 160.935,283.077 161.262 C 283.817 161.588,285.635 162.405,287.115 163.077 C 288.596 163.749,290.413 164.561,291.154 164.883 C 293.504 165.904,294.743 166.455,297.308 167.621 C 298.683 168.246,300.673 169.134,301.731 169.593 C 302.788 170.053,304.433 170.787,305.385 171.225 C 306.337 171.662,307.462 172.157,307.885 172.325 C 308.778 172.678,311.648 173.976,315.854 175.929 C 317.488 176.687,318.925 177.308,319.049 177.308 C 319.276 177.308,320.574 177.879,325.769 180.265 C 327.356 180.994,329.000 181.734,329.423 181.910 C 330.944 182.541,332.928 183.414,335.385 184.531 C 336.760 185.156,338.750 186.057,339.808 186.533 C 340.865 187.009,342.412 187.724,343.245 188.122 C 344.078 188.520,344.987 188.846,345.265 188.846 C 345.542 188.846,345.769 189.019,345.769 189.231 C 345.769 189.442,346.016 189.615,346.318 189.615 C 346.620 189.615,348.134 190.199,349.683 190.912 C 351.233 191.626,353.365 192.592,354.423 193.061 C 358.072 194.677,359.431 195.285,361.660 196.302 C 363.758 197.258,364.615 197.329,364.615 196.544 C 364.615 196.360,365.221 194.899,365.962 193.296 C 366.702 191.693,367.308 190.308,367.308 190.219 C 367.308 190.129,367.891 188.789,368.605 187.240 C 370.560 182.993,371.363 181.190,372.428 178.654 C 372.961 177.385,374.191 174.652,375.160 172.581 C 376.130 170.511,376.923 168.738,376.923 168.642 C 376.923 168.466,379.467 162.725,381.574 158.146 C 382.189 156.809,382.692 155.645,382.692 155.560 C 382.692 155.474,383.188 154.318,383.794 152.990 C 385.748 148.711,386.977 145.991,387.533 144.712 C 387.832 144.024,388.321 142.899,388.620 142.212 C 388.919 141.524,389.675 139.837,390.300 138.462 C 390.925 137.087,391.821 135.096,392.290 134.038 C 392.759 132.981,393.474 131.412,393.879 130.552 C 394.766 128.667,394.782 128.462,394.038 128.462 C 393.721 128.462,393.462 128.288,393.462 128.077 C 393.462 127.865,393.200 127.692,392.879 127.692 C 392.559 127.692,391.997 127.528,391.629 127.327 C 391.262 127.126,389.750 126.422,388.269 125.761 C 386.788 125.100,384.798 124.209,383.846 123.780 C 382.894 123.352,381.596 122.782,380.962 122.513 C 380.327 122.245,379.029 121.666,378.077 121.227 C 377.125 120.788,375.481 120.053,374.423 119.595 C 373.365 119.137,371.464 118.261,370.198 117.650 C 368.932 117.039,367.776 116.538,367.630 116.538 C 367.484 116.538,366.010 115.917,364.355 115.157 C 357.509 112.015,356.311 111.470,355.577 111.166 C 353.424 110.275,350.140 108.807,344.683 106.296 C 343.134 105.583,341.797 105.000,341.712 105.000 C 341.627 105.000,340.472 104.504,339.144 103.898 C 333.248 101.206,331.329 100.346,328.269 99.026 C 327.635 98.753,325.990 98.018,324.615 97.393 C 317.400 94.116,316.668 93.788,313.654 92.488 C 312.562 92.017,310.346 91.016,305.277 88.706 C 304.054 88.148,302.985 87.692,302.900 87.692 C 302.742 87.692,299.304 86.155,295.192 84.247 C 293.010 83.234,290.760 82.239,289.038 81.526 C 288.020 81.105,283.283 78.977,281.346 78.071 C 280.500 77.675,279.029 77.015,278.077 76.604 C 276.195 75.792,273.888 74.760,270.000 72.992 C 268.625 72.367,266.981 71.635,266.346 71.364 C 263.692 70.234,259.193 68.218,255.851 66.663 C 253.886 65.748,252.203 65.000,252.110 65.000 C 252.018 65.000,250.770 64.466,249.337 63.813 C 247.903 63.159,246.212 62.395,245.577 62.113 C 244.942 61.831,243.298 61.094,241.923 60.474 C 240.548 59.854,238.774 59.113,237.981 58.827 C 237.188 58.541,236.538 58.169,236.538 58.000 C 236.538 57.831,236.276 57.692,235.956 57.692 C 235.636 57.692,235.074 57.528,234.706 57.327 C 234.339 57.126,232.827 56.422,231.346 55.761 C 229.865 55.100,227.875 54.209,226.923 53.780 C 225.971 53.352,224.673 52.782,224.038 52.513 C 223.404 52.245,222.106 51.667,221.154 51.228 C 219.145 50.302,214.290 48.155,210.962 46.719 C 209.083 45.908,204.597 43.863,202.060 42.659 C 200.761 42.043,199.597 41.538,199.474 41.538 C 199.351 41.538,198.164 41.042,196.837 40.436 C 195.509 39.829,193.558 38.941,192.500 38.462 C 191.442 37.982,189.491 37.094,188.163 36.488 C 186.836 35.881,185.680 35.385,185.595 35.385 C 185.510 35.385,184.173 34.801,182.624 34.089 C 177.511 31.736,174.627 30.441,171.346 29.026 C 170.712 28.753,169.067 28.017,167.692 27.392 C 166.317 26.767,164.327 25.872,163.269 25.402 C 162.212 24.933,160.654 24.241,159.808 23.864 C 158.962 23.487,157.663 22.911,156.923 22.584 C 154.448 21.491,150.964 19.908,150.715 19.764 C 150.580 19.686,150.223 20.010,149.923 20.484 " stroke="none" fill="#ff0000" fill-rule="evenodd"></path><path id="path4" d="M7.179 6.795 C 6.823 7.151,6.855 372.990,7.212 373.210 C 7.370 373.308,7.456 290.933,7.403 190.156 L 7.306 6.923 44.614 6.923 L 81.922 6.923 82.019 190.288 L 82.116 373.654 82.212 190.096 L 82.308 6.538 44.872 6.538 C 24.282 6.538,7.321 6.654,7.179 6.795 M149.260 20.465 C 148.737 21.675,145.523 28.923,144.435 31.346 C 144.150 31.981,143.296 33.854,142.536 35.509 C 141.776 37.164,141.154 38.586,141.154 38.671 C 141.154 38.755,140.709 39.797,140.164 40.986 C 139.620 42.176,139.259 43.234,139.362 43.337 C 139.465 43.440,139.847 42.861,140.210 42.050 C 141.006 40.277,141.993 38.046,142.904 35.962 C 143.275 35.115,144.083 33.298,144.700 31.923 C 145.318 30.548,145.968 29.077,146.146 28.654 C 147.762 24.806,150.039 20.020,150.337 19.844 C 150.469 19.766,151.702 20.217,153.077 20.846 C 154.452 21.475,156.183 22.257,156.923 22.584 C 157.663 22.911,158.962 23.487,159.808 23.864 C 160.654 24.241,162.212 24.933,163.269 25.402 C 164.327 25.872,166.317 26.767,167.692 27.392 C 170.113 28.493,171.629 29.165,174.038 30.205 C 175.447 30.813,178.858 32.356,182.624 34.089 C 184.173 34.801,185.510 35.385,185.595 35.385 C 185.680 35.385,186.836 35.881,188.163 36.488 C 189.491 37.094,191.442 37.982,192.500 38.462 C 193.558 38.941,195.462 39.805,196.731 40.383 C 199.437 41.614,201.138 42.175,200.577 41.650 C 200.365 41.452,198.462 40.543,196.346 39.630 C 192.756 38.081,191.418 37.484,185.662 34.860 C 184.439 34.302,183.370 33.846,183.286 33.846 C 183.202 33.846,181.866 33.263,180.317 32.549 C 176.164 30.637,174.436 29.859,170.385 28.077 C 166.728 26.468,165.369 25.858,160.856 23.795 C 159.528 23.189,158.370 22.692,158.282 22.692 C 158.194 22.692,156.634 22.002,154.815 21.157 C 150.102 18.970,149.917 18.947,149.260 20.465 M201.154 42.106 C 201.154 42.206,201.976 42.662,202.981 43.118 C 203.986 43.575,205.933 44.459,207.308 45.085 C 208.683 45.710,210.327 46.445,210.962 46.719 C 216.588 49.146,221.633 51.412,224.119 52.630 C 224.799 52.963,225.472 53.118,225.615 52.975 C 225.759 52.831,225.386 52.527,224.786 52.299 C 224.187 52.072,222.593 51.374,221.244 50.750 C 219.896 50.126,218.731 49.615,218.655 49.615 C 218.580 49.615,217.250 49.032,215.701 48.319 C 210.228 45.801,208.437 45.000,208.281 45.000 C 208.194 45.000,206.631 44.308,204.808 43.462 C 201.413 41.886,201.154 41.790,201.154 42.106 M137.723 46.340 C 137.072 47.748,136.538 48.970,136.538 49.055 C 136.538 49.140,136.085 50.210,135.531 51.432 C 134.976 52.654,134.299 54.173,134.026 54.808 C 133.556 55.898,132.565 58.093,130.244 63.184 C 129.687 64.407,129.231 65.476,129.231 65.560 C 129.231 65.644,128.648 66.981,127.935 68.530 C 126.202 72.296,124.659 75.706,124.051 77.115 C 122.834 79.935,122.294 81.148,120.998 83.969 C 118.877 88.586,118.877 88.551,121.036 89.517 C 122.053 89.972,125.654 91.581,129.038 93.093 C 132.423 94.605,136.106 96.259,137.223 96.767 C 138.340 97.276,139.322 97.692,139.406 97.692 C 139.490 97.692,140.913 98.314,142.568 99.075 C 144.223 99.835,146.671 100.960,148.008 101.575 C 149.344 102.189,150.508 102.692,150.594 102.692 C 150.680 102.692,151.836 103.189,153.163 103.795 C 154.491 104.402,156.442 105.289,157.500 105.768 C 158.558 106.246,160.691 107.221,162.240 107.934 C 163.789 108.647,165.126 109.231,165.211 109.231 C 165.296 109.231,166.451 109.727,167.779 110.333 C 172.058 112.287,174.778 113.515,176.058 114.072 C 176.745 114.371,177.870 114.860,178.558 115.159 C 180.119 115.838,183.566 117.398,187.240 119.089 C 188.789 119.801,190.126 120.385,190.211 120.385 C 190.296 120.385,191.451 120.881,192.779 121.488 C 194.106 122.094,196.058 122.982,197.115 123.460 C 198.173 123.938,200.306 124.913,201.855 125.626 C 203.404 126.339,204.741 126.923,204.826 126.923 C 204.911 126.923,206.067 127.419,207.394 128.026 C 208.722 128.633,210.673 129.510,211.731 129.977 C 212.788 130.443,214.173 131.054,214.808 131.333 C 215.442 131.613,216.740 132.190,217.692 132.616 C 222.829 134.913,223.979 135.380,224.129 135.230 C 224.219 135.140,223.630 134.765,222.820 134.398 C 222.009 134.030,219.915 133.063,218.166 132.249 C 216.416 131.435,214.907 130.769,214.812 130.769 C 214.623 130.769,211.116 129.236,208.654 128.076 C 207.808 127.678,206.250 126.976,205.192 126.517 C 204.135 126.059,202.317 125.255,201.154 124.731 C 199.990 124.208,198.433 123.509,197.692 123.177 C 196.952 122.846,195.089 121.992,193.552 121.280 C 192.016 120.567,189.901 119.647,188.853 119.233 C 187.805 118.820,185.292 117.699,183.270 116.741 C 181.248 115.783,179.486 115.000,179.354 115.000 C 179.223 115.000,178.146 114.549,176.961 113.997 C 172.784 112.053,170.240 110.908,165.865 109.005 C 162.329 107.467,161.508 107.101,158.846 105.877 C 157.260 105.147,155.079 104.132,154.000 103.621 C 152.921 103.110,151.930 102.692,151.798 102.692 C 151.666 102.692,150.472 102.196,149.144 101.589 C 147.817 100.983,145.865 100.094,144.808 99.615 C 143.750 99.136,141.799 98.248,140.471 97.641 C 139.144 97.035,137.988 96.538,137.903 96.538 C 137.818 96.538,136.394 95.916,134.740 95.156 C 133.085 94.396,130.637 93.271,129.300 92.656 C 127.963 92.041,126.796 91.538,126.706 91.538 C 126.615 91.538,125.230 90.933,123.627 90.192 C 122.025 89.452,120.553 88.846,120.357 88.846 C 119.722 88.846,119.977 87.240,120.930 85.231 C 122.355 82.225,124.231 78.042,124.231 77.867 C 124.231 77.782,124.727 76.626,125.334 75.298 C 125.940 73.971,126.829 72.019,127.308 70.962 C 127.787 69.904,128.675 67.952,129.282 66.625 C 129.888 65.298,130.385 64.142,130.385 64.057 C 130.385 63.972,131.007 62.548,131.767 60.893 C 132.527 59.239,133.652 56.791,134.267 55.454 C 134.882 54.117,135.385 52.953,135.385 52.867 C 135.385 52.782,135.881 51.626,136.488 50.298 C 137.094 48.971,137.972 47.046,138.437 46.020 C 138.903 44.995,139.200 44.071,139.096 43.968 C 138.993 43.865,138.375 44.932,137.723 46.340 M226.154 53.251 C 226.154 53.424,226.712 53.693,231.538 55.847 C 232.913 56.460,234.339 57.126,234.706 57.327 C 235.074 57.528,235.636 57.692,235.956 57.692 C 236.276 57.692,236.538 57.831,236.538 58.000 C 236.538 58.169,237.188 58.541,237.981 58.827 C 238.774 59.113,240.548 59.854,241.923 60.474 C 243.298 61.094,244.942 61.831,245.577 62.113 C 246.212 62.395,247.903 63.159,249.337 63.813 C 250.770 64.466,252.018 65.000,252.110 65.000 C 252.203 65.000,253.886 65.748,255.851 66.663 C 259.193 68.218,263.692 70.234,266.346 71.364 C 266.981 71.635,268.625 72.367,270.000 72.992 C 273.635 74.645,275.713 75.574,277.885 76.517 C 278.942 76.976,280.500 77.675,281.346 78.071 C 283.283 78.977,288.020 81.105,289.038 81.526 C 290.760 82.239,293.010 83.234,295.192 84.247 C 299.319 86.162,302.743 87.692,302.902 87.692 C 302.988 87.692,304.144 88.188,305.471 88.794 C 309.750 90.748,312.471 91.977,313.750 92.533 C 314.437 92.832,315.562 93.321,316.250 93.620 C 316.938 93.919,318.625 94.675,320.000 95.299 C 327.215 98.577,327.947 98.904,330.962 100.204 C 332.053 100.675,334.270 101.676,339.338 103.987 C 340.561 104.544,341.630 105.000,341.714 105.000 C 341.798 105.000,343.134 105.583,344.683 106.296 C 350.140 108.807,353.424 110.275,355.577 111.166 C 356.312 111.470,357.529 112.024,364.384 115.170 C 366.054 115.937,367.612 116.493,367.845 116.405 C 368.078 116.317,367.750 116.041,367.115 115.792 C 366.481 115.542,363.625 114.291,360.769 113.010 C 357.913 111.730,352.288 109.209,348.269 107.408 C 344.250 105.607,339.868 103.636,338.531 103.028 C 337.194 102.420,336.038 101.923,335.963 101.923 C 335.887 101.923,334.558 101.340,333.009 100.628 C 331.460 99.915,328.894 98.766,327.308 98.075 C 324.217 96.728,321.850 95.662,317.376 93.604 C 315.827 92.891,314.490 92.308,314.405 92.308 C 314.320 92.308,313.164 91.811,311.837 91.205 C 307.324 89.142,305.965 88.532,302.308 86.923 C 298.256 85.141,296.528 84.363,292.376 82.451 C 290.827 81.737,289.490 81.154,289.405 81.154 C 289.320 81.154,288.164 80.658,286.837 80.051 C 285.509 79.444,283.558 78.556,282.500 78.077 C 281.442 77.598,279.491 76.710,278.163 76.103 C 276.836 75.496,275.680 75.000,275.595 75.000 C 275.510 75.000,274.173 74.417,272.624 73.704 C 268.858 71.971,265.447 70.428,264.038 69.820 C 260.713 68.384,257.863 67.105,252.760 64.757 C 251.211 64.045,249.874 63.462,249.789 63.462 C 249.704 63.462,248.549 62.965,247.221 62.359 C 242.698 60.292,241.347 59.685,237.692 58.078 C 235.683 57.194,233.173 56.077,232.115 55.595 C 226.047 52.829,226.154 52.871,226.154 53.251 M368.462 116.721 C 368.462 116.898,369.816 117.550,374.231 119.497 C 376.831 120.644,379.408 121.829,381.043 122.630 C 381.722 122.963,382.395 123.118,382.538 122.975 C 382.682 122.831,382.332 122.536,381.761 122.319 C 381.191 122.102,379.739 121.477,378.535 120.929 C 377.331 120.382,375.827 119.703,375.192 119.421 C 374.558 119.139,372.858 118.375,371.415 117.723 C 368.697 116.495,368.462 116.415,368.462 116.721 M383.077 123.251 C 383.077 123.424,383.635 123.693,388.462 125.847 C 389.837 126.460,391.262 127.126,391.629 127.327 C 391.997 127.528,392.559 127.692,392.879 127.692 C 393.200 127.692,393.462 127.865,393.462 128.077 C 393.462 128.288,393.721 128.462,394.038 128.462 C 394.782 128.462,394.766 128.667,393.879 130.552 C 393.474 131.412,392.759 132.981,392.290 134.038 C 391.821 135.096,390.925 137.087,390.300 138.462 C 389.675 139.837,388.919 141.524,388.620 142.212 C 388.321 142.899,387.832 144.024,387.534 144.712 C 387.018 145.899,385.974 148.208,383.706 153.184 C 383.148 154.407,382.692 155.477,382.692 155.561 C 382.692 155.646,382.189 156.809,381.574 158.146 C 379.467 162.725,376.923 168.466,376.923 168.642 C 376.923 168.738,376.130 170.511,375.160 172.581 C 374.191 174.652,372.961 177.385,372.428 178.654 C 371.363 181.190,370.560 182.993,368.605 187.240 C 367.891 188.789,367.308 190.129,367.308 190.219 C 367.308 190.308,366.702 191.693,365.962 193.296 C 365.221 194.899,364.615 196.360,364.615 196.544 C 364.615 197.329,363.758 197.258,361.660 196.302 C 359.431 195.285,358.072 194.677,354.423 193.061 C 353.365 192.592,351.233 191.626,349.683 190.912 C 348.134 190.199,346.620 189.615,346.318 189.615 C 346.016 189.615,345.769 189.442,345.769 189.231 C 345.769 189.019,345.542 188.846,345.265 188.846 C 344.987 188.846,344.078 188.520,343.245 188.122 C 342.412 187.724,340.865 187.009,339.808 186.533 C 338.750 186.057,336.760 185.156,335.385 184.531 C 332.928 183.414,330.944 182.541,329.423 181.910 C 329.000 181.734,327.356 180.994,325.769 180.265 C 320.574 177.879,319.276 177.308,319.049 177.308 C 318.925 177.308,317.488 176.687,315.854 175.929 C 311.648 173.976,308.778 172.678,307.885 172.325 C 307.462 172.157,306.337 171.662,305.385 171.225 C 304.433 170.787,302.788 170.053,301.731 169.593 C 300.673 169.134,298.683 168.246,297.308 167.621 C 294.743 166.455,293.504 165.904,291.154 164.883 C 290.413 164.561,288.596 163.749,287.115 163.077 C 285.635 162.405,283.817 161.588,283.077 161.262 C 282.337 160.935,281.038 160.359,280.192 159.982 C 279.346 159.605,277.788 158.913,276.731 158.444 C 275.673 157.974,273.683 157.079,272.308 156.454 C 270.933 155.829,269.245 155.073,268.558 154.774 C 267.870 154.475,266.745 153.986,266.058 153.687 C 264.497 153.008,261.050 151.448,257.376 149.757 C 255.827 149.045,254.490 148.462,254.405 148.462 C 254.320 148.462,253.164 147.965,251.837 147.359 C 250.509 146.752,248.558 145.864,247.500 145.385 C 246.442 144.906,244.538 144.041,243.269 143.463 C 240.563 142.232,238.862 141.671,239.423 142.196 C 239.635 142.394,241.538 143.303,243.654 144.216 C 247.352 145.812,248.870 146.490,254.144 148.898 C 255.472 149.504,256.627 150.000,256.712 150.000 C 256.797 150.000,258.134 150.584,259.683 151.297 C 261.233 152.010,263.365 152.985,264.423 153.463 C 265.481 153.941,267.432 154.829,268.760 155.436 C 270.087 156.042,271.243 156.538,271.328 156.538 C 271.413 156.538,272.836 157.161,274.491 157.921 C 276.146 158.681,278.594 159.806,279.931 160.421 C 281.268 161.036,282.431 161.538,282.517 161.538 C 282.603 161.538,283.759 162.035,285.087 162.641 C 289.599 164.704,290.958 165.314,294.615 166.923 C 298.667 168.705,300.395 169.484,304.547 171.395 C 306.096 172.109,307.433 172.692,307.518 172.692 C 307.603 172.692,308.759 173.188,310.087 173.794 C 315.196 176.127,316.825 176.859,319.615 178.073 C 323.016 179.552,333.630 184.294,338.846 186.664 C 340.010 187.192,342.606 188.348,344.615 189.232 C 348.660 191.010,350.382 191.785,354.547 193.703 C 356.096 194.416,357.433 195.000,357.517 195.000 C 357.728 195.000,361.963 196.867,362.783 197.322 C 364.306 198.166,364.363 198.096,366.954 192.115 C 367.961 189.790,368.957 187.558,370.469 184.231 C 371.094 182.856,371.850 181.168,372.149 180.481 C 372.448 179.793,372.937 178.668,373.236 177.981 C 373.915 176.420,375.475 172.973,377.166 169.299 C 377.878 167.750,378.462 166.413,378.462 166.328 C 378.462 166.243,378.958 165.087,379.564 163.760 C 381.647 159.202,382.242 157.877,383.843 154.231 C 384.725 152.221,385.680 150.058,385.965 149.423 C 386.512 148.204,387.024 147.044,389.615 141.154 C 391.224 137.497,391.835 136.138,393.897 131.625 C 395.311 128.531,395.290 128.277,393.558 127.582 C 392.764 127.264,391.163 126.569,390.000 126.037 C 384.085 123.334,383.077 122.929,383.077 123.251 M224.808 135.769 C 224.938 135.981,225.204 136.154,225.397 136.154 C 225.590 136.154,226.662 136.576,227.778 137.093 C 233.830 139.892,238.592 141.921,238.746 141.767 C 238.842 141.670,238.082 141.211,237.057 140.747 C 236.031 140.282,233.925 139.318,232.376 138.605 C 230.827 137.891,229.490 137.308,229.406 137.308 C 229.322 137.308,228.308 136.875,227.151 136.346 C 224.842 135.290,224.452 135.194,224.808 135.769 " stroke="none" fill="#ff5c5c" fill-rule="evenodd"></path></g></svg>