<?xml version="1.0" encoding="UTF-8" standalone="no"?>
<svg
   xmlns:dc="http://purl.org/dc/elements/1.1/"
   xmlns:cc="http://creativecommons.org/ns#"
   xmlns:rdf="http://www.w3.org/1999/02/22-rdf-syntax-ns#"
   xmlns:svg="http://www.w3.org/2000/svg"
   xmlns="http://www.w3.org/2000/svg"
   xmlns:sodipodi="http://sodipodi.sourceforge.net/DTD/sodipodi-0.dtd"
   xmlns:inkscape="http://www.inkscape.org/namespaces/inkscape"
   id="svg"
   version="1.1"
   width="125"
   height="125"
   viewBox="0 0 125 125"
   sodipodi:docname="afglijconstructie.svg"
   inkscape:version="0.92.5 (2060ec1f9f, 2020-04-08)">
  <metadata
     id="metadata11541">
    <rdf:RDF>
      <cc:Work
         rdf:about="">
        <dc:format>image/svg+xml</dc:format>
        <dc:type
           rdf:resource="http://purl.org/dc/dcmitype/StillImage" />
        <dc:title></dc:title>
      </cc:Work>
    </rdf:RDF>
  </metadata>
  <defs
     id="defs11539" />
  <sodipodi:namedview
     pagecolor="#ffffff"
     bordercolor="#666666"
     borderopacity="1"
     objecttolerance="10"
     gridtolerance="10"
     guidetolerance="10"
     inkscape:pageopacity="0"
     inkscape:pageshadow="2"
     inkscape:window-width="1920"
     inkscape:window-height="1017"
     id="namedview11537"
     showgrid="false"
     inkscape:zoom="0.61408164"
     inkscape:cx="200"
     inkscape:cy="192.15686"
     inkscape:window-x="-8"
     inkscape:window-y="-8"
     inkscape:window-maximized="1"
     inkscape:current-layer="svg" />
  <g
     id="svgg"
     transform="matrix(0.1625,0,0,0.1625,30,31.250031)">
    <path
       id="path0"
       d="m 186.232,166.25 0.114,2.404 h 39.423 39.423 l 0.115,-2.404 0.114,-2.404 h -39.652 -39.652 l 0.115,2.404 m 0.155,7.82 c -0.287,0.75 -0.3,7.757 -0.016,8.815 0.205,0.763 0.493,0.768 39.514,0.677 l 39.307,-0.092 0.108,-5.004 0.107,-5.004 h -39.393 c -35.567,0 -39.416,0.059 -39.627,0.608 m 0,15 c -0.128,0.335 -0.233,24.911 -0.233,54.615 v 54.007 h -19.903 -19.903 l 39.754,39.757 39.755,39.756 39.582,-39.66 39.582,-39.66 -19.818,-0.1 -19.818,-0.1 v -54.612 -54.611 h -39.382 c -35.557,0 -39.405,0.059 -39.616,0.608"
       inkscape:connector-curvature="0"
       style="fill:#0d0d0d;fill-rule:evenodd;stroke:none" />
    <path
       id="path1"
       d="m 185.848,166.248 0.114,2.79 39.896,0.098 39.896,0.098 0.224,-0.892 c 0.123,-0.491 0.17,-1.747 0.104,-2.791 l -0.12,-1.897 -40.114,-0.098 -40.113,-0.098 0.113,2.79 m 79.459,0.002 -0.115,2.404 h -39.423 -39.423 l -0.114,-2.404 -0.115,-2.404 h 39.652 39.652 l -0.114,2.404 m -79.069,7.151 c -0.369,0.235 -0.465,1.603 -0.384,5.475 l 0.108,5.162 39.573,0.098 c 28.923,0.072 39.715,-0.018 40.096,-0.335 0.697,-0.578 0.75,-9.574 0.061,-10.263 -0.54,-0.54 -78.606,-0.675 -79.454,-0.137 m 79.062,5.065 -0.108,5.004 -39.307,0.092 c -39.021,0.091 -39.309,0.086 -39.514,-0.677 -0.284,-1.058 -0.271,-8.065 0.016,-8.815 0.211,-0.549 4.06,-0.608 39.627,-0.608 h 39.393 l -0.107,5.004 m -79.274,9.867 c -0.141,0.141 -0.257,24.717 -0.257,54.612 v 54.356 l -19.519,0.103 -19.519,0.103 19.711,0.093 19.712,0.092 v -54.007 c 0,-29.704 0.105,-54.28 0.233,-54.615 0.211,-0.549 4.059,-0.608 39.616,-0.608 h 39.382 v 54.611 54.612 l 19.818,0.1 19.818,0.1 -39.582,39.66 -39.582,39.66 -39.739,-39.741 c -21.856,-21.857 -39.802,-39.678 -39.878,-39.602 -0.076,0.077 17.798,18.102 39.72,40.056 l 39.859,39.916 39.834,-39.833 c 23.681,-23.682 39.725,-40.008 39.567,-40.263 -0.19,-0.308 -5.785,-0.43 -19.666,-0.43 h -19.4 v -54.154 c 0,-41.607 -0.107,-54.261 -0.462,-54.616 -0.503,-0.503 -79.165,-0.706 -79.666,-0.205"
       inkscape:connector-curvature="0"
       style="fill:#686868;fill-rule:evenodd;stroke:none" />
    <path
       id="path2"
       d="M 0,192.308 V 384.615 H 200 400 V 192.308 0 H 200 0 v 192.308 m 82.308,-2.306 V 373.465 L 44.712,373.367 7.115,373.269 7.017,190.385 C 6.963,89.798 7.001,7.284 7.101,7.019 7.245,6.639 15.14,6.538 44.796,6.538 H 82.308 V 190.002 M 154.815,21.157 c 1.819,0.845 3.379,1.535 3.467,1.535 0.088,0 1.246,0.497 2.574,1.103 4.513,2.063 5.872,2.673 9.529,4.282 4.051,1.782 5.779,2.56 9.932,4.472 1.549,0.714 2.886,1.297 2.971,1.297 0.085,0 1.24,0.496 2.568,1.103 4.513,2.062 5.872,2.673 9.529,4.282 4.051,1.782 5.779,2.56 9.932,4.472 1.549,0.713 2.885,1.297 2.969,1.297 0.151,0 1.976,0.817 7.415,3.319 1.549,0.713 2.878,1.296 2.953,1.296 0.075,0 1.49,0.613 3.145,1.362 1.655,0.75 3.355,1.519 3.778,1.71 0.423,0.191 1.635,0.727 2.692,1.189 1.058,0.463 2.789,1.236 3.846,1.719 1.058,0.482 3.568,1.599 5.577,2.483 3.655,1.607 5.006,2.214 9.529,4.281 1.328,0.606 2.483,1.103 2.568,1.103 0.085,0 1.422,0.583 2.971,1.295 3.674,1.691 7.121,3.251 8.682,3.93 0.688,0.299 1.813,0.788 2.5,1.087 1.561,0.679 5.008,2.24 8.682,3.93 1.549,0.713 2.886,1.296 2.971,1.296 0.085,0 1.241,0.496 2.568,1.103 1.328,0.607 3.279,1.495 4.337,1.974 1.058,0.479 3.009,1.367 4.337,1.974 1.327,0.607 2.483,1.103 2.568,1.103 0.085,0 1.422,0.583 2.971,1.297 4.152,1.912 5.88,2.69 9.932,4.472 3.657,1.609 5.016,2.219 9.529,4.282 1.327,0.606 2.483,1.103 2.568,1.103 0.085,0 1.422,0.583 2.971,1.296 4.474,2.058 6.841,3.124 9.932,4.471 1.586,0.691 4.152,1.84 5.701,2.553 1.549,0.712 2.878,1.295 2.954,1.295 0.075,0 1.231,0.497 2.568,1.105 2.819,1.281 14.633,6.578 22.431,10.057 5.453,2.432 7.147,3.187 10.961,4.88 4.637,2.058 8.249,3.681 11.469,5.154 1.337,0.611 2.495,1.112 2.574,1.112 0.078,0 1.58,0.66 3.338,1.467 1.758,0.807 3.759,1.694 4.446,1.97 1.527,0.614 1.539,0.912 0.147,3.957 -2.083,4.558 -2.678,5.883 -4.278,9.529 -0.883,2.009 -1.838,4.173 -2.122,4.808 -0.548,1.218 -1.06,2.379 -3.651,8.269 -1.609,3.657 -2.219,5.016 -4.282,9.529 -0.606,1.327 -1.102,2.483 -1.102,2.568 0,0.085 -0.584,1.422 -1.296,2.971 -1.733,3.766 -3.276,7.177 -3.884,8.586 -1.041,2.409 -1.712,3.925 -2.813,6.346 -1.512,3.327 -2.508,5.559 -3.515,7.884 -2.591,5.981 -2.648,6.051 -4.171,5.207 -0.82,-0.455 -5.055,-2.322 -5.266,-2.322 -0.084,0 -1.421,-0.584 -2.97,-1.297 -4.165,-1.918 -5.887,-2.693 -9.932,-4.471 -2.009,-0.884 -4.605,-2.04 -5.769,-2.568 -5.216,-2.37 -15.83,-7.112 -19.231,-8.591 -2.79,-1.214 -4.419,-1.946 -9.528,-4.279 -1.328,-0.606 -2.484,-1.102 -2.569,-1.102 -0.085,0 -1.422,-0.583 -2.971,-1.297 -4.152,-1.911 -5.88,-2.69 -9.932,-4.472 -3.657,-1.609 -5.016,-2.219 -9.528,-4.282 -1.328,-0.606 -2.484,-1.103 -2.569,-1.103 -0.085,0 -1.508,-0.622 -3.163,-1.382 -1.655,-0.76 -4.103,-1.885 -5.44,-2.5 -1.336,-0.615 -2.5,-1.118 -2.586,-1.118 -0.086,0 -1.242,-0.496 -2.569,-1.102 -1.328,-0.607 -3.279,-1.495 -4.337,-1.973 -1.058,-0.478 -3.19,-1.453 -4.74,-2.166 -1.549,-0.713 -2.886,-1.297 -2.971,-1.297 -0.085,0 -1.24,-0.496 -2.568,-1.103 -4.513,-2.062 -5.872,-2.673 -9.529,-4.282 -2.009,-0.884 -4.346,-1.92 -5.192,-2.304 -0.846,-0.383 -3.356,-1.502 -5.577,-2.487 -5.062,-2.245 -5.665,-2.517 -9.355,-4.211 -1.655,-0.76 -3.07,-1.382 -3.145,-1.382 -0.075,0 -1.49,-0.613 -3.145,-1.362 -1.655,-0.749 -3.355,-1.519 -3.778,-1.71 -0.423,-0.191 -1.635,-0.726 -2.692,-1.189 -1.058,-0.463 -3.009,-1.337 -4.337,-1.944 -1.327,-0.607 -2.483,-1.103 -2.568,-1.103 -0.085,0 -1.422,-0.584 -2.971,-1.297 -1.549,-0.713 -3.682,-1.688 -4.74,-2.166 -1.057,-0.478 -3.009,-1.366 -4.336,-1.972 -1.328,-0.607 -2.483,-1.103 -2.568,-1.103 -0.085,0 -1.422,-0.584 -2.971,-1.296 -3.767,-1.733 -7.177,-3.276 -8.586,-3.884 -3.122,-1.348 -4.419,-1.929 -11.069,-4.961 -1.223,-0.557 -2.292,-1.013 -2.376,-1.013 -0.084,0 -1.42,-0.584 -2.969,-1.297 -1.549,-0.713 -3.682,-1.688 -4.74,-2.166 -1.058,-0.479 -3.009,-1.366 -4.337,-1.973 -1.327,-0.606 -2.483,-1.103 -2.569,-1.103 -0.086,0 -1.25,-0.503 -2.586,-1.117 -1.337,-0.615 -3.785,-1.74 -5.44,-2.5 -1.655,-0.761 -3.078,-1.383 -3.162,-1.383 -0.084,0 -1.066,-0.416 -2.183,-0.925 -1.117,-0.508 -4.8,-2.162 -8.185,-3.674 -3.384,-1.512 -6.985,-3.121 -8.002,-3.576 -2.159,-0.966 -2.159,-0.931 -0.038,-5.548 0.759,-1.654 1.625,-3.57 1.922,-4.257 1.294,-2.988 1.687,-3.879 2.674,-6.058 0.575,-1.269 1.628,-3.575 2.341,-5.124 0.713,-1.549 1.296,-2.886 1.296,-2.97 0,-0.084 0.456,-1.153 1.013,-2.376 2.321,-5.091 3.312,-7.286 3.782,-8.376 0.273,-0.635 0.95,-2.154 1.505,-3.376 0.554,-1.222 1.007,-2.301 1.007,-2.397 0,-0.096 0.667,-1.605 1.481,-3.354 2.228,-4.785 3.135,-6.808 3.135,-6.995 0,-0.092 0.622,-1.522 1.382,-3.177 0.76,-1.655 1.614,-3.528 1.899,-4.163 1.088,-2.423 4.302,-9.671 4.825,-10.881 0.657,-1.518 0.842,-1.495 5.555,0.692 m 111.267,144.394 c 0.066,1.044 0.019,2.3 -0.104,2.791 l -0.224,0.892 -39.896,-0.098 -39.896,-0.098 -0.114,-2.79 -0.113,-2.79 40.113,0.098 40.114,0.098 0.12,1.897 m -0.39,7.987 c 0.689,0.689 0.636,9.685 -0.061,10.263 -0.381,0.317 -11.173,0.407 -40.096,0.335 l -39.573,-0.098 -0.108,-5.162 c -0.081,-3.872 0.015,-5.24 0.384,-5.475 0.848,-0.538 78.914,-0.403 79.454,0.137 m 0,15 c 0.355,0.355 0.462,13.009 0.462,54.616 v 54.154 h 19.4 c 13.881,0 19.476,0.122 19.666,0.43 0.158,0.255 -15.886,16.581 -39.567,40.263 l -39.834,39.833 -39.871,-39.928 c -29.103,-29.146 -39.73,-40.018 -39.352,-40.258 0.286,-0.181 9.217,-0.331 19.846,-0.334 l 19.327,-0.006 v -54.359 c 0,-29.898 0.116,-54.475 0.257,-54.616 0.501,-0.501 79.163,-0.298 79.666,0.205"
       inkscape:connector-curvature="0"
       style="fill:#ffffff;fill-rule:evenodd;stroke:none" />
    <path
       id="path3"
       d="m 7.403,190.096 0.097,183.173 37.212,0.098 37.211,0.098 V 190.194 6.923 H 44.615 7.307 L 7.403,190.096 M 149.923,20.484 c -0.3,0.474 -0.856,1.554 -1.234,2.401 -1.154,2.579 -2.203,4.959 -2.543,5.769 -0.178,0.423 -0.828,1.894 -1.446,3.269 -0.617,1.375 -1.425,3.192 -1.796,4.039 -1.244,2.845 -2.201,4.99 -2.918,6.538 -0.391,0.846 -1.09,2.404 -1.553,3.462 -0.464,1.057 -1.339,3.009 -1.945,4.336 -0.607,1.328 -1.103,2.483 -1.103,2.568 0,0.085 -0.622,1.509 -1.383,3.164 -0.76,1.654 -1.885,4.102 -2.5,5.439 -0.614,1.337 -1.117,2.501 -1.117,2.587 0,0.085 -0.497,1.242 -1.103,2.569 -0.607,1.327 -1.495,3.279 -1.974,4.337 -0.479,1.057 -1.368,3.009 -1.974,4.336 -0.607,1.328 -1.103,2.484 -1.103,2.569 0,0.175 -1.876,4.358 -3.301,7.364 -0.953,2.009 -1.208,3.615 -0.573,3.615 0.196,0 1.668,0.606 3.27,1.346 1.603,0.741 2.988,1.346 3.077,1.346 0.09,0 1.517,0.623 3.172,1.383 1.655,0.76 4.102,1.885 5.439,2.5 1.337,0.615 2.501,1.117 2.587,1.117 0.086,0 1.242,0.497 2.569,1.103 1.328,0.607 3.279,1.495 4.337,1.974 1.057,0.479 3.009,1.368 4.336,1.974 1.328,0.607 2.522,1.103 2.654,1.103 0.132,0 1.123,0.418 2.202,0.929 2.78,1.317 7.491,3.479 9.077,4.166 5.987,2.594 9.308,4.08 13.884,6.21 1.185,0.552 2.262,1.003 2.393,1.003 0.132,0 1.894,0.783 3.916,1.741 2.022,0.958 4.535,2.079 5.583,2.492 1.048,0.414 3.163,1.334 4.699,2.047 1.537,0.712 3.4,1.566 4.14,1.897 0.741,0.332 2.298,1.031 3.462,1.554 1.163,0.524 2.981,1.328 4.038,1.786 1.058,0.459 2.616,1.161 3.462,1.559 2.462,1.16 5.969,2.693 6.158,2.693 0.15,0 2.875,1.241 8.457,3.851 2.464,1.151 5.971,2.688 6.137,2.688 0.162,0 4.595,2.016 8.534,3.881 1.299,0.615 2.463,1.119 2.586,1.119 0.123,0 1.31,0.496 2.637,1.103 1.328,0.606 3.279,1.495 4.337,1.974 1.058,0.479 3.009,1.367 4.337,1.974 1.327,0.606 2.483,1.103 2.568,1.103 0.085,0 1.422,0.583 2.971,1.295 5.113,2.353 7.997,3.648 11.278,5.063 0.634,0.273 2.279,1.009 3.654,1.634 1.375,0.625 3.365,1.52 4.423,1.99 1.057,0.469 2.615,1.161 3.461,1.538 0.846,0.377 2.145,0.953 2.885,1.28 0.74,0.326 2.558,1.143 4.038,1.815 1.481,0.672 3.298,1.484 4.039,1.806 2.35,1.021 3.589,1.572 6.154,2.738 1.375,0.625 3.365,1.513 4.423,1.972 1.057,0.46 2.702,1.194 3.654,1.632 0.952,0.437 2.077,0.932 2.5,1.1 0.893,0.353 3.763,1.651 7.969,3.604 1.634,0.758 3.071,1.379 3.195,1.379 0.227,0 1.525,0.571 6.72,2.957 1.587,0.729 3.231,1.469 3.654,1.645 1.521,0.631 3.505,1.504 5.962,2.621 1.375,0.625 3.365,1.526 4.423,2.002 1.057,0.476 2.604,1.191 3.437,1.589 0.833,0.398 1.742,0.724 2.02,0.724 0.277,0 0.504,0.173 0.504,0.385 0,0.211 0.247,0.384 0.549,0.384 0.302,0 1.816,0.584 3.365,1.297 1.55,0.714 3.682,1.68 4.74,2.149 3.649,1.616 5.008,2.224 7.237,3.241 2.098,0.956 2.955,1.027 2.955,0.242 0,-0.184 0.606,-1.645 1.347,-3.248 0.74,-1.603 1.346,-2.988 1.346,-3.077 0,-0.09 0.583,-1.43 1.297,-2.979 1.955,-4.247 2.758,-6.05 3.823,-8.586 0.533,-1.269 1.763,-4.002 2.732,-6.073 0.97,-2.07 1.763,-3.843 1.763,-3.939 0,-0.176 2.544,-5.917 4.651,-10.496 0.615,-1.337 1.118,-2.501 1.118,-2.586 0,-0.086 0.496,-1.242 1.102,-2.57 1.954,-4.279 3.183,-6.999 3.739,-8.278 0.299,-0.688 0.788,-1.813 1.087,-2.5 0.299,-0.688 1.055,-2.375 1.68,-3.75 0.625,-1.375 1.521,-3.366 1.99,-4.424 0.469,-1.057 1.184,-2.626 1.589,-3.486 0.887,-1.885 0.903,-2.09 0.159,-2.09 -0.317,0 -0.576,-0.174 -0.576,-0.385 0,-0.212 -0.262,-0.385 -0.583,-0.385 -0.32,0 -0.882,-0.164 -1.25,-0.365 -0.367,-0.201 -1.879,-0.905 -3.36,-1.566 -1.481,-0.661 -3.471,-1.552 -4.423,-1.981 -0.952,-0.428 -2.25,-0.998 -2.884,-1.267 -0.635,-0.268 -1.933,-0.847 -2.885,-1.286 -0.952,-0.439 -2.596,-1.174 -3.654,-1.632 -1.058,-0.458 -2.959,-1.334 -4.225,-1.945 -1.266,-0.611 -2.422,-1.112 -2.568,-1.112 -0.146,0 -1.62,-0.621 -3.275,-1.381 -6.846,-3.142 -8.044,-3.687 -8.778,-3.991 -2.153,-0.891 -5.437,-2.359 -10.894,-4.87 -1.549,-0.713 -2.886,-1.296 -2.971,-1.296 -0.085,0 -1.24,-0.496 -2.568,-1.102 -5.896,-2.692 -7.815,-3.552 -10.875,-4.872 -0.634,-0.273 -2.279,-1.008 -3.654,-1.633 -7.215,-3.277 -7.947,-3.605 -10.961,-4.905 -1.092,-0.471 -3.308,-1.472 -8.377,-3.782 -1.223,-0.558 -2.292,-1.014 -2.377,-1.014 -0.158,0 -3.596,-1.537 -7.708,-3.445 -2.182,-1.013 -4.432,-2.008 -6.154,-2.721 -1.018,-0.421 -5.755,-2.549 -7.692,-3.455 -0.846,-0.396 -2.317,-1.056 -3.269,-1.467 -1.882,-0.812 -4.189,-1.844 -8.077,-3.612 -1.375,-0.625 -3.019,-1.357 -3.654,-1.628 -2.654,-1.13 -7.153,-3.146 -10.495,-4.701 C 253.886,65.748 252.203,65 252.11,65 c -0.092,0 -1.34,-0.534 -2.773,-1.187 -1.434,-0.654 -3.125,-1.418 -3.76,-1.7 -0.635,-0.282 -2.279,-1.019 -3.654,-1.639 -1.375,-0.62 -3.149,-1.361 -3.942,-1.647 -0.793,-0.286 -1.443,-0.658 -1.443,-0.827 0,-0.169 -0.262,-0.308 -0.582,-0.308 -0.32,0 -0.882,-0.164 -1.25,-0.365 -0.367,-0.201 -1.879,-0.905 -3.36,-1.566 -1.481,-0.661 -3.471,-1.552 -4.423,-1.981 -0.952,-0.428 -2.25,-0.998 -2.885,-1.267 -0.634,-0.268 -1.932,-0.846 -2.884,-1.285 -2.009,-0.926 -6.864,-3.073 -10.192,-4.509 -1.879,-0.811 -6.365,-2.856 -8.902,-4.06 -1.299,-0.616 -2.463,-1.121 -2.586,-1.121 -0.123,0 -1.31,-0.496 -2.637,-1.102 -1.328,-0.607 -3.279,-1.495 -4.337,-1.974 -1.058,-0.48 -3.009,-1.368 -4.337,-1.974 -1.327,-0.607 -2.483,-1.103 -2.568,-1.103 -0.085,0 -1.422,-0.584 -2.971,-1.296 -5.113,-2.353 -7.997,-3.648 -11.278,-5.063 -0.634,-0.273 -2.279,-1.009 -3.654,-1.634 -1.375,-0.625 -3.365,-1.52 -4.423,-1.99 -1.057,-0.469 -2.615,-1.161 -3.461,-1.538 -0.846,-0.377 -2.145,-0.953 -2.885,-1.28 -2.475,-1.093 -5.959,-2.676 -6.208,-2.82 -0.135,-0.078 -0.492,0.246 -0.792,0.72"
       inkscape:connector-curvature="0"
       style="fill:#ff0000;fill-rule:evenodd;stroke:none" />
    <path
       id="path4"
       d="M 7.179,6.795 C 6.823,7.151 6.855,372.99 7.212,373.21 7.37,373.308 7.456,290.933 7.403,190.156 L 7.306,6.923 H 44.614 81.922 L 82.019,190.288 82.116,373.654 82.212,190.096 82.308,6.538 H 44.872 c -20.59,0 -37.551,0.116 -37.693,0.257 m 142.081,13.67 c -0.523,1.21 -3.737,8.458 -4.825,10.881 -0.285,0.635 -1.139,2.508 -1.899,4.163 -0.76,1.655 -1.382,3.077 -1.382,3.162 0,0.084 -0.445,1.126 -0.99,2.315 -0.544,1.19 -0.905,2.248 -0.802,2.351 0.103,0.103 0.485,-0.476 0.848,-1.287 0.796,-1.773 1.783,-4.004 2.694,-6.088 0.371,-0.847 1.179,-2.664 1.796,-4.039 0.618,-1.375 1.268,-2.846 1.446,-3.269 1.616,-3.848 3.893,-8.634 4.191,-8.81 0.132,-0.078 1.365,0.373 2.74,1.002 1.375,0.629 3.106,1.411 3.846,1.738 0.74,0.327 2.039,0.903 2.885,1.28 0.846,0.377 2.404,1.069 3.461,1.538 1.058,0.47 3.048,1.365 4.423,1.99 2.421,1.101 3.937,1.773 6.346,2.813 1.409,0.608 4.82,2.151 8.586,3.884 1.549,0.712 2.886,1.296 2.971,1.296 0.085,0 1.241,0.496 2.568,1.103 1.328,0.606 3.279,1.494 4.337,1.974 1.058,0.479 2.962,1.343 4.231,1.921 2.706,1.231 4.407,1.792 3.846,1.267 -0.212,-0.198 -2.115,-1.107 -4.231,-2.02 -3.59,-1.549 -4.928,-2.146 -10.684,-4.77 -1.223,-0.558 -2.292,-1.014 -2.376,-1.014 -0.084,0 -1.42,-0.583 -2.969,-1.297 -4.153,-1.912 -5.881,-2.69 -9.932,-4.472 -3.657,-1.609 -5.016,-2.219 -9.529,-4.282 -1.328,-0.606 -2.486,-1.103 -2.574,-1.103 -0.088,0 -1.648,-0.69 -3.467,-1.535 -4.713,-2.187 -4.898,-2.21 -5.555,-0.692 m 51.894,21.641 c 0,0.1 0.822,0.556 1.827,1.012 1.005,0.457 2.952,1.341 4.327,1.967 1.375,0.625 3.019,1.36 3.654,1.634 5.626,2.427 10.671,4.693 13.157,5.911 0.68,0.333 1.353,0.488 1.496,0.345 0.144,-0.144 -0.229,-0.448 -0.829,-0.676 -0.599,-0.227 -2.193,-0.925 -3.542,-1.549 -1.348,-0.624 -2.513,-1.135 -2.589,-1.135 -0.075,0 -1.405,-0.583 -2.954,-1.296 -5.473,-2.518 -7.264,-3.319 -7.42,-3.319 -0.087,0 -1.65,-0.692 -3.473,-1.538 -3.395,-1.576 -3.654,-1.672 -3.654,-1.356 m -63.431,4.234 c -0.651,1.408 -1.185,2.63 -1.185,2.715 0,0.085 -0.453,1.155 -1.007,2.377 -0.555,1.222 -1.232,2.741 -1.505,3.376 -0.47,1.09 -1.461,3.285 -3.782,8.376 -0.557,1.223 -1.013,2.292 -1.013,2.376 0,0.084 -0.583,1.421 -1.296,2.97 -1.733,3.766 -3.276,7.176 -3.884,8.585 -1.217,2.82 -1.757,4.033 -3.053,6.854 -2.121,4.617 -2.121,4.582 0.038,5.548 1.017,0.455 4.618,2.064 8.002,3.576 3.385,1.512 7.068,3.166 8.185,3.674 1.117,0.509 2.099,0.925 2.183,0.925 0.084,0 1.507,0.622 3.162,1.383 1.655,0.76 4.103,1.885 5.44,2.5 1.336,0.614 2.5,1.117 2.586,1.117 0.086,0 1.242,0.497 2.569,1.103 1.328,0.607 3.279,1.494 4.337,1.973 1.058,0.478 3.191,1.453 4.74,2.166 1.549,0.713 2.886,1.297 2.971,1.297 0.085,0 1.24,0.496 2.568,1.102 4.279,1.954 6.999,3.182 8.279,3.739 0.687,0.299 1.812,0.788 2.5,1.087 1.561,0.679 5.008,2.239 8.682,3.93 1.549,0.712 2.886,1.296 2.971,1.296 0.085,0 1.24,0.496 2.568,1.103 1.327,0.606 3.279,1.494 4.336,1.972 1.058,0.478 3.191,1.453 4.74,2.166 1.549,0.713 2.886,1.297 2.971,1.297 0.085,0 1.241,0.496 2.568,1.103 1.328,0.607 3.279,1.484 4.337,1.951 1.057,0.466 2.442,1.077 3.077,1.356 0.634,0.28 1.932,0.857 2.884,1.283 5.137,2.297 6.287,2.764 6.437,2.614 0.09,-0.09 -0.499,-0.465 -1.309,-0.832 -0.811,-0.368 -2.905,-1.335 -4.654,-2.149 -1.75,-0.814 -3.259,-1.48 -3.354,-1.48 -0.189,0 -3.696,-1.533 -6.158,-2.693 -0.846,-0.398 -2.404,-1.1 -3.462,-1.559 -1.057,-0.458 -2.875,-1.262 -4.038,-1.786 -1.164,-0.523 -2.721,-1.222 -3.462,-1.554 -0.74,-0.331 -2.603,-1.185 -4.14,-1.897 -1.536,-0.713 -3.651,-1.633 -4.699,-2.047 -1.048,-0.413 -3.561,-1.534 -5.583,-2.492 -2.022,-0.958 -3.784,-1.741 -3.916,-1.741 -0.131,0 -1.208,-0.451 -2.393,-1.003 -4.177,-1.944 -6.721,-3.089 -11.096,-4.992 -3.536,-1.538 -4.357,-1.904 -7.019,-3.128 -1.586,-0.73 -3.767,-1.745 -4.846,-2.256 -1.079,-0.511 -2.07,-0.929 -2.202,-0.929 -0.132,0 -1.326,-0.496 -2.654,-1.103 -1.327,-0.606 -3.279,-1.495 -4.336,-1.974 -1.058,-0.479 -3.009,-1.367 -4.337,-1.974 -1.327,-0.606 -2.483,-1.103 -2.568,-1.103 -0.085,0 -1.509,-0.622 -3.163,-1.382 -1.655,-0.76 -4.103,-1.885 -5.44,-2.5 -1.337,-0.615 -2.504,-1.118 -2.594,-1.118 -0.091,0 -1.476,-0.605 -3.079,-1.346 -1.602,-0.74 -3.074,-1.346 -3.27,-1.346 -0.635,0 -0.38,-1.606 0.573,-3.615 1.425,-3.006 3.301,-7.189 3.301,-7.364 0,-0.085 0.496,-1.241 1.103,-2.569 0.606,-1.327 1.495,-3.279 1.974,-4.336 0.479,-1.058 1.367,-3.01 1.974,-4.337 0.606,-1.327 1.103,-2.483 1.103,-2.568 0,-0.085 0.622,-1.509 1.382,-3.164 0.76,-1.654 1.885,-4.102 2.5,-5.439 0.615,-1.337 1.118,-2.501 1.118,-2.587 0,-0.085 0.496,-1.241 1.103,-2.569 0.606,-1.327 1.484,-3.252 1.949,-4.278 0.466,-1.025 0.763,-1.949 0.659,-2.052 -0.103,-0.103 -0.721,0.964 -1.373,2.372 m 88.431,6.911 c 0,0.173 0.558,0.442 5.384,2.596 1.375,0.613 2.801,1.279 3.168,1.48 0.368,0.201 0.93,0.365 1.25,0.365 0.32,0 0.582,0.139 0.582,0.308 0,0.169 0.65,0.541 1.443,0.827 0.793,0.286 2.567,1.027 3.942,1.647 1.375,0.62 3.019,1.357 3.654,1.639 0.635,0.282 2.326,1.046 3.76,1.7 1.433,0.653 2.681,1.187 2.773,1.187 0.093,0 1.776,0.748 3.741,1.663 3.342,1.555 7.841,3.571 10.495,4.701 0.635,0.271 2.279,1.003 3.654,1.628 3.635,1.653 5.713,2.582 7.885,3.525 1.057,0.459 2.615,1.158 3.461,1.554 1.937,0.906 6.674,3.034 7.692,3.455 1.722,0.713 3.972,1.708 6.154,2.721 4.127,1.915 7.551,3.445 7.71,3.445 0.086,0 1.242,0.496 2.569,1.102 4.279,1.954 7,3.183 8.279,3.739 0.687,0.299 1.812,0.788 2.5,1.087 0.688,0.299 2.375,1.055 3.75,1.679 7.215,3.278 7.947,3.605 10.962,4.905 1.091,0.471 3.308,1.472 8.376,3.783 1.223,0.557 2.292,1.013 2.376,1.013 0.084,0 1.42,0.583 2.969,1.296 5.457,2.511 8.741,3.979 10.894,4.87 0.735,0.304 1.952,0.858 8.807,4.004 1.67,0.767 3.228,1.323 3.461,1.235 0.233,-0.088 -0.095,-0.364 -0.73,-0.613 -0.634,-0.25 -3.49,-1.501 -6.346,-2.782 -2.856,-1.28 -8.481,-3.801 -12.5,-5.602 -4.019,-1.801 -8.401,-3.772 -9.738,-4.38 -1.337,-0.608 -2.493,-1.105 -2.568,-1.105 -0.076,0 -1.405,-0.583 -2.954,-1.295 -1.549,-0.713 -4.115,-1.862 -5.701,-2.553 -3.091,-1.347 -5.458,-2.413 -9.932,-4.471 -1.549,-0.713 -2.886,-1.296 -2.971,-1.296 -0.085,0 -1.241,-0.497 -2.568,-1.103 -4.513,-2.063 -5.872,-2.673 -9.529,-4.282 -4.052,-1.782 -5.78,-2.56 -9.932,-4.472 -1.549,-0.714 -2.886,-1.297 -2.971,-1.297 -0.085,0 -1.241,-0.496 -2.568,-1.103 -1.328,-0.607 -3.279,-1.495 -4.337,-1.974 -1.058,-0.479 -3.009,-1.367 -4.337,-1.974 C 276.836,75.496 275.68,75 275.595,75 c -0.085,0 -1.422,-0.583 -2.971,-1.296 -3.766,-1.733 -7.177,-3.276 -8.586,-3.884 -3.325,-1.436 -6.175,-2.715 -11.278,-5.063 -1.549,-0.712 -2.886,-1.295 -2.971,-1.295 -0.085,0 -1.24,-0.497 -2.568,-1.103 -4.523,-2.067 -5.874,-2.674 -9.529,-4.281 -2.009,-0.884 -4.519,-2.001 -5.577,-2.483 -6.068,-2.766 -5.961,-2.724 -5.961,-2.344 m 142.308,63.47 c 0,0.177 1.354,0.829 5.769,2.776 2.6,1.147 5.177,2.332 6.812,3.133 0.679,0.333 1.352,0.488 1.495,0.345 0.144,-0.144 -0.206,-0.439 -0.777,-0.656 -0.57,-0.217 -2.022,-0.842 -3.226,-1.39 -1.204,-0.547 -2.708,-1.226 -3.343,-1.508 -0.634,-0.282 -2.334,-1.046 -3.777,-1.698 -2.718,-1.228 -2.953,-1.308 -2.953,-1.002 m 14.615,6.53 c 0,0.173 0.558,0.442 5.385,2.596 1.375,0.613 2.8,1.279 3.167,1.48 0.368,0.201 0.93,0.365 1.25,0.365 0.321,0 0.583,0.173 0.583,0.385 0,0.211 0.259,0.385 0.576,0.385 0.744,0 0.728,0.205 -0.159,2.09 -0.405,0.86 -1.12,2.429 -1.589,3.486 -0.469,1.058 -1.365,3.049 -1.99,4.424 -0.625,1.375 -1.381,3.062 -1.68,3.75 -0.299,0.687 -0.788,1.812 -1.086,2.5 -0.516,1.187 -1.56,3.496 -3.828,8.472 -0.558,1.223 -1.014,2.293 -1.014,2.377 0,0.085 -0.503,1.248 -1.118,2.585 -2.107,4.579 -4.651,10.32 -4.651,10.496 0,0.096 -0.793,1.869 -1.763,3.939 -0.969,2.071 -2.199,4.804 -2.732,6.073 -1.065,2.536 -1.868,4.339 -3.823,8.586 -0.714,1.549 -1.297,2.889 -1.297,2.979 0,0.089 -0.606,1.474 -1.346,3.077 -0.741,1.603 -1.347,3.064 -1.347,3.248 0,0.785 -0.857,0.714 -2.955,-0.242 -2.229,-1.017 -3.588,-1.625 -7.237,-3.241 -1.058,-0.469 -3.19,-1.435 -4.74,-2.149 -1.549,-0.713 -3.063,-1.297 -3.365,-1.297 -0.302,0 -0.549,-0.173 -0.549,-0.384 0,-0.212 -0.227,-0.385 -0.504,-0.385 -0.278,0 -1.187,-0.326 -2.02,-0.724 -0.833,-0.398 -2.38,-1.113 -3.437,-1.589 -1.058,-0.476 -3.048,-1.377 -4.423,-2.002 -2.457,-1.117 -4.441,-1.99 -5.962,-2.621 -0.423,-0.176 -2.067,-0.916 -3.654,-1.645 -5.195,-2.386 -6.493,-2.957 -6.72,-2.957 -0.124,0 -1.561,-0.621 -3.195,-1.379 -4.206,-1.953 -7.076,-3.251 -7.969,-3.604 -0.423,-0.168 -1.548,-0.663 -2.5,-1.1 -0.952,-0.438 -2.597,-1.172 -3.654,-1.632 -1.058,-0.459 -3.048,-1.347 -4.423,-1.972 -2.565,-1.166 -3.804,-1.717 -6.154,-2.738 -0.741,-0.322 -2.558,-1.134 -4.039,-1.806 -1.48,-0.672 -3.298,-1.489 -4.038,-1.815 -0.74,-0.327 -2.039,-0.903 -2.885,-1.28 -0.846,-0.377 -2.404,-1.069 -3.461,-1.538 -1.058,-0.47 -3.048,-1.365 -4.423,-1.99 -1.375,-0.625 -3.063,-1.381 -3.75,-1.68 -0.688,-0.299 -1.813,-0.788 -2.5,-1.087 -1.561,-0.679 -5.008,-2.239 -8.682,-3.93 -1.549,-0.712 -2.886,-1.295 -2.971,-1.295 -0.085,0 -1.241,-0.497 -2.568,-1.103 -1.328,-0.607 -3.279,-1.495 -4.337,-1.974 -1.058,-0.479 -2.962,-1.344 -4.231,-1.922 -2.706,-1.231 -4.407,-1.792 -3.846,-1.267 0.212,0.198 2.115,1.107 4.231,2.02 3.698,1.596 5.216,2.274 10.49,4.682 1.328,0.606 2.483,1.102 2.568,1.102 0.085,0 1.422,0.584 2.971,1.297 1.55,0.713 3.682,1.688 4.74,2.166 1.058,0.478 3.009,1.366 4.337,1.973 1.327,0.606 2.483,1.102 2.568,1.102 0.085,0 1.508,0.623 3.163,1.383 1.655,0.76 4.103,1.885 5.44,2.5 1.337,0.615 2.5,1.117 2.586,1.117 0.086,0 1.242,0.497 2.57,1.103 4.512,2.063 5.871,2.673 9.528,4.282 4.052,1.782 5.78,2.561 9.932,4.472 1.549,0.714 2.886,1.297 2.971,1.297 0.085,0 1.241,0.496 2.569,1.102 5.109,2.333 6.738,3.065 9.528,4.279 3.401,1.479 14.015,6.221 19.231,8.591 1.164,0.528 3.76,1.684 5.769,2.568 4.045,1.778 5.767,2.553 9.932,4.471 1.549,0.713 2.886,1.297 2.97,1.297 0.211,0 4.446,1.867 5.266,2.322 1.523,0.844 1.58,0.774 4.171,-5.207 1.007,-2.325 2.003,-4.557 3.515,-7.884 0.625,-1.375 1.381,-3.063 1.68,-3.75 0.299,-0.688 0.788,-1.813 1.087,-2.5 0.679,-1.561 2.239,-5.008 3.93,-8.682 0.712,-1.549 1.296,-2.886 1.296,-2.971 0,-0.085 0.496,-1.241 1.102,-2.568 2.083,-4.558 2.678,-5.883 4.279,-9.529 0.882,-2.01 1.837,-4.173 2.122,-4.808 0.547,-1.219 1.059,-2.379 3.65,-8.269 1.609,-3.657 2.22,-5.016 4.282,-9.529 1.414,-3.094 1.393,-3.348 -0.339,-4.043 -0.794,-0.318 -2.395,-1.013 -3.558,-1.545 -5.915,-2.703 -6.923,-3.108 -6.923,-2.786 m -158.269,12.518 c 0.13,0.212 0.396,0.385 0.589,0.385 0.193,0 1.265,0.422 2.381,0.939 6.052,2.799 10.814,4.828 10.968,4.674 0.096,-0.097 -0.664,-0.556 -1.689,-1.02 -1.026,-0.465 -3.132,-1.429 -4.681,-2.142 -1.549,-0.714 -2.886,-1.297 -2.97,-1.297 -0.084,0 -1.098,-0.433 -2.255,-0.962 -2.309,-1.056 -2.699,-1.152 -2.343,-0.577"
       inkscape:connector-curvature="0"
       style="fill:#ff5c5c;fill-rule:evenodd;stroke:none" />
  </g>
</svg>
