<?xml version="1.0" encoding="utf-8"?>
<!-- Generator: Adobe Illustrator 24.1.0, SVG Export Plug-In . SVG Version: 6.00 Build 0)  -->
<svg version="1.1"
	 id="svg2" xmlns:cc="http://creativecommons.org/ns#" xmlns:dc="http://purl.org/dc/elements/1.1/" xmlns:rdf="http://www.w3.org/1999/02/22-rdf-syntax-ns#" xmlns:svg="http://www.w3.org/2000/svg"
	 xmlns="http://www.w3.org/2000/svg" xmlns:xlink="http://www.w3.org/1999/xlink" x="0px" y="0px" viewBox="0 0 70.9 48.9"
	 style="enable-background:new 0 0 70.9 48.9;" xml:space="preserve">
<style type="text/css">
	.st0{fill:#F18419;}
	.st1{fill:#1D1D1B;}
	.st2{fill:#FBBA00;}
</style>
<g>
	<g id="g10" transform="matrix(1.25,0,0,-1.25,0,33.2375)">
		<g id="rect3001">
			<g>
				<path class="st0" d="M2.4-11.5c-0.8,0-1.4,0.6-1.4,1.4v34.2c0,0.8,0.6,1.4,1.4,1.4h51.9c0.8,0,1.4-0.6,1.4-1.4v-34.2
					c0-0.8-0.6-1.4-1.4-1.4H2.4z"/>
			</g>
			<g>
				<path class="st1" d="M54.3,24.8c0.4,0,0.6-0.3,0.6-0.6v-34.2c0-0.4-0.3-0.6-0.6-0.6H2.4c-0.4,0-0.6,0.3-0.6,0.6v34.2
					c0,0.4,0.3,0.6,0.6,0.6H54.3 M54.3,26.4H2.4c-1.2,0-2.2-1-2.2-2.2v-34.2c0-1.2,1-2.2,2.2-2.2h51.9c1.2,0,2.2,1,2.2,2.2v34.2
					C56.6,25.4,55.6,26.4,54.3,26.4L54.3,26.4z"/>
			</g>
		</g>
	</g>
	<g>
		<path class="st1" d="M63.1,25.4H7.8c-0.6,0-1-0.4-1-1s0.4-1,1-1h55.3c0.6,0,1,0.4,1,1S63.7,25.4,63.1,25.4z"/>
	</g>
</g>
</svg>
