<?xml version="1.0" encoding="UTF-8" standalone="no"?>
<!-- Generator: Adobe Illustrator 24.1.0, SVG Export Plug-In . SVG Version: 6.00 Build 0)  -->

<svg
   xmlns:dc="http://purl.org/dc/elements/1.1/"
   xmlns:cc="http://creativecommons.org/ns#"
   xmlns:rdf="http://www.w3.org/1999/02/22-rdf-syntax-ns#"
   xmlns:svg="http://www.w3.org/2000/svg"
   xmlns="http://www.w3.org/2000/svg"
   xmlns:sodipodi="http://sodipodi.sourceforge.net/DTD/sodipodi-0.dtd"
   xmlns:inkscape="http://www.inkscape.org/namespaces/inkscape"
   version="1.1"
   id="svg2"
   x="0px"
   y="0px"
   viewBox="0 0 125.00001 124.99999"
   xml:space="preserve"
   sodipodi:docname="gevi.svg"
   width="125"
   height="125"
   inkscape:version="0.92.5 (2060ec1f9f, 2020-04-08)"><metadata
   id="metadata12144"><rdf:RDF><cc:Work
       rdf:about=""><dc:format>image/svg+xml</dc:format><dc:type
         rdf:resource="http://purl.org/dc/dcmitype/StillImage" /><dc:title></dc:title></cc:Work></rdf:RDF></metadata><defs
   id="defs12142" /><sodipodi:namedview
   pagecolor="#ffffff"
   bordercolor="#666666"
   borderopacity="1"
   objecttolerance="10"
   gridtolerance="10"
   guidetolerance="10"
   inkscape:pageopacity="0"
   inkscape:pageshadow="2"
   inkscape:window-width="1920"
   inkscape:window-height="1017"
   id="namedview12140"
   showgrid="false"
   units="px"
   inkscape:zoom="4.8261757"
   inkscape:cx="35.450001"
   inkscape:cy="57.602544"
   inkscape:window-x="-8"
   inkscape:window-y="-8"
   inkscape:window-maximized="1"
   inkscape:current-layer="svg2" />
<style
   type="text/css"
   id="style12121">
	.st0{fill:#F18419;}
	.st1{fill:#1D1D1B;}
	.st2{fill:#FBBA00;}
</style>
<g
   id="g12137"
   transform="matrix(0.92351034,0,0,0.92351034,29.769122,40.000979)">
	<g
   id="g10"
   transform="matrix(1.25,0,0,-1.25,0,33.2375)">
		<g
   id="rect3001">
			<g
   id="g12125">
				<path
   class="st0"
   d="m 2.4,-11.5 c -0.8,0 -1.4,0.6 -1.4,1.4 v 34.2 c 0,0.8 0.6,1.4 1.4,1.4 h 51.9 c 0.8,0 1.4,-0.6 1.4,-1.4 v -34.2 c 0,-0.8 -0.6,-1.4 -1.4,-1.4 z"
   id="path12123"
   inkscape:connector-curvature="0"
   style="fill:#f18419" />
			</g>
			<g
   id="g12129">
				<path
   class="st1"
   d="m 54.3,24.8 c 0.4,0 0.6,-0.3 0.6,-0.6 V -10 c 0,-0.4 -0.3,-0.6 -0.6,-0.6 H 2.4 c -0.4,0 -0.6,0.3 -0.6,0.6 v 34.2 c 0,0.4 0.3,0.6 0.6,0.6 h 51.9 m 0,1.6 H 2.4 c -1.2,0 -2.2,-1 -2.2,-2.2 V -10 c 0,-1.2 1,-2.2 2.2,-2.2 h 51.9 c 1.2,0 2.2,1 2.2,2.2 v 34.2 c 0.1,1.2 -0.9,2.2 -2.2,2.2 z"
   id="path12127"
   inkscape:connector-curvature="0"
   style="fill:#1d1d1b" />
			</g>
		</g>
	</g>
	<g
   id="g12135">
		<path
   class="st1"
   d="M 63.1,25.4 H 7.8 c -0.6,0 -1,-0.4 -1,-1 0,-0.6 0.4,-1 1,-1 h 55.3 c 0.6,0 1,0.4 1,1 0,0.6 -0.4,1 -1,1 z"
   id="path12133"
   inkscape:connector-curvature="0"
   style="fill:#1d1d1b" />
	</g>
</g>
</svg>