<?xml version="1.0" encoding="UTF-8" standalone="no"?>
<!-- Created with Inkscape (http://www.inkscape.org/) -->

<svg
   xmlns:dc="http://purl.org/dc/elements/1.1/"
   xmlns:cc="http://creativecommons.org/ns#"
   xmlns:rdf="http://www.w3.org/1999/02/22-rdf-syntax-ns#"
   xmlns:svg="http://www.w3.org/2000/svg"
   xmlns="http://www.w3.org/2000/svg"
   version="1.1"
   width="70.862503"
   height="70.862503"
   id="svg2"
   xml:space="preserve"><metadata
     id="metadata8"><rdf:RDF><cc:Work
         rdf:about=""><dc:format>image/svg+xml</dc:format><dc:type
           rdf:resource="http://purl.org/dc/dcmitype/StillImage" /><dc:title></dc:title></cc:Work></rdf:RDF></metadata><defs
     id="defs6"><clipPath
       id="clipPath18"><path
         d="M 0,566.93 0,0 l 566.934,0 0,566.93 -566.934,0 z"
         id="path20" /></clipPath></defs><g
     transform="matrix(1.25,0,0,-1.25,0,70.8625)"
     id="g10"><rect
       width="67.259323"
       height="67.259323"
       rx="0.11022215"
       x="2.1018538"
       y="1.801589"
       transform="matrix(0.8,0,0,-0.8,0,56.69)"
       id="rect3005"
       style="color:#000000;fill:#ffffff;fill-opacity:1;fill-rule:nonzero;stroke:none;stroke-width:1;marker:none;visibility:visible;display:inline;overflow:visible;enable-background:accumulate" /><g
       transform="scale(0.1,0.1)"
       id="g12"><g
         id="g14"><g
           clip-path="url(#clipPath18)"
           id="g16"><path
             d="m 262.93,382.996 c -0.586,-28.637 2.175,-54.543 2.304,-83.152 l 1.797,-1.223 c 5.567,1.789 11.375,5.121 16.719,6.106 5.566,1.101 10.422,-0.157 14.688,-2.93 4.199,-0.731 7.441,-3.66 10.976,-6.024 1.309,-1.984 4.434,-2.367 4.082,-5.277 1.016,-2.613 2.852,-4.969 6.406,-2.535 2.91,2.031 7.618,2.851 11.739,3.816 0.722,-0.234 3.457,-0.066 6.289,-0.566 8.496,-1.543 12.578,-6.754 17.304,-12.289 -0.175,-2.641 2.09,-3.402 2.871,-5.531 4.649,-4.797 8.848,3.586 14.688,1.629 7.246,1.074 15.508,-2.762 17.48,-3.692 2.071,-1.016 8.536,-6.805 8.536,-13.406 1.66,-38.399 2.48,-72.258 1.054,-111.77 1.426,-20.84 -3.242,-41.062 -18.008,-55.7301 -0.566,-8.75 3.868,-15.918 5.977,-23.8281 0.352,-2.2696 2.441,-8.379 2.441,-8.379 l -166.828,0 c 0,0 0.688,4.7657 0.942,8.086 0.242,3.2773 1.258,10.1367 2.117,15.5078 -4.727,9.1992 -13.234,14.668 -18.762,23.4184 -7.769,9.453 -13.133,19.812 -19.246,30.437 -1.418,6.231 -6.476,11.426 -6.711,18.086 -4.637,9.688 -5.808,20.586 -6.551,31.66 -0.527,29.871 0.164,57.317 1.133,87.531 -0.195,4.926 2.852,14.774 13.809,14.774 10.984,0 13.015,-7.856 13.535,-10.738 4.285,-27.668 2.09,-55.832 7.695,-84.036 3.086,-3.605 6.504,-5.402 11.231,-5.246 4.648,0 7.761,7.649 7.761,7.649 0,0 0.825,4.062 1.106,7.676 2.812,60.679 0,119.375 2.031,180.808 0,3.508 1.719,12.051 14.735,12.141 13.019,0.273 14.328,-8.438 14.66,-12.973"
             id="path22"
             style="fill:#ed1c24;fill-opacity:1;fill-rule:nonzero;stroke:none" /><path
             d="m 274.395,398.383 23.718,0 0,94.953 -93.98,0 0,-94.953 10.855,0 0.129,-14.008 -26.379,0 0,124.547 124.387,0 0,-124.547 -38.855,0 0.125,14.008"
             id="path24"
             style="fill:#ed1c24;fill-opacity:1;fill-rule:nonzero;stroke:none" /><path
             d="m 249.98,413.461 c 16.797,0 30.352,13.34 30.352,30.086 0,16.707 -13.555,30.305 -30.352,30.305 -16.679,0 -30.234,-13.598 -30.234,-30.305 0,-16.746 13.555,-30.086 30.234,-30.086"
             id="path26"
             style="fill:#ed1c24;fill-opacity:1;fill-rule:nonzero;stroke:none" /><path
             d="m 539.023,27.8516 -511.1519,0 0,511.2504 511.1519,0 0,-511.2504 M 566.934,566.93 0,566.93 0,0 l 566.934,0 0,566.93 z"
             id="path28"
             style="fill:#ed1c24;fill-opacity:1;fill-rule:nonzero;stroke:none" /></g></g></g></g></svg>