<?xml version="1.0" encoding="UTF-8" standalone="no"?>
<!-- Created with Inkscape (http://www.inkscape.org/) -->

<svg
   xmlns:dc="http://purl.org/dc/elements/1.1/"
   xmlns:cc="http://creativecommons.org/ns#"
   xmlns:rdf="http://www.w3.org/1999/02/22-rdf-syntax-ns#"
   xmlns:svg="http://www.w3.org/2000/svg"
   xmlns="http://www.w3.org/2000/svg"
   version="1.1"
   width="70.862503"
   height="70.862503"
   id="svg2"
   xml:space="preserve"><metadata
     id="metadata8"><rdf:RDF><cc:Work
         rdf:about=""><dc:format>image/svg+xml</dc:format><dc:type
           rdf:resource="http://purl.org/dc/dcmitype/StillImage" /><dc:title></dc:title></cc:Work></rdf:RDF></metadata><defs
     id="defs6"><clipPath
       id="clipPath18"><path
         d="M 0,566.93 0,0 l 566.934,0 0,566.93 -566.934,0 z"
         id="path20" /></clipPath></defs><g
     transform="matrix(1.25,0,0,-1.25,0,70.8625)"
     id="g10"><g
       transform="scale(0.1,0.1)"
       id="g12"><g
         id="g14"><g
           clip-path="url(#clipPath18)"
           id="g16"><path
             d="m 0,0 566.934,0 0,566.93 L 0,566.93 0,0 z"
             id="path22"
             style="fill:#00a650;fill-opacity:1;fill-rule:nonzero;stroke:none" /><path
             d="m 181.008,196.973 c 0,4.277 -5.086,9.14 -9.172,9.14 -4.137,0 -9.109,-4.863 -9.109,-9.14 0,-4.063 4.972,-9.032 9.109,-9.032 4.086,0 9.172,4.969 9.172,9.032"
             id="path24"
             style="fill:#ffffff;fill-opacity:1;fill-rule:nonzero;stroke:none" /><path
             d="m 178.352,231.066 c 0,4.082 -4.989,9.09 -9.106,9.09 -4.156,0 -9.113,-5.008 -9.113,-9.09 0,-4.101 4.957,-9.16 9.113,-9.16 4.117,0 9.106,5.059 9.106,9.16"
             id="path26"
             style="fill:#ffffff;fill-opacity:1;fill-rule:nonzero;stroke:none" /><path
             d="m 174.848,268.391 c 0,4.109 -4.953,9.074 -9.965,9.074 -5.082,0 -10.016,-4.965 -10.016,-9.074 0,-4.094 4.934,-9.075 10.016,-9.075 5.012,0 9.965,4.981 9.965,9.075"
             id="path28"
             style="fill:#ffffff;fill-opacity:1;fill-rule:nonzero;stroke:none" /><path
             d="m 171.344,307.562 c 0,4.989 -4.949,9.899 -9.961,9.899 -5.035,0 -9.988,-4.91 -9.988,-9.899 0,-5.062 4.953,-10.105 9.988,-10.105 5.012,0 9.961,5.043 9.961,10.105"
             id="path30"
             style="fill:#ffffff;fill-opacity:1;fill-rule:nonzero;stroke:none" /><path
             d="m 127.676,307.562 c 0,4.989 -4.965,9.899 -9.071,9.899 -4.089,0 -9.179,-4.91 -9.179,-9.899 0,-5.062 5.09,-10.105 9.179,-10.105 4.106,0 9.071,5.043 9.071,10.105"
             id="path32"
             style="fill:#ffffff;fill-opacity:1;fill-rule:nonzero;stroke:none" /><path
             d="m 115.465,349.18 c 0,4.902 -4.957,9.922 -9.082,9.922 -4.082,0 -9.0822,-5.02 -9.0822,-9.922 0,-4.965 5.0002,-9.996 9.0822,-9.996 4.125,0 9.082,5.031 9.082,9.996"
             id="path34"
             style="fill:#ffffff;fill-opacity:1;fill-rule:nonzero;stroke:none" /><path
             d="m 95.1719,268.945 c 0.1211,4.141 -4.8047,9.262 -9.7383,9.469 -4.9648,0.125 -10.1914,-4.625 -10.2969,-8.766 -0.1601,-4.101 4.6992,-9.257 9.6524,-9.453 5.0195,-0.156 10.2226,4.688 10.3828,8.75"
             id="path36"
             style="fill:#ffffff;fill-opacity:1;fill-rule:nonzero;stroke:none" /><path
             d="m 34.7812,391.895 c 0.1719,4.136 -4.6874,9.164 -9.6523,9.378 -5.0859,0.165 -10.1484,-4.562 -10.3086,-8.636 -0.1172,-4.16 4.6133,-9.449 9.6328,-9.625 4.9649,-0.223 10.211,4.742 10.3281,8.883"
             id="path38"
             style="fill:#ffffff;fill-opacity:1;fill-rule:nonzero;stroke:none" /><path
             d="m 56.8789,351.121 c 0.2149,4.949 -4.6445,10.094 -8.7383,10.258 -4.1367,0.129 -9.3164,-4.707 -9.4804,-9.609 -0.1602,-5.008 4.621,-10.211 8.7617,-10.383 4.125,-0.117 9.2734,4.75 9.457,9.734"
             id="path40"
             style="fill:#ffffff;fill-opacity:1;fill-rule:nonzero;stroke:none" /><path
             d="m 78.1602,308.711 c 0.1718,5 -4.6446,10.051 -9.6094,10.266 -5.0664,0.16 -10.1914,-4.59 -10.3711,-9.524 -0.1602,-5.039 4.5781,-10.289 9.6523,-10.461 5.0196,-0.16 10.1641,4.707 10.3282,9.719"
             id="path42"
             style="fill:#ffffff;fill-opacity:1;fill-rule:nonzero;stroke:none" /><path
             d="m 138.207,268.391 c 0,4.109 -4.977,9.074 -9.992,9.074 -5.031,0 -9.988,-4.965 -9.988,-9.074 0,-4.094 4.957,-9.075 9.988,-9.075 5.015,0 9.992,4.981 9.992,9.075"
             id="path44"
             style="fill:#ffffff;fill-opacity:1;fill-rule:nonzero;stroke:none" /><path
             d="m 146.039,231.066 c 0,4.082 -4.941,9.09 -9.98,9.09 -4.926,0 -10.051,-5.008 -10.051,-9.09 0,-4.101 5.125,-9.16 10.051,-9.16 5.039,0 9.98,5.059 9.98,9.16"
             id="path46"
             style="fill:#ffffff;fill-opacity:1;fill-rule:nonzero;stroke:none" /><path
             d="m 151.309,196.973 c 0,4.277 -4.985,9.14 -10.047,9.14 -4.969,0 -9.989,-4.863 -9.989,-9.14 0,-4.063 5.02,-9.032 9.989,-9.032 5.062,0 10.047,4.969 10.047,9.032"
             id="path48"
             style="fill:#ffffff;fill-opacity:1;fill-rule:nonzero;stroke:none" /><path
             d="m 118.129,196.797 c 0.098,4.199 -4.695,9.23 -8.867,9.375 -4.125,0.156 -9.305,-4.578 -9.4143,-8.77 -0.1602,-4.168 4.6643,-9.285 8.7893,-9.433 4.172,-0.106 9.332,4.621 9.492,8.828"
             id="path50"
             style="fill:#ffffff;fill-opacity:1;fill-rule:nonzero;stroke:none" /><path
             d="m 108.574,231.172 c 0.172,4.043 -4.566,9.199 -8.7068,9.375 -4.1602,0.109 -9.3242,-4.668 -9.5,-8.817 -0.1094,-4.082 4.7305,-9.257 8.8672,-9.433 4.0936,-0.149 9.2226,4.687 9.3396,8.875"
             id="path52"
             style="fill:#ffffff;fill-opacity:1;fill-rule:nonzero;stroke:none" /><path
             d="m 211.52,307.562 c 0,4.989 -5.082,9.899 -10.004,9.899 -4.86,0 -9.996,-4.91 -9.996,-9.899 0,-5.062 5.136,-10.105 9.996,-10.105 4.922,0 10.004,5.043 10.004,10.105"
             id="path54"
             style="fill:#ffffff;fill-opacity:1;fill-rule:nonzero;stroke:none" /><path
             d="m 211.52,268.391 c 0,4.109 -5.082,9.074 -10.004,9.074 -4.86,0 -9.996,-4.965 -9.996,-9.074 0,-4.094 5.136,-9.075 9.996,-9.075 4.922,0 10.004,4.981 10.004,9.075"
             id="path56"
             style="fill:#ffffff;fill-opacity:1;fill-rule:nonzero;stroke:none" /><path
             d="m 211.52,231.066 c 0,4.082 -5.082,9.09 -10.004,9.09 -4.86,0 -9.996,-5.008 -9.996,-9.09 0,-4.101 5.136,-9.16 9.996,-9.16 4.922,0 10.004,5.059 10.004,9.16"
             id="path58"
             style="fill:#ffffff;fill-opacity:1;fill-rule:nonzero;stroke:none" /><path
             d="m 211.52,196.973 c 0,4.277 -5.082,9.14 -10.004,9.14 -4.86,0 -9.996,-4.863 -9.996,-9.14 0,-4.063 5.136,-9.032 9.996,-9.032 4.922,0 10.004,4.969 10.004,9.032"
             id="path60"
             style="fill:#ffffff;fill-opacity:1;fill-rule:nonzero;stroke:none" /><path
             d="m 313.43,231.711 c -0.129,4.168 -5.227,8.906 -9.27,8.73 -4.18,-0.109 -8.965,-5.246 -8.848,-9.328 0.184,-4.148 5.254,-9.051 9.454,-8.855 4.148,0.144 8.839,5.332 8.664,9.453"
             id="path62"
             style="fill:#ffffff;fill-opacity:1;fill-rule:nonzero;stroke:none" /><path
             d="m 304.016,196.973 c 0,4.277 -4.934,9.14 -9.016,9.14 -4.141,0 -9.16,-4.863 -9.16,-9.14 0,-4.063 5.019,-9.032 9.16,-9.032 4.082,0 9.016,4.969 9.016,9.032"
             id="path64"
             style="fill:#ffffff;fill-opacity:1;fill-rule:nonzero;stroke:none" /><path
             d="m 270.844,196.973 c 0,4.277 -4.985,9.14 -9.067,9.14 -4.086,0 -9.105,-4.863 -9.105,-9.14 0,-4.063 5.019,-9.032 9.105,-9.032 4.082,0 9.067,4.969 9.067,9.032"
             id="path66"
             style="fill:#ffffff;fill-opacity:1;fill-rule:nonzero;stroke:none" /><path
             d="m 276.133,231.066 c 0,4.082 -5.082,9.09 -9.156,9.09 -4.133,0 -9.09,-5.008 -9.09,-9.09 0,-4.101 4.957,-9.16 9.09,-9.16 4.074,0 9.156,5.059 9.156,9.16"
             id="path68"
             style="fill:#ffffff;fill-opacity:1;fill-rule:nonzero;stroke:none" /><path
             d="m 284.809,268.391 c 0,4.109 -4.938,9.074 -9.922,9.074 -5.082,0 -10.047,-4.965 -10.047,-9.074 0,-4.094 4.965,-9.075 10.047,-9.075 4.984,0 9.922,4.981 9.922,9.075"
             id="path70"
             style="fill:#ffffff;fill-opacity:1;fill-rule:nonzero;stroke:none" /><path
             d="m 344.836,309.391 c -0.148,4.964 -5.332,9.691 -10.344,9.492 -4.922,-0.121 -9.797,-5.289 -9.629,-10.215 0.176,-5.082 5.379,-9.941 10.364,-9.746 4.941,0.16 9.839,5.387 9.609,10.469"
             id="path72"
             style="fill:#ffffff;fill-opacity:1;fill-rule:nonzero;stroke:none" /><path
             d="m 365.254,351.73 c -0.215,4.911 -5.391,9.747 -9.484,9.582 -4.122,-0.14 -8.895,-5.285 -8.739,-10.191 0.164,-4.984 5.332,-9.894 9.453,-9.734 4.063,0.172 8.926,5.375 8.77,10.343"
             id="path74"
             style="fill:#ffffff;fill-opacity:1;fill-rule:nonzero;stroke:none" /><path
             d="m 388.215,392.516 c -0.149,4.078 -5.285,8.793 -10.235,8.668 -4.984,-0.215 -9.843,-5.25 -9.738,-9.332 0.176,-4.141 5.371,-9.125 10.32,-8.957 5.051,0.171 9.778,5.484 9.653,9.621"
             id="path76"
             style="fill:#ffffff;fill-opacity:1;fill-rule:nonzero;stroke:none" /><path
             d="m 326.992,269.59 c -0.129,4.082 -5.281,8.824 -9.394,8.762 -4.082,-0.196 -8.938,-5.325 -8.828,-9.446 0.168,-4.07 5.39,-8.906 9.433,-8.758 4.082,0.133 8.945,5.301 8.789,9.442"
             id="path78"
             style="fill:#ffffff;fill-opacity:1;fill-rule:nonzero;stroke:none" /><path
             d="m 306.68,349.18 c 0,4.902 -5.032,9.922 -9.082,9.922 -4.114,0 -9.207,-5.02 -9.207,-9.922 0,-4.965 5.093,-9.996 9.207,-9.996 4.05,0 9.082,5.031 9.082,9.996"
             id="path80"
             style="fill:#ffffff;fill-opacity:1;fill-rule:nonzero;stroke:none" /><path
             d="m 294.473,307.562 c 0,4.989 -4.981,9.899 -9.161,9.899 -4.089,0 -9.101,-4.91 -9.101,-9.899 0,-5.062 5.012,-10.105 9.101,-10.105 4.18,0 9.161,5.043 9.161,10.105"
             id="path82"
             style="fill:#ffffff;fill-opacity:1;fill-rule:nonzero;stroke:none" /><path
             d="m 251.684,307.562 c 0,4.989 -5,9.899 -9.942,9.899 -5.054,0 -10.07,-4.91 -10.07,-9.899 0,-5.062 5.016,-10.105 10.07,-10.105 4.942,0 9.942,5.043 9.942,10.105"
             id="path84"
             style="fill:#ffffff;fill-opacity:1;fill-rule:nonzero;stroke:none" /><path
             d="m 247.32,268.391 c 0,4.109 -4.965,9.074 -9.172,9.074 -4.046,0 -9.011,-4.965 -9.011,-9.074 0,-4.094 4.965,-9.075 9.011,-9.075 4.207,0 9.172,4.981 9.172,9.075"
             id="path86"
             style="fill:#ffffff;fill-opacity:1;fill-rule:nonzero;stroke:none" /><path
             d="m 243.805,231.066 c 0,4.082 -4.989,9.09 -9.075,9.09 -4.132,0 -9.132,-5.008 -9.132,-9.09 0,-4.101 5,-9.16 9.132,-9.16 4.086,0 9.075,5.059 9.075,9.16"
             id="path88"
             style="fill:#ffffff;fill-opacity:1;fill-rule:nonzero;stroke:none" /><path
             d="m 241.184,196.973 c 0,4.277 -4.957,9.14 -9.094,9.14 -4.125,0 -9.117,-4.863 -9.117,-9.14 0,-4.063 4.992,-9.032 9.117,-9.032 4.137,0 9.094,4.969 9.094,9.032"
             id="path90"
             style="fill:#ffffff;fill-opacity:1;fill-rule:nonzero;stroke:none" /><path
             d="m 354.16,457.855 c -30.84,54.879 -89.437,88.762 -152.644,88.762 -63.125,0 -121.0121,-33.883 -152.6137,-88.762 31.6016,-54.804 89.4887,-88.675 152.6137,-88.675 63.207,0 121.804,33.871 153.464,88.675 l -0.82,0"
             id="path92"
             style="fill:#ffffff;fill-opacity:1;fill-rule:nonzero;stroke:none" /><path
             d="m 230.094,15.8398 0,68.3399 c 1.504,21.8473 18.793,39.1013 40.625,40.6253 24.808,0.754 45.14,21.757 45.14,46.633 0,1.433 0,2.273 -0.754,2.917 l -227.1323,0 c 0,-0.644 0,-1.484 0,-2.917 0,-24.876 19.5393,-45.879 45.1093,-46.633 21.852,-1.524 39.109,-18.778 39.844,-40.6253 l 0,-68.3399 57.168,0"
             id="path94"
             style="fill:#ffffff;fill-opacity:1;fill-rule:nonzero;stroke:none" /><path
             d="m 235.367,475.902 c 0,18.786 -16.594,35.231 -35.347,35.231 -18.797,0 -35.332,-16.445 -35.332,-35.231 0,-18.812 16.535,-35.382 35.332,-35.382 18.753,0 35.347,16.57 35.347,35.382"
             id="path96"
             style="fill:#00a650;fill-opacity:1;fill-rule:nonzero;stroke:none" /><path
             d="m 139.871,496.988 c -18.719,-9.039 -35.359,-22.633 -48.1171,-39.133 26.3051,-33.878 66.9301,-53.429 109.7621,-53.429 42.894,0 83.457,19.551 110.562,53.429 -14.363,17.282 -32.312,31.524 -52.652,40.625 3.023,-6.835 3.801,-14.343 3.801,-22.578 0,-34.59 -27.86,-63.105 -63.207,-63.105 -35.332,0 -63.125,28.515 -63.125,63.105 0,7.528 0.699,14.239 2.976,21.086"
             id="path98"
             style="fill:#00a650;fill-opacity:1;fill-rule:nonzero;stroke:none" /><path
             d="m 493.496,393.461 0,43.934 c 0,1.769 1.875,3.125 3.723,3.125 l 43.804,0 c 1.789,0 3.723,1.742 3.723,3.546 l 0,43.918 c 0,1.891 -1.934,3.633 -3.723,3.633 l -43.804,0 c -1.848,0 -3.723,1.192 -3.723,3.016 l 0,43.914 c 0,1.824 -1.184,3.598 -3.008,3.598 l -43.847,0 c -1.844,0 -3.68,-1.774 -3.68,-3.598 l 0,-43.914 c 0,-1.824 -1.223,-3.016 -3.637,-3.016 l -43.269,0 c -2.383,0 -3.653,-1.742 -3.653,-3.633 l 0,-43.918 c 0,-1.804 1.27,-3.546 3.653,-3.546 l 43.269,0 c 2.414,0 3.637,-1.356 3.637,-3.125 l 0,-43.934 c 0,-1.727 1.836,-3.559 3.68,-3.559 l 43.847,0 c 1.824,0 3.008,1.832 3.008,3.559"
             id="path100"
             style="fill:#ffffff;fill-opacity:1;fill-rule:nonzero;stroke:none" /></g></g></g></g></svg>