<?xml version="1.0" encoding="UTF-8" standalone="no"?>
<!-- Created with Inkscape (http://www.inkscape.org/) -->

<svg
   xmlns:dc="http://purl.org/dc/elements/1.1/"
   xmlns:cc="http://creativecommons.org/ns#"
   xmlns:rdf="http://www.w3.org/1999/02/22-rdf-syntax-ns#"
   xmlns:svg="http://www.w3.org/2000/svg"
   xmlns="http://www.w3.org/2000/svg"
   version="1.1"
   width="70.862503"
   height="70.862503"
   id="svg2"
   xml:space="preserve"><metadata
     id="metadata8"><rdf:RDF><cc:Work
         rdf:about=""><dc:format>image/svg+xml</dc:format><dc:type
           rdf:resource="http://purl.org/dc/dcmitype/StillImage" /><dc:title></dc:title></cc:Work></rdf:RDF></metadata><defs
     id="defs6"><clipPath
       id="clipPath18"><path
         d="M 0,566.93 0,0 l 566.934,0 0,566.93 -566.934,0 z"
         id="path20" /></clipPath></defs><g
     transform="matrix(1.25,0,0,-1.25,0,70.8625)"
     id="g10"><g
       transform="scale(0.1,0.1)"
       id="g12"><g
         id="g14"><g
           clip-path="url(#clipPath18)"
           id="g16"><path
             d="m 0,0 566.934,0 0,566.93 L 0,566.93 0,0 z"
             id="path22"
             style="fill:#00a650;fill-opacity:1;fill-rule:nonzero;stroke:none" /><path
             d="m 312.578,481.23 c 0,3.793 -4.773,8.325 -8.469,8.325 -3.855,0 -8.562,-4.532 -8.562,-8.325 0,-3.835 4.707,-8.402 8.562,-8.402 3.696,0 8.469,4.567 8.469,8.402"
             id="path24"
             style="fill:#ffffff;fill-opacity:1;fill-rule:nonzero;stroke:none" /><path
             d="m 325.398,444.477 c 0,3.699 -4.675,8.371 -8.574,8.371 -3.687,0 -8.347,-4.672 -8.347,-8.371 0,-3.832 4.66,-8.52 8.347,-8.52 3.899,0 8.574,4.688 8.574,8.52"
             id="path26"
             style="fill:#ffffff;fill-opacity:1;fill-rule:nonzero;stroke:none" /><path
             d="m 338.23,407.562 c 0,4.622 -4.722,9.286 -8.511,9.286 -3.762,0 -8.457,-4.664 -8.457,-9.286 0,-4.628 4.695,-9.257 8.457,-9.257 3.789,0 8.511,4.629 8.511,9.257"
             id="path28"
             style="fill:#ffffff;fill-opacity:1;fill-rule:nonzero;stroke:none" /><path
             d="m 351.035,371.555 c 0,3.793 -4.687,8.539 -8.508,8.539 -3.804,0 -8.465,-4.746 -8.465,-8.539 0,-3.7 4.661,-8.434 8.465,-8.434 3.821,0 8.508,4.734 8.508,8.434"
             id="path30"
             style="fill:#ffffff;fill-opacity:1;fill-rule:nonzero;stroke:none" /><path
             d="m 363.801,334.844 c 0,4.664 -4.543,9.261 -9.223,9.261 -4.707,0 -9.39,-4.597 -9.39,-9.261 0,-4.727 4.683,-9.379 9.39,-9.379 4.68,0 9.223,4.652 9.223,9.379"
             id="path32"
             style="fill:#ffffff;fill-opacity:1;fill-rule:nonzero;stroke:none" /><path
             d="m 376.602,298.789 c 0,3.891 -4.582,8.52 -9.258,8.52 -4.668,0 -9.199,-4.629 -9.199,-8.52 0,-3.75 4.531,-8.316 9.199,-8.316 4.676,0 9.258,4.566 9.258,8.316"
             id="path34"
             style="fill:#ffffff;fill-opacity:1;fill-rule:nonzero;stroke:none" /><path
             d="m 389.551,262.109 c 0,4.661 -4.766,9.356 -9.422,9.356 -4.621,0 -9.27,-4.695 -9.27,-9.356 0,-4.675 4.649,-9.257 9.27,-9.257 4.656,0 9.422,4.582 9.422,9.257"
             id="path36"
             style="fill:#ffffff;fill-opacity:1;fill-rule:nonzero;stroke:none" /><path
             d="m 279.145,481.23 c 0,3.793 -4.715,8.325 -8.477,8.325 -3.734,0 -8.441,-4.532 -8.441,-8.325 0,-3.835 4.707,-8.402 8.441,-8.402 3.762,0 8.477,4.567 8.477,8.402"
             id="path38"
             style="fill:#ffffff;fill-opacity:1;fill-rule:nonzero;stroke:none" /><path
             d="m 289.449,444.477 c 0,3.699 -4.769,8.371 -9.39,8.371 -4.637,0 -9.293,-4.672 -9.293,-8.371 0,-3.832 4.656,-8.52 9.293,-8.52 4.621,0 9.39,4.688 9.39,8.52"
             id="path40"
             style="fill:#ffffff;fill-opacity:1;fill-rule:nonzero;stroke:none" /><path
             d="m 309.055,371.555 c 0,3.793 -4.582,8.539 -9.282,8.539 -4.636,0 -9.335,-4.746 -9.335,-8.539 0,-3.7 4.699,-8.434 9.335,-8.434 4.7,0 9.282,4.734 9.282,8.434"
             id="path42"
             style="fill:#ffffff;fill-opacity:1;fill-rule:nonzero;stroke:none" /><path
             d="m 298.848,407.562 c 0,4.622 -4.746,9.286 -8.457,9.286 -3.797,0 -8.496,-4.664 -8.496,-9.286 0,-4.628 4.699,-9.257 8.496,-9.257 3.711,0 8.457,4.629 8.457,9.257"
             id="path44"
             style="fill:#ffffff;fill-opacity:1;fill-rule:nonzero;stroke:none" /><path
             d="m 242.258,444.477 c 0,3.699 -4.531,8.371 -8.418,8.371 -3.828,0 -8.406,-4.672 -8.406,-8.371 0,-3.832 4.578,-8.52 8.406,-8.52 3.887,0 8.418,4.688 8.418,8.52"
             id="path46"
             style="fill:#ffffff;fill-opacity:1;fill-rule:nonzero;stroke:none" /><path
             d="m 242.258,481.23 c 0,3.793 -4.531,8.325 -8.418,8.325 -3.828,0 -8.406,-4.532 -8.406,-8.325 0,-3.835 4.578,-8.402 8.406,-8.402 3.887,0 8.418,4.567 8.418,8.402"
             id="path48"
             style="fill:#ffffff;fill-opacity:1;fill-rule:nonzero;stroke:none" /><path
             d="m 95.9492,262.109 c 0,4.661 -4.5976,9.356 -8.3906,9.356 -3.9102,0 -8.5156,-4.695 -8.5156,-9.356 0,-4.675 4.6054,-9.257 8.5156,-9.257 3.793,0 8.3906,4.582 8.3906,9.257"
             id="path50"
             style="fill:#ffffff;fill-opacity:1;fill-rule:nonzero;stroke:none" /><path
             d="m 108.801,298.789 c 0,3.891 -4.582,8.52 -8.449,8.52 -3.7895,0 -8.4067,-4.629 -8.4067,-8.52 0,-3.75 4.6172,-8.316 8.4067,-8.316 3.867,0 8.449,4.566 8.449,8.316"
             id="path52"
             style="fill:#ffffff;fill-opacity:1;fill-rule:nonzero;stroke:none" /><path
             d="m 121.602,334.844 c 0,4.664 -4.575,9.261 -8.36,9.261 -3.906,0 -8.472,-4.597 -8.472,-9.261 0,-4.727 4.566,-9.379 8.472,-9.379 3.785,0 8.36,4.652 8.36,9.379"
             id="path54"
             style="fill:#ffffff;fill-opacity:1;fill-rule:nonzero;stroke:none" /><path
             d="m 176.332,371.555 c 0,3.793 -4.562,8.539 -8.312,8.539 -3.887,0 -8.454,-4.746 -8.454,-8.539 0,-3.7 4.567,-8.434 8.454,-8.434 3.75,0 8.312,4.734 8.312,8.434"
             id="path56"
             style="fill:#ffffff;fill-opacity:1;fill-rule:nonzero;stroke:none" /><path
             d="m 134.512,371.555 c 0,3.793 -4.617,8.539 -8.516,8.539 -3.762,0 -8.379,-4.746 -8.379,-8.539 0,-3.7 4.617,-8.434 8.379,-8.434 3.899,0 8.516,4.734 8.516,8.434"
             id="path58"
             style="fill:#ffffff;fill-opacity:1;fill-rule:nonzero;stroke:none" /><path
             d="m 147.348,407.562 c 0,4.622 -4.703,9.286 -9.301,9.286 -4.649,0 -9.27,-4.664 -9.27,-9.286 0,-4.628 4.621,-9.257 9.27,-9.257 4.598,0 9.301,4.629 9.301,9.257"
             id="path60"
             style="fill:#ffffff;fill-opacity:1;fill-rule:nonzero;stroke:none" /><path
             d="m 186.734,407.562 c 0,4.622 -4.632,9.286 -9.425,9.286 -4.575,0 -9.247,-4.664 -9.247,-9.286 0,-4.628 4.672,-9.257 9.247,-9.257 4.793,0 9.425,4.629 9.425,9.257"
             id="path62"
             style="fill:#ffffff;fill-opacity:1;fill-rule:nonzero;stroke:none" /><path
             d="m 196.09,444.477 c 0,3.699 -4.61,8.371 -8.457,8.371 -3.781,0 -8.41,-4.672 -8.41,-8.371 0,-3.832 4.629,-8.52 8.41,-8.52 3.847,0 8.457,4.688 8.457,8.52"
             id="path64"
             style="fill:#ffffff;fill-opacity:1;fill-rule:nonzero;stroke:none" /><path
             d="m 160.145,444.477 c 0,3.699 -4.684,8.371 -9.29,8.371 -4.632,0 -9.335,-4.672 -9.335,-8.371 0,-3.832 4.703,-8.52 9.335,-8.52 4.606,0 9.29,4.688 9.29,8.52"
             id="path66"
             style="fill:#ffffff;fill-opacity:1;fill-rule:nonzero;stroke:none" /><path
             d="m 173.059,481.23 c 0,3.793 -4.696,8.325 -9.329,8.325 -4.691,0 -9.382,-4.532 -9.382,-8.325 0,-3.835 4.691,-8.402 9.382,-8.402 4.633,0 9.329,4.567 9.329,8.402"
             id="path68"
             style="fill:#ffffff;fill-opacity:1;fill-rule:nonzero;stroke:none" /><path
             d="m 206.43,481.23 c 0,3.793 -4.692,8.325 -9.328,8.325 -4.657,0 -9.329,-4.532 -9.329,-8.325 0,-3.835 4.672,-8.402 9.329,-8.402 4.636,0 9.328,4.567 9.328,8.402"
             id="path70"
             style="fill:#ffffff;fill-opacity:1;fill-rule:nonzero;stroke:none" /><path
             d="m 249.605,25.4609 0,0"
             id="path72"
             style="fill:#ffffff;fill-opacity:1;fill-rule:nonzero;stroke:none" /><path
             d="m 0,0 566.934,0 0,566.93 L 0,566.93 0,0 z"
             id="path74"
             style="fill:#00a650;fill-opacity:1;fill-rule:nonzero;stroke:none" /><path
             d="m 312.578,481.23 c 0,3.793 -4.773,8.325 -8.469,8.325 -3.855,0 -8.562,-4.532 -8.562,-8.325 0,-3.835 4.707,-8.402 8.562,-8.402 3.696,0 8.469,4.567 8.469,8.402"
             id="path76"
             style="fill:#ffffff;fill-opacity:1;fill-rule:nonzero;stroke:none" /><path
             d="m 325.398,444.477 c 0,3.699 -4.675,8.371 -8.574,8.371 -3.687,0 -8.347,-4.672 -8.347,-8.371 0,-3.832 4.66,-8.52 8.347,-8.52 3.899,0 8.574,4.688 8.574,8.52"
             id="path78"
             style="fill:#ffffff;fill-opacity:1;fill-rule:nonzero;stroke:none" /><path
             d="m 338.23,407.562 c 0,4.622 -4.722,9.286 -8.511,9.286 -3.762,0 -8.457,-4.664 -8.457,-9.286 0,-4.628 4.695,-9.257 8.457,-9.257 3.789,0 8.511,4.629 8.511,9.257"
             id="path80"
             style="fill:#ffffff;fill-opacity:1;fill-rule:nonzero;stroke:none" /><path
             d="m 351.035,371.555 c 0,3.793 -4.687,8.539 -8.508,8.539 -3.804,0 -8.465,-4.746 -8.465,-8.539 0,-3.7 4.661,-8.434 8.465,-8.434 3.821,0 8.508,4.734 8.508,8.434"
             id="path82"
             style="fill:#ffffff;fill-opacity:1;fill-rule:nonzero;stroke:none" /><path
             d="m 363.801,334.844 c 0,4.664 -4.543,9.261 -9.223,9.261 -4.707,0 -9.39,-4.597 -9.39,-9.261 0,-4.727 4.683,-9.379 9.39,-9.379 4.68,0 9.223,4.652 9.223,9.379"
             id="path84"
             style="fill:#ffffff;fill-opacity:1;fill-rule:nonzero;stroke:none" /><path
             d="m 376.602,298.789 c 0,3.891 -4.582,8.52 -9.258,8.52 -4.668,0 -9.199,-4.629 -9.199,-8.52 0,-3.75 4.531,-8.316 9.199,-8.316 4.676,0 9.258,4.566 9.258,8.316"
             id="path86"
             style="fill:#ffffff;fill-opacity:1;fill-rule:nonzero;stroke:none" /><path
             d="m 389.551,262.109 c 0,4.661 -4.766,9.356 -9.422,9.356 -4.621,0 -9.27,-4.695 -9.27,-9.356 0,-4.675 4.649,-9.257 9.27,-9.257 4.656,0 9.422,4.582 9.422,9.257"
             id="path88"
             style="fill:#ffffff;fill-opacity:1;fill-rule:nonzero;stroke:none" /><path
             d="m 279.145,481.23 c 0,3.793 -4.715,8.325 -8.477,8.325 -3.734,0 -8.441,-4.532 -8.441,-8.325 0,-3.835 4.707,-8.402 8.441,-8.402 3.762,0 8.477,4.567 8.477,8.402"
             id="path90"
             style="fill:#ffffff;fill-opacity:1;fill-rule:nonzero;stroke:none" /><path
             d="m 289.449,444.477 c 0,3.699 -4.769,8.371 -9.39,8.371 -4.637,0 -9.293,-4.672 -9.293,-8.371 0,-3.832 4.656,-8.52 9.293,-8.52 4.621,0 9.39,4.688 9.39,8.52"
             id="path92"
             style="fill:#ffffff;fill-opacity:1;fill-rule:nonzero;stroke:none" /><path
             d="m 309.055,371.555 c 0,3.793 -4.582,8.539 -9.282,8.539 -4.636,0 -9.335,-4.746 -9.335,-8.539 0,-3.7 4.699,-8.434 9.335,-8.434 4.7,0 9.282,4.734 9.282,8.434"
             id="path94"
             style="fill:#ffffff;fill-opacity:1;fill-rule:nonzero;stroke:none" /><path
             d="m 298.848,407.562 c 0,4.622 -4.746,9.286 -8.457,9.286 -3.797,0 -8.496,-4.664 -8.496,-9.286 0,-4.628 4.699,-9.257 8.496,-9.257 3.711,0 8.457,4.629 8.457,9.257"
             id="path96"
             style="fill:#ffffff;fill-opacity:1;fill-rule:nonzero;stroke:none" /><path
             d="m 242.258,444.477 c 0,3.699 -4.531,8.371 -8.418,8.371 -3.828,0 -8.406,-4.672 -8.406,-8.371 0,-3.832 4.578,-8.52 8.406,-8.52 3.887,0 8.418,4.688 8.418,8.52"
             id="path98"
             style="fill:#ffffff;fill-opacity:1;fill-rule:nonzero;stroke:none" /><path
             d="m 242.258,481.23 c 0,3.793 -4.531,8.325 -8.418,8.325 -3.828,0 -8.406,-4.532 -8.406,-8.325 0,-3.835 4.578,-8.402 8.406,-8.402 3.887,0 8.418,4.567 8.418,8.402"
             id="path100"
             style="fill:#ffffff;fill-opacity:1;fill-rule:nonzero;stroke:none" /><path
             d="m 95.9492,262.109 c 0,4.661 -4.5976,9.356 -8.3906,9.356 -3.9102,0 -8.5156,-4.695 -8.5156,-9.356 0,-4.675 4.6054,-9.257 8.5156,-9.257 3.793,0 8.3906,4.582 8.3906,9.257"
             id="path102"
             style="fill:#ffffff;fill-opacity:1;fill-rule:nonzero;stroke:none" /><path
             d="m 108.801,298.789 c 0,3.891 -4.582,8.52 -8.449,8.52 -3.7895,0 -8.4067,-4.629 -8.4067,-8.52 0,-3.75 4.6172,-8.316 8.4067,-8.316 3.867,0 8.449,4.566 8.449,8.316"
             id="path104"
             style="fill:#ffffff;fill-opacity:1;fill-rule:nonzero;stroke:none" /><path
             d="m 121.602,334.844 c 0,4.664 -4.575,9.261 -8.36,9.261 -3.906,0 -8.472,-4.597 -8.472,-9.261 0,-4.727 4.566,-9.379 8.472,-9.379 3.785,0 8.36,4.652 8.36,9.379"
             id="path106"
             style="fill:#ffffff;fill-opacity:1;fill-rule:nonzero;stroke:none" /><path
             d="m 176.332,371.555 c 0,3.793 -4.562,8.539 -8.312,8.539 -3.887,0 -8.454,-4.746 -8.454,-8.539 0,-3.7 4.567,-8.434 8.454,-8.434 3.75,0 8.312,4.734 8.312,8.434"
             id="path108"
             style="fill:#ffffff;fill-opacity:1;fill-rule:nonzero;stroke:none" /><path
             d="m 134.512,371.555 c 0,3.793 -4.617,8.539 -8.516,8.539 -3.762,0 -8.379,-4.746 -8.379,-8.539 0,-3.7 4.617,-8.434 8.379,-8.434 3.899,0 8.516,4.734 8.516,8.434"
             id="path110"
             style="fill:#ffffff;fill-opacity:1;fill-rule:nonzero;stroke:none" /><path
             d="m 147.348,407.562 c 0,4.622 -4.703,9.286 -9.301,9.286 -4.649,0 -9.27,-4.664 -9.27,-9.286 0,-4.628 4.621,-9.257 9.27,-9.257 4.598,0 9.301,4.629 9.301,9.257"
             id="path112"
             style="fill:#ffffff;fill-opacity:1;fill-rule:nonzero;stroke:none" /><path
             d="m 186.734,407.562 c 0,4.622 -4.632,9.286 -9.425,9.286 -4.575,0 -9.247,-4.664 -9.247,-9.286 0,-4.628 4.672,-9.257 9.247,-9.257 4.793,0 9.425,4.629 9.425,9.257"
             id="path114"
             style="fill:#ffffff;fill-opacity:1;fill-rule:nonzero;stroke:none" /><path
             d="m 196.09,444.477 c 0,3.699 -4.61,8.371 -8.457,8.371 -3.781,0 -8.41,-4.672 -8.41,-8.371 0,-3.832 4.629,-8.52 8.41,-8.52 3.847,0 8.457,4.688 8.457,8.52"
             id="path116"
             style="fill:#ffffff;fill-opacity:1;fill-rule:nonzero;stroke:none" /><path
             d="m 160.145,444.477 c 0,3.699 -4.684,8.371 -9.29,8.371 -4.632,0 -9.335,-4.672 -9.335,-8.371 0,-3.832 4.703,-8.52 9.335,-8.52 4.606,0 9.29,4.688 9.29,8.52"
             id="path118"
             style="fill:#ffffff;fill-opacity:1;fill-rule:nonzero;stroke:none" /><path
             d="m 173.059,481.23 c 0,3.793 -4.696,8.325 -9.329,8.325 -4.691,0 -9.382,-4.532 -9.382,-8.325 0,-3.835 4.691,-8.402 9.382,-8.402 4.633,0 9.329,4.567 9.329,8.402"
             id="path120"
             style="fill:#ffffff;fill-opacity:1;fill-rule:nonzero;stroke:none" /><path
             d="m 206.43,481.23 c 0,3.793 -4.692,8.325 -9.328,8.325 -4.657,0 -9.329,-4.532 -9.329,-8.325 0,-3.835 4.672,-8.402 9.329,-8.402 4.636,0 9.328,4.567 9.328,8.402"
             id="path122"
             style="fill:#ffffff;fill-opacity:1;fill-rule:nonzero;stroke:none" /><path
             d="m 218.344,560.215 c 0,-12.172 -9.793,-22.035 -21.934,-22.777 -13.758,-0.891 -24.394,-12.29 -24.394,-25.247 0,-0.921 0,-1.535 0,-1.535 l 123.714,0 c 0,0 0,0.614 0,1.535 0,12.957 -10.625,24.356 -24.375,25.247 -12.289,0.742 -21.984,10.605 -21.984,22.777 l -31.027,0"
             id="path124"
             style="fill:#ffffff;fill-opacity:1;fill-rule:nonzero;stroke:none" /><path
             d="m 249.605,25.4609 0,0"
             id="path126"
             style="fill:#ffffff;fill-opacity:1;fill-rule:nonzero;stroke:none" /><path
             d="m 234.547,335.133 c -16.93,0 -30.617,13.719 -30.617,30.691 0,16.988 13.687,30.676 30.617,30.676 16.973,0 30.68,-13.688 30.68,-30.676 0,-16.972 -13.707,-30.691 -30.68,-30.691"
             id="path128"
             style="fill:#ffffff;fill-opacity:1;fill-rule:nonzero;stroke:none" /><path
             d="m 152.883,190.996 1,109.586 c 0,15.055 12.469,27.27 27.863,27.27 l 103.406,0 c 15.434,0 27.985,-12.215 27.985,-27.27 l 0.965,-109.586 -0.286,0 c 0,-4.492 -3.543,-8.125 -8.093,-8.125 l -10.828,0 c -4.211,0 -8.036,3.633 -8.036,8.125 l 0,89.371 c 0,1.676 -3.73,1.762 -3.984,1.762 -0.195,0 -7.734,-0.086 -7.734,-1.762 l 0,-242.7889 -0.079,0 c 0,-4.9023 -3.91,-8.7695 -8.718,-8.7695 l -15.664,0 c -4.719,0 -8.754,3.8672 -8.754,8.7695 l 0,136.6989 c 0,2.063 -7.145,2.774 -8.453,2.774 -1.246,0 -8.414,-0.711 -8.414,-2.774 l 0,-136.6989 -0.125,0 c 0,-4.9023 -3.914,-8.7695 -8.672,-8.7695 l -15.703,0 c -4.664,0 -8.758,3.8672 -8.758,8.7695 l 0,242.7889 c 0,1.676 -3.75,1.762 -3.903,1.762 -0.265,0 -7.839,-0.086 -7.839,-1.762 l 0,-89.371 -0.254,0 c 0,-4.492 -3.504,-8.125 -7.993,-8.125 l -10.894,0 c -4.188,0 -8.035,3.633 -8.035,8.125"
             id="path130"
             style="fill:#ffffff;fill-opacity:1;fill-rule:nonzero;stroke:none" /><path
             d="m 493.535,393.555 0,43.879 c 0,1.824 1.809,3.078 3.699,3.078 l 43.813,0 c 1.797,0 3.672,1.808 3.672,3.601 l 0,43.867 c 0,1.868 -1.875,3.606 -3.672,3.606 l -43.813,0 c -1.89,0 -3.699,1.258 -3.699,3.098 l 0,43.851 c 0,1.856 -1.238,3.664 -3.066,3.664 l -43.809,0 c -1.894,0 -3.738,-1.808 -3.738,-3.664 l 0,-43.851 c 0,-1.84 -1.203,-3.098 -3.637,-3.098 l -43.238,0 c -2.387,0 -3.652,-1.738 -3.652,-3.606 l 0,-43.867 c 0,-1.793 1.265,-3.601 3.652,-3.601 l 43.238,0 c 2.434,0 3.637,-1.254 3.637,-3.078 l 0,-43.879 c 0,-1.774 1.844,-3.617 3.738,-3.617 l 43.809,0 c 1.828,0 3.066,1.843 3.066,3.617"
             id="path132"
             style="fill:#ffffff;fill-opacity:1;fill-rule:nonzero;stroke:none" /></g></g></g></g></svg>