<?xml version="1.0" encoding="UTF-8" standalone="no"?>
<!-- Generator: Adobe Illustrator 24.1.0, SVG Export Plug-In . SVG Version: 6.00 Build 0)  -->

<svg
   xmlns:dc="http://purl.org/dc/elements/1.1/"
   xmlns:cc="http://creativecommons.org/ns#"
   xmlns:rdf="http://www.w3.org/1999/02/22-rdf-syntax-ns#"
   xmlns:svg="http://www.w3.org/2000/svg"
   xmlns="http://www.w3.org/2000/svg"
   xmlns:sodipodi="http://sodipodi.sourceforge.net/DTD/sodipodi-0.dtd"
   xmlns:inkscape="http://www.inkscape.org/namespaces/inkscape"
   version="1.1"
   id="svg2"
   x="0px"
   y="0px"
   viewBox="0 0 125 125"
   xml:space="preserve"
   sodipodi:docname="1006.svg"
   width="125"
   height="125"
   inkscape:version="0.92.5 (2060ec1f9f, 2020-04-08)"><metadata
   id="metadata39181"><rdf:RDF><cc:Work
       rdf:about=""><dc:format>image/svg+xml</dc:format><dc:type
         rdf:resource="http://purl.org/dc/dcmitype/StillImage" /><dc:title></dc:title></cc:Work></rdf:RDF></metadata><defs
   id="defs39179" /><sodipodi:namedview
   pagecolor="#ffffff"
   bordercolor="#666666"
   borderopacity="1"
   objecttolerance="10"
   gridtolerance="10"
   guidetolerance="10"
   inkscape:pageopacity="0"
   inkscape:pageshadow="2"
   inkscape:window-width="728"
   inkscape:window-height="480"
   id="namedview39177"
   showgrid="false"
   inkscape:zoom="3.3286318"
   inkscape:cx="35.450001"
   inkscape:cy="35.450001"
   inkscape:window-x="0"
   inkscape:window-y="0"
   inkscape:window-maximized="0"
   inkscape:current-layer="svg2" />
<style
   type="text/css"
   id="style39162">
	.st0{fill:#FFFFFF;}
	.st1{fill:#1D1D1B;}
</style>





<g
   id="g39732"
   transform="matrix(0.95729013,0,0,0.95729013,28.564065,29.04271)"><circle
     id="circle39164"
     r="32.400002"
     cy="35"
     cx="35.400002"
     class="st0"
     style="fill:#ffffff" /><circle
     id="circle39166"
     r="4.3000002"
     cy="35"
     cx="35.400002"
     class="st1"
     style="fill:#1d1d1b" /><path
     id="path39168"
     d="M 35.4,68.9 C 16.7,68.9 1.5,53.7 1.5,35 1.5,16.2 16.7,1 35.4,1 c 18.7,0 34,15.2 34,34 0,18.7 -15.3,33.9 -34,33.9 z M 35.4,4 C 18.4,4 4.5,17.9 4.5,35 4.5,52.1 18.4,65.9 35.4,65.9 52.5,65.9 66.4,52 66.4,35 66.4,17.9 52.5,4 35.4,4 Z"
     class="st1"
     inkscape:connector-curvature="0"
     style="fill:#1d1d1b" /><path
     id="path39170"
     d="m 30,29.9 c 1.4,-1.5 3.3,-2.4 5.4,-2.4 1.3,0 2.4,0.3 3.5,0.9 0,-0.1 0,-0.2 0,-0.3 2.3,-14.3 -7.2,-17.6 -7.2,-17.6 0,0 0,0 0,0 -1,-0.5 -2.2,-0.8 -3.4,-0.8 -4.5,0 -8.2,3.7 -8.2,8.2 0,3.4 2.1,6.4 5.1,7.6 2.5,1.8 4,3.3 4.8,4.4 z"
     class="st1"
     inkscape:connector-curvature="0"
     style="fill:#1d1d1b" /><path
     id="path39172"
     d="M 33.6,42.1 C 31.7,41.6 30,40.3 28.9,38.4 28.3,37.4 28,36.2 28,35 c -0.1,0 -0.2,0.1 -0.3,0.1 -13.7,4.8 -12,14.7 -12,14.7 0,0 0,0 0,0 0.1,1.1 0.4,2.3 1,3.4 2.2,4 7.1,5.5 11.1,3.3 3,-1.6 4.6,-4.9 4.3,-8.1 0.3,-3 0.9,-5 1.5,-6.3 z"
     class="st1"
     inkscape:connector-curvature="0"
     style="fill:#1d1d1b" /><path
     id="path39174"
     d="m 42.6,32.9 c 0.5,1.9 0.3,4 -0.8,5.9 -0.7,1.1 -1.5,1.9 -2.5,2.5 0.1,0.1 0.1,0.1 0.2,0.2 11.1,9.4 18.8,2.9 18.8,2.9 0,0 0,0 0,0 0.9,-0.6 1.8,-1.5 2.4,-2.5 C 63,38 61.8,33 57.9,30.6 c -3,-1.8 -6.6,-1.5 -9.2,0.5 -2.8,1.2 -4.8,1.7 -6.1,1.8 z"
     class="st1"
     inkscape:connector-curvature="0"
     style="fill:#1d1d1b" /></g>
</svg>