<?xml version="1.0" encoding="utf-8"?>
<!-- Generator: Adobe Illustrator 24.1.0, SVG Export Plug-In . SVG Version: 6.00 Build 0)  -->
<svg version="1.1"
	 id="svg2" xmlns:cc="http://creativecommons.org/ns#" xmlns:dc="http://purl.org/dc/elements/1.1/" xmlns:rdf="http://www.w3.org/1999/02/22-rdf-syntax-ns#" xmlns:svg="http://www.w3.org/2000/svg"
	 xmlns="http://www.w3.org/2000/svg" xmlns:xlink="http://www.w3.org/1999/xlink" x="0px" y="0px" viewBox="0 0 70.9 70.9"
	 style="enable-background:new 0 0 70.9 70.9;" xml:space="preserve">
<style type="text/css">
	.st0{fill:#FFFFFF;}
	.st1{fill:#1D1D1B;}
</style>
<circle class="st0" cx="35.4" cy="35" r="32.4"/>
<circle class="st1" cx="35.4" cy="35" r="4.3"/>
<path class="st1" d="M35.4,68.9C16.7,68.9,1.5,53.7,1.5,35C1.5,16.2,16.7,1,35.4,1C54.1,1,69.4,16.2,69.4,35
	C69.4,53.7,54.1,68.9,35.4,68.9z M35.4,4C18.4,4,4.5,17.9,4.5,35c0,17.1,13.9,30.9,30.9,30.9C52.5,65.9,66.4,52,66.4,35
	C66.4,17.9,52.5,4,35.4,4z"/>
<path class="st1" d="M30,29.9c1.4-1.5,3.3-2.4,5.4-2.4c1.3,0,2.4,0.3,3.5,0.9c0-0.1,0-0.2,0-0.3c2.3-14.3-7.2-17.6-7.2-17.6s0,0,0,0
	c-1-0.5-2.2-0.8-3.4-0.8c-4.5,0-8.2,3.7-8.2,8.2c0,3.4,2.1,6.4,5.1,7.6C27.7,27.3,29.2,28.8,30,29.9z"/>
<path class="st1" d="M33.6,42.1c-1.9-0.5-3.6-1.8-4.7-3.7C28.3,37.4,28,36.2,28,35c-0.1,0-0.2,0.1-0.3,0.1
	c-13.7,4.8-12,14.7-12,14.7s0,0,0,0c0.1,1.1,0.4,2.3,1,3.4c2.2,4,7.1,5.5,11.1,3.3c3-1.6,4.6-4.9,4.3-8.1
	C32.4,45.4,33,43.4,33.6,42.1z"/>
<path class="st1" d="M42.6,32.9c0.5,1.9,0.3,4-0.8,5.9c-0.7,1.1-1.5,1.9-2.5,2.5c0.1,0.1,0.1,0.1,0.2,0.2
	c11.1,9.4,18.8,2.9,18.8,2.9s0,0,0,0c0.9-0.6,1.8-1.5,2.4-2.5c2.3-3.9,1.1-8.9-2.8-11.3c-3-1.8-6.6-1.5-9.2,0.5
	C45.9,32.3,43.9,32.8,42.6,32.9z"/>
</svg>
