<?xml version="1.0" encoding="utf-8"?>
<!-- Generator: Adobe Illustrator 24.1.0, SVG Export Plug-In . SVG Version: 6.00 Build 0)  -->
<svg version="1.1"
	 id="svg2" xmlns:cc="http://creativecommons.org/ns#" xmlns:dc="http://purl.org/dc/elements/1.1/" xmlns:rdf="http://www.w3.org/1999/02/22-rdf-syntax-ns#" xmlns:svg="http://www.w3.org/2000/svg"
	 xmlns="http://www.w3.org/2000/svg" xmlns:xlink="http://www.w3.org/1999/xlink" x="0px" y="0px" viewBox="0 0 70.9 70.9"
	 style="enable-background:new 0 0 70.9 70.9;" xml:space="preserve">
<style type="text/css">
	.st0{fill:#FFFFFF;}
	.st1{fill:#231F20;}
	.st2{fill:#746F6F;}
</style>
<g id="g10" transform="matrix(1.25,0,0,-1.25,0,70.8625)">
	<path id="rect3031" class="st0" d="M0.8,55.7h54.9c0,0,0.1,0,0.1-0.1V0.5c0,0,0-0.1-0.1-0.1H0.8c0,0-0.1,0-0.1,0.1L0.8,55.7
		C0.7,55.7,0.7,55.7,0.8,55.7z"/>
	<g id="g12" transform="scale(0.1,0.1)">
		<g id="g14">
			<g>
				<g>
					<g id="g16">
						<path id="path22" class="st1" d="M283.7,136.9c4.1,0,8.1,0.4,12.2,0.6v69.2c-4.1-0.2-8.1-0.4-12.2-0.4s-8.1,0.2-12.1,0.4
							v-69.2C275.6,137.2,279.6,136.9,283.7,136.9"/>
						<path id="path24" class="st1" d="M211.8,144.5l23.8,65.2c-8.2,1.2-16.3,2.7-24.2,4.6L188,150.1
							C195.8,148,203.7,146.1,211.8,144.5"/>
						<path id="path26" class="st1" d="M92.3,161.2l-40.2-49.3c7.1-4.1,14.3-8.1,21.7-11.9l40,49.1
							C106.4,152.9,99.3,156.9,92.3,161.2"/>
						<path id="path28" class="st1" d="M365.5,117.6l20.4-56.1c8,1.8,16,3.6,23.8,5.8l-20.5,56.1
							C381.4,121.2,373.5,119.3,365.5,117.6"/>
						<path id="path30" class="st1" d="M453.7,149l40-49.1c7.4,3.8,14.6,7.8,21.7,11.9l-40.3,49.3C468.2,156.9,461,152.9,453.7,149"
							/>
						<path id="path32" class="st1" d="M415.1,234.9c-7.5-3.6-15.3-6.8-23.3-9.8l43.6-53.6c7.5,3.7,14.8,7.6,21.8,11.8L415.1,234.9"
							/>
						<path id="path34" class="st1" d="M356,214.3c-7.8-1.9-15.9-3.4-24.2-4.6l23.8-65.2c8.1,1.6,16,3.5,23.8,5.6L356,214.3"/>
						<path id="path36" class="st1" d="M295.9,50.8V109c-4.1-0.1-8.1-0.5-12.2-0.5s-8.1,0.4-12.1,0.5V50.8c4.1-0.1,8.1-0.5,12.1-0.5
							C287.8,50.2,291.8,50.6,295.9,50.8"/>
						<path id="path38" class="st1" d="M132.1,171.5l43.7,53.6c-8.1,2.9-16,6.2-23.4,9.8l-42.1-51.6
							C117.4,179.1,124.6,175.2,132.1,171.5"/>
						<path id="path40" class="st1" d="M178.2,123.5l-20.5-56.1c7.9-2.2,15.8-4,23.8-5.8l20.5,56.1
							C193.9,119.3,186,121.2,178.2,123.5"/>
						<path id="path42" class="st1" d="M547.6,547.6c0-18.3,0-510,0-528.3c-18.3,0-510,0-528.3,0c0,18.3,0,510,0,528.3
							C37.6,547.6,529.3,547.6,547.6,547.6z M557.3,566.9H0V0h566.9v566.9H557.3"/>
						<path id="path44" class="st2" d="M166.3,306.6c-7.6-8.9-14.6-20.3-21.3-32.5c28.4,0,248.9,0,277.3,0
							c-6.7,12.3-13.7,23.6-21.2,32.5c-16.2,19-33.6,33.1-51.8,41.9c-21.4,10.6-43.5,15.9-65.7,15.9c-22,0-44.2-5.3-66-16
							C199.7,339.6,182.4,325.6,166.3,306.6"/>
						<path id="path46" class="st1" d="M166.3,306.6c16.1,19,33.4,33,51.4,41.8c21.7,10.7,44,16,66,16c22.2,0,44.3-5.3,65.7-15.9
							c18.2-8.8,35.6-22.9,51.8-41.9c7.5-8.9,14.6-20.3,21.2-32.5c-28.4,0-248.9,0-277.3,0C151.7,286.3,158.7,297.7,166.3,306.6
							 M208.8,366.7c-20.5-10.1-40-25.9-57.9-46.9c-11.7-13.7-22.7-31.6-31.9-51.6l-6.6-14.3H455l-6.5,14.3
							c-9.2,20.1-20.2,38-31.9,51.6c-18,21.1-37.6,37-58.3,46.9c-24.1,12-49.3,18.1-74.6,18.1C258.5,384.8,233.3,378.7,208.8,366.7"
							/>
					</g>
				</g>
			</g>
		</g>
	</g>
</g>
<g>
	<path d="M27.1,18.8V6.4h3.3L33,11c0.7,1.3,1.5,2.9,2,4.3h0.1c-0.2-1.6-0.2-3.3-0.2-5.2V6.4h2.6v12.4h-2.9L31.8,14
		c-0.7-1.3-1.5-2.9-2.2-4.4h-0.1c0.1,1.6,0.1,3.4,0.1,5.4v3.7L27.1,18.8L27.1,18.8z"/>
	<path d="M39,18.8v-0.9l0.8-0.7c1.4-1.2,2-1.9,2.1-2.7c0-0.5-0.3-0.9-1-0.9c-0.5,0-1,0.3-1.3,0.5L39.2,13c0.5-0.4,1.2-0.6,2.1-0.6
		c1.4,0,2.2,0.8,2.2,2c0,1.1-0.8,1.9-1.7,2.7l-0.6,0.5l0,0h2.4v1.2H39z"/>
</g>
</svg>
