<?xml version="1.0" encoding="UTF-8" standalone="no"?>
<!-- Created with Inkscape (http://www.inkscape.org/) -->

<svg
   xmlns:dc="http://purl.org/dc/elements/1.1/"
   xmlns:cc="http://creativecommons.org/ns#"
   xmlns:rdf="http://www.w3.org/1999/02/22-rdf-syntax-ns#"
   xmlns:svg="http://www.w3.org/2000/svg"
   xmlns="http://www.w3.org/2000/svg"
   version="1.1"
   width="70.862503"
   height="70.862503"
   id="svg2"
   xml:space="preserve"><metadata
     id="metadata8"><rdf:RDF><cc:Work
         rdf:about=""><dc:format>image/svg+xml</dc:format><dc:type
           rdf:resource="http://purl.org/dc/dcmitype/StillImage" /><dc:title></dc:title></cc:Work></rdf:RDF></metadata><defs
     id="defs6"><clipPath
       id="clipPath18"><path
         d="M 0,566.93 0,0 l 566.934,0 0,566.93 -566.934,0 z"
         id="path20" /></clipPath></defs><g
     transform="matrix(1.25,0,0,-1.25,0,70.8625)"
     id="g10"><rect
       width="55.008522"
       height="55.24873"
       rx="0.056433745"
       x="0.72063559"
       y="-55.729153"
       transform="scale(1,-1)"
       id="rect3031"
       style="color:#000000;fill:#ffffff;fill-opacity:1;fill-rule:nonzero;stroke:none;stroke-width:1;marker:none;visibility:visible;display:inline;overflow:visible;enable-background:accumulate" /><g
       transform="scale(0.1,0.1)"
       id="g12"><g
         id="g14"><g
           clip-path="url(#clipPath18)"
           id="g16"><path
             d="m 283.699,136.934 c 4.113,0 8.071,0.324 12.18,0.461 l 0,69.16 c -4.109,-0.168 -8.067,-0.383 -12.18,-0.383 -4.113,0 -8.086,0.215 -12.14,0.383 l 0,-69.16 c 4.054,-0.137 8.027,-0.461 12.14,-0.461"
             id="path22"
             style="fill:#231f20;fill-opacity:1;fill-rule:nonzero;stroke:none" /><path
             d="m 211.738,144.445 23.844,65.223 c -8.258,1.223 -16.258,2.883 -24.238,4.699 L 187.93,150.148 c 7.836,-2.265 15.726,-4.132 23.808,-5.703"
             id="path24"
             style="fill:#231f20;fill-opacity:1;fill-rule:nonzero;stroke:none" /><path
             d="M 92.2695,161.105 52.0664,111.867 c 7.1016,-4.23 14.332,-8.207 21.6992,-11.9451 l 40.0504,49.1091 c -7.367,3.813 -14.5543,7.864 -21.5465,12.074"
             id="path26"
             style="fill:#231f20;fill-opacity:1;fill-rule:nonzero;stroke:none" /><path
             d="m 365.488,117.473 20.418,-55.8519 c 8.039,1.7187 15.996,3.5547 23.813,5.6055 l -20.531,56.2814 c -7.809,-2.348 -15.665,-4.231 -23.7,-6.035"
             id="path28"
             style="fill:#231f20;fill-opacity:1;fill-rule:nonzero;stroke:none" /><path
             d="m 453.645,149.031 40.027,-49.1091 c 7.402,3.7381 14.57,7.7151 21.66,11.9451 l -40.187,49.238 c -6.942,-4.21 -14.149,-8.261 -21.5,-12.074"
             id="path30"
             style="fill:#231f20;fill-opacity:1;fill-rule:nonzero;stroke:none" /><path
             d="m 415.078,234.855 c -7.512,-3.605 -15.359,-6.82 -23.359,-9.777 l 43.625,-53.594 c 7.468,3.731 14.785,7.578 21.765,11.77 l -42.031,51.601"
             id="path32"
             style="fill:#231f20;fill-opacity:1;fill-rule:nonzero;stroke:none" /><path
             d="m 356.016,214.367 c -7.879,-1.816 -15.957,-3.476 -24.18,-4.699 l 23.848,-65.223 c 8.039,1.571 15.996,3.438 23.769,5.703 l -23.437,64.219"
             id="path34"
             style="fill:#231f20;fill-opacity:1;fill-rule:nonzero;stroke:none" /><path
             d="m 295.879,50.7617 0,58.2543 c -4.109,-0.129 -8.067,-0.528 -12.18,-0.528 -4.113,0 -8.086,0.399 -12.14,0.528 l 0,-58.2543 c 4.054,-0.1758 8.027,-0.5664 12.14,-0.5664 4.113,0 8.071,0.3906 12.18,0.5664"
             id="path36"
             style="fill:#231f20;fill-opacity:1;fill-rule:nonzero;stroke:none" /><path
             d="m 132.09,171.484 43.672,53.594 c -8.059,2.957 -15.961,6.172 -23.391,9.777 l -42.062,-51.601 c 7.035,-4.192 14.281,-8.039 21.781,-11.77"
             id="path38"
             style="fill:#231f20;fill-opacity:1;fill-rule:nonzero;stroke:none" /><path
             d="M 178.184,123.508 157.688,67.2266 c 7.843,-2.0508 15.789,-3.8868 23.789,-5.6719 l 20.461,55.9183 c -8.036,1.804 -15.922,3.687 -23.754,6.035"
             id="path40"
             style="fill:#231f20;fill-opacity:1;fill-rule:nonzero;stroke:none" /><path
             d="m 547.598,547.613 c 0,-18.312 0,-510.0036 0,-528.3044 -18.301,0 -509.9652,0 -528.2777,0 0,18.3008 0,509.9924 0,528.3044 18.3125,0 509.9767,0 528.2777,0 z m 9.66,19.317 L 0,566.93 0,0 l 566.934,0 0,566.93 -9.676,0"
             id="path42"
             style="fill:#231f20;fill-opacity:1;fill-rule:nonzero;stroke:none" /><path
             d="m 166.316,306.637 c -7.578,-8.879 -14.601,-20.27 -21.3,-32.621 28.461,0 248.929,0 277.339,0 -6.64,12.351 -13.656,23.742 -21.203,32.621 -16.23,18.91 -33.547,33.015 -51.816,41.89 -21.387,10.575 -43.457,15.918 -65.637,15.918 -22.054,0 -44.261,-5.343 -66.011,-15.918 -18.004,-8.875 -35.25,-22.98 -51.372,-41.89"
             id="path44"
             style="fill:#f47216;fill-opacity:1;fill-rule:nonzero;stroke:none" /><path
             d="m 166.316,306.637 c 16.122,18.91 33.368,33.015 51.372,41.89 21.75,10.575 43.957,15.918 66.011,15.918 22.18,0 44.25,-5.343 65.637,-15.918 18.269,-8.875 35.586,-22.98 51.816,-41.89 7.547,-8.879 14.563,-20.27 21.203,-32.621 -28.41,0 -248.878,0 -277.339,0 6.699,12.351 13.722,23.742 21.3,32.621 m 42.473,60.058 c -20.547,-10.062 -40.019,-25.902 -57.953,-46.918 -11.66,-13.761 -22.695,-31.613 -31.875,-51.652 l -6.559,-14.426 342.598,0 -6.531,14.426 c -9.239,20.039 -20.227,37.973 -31.926,51.652 -17.922,21.102 -37.578,36.938 -58.223,46.918 -24.187,12.016 -49.316,18.075 -74.621,18.075 -25.16,0 -50.402,-6.059 -74.91,-18.075"
             id="path46"
             style="fill:#231f20;fill-opacity:1;fill-rule:nonzero;stroke:none" /><path
             d="m 70.4062,414.945 0,100.27 20.7813,0 0,-39.41 40.7615,0 0,39.41 20.707,0 0,-100.27 -20.707,0 0,43.883 -40.7615,0 0,-43.883 -20.7813,0"
             id="path48"
             style="fill:#231f20;fill-opacity:1;fill-rule:nonzero;stroke:none" /><path
             d="m 173.844,414.945 0,72.723 19.754,0 0,-72.723 -19.754,0 m 19.754,82.555 -19.809,0 0,17.715 19.809,0 0,-17.715 z"
             id="path50"
             style="fill:#231f20;fill-opacity:1;fill-rule:nonzero;stroke:none" /><path
             d="m 254.23,414.945 0,100.27 70.665,0 0,-16.988 -49.93,0 0,-23.676 43.133,0 0,-17.008 -43.133,0 0,-42.598 -20.735,0"
             id="path52"
             style="fill:#231f20;fill-opacity:1;fill-rule:nonzero;stroke:none" /><path
             d="m 357.449,451.148 c 0,-7.199 1.699,-12.769 5.246,-16.574 3.555,-3.816 7.813,-5.707 12.989,-5.707 5.128,0 9.461,1.891 12.976,5.707 3.469,3.805 5.246,9.465 5.246,16.66 0,7.141 -1.777,12.625 -5.246,16.473 -3.515,3.715 -7.848,5.688 -12.976,5.688 -5.176,0 -9.434,-1.973 -12.989,-5.688 -3.547,-3.848 -5.246,-9.395 -5.246,-16.559 m -20.301,1.059 c 0,6.449 1.629,12.535 4.832,18.555 3.247,5.941 7.817,10.539 13.735,13.676 5.965,3.078 12.527,4.628 19.89,4.628 11.282,0 20.528,-3.515 27.735,-10.711 7.246,-7.132 10.832,-16.085 10.832,-26.976 0,-10.945 -3.625,-20.02 -10.91,-27.219 -7.317,-7.156 -16.485,-10.769 -27.547,-10.769 -6.789,0 -13.391,1.468 -19.582,4.433 -6.192,3.016 -10.906,7.418 -14.153,13.196 -3.203,5.867 -4.832,12.929 -4.832,21.187"
             id="path54"
             style="fill:#231f20;fill-opacity:1;fill-rule:nonzero;stroke:none" /><path
             d="m 445.371,452.688 c 0,-7.739 1.633,-13.282 4.649,-16.836 3.093,-3.606 6.867,-5.407 11.32,-5.407 4.832,0 8.902,1.883 12.265,5.489 3.321,3.671 4.942,9.128 4.942,16.273 0,7.441 -1.543,13.043 -4.758,16.664 -3.242,3.691 -7.207,5.508 -12.043,5.508 -4.82,0 -8.633,-1.817 -11.726,-5.356 -3.016,-3.601 -4.649,-9.062 -4.649,-16.335 m -17.734,-42.516 22.531,-2.563 c 0.418,-2.55 1.285,-4.285 2.644,-5.226 1.844,-1.453 4.864,-2.211 8.934,-2.211 5.18,0 9.066,0.758 11.633,2.293 1.766,1.086 3.016,2.664 3.918,4.941 0.601,1.653 0.984,4.559 0.984,8.766 l 0.039,10.668 c -5.965,-7.875 -13.437,-11.895 -22.414,-11.895 -10.039,0 -18.008,4.102 -23.886,12.34 -4.61,6.535 -6.915,14.629 -6.915,24.258 0,12.227 3.059,21.469 9.106,27.953 5.992,6.367 13.465,9.57 22.488,9.57 9.207,0 16.824,-3.968 22.793,-11.781 l 0,10.383 18.528,0 0,-65.242 c 0,-8.488 -0.754,-14.93 -2.153,-19.188 -1.472,-4.234 -3.555,-7.535 -6.148,-9.992 -2.649,-2.461 -6.114,-4.316 -10.461,-5.769 -4.453,-1.34 -10,-1.985 -16.746,-1.985 -12.61,0 -21.621,2.07 -26.946,6.344 -5.363,4.141 -7.968,9.488 -7.968,16.016 0,0.64 0.039,1.406 0.039,2.32"
             id="path56"
             style="fill:#231f20;fill-opacity:1;fill-rule:nonzero;stroke:none" /></g></g></g></g></svg>