<?xml version="1.0" encoding="UTF-8" standalone="no"?>
<!-- Created with Inkscape (http://www.inkscape.org/) -->

<svg
   xmlns:dc="http://purl.org/dc/elements/1.1/"
   xmlns:cc="http://creativecommons.org/ns#"
   xmlns:rdf="http://www.w3.org/1999/02/22-rdf-syntax-ns#"
   xmlns:svg="http://www.w3.org/2000/svg"
   xmlns="http://www.w3.org/2000/svg"
   xmlns:sodipodi="http://sodipodi.sourceforge.net/DTD/sodipodi-0.dtd"
   xmlns:inkscape="http://www.inkscape.org/namespaces/inkscape"
   version="1.1"
   width="125"
   height="125"
   id="svg2"
   xml:space="preserve"
   sodipodi:docname="1013.svg"
   inkscape:version="0.92.5 (2060ec1f9f, 2020-04-08)"><sodipodi:namedview
     pagecolor="#ffffff"
     bordercolor="#666666"
     borderopacity="1"
     objecttolerance="10"
     gridtolerance="10"
     guidetolerance="10"
     inkscape:pageopacity="0"
     inkscape:pageshadow="2"
     inkscape:window-width="1920"
     inkscape:window-height="1017"
     id="namedview4537"
     showgrid="false"
     inkscape:zoom="3.3303932"
     inkscape:cx="35.431252"
     inkscape:cy="35.431252"
     inkscape:window-x="-8"
     inkscape:window-y="-8"
     inkscape:window-maximized="1"
     inkscape:current-layer="g10" /><metadata
     id="metadata8"><rdf:RDF><cc:Work
         rdf:about=""><dc:format>image/svg+xml</dc:format><dc:type
           rdf:resource="http://purl.org/dc/dcmitype/StillImage" /><dc:title></dc:title></cc:Work></rdf:RDF></metadata><defs
     id="defs6"><clipPath
       id="clipPath18"><path
         d="M 0,566.93 V 0 h 566.934 v 566.93 z"
         id="path20"
         inkscape:connector-curvature="0" /></clipPath></defs><g
     transform="matrix(1.25,0,0,-1.25,0,125)"
     id="g10"><g
       id="g5195"
       transform="translate(24,24.000183)"><rect
         style="color:#000000;display:inline;overflow:visible;visibility:visible;fill:#ffffff;fill-opacity:1;fill-rule:nonzero;stroke:none;stroke-width:0.91721433;marker:none;enable-background:accumulate"
         id="rect3031"
         transform="scale(1,-1)"
         y="-51.115578"
         x="0.6609773"
         rx="0.05176184"
         height="50.674927"
         width="50.454605" /><path
         d="m 26.019904,12.552537 c 0.378626,0 0.744136,0.03586 1.119643,0.05201 v 6.344555 c -0.375507,-0.01541 -0.741017,-0.03761 -1.119643,-0.03761 -0.374132,0 -0.74166,0.0222 -1.113224,0.03761 v -6.344555 c 0.371564,-0.01614 0.739092,-0.05201 1.113224,-0.05201"
         id="path22"
         style="fill:#231f20;fill-opacity:1;fill-rule:nonzero;stroke:none;stroke-width:0.09172144"
         inkscape:connector-curvature="0" /><path
         d="m 19.424123,13.253014 2.182695,5.983447 c -0.755234,0.109241 -1.491482,0.250767 -2.219567,0.423845 l -2.149308,-5.889525 c 0.717629,-0.196376 1.441678,-0.374407 2.18618,-0.517767"
         id="path24"
         style="fill:#231f20;fill-opacity:1;fill-rule:nonzero;stroke:none;stroke-width:0.09172144"
         inkscape:connector-curvature="0" /><path
         d="M 8.464531,14.781093 4.7756049,10.257758 C 5.4266161,9.8786737 6.0894411,9.5160989 6.765529,9.1639069 l 3.672829,4.5046961 c -0.6750699,0.356522 -1.3342902,0.721298 -1.973827,1.11249"
         id="path26"
         style="fill:#231f20;fill-opacity:1;fill-rule:nonzero;stroke:none;stroke-width:0.09172144"
         inkscape:connector-curvature="0" /><path
         d="m 33.523084,10.787266 1.872034,-5.1424537 c 0.737441,0.1666028 1.46791,0.3324902 2.184897,0.5345617 L 35.697891,11.32723 C 34.984206,11.115812 34.25869,10.944569 33.523084,10.787266"
         id="path28"
         style="fill:#231f20;fill-opacity:1;fill-rule:nonzero;stroke:none;stroke-width:0.09172144"
         inkscape:connector-curvature="0" /><path
         d="M 41.609612,13.668603 45.27847,9.1639069 c 0.67828,0.352192 1.337115,0.7147668 1.993198,1.0938511 l -3.694356,4.523335 c -0.633061,-0.391192 -1.294097,-0.755968 -1.9677,-1.11249"
         id="path30"
         style="fill:#231f20;fill-opacity:1;fill-rule:nonzero;stroke:none;stroke-width:0.09172144"
         inkscape:connector-curvature="0" /><path
         d="m 38.069073,21.542705 c -0.685434,-0.330289 -1.405539,-0.625907 -2.140778,-0.896393 l 4.000981,-4.917553 c 0.685434,0.341112 1.357202,0.701577 1.997417,1.082037 l -3.85762,4.731909"
         id="path32"
         style="fill:#231f20;fill-opacity:1;fill-rule:nonzero;stroke:none;stroke-width:0.09172144"
         inkscape:connector-curvature="0" /><path
         d="m 32.652464,19.660306 c -0.719463,-0.173078 -1.461765,-0.314604 -2.217091,-0.423845 l 2.185539,-5.983447 c 0.740926,0.14336 1.466534,0.321391 2.181319,0.517767 l -2.149767,5.889525"
         id="path34"
         style="fill:#231f20;fill-opacity:1;fill-rule:nonzero;stroke:none;stroke-width:0.09172144"
         inkscape:connector-curvature="0" /><path
         d="M 27.139547,4.6552205 V 9.999746 C 26.76404,9.988281 26.39853,9.949666 26.019904,9.949666 c -0.374132,0 -0.74166,0.038615 -1.113224,0.05008 V 4.6552205 c 0.371564,-0.011823 0.739092,-0.046934 1.113224,-0.046934 0.378626,0 0.744136,0.035111 1.119643,0.046934"
         id="path36"
         style="fill:#231f20;fill-opacity:1;fill-rule:nonzero;stroke:none;stroke-width:0.09172144"
         inkscape:connector-curvature="0" /><path
         d="m 12.115117,15.728759 4.005292,4.917553 c -0.738449,0.270486 -1.463232,0.566104 -2.143988,0.896393 l -3.857712,-4.731909 c 0.64526,-0.38046 1.309231,-0.740925 1.996408,-1.082037"
         id="path38"
         style="fill:#231f20;fill-opacity:1;fill-rule:nonzero;stroke:none;stroke-width:0.09172144"
         inkscape:connector-curvature="0" /><path
         d="M 16.344668,11.32723 14.462636,6.179374 C 15.183108,5.9773025 15.911192,5.8114151 16.64634,5.6448123 l 1.875978,5.1424537 c -0.736615,0.157303 -1.460664,0.328546 -2.17765,0.539964"
         id="path40"
         style="fill:#231f20;fill-opacity:1;fill-rule:nonzero;stroke:none;stroke-width:0.09172144"
         inkscape:connector-curvature="0" /><path
         d="m 50.227116,50.22785 c 0,-1.679603 0,-46.7782619 0,-48.4568375 -1.678135,0 -46.7753816,0 -48.4550304,0 0,1.6785756 0,46.7772345 0,48.4568375 1.6796488,0 46.7768954,0 48.4550304,0 z m 0.886121,1.771783 H 0 V 0 h 52 v 51.999633 h -0.886763"
         id="path42"
         style="fill:#231f20;fill-opacity:1;fill-rule:nonzero;stroke:none;stroke-width:0.09172144"
         inkscape:connector-curvature="0" /><path
         d="m 15.255843,28.124085 c -0.696533,-0.820815 -1.340692,-1.859836 -1.953758,-2.98379 2.609107,0 22.830474,0 25.438389,0 -0.610498,1.123954 -1.254749,2.168662 -1.946879,2.98379 -1.48442,1.73913 -3.078813,3.035796 -4.751996,3.843312 -1.960545,0.97564 -3.988415,1.46259 -6.021695,1.46259 -2.02044,0 -4.058307,-0.48695 -6.051872,-1.469745 -1.650619,-0.808983 -3.234282,-2.097027 -4.712189,-3.836157"
         id="path44"
         style="fill:#7b7b7b;fill-opacity:1;fill-rule:nonzero;stroke:none;stroke-width:0.09172144"
         inkscape:connector-curvature="0" /><path
         d="m 15.255843,28.124085 c 1.477907,1.73913 3.06157,3.027174 4.712189,3.836157 1.993565,0.982795 4.031432,1.469745 6.051872,1.469745 2.03328,0 4.06115,-0.48695 6.021695,-1.46259 1.673183,-0.807516 3.267576,-2.104182 4.751996,-3.843312 0.69213,-0.815128 1.336381,-1.859836 1.946879,-2.98379 -2.607915,0 -22.829282,0 -25.438389,0 0.613066,1.123954 1.257225,2.162975 1.953758,2.98379 m 3.892841,5.508331 c -1.881023,-0.922993 -3.669224,-2.373659 -5.314523,-4.304854 -1.069105,-1.260803 -2.080518,-2.896746 -2.92252,-4.737229 l -0.602335,-1.309598 h 31.422846 l -0.597932,1.309598 c -0.844846,1.840483 -1.853415,3.48358 -2.926556,4.737229 -1.648784,1.938716 -3.44735,3.389382 -5.343782,4.304854 -2.213147,1.103133 -4.521592,1.657406 -6.843978,1.657406 -2.306336,0 -4.621568,-0.554273 -6.87122,-1.657406"
         id="path46"
         style="fill:#231f20;fill-opacity:1;fill-rule:nonzero;stroke:none;stroke-width:0.09172144"
         inkscape:connector-curvature="0" /><g
         id="g3789"
         transform="matrix(0.73377148,0,0,-0.73377148,0.02293148,51.621445)"><path
           id="path3785"
           d="M 25.3,19.4 V 6 h 2.9 l 6,9 V 6 H 37 v 13.4 h -3 l -5.9,-8.7 v 8.7 z"
           inkscape:connector-curvature="0" /><path
           id="path3787"
           d="m 45.5,17.8 v 1.6 h -6.6 c 0.1,-0.6 0.3,-1.2 0.6,-1.7 0.4,-0.5 1.1,-1.3 2.1,-2.1 0.8,-0.7 1.4,-1.2 1.6,-1.5 0.3,-0.4 0.4,-0.7 0.4,-1 0,-0.4 -0.1,-0.7 -0.3,-0.9 -0.2,-0.2 -0.5,-0.3 -0.9,-0.3 -0.4,0 -0.7,0.1 -0.9,0.3 -0.2,0.2 -0.4,0.6 -0.4,1.1 l -1.9,-0.2 c 0.1,-0.9 0.5,-1.6 1,-2 0.6,-0.4 1.3,-0.6 2.2,-0.6 1,0 1.7,0.2 2.3,0.7 0.6,0.5 0.8,1.1 0.8,1.8 0,0.4 -0.1,0.8 -0.2,1.1 -0.2,0.4 -0.4,0.7 -0.8,1.1 -0.2,0.3 -0.6,0.6 -1.2,1.1 -0.6,0.5 -1,0.8 -1.1,1 -0.2,0.2 -0.3,0.3 -0.4,0.5 z"
           inkscape:connector-curvature="0" /></g></g></g></svg>