<?xml version="1.0" encoding="UTF-8" standalone="no"?>
<!-- Generator: Adobe Illustrator 24.1.0, SVG Export Plug-In . SVG Version: 6.00 Build 0)  -->

<svg
   xmlns:dc="http://purl.org/dc/elements/1.1/"
   xmlns:cc="http://creativecommons.org/ns#"
   xmlns:rdf="http://www.w3.org/1999/02/22-rdf-syntax-ns#"
   xmlns:svg="http://www.w3.org/2000/svg"
   xmlns="http://www.w3.org/2000/svg"
   xmlns:sodipodi="http://sodipodi.sourceforge.net/DTD/sodipodi-0.dtd"
   xmlns:inkscape="http://www.inkscape.org/namespaces/inkscape"
   version="1.1"
   id="svg2"
   x="0px"
   y="0px"
   viewBox="0 0 125 125"
   xml:space="preserve"
   sodipodi:docname="1021.svg"
   width="125"
   height="125"
   inkscape:version="0.92.5 (2060ec1f9f, 2020-04-08)"><metadata
   id="metadata40462"><rdf:RDF><cc:Work
       rdf:about=""><dc:format>image/svg+xml</dc:format><dc:type
         rdf:resource="http://purl.org/dc/dcmitype/StillImage" /><dc:title></dc:title></cc:Work></rdf:RDF></metadata><defs
   id="defs40460" /><sodipodi:namedview
   pagecolor="#ffffff"
   bordercolor="#666666"
   borderopacity="1"
   objecttolerance="10"
   gridtolerance="10"
   guidetolerance="10"
   inkscape:pageopacity="0"
   inkscape:pageshadow="2"
   inkscape:window-width="728"
   inkscape:window-height="480"
   id="namedview40458"
   showgrid="false"
   inkscape:zoom="3.3286318"
   inkscape:cx="35.450001"
   inkscape:cy="35.450001"
   inkscape:window-x="0"
   inkscape:window-y="0"
   inkscape:window-maximized="0"
   inkscape:current-layer="svg2" />
<style
   type="text/css"
   id="style40420">
	.st0{fill:#00A650;}
	.st1{fill:#FFFFFF;}
</style>



<g
   id="g41028"
   transform="matrix(0.91726936,0,0,0.91726936,30,30)"><g
     transform="matrix(1.25,0,0,-1.25,0,70.8625)"
     id="g10">
	<g
   transform="scale(0.1)"
   id="g12">
		<g
   id="g14">
			<g
   id="g40428">
				<g
   id="g40426">
					<g
   id="g16">
						<path
   d="M 0,0 H 566.9 V 566.9 H 0 Z"
   class="st0"
   id="path22"
   inkscape:connector-curvature="0"
   style="fill:#00a650" />
						<path
   d="M 0,0 H 566.9 V 566.9 H 0 Z"
   class="st0"
   id="path74"
   inkscape:connector-curvature="0"
   style="fill:#00a650" />
						<path
   d="m 493.5,393.6 v 43.9 c 0,1.8 1.8,3.1 3.7,3.1 H 541 c 1.8,0 3.7,1.8 3.7,3.6 V 488 c 0,1.9 -1.9,3.6 -3.7,3.6 h -43.8 c -1.9,0 -3.7,1.3 -3.7,3.1 v 43.9 c 0,1.9 -1.2,3.7 -3.1,3.7 h -43.8 c -1.9,0 -3.7,-1.8 -3.7,-3.7 v -43.9 c 0,-1.8 -1.2,-3.1 -3.6,-3.1 H 396 c -2.4,0 -3.7,-1.7 -3.7,-3.6 v -43.9 c 0,-1.8 1.3,-3.6 3.7,-3.6 h 43.2 c 2.4,0 3.6,-1.3 3.6,-3.1 v -43.9 c 0,-1.8 1.8,-3.6 3.7,-3.6 h 43.8 c 2,0 3.2,1.9 3.2,3.7"
   class="st1"
   id="path132"
   inkscape:connector-curvature="0"
   style="fill:#ffffff" />
					</g>
				</g>
			</g>
		</g>
	</g>
</g><g
     id="g40447">
	<path
   id="path40433"
   d="m 25.1,13.2 c 1.4,0 2.9,-0.1 4.2,-0.1 -0.4,-0.6 -1.4,-1.6 -4.1,-1.7 -3.5,-0.1 -4.4,0.6 -4.7,1.8 1.1,0.1 2.8,0.1 4.6,0 z"
   class="st1"
   inkscape:connector-curvature="0"
   style="fill:#ffffff" />
	<path
   id="path40435"
   d="m 14.6,41 v 0 c 2.7,0.9 6.5,1.7 7.6,1 1.3,-0.9 1.5,-2.2 1.4,-2.8 -7.1,-1.6 -9,-4 -9.1,-4.1 l 0.8,-0.6 c 0,0 0.3,0.3 1,0.8 1.2,0.8 3.6,2.1 8.1,3 0.8,0.2 1.7,0.3 2.7,0.5 2.1,-0.6 2.4,-1.2 2.8,-2.4 0.3,-0.8 -0.2,-1.6 -0.5,-1.8 -1.3,-0.3 -8.9,-2 -11.6,-6.2 l 0.8,-0.5 c 0.2,0.3 0.4,0.6 0.6,0.8 2.1,2.4 6.2,3.8 8.5,4.5 1,0.3 1.7,0.4 1.8,0.5 0.1,0 0.6,-0.2 1.7,-1.3 1,-1 0.4,-2.5 0.2,-3 -5.5,-1.3 -8.9,-6.2 -9.5,-7.2 -0.4,-0.1 -0.7,-0.1 -1.2,-0.2 -1.9,-0.5 -3,-1.5 -3.8,-2.4 -1,0.7 -3.3,2.9 -0.5,6.7 -3.6,-1.7 -5,1.3 -5,1.3 0,0 -2,2.7 1.4,5.1 -3.6,-0.3 -3.7,2.1 -3.7,2.1 0,0 -0.8,4.1 5.5,6.2 z"
   class="st1"
   inkscape:connector-curvature="0"
   style="fill:#ffffff" />
	<path
   id="path40437"
   d="m 26.4,39.6 c -0.6,-0.1 -1.2,-0.2 -1.8,-0.3 0,0.9 -0.3,2.4 -1.9,3.5 -0.5,0.3 -1.2,0.4 -2,0.4 -2.2,0 -5.3,-0.9 -6.7,-1.3 -3.7,6.5 -4.3,7.2 -4.3,7.2 l 0.5,2.6 -1.2,2 5.6,3.3 1.2,-2.2 2.5,-1 2.2,-3.9 v 0 l 0.3,-0.5 c 0,0 0.3,-0.5 0.8,-1.3 0.8,-1.4 2.2,-3.8 3.3,-5.8 0.6,-1 1.1,-2 1.5,-2.7 z"
   class="st1"
   inkscape:connector-curvature="0"
   style="fill:#ffffff" />
	<path
   id="path40439"
   d="m 38.8,18.5 3.8,-7 c 0,0 0,-2.1 -3.4,-3.9 -3.4,-1.8 -5,-1 -5,-1 l -3.6,6.6 c 2,0.2 3.5,1.4 5.1,2.9 0.9,0.8 1.9,1.6 3.1,2.4 z"
   class="st1"
   inkscape:connector-curvature="0"
   style="fill:#ffffff" />
	<path
   id="path40441"
   d="M 44.4,31.4 C 43,24.5 42.4,21.7 38.8,19.7 38.6,19.6 38.5,19.5 38.3,19.4 37,18.6 35.9,17.7 35,16.9 c -1.5,-1.3 -2.9,-2.5 -4.6,-2.6 -0.1,0 -0.1,0 -0.2,0 -1.5,-0.1 -3.3,0 -5.1,0 -2.2,0.1 -4.3,0.1 -5.4,-0.1 -2,-0.3 -2.6,0.5 -2.9,1.2 -0.1,0.3 -0.1,1.2 0.4,2.3 0.2,0.4 0.5,0.8 0.9,1.3 0.6,0.7 1.6,1.4 3.1,1.8 1.9,0.5 2.9,0.3 3.9,0.1 1.1,-0.2 2.2,-0.4 4.2,0.6 3.2,1.7 5,2.8 5.4,4.1 0.1,0.4 0.1,0.9 -0.1,1.3 -0.6,1.1 -1.4,1.8 -1.9,2.1 0.3,0.8 0.9,2.6 -0.5,3.9 -0.7,0.7 -1.3,1.1 -1.7,1.3 0.1,0.2 0.3,0.5 0.3,0.7 0.2,0.5 0.2,1 0,1.7 -0.5,1.4 -1,2.3 -3.4,3 -1.1,2.1 -4.4,7.9 -5.5,9.7 2.3,0.9 11.3,4.6 19.8,13.2 C 52.4,51.7 56.4,47.7 57.5,46.5 55.4,45 45.7,37.8 44.4,31.4 Z"
   class="st1"
   inkscape:connector-curvature="0"
   style="fill:#ffffff" />
	<path
   id="path40443"
   d="m 30.9,28 c 0.3,0.1 0.7,0.2 1,0.3 0.3,-0.2 1.2,-0.8 1.8,-1.8 0.1,-0.2 0.1,-0.3 0.1,-0.5 -0.3,-1 -2.7,-2.3 -4.9,-3.5 -1.6,-0.9 -2.4,-0.7 -3.5,-0.5 -0.5,0.1 -1.1,0.2 -1.9,0.2 0.1,0.1 0.2,0.3 0.3,0.4 1.2,1.6 3.7,4.2 7.1,5.4 z"
   class="st1"
   inkscape:connector-curvature="0"
   style="fill:#ffffff" />
	<path
   id="path40445"
   d="M 29.7,34 Z"
   class="st1"
   inkscape:connector-curvature="0"
   style="fill:#ffffff" />
</g><g
     id="g40451">
	<path
   id="path40449"
   d="m 32.9,52.2 -0.3,-1 c 0.2,0 4.6,-1.3 5.5,-5.8 v -0.2 l 0.2,-0.1 c 3.5,-2.1 5.5,-4.7 5.5,-7.6 h 1 c 0,3.1 -2,6.1 -5.8,8.3 -1.1,5 -5.9,6.4 -6.1,6.4 z"
   class="st0"
   inkscape:connector-curvature="0"
   style="fill:#00a650" />
</g><g
     id="g40455">
	<path
   id="path40453"
   d="m 36.3,42.1 c -2.7,0 -4.5,-2.3 -4.6,-2.5 L 32.5,39 c 0,0 2,2.6 4.7,2 l 0.2,1 c -0.4,0 -0.8,0.1 -1.1,0.1 z"
   class="st0"
   inkscape:connector-curvature="0"
   style="fill:#00a650" />
</g></g>
</svg>