<?xml version="1.0" encoding="utf-8"?>
<!-- Generator: Adobe Illustrator 24.1.0, SVG Export Plug-In . SVG Version: 6.00 Build 0)  -->
<svg version="1.1"
	 id="svg2" xmlns:cc="http://creativecommons.org/ns#" xmlns:dc="http://purl.org/dc/elements/1.1/" xmlns:rdf="http://www.w3.org/1999/02/22-rdf-syntax-ns#" xmlns:svg="http://www.w3.org/2000/svg"
	 xmlns="http://www.w3.org/2000/svg" xmlns:xlink="http://www.w3.org/1999/xlink" x="0px" y="0px" viewBox="0 0 70.9 70.9"
	 style="enable-background:new 0 0 70.9 70.9;" xml:space="preserve">
<style type="text/css">
	.st0{fill:#00A650;}
	.st1{fill:none;}
	.st2{fill:#FFFFFF;}
</style>
<rect y="0" class="st0" width="70.9" height="70.9"/>
<sodipodi:namedview  bordercolor="#666666" borderopacity="1.0" fit-margin-bottom="0" fit-margin-left="0" fit-margin-right="0" fit-margin-top="0" id="base" pagecolor="#ffffff" showgrid="false">
	</sodipodi:namedview>
<polyline class="st1" points="70.9,70.9 70.9,0 0,0 "/>
<path id="path132" class="st2" d="M58.9,23.8v-5.5c0-0.2,0.2-0.4,0.5-0.4h5.5c0.2,0,0.5-0.2,0.5-0.5V12c0-0.2-0.2-0.5-0.5-0.5h-5.5
	c-0.2,0-0.5-0.2-0.5-0.4V5.7c0-0.2-0.2-0.5-0.4-0.5h-5.5c-0.2,0-0.5,0.2-0.5,0.5v5.5c0,0.2-0.2,0.4-0.5,0.4h-5.4
	c-0.3,0-0.5,0.2-0.5,0.5v5.5c0,0.2,0.2,0.5,0.5,0.5h5.4c0.3,0,0.5,0.2,0.5,0.4v5.5c0,0.2,0.2,0.5,0.5,0.5h5.5
	C58.8,24.2,58.9,24,58.9,23.8"/>
<g>
	<path class="st2" d="M20.6,15.9l6.3-0.5c0,0-6-2.7-8.2,0C18.7,15.9,20.6,15.9,20.6,15.9z"/>
	<path class="st2" d="M29.8,30.4c0.7-0.6,0.8-0.8,0.9-1.4c0.1-0.2,0.2-1-3.3-2.7c-2.8-1.4-3.6-1.4-5.8-1.2
		C22.8,26.6,25.4,29.4,29.8,30.4z"/>
	<path class="st2" d="M10.8,42.2c1.5,1.1,4.1,1.2,6.8,1.4c2.9,0.2,4.2-1.1,4.6-1.7c-6.5-1.2-9.5-4.6-9.6-4.7c-0.3-0.3-0.2-0.8,0.1-1
		c0.3-0.3,0.8-0.2,1,0.1c0.1,0.1,3.7,4.1,11.7,4.6c0.7,0,1.2-0.2,1.5-0.5c0.6-0.7,0.7-2.2,0.6-3.4c-8.3-0.6-11.4-5.6-11.5-5.8
		c-0.2-0.3-0.1-0.8,0.2-1c0.3-0.2,0.8-0.1,1,0.2c0.1,0.2,3,4.7,10.8,5.1c1.7-0.9,1.6-1.8,1.5-3.1c0-0.2,0-0.4-0.1-0.6
		c-5.6-1.3-8.5-5.3-9.3-6.5c-2-0.1-3.7-1.3-5-2.5c-1.3,0.9-2.8,2.5-0.1,5.9c-3.2-0.6-4.3,0.2-4.9,1.6c-0.6,1.3-0.4,3.4,1.6,4.7
		c-2.7,0.1-3.2,0.4-3.5,1.5C7.8,37.5,7.3,40.2,10.8,42.2z"/>
	<path class="st2" d="M43,35.2c-1.4-4.6-2.2-7.8-3.6-10.1c-1.2-0.8-2.8-1.8-4-2.4c-1.8-0.8-2.3-1.4-3.2-2.3
		c-0.3-0.3-0.7-0.6-1.1-1.1c-1.2-1.1-2.2-2.1-3-2.5c0,0-0.3-0.1-0.3,0c-2-0.3-8.1,0.2-9.4,0c-1.3-0.2-3.9-0.2-3.9,2
		c0,0.2,0,0.4,0,0.6c0,0.3,0.2,0.7,0.4,0.9c1.1,1.3,3.4,3.6,5.9,3.3l0.6-0.1c2.5-0.3,3.5-0.4,6.9,1.3c3.3,1.7,4.4,2.8,4.1,4.3
		c-0.2,0.9-0.5,1.4-1.4,2.2c0,0.2,0,0.4,0.1,0.7c0.1,1.4,0.3,3.1-2,4.4c0.1,1.6,0.1,3.5-0.9,4.7c-0.5,0.6-1.3,0.9-2.2,1
		c-1.7,3-3.9,6.9-5.2,9.2c3,1.4,9,4.8,18.4,12.9c6.2-2.4,14-9.6,16.5-15.5C55.4,48.9,45.1,42.1,43,35.2z M27.5,43.4
		c-0.2-0.4,0-0.8,0.3-1c0.4-0.2,0.8,0,1,0.3c0.1,0.2,2.2,4.2,7.4,3.3c0.4-0.1,0.8,0.2,0.8,0.6c0.1,0.4-0.2,0.8-0.6,0.8
		c-0.6,0.1-1.2,0.2-1.7,0.2C29.7,47.7,27.5,43.5,27.5,43.4z M44.8,45.1c-0.1,0.2-2.4,3.8-5.9,4.4c-3,0.5-3.4,1.1-3.7,2.9
		c-0.3,2.4-1.2,3.3-2.5,4c-0.1,0.1-0.2,0.1-0.3,0.1c-0.3,0-0.5-0.1-0.6-0.4c-0.2-0.4-0.1-0.8,0.3-1c0.9-0.5,1.5-0.9,1.8-2.9
		c0.4-2.7,1.5-3.7,4.9-4.2c2.8-0.4,4.8-3.7,4.9-3.7c0.2-0.3,0.7-0.4,1-0.2C44.9,44.3,45,44.7,44.8,45.1z"/>
	<path class="st2" d="M33.1,19.4c0.9,0.9,1.3,1.3,2.8,2c0,0,0,0,0.1,0l3.8-6.6c0,0-0.1-1.7-3.6-3.7s-4.5-1-4.5-1s-1.3,2.1-3.2,5.4
		c0.9,0.5,2,1.4,3.5,2.8C32.4,18.8,32.8,19.1,33.1,19.4z"/>
	<path class="st2" d="M24.1,42.2c-0.2,0-0.3,0-0.5,0c-0.2,0.4-1.4,2.9-5.4,2.9c-0.2,0-0.5,0-0.7,0c-2.1-0.2-4.1-0.6-5.7-1
		c-2.3,4.1-3.9,6.8-3.9,6.9C8.1,51.2,8.5,54,8.5,54l-0.9,1.7l4.9,2.9l1.3-2l2.8-0.9l1.6-2.9l0,0C18,52.9,21.5,46.8,24.1,42.2z"/>
</g>
</svg>
