<?xml version="1.0" encoding="utf-8"?>
<!-- Generator: Adobe Illustrator 24.1.0, SVG Export Plug-In . SVG Version: 6.00 Build 0)  -->
<svg version="1.1"
	 id="svg2" xmlns:cc="http://creativecommons.org/ns#" xmlns:dc="http://purl.org/dc/elements/1.1/" xmlns:rdf="http://www.w3.org/1999/02/22-rdf-syntax-ns#" xmlns:svg="http://www.w3.org/2000/svg"
	 xmlns="http://www.w3.org/2000/svg" xmlns:xlink="http://www.w3.org/1999/xlink" x="0px" y="0px" viewBox="0 0 70.9 70.9"
	 style="enable-background:new 0 0 70.9 70.9;" xml:space="preserve">
<style type="text/css">
	.st0{fill:#00A650;}
	.st1{fill:#FFFFFF;}
</style>
<g id="g10" transform="matrix(1.25,0,0,-1.25,0,70.8625)">
	<g id="g12" transform="scale(0.1,0.1)">
		<g id="g14">
			<g>
				<g>
					<g id="g16">
						<path id="path22" class="st0" d="M0,0h566.9v566.9H0V0z"/>
						<path id="path74" class="st0" d="M0,0h566.9v566.9H0V0z"/>
						<path id="path132" class="st1" d="M493.5,393.6v43.9c0,1.8,1.8,3.1,3.7,3.1H541c1.8,0,3.7,1.8,3.7,3.6V488
							c0,1.9-1.9,3.6-3.7,3.6h-43.8c-1.9,0-3.7,1.3-3.7,3.1v43.9c0,1.9-1.2,3.7-3.1,3.7h-43.8c-1.9,0-3.7-1.8-3.7-3.7v-43.9
							c0-1.8-1.2-3.1-3.6-3.1H396c-2.4,0-3.7-1.7-3.7-3.6v-43.9c0-1.8,1.3-3.6,3.7-3.6h43.2c2.4,0,3.6-1.3,3.6-3.1v-43.9
							c0-1.8,1.8-3.6,3.7-3.6h43.8C492.3,389.9,493.5,391.8,493.5,393.6"/>
					</g>
				</g>
			</g>
		</g>
	</g>
</g>
<g>
	<path class="st1" d="M25.1,13.2c1.4,0,2.9-0.1,4.2-0.1c-0.4-0.6-1.4-1.6-4.1-1.7c-3.5-0.1-4.4,0.6-4.7,1.8
		C21.6,13.3,23.3,13.3,25.1,13.2z"/>
	<path class="st1" d="M14.6,41L14.6,41c2.7,0.9,6.5,1.7,7.6,1c1.3-0.9,1.5-2.2,1.4-2.8c-7.1-1.6-9-4-9.1-4.1l0.8-0.6
		c0,0,0.3,0.3,1,0.8c1.2,0.8,3.6,2.1,8.1,3c0.8,0.2,1.7,0.3,2.7,0.5c2.1-0.6,2.4-1.2,2.8-2.4c0.3-0.8-0.2-1.6-0.5-1.8
		c-1.3-0.3-8.9-2-11.6-6.2l0.8-0.5c0.2,0.3,0.4,0.6,0.6,0.8c2.1,2.4,6.2,3.8,8.5,4.5c1,0.3,1.7,0.4,1.8,0.5c0.1,0,0.6-0.2,1.7-1.3
		c1-1,0.4-2.5,0.2-3c-5.5-1.3-8.9-6.2-9.5-7.2c-0.4-0.1-0.7-0.1-1.2-0.2c-1.9-0.5-3-1.5-3.8-2.4c-1,0.7-3.3,2.9-0.5,6.7
		c-3.6-1.7-5,1.3-5,1.3s-2,2.7,1.4,5.1c-3.6-0.3-3.7,2.1-3.7,2.1S8.3,38.9,14.6,41z"/>
	<path class="st1" d="M26.4,39.6c-0.6-0.1-1.2-0.2-1.8-0.3c0,0.9-0.3,2.4-1.9,3.5c-0.5,0.3-1.2,0.4-2,0.4c-2.2,0-5.3-0.9-6.7-1.3
		c-3.7,6.5-4.3,7.2-4.3,7.2l0.5,2.6l-1.2,2l5.6,3.3l1.2-2.2l2.5-1l2.2-3.9l0,0l0.3-0.5c0,0,0.3-0.5,0.8-1.3c0.8-1.4,2.2-3.8,3.3-5.8
		C25.5,41.3,26,40.3,26.4,39.6z"/>
	<path class="st1" d="M38.8,18.5l3.8-7c0,0,0-2.1-3.4-3.9s-5-1-5-1l-3.6,6.6c2,0.2,3.5,1.4,5.1,2.9C36.6,16.9,37.6,17.7,38.8,18.5z"
		/>
	<path class="st1" d="M44.4,31.4c-1.4-6.9-2-9.7-5.6-11.7c-0.2-0.1-0.3-0.2-0.5-0.3c-1.3-0.8-2.4-1.7-3.3-2.5
		c-1.5-1.3-2.9-2.5-4.6-2.6c-0.1,0-0.1,0-0.2,0c-1.5-0.1-3.3,0-5.1,0c-2.2,0.1-4.3,0.1-5.4-0.1c-2-0.3-2.6,0.5-2.9,1.2
		c-0.1,0.3-0.1,1.2,0.4,2.3c0.2,0.4,0.5,0.8,0.9,1.3c0.6,0.7,1.6,1.4,3.1,1.8c1.9,0.5,2.9,0.3,3.9,0.1c1.1-0.2,2.2-0.4,4.2,0.6
		c3.2,1.7,5,2.8,5.4,4.1c0.1,0.4,0.1,0.9-0.1,1.3C34,28,33.2,28.7,32.7,29c0.3,0.8,0.9,2.6-0.5,3.9c-0.7,0.7-1.3,1.1-1.7,1.3
		c0.1,0.2,0.3,0.5,0.3,0.7c0.2,0.5,0.2,1,0,1.7c-0.5,1.4-1,2.3-3.4,3c-1.1,2.1-4.4,7.9-5.5,9.7c2.3,0.9,11.3,4.6,19.8,13.2
		c10.7-10.8,14.7-14.8,15.8-16C55.4,45,45.7,37.8,44.4,31.4z"/>
	<path class="st1" d="M30.9,28c0.3,0.1,0.7,0.2,1,0.3c0.3-0.2,1.2-0.8,1.8-1.8c0.1-0.2,0.1-0.3,0.1-0.5c-0.3-1-2.7-2.3-4.9-3.5
		c-1.6-0.9-2.4-0.7-3.5-0.5c-0.5,0.1-1.1,0.2-1.9,0.2c0.1,0.1,0.2,0.3,0.3,0.4C25,24.2,27.5,26.8,30.9,28z"/>
	<path class="st1" d="M29.7,34L29.7,34L29.7,34z"/>
</g>
<g>
	<path class="st0" d="M32.9,52.2l-0.3-1c0.2,0,4.6-1.3,5.5-5.8v-0.2l0.2-0.1c3.5-2.1,5.5-4.7,5.5-7.6h1c0,3.1-2,6.1-5.8,8.3
		C37.9,50.8,33.1,52.2,32.9,52.2z"/>
</g>
<g>
	<path class="st0" d="M36.3,42.1c-2.7,0-4.5-2.3-4.6-2.5l0.8-0.6c0,0,2,2.6,4.7,2l0.2,1C37,42,36.6,42.1,36.3,42.1z"/>
</g>
</svg>
