<?xml version="1.0" encoding="UTF-8" standalone="no"?>
<!-- Generator: Adobe Illustrator 24.1.0, SVG Export Plug-In . SVG Version: 6.00 Build 0)  -->

<svg
   xmlns:dc="http://purl.org/dc/elements/1.1/"
   xmlns:cc="http://creativecommons.org/ns#"
   xmlns:rdf="http://www.w3.org/1999/02/22-rdf-syntax-ns#"
   xmlns:svg="http://www.w3.org/2000/svg"
   xmlns="http://www.w3.org/2000/svg"
   xmlns:sodipodi="http://sodipodi.sourceforge.net/DTD/sodipodi-0.dtd"
   xmlns:inkscape="http://www.inkscape.org/namespaces/inkscape"
   version="1.1"
   id="svg2"
   x="0px"
   y="0px"
   viewBox="0 0 125 125"
   xml:space="preserve"
   sodipodi:docname="1022.svg"
   width="125"
   height="125"
   inkscape:version="0.92.5 (2060ec1f9f, 2020-04-08)"><metadata
   id="metadata41066"><rdf:RDF><cc:Work
       rdf:about=""><dc:format>image/svg+xml</dc:format><dc:type
         rdf:resource="http://purl.org/dc/dcmitype/StillImage" /><dc:title></dc:title></cc:Work></rdf:RDF></metadata><defs
   id="defs41064" /><sodipodi:namedview
   pagecolor="#ffffff"
   bordercolor="#666666"
   borderopacity="1"
   objecttolerance="10"
   gridtolerance="10"
   guidetolerance="10"
   inkscape:pageopacity="0"
   inkscape:pageshadow="2"
   inkscape:window-width="728"
   inkscape:window-height="480"
   id="namedview41062"
   showgrid="false"
   inkscape:zoom="3.3286318"
   inkscape:cx="36.436292"
   inkscape:cy="35.450001"
   inkscape:window-x="0"
   inkscape:window-y="0"
   inkscape:window-maximized="0"
   inkscape:current-layer="svg2" />
<style
   type="text/css"
   id="style41049">
	.st0{fill:#FFFFFF;}
</style>

<g
   id="g41616"
   transform="matrix(0.91678418,0,0,0.91678418,30,30)"><rect
     id="rect41051"
     height="70.900002"
     width="70.900002"
     class="st0"
     y="0"
     x="0"
     style="fill:#ffffff" /><g
     id="g41059">
	<path
   id="path41053"
   d="m 19.1,38.2 4.1,1.3 c -0.6,2.3 -1.7,4 -3.2,5.1 -1.5,1.1 -3.3,1.7 -5.6,1.7 -2.8,0 -5.1,-1 -6.9,-2.9 -1.8,-1.9 -2.7,-4.5 -2.7,-7.9 0,-3.5 0.9,-6.3 2.7,-8.2 1.8,-1.9 4.2,-2.9 7.2,-2.9 2.6,0 4.7,0.8 6.3,2.3 1,0.9 1.7,2.2 2.2,3.9 l -4.2,1 c -0.2,-1.1 -0.8,-2 -1.6,-2.6 -0.8,-0.6 -1.8,-1 -2.9,-1 -1.6,0 -2.8,0.6 -3.8,1.7 -1,1.1 -1.5,2.9 -1.5,5.5 0,2.7 0.5,4.6 1.4,5.7 1,1.1 2.2,1.7 3.8,1.7 1.1,0 2.1,-0.4 2.9,-1.1 0.8,-0.6 1.4,-1.7 1.8,-3.3 z"
   inkscape:connector-curvature="0" />
	<path
   id="path41055"
   d="m 39.8,38.2 4.1,1.3 c -0.6,2.3 -1.7,4 -3.2,5.1 -1.5,1.1 -3.3,1.7 -5.6,1.7 -2.8,0 -5.1,-1 -6.9,-2.9 -1.8,-1.9 -2.7,-4.5 -2.7,-7.9 0,-3.5 0.9,-6.3 2.7,-8.2 1.8,-1.9 4.2,-2.9 7.2,-2.9 2.6,0 4.7,0.8 6.3,2.3 1,0.9 1.7,2.2 2.2,3.9 l -4.2,1 c -0.2,-1.1 -0.8,-2 -1.6,-2.6 -0.8,-0.6 -1.8,-1 -2.9,-1 -1.6,0 -2.8,0.6 -3.8,1.7 -1,1.1 -1.5,2.9 -1.5,5.5 0,2.7 0.5,4.6 1.4,5.7 1,1.1 2.2,1.7 3.8,1.7 1.1,0 2.1,-0.4 2.9,-1.1 0.8,-0.7 1.5,-1.7 1.8,-3.3 z"
   inkscape:connector-curvature="0" />
	<path
   id="path41057"
   d="M 47.1,46 V 24.9 h 9 c 2.3,0 3.9,0.2 4.9,0.6 1,0.4 1.8,1.1 2.5,2 0.6,1 0.9,2.1 0.9,3.3 0,1.6 -0.5,2.9 -1.4,3.9 -0.9,1 -2.3,1.7 -4.2,2 0.9,0.5 1.7,1.1 2.3,1.8 0.6,0.6 1.4,1.8 2.4,3.4 L 66.1,46 H 61 L 57.9,41.4 C 56.8,39.8 56.1,38.7 55.6,38.3 55.2,37.9 54.8,37.6 54.3,37.4 53.8,37.2 53.1,37.2 52.2,37.2 H 51.3 V 46 Z m 4.2,-12.2 h 3.2 c 2,0 3.3,-0.1 3.8,-0.3 0.5,-0.2 0.9,-0.5 1.2,-0.9 0.3,-0.4 0.4,-1 0.4,-1.6 0,-0.7 -0.2,-1.3 -0.6,-1.7 -0.4,-0.4 -0.9,-0.7 -1.6,-0.8 -0.3,0 -1.4,-0.1 -3.1,-0.1 h -3.3 z"
   inkscape:connector-curvature="0" />
</g></g>
</svg>