<?xml version="1.0" encoding="UTF-8" standalone="no"?>
<!-- Created with Inkscape (http://www.inkscape.org/) -->

<svg
   xmlns:dc="http://purl.org/dc/elements/1.1/"
   xmlns:cc="http://creativecommons.org/ns#"
   xmlns:rdf="http://www.w3.org/1999/02/22-rdf-syntax-ns#"
   xmlns:svg="http://www.w3.org/2000/svg"
   xmlns="http://www.w3.org/2000/svg"
   xmlns:sodipodi="http://sodipodi.sourceforge.net/DTD/sodipodi-0.dtd"
   xmlns:inkscape="http://www.inkscape.org/namespaces/inkscape"
   version="1.1"
   width="71"
   height="71"
   id="svg2"
   xml:space="preserve"
   inkscape:version="0.48.4 r9939"
   sodipodi:docname="Tb2.001.svg"><sodipodi:namedview
     pagecolor="#ffffff"
     bordercolor="#666666"
     borderopacity="1"
     objecttolerance="10"
     gridtolerance="10"
     guidetolerance="10"
     inkscape:pageopacity="0"
     inkscape:pageshadow="2"
     inkscape:window-width="640"
     inkscape:window-height="480"
     id="namedview18"
     showgrid="false"
     inkscape:zoom="3.3303932"
     inkscape:cx="35.431252"
     inkscape:cy="35.581384"
     inkscape:window-x="0"
     inkscape:window-y="27"
     inkscape:window-maximized="0"
     inkscape:current-layer="svg2" /><metadata
     id="metadata8"><rdf:RDF><cc:Work
         rdf:about=""><dc:format>image/svg+xml</dc:format><dc:type
           rdf:resource="http://purl.org/dc/dcmitype/StillImage" /><dc:title /></cc:Work></rdf:RDF></metadata><defs
     id="defs6"><clipPath
       id="clipPath18"><path
         d="M 0,566.891 0,0 l 566.934,0 0,566.891 -566.934,0 z"
         id="path20"
         inkscape:connector-curvature="0" /></clipPath></defs><rect
     style="color:#000000;fill:#ffffff;fill-opacity:1;fill-rule:nonzero;stroke:#000000;stroke-width:2;stroke-linecap:butt;stroke-linejoin:miter;stroke-miterlimit:4;stroke-opacity:1;stroke-dasharray:none;stroke-dashoffset:0;marker:none;visibility:visible;display:inline;overflow:visible;enable-background:accumulate"
     id="rect2995"
     width="69.988068"
     height="69.988068"
     x="0.43721792"
     y="0.42458245"
     rx="0.0039863177" /><rect
     style="color:#000000;fill:#ffffff;fill-opacity:1;fill-rule:nonzero;stroke:none;stroke-width:1;marker:none;visibility:visible;display:inline;overflow:visible;enable-background:accumulate"
     id="rect3009"
     y="12.14809"
     x="22.519863"
     rx="0.26909703"
     height="31.828074"
     width="37.83337" /><path
     d="m 19.330625,47.949247 43.027875,0 0,-39.2295001 -43.027875,0 0,39.2295001 z"
     id="path24"
     style="fill:#231f20;fill-opacity:1;fill-rule:nonzero;stroke:none"
     inkscape:connector-curvature="0" /><path
     d="m 20.13625,47.216747 41.419,0 0,-37.7553751 -41.419,0 0,37.7553751 z"
     id="path26"
     style="fill:#ed1c24;fill-opacity:1;fill-rule:nonzero;stroke:none"
     inkscape:connector-curvature="0" /><path
     d="M 14.474625,51.417497 C 14.2905,50.951122 13.914,50.580997 13.461,50.309122 c -0.09475,-0.100125 -0.18175,-0.100125 -0.276,-0.100125 -0.191375,0 -0.284625,0 -0.38275,0.100125 -0.449712,0.271875 -0.731937,0.642 -1.010262,1.108375 -0.362788,0.54925 -0.642088,1.098625 -0.73925,1.743125 -0.271975,0.84575 -0.362313,1.76025 -0.362313,2.67675 0,0.92675 0.09034,1.84325 0.362313,2.679712 0.09716,0.645513 0.376462,1.197263 0.73925,1.750488 0.278325,0.463875 0.56055,0.835937 1.010262,1.110837 0.09812,0.09864 0.191375,0.09864 0.38275,0.09864 0.09425,0 0.18125,0 0.276,-0.09864 0.453,-0.2749 0.8295,-0.646962 1.013625,-1.110837 0.3725,-0.553225 0.642125,-1.104975 0.830125,-1.750488 0.1875,-0.836462 0.281625,-1.752962 0.281625,-2.679712 0,-0.9165 -0.09413,-1.831 -0.281625,-2.67675 -0.188,-0.6445 -0.457625,-1.193875 -0.830125,-1.743125 z m 4.856,-30.080625 0,16.838375 -0.30475,0 c -0.457,0 -0.930625,-0.459 -0.930625,-0.917875 l 0,-4.567 c 0,-0.462875 -0.36725,-0.83 -0.82275,-0.83 l -0.456625,0 0,4.06 c 0,0.28225 -0.19775,0.5645 -0.376375,0.74225 l -1.110875,0.836375 c -0.2725,0.18075 -0.36725,0.368625 -0.36725,0.63825 l -0.46675,9.8525 c 0.09475,0.1035 0.285625,0.189 0.373,0.28175 0.74275,0.463875 1.390125,1.101 1.7505,1.847125 0.560125,0.744625 0.838375,1.566 1.109875,2.49275 0.286625,1.013125 0.36725,2.128875 0.36725,3.226 0,1.19875 -0.08063,2.3145 -0.36725,3.325225 -0.2715,0.924312 -0.54975,1.76025 -1.109875,2.49755 -0.360375,0.736337 -1.00775,1.388187 -1.7505,1.852062 -0.459375,0.3623 -1.104875,0.546875 -1.7495,0.546875 -0.644975,0 -1.293412,-0.184575 -1.759725,-0.546875 C 10.619625,63.048334 10.065913,62.396484 9.6088875,61.660147 9.138675,60.922847 8.7724625,60.086909 8.49805,59.162597 8.3125,58.151872 8.125,57.036122 8.125,55.837372 c 0,-1.097125 0.1875,-2.212875 0.37305,-3.226 0.2744125,-0.92675 0.640625,-1.748125 1.1108375,-2.49275 0.4570255,-0.746125 1.0107375,-1.38325 1.7495125,-1.847125 0.09716,-0.09275 0.2749,-0.17825 0.369625,-0.28175 l -0.369625,-9.8525 c 0,-0.269625 -0.188475,-0.4575 -0.365725,-0.63825 l -1.1123,-0.836375 c -0.2714875,-0.17775 -0.3652375,-0.46 -0.3652375,-0.74225 l 0,-15.88325 7.3007375,0 0,5.974125 0.362375,0 c 0.54975,0 0.917,-0.46725 0.917,-0.924375 l 0,-2.82375 c 0,-0.470125 0.473625,-0.92625 0.930625,-0.92625 l 0.30475,0"
     id="path28"
     style="fill:#231f20;fill-opacity:1;fill-rule:nonzero;stroke:none"
     inkscape:connector-curvature="0" /><path
     d="m 24.486375,38.170372 0,-20.19575 3.9795,0 8.291,13.48925 0,-13.48925 3.797375,0 0,20.19575 -4.108,0 -8.1625,-13.184 0,13.184 -3.797375,0"
     id="path30"
     style="fill:#ffffff;fill-opacity:1;fill-rule:nonzero;stroke:none"
     inkscape:connector-curvature="0" /><path
     d="m 53.503375,29.539997 c -0.02775,-1.118625 -0.3125,-1.96725 -0.859375,-2.54875 -0.544375,-0.5845 -1.21425,-0.8765 -1.994625,-0.8765 -0.835875,0 -1.532125,0.312 -2.0825,0.923875 -0.544375,0.61475 -0.814375,1.442875 -0.804125,2.501375 l 5.740625,0 z m -0.271875,4.016625 3.855875,0.651375 c -0.491625,1.414125 -1.2695,2.492625 -2.333,3.233375 -1.063,0.73875 -2.389625,1.108375 -3.981375,1.108375 -2.529875,0 -4.395125,-0.838375 -5.609375,-2.514625 -0.95225,-1.339375 -1.433125,-3.036125 -1.433125,-5.085375 0,-2.44 0.63225,-4.354 1.8945,-5.74225 1.267125,-1.379875 2.861375,-2.075125 4.794875,-2.075125 2.174375,0 3.88675,0.722625 5.13825,2.1665 1.251875,1.440375 1.854,3.650375 1.795375,6.628875 l -9.65575,0 c 0.022,1.1455 0.332,2.042 0.917,2.67725 0.586875,0.640625 1.319375,0.959 2.190875,0.959 0.599125,0 1.09775,-0.15725 1.506375,-0.476125 0.40525,-0.315875 0.715375,-0.825625 0.9195,-1.53125"
     id="path32"
     style="fill:#ffffff;fill-opacity:1;fill-rule:nonzero;stroke:none"
     inkscape:connector-curvature="0" /></svg>