<?xml version="1.0" encoding="UTF-8" standalone="no"?>
<!-- Created with Inkscape (http://www.inkscape.org/) -->

<svg
   xmlns:dc="http://purl.org/dc/elements/1.1/"
   xmlns:cc="http://creativecommons.org/ns#"
   xmlns:rdf="http://www.w3.org/1999/02/22-rdf-syntax-ns#"
   xmlns:svg="http://www.w3.org/2000/svg"
   xmlns="http://www.w3.org/2000/svg"
   xmlns:sodipodi="http://sodipodi.sourceforge.net/DTD/sodipodi-0.dtd"
   xmlns:inkscape="http://www.inkscape.org/namespaces/inkscape"
   version="1.1"
   width="125"
   height="125"
   id="svg2"
   xml:space="preserve"
   inkscape:version="0.92.5 (2060ec1f9f, 2020-04-08)"
   sodipodi:docname="11.svg"><sodipodi:namedview
     pagecolor="#ffffff"
     bordercolor="#666666"
     borderopacity="1"
     objecttolerance="10"
     gridtolerance="10"
     guidetolerance="10"
     inkscape:pageopacity="0"
     inkscape:pageshadow="2"
     inkscape:window-width="1920"
     inkscape:window-height="1017"
     id="namedview18"
     showgrid="false"
     inkscape:zoom="3.3303932"
     inkscape:cx="35.431252"
     inkscape:cy="35.581384"
     inkscape:window-x="-8"
     inkscape:window-y="-8"
     inkscape:window-maximized="1"
     inkscape:current-layer="svg2" /><metadata
     id="metadata8"><rdf:RDF><cc:Work
         rdf:about=""><dc:format>image/svg+xml</dc:format><dc:type
           rdf:resource="http://purl.org/dc/dcmitype/StillImage" /><dc:title></dc:title></cc:Work></rdf:RDF></metadata><defs
     id="defs6"><clipPath
       id="clipPath18"><path
         d="M 0,566.891 V 0 h 566.934 v 566.891 z"
         id="path20"
         inkscape:connector-curvature="0" /></clipPath></defs><g
     id="g17459"
     transform="translate(30.562782,-30.412655)"><rect
       rx="0.0035993555"
       y="61.315582"
       x="0.34014532"
       height="63.194145"
       width="63.194145"
       id="rect2995"
       style="color:#000000;display:inline;overflow:visible;visibility:visible;fill:#ffffff;fill-opacity:1;fill-rule:nonzero;stroke:#000000;stroke-width:1.8058548;stroke-linecap:butt;stroke-linejoin:miter;stroke-miterlimit:4;stroke-dasharray:none;stroke-dashoffset:0;stroke-opacity:1;marker:none;enable-background:accumulate" /><rect
       width="34.160789"
       height="28.738438"
       rx="0.24297509"
       x="20.279173"
       y="71.901062"
       id="rect3009"
       style="color:#000000;display:inline;overflow:visible;visibility:visible;fill:#ffffff;fill-opacity:1;fill-rule:nonzero;stroke:none;stroke-width:0.9029274;marker:none;enable-background:accumulate" /><path
       inkscape:connector-curvature="0"
       style="fill:#231f20;fill-opacity:1;fill-rule:nonzero;stroke:none;stroke-width:0.9029274"
       id="path24"
       d="M 17.399521,104.2269 H 56.250568 V 68.805512 H 17.399521 Z" /><path
       inkscape:connector-curvature="0"
       style="fill:#ed1c24;fill-opacity:1;fill-rule:nonzero;stroke:none;stroke-width:0.9029274"
       id="path26"
       d="m 18.126942,103.56551 h 37.39835 V 69.475146 h -37.39835 z" /><path
       inkscape:connector-curvature="0"
       style="fill:#231f20;fill-opacity:1;fill-rule:nonzero;stroke:none;stroke-width:0.9029274"
       id="path28"
       d="m 13.014905,107.35848 c -0.166251,-0.4211 -0.506204,-0.7553 -0.91523,-1.00078 -0.08556,-0.0904 -0.164107,-0.0904 -0.249207,-0.0904 -0.172799,0 -0.256997,0 -0.345596,0.0904 -0.406058,0.24548 -0.660886,0.57968 -0.912194,1.00078 -0.327571,0.49593 -0.579758,0.99198 -0.6674886,1.57391 -0.2455736,0.76366 -0.3271423,1.58938 -0.3271423,2.41692 0,0.83678 0.081571,1.66432 0.3271423,2.41958 0.087729,0.58285 0.3399176,1.08104 0.6674886,1.58056 0.251308,0.41885 0.506136,0.75479 0.912194,1.00301 0.08859,0.0891 0.172797,0.0891 0.345596,0.0891 0.0851,0 0.163655,0 0.249207,-0.0891 0.409026,-0.24822 0.748979,-0.58416 0.91523,-1.00301 0.336341,-0.49952 0.579793,-0.99771 0.749543,-1.58056 0.169299,-0.75526 0.254287,-1.5828 0.254287,-2.41958 0,-0.82754 -0.085,-1.65326 -0.254287,-2.41692 -0.16975,-0.58193 -0.413202,-1.07798 -0.749543,-1.57391 z m 4.384616,-27.16062 v 15.20383 h -0.275168 c -0.412637,0 -0.840287,-0.414445 -0.840287,-0.828775 v -4.123669 c 0,-0.417943 -0.3316,-0.74943 -0.742883,-0.74943 h -0.412299 v 3.665885 c 0,0.254851 -0.178554,0.509703 -0.33984,0.670198 l -1.003039,0.755186 c -0.246047,0.163203 -0.3316,0.332841 -0.3316,0.576293 l -0.421442,8.896092 c 0.08556,0.0935 0.257899,0.17065 0.336792,0.2544 0.670649,0.41885 1.255183,0.99412 1.580575,1.66782 0.505752,0.67234 0.756992,1.41398 1.002136,2.25077 0.258803,0.91478 0.3316,1.92222 0.3316,2.91285 0,1.08238 -0.0728,2.08982 -0.3316,3.00243 -0.245144,0.83459 -0.496384,1.58938 -1.002136,2.25511 -0.325392,0.66486 -0.909926,1.25343 -1.580575,1.67228 -0.414782,0.32713 -0.997621,0.49379 -1.579671,0.49379 -0.582366,0 -1.167857,-0.16666 -1.588904,-0.49379 -0.6670601,-0.41885 -1.1670219,-1.00742 -1.5796828,-1.67228 -0.4245677,-0.66573 -0.755231,-1.42052 -1.0030056,-2.25511 -0.1675382,-0.91261 -0.3368371,-1.92005 -0.3368371,-3.00243 0,-0.99063 0.1692989,-1.99807 0.3368371,-2.91285 0.2477746,-0.83679 0.5784379,-1.57843 1.0030056,-2.25077 0.4126609,-0.6737 0.9126227,-1.24898 1.5796828,-1.66782 0.08773,-0.0838 0.248215,-0.16095 0.333745,-0.2544 L 10.20118,95.367378 c 0,-0.243452 -0.170179,-0.41309 -0.3302231,-0.576293 L 8.8666308,94.035899 C 8.6214972,93.875404 8.5368478,93.620552 8.5368478,93.365701 V 79.02428 h 6.5920362 v 5.394201 h 0.327198 c 0.496384,0 0.827984,-0.421893 0.827984,-0.834643 v -2.549642 c 0,-0.424489 0.42765,-0.836336 0.840287,-0.836336 h 0.275168" /><path
       inkscape:connector-curvature="0"
       style="fill:#ffffff;fill-opacity:1;fill-rule:nonzero;stroke:none;stroke-width:0.9029274"
       id="path30"
       d="M 22.054789,95.397288 V 77.161992 h 3.5932 l 7.48617,12.179813 V 77.161992 h 3.428755 V 95.397288 H 32.853688 L 25.483543,83.493093 v 11.904195 h -3.428754" /><path
       inkscape:connector-curvature="0"
       style="fill:#ffffff;fill-opacity:1;fill-rule:nonzero;stroke:none;stroke-width:0.9029274"
       id="path32"
       d="m 48.255034,87.604686 c -0.02506,-1.010037 -0.282165,-1.776284 -0.775954,-2.301337 -0.491531,-0.52776 -1.09638,-0.791415 -1.801002,-0.791415 -0.754734,0 -1.383397,0.281713 -1.880345,0.834192 -0.491532,0.555075 -0.735322,1.302812 -0.726067,2.25856 z m -0.245483,3.626721 3.481574,0.588144 c -0.443902,1.276852 -1.146266,2.250659 -2.10653,2.919502 -0.959811,0.667038 -2.157657,1.000783 -3.594892,1.000783 -2.284294,0 -3.968479,-0.756992 -5.064859,-2.270524 -0.859812,-1.209358 -1.294007,-2.7414 -1.294007,-4.591724 0,-2.203143 0.570876,-3.931346 1.710595,-5.184835 1.144123,-1.245927 2.583615,-1.873687 4.329425,-1.873687 1.963303,0 3.509453,0.652477 4.639467,1.956192 1.130352,1.300554 1.674027,3.296024 1.621093,5.985393 h -8.718441 c 0.01986,1.034303 0.299771,1.843778 0.827984,2.417362 0.529906,0.578438 1.1913,0.865907 1.978201,0.865907 0.540966,0 0.991189,-0.141985 1.360148,-0.429906 0.365911,-0.285212 0.645931,-0.745479 0.830242,-1.382607" /></g></svg>