<?xml version="1.0" encoding="UTF-8" standalone="no"?>
<!-- Created with Inkscape (http://www.inkscape.org/) -->

<svg
   xmlns:dc="http://purl.org/dc/elements/1.1/"
   xmlns:cc="http://creativecommons.org/ns#"
   xmlns:rdf="http://www.w3.org/1999/02/22-rdf-syntax-ns#"
   xmlns:svg="http://www.w3.org/2000/svg"
   xmlns="http://www.w3.org/2000/svg"
   xmlns:sodipodi="http://sodipodi.sourceforge.net/DTD/sodipodi-0.dtd"
   xmlns:inkscape="http://www.inkscape.org/namespaces/inkscape"
   version="1.1"
   width="125"
   height="125"
   id="svg2"
   xml:space="preserve"
   inkscape:version="0.92.5 (2060ec1f9f, 2020-04-08)"
   sodipodi:docname="12.svg"><sodipodi:namedview
     pagecolor="#ffffff"
     bordercolor="#666666"
     borderopacity="1"
     objecttolerance="10"
     gridtolerance="10"
     guidetolerance="10"
     inkscape:pageopacity="0"
     inkscape:pageshadow="2"
     inkscape:window-width="1920"
     inkscape:window-height="1017"
     id="namedview19"
     showgrid="false"
     inkscape:zoom="3.3303932"
     inkscape:cx="35.431252"
     inkscape:cy="35.581384"
     inkscape:window-x="-8"
     inkscape:window-y="-8"
     inkscape:window-maximized="1"
     inkscape:current-layer="svg2" /><metadata
     id="metadata8"><rdf:RDF><cc:Work
         rdf:about=""><dc:format>image/svg+xml</dc:format><dc:type
           rdf:resource="http://purl.org/dc/dcmitype/StillImage" /><dc:title></dc:title></cc:Work></rdf:RDF></metadata><defs
     id="defs6"><clipPath
       id="clipPath18"><path
         d="M 0,566.93 V 0 h 566.934 v 566.93 z"
         id="path20"
         inkscape:connector-curvature="0" /></clipPath></defs><g
     id="g18109"
     transform="translate(30.000001,24.137499)"><rect
       rx="0.0036159782"
       y="7.5183945"
       x="1.2836143"
       height="61.967064"
       width="62.517437"
       id="rect2993"
       style="color:#000000;display:inline;overflow:visible;visibility:visible;fill:#ffffff;fill-opacity:1;fill-rule:nonzero;stroke:#ffffff;stroke-width:0.91721755;stroke-linecap:butt;stroke-linejoin:miter;stroke-miterlimit:4;stroke-dasharray:none;stroke-dashoffset:0;stroke-opacity:1;marker:none;enable-background:accumulate" /><g
       id="g10"
       transform="matrix(1.1465179,0,0,-1.146526,0,70.8625)"><g
         id="g12"
         transform="scale(0.1)"><g
           id="g14"><g
             id="g16"
             clip-path="url(#clipPath18)"><path
               inkscape:connector-curvature="0"
               style="fill:#231f20;fill-opacity:1;fill-rule:nonzero;stroke:none"
               id="path22"
               d="m 547.695,547.676 c 0,-18.223 0,-510.2033 0,-528.4299 -18.23,0 -510.2145,0 -528.4489,0 0,18.2266 0,510.2069 0,528.4299 18.2344,0 510.2189,0 528.4489,0 z m 9.617,19.254 H 0 V 0 h 566.934 v 566.93 h -9.622" /><path
               inkscape:connector-curvature="0"
               style="fill:#231f20;fill-opacity:1;fill-rule:nonzero;stroke:none"
               id="path24"
               d="m 284.887,523.809 c -113.559,0 -205.8948,-92.34 -205.8948,-205.907 v -6.828 H 490.742 v 6.828 c 0,113.567 -92.344,205.907 -205.855,205.907" /><path
               inkscape:connector-curvature="0"
               style="fill:#231f20;fill-opacity:1;fill-rule:nonzero;stroke:none"
               id="path26"
               d="m 441.426,222.227 h -73.059 v 54.093 h -167 v -54.093 h -79.875 v -61.258 h 326.875 v 61.258 h -6.941" /><path
               inkscape:connector-curvature="0"
               style="fill:#ed1c24;fill-opacity:1;fill-rule:nonzero;stroke:none"
               id="path28"
               d="m 284.887,510.082 c 103.59,0 187.672,-82.539 191.375,-185.258 H 93.4688 C 97.2031,427.543 181.27,510.082 284.887,510.082" /><path
               inkscape:connector-curvature="0"
               style="fill:#231f20;fill-opacity:1;fill-rule:nonzero;stroke:none"
               id="path30"
               d="m 114.488,70.6172 17.961,1.6211 c 1.074,-5.9961 3.235,-10.293 6.531,-13.125 3.262,-2.793 7.704,-4.1914 13.25,-4.1914 5.891,0 10.332,1.2383 13.36,3.7304 2.996,2.4532 4.484,5.4024 4.484,8.7969 0,2.0742 -0.672,3.8906 -1.886,5.3946 -1.293,1.4335 -3.5,2.871 -6.606,3.9257 -2.156,0.8282 -7.074,2.0782 -14.664,4.043 -9.816,2.3711 -16.703,5.3477 -20.719,8.9727 -5.535,4.9804 -8.328,11.1328 -8.328,18.2738 0,4.722 1.305,9.058 3.926,13.062 2.601,3.996 6.457,7.055 11.367,9.211 4.957,2.109 10.891,3.203 17.883,3.203 11.402,0 20.008,-2.488 25.754,-7.617 5.773,-4.949 8.801,-11.699 9.113,-20.051 l -18.398,-0.719 c -0.782,4.723 -2.473,8.008 -5.067,10.047 -2.554,2.082 -6.453,3.098 -11.594,3.098 -5.347,0 -9.484,-1.094 -12.5,-3.32 -1.972,-1.321 -2.957,-3.282 -2.957,-5.664 0,-2.121 0.95,-3.938 2.766,-5.403 2.266,-1.961 7.891,-4.0427 16.816,-6.1912 8.922,-2.0781 15.528,-4.3086 19.77,-6.4921 4.32,-2.2696 7.633,-5.3243 10.012,-9.25 2.445,-3.9532 3.711,-8.8282 3.711,-14.5235 0,-5.1719 -1.457,-10.1523 -4.364,-14.6445 -2.914,-4.6406 -7,-8.0391 -12.261,-10.2656 -5.317,-2.1485 -11.926,-3.2813 -19.821,-3.2813 -11.507,0 -20.312,2.7149 -26.484,8.0781 -6.207,5.1641 -9.828,13.0547 -11.055,23.2813" /><path
               inkscape:connector-curvature="0"
               style="fill:#231f20;fill-opacity:1;fill-rule:nonzero;stroke:none"
               id="path32"
               d="m 224.555,40.8789 v 75.5271 h -26.84 v 15.391 h 72.082 V 116.406 H 242.945 V 40.8789 h -18.39" /><path
               inkscape:connector-curvature="0"
               style="fill:#231f20;fill-opacity:1;fill-rule:nonzero;stroke:none"
               id="path34"
               d="m 294.551,86.4258 c 0,-10.332 2.336,-18.2227 7.121,-23.5039 4.723,-5.4024 10.691,-8 18.016,-8 7.277,0 13.242,2.5273 17.957,7.9219 4.64,5.2812 6.984,13.25 6.984,23.8164 0,10.4882 -2.344,18.3398 -6.836,23.4378 -4.523,5.175 -10.598,7.773 -18.105,7.773 -7.547,0 -13.626,-2.676 -18.223,-7.84 -4.629,-5.187 -6.914,-13.0662 -6.914,-23.6052 m -18.977,-0.5977 c 0,9.2813 1.344,17.0159 4.129,23.3709 2.035,4.641 4.867,8.75 8.449,12.453 3.567,3.7 7.473,6.453 11.711,8.184 5.672,2.461 12.199,3.699 19.59,3.699 13.399,0 24.121,-4.226 32.117,-12.488 8.039,-8.344 12.075,-20.012 12.075,-34.7658 0,-14.6796 -3.957,-26.2695 -11.926,-34.457 -7.957,-8.3359 -18.645,-12.5664 -32,-12.5664 -13.496,0 -24.239,4.2305 -32.199,12.4141 -8.016,8.2695 -11.946,19.6679 -11.946,34.1562" /><path
               inkscape:connector-curvature="0"
               style="fill:#231f20;fill-opacity:1;fill-rule:nonzero;stroke:none"
               id="path36"
               d="M 396.516,116.406 V 90.6172 h 10 c 7.175,0 11.961,0.457 14.343,1.4336 2.411,0.9101 4.297,2.3828 5.735,4.4531 1.316,1.9649 2,4.4141 2,7.0621 0,3.321 -0.949,6.004 -2.871,8.192 -1.922,2.16 -4.297,3.437 -7.356,4.043 -2.156,0.344 -6.531,0.605 -13.094,0.605 h -8.757 M 378.137,40.8789 v 90.9181 h 29.402 c 11.133,0 18.379,-0.488 21.77,-1.317 5.171,-1.398 9.546,-4.414 13.027,-8.949 3.582,-4.597 5.281,-10.484 5.281,-17.703 0,-5.5858 -0.984,-10.2225 -3.027,-14.1092 -1.992,-3.8204 -4.563,-6.7579 -7.695,-8.9063 -3.133,-2.1914 -6.258,-3.625 -9.473,-4.3477 -4.375,-0.8281 -10.676,-1.2773 -18.984,-1.2773 H 396.516 V 40.8789 h -18.379" /></g></g></g></g></g></svg>