<?xml version="1.0" encoding="UTF-8" standalone="no"?>
<!-- Generator: Adobe Illustrator 24.1.0, SVG Export Plug-In . SVG Version: 6.00 Build 0)  -->

<svg
   xmlns:dc="http://purl.org/dc/elements/1.1/"
   xmlns:cc="http://creativecommons.org/ns#"
   xmlns:rdf="http://www.w3.org/1999/02/22-rdf-syntax-ns#"
   xmlns:svg="http://www.w3.org/2000/svg"
   xmlns="http://www.w3.org/2000/svg"
   xmlns:sodipodi="http://sodipodi.sourceforge.net/DTD/sodipodi-0.dtd"
   xmlns:inkscape="http://www.inkscape.org/namespaces/inkscape"
   version="1.1"
   id="svg2"
   x="0px"
   y="0px"
   viewBox="0 0 125 125"
   xml:space="preserve"
   sodipodi:docname="13.svg"
   width="125"
   height="125"
   inkscape:version="0.92.5 (2060ec1f9f, 2020-04-08)"><metadata
   id="metadata18149"><rdf:RDF><cc:Work
       rdf:about=""><dc:format>image/svg+xml</dc:format><dc:type
         rdf:resource="http://purl.org/dc/dcmitype/StillImage" /><dc:title></dc:title></cc:Work></rdf:RDF></metadata><defs
   id="defs18147" /><sodipodi:namedview
   pagecolor="#ffffff"
   bordercolor="#666666"
   borderopacity="1"
   objecttolerance="10"
   gridtolerance="10"
   guidetolerance="10"
   inkscape:pageopacity="0"
   inkscape:pageshadow="2"
   inkscape:window-width="1920"
   inkscape:window-height="1017"
   id="namedview18145"
   showgrid="false"
   inkscape:zoom="3.94"
   inkscape:cx="35.450001"
   inkscape:cy="35.713092"
   inkscape:window-x="-8"
   inkscape:window-y="-8"
   inkscape:window-maximized="1"
   inkscape:current-layer="svg2" />
<style
   type="text/css"
   id="style18131">
	.st0{fill:#FFFFFF;stroke:#000000;stroke-width:2;}
	.st1{fill-rule:evenodd;clip-rule:evenodd;fill:#231F20;}
	.st2{fill:#231F20;}
	.st3{fill:#176FC1;}
	.st4{enable-background:new    ;}
	.st5{stroke:#000000;stroke-width:0.5;stroke-miterlimit:10;}
</style>







<g
   id="g18703"
   transform="translate(30.551315,-30.450537)"><polygon
     style="fill:#ffffff;stroke:#000000;stroke-width:2"
     transform="matrix(0.90410117,0,0,0.90140639,-0.05649614,61.130891)"
     points="70.4,70.3 0.4,70.3 0.4,0.3 70.4,0.3 "
     class="st0"
     id="rect2995" /><path
     style="clip-rule:evenodd;fill:#231f20;fill-rule:evenodd;stroke-width:0.95011067"
     d="m 22.525176,66.867926 h 3.154989 c 1.80285,8.612259 1.983136,9.713827 2.253563,11.516393 v 0 c 0.270428,-1.602281 0.450713,-3.204562 1.983136,-11.516393 h 3.154989 c 1.622566,8.612259 1.802851,9.413399 2.073278,11.516393 h 0.09014 c 0.180285,-1.502139 0.450713,-2.803992 2.343706,-11.516393 h 2.974704 L 36.587412,82.590305 H 33.702851 C 32.26057,74.87933 31.990143,73.377191 31.53943,70.372915 v 0 c -0.450713,3.004276 -0.630998,4.105844 -2.163421,12.21739 H 26.671733 L 22.525176,66.867926"
     class="st1"
     inkscape:connector-curvature="0"
     id="path22" /><path
     style="fill:#231f20;stroke-width:0.95011067"
     d="m 53.444067,78.484461 c 0,1.602281 0,25.736629 0,27.338919 -1.261995,-0.90129 -21.183497,-13.619391 -21.273639,-13.719533 0.09014,0 20.011644,-12.818246 21.273639,-13.619386 z m -42.727564,0 c 1.261995,0.80114 21.27364,13.619386 21.27364,13.619386 -0.09014,0 -20.011645,12.818243 -21.27364,13.619383 0,-1.50214 0,-25.636488 0,-27.238769 z M 32.080285,91.002279 C 31.629572,90.701851 9.8150775,76.681895 9.8150775,76.681895 V 107.5258 c 0,0 21.8144945,-14.019958 22.2652075,-14.320385 0.450713,0.300427 22.265208,14.320385 22.265208,14.320385 V 76.681895 c 0,0 -21.814495,14.019956 -22.265208,14.320384"
     class="st2"
     inkscape:connector-curvature="0"
     id="path26" /><path
     style="fill:#176fc1;stroke-width:0.95011067"
     d="M 32.170428,92.103847 10.62636,105.92352 V 78.284176 l 21.544068,13.819671"
     class="st3"
     inkscape:connector-curvature="0"
     id="path28" /><path
     style="fill:#176fc1;stroke-width:0.95011067"
     d="M 31.990143,92.103847 53.53421,105.92352 V 78.284176 L 31.990143,92.103847"
     class="st3"
     inkscape:connector-curvature="0"
     id="path30" /><path
     style="fill:#231f20;stroke-width:0.95011067"
     d="M 3.8656698,94.006555 H 10.26579 V 90.801994 H 3.8656698 Z"
     class="st2"
     inkscape:connector-curvature="0"
     id="path32" /><path
     style="fill:#231f20;stroke-width:0.95011067"
     d="m 53.89478,94.006555 h 6.40012 v -3.204561 h -6.40012 c 0,0 0,3.204561 0,3.204561 z"
     class="st2"
     inkscape:connector-curvature="0"
     id="path34" /><g
     style="enable-background:new"
     transform="matrix(0.90142541,0,0,1.0014254,-0.01045948,54.049682)"
     id="g18142"
     class="st4">
	<path
   style="stroke:#000000;stroke-width:0.5;stroke-miterlimit:10"
   inkscape:connector-curvature="0"
   id="path18140"
   d="m 41.9,54.5 c 0,5.2 -3.2,8.2 -7.4,8.2 -4.4,0 -7.1,-3.3 -7.1,-7.9 0,-4.8 3,-8.1 7.4,-8.1 4.5,-0.1 7.1,3.3 7.1,7.8 z m -11.5,0.2 c 0,3.2 1.6,5.7 4.3,5.7 2.7,0 4.3,-2.5 4.3,-5.8 0,-2.9 -1.4,-5.7 -4.3,-5.7 -2.8,0 -4.3,2.6 -4.3,5.8 z"
   class="st5" />
</g></g>
</svg>