<?xml version="1.0" encoding="utf-8"?>
<!-- Generator: Adobe Illustrator 24.1.0, SVG Export Plug-In . SVG Version: 6.00 Build 0)  -->
<svg version="1.1"
	 id="svg2" xmlns:cc="http://creativecommons.org/ns#" xmlns:dc="http://purl.org/dc/elements/1.1/" xmlns:inkscape="http://www.inkscape.org/namespaces/inkscape" xmlns:rdf="http://www.w3.org/1999/02/22-rdf-syntax-ns#" xmlns:sodipodi="http://sodipodi.sourceforge.net/DTD/sodipodi-0.dtd" xmlns:svg="http://www.w3.org/2000/svg"
	 xmlns="http://www.w3.org/2000/svg" xmlns:xlink="http://www.w3.org/1999/xlink" x="0px" y="0px" viewBox="0 0 70.9 70.9"
	 style="enable-background:new 0 0 70.9 70.9;" xml:space="preserve">
<style type="text/css">
	.st0{fill:#FFFFFF;stroke:#000000;stroke-width:2;}
	.st1{fill-rule:evenodd;clip-rule:evenodd;fill:#231F20;}
	.st2{fill:#231F20;}
	.st3{fill:#176FC1;}
	.st4{enable-background:new    ;}
	.st5{stroke:#000000;stroke-width:0.5;stroke-miterlimit:10;}
</style>
<polygon id="rect2995" class="st0" points="0.4,0.3 70.4,0.3 70.4,0.3 70.4,70.3 70.4,70.3 0.4,70.3 0.4,70.3 "/>
<path id="path22" inkscape:connector-curvature="0" class="st1" d="M25,12.8h3.5c2,8.6,2.2,9.7,2.5,11.5l0,0
	c0.3-1.6,0.5-3.2,2.2-11.5h3.5c1.8,8.6,2,9.4,2.3,11.5h0.1c0.2-1.5,0.5-2.8,2.6-11.5H45l-4.4,15.7h-3.2c-1.6-7.7-1.9-9.2-2.4-12.2
	l0,0c-0.5,3-0.7,4.1-2.4,12.2h-3L25,12.8"/>
<path id="path26" inkscape:connector-curvature="0" class="st2" d="M59.3,24.4c0,1.6,0,25.7,0,27.3C57.9,50.8,35.8,38.1,35.7,38
	C35.8,38,57.9,25.2,59.3,24.4z M11.9,24.4C13.3,25.2,35.5,38,35.5,38c-0.1,0-22.2,12.8-23.6,13.6C11.9,50.1,11.9,26,11.9,24.4z
	 M35.6,36.9c-0.5-0.3-24.7-14.3-24.7-14.3v30.8c0,0,24.2-14,24.7-14.3c0.5,0.3,24.7,14.3,24.7,14.3V22.6
	C60.3,22.6,36.1,36.6,35.6,36.9"/>
<path id="path28" inkscape:connector-curvature="0" class="st3" d="M35.7,38L11.8,51.8V24.2L35.7,38"/>
<path id="path30" inkscape:connector-curvature="0" class="st3" d="M35.5,38l23.9,13.8V24.2L35.5,38"/>
<path id="path32" inkscape:connector-curvature="0" class="st2" d="M4.3,39.9h7.1v-3.2H4.3V39.9z"/>
<path id="path34" inkscape:connector-curvature="0" class="st2" d="M59.8,39.9h7.1v-3.2h-7.1C59.8,36.7,59.8,39.9,59.8,39.9z"/>
<g class="st4">
	<path class="st5" d="M41.9,54.5c0,5.2-3.2,8.2-7.4,8.2c-4.4,0-7.1-3.3-7.1-7.9c0-4.8,3-8.1,7.4-8.1C39.3,46.6,41.9,50,41.9,54.5z
		 M30.4,54.7c0,3.2,1.6,5.7,4.3,5.7c2.7,0,4.3-2.5,4.3-5.8c0-2.9-1.4-5.7-4.3-5.7C31.9,48.9,30.4,51.5,30.4,54.7z"/>
</g>
</svg>
