<?xml version="1.0" encoding="UTF-8" standalone="no"?>
<!-- Created with Inkscape (http://www.inkscape.org/) -->

<svg
   xmlns:dc="http://purl.org/dc/elements/1.1/"
   xmlns:cc="http://creativecommons.org/ns#"
   xmlns:rdf="http://www.w3.org/1999/02/22-rdf-syntax-ns#"
   xmlns:svg="http://www.w3.org/2000/svg"
   xmlns="http://www.w3.org/2000/svg"
   xmlns:sodipodi="http://sodipodi.sourceforge.net/DTD/sodipodi-0.dtd"
   xmlns:inkscape="http://www.inkscape.org/namespaces/inkscape"
   version="1.1"
   width="71"
   height="71"
   id="svg2"
   xml:space="preserve"
   inkscape:version="0.48.4 r9939"
   sodipodi:docname="Tb2.005.svg"><sodipodi:namedview
     pagecolor="#ffffff"
     bordercolor="#666666"
     borderopacity="1"
     objecttolerance="10"
     gridtolerance="10"
     guidetolerance="10"
     inkscape:pageopacity="0"
     inkscape:pageshadow="2"
     inkscape:window-width="640"
     inkscape:window-height="480"
     id="namedview18"
     showgrid="false"
     inkscape:zoom="3.3303932"
     inkscape:cx="35.431252"
     inkscape:cy="35.581384"
     inkscape:window-x="0"
     inkscape:window-y="27"
     inkscape:window-maximized="0"
     inkscape:current-layer="svg2" /><metadata
     id="metadata8"><rdf:RDF><cc:Work
         rdf:about=""><dc:format>image/svg+xml</dc:format><dc:type
           rdf:resource="http://purl.org/dc/dcmitype/StillImage" /><dc:title /></cc:Work></rdf:RDF></metadata><defs
     id="defs6"><clipPath
       id="clipPath18"><path
         d="M 0,566.93 0,0 l 566.934,0 0,566.93 -566.934,0 z"
         id="path20"
         inkscape:connector-curvature="0" /></clipPath></defs><rect
     style="color:#000000;fill:#ffffff;fill-opacity:1;fill-rule:nonzero;stroke:#000000;stroke-width:2;stroke-linecap:butt;stroke-linejoin:miter;stroke-miterlimit:4;stroke-opacity:1;stroke-dasharray:none;stroke-dashoffset:0;marker:none;visibility:visible;display:inline;overflow:visible;enable-background:accumulate"
     id="rect2995"
     width="69.988068"
     height="69.988068"
     x="0.43721792"
     y="0.42458245"
     rx="0.0039863177" /><rect
     style="color:#000000;fill:#ffffff;fill-opacity:1;fill-rule:nonzero;stroke:none;stroke-width:1;marker:none;visibility:visible;display:inline;overflow:visible;enable-background:accumulate"
     id="rect3009"
     y="14.550209"
     x="21.318804"
     rx="0.13777769"
     height="26.423306"
     width="38.734165" /><path
     d="m 19.458,47.600122 42.29975,0 0,-38.578125 -42.29975,0 0,38.578125 z"
     id="path24"
     style="fill:#231f20;fill-opacity:1;fill-rule:nonzero;stroke:none"
     inkscape:connector-curvature="0" /><path
     d="m 20.253875,46.877497 40.715375,0 0,-37.1245 -40.715375,0 0,37.1245 z"
     id="path26"
     style="fill:#ed1c24;fill-opacity:1;fill-rule:nonzero;stroke:none"
     inkscape:connector-curvature="0" /><path
     d="M 14.682125,51.000997 C 14.50925,50.548372 14.13575,50.194372 13.689,49.911122 c -0.09325,-0.09425 -0.17825,-0.09425 -0.275875,-0.09425 -0.191,0 -0.274,0 -0.373125,0.09425 -0.441875,0.28325 -0.72115,0.63725 -0.992637,1.089875 -0.3584,0.5385 -0.634275,1.085375 -0.728025,1.7275 -0.264163,0.820375 -0.352538,1.72125 -0.352538,2.627 0,0.910625 0.08838,1.826125 0.352538,2.641625 0.09375,0.627387 0.369624,1.175725 0.728025,1.71235 0.271487,0.448237 0.550762,0.821775 0.992637,1.090325 0.09913,0.09375 0.182125,0.09375 0.373125,0.09375 0.09762,0 0.182625,0 0.275875,-0.09375 0.44675,-0.26855 0.82025,-0.642088 0.993125,-1.090325 0.36275,-0.536625 0.63375,-1.084963 0.815875,-1.71235 0.186125,-0.8155 0.278875,-1.731 0.278875,-2.641625 0,-0.90575 -0.09275,-1.806625 -0.278875,-2.627 -0.182125,-0.642125 -0.453125,-1.189 -0.815875,-1.7275 M 19.458,21.424372 l 0,16.562875 -0.29975,0 c -0.44725,0 -0.92,-0.44825 -0.92,-0.90325 l 0,-4.48775 c 0,-0.458125 -0.3525,-0.817 -0.80025,-0.817 l -0.45075,0 0,3.99425 c 0,0.2685 -0.192375,0.554125 -0.3705,0.728 l -1.100125,0.816875 c -0.265125,0.17825 -0.3535,0.36225 -0.3535,0.630875 l -0.4615,9.679125 c 0.09725,0.113375 0.279375,0.19775 0.363375,0.288125 0.73675,0.4565 1.371,1.084 1.729875,1.806625 0.544,0.744625 0.819875,1.55125 1.090875,2.457 0.274375,1.001 0.3525,2.09475 0.3525,3.175375 0,1.17525 -0.07813,2.269 -0.3525,3.269013 -0.271,0.905762 -0.546875,1.722162 -1.090875,2.468262 -0.358875,0.711425 -0.993125,1.348625 -1.729875,1.80175 -0.44825,0.363775 -1.081125,0.55665 -1.715875,0.55665 -0.63425,0 -1.271975,-0.192875 -1.729987,-0.55665 -0.726075,-0.453125 -1.266113,-1.090325 -1.7177755,-1.80175 -0.461425,-0.7461 -0.8222625,-1.5625 -1.0957,-2.468262 C 8.6274375,57.624497 8.4414,56.530747 8.4414,55.355497 c 0,-1.080625 0.1860375,-2.174375 0.3642625,-3.175375 0.2734375,-0.90575 0.634275,-1.712375 1.0957,-2.457 0.4516625,-0.722625 0.9917005,-1.350125 1.7177755,-1.806625 0.09375,-0.09038 0.271,-0.17475 0.370612,-0.288125 l -0.370612,-9.679125 c 0,-0.268625 -0.186038,-0.452625 -0.357413,-0.630875 l -1.0962,-0.816875 c -0.2641625,-0.173875 -0.354,-0.4595 -0.354,-0.728 l 0,-15.625 7.175725,0 0,5.88025 0.351625,0 c 0.546875,0 0.899375,-0.461375 0.899375,-0.9145 l 0,-2.7695 c 0,-0.462875 0.47275,-0.920375 0.92,-0.920375 l 0.29975,0"
     id="path28"
     style="fill:#231f20;fill-opacity:1;fill-rule:nonzero;stroke:none"
     inkscape:connector-curvature="0" /><path
     d="m 25.830625,26.493622 2.5165,0 c 1.6275,0 2.6485,-0.083 3.057625,-0.2305 0.40525,-0.144 0.725125,-0.389625 0.953125,-0.7485 0.2305,-0.36375 0.34275,-0.816375 0.34275,-1.346125 0,-0.592375 -0.148875,-1.080625 -0.4575,-1.44925 -0.29825,-0.3745 -0.721625,-0.610375 -1.27825,-0.7115 -0.272,-0.0405 -1.105,-0.05512 -2.483375,-0.05512 l -2.650875,0 0,4.541 m -3.414125,10.38525 0,-17.978 7.182625,0 c 1.805625,0 3.110875,0.1675 3.930625,0.485875 0.82175,0.318875 1.475125,0.900875 1.965875,1.726 0.491625,0.821875 0.73775,1.77 0.73775,2.821375 0,1.35 -0.3735,2.46825 -1.11375,3.34075 -0.749,0.8765 -1.853,1.424875 -3.337375,1.650375 0.73675,0.47275 1.34225,0.96825 1.82175,1.515125 0.482375,0.549375 1.125,1.528375 1.9375,2.9175 l 2.061,3.521 -4.0805,0 -2.453125,-3.92375 c -0.879375,-1.38825 -1.477625,-2.2745 -1.80325,-2.63825 -0.32325,-0.367125 -0.664125,-0.607875 -1.0225,-0.751875 -0.366625,-0.134375 -0.9375,-0.19775 -1.725,-0.19775 l -0.6875,0 0,7.511625 -3.414125,0"
     id="path30"
     style="fill:#ffffff;fill-opacity:1;fill-rule:nonzero;stroke:none"
     inkscape:connector-curvature="0" /><path
     d="m 41.40375,36.878872 -3.973625,-17.978 3.505875,0 2.5,12.34625 3.089875,-12.34625 4.090875,0 2.942875,12.561 2.565875,-12.561 3.42925,0 -4.028375,17.978 -3.726125,0 -3.30175,-13.437 -3.367625,13.437 -3.727125,0"
     id="path32"
     style="fill:#ffffff;fill-opacity:1;fill-rule:nonzero;stroke:none"
     inkscape:connector-curvature="0" /></svg>