<?xml version="1.0" encoding="utf-8"?>
<!-- Generator: Adobe Illustrator 24.1.0, SVG Export Plug-In . SVG Version: 6.00 Build 0)  -->
<svg version="1.1"
	 id="svg2" xmlns:cc="http://creativecommons.org/ns#" xmlns:dc="http://purl.org/dc/elements/1.1/" xmlns:rdf="http://www.w3.org/1999/02/22-rdf-syntax-ns#" xmlns:svg="http://www.w3.org/2000/svg"
	 xmlns="http://www.w3.org/2000/svg" xmlns:xlink="http://www.w3.org/1999/xlink" x="0px" y="0px" viewBox="0 0 70.9 33.2"
	 style="enable-background:new 0 0 70.9 33.2;" xml:space="preserve">
<style type="text/css">
	.st0{fill:#FFFFFF;}
	.st1{clip-path:url(#SVGID_2_);}
	.st2{fill:#231F20;}
	.st3{enable-background:new    ;}
	.st4{fill:#FFFFFF;stroke:#000000;stroke-miterlimit:10;}
</style>
<rect x="2.6" y="2.8" class="st0" width="65.4" height="27.6"/>
<g id="g10" transform="matrix(1.25,0,0,-1.25,0,33.2375)">
	<g id="g12" transform="scale(0.1,0.1)">
		<g id="g14">
			<g>
				<g>
					<defs>
						<path id="SVGID_1_" d="M0,207.7V58.2C0,26.1,26.1,0,58.2,0h450.5c32.2,0,58.2,26.1,58.2,58.2v149.5
							c0,32.2-26.1,58.2-58.2,58.2H58.2C26.1,265.9,0,239.9,0,207.7z"/>
					</defs>
					<clipPath id="SVGID_2_">
						<use xlink:href="#SVGID_1_"  style="overflow:visible;"/>
					</clipPath>
					<g id="g16" class="st1">
						<path id="path24" class="st2" d="M541.4,190.5V75.4c0-27.6-22.4-49.9-49.9-49.9H75.4c-27.6,0-49.9,22.4-49.9,49.9v115.1
							c0,27.6,22.4,49.9,49.9,49.9h416.1C519.1,240.4,541.4,218.1,541.4,190.5z M554.2,265.9H0V0h566.9v265.9H554.2"/>
					</g>
				</g>
			</g>
		</g>
	</g>
</g>
<g class="st3">
	<path d="M8.4,24.9V8.7h7.5c1.9,0,3.3,0.1,4.1,0.4c0.9,0.3,1.5,0.8,2.1,1.5c0.5,0.7,0.8,1.6,0.8,2.5c0,1.2-0.4,2.2-1.2,3
		c-0.8,0.8-2,1.3-3.5,1.5c0.8,0.4,1.4,0.9,1.9,1.4s1.2,1.4,2,2.6l2.2,3.2H20l-2.6-3.5c-0.9-1.3-1.6-2-1.9-2.4
		c-0.3-0.3-0.7-0.5-1.1-0.7c-0.4-0.1-1-0.2-1.8-0.2h-0.7v6.7H8.4V24.9z M11.9,15.6h2.7c1.7,0,2.8-0.1,3.2-0.2c0.4-0.1,0.8-0.4,1-0.7
		s0.4-0.7,0.4-1.2s-0.2-1-0.5-1.3s-0.8-0.5-1.4-0.6c-0.3,0-1.2-0.1-2.6-0.1h-2.8C11.9,11.5,11.9,15.6,11.9,15.6z"/>
	<path d="M28.3,24.9L24.1,8.7h3.7l2.7,11.1l3.2-11.1H38L41.1,20l2.7-11.3h3.6l-4.3,16.2h-3.8l-3.5-12.1l-3.5,12.1
		C32.3,24.9,28.3,24.9,28.3,24.9z"/>
	<path d="M63.9,24.9H60l-1.6-3.7h-7.1l-1.5,3.7H46l7-16.2h3.8L63.9,24.9z M57.3,18.5l-2.4-6l-2.4,6H57.3z"/>
</g>
<path class="st4" d="M28.3,24.9"/>
</svg>
