<?xml version="1.0" encoding="UTF-8" standalone="no"?>
<!-- Created with Inkscape (http://www.inkscape.org/) -->

<svg
   xmlns:dc="http://purl.org/dc/elements/1.1/"
   xmlns:cc="http://creativecommons.org/ns#"
   xmlns:rdf="http://www.w3.org/1999/02/22-rdf-syntax-ns#"
   xmlns:svg="http://www.w3.org/2000/svg"
   xmlns="http://www.w3.org/2000/svg"
   xmlns:sodipodi="http://sodipodi.sourceforge.net/DTD/sodipodi-0.dtd"
   xmlns:inkscape="http://www.inkscape.org/namespaces/inkscape"
   version="1.1"
   width="71"
   height="71"
   id="svg2"
   xml:space="preserve"
   inkscape:version="0.48.4 r9939"
   sodipodi:docname="Tb2.023.svg"><sodipodi:namedview
     pagecolor="#ffffff"
     bordercolor="#666666"
     borderopacity="1"
     objecttolerance="10"
     gridtolerance="10"
     guidetolerance="10"
     inkscape:pageopacity="0"
     inkscape:pageshadow="2"
     inkscape:window-width="640"
     inkscape:window-height="480"
     id="namedview18"
     showgrid="false"
     inkscape:zoom="3.3303932"
     inkscape:cx="35.431252"
     inkscape:cy="35.581384"
     inkscape:window-x="0"
     inkscape:window-y="27"
     inkscape:window-maximized="0"
     inkscape:current-layer="svg2" /><metadata
     id="metadata8"><rdf:RDF><cc:Work
         rdf:about=""><dc:format>image/svg+xml</dc:format><dc:type
           rdf:resource="http://purl.org/dc/dcmitype/StillImage" /><dc:title /></cc:Work></rdf:RDF></metadata><defs
     id="defs6"><clipPath
       id="clipPath18"><path
         d="M 0,566.93 0,0 l 566.934,0 0,566.93 -566.934,0 z"
         id="path20"
         inkscape:connector-curvature="0" /></clipPath></defs><rect
     style="color:#000000;fill:#ffffff;fill-opacity:1;fill-rule:nonzero;stroke:#000000;stroke-width:2;stroke-linecap:butt;stroke-linejoin:miter;stroke-miterlimit:4;stroke-opacity:1;stroke-dasharray:none;stroke-dashoffset:0;marker:none;visibility:visible;display:inline;overflow:visible;enable-background:accumulate"
     id="rect2995"
     width="69.988068"
     height="69.988068"
     x="0.43721792"
     y="0.42458245"
     rx="0.0039863177" /><path
     d="m 26.3355,23.177247 3.25875,-0.331 c 0.190875,1.097625 0.59125,1.90425 1.194375,2.4145 0.595625,0.5225 1.40325,0.77875 2.42375,0.77875 1.077625,0 1.890125,-0.227 2.4365,-0.686 0.546375,-0.4575 0.828125,-0.9985 0.828125,-1.607375 0,-0.397 -0.1205,-0.724125 -0.352,-1.0035 -0.224625,-0.275875 -0.6265,-0.5175 -1.202625,-0.71775 -0.38675,-0.13325 -1.28225,-0.375 -2.671375,-0.71675 -1.79,-0.44675 -3.042,-0.993625 -3.77,-1.643125 -1.016125,-0.901875 -1.523,-2.014125 -1.523,-3.32375 0,-0.84225 0.24075,-1.63475 0.71725,-2.369625 0.481,-0.73475 1.172375,-1.296375 2.070375,-1.670875 0.899875,-0.379875 1.98975,-0.5825 3.262125,-0.5825 2.0835,0 3.649,0.459 4.70125,1.3735 1.05325,0.919 1.6025,2.13725 1.65775,3.6695 l -3.3565,0.1255 c -0.141625,-0.850625 -0.4555,-1.46975 -0.922375,-1.832 -0.471125,-0.3775 -1.17875,-0.570375 -2.119625,-0.570375 -0.96875,0 -1.733375,0.2075 -2.28225,0.6045 -0.355875,0.256375 -0.52975,0.59425 -0.52975,1.02875 0,0.38725 0.159625,0.724125 0.48925,1.0035 0.423375,0.355375 1.451125,0.7275 3.079125,1.109875 1.623,0.379375 2.828125,0.77875 3.61275,1.189875 0.776375,0.410125 1.389125,0.9815 1.828625,1.691875 0.437,0.7105 0.6655,1.59575 0.6655,2.6465 0,0.961 -0.266125,1.84575 -0.795875,2.682125 -0.52975,0.836 -1.272,1.452625 -2.243625,1.849125 -0.961875,0.402875 -2.1655,0.607 -3.607875,0.607 -2.100625,0 -3.711,-0.485875 -4.832125,-1.46 -1.129375,-0.9765 -1.79975,-2.398875 -2.0165,-4.26025"
     id="path22"
     style="fill:#231f20;fill-opacity:1;fill-rule:evenodd;stroke:none"
     inkscape:connector-curvature="0" /><path
     d="m 59.8135,23.638622 -24.204625,13.97025 -24.1997,-13.97025 0,29.026375 24.1997,-13.9785 24.204625,13.9785 0,-29.026375"
     id="path26"
     style="fill:#231f20;fill-opacity:1;fill-rule:nonzero;stroke:none"
     inkscape:connector-curvature="0" /><path
     d="m 34.67725,38.150872 -22.324225,12.898875 0,-25.8085 22.324225,12.909625"
     id="path28"
     style="fill:#ed1c24;fill-opacity:1;fill-rule:nonzero;stroke:none"
     inkscape:connector-curvature="0" /><path
     d="m 36.6015,38.150872 22.3365,12.898875 0,-25.8085 -22.3365,12.909625"
     id="path30"
     style="fill:#ed1c24;fill-opacity:1;fill-rule:nonzero;stroke:none"
     inkscape:connector-curvature="0" /><path
     d="m 4.3173875,40.007372 7.1167005,0 0,-3.16015 -7.1167005,0 0,3.16015 z"
     id="path32"
     style="fill:#231f20;fill-opacity:1;fill-rule:nonzero;stroke:none"
     inkscape:connector-curvature="0" /><path
     d="m 59.794,40.007372 7.11035,0 0,-3.16015 -7.11035,0 0,3.16015 z"
     id="path34"
     style="fill:#231f20;fill-opacity:1;fill-rule:nonzero;stroke:none"
     inkscape:connector-curvature="0" /></svg>