<?xml version="1.0" encoding="UTF-8" standalone="no"?>
<!-- Created with Inkscape (http://www.inkscape.org/) -->

<svg
   xmlns:dc="http://purl.org/dc/elements/1.1/"
   xmlns:cc="http://creativecommons.org/ns#"
   xmlns:rdf="http://www.w3.org/1999/02/22-rdf-syntax-ns#"
   xmlns:svg="http://www.w3.org/2000/svg"
   xmlns="http://www.w3.org/2000/svg"
   xmlns:sodipodi="http://sodipodi.sourceforge.net/DTD/sodipodi-0.dtd"
   xmlns:inkscape="http://www.inkscape.org/namespaces/inkscape"
   version="1.1"
   width="125"
   height="125"
   id="svg2"
   xml:space="preserve"
   sodipodi:docname="150.svg"
   inkscape:version="0.92.5 (2060ec1f9f, 2020-04-08)"><sodipodi:namedview
     pagecolor="#ffffff"
     bordercolor="#666666"
     borderopacity="1"
     objecttolerance="10"
     gridtolerance="10"
     guidetolerance="10"
     inkscape:pageopacity="0"
     inkscape:pageshadow="2"
     inkscape:window-width="1920"
     inkscape:window-height="1017"
     id="namedview24083"
     showgrid="false"
     inkscape:zoom="5.0379253"
     inkscape:cx="35.431252"
     inkscape:cy="21.262501"
     inkscape:window-x="-8"
     inkscape:window-y="-8"
     inkscape:window-maximized="1"
     inkscape:current-layer="svg2" /><metadata
     id="metadata8"><rdf:RDF><cc:Work
         rdf:about=""><dc:format>image/svg+xml</dc:format><dc:type
           rdf:resource="http://purl.org/dc/dcmitype/StillImage" /><dc:title></dc:title></cc:Work></rdf:RDF></metadata><defs
     id="defs6"><clipPath
       id="clipPath18"><path
         d="M 0,0 H 566.934 V 340 H 0 Z"
         id="path20"
         inkscape:connector-curvature="0" /></clipPath></defs><g
     transform="matrix(1.1465179,0,0,-1.1465179,30.000001,81.990804)"
     id="g10"><path
       d="m 62.330564,21.906147 a 9.8354315,9.9539303 0 1 1 -19.670863,0 9.8354315,9.9539303 0 1 1 19.670863,0 z"
       transform="matrix(0.8,0,0,-0.8,-0.75839468,34.588796)"
       id="path2999"
       style="fill:#ffffff;fill-opacity:1;fill-rule:evenodd;stroke:none"
       inkscape:connector-curvature="0" /><g
       transform="scale(0.1)"
       id="g12"><g
         id="g14"><g
           clip-path="url(#clipPath18)"
           id="g16"><path
             d="m 469.023,170.406 c 0,-32.601 -25.82,-59.058 -57.5,-59.058 -16.347,-0.059 -30.507,5.918 -41.308,16.621 -11.367,11.359 -17.559,26.379 -17.5,42.359 -0.059,32.41 26.328,58.856 58.769,58.856 14.981,0 29.18,-5.957 40.02,-16.739 7.422,-7.48 12.715,-16.484 15.273,-26.308 1.485,-5.086 2.168,-10.418 2.246,-15.731 z m 51.739,111.227 c -29.297,29.347 -68.164,45.531 -109.278,45.531 h -0.039 C 342.188,327.094 284,281.633 263.305,219.293 l -85.43,-0.07 -0.059,121.004 L 0,340.156 v -97.972 c 0,0 42.3047,0.066 79.9375,0 C 79.8984,195.699 79.8984,144.523 79.957,98.0586 42.3633,97.9805 0.125,97.9219 0.125,97.9219 L 0.0859375,0 177.934,0.0390625 177.914,121.242 263.18,121.32 c 7.605,-23.2223 19.968,-44.7848 37.816,-62.5973 29.277,-29.2969 68.047,-45.4102 109.082,-45.3516 87.227,0 156.875,70.4687 156.856,157.0349 0,41.981 -16.407,81.481 -46.172,111.227"
             id="path22"
             style="fill:#ed1c24;fill-opacity:1;fill-rule:nonzero;stroke:none"
             inkscape:connector-curvature="0" /></g></g></g></g></svg>