<?xml version="1.0" encoding="UTF-8" standalone="no"?>
<!-- Generator: Adobe Illustrator 24.1.0, SVG Export Plug-In . SVG Version: 6.00 Build 0)  -->

<svg
   xmlns:dc="http://purl.org/dc/elements/1.1/"
   xmlns:cc="http://creativecommons.org/ns#"
   xmlns:rdf="http://www.w3.org/1999/02/22-rdf-syntax-ns#"
   xmlns:svg="http://www.w3.org/2000/svg"
   xmlns="http://www.w3.org/2000/svg"
   xmlns:sodipodi="http://sodipodi.sourceforge.net/DTD/sodipodi-0.dtd"
   xmlns:inkscape="http://www.inkscape.org/namespaces/inkscape"
   version="1.1"
   id="svg2"
   x="0px"
   y="0px"
   viewBox="0 0 125 125"
   xml:space="preserve"
   sodipodi:docname="156.svg"
   width="125"
   height="125"
   inkscape:version="0.92.5 (2060ec1f9f, 2020-04-08)"><metadata
   id="metadata25820"><rdf:RDF><cc:Work
       rdf:about=""><dc:format>image/svg+xml</dc:format><dc:type
         rdf:resource="http://purl.org/dc/dcmitype/StillImage" /><dc:title></dc:title></cc:Work></rdf:RDF></metadata><defs
   id="defs25818" /><sodipodi:namedview
   pagecolor="#ffffff"
   bordercolor="#666666"
   borderopacity="1"
   objecttolerance="10"
   gridtolerance="10"
   guidetolerance="10"
   inkscape:pageopacity="0"
   inkscape:pageshadow="2"
   inkscape:window-width="1920"
   inkscape:window-height="1017"
   id="namedview25816"
   showgrid="false"
   inkscape:zoom="3.3286318"
   inkscape:cx="35.450001"
   inkscape:cy="35.450001"
   inkscape:window-x="-8"
   inkscape:window-y="-8"
   inkscape:window-maximized="1"
   inkscape:current-layer="svg2" />
<style
   type="text/css"
   id="style25793">
	.st0{fill:#FFFFFF;stroke:#000000;stroke-width:2;}
	.st1{fill-rule:evenodd;clip-rule:evenodd;fill:#231F20;}
	.st2{fill:#231F20;}
	.st3{fill:#FCD205;}
	.st4{font-family:'Arial-BoldMT';}
	.st5{font-size:17.927px;}
</style>



<g
   id="g26381"
   transform="matrix(0.90410117,0,0,0.90140639,30.494819,30.680354)"><polygon
     points="70.4,70.3 0.4,70.3 0.4,0.3 70.4,0.3 "
     class="st0"
     id="rect2995"
     style="fill:#ffffff;stroke:#000000;stroke-width:2" /><g
     id="g25802">
	<path
   d="m 49.2,43.7 h 3.1 v 4 h -1 l -0.2,-0.9 c -0.4,0.5 -1,1.1 -2.3,1.1 -1.8,0 -3.4,-1.3 -3.4,-3.9 0,-2 1.1,-3.9 3.6,-3.9 2.3,0 3.2,1.5 3.3,2.5 h -1.6 c 0,-0.3 -0.5,-1.2 -1.6,-1.2 C 48,41.3 47,42.1 47,44 c 0,2 1.1,2.6 2.2,2.6 0.3,0 1.5,-0.1 1.8,-1.6 h -1.7 v -1.3"
   class="st1"
   inkscape:connector-curvature="0"
   id="path22_1_"
   style="clip-rule:evenodd;fill:#231f20;fill-rule:evenodd" />
	<path
   d="M 61.8,45.3 50.3,52 38.8,45.4 v 13.8 l 11.5,-6.6 11.5,6.6 V 45.3"
   class="st2"
   inkscape:connector-curvature="0"
   id="path26_1_"
   style="fill:#231f20" />
	<path
   d="M 49.8,52.2 39.2,58.3 V 46.1 l 10.6,6.1"
   class="st3"
   inkscape:connector-curvature="0"
   id="path28_1_"
   style="fill:#fcd205" />
	<path
   d="m 50.8,52.2 10.6,6.1 V 46.1 l -10.6,6.1"
   class="st3"
   inkscape:connector-curvature="0"
   id="path30_1_"
   style="fill:#fcd205" />
	<path
   d="m 35.4,53.1 h 3.4 v -1.5 h -3.4 c 0,0 0,1.5 0,1.5 z"
   class="st2"
   inkscape:connector-curvature="0"
   id="path32_1_"
   style="fill:#231f20" />
	<path
   d="m 61.8,53.1 h 3.4 v -1.5 h -3.4 z"
   class="st2"
   inkscape:connector-curvature="0"
   id="path34_1_"
   style="fill:#231f20" />
</g><text
     id="text25804"
     class="st4 st5"
     transform="translate(5.3115,26.7618)"
     style="font-size:17.92700005px;font-family:Arial-BoldMT">MK</text>
<g
     id="g25813">
	<g
   id="g25811">
		<g
   transform="matrix(0.125,0,0,-0.125,0,70.999997)"
   id="g16">
			<path
   d="m 338,329.7 h 174.4 v 159 H 338 Z"
   class="st2"
   inkscape:connector-curvature="0"
   id="path22_2_"
   style="fill:#231f20" />
			<path
   d="m 341.3,332.7 h 167.9 v 153 H 341.3 c 0,0.1 0,-153 0,-153 z"
   class="st3"
   inkscape:connector-curvature="0"
   id="path24"
   style="fill:#fcd205" />
			<path
   d="m 318.3,315.7 c -0.7,1.9 -2.3,3.4 -4.1,4.5 -0.4,0.4 -0.7,0.4 -1.1,0.4 -0.8,0 -1.1,0 -1.5,-0.4 -1.8,-1.1 -3,-2.6 -4.1,-4.5 -1.5,-2.2 -2.6,-4.5 -3,-7.1 -1.1,-3.4 -1.5,-7.1 -1.5,-10.9 0,-3.8 0.4,-7.5 1.5,-10.9 0.4,-2.6 1.5,-4.8 3,-7 1.1,-1.9 2.3,-3.4 4.1,-4.6 0.4,-0.4 0.8,-0.4 1.5,-0.4 0.4,0 0.7,0 1.1,0.4 1.8,1.1 3.4,2.6 4.1,4.6 1.5,2.2 2.6,4.5 3.4,7 0.8,3.4 1.1,7.1 1.1,10.9 0,3.7 -0.3,7.4 -1.1,10.9 -0.7,2.6 -1.8,4.9 -3.4,7.1 M 338,437.6 v -68.3 h -1.2 c -1.8,0 -3.8,1.9 -3.8,3.7 v 18.5 c 0,1.9 -1.5,3.4 -3.3,3.4 h -1.8 v -16.5 c 0,-1.1 -0.8,-2.3 -1.5,-3 l -4.5,-3.4 c -1.1,-0.8 -1.5,-1.5 -1.5,-2.6 l -1.9,-39.9 c 0.4,-0.4 1.1,-0.8 1.5,-1.1 3,-1.9 5.6,-4.5 7.1,-7.5 2.3,-3 3.4,-6.3 4.5,-10.1 1.2,-4.1 1.5,-8.6 1.5,-13.1 0,-4.8 -0.3,-9.4 -1.5,-13.4 -1.1,-3.8 -2.2,-7.1 -4.5,-10.2 -1.5,-2.9 -4.1,-5.6 -7.1,-7.5 -1.9,-1.5 -4.5,-2.2 -7.1,-2.2 -2.6,0 -5.2,0.7 -7.1,2.2 -3,1.9 -5.2,4.5 -7.1,7.5 -1.9,3 -3.4,6.4 -4.5,10.2 -0.7,4.1 -1.5,8.6 -1.5,13.4 0,4.5 0.8,9 1.5,13.1 1.1,3.7 2.6,7 4.5,10.1 1.9,3.1 4.1,5.6 7.1,7.5 0.4,0.4 1.1,0.7 1.5,1.1 l -1.5,39.9 c 0,1.1 -0.7,1.8 -1.5,2.6 l -4.5,3.4 c -1.1,0.7 -1.5,1.9 -1.5,3 v 64.4 h 29.6 v -24.2 h 1.5 c 2.2,0 3.7,1.9 3.7,3.7 v 11.5 c 0,1.9 1.9,3.8 3.8,3.8 h 1.1"
   class="st2"
   inkscape:connector-curvature="0"
   id="path26_2_"
   style="fill:#231f20" />
			<path
   d="m 430.7,414.8 -17.4,-55.7 -6.5,3.8 4.4,-19.6 15.7,12.2 -7.3,1.3 29.7,74.4 -42.9,-20.5 25.5,61 -13.8,5.2 -23.4,-79.3 36,17.2"
   class="st1"
   inkscape:connector-curvature="0"
   id="path28_2_"
   style="clip-rule:evenodd;fill:#231f20;fill-rule:evenodd" />
		</g>
	</g>
</g></g>
</svg>