<?xml version="1.0" encoding="utf-8"?>
<!-- Generator: Adobe Illustrator 24.1.0, SVG Export Plug-In . SVG Version: 6.00 Build 0)  -->
<svg version="1.1"
	 id="svg2" xmlns:cc="http://creativecommons.org/ns#" xmlns:dc="http://purl.org/dc/elements/1.1/" xmlns:inkscape="http://www.inkscape.org/namespaces/inkscape" xmlns:rdf="http://www.w3.org/1999/02/22-rdf-syntax-ns#" xmlns:sodipodi="http://sodipodi.sourceforge.net/DTD/sodipodi-0.dtd" xmlns:svg="http://www.w3.org/2000/svg"
	 xmlns="http://www.w3.org/2000/svg" xmlns:xlink="http://www.w3.org/1999/xlink" x="0px" y="0px" viewBox="0 0 70.9 70.9"
	 style="enable-background:new 0 0 70.9 70.9;" xml:space="preserve">
<style type="text/css">
	.st0{fill:#FFFFFF;stroke:#000000;stroke-width:2;}
	.st1{font-family:'Arial-BoldMT';}
	.st2{font-size:17.927px;}
	.st3{fill:#231F20;}
	.st4{fill:#FCD205;}
	.st5{fill-rule:evenodd;clip-rule:evenodd;fill:#231F20;}
	.st6{fill:#176FC1;}
</style>
<polygon id="rect2995" class="st0" points="0.4,0.3 70.4,0.3 70.4,0.3 70.4,70.3 70.4,70.3 0.4,70.3 0.4,70.3 0.4,0.3 "/>
<text transform="matrix(1 0 0 1 5.3115 26.7618)" class="st1 st2">MK</text>
<g>
	<g>
		<g id="g16" transform="matrix(0.125,0,0,-0.125,0,70.999997)">
			<path id="path22_2_" inkscape:connector-curvature="0" class="st3" d="M338,329.7h174.4v159H338V329.7z"/>
			<path id="path24" inkscape:connector-curvature="0" class="st4" d="M341.3,332.7h167.9v153H341.3
				C341.3,485.8,341.3,332.7,341.3,332.7z"/>
			<path id="path26_2_" inkscape:connector-curvature="0" class="st3" d="M318.3,315.7c-0.7,1.9-2.3,3.4-4.1,4.5
				c-0.4,0.4-0.7,0.4-1.1,0.4c-0.8,0-1.1,0-1.5-0.4c-1.8-1.1-3-2.6-4.1-4.5c-1.5-2.2-2.6-4.5-3-7.1c-1.1-3.4-1.5-7.1-1.5-10.9
				c0-3.8,0.4-7.5,1.5-10.9c0.4-2.6,1.5-4.8,3-7c1.1-1.9,2.3-3.4,4.1-4.6c0.4-0.4,0.8-0.4,1.5-0.4c0.4,0,0.7,0,1.1,0.4
				c1.8,1.1,3.4,2.6,4.1,4.6c1.5,2.2,2.6,4.5,3.4,7c0.8,3.4,1.1,7.1,1.1,10.9c0,3.7-0.3,7.4-1.1,10.9
				C321,311.2,319.9,313.5,318.3,315.7 M338,437.6v-68.3h-1.2c-1.8,0-3.8,1.9-3.8,3.7v18.5c0,1.9-1.5,3.4-3.3,3.4h-1.8v-16.5
				c0-1.1-0.8-2.3-1.5-3l-4.5-3.4c-1.1-0.8-1.5-1.5-1.5-2.6l-1.9-39.9c0.4-0.4,1.1-0.8,1.5-1.1c3-1.9,5.6-4.5,7.1-7.5
				c2.3-3,3.4-6.3,4.5-10.1c1.2-4.1,1.5-8.6,1.5-13.1c0-4.8-0.3-9.4-1.5-13.4c-1.1-3.8-2.2-7.1-4.5-10.2c-1.5-2.9-4.1-5.6-7.1-7.5
				c-1.9-1.5-4.5-2.2-7.1-2.2c-2.6,0-5.2,0.7-7.1,2.2c-3,1.9-5.2,4.5-7.1,7.5c-1.9,3-3.4,6.4-4.5,10.2c-0.7,4.1-1.5,8.6-1.5,13.4
				c0,4.5,0.8,9,1.5,13.1c1.1,3.7,2.6,7,4.5,10.1c1.9,3.1,4.1,5.6,7.1,7.5c0.4,0.4,1.1,0.7,1.5,1.1l-1.5,39.9c0,1.1-0.7,1.8-1.5,2.6
				l-4.5,3.4c-1.1,0.7-1.5,1.9-1.5,3v64.4h29.6v-24.2h1.5c2.2,0,3.7,1.9,3.7,3.7v11.5c0,1.9,1.9,3.8,3.8,3.8H338"/>
			<path id="path28_2_" inkscape:connector-curvature="0" class="st5" d="M430.7,414.8l-17.4-55.7l-6.5,3.8l4.4-19.6l15.7,12.2
				l-7.3,1.3l29.7,74.4l-42.9-20.5l25.5,61l-13.8,5.2l-23.4-79.3L430.7,414.8"/>
		</g>
	</g>
</g>
<g>
	<path id="path22" inkscape:connector-curvature="0" class="st5" d="M14.1,40.2h1.7c1,4.1,1,4.6,1.2,5.4h0c0.1-0.8,0.2-1.5,1-5.4
		h1.6c0.9,4.1,0.9,4.5,1.1,5.4h0c0.1-0.7,0.2-1.3,1.2-5.4h1.6l-2.1,7.4H20c-0.8-3.6-0.9-4.4-1.2-5.8h0c-0.2,1.4-0.3,2-1.2,5.8h-1.4
		L14.1,40.2"/>
	<path id="path26" inkscape:connector-curvature="0" class="st3" d="M30.4,45.7c0,0.8,0,12.2,0,13c-0.7-0.4-11.2-6.5-11.2-6.5
		C19.2,52.2,29.7,46.1,30.4,45.7z M7.9,45.7c0.7,0.4,11.2,6.5,11.2,6.5c0,0-10.5,6.1-11.2,6.5C7.9,57.9,7.9,46.5,7.9,45.7z
		 M19.2,51.6c-0.2-0.1-11.7-6.8-11.7-6.8v14.6c0,0,11.5-6.6,11.7-6.8c0.2,0.1,11.7,6.8,11.7,6.8V44.9C30.9,44.9,19.4,51.5,19.2,51.6
		"/>
	<path id="path28" inkscape:connector-curvature="0" class="st6" d="M19.2,52.2L7.9,58.7V45.6L19.2,52.2"/>
	<path id="path30" inkscape:connector-curvature="0" class="st6" d="M19.1,52.2l11.4,6.6V45.6L19.1,52.2"/>
	<path id="path32" inkscape:connector-curvature="0" class="st3" d="M4.3,53.1h3.4v-1.5H4.3V53.1z"/>
	<path id="path34" inkscape:connector-curvature="0" class="st3" d="M30.7,53.1H34v-1.5h-3.4V53.1z"/>
</g>
</svg>
