<?xml version="1.0" encoding="UTF-8" standalone="no"?>
<!-- Created with Inkscape (http://www.inkscape.org/) -->

<svg
   xmlns:dc="http://purl.org/dc/elements/1.1/"
   xmlns:cc="http://creativecommons.org/ns#"
   xmlns:rdf="http://www.w3.org/1999/02/22-rdf-syntax-ns#"
   xmlns:svg="http://www.w3.org/2000/svg"
   xmlns="http://www.w3.org/2000/svg"
   xmlns:sodipodi="http://sodipodi.sourceforge.net/DTD/sodipodi-0.dtd"
   xmlns:inkscape="http://www.inkscape.org/namespaces/inkscape"
   version="1.1"
   width="125"
   height="125"
   id="svg2"
   xml:space="preserve"
   inkscape:version="0.92.5 (2060ec1f9f, 2020-04-08)"
   sodipodi:docname="16.svg"><sodipodi:namedview
     pagecolor="#ffffff"
     bordercolor="#666666"
     borderopacity="1"
     objecttolerance="10"
     gridtolerance="10"
     guidetolerance="10"
     inkscape:pageopacity="0"
     inkscape:pageshadow="2"
     inkscape:window-width="1920"
     inkscape:window-height="1017"
     id="namedview18"
     showgrid="false"
     inkscape:zoom="3.3303932"
     inkscape:cx="35.431252"
     inkscape:cy="35.581384"
     inkscape:window-x="-8"
     inkscape:window-y="-8"
     inkscape:window-maximized="1"
     inkscape:current-layer="svg2" /><metadata
     id="metadata8"><rdf:RDF><cc:Work
         rdf:about=""><dc:format>image/svg+xml</dc:format><dc:type
           rdf:resource="http://purl.org/dc/dcmitype/StillImage" /><dc:title></dc:title></cc:Work></rdf:RDF></metadata><defs
     id="defs6"><clipPath
       id="clipPath18"><path
         d="M 0,566.93 V 0 h 566.934 v 566.93 z"
         id="path20"
         inkscape:connector-curvature="0" /></clipPath></defs><g
     id="g20451"
     transform="translate(30.562782,23.724845)"><rect
       rx="0.0035993555"
       y="7.1780825"
       x="0.34014529"
       height="63.194145"
       width="63.194145"
       id="rect2995"
       style="color:#000000;display:inline;overflow:visible;visibility:visible;fill:#ffffff;fill-opacity:1;fill-rule:nonzero;stroke:#000000;stroke-width:1.8058548;stroke-linecap:butt;stroke-linejoin:miter;stroke-miterlimit:4;stroke-dasharray:none;stroke-dashoffset:0;stroke-opacity:1;marker:none;enable-background:accumulate" /><path
       inkscape:connector-curvature="0"
       style="fill:#231f20;fill-opacity:1;fill-rule:evenodd;stroke:none;stroke-width:0.9029274"
       id="path22"
       d="m 22.502189,18.486042 h 3.150653 c 1.810258,7.75468 1.987005,8.740901 2.248854,10.356803 h 0.04231 c 0.248308,-1.483171 0.470881,-2.923566 1.966802,-10.356803 h 3.133835 c 1.654615,7.772286 1.791295,8.523974 2.108223,10.356803 h 0.05207 c 0.225735,-1.340734 0.469521,-2.567699 2.308108,-10.356803 h 2.986094 L 36.521831,32.649813 H 33.675126 C 32.219721,25.707204 31.966675,24.321549 31.482141,21.596062 h -0.03614 c -0.431258,2.725487 -0.660491,3.743086 -2.191179,11.053751 H 26.503707 L 22.502189,18.486042" /><path
       inkscape:connector-curvature="0"
       style="fill:#231f20;fill-opacity:1;fill-rule:nonzero;stroke:none;stroke-width:0.9029274"
       id="path26"
       d="m 53.501607,28.925688 c 0,1.440396 0,23.201849 0,24.640099 -1.28385,-0.740739 -21.259879,-12.279474 -21.32771,-12.317848 0.06783,-0.03883 20.04386,-11.580721 21.32771,-12.322251 z m -42.801785,0 c 1.283827,0.74153 21.259404,12.283425 21.326333,12.322251 -0.06695,0.03837 -20.042506,11.577109 -21.326333,12.317848 0,-1.43825 0,-23.199703 0,-24.640099 z M 32.100309,40.235645 C 31.653698,39.979101 9.7871881,27.345566 9.7871881,27.345566 v 27.802038 c 0,0 21.8665099,-12.631278 22.3131209,-12.890531 0.446612,0.259253 22.313932,12.890531 22.313932,12.890531 V 27.345566 c 0,0 -21.867323,12.633535 -22.313932,12.890079" /><path
       inkscape:connector-curvature="0"
       style="fill:#176fc1;fill-opacity:1;fill-rule:nonzero;stroke:none;stroke-width:0.9029274"
       id="path28"
       d="M 32.221978,41.238684 10.607226,53.733732 V 28.745329 l 21.614752,12.493355" /><path
       inkscape:connector-curvature="0"
       style="fill:#176fc1;fill-opacity:1;fill-rule:nonzero;stroke:none;stroke-width:0.9029274"
       id="path30"
       d="M 31.969723,41.238684 53.583999,53.733732 V 28.745329 L 31.969723,41.238684" /><path
       inkscape:connector-curvature="0"
       style="fill:#231f20;fill-opacity:1;fill-rule:nonzero;stroke:none;stroke-width:0.9029274"
       id="path32"
       d="M 3.8383635,42.921967 H 10.264668 V 40.061515 H 3.8383635 Z" /><path
       inkscape:connector-curvature="0"
       style="fill:#231f20;fill-opacity:1;fill-rule:nonzero;stroke:none;stroke-width:0.9029274"
       id="path34"
       d="m 53.941108,42.921967 h 6.42277 v -2.860452 h -6.42277 z" /></g></svg>