<?xml version="1.0" encoding="UTF-8" standalone="no"?>
<!-- Created with Inkscape (http://www.inkscape.org/) -->

<svg
   xmlns:dc="http://purl.org/dc/elements/1.1/"
   xmlns:cc="http://creativecommons.org/ns#"
   xmlns:rdf="http://www.w3.org/1999/02/22-rdf-syntax-ns#"
   xmlns:svg="http://www.w3.org/2000/svg"
   xmlns="http://www.w3.org/2000/svg"
   xmlns:sodipodi="http://sodipodi.sourceforge.net/DTD/sodipodi-0.dtd"
   xmlns:inkscape="http://www.inkscape.org/namespaces/inkscape"
   version="1.1"
   width="70.862503"
   height="70.862503"
   id="svg2"
   xml:space="preserve"
   inkscape:version="0.48.4 r9939"
   sodipodi:docname="Tb2.022.svg"><sodipodi:namedview
     pagecolor="#ffffff"
     bordercolor="#666666"
     borderopacity="1"
     objecttolerance="10"
     gridtolerance="10"
     guidetolerance="10"
     inkscape:pageopacity="0"
     inkscape:pageshadow="2"
     inkscape:window-width="640"
     inkscape:window-height="480"
     id="namedview18"
     showgrid="false"
     inkscape:zoom="3.3303932"
     inkscape:cx="35.431252"
     inkscape:cy="35.581384"
     inkscape:window-x="0"
     inkscape:window-y="27"
     inkscape:window-maximized="0"
     inkscape:current-layer="svg2" /><metadata
     id="metadata8"><rdf:RDF><cc:Work
         rdf:about=""><dc:format>image/svg+xml</dc:format><dc:type
           rdf:resource="http://purl.org/dc/dcmitype/StillImage" /><dc:title /></cc:Work></rdf:RDF></metadata><defs
     id="defs6"><clipPath
       id="clipPath18"><path
         d="M 0,566.93 0,0 l 566.934,0 0,566.93 -566.934,0 z"
         id="path20" /></clipPath></defs><rect
     style="color:#000000;fill:#ffffff;fill-opacity:1;fill-rule:nonzero;stroke:#000000;stroke-width:2;stroke-linecap:butt;stroke-linejoin:miter;stroke-miterlimit:4;stroke-opacity:1;stroke-dasharray:none;stroke-dashoffset:0;marker:none;visibility:visible;display:inline;overflow:visible;enable-background:accumulate"
     id="rect2995"
     width="69.988068"
     height="69.988068"
     x="0.43721792"
     y="0.2870855"
     rx="0.0039863177" /><path
     d="m 24.981875,12.81075 3.489375,0 c 2.004875,8.588375 2.200625,9.680625 2.490625,11.47025 l 0.04687,0 c 0.275,-1.642625 0.5215,-3.237875 2.17825,-11.47025 l 3.47075,0 c 1.8325,8.607875 1.983875,9.440375 2.334875,11.47025 l 0.05763,0 c 0.25,-1.484875 0.52,-2.84375 2.55625,-11.47025 l 3.307125,0 -4.404875,15.6865 -3.15275,0 c -1.611875,-7.689 -1.892125,-9.223625 -2.42875,-12.242125 l -0.04,0 c -0.477625,3.0185 -0.7315,4.1455 -2.42675,12.242125 l -3.046875,0 -4.43175,-15.6865"
     id="path22"
     style="fill:#231f20;fill-opacity:1;fill-rule:evenodd;stroke:none"
     inkscape:connector-curvature="0" /><path
     d="m 59.314,24.37275 c 0,1.59525 0,25.69625 0,27.289125 C 57.892125,50.8415 35.7685,38.06225 35.693375,38.01975 35.7685,37.97675 57.892125,25.194 59.314,24.37275 z m -47.40335,0 c 1.42185,0.82125 23.544975,13.604 23.6191,13.647 -0.07413,0.0425 -22.19725,12.82175 -23.6191,13.642125 0,-1.592875 0,-25.693875 0,-27.289125 z M 35.611875,36.898625 C 35.11725,36.6145 10.8999,22.62275 10.8999,22.62275 l 0,30.791 c 0,0 24.21735,-13.98925 24.711975,-14.276375 C 36.1065,39.4245 60.32475,53.41375 60.32475,53.41375 l 0,-30.791 c 0,0 -24.21825,13.99175 -24.712875,14.275875"
     id="path26"
     style="fill:#231f20;fill-opacity:1;fill-rule:nonzero;stroke:none"
     inkscape:connector-curvature="0" /><path
     d="M 35.746625,38.0095 11.8081,51.847875 l 0,-27.674875 23.938525,13.8365"
     id="path28"
     style="fill:#176fc1;fill-opacity:1;fill-rule:nonzero;stroke:none"
     inkscape:connector-curvature="0" /><path
     d="m 35.46725,38.0095 23.938,13.838375 0,-27.674875 -23.938,13.8365"
     id="path30"
     style="fill:#176fc1;fill-opacity:1;fill-rule:nonzero;stroke:none"
     inkscape:connector-curvature="0" /><path
     d="m 4.311525,39.87375 7.117188,0 0,-3.167975 -7.117188,0 0,3.167975 z"
     id="path32"
     style="fill:#231f20;fill-opacity:1;fill-rule:nonzero;stroke:none"
     inkscape:connector-curvature="0" /><path
     d="m 59.80075,39.87375 7.113275,0 0,-3.167975 -7.113275,0 0,3.167975 z"
     id="path34"
     style="fill:#231f20;fill-opacity:1;fill-rule:nonzero;stroke:none"
     inkscape:connector-curvature="0" /></svg>