<?xml version="1.0" encoding="UTF-8" standalone="no"?>
<!-- Created with Inkscape (http://www.inkscape.org/) -->

<svg
   xmlns:dc="http://purl.org/dc/elements/1.1/"
   xmlns:cc="http://creativecommons.org/ns#"
   xmlns:rdf="http://www.w3.org/1999/02/22-rdf-syntax-ns#"
   xmlns:svg="http://www.w3.org/2000/svg"
   xmlns="http://www.w3.org/2000/svg"
   xmlns:sodipodi="http://sodipodi.sourceforge.net/DTD/sodipodi-0.dtd"
   xmlns:inkscape="http://www.inkscape.org/namespaces/inkscape"
   version="1.1"
   width="71"
   height="71"
   id="svg2"
   xml:space="preserve"
   inkscape:version="0.48.4 r9939"
   sodipodi:docname="Tb2.004.svg"><sodipodi:namedview
     pagecolor="#ffffff"
     bordercolor="#666666"
     borderopacity="1"
     objecttolerance="10"
     gridtolerance="10"
     guidetolerance="10"
     inkscape:pageopacity="0"
     inkscape:pageshadow="2"
     inkscape:window-width="783"
     inkscape:window-height="480"
     id="namedview18"
     showgrid="false"
     inkscape:zoom="3.3303932"
     inkscape:cx="36.031781"
     inkscape:cy="35.581384"
     inkscape:window-x="118"
     inkscape:window-y="442"
     inkscape:window-maximized="0"
     inkscape:current-layer="svg2" /><metadata
     id="metadata8"><rdf:RDF><cc:Work
         rdf:about=""><dc:format>image/svg+xml</dc:format><dc:type
           rdf:resource="http://purl.org/dc/dcmitype/StillImage" /><dc:title /></cc:Work></rdf:RDF></metadata><defs
     id="defs6"><clipPath
       id="clipPath18"><path
         d="M 0,566.93 0,0 l 566.934,0 0,566.93 -566.934,0 z"
         id="path20"
         inkscape:connector-curvature="0" /></clipPath></defs><rect
     style="color:#000000;fill:#ffffff;fill-opacity:1;fill-rule:nonzero;stroke:#000000;stroke-width:2;stroke-linecap:butt;stroke-linejoin:miter;stroke-miterlimit:4;stroke-opacity:1;stroke-dasharray:none;stroke-dashoffset:0;marker:none;visibility:visible;display:inline;overflow:visible;enable-background:accumulate"
     id="rect2995"
     width="69.988068"
     height="69.988068"
     x="1.0377476"
     y="0.42458245"
     rx="0.0039863177" /><rect
     style="color:#000000;fill:#ffffff;fill-opacity:1;fill-rule:nonzero;stroke:none;stroke-width:1;marker:none;visibility:visible;display:inline;overflow:visible;enable-background:accumulate"
     id="rect3009"
     y="11.547561"
     x="20.718275"
     rx="0.17222211"
     height="31.227543"
     width="39.334694" /><path
     d="m 19.486875,47.564997 42.3125,0 0,-38.5835001 -42.3125,0 0,38.5835001 z"
     id="path24"
     style="fill:#231f20;fill-opacity:1;fill-rule:nonzero;stroke:none"
     inkscape:connector-curvature="0" /><path
     d="m 20.28375,46.839872 40.71975,0 0,-37.1367501 -40.71975,0 0,37.1367501 z"
     id="path26"
     style="fill:#ed1c24;fill-opacity:1;fill-rule:nonzero;stroke:none"
     inkscape:connector-curvature="0" /><path
     d="m 14.714875,50.959497 c -0.181125,-0.44675 -0.550375,-0.80425 -0.998125,-1.077625 -0.09275,-0.104 -0.17625,-0.104 -0.268,-0.104 -0.192875,0 -0.28175,0 -0.3755,0.104 -0.45075,0.273375 -0.72755,0.630875 -0.992688,1.077625 -0.363275,0.555625 -0.632812,1.09275 -0.736325,1.729 -0.26025,0.82375 -0.348637,1.723625 -0.348637,2.63625 0,0.90475 0.08839,1.808 0.348637,2.63175 0.103513,0.631387 0.37305,1.173387 0.736325,1.713912 0.265138,0.466313 0.541938,0.824213 0.992688,1.102538 0.09375,0.08399 0.182625,0.08399 0.3755,0.08399 0.09175,0 0.17525,0 0.268,-0.08399 0.44775,-0.278325 0.817,-0.636225 0.998125,-1.102538 0.370125,-0.540525 0.628875,-1.082525 0.8115,-1.713912 0.186,-0.82375 0.27975,-1.727 0.27975,-2.63175 0,-0.912625 -0.09375,-1.8125 -0.27975,-2.63625 -0.182625,-0.63625 -0.441375,-1.173375 -0.8115,-1.729 m 4.772,-29.568375 0,16.55325 -0.300375,0 c -0.441375,0 -0.913,-0.438 -0.913,-0.900875 l 0,-4.496125 c 0,-0.451125 -0.358,-0.807125 -0.80675,-0.807125 l -0.4575,0 0,3.993125 c 0,0.279375 -0.186,0.549875 -0.36125,0.7315 l -1.09775,0.826625 c -0.269,0.174375 -0.358875,0.361375 -0.358875,0.617625 l -0.452625,9.6885 c 0.08887,0.09913 0.276375,0.188 0.358875,0.2735 0.733,0.451625 1.372625,1.097625 1.725625,1.82275 0.54975,0.733875 0.816375,1.539 1.09225,2.44875 0.28325,0.997 0.358,2.094625 0.358,3.182125 0,1.168375 -0.07475,2.264625 -0.358,3.263137 -0.275875,0.909188 -0.5425,1.7334 -1.09225,2.4585 -0.353,0.720213 -0.992625,1.355963 -1.725625,1.821288 -0.449625,0.349125 -1.084,0.532225 -1.71875,0.532225 -0.63425,0 -1.268037,-0.1831 -1.729462,-0.532225 -0.728025,-0.465325 -1.268063,-1.101075 -1.7153255,-1.821288 -0.47315,-0.7251 -0.8203125,-1.549312 -1.1015625,-2.4585 -0.1767625,-0.998512 -0.3628,-2.094762 -0.3628,-3.263137 0,-1.0875 0.1860375,-2.185125 0.3628,-3.182125 0.28125,-0.90975 0.6284125,-1.714875 1.1015625,-2.44875 0.4472625,-0.725125 0.9873005,-1.371125 1.7153255,-1.82275 0.09229,-0.0855 0.273925,-0.174375 0.358887,-0.2735 l -0.358887,-9.6885 c 0,-0.25625 -0.182613,-0.44325 -0.36035,-0.617625 L 10.199225,36.464872 C 9.9340875,36.283247 9.8388625,36.012747 9.8388625,35.733372 l 0,-15.621125 7.1703875,0 0,5.878 0.36375,0 c 0.5425,0 0.9005,-0.455625 0.9005,-0.90775 l 0,-2.786125 c 0,-0.462375 0.471625,-0.90525 0.913,-0.90525 l 0.300375,0"
     id="path28"
     style="fill:#231f20;fill-opacity:1;fill-rule:nonzero;stroke:none"
     inkscape:connector-curvature="0" /><path
     d="m 24.34175,38.043497 0,-19.881375 4.039625,0 0,16.48825 10.078125,0 0,3.393125 -14.11775,0"
     id="path30"
     style="fill:#ffffff;fill-opacity:1;fill-rule:nonzero;stroke:none"
     inkscape:connector-curvature="0" /><path
     d="m 45.382375,29.297872 0,5.3525 3.751875,0 c 1.45075,0 2.38825,-0.039 2.774,-0.1225 0.603,-0.11425 1.097125,-0.371625 1.473125,-0.794 0.38175,-0.423375 0.56975,-1 0.56975,-1.701125 0,-0.600625 -0.151375,-1.11825 -0.44775,-1.541 -0.292,-0.42 -0.7055,-0.726625 -1.261125,-0.914125 -0.551875,-0.19525 -1.746625,-0.27975 -3.59725,-0.27975 l -3.262625,0 m 0,-7.962375 0,4.642 2.65625,0 c 1.59025,0 2.56925,-0.0205 2.951625,-0.08488 0.700125,-0.07862 1.23725,-0.3145 1.637625,-0.7085 0.405875,-0.393125 0.6085,-0.9175 0.6085,-1.566875 0,-0.61975 -0.184625,-1.1255 -0.51425,-1.518625 -0.34325,-0.378875 -0.856875,-0.619625 -1.539,-0.69825 -0.400375,-0.04437 -1.55425,-0.06487 -3.47075,-0.06487 l -2.33,0 z m -4.039625,-3.32525 8.017625,0 c 1.577125,0 2.7685,0.05763 3.54975,0.201125 0.777875,0.131875 1.474625,0.402875 2.0865,0.82375 0.621,0.413625 1.130375,0.97075 1.539,1.671875 0.415,0.693375 0.61675,1.475125 0.61675,2.336 0,0.942375 -0.253875,1.79825 -0.76225,2.5835 -0.503875,0.786125 -1.19575,1.3725 -2.063,1.765625 1.224625,0.348625 2.170375,0.9585 2.82525,1.813875 0.65525,0.856 0.98,1.86825 0.98,3.03225 0,0.8975 -0.207625,1.7945 -0.63575,2.65925 -0.423875,0.859375 -0.999125,1.54775 -1.7325,2.064375 -0.734875,0.516125 -1.643,0.82525 -2.722125,0.94725 -0.663125,0.07575 -2.297375,0.11475 -4.872125,0.134375 l -6.827125,0 0,-20.03325"
     id="path32"
     style="fill:#ffffff;fill-opacity:1;fill-rule:nonzero;stroke:none"
     inkscape:connector-curvature="0" /></svg>