<?xml version="1.0" encoding="UTF-8" standalone="no"?>
<!-- Created with Inkscape (http://www.inkscape.org/) -->

<svg
   xmlns:dc="http://purl.org/dc/elements/1.1/"
   xmlns:cc="http://creativecommons.org/ns#"
   xmlns:rdf="http://www.w3.org/1999/02/22-rdf-syntax-ns#"
   xmlns:svg="http://www.w3.org/2000/svg"
   xmlns="http://www.w3.org/2000/svg"
   xmlns:sodipodi="http://sodipodi.sourceforge.net/DTD/sodipodi-0.dtd"
   xmlns:inkscape="http://www.inkscape.org/namespaces/inkscape"
   version="1.1"
   width="125"
   height="125"
   id="svg2"
   xml:space="preserve"
   sodipodi:docname="172.svg"
   inkscape:version="0.92.5 (2060ec1f9f, 2020-04-08)"><sodipodi:namedview
     pagecolor="#ffffff"
     bordercolor="#666666"
     borderopacity="1"
     objecttolerance="10"
     gridtolerance="10"
     guidetolerance="10"
     inkscape:pageopacity="0"
     inkscape:pageshadow="2"
     inkscape:window-width="970"
     inkscape:window-height="891"
     id="namedview31265"
     showgrid="false"
     inkscape:zoom="3.3303932"
     inkscape:cx="35.431252"
     inkscape:cy="35.431252"
     inkscape:window-x="0"
     inkscape:window-y="0"
     inkscape:window-maximized="0"
     inkscape:current-layer="svg2" /><metadata
     id="metadata8"><rdf:RDF><cc:Work
         rdf:about=""><dc:format>image/svg+xml</dc:format><dc:type
           rdf:resource="http://purl.org/dc/dcmitype/StillImage" /><dc:title></dc:title></cc:Work></rdf:RDF></metadata><defs
     id="defs6"><clipPath
       id="clipPath18"><path
         d="M 0,566.93 V 0 h 566.934 v 566.93 z"
         id="path20"
         inkscape:connector-curvature="0" /></clipPath></defs><g
     transform="matrix(1.1465179,0,0,-1.1465179,30.000001,94.99977)"
     id="g10"><rect
       width="68.760651"
       height="69.060913"
       rx="0.070542179"
       x="0.90079451"
       y="1.2010593"
       transform="matrix(0.8,0,0,-0.8,0,56.69)"
       id="rect3031"
       style="color:#000000;display:inline;overflow:visible;visibility:visible;fill:#ffffff;fill-opacity:1;fill-rule:nonzero;stroke:none;stroke-width:1;marker:none;enable-background:accumulate" /><g
       transform="scale(0.1)"
       id="g12"><g
         id="g14"><g
           clip-path="url(#clipPath18)"
           id="g16"><path
             d="m 283.699,136.895 c 4.145,0 8.098,0.343 12.199,0.488 v 69.148 c -4.101,-0.191 -8.054,-0.379 -12.199,-0.379 -4.07,0 -8.086,0.188 -12.133,0.379 v -69.148 c 4.047,-0.145 8.063,-0.488 12.133,-0.488"
             id="path22"
             style="fill:#231f20;fill-opacity:1;fill-rule:nonzero;stroke:none"
             inkscape:connector-curvature="0" /><path
             d="m 211.773,144.406 23.825,65.242 c -8.254,1.219 -16.266,2.864 -24.207,4.688 l -23.43,-64.238 c 7.816,-2.207 15.723,-4.11 23.812,-5.692"
             id="path24"
             style="fill:#231f20;fill-opacity:1;fill-rule:nonzero;stroke:none"
             inkscape:connector-curvature="0" /><path
             d="m 92.2852,161.086 -40.211,-49.277 c 7.1016,-4.172 14.336,-8.067 21.6992,-11.9379 l 40.0586,49.1209 c -7.379,3.871 -14.5586,7.863 -21.5468,12.094"
             id="path26"
             style="fill:#231f20;fill-opacity:1;fill-rule:nonzero;stroke:none"
             inkscape:connector-curvature="0" /><path
             d="m 365.488,117.461 20.45,-55.8594 c 8.027,1.7265 15.988,3.5351 23.789,5.6172 l -20.516,56.2192 c -7.805,-2.188 -15.688,-4.168 -23.723,-5.977"
             id="path28"
             style="fill:#231f20;fill-opacity:1;fill-rule:nonzero;stroke:none"
             inkscape:connector-curvature="0" /><path
             d="m 453.66,148.992 40.012,-49.1209 c 7.383,3.8709 14.582,7.7659 21.687,11.9379 l -40.23,49.277 c -6.887,-4.231 -14.121,-8.223 -21.469,-12.094"
             id="path30"
             style="fill:#231f20;fill-opacity:1;fill-rule:nonzero;stroke:none"
             inkscape:connector-curvature="0" /><path
             d="m 415.059,234.816 c -7.461,-3.566 -15.34,-6.796 -23.34,-9.726 l 43.633,-53.613 c 7.492,3.691 14.804,7.625 21.765,11.796 l -42.058,51.543"
             id="path32"
             style="fill:#231f20;fill-opacity:1;fill-rule:nonzero;stroke:none"
             inkscape:connector-curvature="0" /><path
             d="m 356.055,214.336 c -7.879,-1.824 -15.996,-3.469 -24.219,-4.688 l 23.84,-65.242 c 8.062,1.582 16.023,3.485 23.789,5.692 l -23.41,64.238"
             id="path34"
             style="fill:#231f20;fill-opacity:1;fill-rule:nonzero;stroke:none"
             inkscape:connector-curvature="0" /><path
             d="m 295.898,50.7539 v 58.2301 c -4.101,-0.125 -8.054,-0.566 -12.199,-0.566 -4.07,0 -8.086,0.441 -12.133,0.566 V 50.7539 c 4.047,-0.0781 8.063,-0.5586 12.133,-0.5586 4.145,0 8.098,0.4805 12.199,0.5586"
             id="path36"
             style="fill:#231f20;fill-opacity:1;fill-rule:nonzero;stroke:none"
             inkscape:connector-curvature="0" /><path
             d="m 132.105,171.477 43.665,53.613 c -8.051,2.93 -15.95,6.16 -23.372,9.726 L 110.32,183.273 c 7.043,-4.171 14.293,-8.105 21.785,-11.796"
             id="path38"
             style="fill:#231f20;fill-opacity:1;fill-rule:nonzero;stroke:none"
             inkscape:connector-curvature="0" /><path
             d="M 178.219,123.438 157.695,67.2188 c 7.852,-2.0821 15.801,-3.8907 23.813,-5.6954 l 20.445,55.9376 c -8.015,1.809 -15.922,3.789 -23.734,5.977"
             id="path40"
             style="fill:#231f20;fill-opacity:1;fill-rule:nonzero;stroke:none"
             inkscape:connector-curvature="0" /><path
             d="m 547.629,547.613 c 0,-18.312 0,-510.0153 0,-528.3278 -18.313,0 -509.9962,0 -528.3087,0 0,18.3125 0,510.0158 0,528.3278 18.3125,0 509.9957,0 528.3087,0 z m 9.644,19.317 H 0 V 0 h 566.934 v 566.93 h -9.661"
             id="path42"
             style="fill:#231f20;fill-opacity:1;fill-rule:nonzero;stroke:none"
             inkscape:connector-curvature="0" /><path
             d="m 166.328,306.613 c -7.562,-8.91 -14.609,-20.281 -21.301,-32.629 28.469,0 248.938,0 277.336,0 -6.621,12.348 -13.664,23.719 -21.203,32.629 -16.18,18.899 -33.57,33 -51.805,41.899 -21.394,10.59 -43.464,15.933 -65.656,15.933 -22.051,0 -44.242,-5.343 -65.98,-15.933 -18,-8.899 -35.258,-23 -51.391,-41.899"
             id="path44"
             style="fill:#fcd205;fill-opacity:1;fill-rule:nonzero;stroke:none"
             inkscape:connector-curvature="0" /><path
             d="m 166.328,306.613 c 16.133,18.899 33.391,33 51.391,41.899 21.738,10.59 43.929,15.933 65.98,15.933 22.192,0 44.262,-5.343 65.656,-15.933 18.235,-8.899 35.625,-23 51.805,-41.899 7.539,-8.91 14.582,-20.281 21.203,-32.629 -28.398,0 -248.867,0 -277.336,0 6.692,12.348 13.739,23.719 21.301,32.629 m 42.465,60.039 c -20.516,-10.058 -40.008,-25.855 -57.938,-46.933 -11.671,-13.75 -22.71,-31.571 -31.878,-51.621 l -6.559,-14.407 h 342.57 l -6.511,14.407 c -9.168,20.05 -20.215,37.933 -31.895,51.621 -17.969,21.148 -37.578,36.965 -58.242,46.933 -24.141,12.036 -49.348,18.078 -74.641,18.078 -25.148,0 -50.379,-6.042 -74.906,-18.078"
             id="path46"
             style="fill:#231f20;fill-opacity:1;fill-rule:nonzero;stroke:none"
             inkscape:connector-curvature="0" /><path
             d="m 165.082,454.512 -14.266,37.277 -13.839,-37.277 h 28.105 m 38.285,-39.594 h -22.64 l -8.801,22.644 h -41.238 l -8.415,-22.644 h -22.238 l 39.731,100.301 h 22.32 l 41.281,-100.301"
             id="path48"
             style="fill:#231f20;fill-opacity:1;fill-rule:nonzero;stroke:none"
             inkscape:connector-curvature="0" /><path
             d="m 214.488,414.918 v 100.301 h 70.668 v -16.996 h -49.867 v -23.707 h 43.074 v -16.977 h -43.074 v -42.621 h -20.801"
             id="path50"
             style="fill:#231f20;fill-opacity:1;fill-rule:nonzero;stroke:none"
             inkscape:connector-curvature="0" /><path
             d="m 302.344,414.918 v 100.301 h 70.644 v -16.996 h -49.902 v -23.707 h 43.098 v -16.977 h -43.098 v -42.621 h -20.742"
             id="path52"
             style="fill:#231f20;fill-opacity:1;fill-rule:nonzero;stroke:none"
             inkscape:connector-curvature="0" /><path
             d="m 390.195,414.918 v 100.301 h 70.696 v -16.996 h -49.946 v -23.707 h 43.125 v -16.977 h -43.125 v -42.621 h -20.75"
             id="path54"
             style="fill:#231f20;fill-opacity:1;fill-rule:nonzero;stroke:none"
             inkscape:connector-curvature="0" /></g></g></g></g></svg>