<?xml version="1.0" encoding="utf-8"?>
<!-- Generator: Adobe Illustrator 24.1.0, SVG Export Plug-In . SVG Version: 6.00 Build 0)  -->
<svg version="1.1"
	 id="svg2" xmlns:cc="http://creativecommons.org/ns#" xmlns:dc="http://purl.org/dc/elements/1.1/" xmlns:rdf="http://www.w3.org/1999/02/22-rdf-syntax-ns#" xmlns:svg="http://www.w3.org/2000/svg"
	 xmlns="http://www.w3.org/2000/svg" xmlns:xlink="http://www.w3.org/1999/xlink" x="0px" y="0px" viewBox="0 0 70.9 70.9"
	 style="enable-background:new 0 0 70.9 70.9;" xml:space="preserve">
<style type="text/css">
	.st0{fill:#00A650;}
	.st1{fill:none;}
	.st2{fill:#FFFFFF;}
</style>
<rect y="0" class="st0" width="70.9" height="70.9"/>
<polyline class="st1" points="70.9,70.9 70.9,0 0,0 "/>
<path id="path132" class="st2" d="M58.9,23.8v-5.5c0-0.2,0.2-0.4,0.5-0.4h5.5c0.2,0,0.5-0.2,0.5-0.5V12c0-0.2-0.2-0.5-0.5-0.5h-5.5
	c-0.2,0-0.5-0.2-0.5-0.4V5.7c0-0.2-0.2-0.5-0.4-0.5h-5.5c-0.2,0-0.5,0.2-0.5,0.5v5.5c0,0.2-0.2,0.4-0.5,0.4h-5.4
	c-0.3,0-0.5,0.2-0.5,0.5v5.5c0,0.2,0.2,0.5,0.5,0.5h5.4c0.3,0,0.5,0.2,0.5,0.4v5.5c0,0.2,0.2,0.5,0.5,0.5h5.5
	C58.8,24.2,58.9,24,58.9,23.8"/>
<path class="st2" d="M38.6,22.8c-7.2,0-10,6.1-10,6.1s-2.9-6.2-10-6.1c-7.2,0-11.8,6.4-11.8,13s7.3,17.6,21.8,26.9
	c14.5-9.3,21.8-20.3,21.8-26.9S45.8,22.8,38.6,22.8z M22.5,55.7l4.7-12.1h-6.9l13.9-15.5l-5.5,12.4h7.5L22.5,55.7z"/>
</svg>
