<?xml version="1.0" encoding="UTF-8" standalone="no"?>
<!-- Created with Inkscape (http://www.inkscape.org/) -->

<svg
   xmlns:dc="http://purl.org/dc/elements/1.1/"
   xmlns:cc="http://creativecommons.org/ns#"
   xmlns:rdf="http://www.w3.org/1999/02/22-rdf-syntax-ns#"
   xmlns:svg="http://www.w3.org/2000/svg"
   xmlns="http://www.w3.org/2000/svg"
   version="1.1"
   width="70.862503"
   height="70.862503"
   id="svg2"
   xml:space="preserve"><metadata
     id="metadata8"><rdf:RDF><cc:Work
         rdf:about=""><dc:format>image/svg+xml</dc:format><dc:type
           rdf:resource="http://purl.org/dc/dcmitype/StillImage" /><dc:title></dc:title></cc:Work></rdf:RDF></metadata><defs
     id="defs6"><clipPath
       id="clipPath18"><path
         d="M 0,566.93 0,0 l 566.934,0 0,566.93 -566.934,0 z"
         id="path20" /></clipPath></defs><g
     transform="matrix(1.25,0,0,-1.25,0,70.8625)"
     id="g10"><rect
       width="55.008522"
       height="55.24873"
       rx="0.056433745"
       x="0.72063559"
       y="-55.729153"
       transform="scale(1,-1)"
       id="rect3031"
       style="color:#000000;fill:#ffffff;fill-opacity:1;fill-rule:nonzero;stroke:none;stroke-width:1;marker:none;visibility:visible;display:inline;overflow:visible;enable-background:accumulate" /><g
       transform="scale(0.1,0.1)"
       id="g12"><g
         id="g14"><g
           clip-path="url(#clipPath18)"
           id="g16"><path
             d="m 283.684,136.887 c 4.136,0 8.152,0.332 12.207,0.523 l 0,69.145 c -4.055,-0.137 -8.071,-0.383 -12.207,-0.383 -4.039,0 -8.098,0.246 -12.098,0.383 l 0,-69.145 c 4,-0.191 8.059,-0.523 12.098,-0.523"
             id="path22"
             style="fill:#231f20;fill-opacity:1;fill-rule:nonzero;stroke:none" /><path
             d="m 211.762,144.484 23.824,65.223 c -8.238,1.16 -16.223,2.824 -24.231,4.641 L 187.969,150.09 c 7.801,-2.168 15.699,-4.055 23.793,-5.606"
             id="path24"
             style="fill:#231f20;fill-opacity:1;fill-rule:nonzero;stroke:none" /><path
             d="M 92.2812,161.145 52.0703,111.848 c 7.0742,-4.153 14.3399,-8.157 21.7109,-11.9652 l 40.0468,49.1482 c -7.367,3.852 -14.5546,7.793 -21.5468,12.114"
             id="path26"
             style="fill:#231f20;fill-opacity:1;fill-rule:nonzero;stroke:none" /><path
             d="m 365.52,117.531 20.398,-55.9099 c 8.035,1.7187 15.957,3.5351 23.789,5.6641 l -20.469,56.1638 c -7.851,-2.265 -15.742,-4.133 -23.718,-5.918"
             id="path28"
             style="fill:#231f20;fill-opacity:1;fill-rule:nonzero;stroke:none" /><path
             d="m 453.652,149.031 40.047,-49.1482 c 7.414,3.8082 14.543,7.8122 21.684,11.9652 l -40.254,49.297 c -6.887,-4.321 -14.113,-8.262 -21.477,-12.114"
             id="path30"
             style="fill:#231f20;fill-opacity:1;fill-rule:nonzero;stroke:none" /><path
             d="m 415.09,234.855 c -7.473,-3.625 -15.402,-6.835 -23.344,-9.718 l 43.606,-53.633 c 7.468,3.652 14.793,7.519 21.777,11.789 l -42.039,51.562"
             id="path32"
             style="fill:#231f20;fill-opacity:1;fill-rule:nonzero;stroke:none" /><path
             d="m 356.062,214.348 c -7.871,-1.817 -16.011,-3.481 -24.187,-4.641 l 23.809,-65.223 c 8.054,1.551 16.027,3.438 23.757,5.606 l -23.379,64.258"
             id="path34"
             style="fill:#231f20;fill-opacity:1;fill-rule:nonzero;stroke:none" /><path
             d="m 295.891,50.7617 0,58.2303 c -4.055,-0.125 -8.071,-0.562 -12.207,-0.562 -4.039,0 -8.098,0.437 -12.098,0.562 l 0,-58.2303 c 4,-0.1758 8.059,-0.5195 12.098,-0.5195 4.136,0 8.152,0.3437 12.207,0.5195"
             id="path36"
             style="fill:#231f20;fill-opacity:1;fill-rule:nonzero;stroke:none" /><path
             d="m 132.105,171.504 43.68,53.633 c -8.066,2.883 -15.961,6.093 -23.379,9.718 l -42.09,-51.562 c 7.043,-4.27 14.278,-8.137 21.789,-11.789"
             id="path38"
             style="fill:#231f20;fill-opacity:1;fill-rule:nonzero;stroke:none" /><path
             d="M 178.215,123.449 157.691,67.2852 c 7.852,-2.129 15.805,-3.9454 23.813,-5.793 l 20.445,56.0388 c -8.008,1.785 -15.926,3.653 -23.734,5.918"
             id="path40"
             style="fill:#231f20;fill-opacity:1;fill-rule:nonzero;stroke:none" /><path
             d="m 547.605,547.613 c 0,-18.312 0,-510.0036 0,-528.3044 -18.296,0 -509.9683,0 -528.2847,0 0,18.3008 0,509.9924 0,528.3044 18.3164,0 509.9887,0 528.2847,0 z M 557.266,566.93 0,566.93 0,0 l 566.934,0 0,566.93 -9.668,0"
             id="path42"
             style="fill:#231f20;fill-opacity:1;fill-rule:nonzero;stroke:none" /><path
             d="m 166.332,306.617 c -7.566,-8.988 -14.613,-20.269 -21.293,-32.672 28.457,0 248.914,0 277.332,0 -6.617,12.403 -13.66,23.75 -21.211,32.672 -16.187,18.957 -33.543,32.969 -51.797,41.895 -21.394,10.621 -43.472,15.965 -65.679,15.965 -22.024,0 -44.243,-5.344 -65.981,-15.965 -17.98,-8.926 -35.258,-22.938 -51.371,-41.895"
             id="path44"
             style="fill:#989696;fill-opacity:1;fill-rule:nonzero;stroke:none" /><path
             d="m 166.332,306.617 c 16.113,18.957 33.391,32.969 51.371,41.895 21.738,10.621 43.957,15.965 65.981,15.965 22.207,0 44.285,-5.344 65.679,-15.965 18.254,-8.926 35.61,-22.938 51.797,-41.895 7.551,-8.922 14.594,-20.269 21.211,-32.672 -28.418,0 -248.875,0 -277.332,0 6.68,12.403 13.727,23.684 21.293,32.672 m 42.445,60.016 c -20.5,-10.074 -40.004,-25.821 -57.918,-46.922 -11.679,-13.762 -22.711,-31.563 -31.871,-51.586 l -6.578,-14.402 342.57,0 -6.496,14.402 c -9.207,20.023 -20.222,37.902 -31.902,51.586 -18.008,21.18 -37.59,36.93 -58.289,46.922 -24.113,12.074 -49.25,18.058 -74.609,18.058 -25.133,0 -50.364,-5.984 -74.907,-18.058"
             id="path46"
             style="fill:#231f20;fill-opacity:1;fill-rule:nonzero;stroke:none" /><path
             d="m 223.059,451.836 20.07,-6.016 c -3.09,-11.082 -8.262,-19.3 -15.414,-24.605 -7.207,-5.348 -16.36,-8.051 -27.344,-8.051 -13.695,0 -24.933,4.516 -33.707,13.582 -8.812,9.094 -13.219,21.508 -13.219,37.316 0,16.614 4.407,29.59 13.274,38.911 8.863,9.152 20.504,13.828 34.918,13.828 12.578,0 22.816,-3.633 30.652,-10.969 4.719,-4.195 8.18,-10.367 10.578,-18.394 l -20.617,-4.68 c -1.254,5.125 -3.773,9.152 -7.633,12.254 -3.855,2.992 -8.527,4.5 -14.105,4.5 -7.629,0 -13.836,-2.692 -18.524,-8.028 -4.746,-5.347 -7.144,-13.988 -7.144,-25.996 0,-12.601 2.34,-21.558 7.054,-27.015 4.664,-5.325 10.79,-8.098 18.247,-8.098 5.546,0 10.265,1.719 14.281,5.234 4.051,3.438 6.851,8.864 8.633,16.227"
             id="path48"
             style="fill:#231f20;fill-opacity:1;fill-rule:nonzero;stroke:none" /><path
             d="m 278.105,465.062 c 0,-11.445 2.692,-19.988 8.067,-25.847 5.43,-5.863 12.266,-8.84 20.586,-8.84 8.34,0 15.207,2.887 20.476,8.766 5.371,5.82 8.039,14.476 8.039,26.117 0,11.558 -2.605,20.133 -7.753,25.82 -5.215,5.594 -12.122,8.434 -20.762,8.434 -8.543,0 -15.496,-2.84 -20.766,-8.574 -5.254,-5.688 -7.887,-14.313 -7.887,-25.876 m -21.457,-0.695 c 0,10.215 1.579,18.778 4.758,25.703 2.34,5.11 5.574,9.676 9.547,13.703 4.113,4.133 8.551,7.079 13.387,9.079 6.375,2.574 13.812,3.949 22.215,3.949 15.164,0 27.324,-4.621 36.433,-13.77 9.129,-9.246 13.7,-21.847 13.7,-38.187 0,-16.25 -4.508,-28.871 -13.641,-38.012 -8.926,-9.066 -21.082,-13.668 -36.231,-13.668 -15.332,0 -27.515,4.516 -36.578,13.582 -9.039,9.094 -13.59,21.606 -13.59,37.621"
             id="path50"
             style="fill:#231f20;fill-opacity:1;fill-rule:nonzero;stroke:none" /><path
             d="m 415.105,407.465 0,-12.832 -50.171,0 c 0.562,4.879 2.128,9.453 4.851,13.805 2.715,4.445 8.125,10.214 16.074,17.414 6.496,5.859 10.469,9.796 11.922,11.953 1.907,2.824 2.961,5.609 2.961,8.465 0,3.164 -0.84,5.464 -2.578,7.125 -1.719,1.64 -4.133,2.558 -7.187,2.558 -2.911,0 -5.379,-0.918 -7.161,-2.672 -1.765,-1.726 -2.793,-4.687 -3.054,-8.707 l -14.258,1.309 c 0.793,7.683 3.547,13.281 7.976,16.621 4.543,3.359 10.168,5.019 16.887,5.019 7.383,0 13.281,-1.933 17.422,-5.781 4.238,-3.914 6.316,-8.683 6.316,-14.433 0,-3.309 -0.601,-6.368 -1.777,-9.364 -1.238,-3.004 -3.16,-6.093 -5.769,-9.312 -1.739,-2.113 -4.856,-5.254 -9.395,-9.219 -4.59,-4.133 -7.422,-6.781 -8.684,-8.121 -1.226,-1.281 -2.168,-2.57 -2.937,-3.828 l 28.562,0"
             id="path52"
             style="fill:#231f20;fill-opacity:1;fill-rule:nonzero;stroke:none" /></g></g></g></g></svg>