<?xml version="1.0" encoding="UTF-8" standalone="no"?>
<!-- Created with Inkscape (http://www.inkscape.org/) -->

<svg
   xmlns:dc="http://purl.org/dc/elements/1.1/"
   xmlns:cc="http://creativecommons.org/ns#"
   xmlns:rdf="http://www.w3.org/1999/02/22-rdf-syntax-ns#"
   xmlns:svg="http://www.w3.org/2000/svg"
   xmlns="http://www.w3.org/2000/svg"
   version="1.1"
   width="70.862503"
   height="70.862503"
   id="svg2"
   xml:space="preserve"><metadata
     id="metadata8"><rdf:RDF><cc:Work
         rdf:about=""><dc:format>image/svg+xml</dc:format><dc:type
           rdf:resource="http://purl.org/dc/dcmitype/StillImage" /><dc:title></dc:title></cc:Work></rdf:RDF></metadata><defs
     id="defs6"><clipPath
       id="clipPath18"><path
         d="M 0,566.93 0,0 l 566.934,0 0,566.93 -566.934,0 z"
         id="path20" /></clipPath></defs><g
     transform="matrix(1.25,0,0,-1.25,0,70.8625)"
     id="g10"><rect
       width="55.008522"
       height="55.24873"
       rx="0.056433745"
       x="0.72063559"
       y="-55.729153"
       transform="scale(1,-1)"
       id="rect3031"
       style="color:#000000;fill:#ffffff;fill-opacity:1;fill-rule:nonzero;stroke:none;stroke-width:1;marker:none;visibility:visible;display:inline;overflow:visible;enable-background:accumulate" /><g
       transform="scale(0.1,0.1)"
       id="g12"><g
         id="g14"><g
           clip-path="url(#clipPath18)"
           id="g16"><path
             d="m 283.684,136.855 c 4.128,0 8.113,0.391 12.207,0.567 l 0,69.172 c -4.094,-0.168 -8.079,-0.41 -12.207,-0.41 -4.079,0 -8.086,0.242 -12.137,0.41 l 0,-69.172 c 4.051,-0.176 8.058,-0.567 12.137,-0.567"
             id="path22"
             style="fill:#231f20;fill-opacity:1;fill-rule:nonzero;stroke:none" /><path
             d="m 211.773,144.492 23.797,65.235 c -8.234,1.191 -16.261,2.734 -24.199,4.621 l -23.433,-64.211 c 7.824,-2.141 15.718,-4.082 23.835,-5.645"
             id="path24"
             style="fill:#231f20;fill-opacity:1;fill-rule:nonzero;stroke:none" /><path
             d="M 92.2852,161.152 52.0664,111.836 c 7.0977,-4.133 14.3242,-8.086 21.6953,-11.9258 l 40.0433,49.1128 c -7.36,3.887 -14.5472,7.864 -21.5198,12.129"
             id="path26"
             style="fill:#231f20;fill-opacity:1;fill-rule:nonzero;stroke:none" /><path
             d="m 365.488,117.609 20.41,-56.066 c 8.04,1.8164 16.004,3.625 23.821,5.8281 l -20.52,56.1249 c -7.781,-2.305 -15.691,-4.172 -23.711,-5.887"
             id="path28"
             style="fill:#231f20;fill-opacity:1;fill-rule:nonzero;stroke:none" /><path
             d="m 453.652,149.023 40,-49.1128 c 7.395,3.8398 14.578,7.7928 21.731,11.9258 l -40.278,49.316 c -6.902,-4.265 -14.109,-8.242 -21.453,-12.129"
             id="path30"
             style="fill:#231f20;fill-opacity:1;fill-rule:nonzero;stroke:none" /><path
             d="m 415.051,234.871 c -7.473,-3.601 -15.324,-6.824 -23.34,-9.773 l 43.621,-53.614 c 7.473,3.719 14.797,7.649 21.777,11.797 l -42.058,51.59"
             id="path32"
             style="fill:#231f20;fill-opacity:1;fill-rule:nonzero;stroke:none" /><path
             d="m 355.996,214.348 c -7.844,-1.887 -15.937,-3.43 -24.172,-4.621 l 23.828,-65.235 c 8.078,1.563 15.989,3.504 23.782,5.645 l -23.438,64.211"
             id="path34"
             style="fill:#231f20;fill-opacity:1;fill-rule:nonzero;stroke:none" /><path
             d="m 295.891,50.7539 0,58.2691 c -4.094,-0.125 -8.079,-0.546 -12.207,-0.546 -4.079,0 -8.086,0.421 -12.137,0.546 l 0,-58.2691 c 4.051,-0.1289 8.058,-0.5117 12.137,-0.5117 4.128,0 8.113,0.3828 12.207,0.5117"
             id="path36"
             style="fill:#231f20;fill-opacity:1;fill-rule:nonzero;stroke:none" /><path
             d="m 132.086,171.484 43.668,53.614 c -8.051,2.949 -15.953,6.172 -23.375,9.773 l -42.059,-51.59 c 7.035,-4.148 14.274,-8.078 21.766,-11.797"
             id="path38"
             style="fill:#231f20;fill-opacity:1;fill-rule:nonzero;stroke:none" /><path
             d="M 178.199,123.496 157.68,67.3711 c 7.855,-2.2031 15.793,-4.0117 23.808,-5.8281 l 20.453,56.066 c -8.031,1.715 -15.925,3.582 -23.742,5.887"
             id="path40"
             style="fill:#231f20;fill-opacity:1;fill-rule:nonzero;stroke:none" /><path
             d="m 547.605,547.613 c 0,-18.312 0,-510.0036 0,-528.3044 -18.296,0 -509.9722,0 -528.2847,0 0,18.3008 0,509.9924 0,528.3044 18.3125,0 509.9887,0 528.2847,0 z M 557.266,566.93 0,566.93 0,0 l 566.934,0 0,566.93 -9.668,0"
             id="path42"
             style="fill:#231f20;fill-opacity:1;fill-rule:nonzero;stroke:none" /><path
             d="m 166.328,306.625 c -7.594,-8.949 -14.617,-20.277 -21.301,-32.531 28.446,0 248.911,0 277.344,0 -6.656,12.254 -13.68,23.644 -21.226,32.531 -16.184,18.961 -33.567,33.098 -51.809,41.902 -21.375,10.637 -43.484,15.946 -65.652,15.946 -22.028,0 -44.246,-5.309 -65.981,-16.024 -17.996,-8.82 -35.262,-22.863 -51.375,-41.824"
             id="path44"
             style="fill:#fcd205;fill-opacity:1;fill-rule:nonzero;stroke:none" /><path
             d="m 166.328,306.625 c 16.113,18.961 33.379,33.004 51.375,41.824 21.735,10.715 43.953,16.024 65.981,16.024 22.168,0 44.277,-5.309 65.652,-15.946 18.242,-8.804 35.625,-22.941 51.809,-41.902 7.546,-8.887 14.57,-20.277 21.226,-32.531 -28.433,0 -248.898,0 -277.344,0 6.684,12.254 13.707,23.582 21.301,32.531 M 208.77,366.68 C 188.262,356.617 168.766,340.801 150.828,319.746 139.172,306 128.145,288.164 118.965,268.098 l -6.567,-14.278 342.59,0 -6.519,14.278 c -9.211,20.066 -20.207,37.98 -31.907,51.648 -17.976,21.137 -37.585,36.953 -58.261,46.934 -24.129,12.027 -49.297,18.07 -74.617,18.07 -25.145,0 -50.387,-6.043 -74.914,-18.07"
             id="path46"
             style="fill:#231f20;fill-opacity:1;fill-rule:nonzero;stroke:none" /><path
             d="m 240.531,447.242 20.36,1.891 c 1.187,-6.512 3.66,-11.379 7.394,-14.445 3.777,-3.18 8.805,-4.649 15.094,-4.649 6.719,0 11.758,1.32 15.176,4.094 3.371,2.742 5.105,5.969 5.105,9.656 0,2.379 -0.711,4.375 -2.105,6.031 -1.457,1.649 -3.938,3.192 -7.473,4.344 -2.48,0.859 -8.023,2.289 -16.676,4.406 -11.195,2.774 -19.015,6.063 -23.504,9.969 -6.336,5.508 -9.523,12.273 -9.523,20.207 0,5.113 1.504,9.91 4.492,14.402 2.988,4.469 7.238,7.848 12.813,10.215 5.582,2.262 12.347,3.473 20.246,3.473 12.98,0 22.679,-2.774 29.203,-8.289 6.523,-5.477 9.902,-12.879 10.305,-22.129 l -20.774,-0.813 c -0.891,5.102 -2.82,8.809 -5.73,11.028 -2.993,2.25 -7.383,3.449 -13.246,3.449 -6.012,0 -10.731,-1.262 -14.184,-3.691 -2.195,-1.489 -3.309,-3.625 -3.309,-6.157 0,-2.328 1.024,-4.394 3.149,-6.121 2.554,-2.121 8.961,-4.304 19.094,-6.687 10.105,-2.375 17.605,-4.793 22.488,-7.227 4.836,-2.5 8.64,-5.902 11.379,-10.234 2.73,-4.32 4.09,-9.656 4.09,-15.942 0,-5.824 -1.622,-11.148 -4.922,-16.171 -3.301,-5.028 -7.911,-8.825 -13.926,-11.18 -5.957,-2.426 -13.43,-3.641 -22.402,-3.641 -13.047,0 -23.079,2.961 -30.04,8.742 -6.988,5.766 -11.156,14.332 -12.574,25.469"
             id="path48"
             style="fill:#231f20;fill-opacity:1;fill-rule:nonzero;stroke:none" /></g></g></g></g></svg>