<?xml version="1.0" encoding="UTF-8" standalone="no"?>
<!-- Created with Inkscape (http://www.inkscape.org/) -->

<svg
   xmlns:dc="http://purl.org/dc/elements/1.1/"
   xmlns:cc="http://creativecommons.org/ns#"
   xmlns:rdf="http://www.w3.org/1999/02/22-rdf-syntax-ns#"
   xmlns:svg="http://www.w3.org/2000/svg"
   xmlns="http://www.w3.org/2000/svg"
   xmlns:sodipodi="http://sodipodi.sourceforge.net/DTD/sodipodi-0.dtd"
   xmlns:inkscape="http://www.inkscape.org/namespaces/inkscape"
   version="1.1"
   width="125"
   height="125"
   id="svg2"
   xml:space="preserve"
   sodipodi:docname="26.svg"
   inkscape:version="0.92.5 (2060ec1f9f, 2020-04-08)"><sodipodi:namedview
     pagecolor="#ffffff"
     bordercolor="#666666"
     borderopacity="1"
     objecttolerance="10"
     gridtolerance="10"
     guidetolerance="10"
     inkscape:pageopacity="0"
     inkscape:pageshadow="2"
     inkscape:window-width="1920"
     inkscape:window-height="1017"
     id="namedview21697"
     showgrid="false"
     inkscape:zoom="3.3303932"
     inkscape:cx="35.431252"
     inkscape:cy="35.431252"
     inkscape:window-x="-8"
     inkscape:window-y="-8"
     inkscape:window-maximized="1"
     inkscape:current-layer="svg2" /><metadata
     id="metadata8"><rdf:RDF><cc:Work
         rdf:about=""><dc:format>image/svg+xml</dc:format><dc:type
           rdf:resource="http://purl.org/dc/dcmitype/StillImage" /><dc:title></dc:title></cc:Work></rdf:RDF></metadata><defs
     id="defs6"><clipPath
       id="clipPath18"><path
         d="M 0,566.93 V 0 h 566.934 v 566.93 z"
         id="path20"
         inkscape:connector-curvature="0" /></clipPath></defs><g
     transform="matrix(1.1465179,0,0,-1.146526,30.000001,94.999999)"
     id="g10"><rect
       width="55.008522"
       height="55.24873"
       rx="0.056433745"
       x="0.72063559"
       y="-55.729153"
       transform="scale(1,-1)"
       id="rect3031"
       style="color:#000000;display:inline;overflow:visible;visibility:visible;fill:#ffffff;fill-opacity:1;fill-rule:nonzero;stroke:none;stroke-width:1;marker:none;enable-background:accumulate" /><g
       transform="scale(0.1)"
       id="g12"><g
         id="g14"><g
           clip-path="url(#clipPath18)"
           id="g16"><path
             d="m 283.691,136.785 c 4.121,0 8.094,0.383 12.188,0.453 v 69.254 c -4.094,-0.105 -8.067,-0.406 -12.188,-0.406 -4.082,0 -8.089,0.301 -12.152,0.406 v -69.254 c 4.063,-0.07 8.07,-0.453 12.152,-0.453"
             id="path22"
             style="fill:#231f20;fill-opacity:1;fill-rule:nonzero;stroke:none"
             inkscape:connector-curvature="0" /><path
             d="m 211.773,144.309 23.825,65.332 c -8.274,1.211 -16.297,2.793 -24.243,4.605 l -23.406,-64.187 c 7.817,-2.235 15.711,-4.082 23.824,-5.75"
             id="path24"
             style="fill:#231f20;fill-opacity:1;fill-rule:nonzero;stroke:none"
             inkscape:connector-curvature="0" /><path
             d="M 92.293,161.133 52.0742,111.68 c 7.0899,-4.149 14.336,-8.086 21.6914,-11.8245 l 40.0504,49.0705 c -7.367,3.816 -14.5699,7.82 -21.523,12.207"
             id="path26"
             style="fill:#231f20;fill-opacity:1;fill-rule:nonzero;stroke:none"
             inkscape:connector-curvature="0" /><path
             d="m 365.52,117.473 20.371,-55.9964 c 8.004,1.7461 16.023,3.5546 23.804,5.7109 L 389.18,123.328 c -7.793,-2.195 -15.696,-4.156 -23.66,-5.855"
             id="path28"
             style="fill:#231f20;fill-opacity:1;fill-rule:nonzero;stroke:none"
             inkscape:connector-curvature="0" /><path
             d="m 453.66,148.926 39.992,-49.0705 c 7.442,3.7385 14.59,7.6755 21.692,11.8245 l -40.254,49.453 c -6.914,-4.387 -14.094,-8.391 -21.43,-12.207"
             id="path30"
             style="fill:#231f20;fill-opacity:1;fill-rule:nonzero;stroke:none"
             inkscape:connector-curvature="0" /><path
             d="m 415.027,234.855 c -7.437,-3.593 -15.308,-6.847 -23.316,-9.875 l 43.609,-53.601 c 7.492,3.672 14.785,7.637 21.782,11.797 l -42.075,51.679"
             id="path32"
             style="fill:#231f20;fill-opacity:1;fill-rule:nonzero;stroke:none"
             inkscape:connector-curvature="0" /><path
             d="m 356.023,214.246 c -7.859,-1.812 -15.984,-3.394 -24.187,-4.605 l 23.809,-65.332 c 8.093,1.668 16.035,3.515 23.82,5.75 l -23.442,64.187"
             id="path34"
             style="fill:#231f20;fill-opacity:1;fill-rule:nonzero;stroke:none"
             inkscape:connector-curvature="0" /><path
             d="m 295.879,50.5977 v 58.2893 c -4.094,-0.078 -8.067,-0.489 -12.188,-0.489 -4.082,0 -8.089,0.411 -12.152,0.489 V 50.5977 c 4.063,-0.0782 8.07,-0.461 12.152,-0.461 4.121,0 8.094,0.3828 12.188,0.461"
             id="path36"
             style="fill:#231f20;fill-opacity:1;fill-rule:nonzero;stroke:none"
             inkscape:connector-curvature="0" /><path
             d="m 132.086,171.379 43.668,53.601 c -8.063,3.028 -15.945,6.282 -23.391,9.875 L 110.32,183.176 c 7.051,-4.16 14.297,-8.125 21.766,-11.797"
             id="path38"
             style="fill:#231f20;fill-opacity:1;fill-rule:nonzero;stroke:none"
             inkscape:connector-curvature="0" /><path
             d="M 178.199,123.328 157.68,67.1875 c 7.855,-2.1563 15.793,-3.9648 23.812,-5.7109 l 20.442,55.9964 c -8.012,1.699 -15.914,3.66 -23.735,5.855"
             id="path40"
             style="fill:#231f20;fill-opacity:1;fill-rule:nonzero;stroke:none"
             inkscape:connector-curvature="0" /><path
             d="m 547.605,547.613 c 0,-18.32 0,-509.9841 0,-528.3044 -18.308,0 -509.9761,0 -528.2886,0 0,18.3203 0,509.9844 0,528.3044 18.3125,0 509.9806,0 528.2886,0 z m 9.661,19.317 H 0 V 0 h 566.934 v 566.93 h -9.668"
             id="path42"
             style="fill:#231f20;fill-opacity:1;fill-rule:nonzero;stroke:none"
             inkscape:connector-curvature="0" /><path
             d="m 166.316,306.508 c -7.586,-8.871 -14.617,-20.285 -21.296,-32.524 28.453,0 248.875,0 277.304,0 -6.609,12.239 -13.64,23.653 -21.203,32.524 -16.18,19.027 -33.562,33.14 -51.746,41.922 -21.437,10.609 -43.508,15.988 -65.684,15.988 -22.046,0 -44.253,-5.379 -65.988,-15.988 -18.008,-8.879 -35.254,-22.969 -51.387,-41.922"
             id="path44"
             style="fill:#176fc1;fill-opacity:1;fill-rule:nonzero;stroke:none"
             inkscape:connector-curvature="0" /><path
             d="m 166.316,306.508 c 16.133,18.953 33.379,33.043 51.387,41.922 21.735,10.609 43.942,15.988 65.988,15.988 22.176,0 44.247,-5.379 65.684,-15.988 18.184,-8.782 35.566,-22.895 51.746,-41.922 7.563,-8.871 14.594,-20.285 21.203,-32.524 -28.429,0 -248.851,0 -277.304,0 6.679,12.239 13.71,23.653 21.296,32.524 m 42.457,60.054 C 188.262,356.488 168.77,340.715 150.84,319.617 139.148,305.906 128.145,288.023 118.98,268.047 l -6.578,-14.324 H 454.98 l -6.535,14.324 c -9.187,20.074 -20.222,37.953 -31.902,51.57 -17.996,21.184 -37.566,36.965 -58.25,47.035 -24.113,11.961 -49.328,18.032 -74.602,18.032 -25.136,0 -50.386,-6.071 -74.918,-18.122"
             id="path46"
             style="fill:#231f20;fill-opacity:1;fill-rule:nonzero;stroke:none"
             inkscape:connector-curvature="0" /><path
             d="M 239.984,414.879 216.09,515.195 h 21.308 l 15.196,-68.961 18.761,68.961 h 24.915 l 17.988,-70.121 15.578,70.121 H 350.73 L 326.133,414.879 h -22.422 l -20.371,74.984 -20.402,-74.984 h -22.954"
             id="path48"
             style="fill:#231f20;fill-opacity:1;fill-rule:nonzero;stroke:none"
             inkscape:connector-curvature="0" /></g></g></g></g></svg>