<?xml version="1.0" encoding="UTF-8" standalone="no"?>
<!-- Created with Inkscape (http://www.inkscape.org/) -->

<svg
   xmlns:dc="http://purl.org/dc/elements/1.1/"
   xmlns:cc="http://creativecommons.org/ns#"
   xmlns:rdf="http://www.w3.org/1999/02/22-rdf-syntax-ns#"
   xmlns:svg="http://www.w3.org/2000/svg"
   xmlns="http://www.w3.org/2000/svg"
   xmlns:sodipodi="http://sodipodi.sourceforge.net/DTD/sodipodi-0.dtd"
   xmlns:inkscape="http://www.inkscape.org/namespaces/inkscape"
   version="1.1"
   width="71"
   height="71"
   id="svg2"
   xml:space="preserve"
   inkscape:version="0.48.4 r9939"
   sodipodi:docname="Tb2.002.svg"><sodipodi:namedview
     pagecolor="#ffffff"
     bordercolor="#666666"
     borderopacity="1"
     objecttolerance="10"
     gridtolerance="10"
     guidetolerance="10"
     inkscape:pageopacity="0"
     inkscape:pageshadow="2"
     inkscape:window-width="640"
     inkscape:window-height="480"
     id="namedview18"
     showgrid="false"
     inkscape:zoom="3.3303932"
     inkscape:cx="35.431252"
     inkscape:cy="35.581384"
     inkscape:window-x="0"
     inkscape:window-y="27"
     inkscape:window-maximized="0"
     inkscape:current-layer="svg2" /><metadata
     id="metadata8"><rdf:RDF><cc:Work
         rdf:about=""><dc:format>image/svg+xml</dc:format><dc:type
           rdf:resource="http://purl.org/dc/dcmitype/StillImage" /><dc:title /></cc:Work></rdf:RDF></metadata><defs
     id="defs6"><clipPath
       id="clipPath18"><path
         d="M 0,566.93 0,0 l 566.934,0 0,566.93 -566.934,0 z"
         id="path20"
         inkscape:connector-curvature="0" /></clipPath></defs><rect
     style="color:#000000;fill:#ffffff;fill-opacity:1;fill-rule:nonzero;stroke:#000000;stroke-width:2;stroke-linecap:butt;stroke-linejoin:miter;stroke-miterlimit:4;stroke-opacity:1;stroke-dasharray:none;stroke-dashoffset:0;marker:none;visibility:visible;display:inline;overflow:visible;enable-background:accumulate"
     id="rect2995"
     width="69.988068"
     height="69.988068"
     x="0.43721792"
     y="0.42458245"
     rx="0.0039863177" /><rect
     style="color:#000000;fill:#ffffff;fill-opacity:1;fill-rule:nonzero;stroke:none;stroke-width:1;marker:none;visibility:visible;display:inline;overflow:visible;enable-background:accumulate"
     id="rect3009"
     y="13.34915"
     x="20.718275"
     rx="0.21527763"
     height="30.026484"
     width="39.63496" /><path
     d="m 19.599625,47.730997 42.30375,0 0,-38.5761251 -42.30375,0 0,38.5761251 z"
     id="path24"
     style="fill:#231f20;fill-opacity:1;fill-rule:nonzero;stroke:none"
     inkscape:connector-curvature="0" /><path
     d="m 20.3955,47.015622 40.71625,0 0,-37.1332501 -40.71625,0 0,37.1332501 z"
     id="path26"
     style="fill:#ed1c24;fill-opacity:1;fill-rule:nonzero;stroke:none"
     inkscape:connector-curvature="0" /><path
     d="m 14.82425,51.139122 c -0.171875,-0.463875 -0.5455,-0.82275 -0.99275,-1.09375 -0.09275,-0.08788 -0.17675,-0.08788 -0.272875,-0.08788 -0.192875,0 -0.28225,0 -0.375,0.08787 -0.441875,0.271 -0.72415,0.629875 -0.992225,1.09375 -0.358875,0.546875 -0.634763,1.081625 -0.729,1.709 -0.263675,0.835 -0.354,1.733375 -0.354,2.63425 0,0.915625 0.09032,1.82375 0.354,2.63925 0.09424,0.637162 0.370125,1.174275 0.729,1.718712 0.268075,0.4541 0.55035,0.825188 0.992225,1.088863 0.09275,0.09765 0.182125,0.09765 0.375,0.09765 0.09613,0 0.180125,0 0.272875,-0.09765 0.44725,-0.263675 0.820875,-0.634763 0.99275,-1.088863 0.36375,-0.544437 0.63325,-1.08155 0.813875,-1.718712 0.188,-0.8155 0.28125,-1.723625 0.28125,-2.63925 0,-0.900875 -0.09325,-1.79925 -0.28125,-2.63425 C 15.4575,52.220747 15.188,51.685997 14.82425,51.139122 m 4.775375,-29.57225 0,16.549875 -0.299375,0 c -0.44875,0 -0.918875,-0.44925 -0.918875,-0.8985 l 0,-4.496125 c 0,-0.451625 -0.354,-0.80125 -0.80075,-0.80125 l -0.45175,0 0,3.98975 c 0,0.27 -0.191875,0.5445 -0.368625,0.724125 l -1.102,0.82425 c -0.26425,0.181625 -0.353125,0.359875 -0.353125,0.618625 l -0.459875,9.69 c 0.09713,0.1025 0.28075,0.188 0.36225,0.275875 0.73825,0.4565 1.371125,1.084 1.7295,1.81875 0.544875,0.7325 0.82075,1.53575 1.090375,2.45125 0.273375,0.99125 0.354,2.09475 0.354,3.168875 0,1.184125 -0.08062,2.275375 -0.354,3.276412 -0.269625,0.905763 -0.5455,1.730963 -1.090375,2.453613 -0.358375,0.722662 -0.99125,1.362312 -1.7295,1.816412 -0.44675,0.356438 -1.0815,0.544425 -1.71525,0.544425 -0.633375,0 -1.273013,-0.187987 -1.728575,-0.544425 -0.728525,-0.4541 -1.26905,-1.09375 -1.7207,-1.816412 C 9.5815375,60.489747 9.22265,59.664547 8.94775,58.758784 8.7705125,57.757747 8.5839875,56.666497 8.5839875,55.482372 c 0,-1.074125 0.186525,-2.177625 0.3637625,-3.168875 0.2749,-0.9155 0.6337875,-1.71875 1.095225,-2.45125 0.45165,-0.73475 0.992175,-1.36225 1.7207,-1.81875 0.09278,-0.08787 0.269037,-0.173375 0.36865,-0.275875 l -0.36865,-9.69 c 0,-0.25875 -0.186525,-0.437 -0.359863,-0.618625 l -1.094725,-0.82425 C 10.042975,36.455122 9.955075,36.180622 9.955075,35.910622 l 0,-15.620625 7.1738,0 0,5.86575 0.353,0 c 0.5455,0 0.8995,-0.450625 0.8995,-0.899875 l 0,-2.78425 c 0,-0.463875 0.470125,-0.90475 0.918875,-0.90475 l 0.299375,0"
     id="path28"
     style="fill:#231f20;fill-opacity:1;fill-rule:nonzero;stroke:none"
     inkscape:connector-curvature="0" /><path
     d="m 36.200625,25.919872 c -0.335875,-1.19725 -0.978,-3.46925 -4.44775,-3.46925 -2.010625,0 -4.98625,1.342875 -4.98625,7.028875 0,3.6065 1.42825,6.855 4.98625,6.855 2.322375,0 3.944875,-1.32325 4.44775,-3.775875 l 4.19825,0 c -0.844125,4.360375 -3.69475,7.398875 -8.731375,7.398875 -5.34675,0 -9.162625,-3.59375 -9.162625,-10.534125 0,-7.03125 4.0445,-10.608875 9.21875,-10.608875 6.023875,0 8.443875,4.143 8.67525,7.105375 l -4.19825,0"
     id="path30"
     style="fill:#ffffff;fill-opacity:1;fill-rule:nonzero;stroke:none"
     inkscape:connector-curvature="0" /><path
     d="m 55.2475,19.359872 4.370125,0 -6.828625,20.063 -3.999,0 -6.771875,-20.063 4.50625,0 4.30175,15.200625 0.06162,0 4.35975,-15.200625"
     id="path32"
     style="fill:#ffffff;fill-opacity:1;fill-rule:nonzero;stroke:none"
     inkscape:connector-curvature="0" /></svg>