<?xml version="1.0" encoding="UTF-8" standalone="no"?>
<!-- Created with Inkscape (http://www.inkscape.org/) -->

<svg
   xmlns:dc="http://purl.org/dc/elements/1.1/"
   xmlns:cc="http://creativecommons.org/ns#"
   xmlns:rdf="http://www.w3.org/1999/02/22-rdf-syntax-ns#"
   xmlns:svg="http://www.w3.org/2000/svg"
   xmlns="http://www.w3.org/2000/svg"
   xmlns:sodipodi="http://sodipodi.sourceforge.net/DTD/sodipodi-0.dtd"
   xmlns:inkscape="http://www.inkscape.org/namespaces/inkscape"
   version="1.1"
   width="71"
   height="71"
   id="svg2"
   xml:space="preserve"
   inkscape:version="0.48.4 r9939"
   sodipodi:docname="Tb2.003.svg"><sodipodi:namedview
     pagecolor="#ffffff"
     bordercolor="#666666"
     borderopacity="1"
     objecttolerance="10"
     gridtolerance="10"
     guidetolerance="10"
     inkscape:pageopacity="0"
     inkscape:pageshadow="2"
     inkscape:window-width="1920"
     inkscape:window-height="1027"
     id="namedview16"
     showgrid="false"
     inkscape:zoom="3.3303932"
     inkscape:cx="-16.964963"
     inkscape:cy="35.581384"
     inkscape:window-x="0"
     inkscape:window-y="27"
     inkscape:window-maximized="1"
     inkscape:current-layer="svg2" /><metadata
     id="metadata8"><rdf:RDF><cc:Work
         rdf:about=""><dc:format>image/svg+xml</dc:format><dc:type
           rdf:resource="http://purl.org/dc/dcmitype/StillImage" /><dc:title /></cc:Work></rdf:RDF></metadata><defs
     id="defs6"><clipPath
       id="clipPath18"><path
         d="M 0,566.93 0,0 l 566.934,0 0,566.93 -566.934,0 z"
         id="path20"
         inkscape:connector-curvature="0" /></clipPath></defs><rect
     style="color:#000000;fill:#ffffff;fill-opacity:1;fill-rule:nonzero;stroke:#000000;stroke-width:2;stroke-linecap:butt;stroke-linejoin:miter;stroke-miterlimit:4;stroke-opacity:1;stroke-dasharray:none;stroke-dashoffset:0;marker:none;visibility:visible;display:inline;overflow:visible;enable-background:accumulate"
     id="rect2993"
     width="69.96891"
     height="69.96891"
     x="0.51554483"
     y="0.51554292"
     rx="0.0040469677" /><g
     id="g16"
     clip-path="url(#clipPath18)"
     transform="matrix(0.125,0,0,-0.125,0,70.999997)"
     style="stroke:none;stroke-opacity:1"><path
       inkscape:connector-curvature="0"
       style="fill:#231f20;fill-opacity:1;fill-rule:nonzero;stroke:none;stroke-opacity:1"
       id="path22"
       d="m 153.242,179.707 350.344,0 0,319.508 -350.344,0 0,-319.508 z" /><path
       inkscape:connector-curvature="0"
       style="fill:#fcd205;fill-opacity:1;fill-rule:nonzero;stroke:none;stroke-opacity:1"
       id="path24"
       d="m 159.797,185.723 337.246,0 0,307.492 -337.246,0 0,-307.492 z" /><path
       inkscape:connector-curvature="0"
       style="fill:#231f20;fill-opacity:1;fill-rule:nonzero;stroke:none;stroke-opacity:1"
       id="path26"
       d="m 113.691,151.492 c -1.464,3.789 -4.55,6.762 -8.222,8.988 -0.774,0.86 -1.492,0.86 -2.278,0.86 -1.543,0 -2.273,0 -3.086,-0.86 -3.6597,-2.226 -5.9839,-5.199 -8.2183,-8.988 -2.9726,-4.5 -5.2461,-9.031 -6.0273,-14.226 -2.2383,-6.914 -2.9688,-14.336 -2.9688,-21.836 0,-7.547 0.7305,-14.969 2.9688,-21.8089 0.7812,-5.1914 3.0547,-9.7227 6.0273,-14.1484 2.2344,-3.8672 4.5586,-6.875 8.2183,-9.1797 0.813,-0.7813 1.543,-0.7813 3.086,-0.7813 0.786,0 1.504,0 2.278,0.7813 3.672,2.3047 6.758,5.3125 8.222,9.1797 3.055,4.4257 5.254,8.957 6.758,14.1484 1.59,6.8399 2.285,14.2619 2.285,21.8089 0,7.5 -0.695,14.922 -2.285,21.836 -1.504,5.195 -3.703,9.726 -6.758,14.226 m 39.551,245 0,-137.156 -2.472,0 c -3.7,0 -7.579,3.723 -7.579,7.48 l 0,37.172 c 0,3.762 -3.015,6.809 -6.714,6.809 l -3.696,0 0,-33.137 c 0,-2.308 -1.629,-4.594 -3.101,-6.047 l -9.067,-6.75 c -2.168,-1.535 -2.968,-3.015 -2.968,-5.215 l -3.79,-80.253 c 0.774,-0.829 2.278,-1.571 3.047,-2.278 6.028,-3.824 11.321,-8.941 14.25,-15.074 4.563,-6.055 6.836,-12.734 9.024,-20.207 2.375,-8.32 3.015,-17.344 3.015,-26.406 0,-9.657 -0.64,-18.7972 -3.015,-27.0003 -2.188,-7.5508 -4.461,-14.3477 -9.024,-20.4024 -2.929,-5.8984 -8.222,-11.25 -14.25,-15.039 -3.765,-2.9688 -8.992,-4.461 -14.238,-4.461 -5.2538,0 -10.5038,1.4922 -14.3632,4.461 -5.9766,3.789 -10.5078,9.1406 -14.2383,15.039 -3.7813,6.0547 -6.7969,12.8516 -9.0313,20.4024 -1.496,8.2031 -3.0507,17.3433 -3.0507,27.0003 0,9.062 1.5547,18.086 3.0507,26.406 2.2344,7.473 5.25,14.152 9.0313,20.207 3.7305,6.133 8.2617,11.25 14.2383,15.074 0.8203,0.707 2.2773,1.449 3.0547,2.278 l -3.0547,80.253 c 0,2.2 -1.4961,3.68 -2.9297,5.215 l -9.0742,6.75 c -2.2344,1.453 -2.9297,3.739 -2.9297,6.047 l 0,129.406 59.4138,0 0,-48.668 2.934,0 c 4.461,0 7.476,3.829 7.476,7.504 l 0,23.036 c 0,3.789 3.879,7.554 7.579,7.554 l 2.472,0" /><path
       inkscape:connector-curvature="0"
       style="fill:#231f20;fill-opacity:1;fill-rule:evenodd;stroke:none;stroke-opacity:1"
       id="path28"
       d="m 339.52,350.676 -35.055,-111.856 -13.117,7.586 8.879,-39.433 31.636,24.504 -14.707,2.695 59.77,149.558 -86.106,-41.128 51.145,122.46 -27.793,10.403 -47.055,-159.328 72.403,34.539" /></g></svg>