<?xml version="1.0" encoding="UTF-8" standalone="no"?>
<!-- Created with Inkscape (http://www.inkscape.org/) -->

<svg
   xmlns:dc="http://purl.org/dc/elements/1.1/"
   xmlns:cc="http://creativecommons.org/ns#"
   xmlns:rdf="http://www.w3.org/1999/02/22-rdf-syntax-ns#"
   xmlns:svg="http://www.w3.org/2000/svg"
   xmlns="http://www.w3.org/2000/svg"
   xmlns:sodipodi="http://sodipodi.sourceforge.net/DTD/sodipodi-0.dtd"
   xmlns:inkscape="http://www.inkscape.org/namespaces/inkscape"
   version="1.1"
   width="125"
   height="125"
   id="svg2"
   xml:space="preserve"
   inkscape:version="0.92.5 (2060ec1f9f, 2020-04-08)"
   sodipodi:docname="9.svg"><sodipodi:namedview
     pagecolor="#ffffff"
     bordercolor="#666666"
     borderopacity="1"
     objecttolerance="10"
     gridtolerance="10"
     guidetolerance="10"
     inkscape:pageopacity="0"
     inkscape:pageshadow="2"
     inkscape:window-width="1920"
     inkscape:window-height="1017"
     id="namedview18"
     showgrid="false"
     inkscape:zoom="9.4197745"
     inkscape:cx="-0.38098067"
     inkscape:cy="35.484331"
     inkscape:window-x="-8"
     inkscape:window-y="-8"
     inkscape:window-maximized="1"
     inkscape:current-layer="svg2"
     borderlayer="false" /><metadata
     id="metadata8"><rdf:RDF><cc:Work
         rdf:about=""><dc:format>image/svg+xml</dc:format><dc:type
           rdf:resource="http://purl.org/dc/dcmitype/StillImage" /><dc:title></dc:title></cc:Work></rdf:RDF></metadata><defs
     id="defs6"><clipPath
       id="clipPath18"><path
         d="M 0,566.93 V 0 h 566.934 v 566.93 z"
         id="path20"
         inkscape:connector-curvature="0" /></clipPath></defs><g
     id="g16881"
     transform="translate(30.494035,23.505967)"><rect
       rx="0.0035993555"
       y="7.3969603"
       x="0.40889215"
       height="63.194145"
       width="63.194145"
       id="rect2995"
       style="color:#000000;display:inline;overflow:visible;visibility:visible;fill:#ffffff;fill-opacity:1;fill-rule:nonzero;stroke:#000000;stroke-width:1.8058548;stroke-linecap:butt;stroke-linejoin:miter;stroke-miterlimit:4;stroke-dasharray:none;stroke-dashoffset:0;stroke-opacity:1;marker:none;enable-background:accumulate" /><path
       inkscape:connector-curvature="0"
       style="fill:#231f20;fill-opacity:1;fill-rule:evenodd;stroke:none;stroke-width:0.9029274"
       id="path22"
       d="m 30.112415,25.079358 h 5.912594 v 7.643618 H 34.056514 L 33.759789,30.93202 c -0.754734,0.868164 -1.831023,2.154159 -4.411928,2.154159 -3.426046,0 -6.5118,-2.453931 -6.5118,-7.413372 0,-3.847599 2.144904,-7.498135 6.920036,-7.476916 4.354255,0 6.065302,2.815891 6.231441,4.765425 h -2.968036 c 0,-0.551576 -1.004733,-2.316799 -3.104603,-2.316799 -2.112737,0 -4.070284,1.443442 -4.070284,5.065309 0,3.86295 2.114881,4.863845 4.124459,4.863845 0.652028,0 2.823455,-0.249096 3.43406,-3.113181 h -3.290719 v -2.381132" /><path
       inkscape:connector-curvature="0"
       style="fill:#231f20;fill-opacity:1;fill-rule:nonzero;stroke:none;stroke-width:0.9029274"
       id="path26"
       d="M 53.960985,28.280574 32.104272,40.900451 10.253699,28.280574 V 54.49154 L 32.104272,41.871211 53.960985,54.49154 V 28.280574" /><path
       inkscape:connector-curvature="0"
       style="fill:#fcd205;fill-opacity:1;fill-rule:nonzero;stroke:none;stroke-width:0.9029274"
       id="path28"
       d="M 31.263985,41.380921 11.105488,53.029135 V 29.731578 l 20.158497,11.649343" /><path
       inkscape:connector-curvature="0"
       style="fill:#fcd205;fill-opacity:1;fill-rule:nonzero;stroke:none;stroke-width:0.9029274"
       id="path30"
       d="M 32.99975,41.380921 53.170133,53.029135 V 29.731578 L 32.99975,41.380921" /><path
       inkscape:connector-curvature="0"
       style="fill:#231f20;fill-opacity:1;fill-rule:nonzero;stroke:none;stroke-width:0.9029274"
       id="path32"
       d="m 3.8503303,43.063865 h 6.4267437 v -2.86 H 3.8503303 Z" /><path
       inkscape:connector-curvature="0"
       style="fill:#231f20;fill-opacity:1;fill-rule:nonzero;stroke:none;stroke-width:0.9029274"
       id="path34"
       d="m 53.941685,43.063865 h 6.41925 v -2.86 h -6.41925 z" /></g></svg>