<?xml version="1.0" encoding="UTF-8" standalone="no"?>
<!-- Created with Inkscape (http://www.inkscape.org/) -->

<svg
   xmlns:dc="http://purl.org/dc/elements/1.1/"
   xmlns:cc="http://creativecommons.org/ns#"
   xmlns:rdf="http://www.w3.org/1999/02/22-rdf-syntax-ns#"
   xmlns:svg="http://www.w3.org/2000/svg"
   xmlns="http://www.w3.org/2000/svg"
   xmlns:sodipodi="http://sodipodi.sourceforge.net/DTD/sodipodi-0.dtd"
   xmlns:inkscape="http://www.inkscape.org/namespaces/inkscape"
   version="1.1"
   width="71"
   height="71"
   id="svg2"
   xml:space="preserve"
   inkscape:version="0.48.4 r9939"
   sodipodi:docname="Tb2.021.svg"><sodipodi:namedview
     pagecolor="#ffffff"
     bordercolor="#666666"
     borderopacity="1"
     objecttolerance="10"
     gridtolerance="10"
     guidetolerance="10"
     inkscape:pageopacity="0"
     inkscape:pageshadow="2"
     inkscape:window-width="1920"
     inkscape:window-height="1027"
     id="namedview18"
     showgrid="false"
     inkscape:zoom="9.4197745"
     inkscape:cx="17.506921"
     inkscape:cy="35.484331"
     inkscape:window-x="0"
     inkscape:window-y="27"
     inkscape:window-maximized="1"
     inkscape:current-layer="svg2"
     borderlayer="false" /><metadata
     id="metadata8"><rdf:RDF><cc:Work
         rdf:about=""><dc:format>image/svg+xml</dc:format><dc:type
           rdf:resource="http://purl.org/dc/dcmitype/StillImage" /><dc:title></dc:title></cc:Work></rdf:RDF></metadata><defs
     id="defs6"><clipPath
       id="clipPath18"><path
         d="M 0,566.93 0,0 l 566.934,0 0,566.93 -566.934,0 z"
         id="path20"
         inkscape:connector-curvature="0" /></clipPath></defs><rect
     style="color:#000000;fill:#ffffff;fill-opacity:1;fill-rule:nonzero;stroke:#000000;stroke-width:2;stroke-linecap:butt;stroke-linejoin:miter;stroke-miterlimit:4;stroke-opacity:1;stroke-dasharray:none;stroke-dashoffset:0;marker:none;visibility:visible;display:inline;overflow:visible;enable-background:accumulate"
     id="rect2995"
     width="69.988068"
     height="69.988068"
     x="0.50596476"
     y="0.50596166"
     rx="0.0039863177" /><path
     d="m 33.402875,20.089372 6.54825,0 0,8.465375 -2.180125,0 -0.328625,-1.9835 c -0.835875,0.9615 -2.027875,2.38575 -4.88625,2.38575 -3.794375,0 -7.211875,-2.71775 -7.211875,-8.210375 0,-4.26125 2.3755,-8.30425 7.664,-8.28075 4.822375,0 6.717375,3.118625 6.901375,5.27775 l -3.287125,0 c 0,-0.610875 -1.11275,-2.565875 -3.438375,-2.565875 -2.339875,0 -4.507875,1.598625 -4.507875,5.609875 0,4.27825 2.34225,5.38675 4.567875,5.38675 0.722125,0 3.127,-0.275875 3.80325,-3.447875 l -3.6445,0 0,-2.637125"
     id="path22"
     style="fill:#231f20;fill-opacity:1;fill-rule:evenodd;stroke:none"
     inkscape:connector-curvature="0" /><path
     d="m 59.815375,23.634747 -24.2065,13.976625 -24.1997,-13.976625 0,29.028875 24.1997,-13.977125 24.2065,13.977125 0,-29.028875"
     id="path26"
     style="fill:#231f20;fill-opacity:1;fill-rule:nonzero;stroke:none"
     inkscape:connector-curvature="0" /><path
     d="m 34.67825,38.143497 -22.325712,12.9005 0,-25.80225 22.325712,12.90175"
     id="path28"
     style="fill:#fcd205;fill-opacity:1;fill-rule:nonzero;stroke:none"
     inkscape:connector-curvature="0" /><path
     d="m 36.600625,38.143497 22.338875,12.9005 0,-25.80225 -22.338875,12.90175"
     id="path30"
     style="fill:#fcd205;fill-opacity:1;fill-rule:nonzero;stroke:none"
     inkscape:connector-curvature="0" /><path
     d="m 4.3173875,40.007372 7.1176755,0 0,-3.167475 -7.1176755,0 0,3.167475 z"
     id="path32"
     style="fill:#231f20;fill-opacity:1;fill-rule:nonzero;stroke:none"
     inkscape:connector-curvature="0" /><path
     d="m 59.794,40.007372 7.109375,0 0,-3.167475 -7.109375,0 0,3.167475 z"
     id="path34"
     style="fill:#231f20;fill-opacity:1;fill-rule:nonzero;stroke:none"
     inkscape:connector-curvature="0" /></svg>