<?xml version="1.0" encoding="UTF-8" standalone="no"?>
<!-- Created with Inkscape (http://www.inkscape.org/) -->

<svg
   xmlns:dc="http://purl.org/dc/elements/1.1/"
   xmlns:cc="http://creativecommons.org/ns#"
   xmlns:rdf="http://www.w3.org/1999/02/22-rdf-syntax-ns#"
   xmlns:svg="http://www.w3.org/2000/svg"
   xmlns="http://www.w3.org/2000/svg"
   version="1.1"
   width="70.862503"
   height="62.037498"
   id="svg2"
   xml:space="preserve"><metadata
     id="metadata8"><rdf:RDF><cc:Work
         rdf:about=""><dc:format>image/svg+xml</dc:format><dc:type
           rdf:resource="http://purl.org/dc/dcmitype/StillImage" /><dc:title></dc:title></cc:Work></rdf:RDF></metadata><defs
     id="defs6"><clipPath
       id="clipPath18"><path
         d="m 0,0 566.93,0 0,496 L 0,496 0,0 z"
         id="path20" /></clipPath></defs><g
     transform="matrix(1.25,0,0,-1.25,0,62.0375)"
     id="g10"><g
       transform="scale(0.1,0.1)"
       id="g12"><g
         id="g14"><g
           clip-path="url(#clipPath18)"
           id="g16"><path
             d="M 30.5859,0 536.344,0 c 16.883,0 30.586,13.6211 30.586,30.3984 0,5.3555 -1.407,10.586 -4.094,15.2071 L 309.957,481.031 c -8.437,14.594 -27.16,19.52 -41.781,11.129 -4.653,-2.613 -8.504,-6.504 -11.196,-11.129 L 4.10156,45.6055 C -4.33984,31.0742 0.679688,12.4609 15.2969,4.07031 19.9453,1.39453 25.207,0 30.5859,0 l 0,0"
             id="path22"
             style="fill:#fcd213;fill-opacity:1;fill-rule:evenodd;stroke:none" /><path
             d="m 30.5859,15.0117 505.7581,0 c 8.445,0 15.293,6.8047 15.293,15.2031 0,2.6758 -0.735,5.2813 -2.071,7.5977 L 296.684,473.238 c -4.227,7.293 -13.582,9.789 -20.86,5.594 -2.328,-1.336 -4.285,-3.285 -5.629,-5.594 L 17.3164,37.8125 c -4.2266,-7.2383 -1.7148,-16.543 5.625,-20.7422 2.3281,-1.3281 4.9531,-2.0586 7.6445,-2.0586 l 0,0"
             id="path24"
             style="fill:#231f20;fill-opacity:1;fill-rule:evenodd;stroke:none" /><path
             d="m 67.6055,51.6719 431.5585,0 L 283.418,423.238 67.6055,51.6719 l 0,0"
             id="path26"
             style="fill:#fcd213;fill-opacity:1;fill-rule:evenodd;stroke:none" /><path
             d="M 276.113,105.664 C 278.32,93.6328 287.895,84.6016 299.43,82.5898 l 40.496,-2.7656 c 5.644,-0.5 11.047,-1.75 16.203,-3.7617 5.398,-2.2539 10.555,-4.2539 15.457,-6.5117 3.195,-1.2578 7.121,-2.0117 11.289,-2.0117 0.246,0 0.246,0 0.5,0 l 24.051,1.5039 c 2.453,0.2539 4.902,0.7539 7.355,1.7578 3.934,2.2578 6.141,6.5234 6.141,11.0351 0,4.7657 -2.461,9.0313 -6.629,11.2891 -3.184,1.25 -5.891,3.2617 -8.098,5.7695 -0.984,1.2505 -1.472,2.7655 -1.472,4.5115 l 0,5.032 c 0,8.515 -6.621,15.546 -15.215,15.546 -0.246,0 -0.488,0 -0.977,0 l -24.797,0 c -3.437,0 -6.386,2.754 -6.386,6.524 0,0 0,0.254 0,0.5 l 0,72 c 0,2.512 -1.961,4.512 -4.414,4.512 l -25.028,0 c -0.988,0 -1.972,0.253 -2.707,0.75 l -4.168,3.261 c -0.742,0.508 -1.476,0.754 -2.453,0.754 l -10.066,0 0,0 c -2.453,0 -4.414,-2.004 -4.414,-4.512 l 0,-8.535 -57.438,0 0,8.535 c 0,2.508 -1.965,4.512 -4.418,4.512 l -9.816,0 0,0 c -2.453,0 -4.418,-2.004 -4.418,-4.512 l 0,-8.535 -22.332,0 0,0 c -2.457,0 -4.422,-2.004 -4.422,-4.511 l 0,-84.539 c 0,-2.512 1.965,-4.524 4.422,-4.524 l 70.437,0"
             id="path28"
             style="fill:#231f20;fill-opacity:1;fill-rule:nonzero;stroke:none" /><path
             d="m 238.809,250.668 c -0.989,6.523 1.714,12.801 6.871,16.559 10.8,7.277 21.351,14.804 31.414,22.832 0,0 0.246,0.753 0.246,1.253 0,0.754 -0.488,1.504 -0.985,1.754 -6.128,2.508 -10.304,8.282 -11.289,14.805 0,1 0.496,1.754 1.477,1.754 l 5.152,0 c 0.981,0 1.719,-0.5 1.961,-1.504 0,-4.516 3.196,-8.281 7.614,-9.035 0.246,0 0.246,0 0.488,0 0.984,0 1.965,0.504 2.457,1.258 2.211,4.011 3.187,8.781 3.187,13.293 0,7.027 -2.453,13.804 -6.871,18.82 -0.98,1 -0.734,2.504 0.246,3.258 l 4.911,3.515 c 0.984,0.75 2.453,0 2.453,-1.257 l 0,0 c 0,-0.254 0,-0.5 0,-0.5 0,-1.504 0.242,-2.762 0.98,-3.766 4.418,-6.519 6.625,-14.051 6.625,-21.574 0,-5.262 -0.976,-10.285 -2.937,-15.047 -0.254,-0.25 -0.254,-0.504 -0.254,-1.008 0,-0.75 0.742,-1.758 1.472,-2.008 4.172,-1.254 8.106,-2.758 11.789,-4.769 5.399,-2.754 8.829,-8.024 9.325,-14.043 0,-1.004 0,-1.758 0,-2.508 0,-5.773 -1.719,-11.543 -4.668,-16.559 -3.192,-3.515 -7.364,-6.019 -11.778,-7.523 -4.91,-1.008 -10.066,-1.512 -15.218,-1.758 3.437,0.246 -6.137,-0.254 -15.707,-0.758 -13.747,-0.746 -14.727,-1.75 -14.727,-3.007 0,-0.25 0,-0.504 0,-0.75 1.961,-3.262 2.941,-7.036 2.941,-11.04 0,-0.75 0,-1.257 0,-2.007 -0.242,-1.25 -0.98,-2.004 -1.961,-2.258 -8.589,-1.262 -17.425,-1.262 -26.015,0.254 -8.344,1.504 -10.551,12.289 -3.926,17.308 4.414,3.258 9.324,5.52 14.727,6.016"
             id="path30"
             style="fill:#231f20;fill-opacity:1;fill-rule:nonzero;stroke:none" /><path
             d="m 213.77,190.215 123.46,0 c 2.208,0 4.172,-2.012 4.172,-4.27 l 0,-68.484 c 0,-2.512 -1.964,-4.512 -4.172,-4.512 l -123.46,0 c -2.454,0 -4.415,2 -4.415,4.512 l 0,68.484 c 0,2.258 1.961,4.27 4.415,4.27 l 0,0"
             id="path32"
             style="fill:#fcd213;fill-opacity:1;fill-rule:evenodd;stroke:none" /><path
             d="m 240.77,159.355 0,8.528 8.347,0 0,8.277 -8.347,0 0,8.535 -8.098,0 0,-8.535 -8.348,0 0,-8.277 8.348,0 0,-8.528 8.098,0"
             id="path34"
             style="fill:#231f20;fill-opacity:1;fill-rule:nonzero;stroke:none" /><path
             d="m 304.098,167.883 22.5781,0 0,8.27734 -22.5781,0 0,-8.27734 z"
             id="path36"
             style="fill:#231f20;fill-opacity:1;fill-rule:nonzero;stroke:none" /><path
             d="m 247.887,251.676 c 14.972,0.25 29.703,1.254 44.422,3.012 4.668,0.757 9.082,3.007 12.519,6.773 1.965,2.758 2.949,5.766 2.949,9.027 0,3.516 -1.23,6.778 -3.437,9.535 -4.668,3.762 -10.067,6.278 -15.957,7.774 -0.488,0 -0.981,0 -1.469,0 -1.469,0 -2.699,-0.246 -3.926,-1.25 l -31.91,-23.832 c -2.457,-1.758 -3.68,-4.516 -3.68,-7.524 0,-1.261 0.243,-2.515 0.489,-3.515"
             id="path38"
             style="fill:#fcd213;fill-opacity:1;fill-rule:evenodd;stroke:none" /><path
             d="m 240.523,243.902 c 1.473,0 2.7,-0.504 3.688,-1.507 2.203,-2.262 3.676,-5.016 4.41,-8.032 0,0 0,0 0,-0.242 0,-0.762 -0.484,-1.262 -1.223,-1.262 -3.683,-0.254 -7.363,-0.254 -11.046,0 -2.211,0.246 -4.168,0.754 -6.137,1.262 -2.207,0.742 -2.945,3.754 -1.227,5.512 3.196,2.762 7.364,4.269 11.535,4.269"
             id="path40"
             style="fill:#fcd213;fill-opacity:1;fill-rule:evenodd;stroke:none" /></g></g></g></g></svg>