<?xml version="1.0" encoding="UTF-8" standalone="no"?>
<!-- Created with Inkscape (http://www.inkscape.org/) -->

<svg
   xmlns:dc="http://purl.org/dc/elements/1.1/"
   xmlns:cc="http://creativecommons.org/ns#"
   xmlns:rdf="http://www.w3.org/1999/02/22-rdf-syntax-ns#"
   xmlns:svg="http://www.w3.org/2000/svg"
   xmlns="http://www.w3.org/2000/svg"
   version="1.1"
   width="70.862503"
   height="70.862503"
   id="svg2"
   xml:space="preserve"><metadata
     id="metadata8"><rdf:RDF><cc:Work
         rdf:about=""><dc:format>image/svg+xml</dc:format><dc:type
           rdf:resource="http://purl.org/dc/dcmitype/StillImage" /><dc:title></dc:title></cc:Work></rdf:RDF></metadata><defs
     id="defs6"><clipPath
       id="clipPath18"><path
         d="M 0,566.938 0,0 l 566.934,0 0,566.938 -566.934,0 z"
         id="path20" /></clipPath></defs><g
     transform="matrix(1.25,0,0,-1.25,0,70.8625)"
     id="g10"><rect
       width="60.953762"
       height="61.554295"
       rx="0.088177726"
       x="5.1045022"
       y="3.3029132"
       transform="matrix(0.8,0,0,-0.8,0,56.69)"
       id="rect3011"
       style="color:#000000;fill:#ffffff;fill-opacity:1;fill-rule:nonzero;stroke:none;stroke-width:1;marker:none;visibility:visible;display:inline;overflow:visible;enable-background:accumulate" /><g
       transform="scale(0.1,0.1)"
       id="g12"><g
         id="g14"><g
           clip-path="url(#clipPath18)"
           id="g16"><path
             d="m 0,0 566.934,0 0,566.938 L 0,566.938 0,0 z"
             id="path22"
             style="fill:#ed1c24;fill-opacity:1;fill-rule:nonzero;stroke:none" /><path
             d="m 151.914,156.992 -12.148,0 -14.036,13.016 0,335.047 13.196,13.054 12.988,0 0,-361.117"
             id="path24"
             style="fill:#ffffff;fill-opacity:1;fill-rule:nonzero;stroke:none" /><path
             d="m 452.434,342.336 c 0,3.707 0,26.519 0,32.125 16.394,-3.289 28.765,-15.75 31.863,-32.125 -5.508,0 -28.113,0 -31.863,0 z m 0,-47.043 c 0,5.477 0,27.078 0,30.82 3.726,0 25.964,0 31.636,0 -3.601,-15.722 -15.777,-27.695 -31.636,-30.82 z m -16.196,47.043 c -3.75,0 -25.652,0 -31.133,0 3.079,16.062 15.129,28.406 31.133,31.969 0,-5.719 0,-28.262 0,-31.969 z m 0,-46.875 c -15.468,3.394 -27.332,15.23 -30.906,30.652 5.645,0 27.195,0 30.906,0 0,-3.742 0,-25.051 0,-30.652 z m 8.45,96.812 c -28.575,0 -52.754,-21.812 -56.485,-49.937 -1.484,0 -9.101,0 -16.113,0 l 0,162.719 -13.235,13.054 -12.957,0 0,-361.117 12.161,0 14.031,13.016 0,156.105 18,0 c 0.984,-26.816 25.484,-48.644 54.598,-48.644 31.679,0 57.402,25.773 57.402,57.394 0,31.641 -25.723,57.41 -57.402,57.41"
             id="path26"
             style="fill:#ffffff;fill-opacity:1;fill-rule:nonzero;stroke:none" /><path
             d="m 192.988,504.02 c -7.492,0 -13.496,-6.036 -13.496,-13.485 l 0,-380.535 26.953,0 0,380.535 -0.019,0 c 0,7.449 -5.996,13.485 -13.438,13.485"
             id="path28"
             style="fill:#ffffff;fill-opacity:1;fill-rule:nonzero;stroke:none" /><path
             d="m 249.043,504.02 c -7.441,0 -13.457,-6.036 -13.457,-13.485 l -0.039,0 0,-303.086 0.039,0 c 0.09,-7.344 6.074,-13.34 13.457,-13.34 7.383,0 13.34,5.996 13.437,13.34 l 0,303.086 c 0,7.449 -6.003,13.485 -13.437,13.485"
             id="path30"
             style="fill:#ffffff;fill-opacity:1;fill-rule:nonzero;stroke:none" /><path
             d="m 307.52,504.02 c -7.532,0 -13.489,-6.036 -13.489,-13.485 l -0.039,0 0,-303.086 0.039,0 c 0.071,-7.344 6.086,-13.34 13.489,-13.34 7.316,0 13.32,5.996 13.378,13.34 l 0.086,0 0,303.086 -0.086,0 c 0,7.449 -6.003,13.485 -13.378,13.485"
             id="path32"
             style="fill:#ffffff;fill-opacity:1;fill-rule:nonzero;stroke:none" /><path
             d="m 206.582,78.7188 -4.949,-28.9532 -17.297,0 -4.91,29.1875 0,11.4766 27.156,0 0,-11.7109"
             id="path34"
             style="fill:#ffffff;fill-opacity:1;fill-rule:nonzero;stroke:none" /></g></g></g></g></svg>