<?xml version="1.0" encoding="UTF-8" standalone="no"?>
<!-- Generator: Adobe Illustrator 24.1.0, SVG Export Plug-In . SVG Version: 6.00 Build 0)  -->

<svg
   xmlns:dc="http://purl.org/dc/elements/1.1/"
   xmlns:cc="http://creativecommons.org/ns#"
   xmlns:rdf="http://www.w3.org/1999/02/22-rdf-syntax-ns#"
   xmlns:svg="http://www.w3.org/2000/svg"
   xmlns="http://www.w3.org/2000/svg"
   xmlns:xlink="http://www.w3.org/1999/xlink"
   xmlns:sodipodi="http://sodipodi.sourceforge.net/DTD/sodipodi-0.dtd"
   xmlns:inkscape="http://www.inkscape.org/namespaces/inkscape"
   version="1.1"
   id="svg2"
   x="0px"
   y="0px"
   viewBox="0 0 125 125"
   xml:space="preserve"
   sodipodi:docname="1007.svg"
   width="125"
   height="125"
   inkscape:version="0.92.5 (2060ec1f9f, 2020-04-08)"><metadata
   id="metadata891"><rdf:RDF><cc:Work
       rdf:about=""><dc:format>image/svg+xml</dc:format><dc:type
         rdf:resource="http://purl.org/dc/dcmitype/StillImage" /><dc:title></dc:title></cc:Work></rdf:RDF></metadata><defs
   id="defs889" /><sodipodi:namedview
   pagecolor="#ffffff"
   bordercolor="#666666"
   borderopacity="1"
   objecttolerance="10"
   gridtolerance="10"
   guidetolerance="10"
   inkscape:pageopacity="0"
   inkscape:pageshadow="2"
   inkscape:window-width="1920"
   inkscape:window-height="1017"
   id="namedview887"
   showgrid="false"
   inkscape:zoom="11.960507"
   inkscape:cx="35.450001"
   inkscape:cy="35.450001"
   inkscape:window-x="-8"
   inkscape:window-y="-8"
   inkscape:window-maximized="1"
   inkscape:current-layer="svg2" />
<style
   type="text/css"
   id="style854">
	.st0{fill:#FCD205;}
	.st1{clip-path:url(#SVGID_2_);}
	.st2{fill:#231F20;}
	.st3{enable-background:new    ;}
	.st4{fill:#ED1C24;enable-background:new    ;}
	.st5{fill:#1D1D1B;}
	.st6{fill:#FCD205;stroke:#1D1D1B;stroke-width:2;stroke-linecap:round;stroke-linejoin:round;stroke-miterlimit:10;}
</style>



<g
   id="g912"
   transform="translate(29.5,-29.963141)"><g
     transform="matrix(1.159966,0,0,-1.159966,0.03601359,124.93639)"
     id="g10">
	<path
   style="fill:#fcd205"
   inkscape:connector-curvature="0"
   d="m 0.8,55.7 h 54.9 c 0,0 0.1,0 0.1,-0.1 V 0.5 c 0,0 0,-0.1 -0.1,-0.1 H 0.8 c 0,0 -0.1,0 -0.1,0.1 l 0.1,55.2 c -0.1,0 -0.1,0 0,0 z"
   class="st0"
   id="rect3031" />
	<g
   transform="scale(0.1)"
   id="g12">
		<g
   id="g14">
			<g
   id="g865">
				<defs
   id="defs858">
					<rect
   height="70.900002"
   width="70.900002"
   y="248"
   x="248"
   id="SVGID_1_" />
				</defs>
				<clipPath
   id="SVGID_2_">
					<use
   height="100%"
   width="100%"
   y="0"
   x="0"
   id="use860"
   style="overflow:visible"
   xlink:href="#SVGID_1_" />
				</clipPath>
				<g
   clip-path="url(#SVGID_2_)"
   class="st1"
   id="g16">
					<path
   style="fill:#231f20"
   inkscape:connector-curvature="0"
   d="m 547.6,547.6 c 0,-18.3 0,-510 0,-528.3 -18.3,0 -510,0 -528.3,0 0,18.3 0,510 0,528.3 18.3,0 510,0 528.3,0 z m 9.7,19.3 H 0 V 0 h 566.9 v 566.9 h -9.6"
   class="st2"
   id="path42" />
				</g>
			</g>
		</g>
	</g>
</g><g
     style="enable-background:new"
     transform="matrix(0.92797283,0,0,0.92797283,0.03601359,59.177914)"
     id="g874"
     class="st3">
	<polygon
   style="fill:#ed1c24;enable-background:new"
   id="polygon870"
   points="10.1,15.8 1.5,24.3 1.5,69.5 69.7,69.5 69.7,24.1 61.2,15.8 52.6,24.3 44.2,15.8 35.6,24.3 27.1,15.8 18.5,24.3 "
   class="st4" />
	<path
   style="fill:#1d1d1b"
   inkscape:connector-curvature="0"
   id="path872"
   d="M 69.7,70.5 H 1.5 c -0.6,0 -1,-0.4 -1,-1 V 24.3 c 0,-0.3 0.1,-0.5 0.3,-0.7 l 8.6,-8.5 c 0.4,-0.4 1,-0.4 1.4,0 l 7.7,7.8 7.9,-7.8 c 0.4,-0.4 1,-0.4 1.4,0 l 7.7,7.8 7.9,-7.8 c 0.4,-0.4 1,-0.4 1.4,0 l 7.7,7.8 7.9,-7.8 c 0.4,-0.4 1,-0.4 1.4,0 l 8.4,8.3 c 0.2,0.2 0.3,0.4 0.3,0.7 v 45.5 c 0.2,0.5 -0.3,0.9 -0.8,0.9 z m -67.2,-2 h 66.2 v -44 l -7.4,-7.3 -8,7.8 c -0.4,0.4 -1,0.4 -1.4,0 L 44.2,17.2 36.3,25 c -0.4,0.4 -1,0.4 -1.4,0 l -7.7,-7.8 -8,7.8 c -0.4,0.4 -1,0.4 -1.4,0 l -7.7,-7.8 -7.6,7.5 z"
   class="st5" />
</g><rect
     style="fill:#fcd205;stroke:#1d1d1b;stroke-width:1.85594571;stroke-linecap:round;stroke-linejoin:round;stroke-miterlimit:10"
     id="rect876"
     height="17.724281"
     width="29.973522"
     class="st6"
     y="87.481087"
     x="17.760296" /><g
     transform="matrix(0.92797283,0,0,0.92797283,0.03601359,59.177914)"
     id="g884">
	<path
   inkscape:connector-curvature="0"
   id="path878"
   d="m 24.7,42.1 c 0.1,0.2 0.2,0.3 0.4,0.4 0.2,0.1 0.3,0.2 0.6,0.3 0.2,0.1 0.4,0.1 0.7,0.1 0.2,0 0.3,0 0.5,0 0.2,0 0.3,-0.1 0.5,-0.1 0.2,-0.1 0.3,-0.2 0.4,-0.3 C 27.9,42.4 28,42.2 28,42 28,41.8 27.9,41.6 27.8,41.5 27.7,41.4 27.5,41.3 27.3,41.2 27.1,41.1 26.8,41 26.6,41 26.3,40.9 26,40.9 25.8,40.8 25.5,40.7 25.2,40.6 24.9,40.5 24.6,40.4 24.4,40.3 24.2,40.1 24,39.9 23.8,39.7 23.7,39.5 c -0.1,-0.2 -0.2,-0.6 -0.2,-0.9 0,-0.4 0.1,-0.8 0.3,-1.1 0.2,-0.3 0.4,-0.5 0.7,-0.7 0.3,-0.2 0.6,-0.3 0.9,-0.4 0.3,-0.1 0.7,-0.1 1.1,-0.1 0.4,0 0.8,0 1.2,0.1 0.4,0.1 0.7,0.2 1,0.4 0.3,0.2 0.5,0.5 0.7,0.8 0.2,0.3 0.3,0.7 0.3,1.2 H 28 c 0,-0.2 -0.1,-0.4 -0.1,-0.6 -0.1,-0.2 -0.2,-0.3 -0.3,-0.4 -0.1,-0.1 -0.3,-0.2 -0.5,-0.2 -0.2,0 -0.4,-0.1 -0.6,-0.1 -0.1,0 -0.3,0 -0.4,0 -0.1,0 -0.3,0.1 -0.4,0.2 -0.1,0.1 -0.7,0 -0.7,0.1 -0.1,0.1 -0.1,0.2 -0.1,0.4 0,0.2 0,0.3 0.1,0.4 0.1,0.1 0.2,0.2 0.3,0.3 0.1,0.1 0.4,0.2 0.7,0.2 0.3,0.1 0.7,0.2 1.2,0.3 0.1,0 0.4,0.1 0.6,0.2 0.3,0.1 0.5,0.2 0.8,0.4 0.3,0.2 0.5,0.4 0.7,0.7 0.2,0.3 0.3,0.6 0.3,1.1 0,0.4 -0.1,0.7 -0.2,1 -0.1,0.3 -0.3,0.6 -0.6,0.8 -0.3,0.2 -0.6,0.4 -1,0.5 -0.4,0.1 -0.9,0.2 -1.4,0.2 -0.4,0 -0.9,-0.1 -1.3,-0.2 C 24.7,44 24.3,43.8 24,43.6 23.7,43.4 23.4,43.1 23.3,42.7 23.1,42.3 23,41.9 23,41.4 h 1.7 c -0.1,0.3 -0.1,0.5 0,0.7 z" />
	<path
   inkscape:connector-curvature="0"
   id="path880"
   d="m 35.4,36.2 c 0.4,0 0.7,0.1 1,0.2 0.3,0.1 0.5,0.3 0.7,0.5 0.2,0.2 0.4,0.4 0.5,0.7 0.1,0.3 0.2,0.5 0.2,0.8 0,0.5 -0.1,0.9 -0.3,1.2 -0.2,0.3 -0.5,0.6 -1,0.8 v 0 c 0.2,0.1 0.4,0.1 0.5,0.3 0.1,0.1 0.3,0.3 0.3,0.4 0,0.1 0.2,0.3 0.2,0.5 0,0.2 0.1,0.4 0.1,0.6 0,0.1 0,0.3 0,0.4 0,0.2 0,0.3 0,0.5 0,0.2 0,0.3 0.1,0.5 0,0.2 0.1,0.3 0.2,0.4 H 36.2 C 36.1,43.8 36,43.5 36,43.1 36,42.8 35.9,42.4 35.9,42.1 35.8,41.7 35.7,41.4 35.5,41.2 35.3,41 35,40.9 34.6,40.9 H 32.9 V 44 h -1.7 v -7.9 h 4.2 z m -0.6,3.5 c 0.4,0 0.7,-0.1 0.9,-0.3 0.2,-0.2 0.3,-0.5 0.3,-0.9 0,-0.4 -0.1,-0.7 -0.3,-0.8 -0.2,-0.2 -0.5,-0.3 -0.9,-0.3 h -1.9 v 2.2 h 1.9 z" />
	<path
   inkscape:connector-curvature="0"
   id="path882"
   d="m 41.5,36.2 v 3 h 3.2 v -3 h 1.7 V 44 H 44.7 V 40.6 H 41.5 V 44 h -1.7 v -7.9 h 1.7 z" />
</g></g>
</svg>