<?xml version="1.0" encoding="utf-8"?>
<!-- Generator: Adobe Illustrator 24.1.0, SVG Export Plug-In . SVG Version: 6.00 Build 0)  -->
<svg version="1.1"
	 id="svg2" xmlns:cc="http://creativecommons.org/ns#" xmlns:dc="http://purl.org/dc/elements/1.1/" xmlns:rdf="http://www.w3.org/1999/02/22-rdf-syntax-ns#" xmlns:svg="http://www.w3.org/2000/svg"
	 xmlns="http://www.w3.org/2000/svg" xmlns:xlink="http://www.w3.org/1999/xlink" x="0px" y="0px" viewBox="0 0 70.9 70.9"
	 style="enable-background:new 0 0 70.9 70.9;" xml:space="preserve">
<style type="text/css">
	.st0{fill:#FCD205;}
	.st1{clip-path:url(#SVGID_2_);}
	.st2{fill:#231F20;}
	.st3{enable-background:new    ;}
	.st4{fill:#ED1C24;enable-background:new    ;}
	.st5{fill:#1D1D1B;}
	.st6{fill:#FCD205;stroke:#1D1D1B;stroke-width:2;stroke-linecap:round;stroke-linejoin:round;stroke-miterlimit:10;}
</style>
<g id="g10" transform="matrix(1.25,0,0,-1.25,0,70.8625)">
	<path id="rect3031" class="st0" d="M0.8,55.7h54.9c0,0,0.1,0,0.1-0.1V0.5c0,0,0-0.1-0.1-0.1H0.8c0,0-0.1,0-0.1,0.1L0.8,55.7
		C0.7,55.7,0.7,55.7,0.8,55.7z"/>
	<g id="g12" transform="scale(0.1,0.1)">
		<g id="g14">
			<g>
				<defs>
					<rect id="SVGID_1_" x="248" y="248" width="70.9" height="70.9"/>
				</defs>
				<clipPath id="SVGID_2_">
					<use xlink:href="#SVGID_1_"  style="overflow:visible;"/>
				</clipPath>
				<g id="g16" class="st1">
					<path id="path42" class="st2" d="M547.6,547.6c0-18.3,0-510,0-528.3c-18.3,0-510,0-528.3,0c0,18.3,0,510,0,528.3
						C37.6,547.6,529.3,547.6,547.6,547.6z M557.3,566.9H0V0h566.9v566.9H557.3"/>
				</g>
			</g>
		</g>
	</g>
</g>
<g class="st3">
	<polygon class="st4" points="69.7,24.1 61.2,15.8 52.6,24.3 44.2,15.8 35.6,24.3 27.1,15.8 18.5,24.3 10.1,15.8 1.5,24.3 1.5,69.5 
		69.7,69.5 	"/>
	<path class="st5" d="M69.7,70.5H1.5c-0.6,0-1-0.4-1-1V24.3c0-0.3,0.1-0.5,0.3-0.7l8.6-8.5c0.4-0.4,1-0.4,1.4,0l7.7,7.8l7.9-7.8
		c0.4-0.4,1-0.4,1.4,0l7.7,7.8l7.9-7.8c0.4-0.4,1-0.4,1.4,0l7.7,7.8l7.9-7.8c0.4-0.4,1-0.4,1.4,0l8.4,8.3c0.2,0.2,0.3,0.4,0.3,0.7
		v45.5C70.7,70.1,70.2,70.5,69.7,70.5z M2.5,68.5h66.2v-44l-7.4-7.3L53.3,25c-0.4,0.4-1,0.4-1.4,0l-7.7-7.8L36.3,25
		c-0.4,0.4-1,0.4-1.4,0l-7.7-7.8L19.2,25c-0.4,0.4-1,0.4-1.4,0l-7.7-7.8l-7.6,7.5V68.5z"/>
</g>
<rect x="19.1" y="30.5" class="st6" width="32.3" height="19.1"/>
<g>
	<path d="M24.7,42.1c0.1,0.2,0.2,0.3,0.4,0.4c0.2,0.1,0.3,0.2,0.6,0.3c0.2,0.1,0.4,0.1,0.7,0.1c0.2,0,0.3,0,0.5,0
		c0.2,0,0.3-0.1,0.5-0.1c0.2-0.1,0.3-0.2,0.4-0.3c0.1-0.1,0.2-0.3,0.2-0.5c0-0.2-0.1-0.4-0.2-0.5c-0.1-0.1-0.3-0.2-0.5-0.3
		c-0.2-0.1-0.5-0.2-0.7-0.2c-0.3-0.1-0.6-0.1-0.8-0.2c-0.3-0.1-0.6-0.2-0.9-0.3c-0.3-0.1-0.5-0.2-0.7-0.4c-0.2-0.2-0.4-0.4-0.5-0.6
		s-0.2-0.6-0.2-0.9c0-0.4,0.1-0.8,0.3-1.1c0.2-0.3,0.4-0.5,0.7-0.7c0.3-0.2,0.6-0.3,0.9-0.4s0.7-0.1,1.1-0.1c0.4,0,0.8,0,1.2,0.1
		c0.4,0.1,0.7,0.2,1,0.4c0.3,0.2,0.5,0.5,0.7,0.8c0.2,0.3,0.3,0.7,0.3,1.2h-1.7c0-0.2-0.1-0.4-0.1-0.6c-0.1-0.2-0.2-0.3-0.3-0.4
		c-0.1-0.1-0.3-0.2-0.5-0.2c-0.2,0-0.4-0.1-0.6-0.1c-0.1,0-0.3,0-0.4,0c-0.1,0-0.3,0.1-0.4,0.2S25,37.7,25,37.8
		c-0.1,0.1-0.1,0.2-0.1,0.4c0,0.2,0,0.3,0.1,0.4c0.1,0.1,0.2,0.2,0.3,0.3s0.4,0.2,0.7,0.2c0.3,0.1,0.7,0.2,1.2,0.3
		c0.1,0,0.4,0.1,0.6,0.2c0.3,0.1,0.5,0.2,0.8,0.4c0.3,0.2,0.5,0.4,0.7,0.7s0.3,0.6,0.3,1.1c0,0.4-0.1,0.7-0.2,1
		c-0.1,0.3-0.3,0.6-0.6,0.8s-0.6,0.4-1,0.5c-0.4,0.1-0.9,0.2-1.4,0.2c-0.4,0-0.9-0.1-1.3-0.2c-0.4-0.1-0.8-0.3-1.1-0.5
		c-0.3-0.2-0.6-0.5-0.7-0.9c-0.2-0.4-0.3-0.8-0.3-1.3h1.7C24.6,41.7,24.6,41.9,24.7,42.1z"/>
	<path d="M35.4,36.2c0.4,0,0.7,0.1,1,0.2c0.3,0.1,0.5,0.3,0.7,0.5c0.2,0.2,0.4,0.4,0.5,0.7c0.1,0.3,0.2,0.5,0.2,0.8
		c0,0.5-0.1,0.9-0.3,1.2c-0.2,0.3-0.5,0.6-1,0.8v0c0.2,0.1,0.4,0.1,0.5,0.3c0.1,0.1,0.3,0.3,0.3,0.4s0.2,0.3,0.2,0.5
		c0,0.2,0.1,0.4,0.1,0.6c0,0.1,0,0.3,0,0.4c0,0.2,0,0.3,0,0.5c0,0.2,0,0.3,0.1,0.5c0,0.2,0.1,0.3,0.2,0.4h-1.7
		c-0.1-0.2-0.2-0.5-0.2-0.9c0-0.3-0.1-0.7-0.1-1c-0.1-0.4-0.2-0.7-0.4-0.9c-0.2-0.2-0.5-0.3-0.9-0.3h-1.7V44h-1.7v-7.9H35.4z
		 M34.8,39.7c0.4,0,0.7-0.1,0.9-0.3c0.2-0.2,0.3-0.5,0.3-0.9c0-0.4-0.1-0.7-0.3-0.8c-0.2-0.2-0.5-0.3-0.9-0.3h-1.9v2.2H34.8z"/>
	<path d="M41.5,36.2v3h3.2v-3h1.7V44h-1.7v-3.4h-3.2V44h-1.7v-7.9H41.5z"/>
</g>
</svg>
