<?xml version="1.0" encoding="utf-8"?>
<!-- Generator: Adobe Illustrator 24.1.0, SVG Export Plug-In . SVG Version: 6.00 Build 0)  -->
<svg version="1.1"
	 id="svg2" xmlns:cc="http://creativecommons.org/ns#" xmlns:dc="http://purl.org/dc/elements/1.1/" xmlns:rdf="http://www.w3.org/1999/02/22-rdf-syntax-ns#" xmlns:svg="http://www.w3.org/2000/svg"
	 xmlns="http://www.w3.org/2000/svg" xmlns:xlink="http://www.w3.org/1999/xlink" x="0px" y="0px" viewBox="0 0 70.9 70.9"
	 style="enable-background:new 0 0 70.9 70.9;" xml:space="preserve">
<style type="text/css">
	.st0{enable-background:new    ;}
	.st1{fill:#FFFFFF;}
	.st2{fill:#B83DBA;enable-background:new    ;}
</style>
<g class="st0">
	<path class="st1" d="M35.4,68.1c-18,0-32.7-14.7-32.7-32.7S17.4,2.7,35.4,2.7s32.7,14.7,32.7,32.7S53.5,68.1,35.4,68.1z"/>
	<path class="st2" d="M35.4,5c16.8,0,30.4,13.7,30.4,30.4S52.2,65.9,35.4,65.9S5,52.2,5,35.4S18.6,5,35.4,5 M35.4,0.5
		C16.1,0.5,0.5,16.1,0.5,35.4s15.6,34.9,34.9,34.9s34.9-15.6,34.9-34.9S54.7,0.5,35.4,0.5L35.4,0.5z"/>
</g>
<polygon class="st2" points="43.2,17 43.2,31.8 27.6,31.8 27.6,17 19.9,17 19.9,53.5 27.6,53.5 27.6,39 43.2,39 43.2,53.5 
	50.9,53.5 50.9,17 "/>
</svg>
