<?xml version="1.0" encoding="UTF-8" standalone="no"?>
<!-- Generator: Adobe Illustrator 24.1.0, SVG Export Plug-In . SVG Version: 6.00 Build 0)  -->

<svg
   xmlns:dc="http://purl.org/dc/elements/1.1/"
   xmlns:cc="http://creativecommons.org/ns#"
   xmlns:rdf="http://www.w3.org/1999/02/22-rdf-syntax-ns#"
   xmlns:svg="http://www.w3.org/2000/svg"
   xmlns="http://www.w3.org/2000/svg"
   xmlns:sodipodi="http://sodipodi.sourceforge.net/DTD/sodipodi-0.dtd"
   xmlns:inkscape="http://www.inkscape.org/namespaces/inkscape"
   version="1.1"
   id="svg2"
   x="0px"
   y="0px"
   viewBox="0 0 125 125"
   xml:space="preserve"
   sodipodi:docname="1009.svg"
   width="125"
   height="125"
   inkscape:version="0.92.5 (2060ec1f9f, 2020-04-08)"><metadata
   id="metadata1129"><rdf:RDF><cc:Work
       rdf:about=""><dc:format>image/svg+xml</dc:format><dc:type
         rdf:resource="http://purl.org/dc/dcmitype/StillImage" /><dc:title></dc:title></cc:Work></rdf:RDF></metadata><defs
   id="defs1127" /><sodipodi:namedview
   pagecolor="#ffffff"
   bordercolor="#666666"
   borderopacity="1"
   objecttolerance="10"
   gridtolerance="10"
   guidetolerance="10"
   inkscape:pageopacity="0"
   inkscape:pageshadow="2"
   inkscape:window-width="1920"
   inkscape:window-height="1017"
   id="namedview1125"
   showgrid="false"
   inkscape:zoom="11.960507"
   inkscape:cx="35.450001"
   inkscape:cy="35.450001"
   inkscape:window-x="-8"
   inkscape:window-y="-8"
   inkscape:window-maximized="1"
   inkscape:current-layer="svg2" />
<style
   type="text/css"
   id="style1114">
	.st0{enable-background:new    ;}
	.st1{fill:#FFFFFF;}
	.st2{fill:#B83DBA;enable-background:new    ;}
</style>
<g
   class="st0"
   id="g1120"
   transform="matrix(0.93123209,0,0,0.93123209,29.534384,29.534384)"
   style="enable-background:new">
	<path
   class="st1"
   d="M 35.4,68.1 C 17.4,68.1 2.7,53.4 2.7,35.4 2.7,17.4 17.4,2.7 35.4,2.7 c 18,0 32.7,14.7 32.7,32.7 0,18 -14.6,32.7 -32.7,32.7 z"
   id="path1116"
   inkscape:connector-curvature="0"
   style="fill:#ffffff" />
	<path
   class="st2"
   d="M 35.4,5 C 52.2,5 65.8,18.7 65.8,35.4 65.8,52.1 52.2,65.9 35.4,65.9 18.6,65.9 5,52.2 5,35.4 5,18.6 18.6,5 35.4,5 m 0,-4.5 C 16.1,0.5 0.5,16.1 0.5,35.4 0.5,54.7 16.1,70.3 35.4,70.3 54.7,70.3 70.3,54.7 70.3,35.4 70.3,16.1 54.7,0.5 35.4,0.5 Z"
   id="path1118"
   inkscape:connector-curvature="0"
   style="fill:#b83dba;enable-background:new" />
</g>
<polygon
   class="st2"
   points="43.2,53.5 50.9,53.5 50.9,17 43.2,17 43.2,31.8 27.6,31.8 27.6,17 19.9,17 19.9,53.5 27.6,53.5 27.6,39 43.2,39 "
   id="polygon1122"
   transform="matrix(0.93123209,0,0,0.93123209,29.534384,29.674069)"
   style="fill:#b83dba;enable-background:new" />
</svg>