<?xml version="1.0" encoding="utf-8"?>
<!-- Generator: Adobe Illustrator 24.1.0, SVG Export Plug-In . SVG Version: 6.00 Build 0)  -->
<svg version="1.1"
	 id="svg2" xmlns:cc="http://creativecommons.org/ns#" xmlns:dc="http://purl.org/dc/elements/1.1/" xmlns:inkscape="http://www.inkscape.org/namespaces/inkscape" xmlns:rdf="http://www.w3.org/1999/02/22-rdf-syntax-ns#" xmlns:sodipodi="http://sodipodi.sourceforge.net/DTD/sodipodi-0.dtd" xmlns:svg="http://www.w3.org/2000/svg"
	 xmlns="http://www.w3.org/2000/svg" xmlns:xlink="http://www.w3.org/1999/xlink" x="0px" y="0px" viewBox="0 0 71 71"
	 style="enable-background:new 0 0 71 71;" xml:space="preserve">
<style type="text/css">
	.st0{fill:#B1093D;enable-background:new    ;}
	.st1{fill:#FFFFFF;}
	.st2{fill:#F3E731;}
</style>
<rect class="st0" width="71" height="71"/>
<path class="st1" d="M62.4,57.4c0,0-9.8,2.2-14.6-2.9c1.4,4.4,4.5,10.4,14.6,9.5C62.2,57.9,62.4,57.4,62.4,57.4z"/>
<path class="st1" d="M62.3,50.5c0,0-14.8-1.7-15.4-16.3c8.1,10.4,15.4,9.9,15.4,9.9S62.3,50.5,62.3,50.5z"/>
<path class="st1" d="M61.1,53.6c0,0-6.1-1.1-8.3-4.4c-1.6-2.4-6-5.1-10.4-2.6c4.9,1.8,5.3,2.7,7.1,5S56.2,57.3,61.1,53.6z"/>
<path class="st1" d="M56.6,21.2c0,0-0.5,6.5,5.7,9.3v7.2C62.4,37.6,52.9,32.5,56.6,21.2z"/>
<path class="st1" d="M61.1,40.2c0,0-4.8-2.6-6.5-7.7c-1.8-5.1-4.8-8.6-8.4-8.5c3.6,4.4,3.5,6.6,4.4,9.2
	C51.4,35.9,55.4,41.4,61.1,40.2z"/>
<path class="st2" d="M31.5,23.6c-4.3,0-8.2,2.3-10.4,5.7h-3.8v-4H6v5.4h6.4v10.5H6v5.4h11.4V42h3.5c2.1,3.7,6.1,6.2,10.7,6.2
	c6.8,0,12.3-5.5,12.3-12.3C43.8,29.1,38.3,23.6,31.5,23.6z M31.5,44.2c-4.6,0-8.3-3.7-8.3-8.3c0-4.6,3.7-8.3,8.3-8.3
	c4.6,0,8.3,3.7,8.3,8.3C39.8,40.5,36.1,44.2,31.5,44.2z"/>
</svg>
