<?xml version="1.0" encoding="utf-8"?>
<!-- Generator: Adobe Illustrator 24.1.0, SVG Export Plug-In . SVG Version: 6.00 Build 0)  -->
<svg version="1.1"
	 id="svg2" xmlns:cc="http://creativecommons.org/ns#" xmlns:dc="http://purl.org/dc/elements/1.1/" xmlns:rdf="http://www.w3.org/1999/02/22-rdf-syntax-ns#" xmlns:svg="http://www.w3.org/2000/svg"
	 xmlns="http://www.w3.org/2000/svg" xmlns:xlink="http://www.w3.org/1999/xlink" x="0px" y="0px" viewBox="0 0 70.9 70.9"
	 style="enable-background:new 0 0 70.9 70.9;" xml:space="preserve">
<style type="text/css">
	.st0{fill:#FFFFFF;}
	.st1{clip-path:url(#SVGID_2_);}
	.st2{fill:#231F20;}
	.st3{fill:none;stroke:#231F20;stroke-width:2;stroke-miterlimit:10;}
	.st4{fill:#B1093D;stroke:#1D1D1B;stroke-width:2;stroke-miterlimit:10;enable-background:new    ;}
</style>
<g id="g10" transform="matrix(1.25,0,0,-1.25,0,70.8625)">
	<path id="rect3031" class="st0" d="M0.8,55.7h54.9c0,0,0.1,0,0.1-0.1V0.5c0,0,0-0.1-0.1-0.1H0.8c0,0-0.1,0-0.1,0.1L0.8,55.7
		C0.7,55.7,0.7,55.7,0.8,55.7z"/>
	<g id="g12" transform="scale(0.1,0.1)">
		<g id="g14">
			<g>
				<defs>
					<rect id="SVGID_1_" x="248" y="248" width="70.9" height="70.9"/>
				</defs>
				<clipPath id="SVGID_2_">
					<use xlink:href="#SVGID_1_"  style="overflow:visible;"/>
				</clipPath>
				<g id="g16" class="st1">
					<path id="path42" class="st2" d="M547.6,547.6c0-18.3,0-510,0-528.3c-18.3,0-510,0-528.3,0c0,18.3,0,510,0,528.3
						C37.6,547.6,529.3,547.6,547.6,547.6z M557.3,566.9H0V0h566.9v566.9H557.3"/>
				</g>
			</g>
		</g>
	</g>
</g>
<polyline class="st3" points="26.7,10.2 8.1,10.2 8.1,61.1 26.7,61.1 "/>
<line class="st3" x1="18.6" y1="18.8" x2="18.6" y2="52.4"/>
<rect x="18.6" y="29.9" class="st4" width="41.5" height="11.8"/>
</svg>
