<?xml version="1.0" encoding="UTF-8" standalone="no"?>
<!-- Generator: Adobe Illustrator 24.1.0, SVG Export Plug-In . SVG Version: 6.00 Build 0)  -->

<svg
   xmlns:dc="http://purl.org/dc/elements/1.1/"
   xmlns:cc="http://creativecommons.org/ns#"
   xmlns:rdf="http://www.w3.org/1999/02/22-rdf-syntax-ns#"
   xmlns:svg="http://www.w3.org/2000/svg"
   xmlns="http://www.w3.org/2000/svg"
   xmlns:xlink="http://www.w3.org/1999/xlink"
   xmlns:sodipodi="http://sodipodi.sourceforge.net/DTD/sodipodi-0.dtd"
   xmlns:inkscape="http://www.inkscape.org/namespaces/inkscape"
   version="1.1"
   id="svg2"
   x="0px"
   y="0px"
   viewBox="0 0 125 125"
   xml:space="preserve"
   sodipodi:docname="1017.svg"
   width="125"
   height="125"
   inkscape:version="0.92.5 (2060ec1f9f, 2020-04-08)"><metadata
   id="metadata1082"><rdf:RDF><cc:Work
       rdf:about=""><dc:format>image/svg+xml</dc:format><dc:type
         rdf:resource="http://purl.org/dc/dcmitype/StillImage" /><dc:title></dc:title></cc:Work></rdf:RDF></metadata><defs
   id="defs1080" /><sodipodi:namedview
   pagecolor="#ffffff"
   bordercolor="#666666"
   borderopacity="1"
   objecttolerance="10"
   gridtolerance="10"
   guidetolerance="10"
   inkscape:pageopacity="0"
   inkscape:pageshadow="2"
   inkscape:window-width="1920"
   inkscape:window-height="1017"
   id="namedview1078"
   showgrid="false"
   inkscape:zoom="11.960507"
   inkscape:cx="35.450001"
   inkscape:cy="35.450001"
   inkscape:window-x="-8"
   inkscape:window-y="-8"
   inkscape:window-maximized="1"
   inkscape:current-layer="svg2" />
<style
   type="text/css"
   id="style1055">
	.st0{fill:#FFFFFF;}
	.st1{clip-path:url(#SVGID_2_);}
	.st2{fill:#231F20;}
	.st3{fill:none;stroke:#231F20;stroke-width:2;stroke-miterlimit:10;}
	.st4{fill:#B1093D;stroke:#1D1D1B;stroke-width:2;stroke-miterlimit:10;enable-background:new    ;}
</style>



<g
   id="g1098"
   transform="matrix(0.94373866,0,0,0.94373866,29.174229,28.714156)"><g
     transform="matrix(1.25,0,0,-1.25,0,70.8625)"
     id="g10">
	<path
   d="m 0.8,55.7 h 54.9 c 0,0 0.1,0 0.1,-0.1 V 0.5 c 0,0 0,-0.1 -0.1,-0.1 H 0.8 c 0,0 -0.1,0 -0.1,0.1 l 0.1,55.2 c -0.1,0 -0.1,0 0,0 z"
   class="st0"
   id="rect3031"
   inkscape:connector-curvature="0"
   style="fill:#ffffff" />
	<g
   transform="scale(0.1)"
   id="g12">
		<g
   id="g14">
			<g
   id="g1066">
				<defs
   id="defs1059">
					<rect
   height="70.900002"
   width="70.900002"
   y="248"
   x="248"
   id="SVGID_1_" />
				</defs>
				<clipPath
   id="SVGID_2_">
					<use
   id="use1061"
   style="overflow:visible"
   xlink:href="#SVGID_1_"
   x="0"
   y="0"
   width="100%"
   height="100%" />
				</clipPath>
				<g
   clip-path="url(#SVGID_2_)"
   class="st1"
   id="g16">
					<path
   d="m 547.6,547.6 c 0,-18.3 0,-510 0,-528.3 -18.3,0 -510,0 -528.3,0 0,18.3 0,510 0,528.3 18.3,0 510,0 528.3,0 z m 9.7,19.3 H 0 V 0 h 566.9 v 566.9 h -9.6"
   class="st2"
   id="path42"
   inkscape:connector-curvature="0"
   style="fill:#231f20" />
				</g>
			</g>
		</g>
	</g>
</g><polyline
     id="polyline1071"
     points="26.7,10.2 8.1,10.2 8.1,61.1 26.7,61.1 "
     class="st3"
     style="fill:none;stroke:#231f20;stroke-width:2;stroke-miterlimit:10" /><line
     id="line1073"
     y2="52.400002"
     x2="18.6"
     y1="18.799999"
     x1="18.6"
     class="st3"
     style="fill:none;stroke:#231f20;stroke-width:2;stroke-miterlimit:10" /><rect
     id="rect1075"
     height="11.8"
     width="41.5"
     class="st4"
     y="29.9"
     x="18.6"
     style="fill:#b1093d;stroke:#1d1d1b;stroke-width:2;stroke-miterlimit:10;enable-background:new" /></g>
</svg>