<?xml version="1.0" encoding="utf-8"?>
<!-- Generator: Adobe Illustrator 24.1.0, SVG Export Plug-In . SVG Version: 6.00 Build 0)  -->
<svg version="1.1"
	 id="svg2" xmlns:cc="http://creativecommons.org/ns#" xmlns:dc="http://purl.org/dc/elements/1.1/" xmlns:inkscape="http://www.inkscape.org/namespaces/inkscape" xmlns:rdf="http://www.w3.org/1999/02/22-rdf-syntax-ns#" xmlns:sodipodi="http://sodipodi.sourceforge.net/DTD/sodipodi-0.dtd" xmlns:svg="http://www.w3.org/2000/svg"
	 xmlns="http://www.w3.org/2000/svg" xmlns:xlink="http://www.w3.org/1999/xlink" x="0px" y="0px" viewBox="0 0 71 71"
	 style="enable-background:new 0 0 71 71;" xml:space="preserve">
<style type="text/css">
	.st0{fill:#B1093D;}
	.st1{fill:#FFFFFF;}
</style>
<rect y="0" class="st0" width="71" height="71"/>
<path class="st1" d="M62.4,57.4c0,0-9.8,2.2-14.6-2.9c1.4,4.4,4.5,10.4,14.6,9.5C62.2,57.9,62.4,57.4,62.4,57.4z"/>
<path class="st1" d="M62.3,50.5c0,0-14.8-1.7-15.4-16.3c8.1,10.4,15.4,9.9,15.4,9.9L62.3,50.5z"/>
<path class="st1" d="M61.1,53.6c0,0-6.1-1.1-8.3-4.4c-1.6-2.4-6-5.1-10.4-2.6c4.9,1.8,5.3,2.7,7.1,5S56.2,57.3,61.1,53.6z"/>
<path class="st1" d="M56.6,21.2c0,0-0.5,6.5,5.7,9.3v7.2C62.4,37.6,52.9,32.5,56.6,21.2z"/>
<path class="st1" d="M61.1,40.2c0,0-4.8-2.6-6.5-7.7c-1.8-5.1-4.8-8.6-8.4-8.5c3.6,4.4,3.5,6.6,4.4,9.2
	C51.4,35.9,55.4,41.4,61.1,40.2z"/>
<g>
	<path class="st1" d="M32.7,22.4c-0.1-0.2-0.1-0.3-0.2-0.5h0c-0.3-0.8-0.7-1.7-1.1-2.6c0,0,0,0,0,0c-0.1-0.3-0.2-0.6-0.4-0.9
		c0-0.1-0.1-0.2-0.1-0.2c-0.1-0.3-0.2-0.5-0.3-0.7c0-0.1-0.1-0.2-0.1-0.3c-0.1-0.2-0.2-0.5-0.4-0.7c-0.1-0.1-0.1-0.2-0.2-0.3
		c-0.1-0.2-0.2-0.4-0.4-0.6c-0.1-0.1-0.1-0.2-0.2-0.3c-0.1-0.2-0.3-0.4-0.4-0.6c-0.1-0.1-0.2-0.2-0.3-0.3c-0.1-0.2-0.3-0.4-0.4-0.5
		c-0.1-0.1-0.2-0.2-0.3-0.3c-0.2-0.2-0.3-0.3-0.5-0.5c-0.1-0.1-0.2-0.2-0.3-0.3c-0.2-0.1-0.4-0.3-0.5-0.4c-0.1-0.1-0.2-0.2-0.4-0.3
		c-0.2-0.1-0.4-0.2-0.6-0.4c-0.1-0.1-0.3-0.2-0.4-0.2c-0.2-0.1-0.5-0.2-0.7-0.3c-0.2-0.1-0.3-0.1-0.5-0.2c-0.2-0.1-0.5-0.2-0.8-0.2
		c-0.2,0-0.3-0.1-0.5-0.1c-0.3-0.1-0.6-0.1-0.9-0.2c-0.2,0-0.3-0.1-0.5-0.1c-0.5-0.1-1-0.1-1.5-0.1c-0.5,0-1,0-1.4,0
		c-0.2,0-0.4,0-0.6,0c-0.2,0-0.4,0-0.6,0.1c-0.2,0-0.5,0.1-0.7,0.1c-0.1,0-0.2,0-0.3,0.1c-0.3,0.1-0.5,0.1-0.7,0.2c0,0,0,0,0,0l0,0
		c-4.5,1.2-4.6,4.1-4.6,4.1l-1.1,0.4l-2.3,7.6l1.1,0.5c0,0-0.9,4-3.1,4.3c-2.2,0.3-1.9,1.1-1.9,1.1h37.7v-0.2
		C41.2,28.4,34.9,27.6,32.7,22.4z"/>
	<rect x="3.5" y="29.9" class="st1" width="37.7" height="2.2"/>
	<path class="st1" d="M34.6,23c0.1,0.2,0.2,0.3,0.4,0.5C35,23.5,34.8,23.3,34.6,23z"/>
	<path class="st1" d="M33.3,20.2c0.2,0.6,0.4,1.1,0.7,1.6c0.2,0.4,0.3,0.7,0.5,1c0.1,0.2,0.3,0.4,0.6,0.8c1.7,2.3,4,2.7,4,2.7
		c0.1,0,0.2,0.1,0.3,0.1L38.6,26c-1.2-1.1-3.5-4-4.4-7.5c-1.8-7-5.7-13.5-19.3-13.6l-0.3,4.5c1.3-0.4,3-0.6,5.1-0.6
		C28.7,8.7,31.3,15.1,33.3,20.2z"/>
	<path class="st1" d="M34.6,23c0-0.1-0.1-0.1-0.1-0.2C34.2,22.4,34.4,22.7,34.6,23z"/>
</g>
</svg>
