<?xml version="1.0" encoding="utf-8"?>
<!-- Generator: Adobe Illustrator 24.1.0, SVG Export Plug-In . SVG Version: 6.00 Build 0)  -->
<svg version="1.1"
	 id="svg2" xmlns:cc="http://creativecommons.org/ns#" xmlns:dc="http://purl.org/dc/elements/1.1/" xmlns:inkscape="http://www.inkscape.org/namespaces/inkscape" xmlns:rdf="http://www.w3.org/1999/02/22-rdf-syntax-ns#" xmlns:sodipodi="http://sodipodi.sourceforge.net/DTD/sodipodi-0.dtd" xmlns:svg="http://www.w3.org/2000/svg"
	 xmlns="http://www.w3.org/2000/svg" xmlns:xlink="http://www.w3.org/1999/xlink" x="0px" y="0px" viewBox="0 0 71 71"
	 style="enable-background:new 0 0 71 71;" xml:space="preserve">
<style type="text/css">
	.st0{fill:#B1093D;}
	.st1{fill:#FFFFFF;}
</style>
<rect y="0" class="st0" width="71" height="71"/>
<g>
	<path class="st1" d="M25.6,30.7l0.2,0.2h0.2c11.8,0,13.6,0,14.9,0l3.9,0l0.2-0.1c3.4-2.7,5.4-6.6,5.4-10.8
		c0-7.8-6.8-14.1-15.1-14.1c-8.3,0-15.1,6.3-15.1,14.1C20.2,24.1,22.2,28,25.6,30.7z M35.3,7.2c7.5,0,13.7,5.7,13.7,12.7
		c0,3.7-1.7,7.1-4.7,9.6l-3.4,0c-1.3,0-3.1,0-14.7,0c-3-2.4-4.7-5.9-4.7-9.5C21.6,12.9,27.8,7.2,35.3,7.2z"/>
	<path class="st1" d="M66.1,34.7v-4.5h-7.7v3.7h-8.8l-7.8,3.9h-6.3h-6.3l-7.8-3.9H12v-3.7H4.3v4.5h3.9v23H4.3v4.5H12v-3.7h9.4
		l8.1-4.2h6h6l8.1,4.2h8.8v3.7h7.7v-4.5h-3.4v-23H66.1z M42.5,50.4h-7h-7l-8.1,4.2h-8.2V37.9h8.2l7.8,3.9h7.2h7.2l7.8-3.9h8.2v16.6
		h-8.2L42.5,50.4z"/>
	<path class="st1" d="M26.5,20c0-0.3-0.2-0.5-0.5-0.5h-2.4c-0.3,0-0.5,0.2-0.5,0.5s0.2,0.5,0.5,0.5H26C26.3,20.5,26.5,20.3,26.5,20z
		"/>
	<path class="st1" d="M28.3,13.8c0.1,0.1,0.2,0.1,0.4,0.1c0.1,0,0.3,0,0.4-0.1c0.2-0.2,0.2-0.5,0-0.7l-1.7-1.7
		c-0.2-0.2-0.5-0.2-0.7,0c-0.2,0.2-0.2,0.5,0,0.7L28.3,13.8z"/>
	<path class="st1" d="M41.8,14c0.1,0,0.3,0,0.4-0.1l1.7-1.7c0.2-0.2,0.2-0.5,0-0.7c-0.2-0.2-0.5-0.2-0.7,0l-1.7,1.7
		c-0.2,0.2-0.2,0.5,0,0.7C41.6,13.9,41.7,14,41.8,14z"/>
	<path class="st1" d="M44.8,20.5h2.4c0.3,0,0.5-0.2,0.5-0.5s-0.2-0.5-0.5-0.5h-2.4c-0.3,0-0.5,0.2-0.5,0.5S44.5,20.5,44.8,20.5z"/>
	<path class="st1" d="M35.3,11.2c0.3,0,0.5-0.2,0.5-0.5V8.4c0-0.3-0.2-0.5-0.5-0.5s-0.5,0.2-0.5,0.5v2.4
		C34.8,11,35.1,11.2,35.3,11.2z"/>
	<path class="st1" d="M35.3,28.6c1.7,0,3.1-1.3,3.2-3l0,0l0.9-15.3L32.5,24h0c-0.2,0.4-0.4,0.9-0.4,1.4
		C32.2,27.1,33.6,28.6,35.3,28.6z M35.3,24c0.8,0,1.4,0.6,1.4,1.4s-0.6,1.4-1.4,1.4s-1.4-0.6-1.4-1.4S34.5,24,35.3,24z"/>
</g>
</svg>
