<?xml version="1.0" encoding="UTF-8" standalone="no"?>
<!-- Generator: Adobe Illustrator 24.1.0, SVG Export Plug-In . SVG Version: 6.00 Build 0)  -->

<svg
   xmlns:dc="http://purl.org/dc/elements/1.1/"
   xmlns:cc="http://creativecommons.org/ns#"
   xmlns:rdf="http://www.w3.org/1999/02/22-rdf-syntax-ns#"
   xmlns:svg="http://www.w3.org/2000/svg"
   xmlns="http://www.w3.org/2000/svg"
   xmlns:sodipodi="http://sodipodi.sourceforge.net/DTD/sodipodi-0.dtd"
   xmlns:inkscape="http://www.inkscape.org/namespaces/inkscape"
   version="1.1"
   id="svg2"
   x="0px"
   y="0px"
   viewBox="0 0 125 125"
   xml:space="preserve"
   sodipodi:docname="1020.svg"
   width="125"
   height="125"
   inkscape:version="0.92.5 (2060ec1f9f, 2020-04-08)"><metadata
   id="metadata1326"><rdf:RDF><cc:Work
       rdf:about=""><dc:format>image/svg+xml</dc:format><dc:type
         rdf:resource="http://purl.org/dc/dcmitype/StillImage" /><dc:title></dc:title></cc:Work></rdf:RDF></metadata><defs
   id="defs1324" /><sodipodi:namedview
   pagecolor="#ffffff"
   bordercolor="#666666"
   borderopacity="1"
   objecttolerance="10"
   gridtolerance="10"
   guidetolerance="10"
   inkscape:pageopacity="0"
   inkscape:pageshadow="2"
   inkscape:window-width="1920"
   inkscape:window-height="1017"
   id="namedview1322"
   showgrid="false"
   inkscape:zoom="11.943662"
   inkscape:cx="35.5"
   inkscape:cy="35.5"
   inkscape:window-x="-8"
   inkscape:window-y="-8"
   inkscape:window-maximized="1"
   inkscape:current-layer="svg2" />
<style
   type="text/css"
   id="style1299">
	.st0{fill:#B1093D;}
	.st1{fill:#FFFFFF;}
</style>

<g
   id="g1338"
   transform="matrix(0.91549296,0,0,0.91549296,30,30)"><rect
     id="rect1301"
     height="71"
     width="71"
     class="st0"
     y="0"
     x="0"
     style="fill:#b1093d" /><g
     id="g1319">
	<path
   id="path1303"
   d="m 25.6,30.7 0.2,0.2 H 26 c 11.8,0 13.6,0 14.9,0 h 3.9 L 45,30.8 C 48.4,28.1 50.4,24.2 50.4,20 50.4,12.2 43.6,5.9 35.3,5.9 27,5.9 20.2,12.2 20.2,20 c 0,4.1 2,8 5.4,10.7 z M 35.3,7.2 c 7.5,0 13.7,5.7 13.7,12.7 0,3.7 -1.7,7.1 -4.7,9.6 h -3.4 c -1.3,0 -3.1,0 -14.7,0 -3,-2.4 -4.7,-5.9 -4.7,-9.5 0.1,-7.1 6.3,-12.8 13.8,-12.8 z"
   class="st1"
   inkscape:connector-curvature="0"
   style="fill:#ffffff" />
	<path
   id="path1305"
   d="m 66.1,34.7 v -4.5 h -7.7 v 3.7 h -8.8 l -7.8,3.9 H 35.5 29.2 L 21.4,33.9 H 12 V 30.2 H 4.3 v 4.5 h 3.9 v 23 H 4.3 v 4.5 H 12 v -3.7 h 9.4 l 8.1,-4.2 h 6 6 l 8.1,4.2 h 8.8 v 3.7 h 7.7 v -4.5 h -3.4 v -23 z M 42.5,50.4 h -7 -7 l -8.1,4.2 H 12.2 V 37.9 h 8.2 l 7.8,3.9 h 7.2 7.2 l 7.8,-3.9 h 8.2 v 16.6 h -8.2 z"
   class="st1"
   inkscape:connector-curvature="0"
   style="fill:#ffffff" />
	<path
   id="path1307"
   d="m 26.5,20 c 0,-0.3 -0.2,-0.5 -0.5,-0.5 h -2.4 c -0.3,0 -0.5,0.2 -0.5,0.5 0,0.3 0.2,0.5 0.5,0.5 H 26 c 0.3,0 0.5,-0.2 0.5,-0.5 z"
   class="st1"
   inkscape:connector-curvature="0"
   style="fill:#ffffff" />
	<path
   id="path1309"
   d="m 28.3,13.8 c 0.1,0.1 0.2,0.1 0.4,0.1 0.1,0 0.3,0 0.4,-0.1 0.2,-0.2 0.2,-0.5 0,-0.7 l -1.7,-1.7 c -0.2,-0.2 -0.5,-0.2 -0.7,0 -0.2,0.2 -0.2,0.5 0,0.7 z"
   class="st1"
   inkscape:connector-curvature="0"
   style="fill:#ffffff" />
	<path
   id="path1311"
   d="m 41.8,14 c 0.1,0 0.3,0 0.4,-0.1 l 1.7,-1.7 c 0.2,-0.2 0.2,-0.5 0,-0.7 -0.2,-0.2 -0.5,-0.2 -0.7,0 l -1.7,1.7 c -0.2,0.2 -0.2,0.5 0,0.7 0.1,0 0.2,0.1 0.3,0.1 z"
   class="st1"
   inkscape:connector-curvature="0"
   style="fill:#ffffff" />
	<path
   id="path1313"
   d="m 44.8,20.5 h 2.4 c 0.3,0 0.5,-0.2 0.5,-0.5 0,-0.3 -0.2,-0.5 -0.5,-0.5 h -2.4 c -0.3,0 -0.5,0.2 -0.5,0.5 0,0.3 0.2,0.5 0.5,0.5 z"
   class="st1"
   inkscape:connector-curvature="0"
   style="fill:#ffffff" />
	<path
   id="path1315"
   d="m 35.3,11.2 c 0.3,0 0.5,-0.2 0.5,-0.5 V 8.4 c 0,-0.3 -0.2,-0.5 -0.5,-0.5 -0.3,0 -0.5,0.2 -0.5,0.5 v 2.4 c 0,0.2 0.3,0.4 0.5,0.4 z"
   class="st1"
   inkscape:connector-curvature="0"
   style="fill:#ffffff" />
	<path
   id="path1317"
   d="m 35.3,28.6 c 1.7,0 3.1,-1.3 3.2,-3 v 0 L 39.4,10.3 32.5,24 v 0 c -0.2,0.4 -0.4,0.9 -0.4,1.4 0.1,1.7 1.5,3.2 3.2,3.2 z m 0,-4.6 c 0.8,0 1.4,0.6 1.4,1.4 0,0.8 -0.6,1.4 -1.4,1.4 -0.8,0 -1.4,-0.6 -1.4,-1.4 0,-0.8 0.6,-1.4 1.4,-1.4 z"
   class="st1"
   inkscape:connector-curvature="0"
   style="fill:#ffffff" />
</g></g>
</svg>