<?xml version="1.0" encoding="utf-8"?>
<!-- Generator: Adobe Illustrator 24.1.0, SVG Export Plug-In . SVG Version: 6.00 Build 0)  -->
<svg version="1.1"
	 id="svg2" xmlns:cc="http://creativecommons.org/ns#" xmlns:dc="http://purl.org/dc/elements/1.1/" xmlns:rdf="http://www.w3.org/1999/02/22-rdf-syntax-ns#" xmlns:svg="http://www.w3.org/2000/svg"
	 xmlns="http://www.w3.org/2000/svg" xmlns:xlink="http://www.w3.org/1999/xlink" x="0px" y="0px" viewBox="0 0 70.9 70.9"
	 style="enable-background:new 0 0 70.9 70.9;" xml:space="preserve">
<style type="text/css">
	.st0{fill:#FFFFFF;}
</style>
<rect x="0" y="0" class="st0" width="70.9" height="70.9"/>
<g>
	<path d="M19.1,38.2l4.1,1.3c-0.6,2.3-1.7,4-3.2,5.1c-1.5,1.1-3.3,1.7-5.6,1.7c-2.8,0-5.1-1-6.9-2.9c-1.8-1.9-2.7-4.5-2.7-7.9
		c0-3.5,0.9-6.3,2.7-8.2s4.2-2.9,7.2-2.9c2.6,0,4.7,0.8,6.3,2.3c1,0.9,1.7,2.2,2.2,3.9l-4.2,1c-0.2-1.1-0.8-2-1.6-2.6
		c-0.8-0.6-1.8-1-2.9-1c-1.6,0-2.8,0.6-3.8,1.7c-1,1.1-1.5,2.9-1.5,5.5c0,2.7,0.5,4.6,1.4,5.7c1,1.1,2.2,1.7,3.8,1.7
		c1.1,0,2.1-0.4,2.9-1.1C18.1,40.9,18.7,39.8,19.1,38.2z"/>
	<path d="M39.8,38.2l4.1,1.3c-0.6,2.3-1.7,4-3.2,5.1c-1.5,1.1-3.3,1.7-5.6,1.7c-2.8,0-5.1-1-6.9-2.9c-1.8-1.9-2.7-4.5-2.7-7.9
		c0-3.5,0.9-6.3,2.7-8.2s4.2-2.9,7.2-2.9c2.6,0,4.7,0.8,6.3,2.3c1,0.9,1.7,2.2,2.2,3.9l-4.2,1c-0.2-1.1-0.8-2-1.6-2.6
		c-0.8-0.6-1.8-1-2.9-1c-1.6,0-2.8,0.6-3.8,1.7c-1,1.1-1.5,2.9-1.5,5.5c0,2.7,0.5,4.6,1.4,5.7c1,1.1,2.2,1.7,3.8,1.7
		c1.1,0,2.1-0.4,2.9-1.1S39.5,39.8,39.8,38.2z"/>
	<path d="M47.1,46V24.9h9c2.3,0,3.9,0.2,4.9,0.6c1,0.4,1.8,1.1,2.5,2c0.6,1,0.9,2.1,0.9,3.3c0,1.6-0.5,2.9-1.4,3.9
		c-0.9,1-2.3,1.7-4.2,2c0.9,0.5,1.7,1.1,2.3,1.8c0.6,0.6,1.4,1.8,2.4,3.4l2.6,4.1H61l-3.1-4.6c-1.1-1.6-1.8-2.7-2.3-3.1
		c-0.4-0.4-0.8-0.7-1.3-0.9s-1.2-0.2-2.1-0.2h-0.9V46H47.1z M51.3,33.8h3.2c2,0,3.3-0.1,3.8-0.3c0.5-0.2,0.9-0.5,1.2-0.9
		c0.3-0.4,0.4-1,0.4-1.6c0-0.7-0.2-1.3-0.6-1.7c-0.4-0.4-0.9-0.7-1.6-0.8c-0.3,0-1.4-0.1-3.1-0.1h-3.3V33.8z"/>
</g>
</svg>
