<?xml version="1.0" encoding="UTF-8" standalone="no"?>
<!-- Created with Inkscape (http://www.inkscape.org/) -->

<svg
   xmlns:dc="http://purl.org/dc/elements/1.1/"
   xmlns:cc="http://creativecommons.org/ns#"
   xmlns:rdf="http://www.w3.org/1999/02/22-rdf-syntax-ns#"
   xmlns:svg="http://www.w3.org/2000/svg"
   xmlns="http://www.w3.org/2000/svg"
   version="1.1"
   width="70.862503"
   height="70.862503"
   id="svg2"
   xml:space="preserve"><metadata
     id="metadata8"><rdf:RDF><cc:Work
         rdf:about=""><dc:format>image/svg+xml</dc:format><dc:type
           rdf:resource="http://purl.org/dc/dcmitype/StillImage" /><dc:title></dc:title></cc:Work></rdf:RDF></metadata><defs
     id="defs6"><clipPath
       id="clipPath18"><path
         d="M 0,566.93 0,0 l 566.934,0 0,566.93 -566.934,0 z"
         id="path20" /></clipPath></defs><g
     transform="matrix(1.25,0,0,-1.25,0,70.8625)"
     id="g10"><rect
       width="69.961708"
       height="69.661446"
       x="0.60052967"
       y="0.90079451"
       transform="matrix(0.8,0,0,-0.8,0,56.69)"
       id="rect3023"
       style="fill:#ffffff;fill-opacity:1;stroke:none" /><g
       transform="scale(0.1,0.1)"
       id="g12"><g
         id="g14"><g
           clip-path="url(#clipPath18)"
           id="g16"><path
             d="m 0,0 566.934,0 0,566.93 L 0,566.93 0,0 z"
             id="path22"
             style="fill:#ffffff;fill-opacity:1;fill-rule:nonzero;stroke:none" /><path
             d="m 0,0 566.934,0 0,566.93 L 0,566.93 0,0 z"
             id="path24"
             style="fill:#00a650;fill-opacity:1;fill-rule:nonzero;stroke:none" /><path
             d="m 386.816,417.523 c 21.739,0 38.731,-17.089 38.731,-38.933 0,-20.617 -16.992,-37.629 -38.731,-37.629 -20.808,0 -37.851,17.012 -37.851,37.629 0,21.844 17.043,38.933 37.851,38.933"
             id="path26"
             style="fill:#ffffff;fill-opacity:1;fill-rule:nonzero;stroke:none" /><path
             d="m 252.004,449.996 c 7.605,9.488 17.945,15.192 30.23,15.192 12.286,0 23.684,-5.704 30.317,-14.2 5.633,-6.679 8.426,-15.148 8.426,-23.609 0,-9.484 -2.793,-17.949 -8.426,-24.707 -6.633,-8.41 -18.031,-14.121 -30.317,-14.121 -12.285,0 -22.625,5.711 -30.23,15.183 -4.738,6.641 -7.539,15.09 -7.539,23.645 0,8.461 2.801,15.945 7.539,22.617"
             id="path28"
             style="fill:#ffffff;fill-opacity:1;fill-rule:nonzero;stroke:none" /><path
             d="m 252.004,354.742 c 7.605,8.477 17.945,15.145 30.23,15.145 12.286,0 23.684,-6.668 30.317,-15.145 4.668,-6.504 8.426,-15.012 8.426,-23.547 0,-8.562 -3.758,-17.156 -8.426,-23.652 -6.633,-8.418 -18.031,-15.137 -30.317,-15.137 -12.285,0 -22.625,6.719 -30.23,15.137 -4.738,6.496 -7.539,15.09 -7.539,23.652 0,8.535 2.801,17.043 7.539,23.547"
             id="path30"
             style="fill:#ffffff;fill-opacity:1;fill-rule:nonzero;stroke:none" /><path
             d="m 175.754,417.25 c 20.855,0 37.867,-17.059 37.867,-38.836 0,-20.695 -17.012,-37.793 -37.867,-37.793 -20.727,0 -38.676,17.098 -38.676,37.793 0,21.777 17.949,38.836 38.676,38.836"
             id="path32"
             style="fill:#ffffff;fill-opacity:1;fill-rule:nonzero;stroke:none" /><path
             d="m 11.2969,531.582 24.6562,25.52 69.9019,-67.399 0,66.625 36.997,-36.215 0,-94.453 -95.4223,0 -36.1328,37.602 69.0508,-0.77 -69.0508,69.09"
             id="path34"
             style="fill:#ffffff;fill-opacity:1;fill-rule:nonzero;stroke:none" /><path
             d="m 312.551,268.223 c -0.078,0 -60.52,-0.957 -60.52,-0.957 l -17.558,0 c -17.911,0 -30.293,-13.125 -30.293,-32.149 l 0,-105.086 29.953,0 0,94.215 14.746,0 0,-94.215 69.043,0 0,94.215 13.66,0 0,-94.215 28.086,0 0,108.934 c 0,19.258 -15.52,29.258 -30.574,29.258 l -16.543,0"
             id="path36"
             style="fill:#ffffff;fill-opacity:1;fill-rule:nonzero;stroke:none" /><path
             d="m 557.219,463.109 -37.832,-37.605 -92.934,0 -0.816,94.457 37.097,37.012 0,-67.43 69.004,67.43 25.481,-25.563 -69.082,-68.301 69.082,0"
             id="path38"
             style="fill:#ffffff;fill-opacity:1;fill-rule:nonzero;stroke:none" /><path
             d="m 11.4492,43.1641 24.6719,-25.5469 69.9179,67.414 0,-66.5742 36.988,36.1328 0,94.4722 -95.4332,0 -36.1446,-37.624 69.0703,0.859 -69.0703,-69.1329"
             id="path40"
             style="fill:#ffffff;fill-opacity:1;fill-rule:nonzero;stroke:none" /><path
             d="m 557.219,111.438 -37.832,37.624 -92.934,0 -0.816,-94.4722 37.097,-36.9726 0,67.414 69.004,-67.414 25.481,25.5469 -69.082,68.2739 69.082,0"
             id="path42"
             style="fill:#ffffff;fill-opacity:1;fill-rule:nonzero;stroke:none" /><path
             d="m 439.062,322.895 -97.507,0 c -1.313,-9.122 -4.985,-18.165 -10.16,-25.372 -4.325,-5.906 -10.25,-10.808 -17.149,-14.48 l 20.559,0 c 19.851,0 40.605,-12.113 40.605,-38.426 l 0,-61.48 50.652,0 0,93.633 13,0 0,-93.633 32.161,0 0,109.562 c 0,17.051 -16.133,30.196 -32.161,30.196"
             id="path44"
             style="fill:#ffffff;fill-opacity:1;fill-rule:nonzero;stroke:none" /><path
             d="m 232.742,297.289 c -5.097,7.207 -8.015,16.191 -9.121,25.391 l -98.141,0 c -16.125,0 -32.2222,-12.246 -32.2222,-30.106 l 0,-109.683 32.2222,0 0,93.683 13.043,0 0,-93.683 50.532,0 0,61.379 c 0,26.445 20.73,38.625 40.613,38.625 l 20.73,0 c -6.699,3.605 -12.644,8.585 -17.656,14.394"
             id="path46"
             style="fill:#ffffff;fill-opacity:1;fill-rule:nonzero;stroke:none" /></g></g></g></g></svg>