<?xml version="1.0" encoding="UTF-8" standalone="no"?>
<!-- Generator: Adobe Illustrator 24.1.0, SVG Export Plug-In . SVG Version: 6.00 Build 0)  -->

<svg
   xmlns:dc="http://purl.org/dc/elements/1.1/"
   xmlns:cc="http://creativecommons.org/ns#"
   xmlns:rdf="http://www.w3.org/1999/02/22-rdf-syntax-ns#"
   xmlns:svg="http://www.w3.org/2000/svg"
   xmlns="http://www.w3.org/2000/svg"
   xmlns:sodipodi="http://sodipodi.sourceforge.net/DTD/sodipodi-0.dtd"
   xmlns:inkscape="http://www.inkscape.org/namespaces/inkscape"
   version="1.1"
   id="svg2"
   x="0px"
   y="0px"
   viewBox="0 0 125 125"
   xml:space="preserve"
   sodipodi:docname="201.svg"
   width="125"
   height="125"
   inkscape:version="0.92.5 (2060ec1f9f, 2020-04-08)"><metadata
   id="metadata47509"><rdf:RDF><cc:Work
       rdf:about=""><dc:format>image/svg+xml</dc:format><dc:type
         rdf:resource="http://purl.org/dc/dcmitype/StillImage" /><dc:title></dc:title></cc:Work></rdf:RDF></metadata><defs
   id="defs47507" /><sodipodi:namedview
   pagecolor="#ffffff"
   bordercolor="#666666"
   borderopacity="1"
   objecttolerance="10"
   gridtolerance="10"
   guidetolerance="10"
   inkscape:pageopacity="0"
   inkscape:pageshadow="2"
   inkscape:window-width="728"
   inkscape:window-height="480"
   id="namedview47505"
   showgrid="false"
   inkscape:zoom="3.3286318"
   inkscape:cx="35.450001"
   inkscape:cy="35.450001"
   inkscape:window-x="0"
   inkscape:window-y="0"
   inkscape:window-maximized="0"
   inkscape:current-layer="svg2" />
<style
   type="text/css"
   id="style47495">
	.st0{fill:#00A650;}
	.st1{fill:none;}
	.st2{fill:#FFFFFF;}
</style>



<g
   id="g48058"
   transform="matrix(0.91678418,0,0,0.91678418,30,30)"><rect
     id="rect47497"
     height="70.900002"
     width="70.900002"
     class="st0"
     y="0"
     x="0"
     style="fill:#00a650" /><polyline
     id="polyline47499"
     points="70.9,70.9 70.9,0 0,0 "
     class="st1"
     style="fill:none" /><path
     d="m 58.9,23.8 v -5.5 c 0,-0.2 0.2,-0.4 0.5,-0.4 h 5.5 c 0.2,0 0.5,-0.2 0.5,-0.5 V 12 c 0,-0.2 -0.2,-0.5 -0.5,-0.5 h -5.5 c -0.2,0 -0.5,-0.2 -0.5,-0.4 V 5.7 C 58.9,5.5 58.7,5.2 58.5,5.2 H 53 c -0.2,0 -0.5,0.2 -0.5,0.5 v 5.5 c 0,0.2 -0.2,0.4 -0.5,0.4 h -5.4 c -0.3,0 -0.5,0.2 -0.5,0.5 v 5.5 c 0,0.2 0.2,0.5 0.5,0.5 H 52 c 0.3,0 0.5,0.2 0.5,0.4 V 24 c 0,0.2 0.2,0.5 0.5,0.5 h 5.5 c 0.3,-0.3 0.4,-0.5 0.4,-0.7"
     class="st2"
     id="path132"
     inkscape:connector-curvature="0"
     style="fill:#ffffff" /><path
     id="path47502"
     d="m 38.6,22.8 c -7.2,0 -10,6.1 -10,6.1 0,0 -2.9,-6.2 -10,-6.1 -7.2,0 -11.8,6.4 -11.8,13 0,6.6 7.3,17.6 21.8,26.9 14.5,-9.3 21.8,-20.3 21.8,-26.9 0,-6.6 -4.6,-13 -11.8,-13 z M 22.5,55.7 27.2,43.6 H 20.3 L 34.2,28.1 28.7,40.5 h 7.5 z"
     class="st2"
     inkscape:connector-curvature="0"
     style="fill:#ffffff" /></g>
</svg>