<?xml version="1.0" encoding="utf-8"?>
<!-- Generator: Adobe Illustrator 24.1.0, SVG Export Plug-In . SVG Version: 6.00 Build 0)  -->
<svg version="1.1"
	 id="svg2" xmlns:cc="http://creativecommons.org/ns#" xmlns:dc="http://purl.org/dc/elements/1.1/" xmlns:rdf="http://www.w3.org/1999/02/22-rdf-syntax-ns#" xmlns:svg="http://www.w3.org/2000/svg"
	 xmlns="http://www.w3.org/2000/svg" xmlns:xlink="http://www.w3.org/1999/xlink" x="0px" y="0px" viewBox="0 0 70.9 70.9"
	 style="enable-background:new 0 0 70.9 70.9;" xml:space="preserve">
<style type="text/css">
	.st0{fill:#00A650;}
	.st1{fill:none;}
	.st2{fill:#FFFFFF;}
</style>
<rect y="0" class="st0" width="70.9" height="70.9"/>
<polyline class="st1" points="70.9,70.9 70.9,0 0,0 "/>
<path id="path132" class="st2" d="M44.5,61.7V45.8c0-0.7,0.7-1.1,1.3-1.1h15.9c0.7,0,1.3-0.7,1.3-1.3V27.5c0-0.7-0.7-1.3-1.3-1.3
	H45.8c-0.7,0-1.3-0.5-1.3-1.1V9.1c0-0.7-0.4-1.3-1.1-1.3H27.5c-0.7,0-1.4,0.7-1.4,1.3v15.9c0,0.7-0.4,1.1-1.3,1.1H9.1
	c-0.9,0-1.3,0.6-1.3,1.3v15.9c0,0.7,0.5,1.3,1.3,1.3h15.7c0.9,0,1.3,0.5,1.3,1.1v15.9c0,0.6,0.7,1.3,1.4,1.3h15.9
	C44,63,44.5,62.4,44.5,61.7"/>
</svg>
