<?xml version="1.0" encoding="UTF-8" standalone="no"?>
<!-- Generator: Adobe Illustrator 24.1.0, SVG Export Plug-In . SVG Version: 6.00 Build 0)  -->

<svg
   xmlns:dc="http://purl.org/dc/elements/1.1/"
   xmlns:cc="http://creativecommons.org/ns#"
   xmlns:rdf="http://www.w3.org/1999/02/22-rdf-syntax-ns#"
   xmlns:svg="http://www.w3.org/2000/svg"
   xmlns="http://www.w3.org/2000/svg"
   xmlns:sodipodi="http://sodipodi.sourceforge.net/DTD/sodipodi-0.dtd"
   xmlns:inkscape="http://www.inkscape.org/namespaces/inkscape"
   version="1.1"
   id="svg2"
   x="0px"
   y="0px"
   viewBox="0 0 125 125"
   xml:space="preserve"
   sodipodi:docname="202.svg"
   width="125"
   height="125"
   inkscape:version="0.92.5 (2060ec1f9f, 2020-04-08)"><metadata
   id="metadata48096"><rdf:RDF><cc:Work
       rdf:about=""><dc:format>image/svg+xml</dc:format><dc:type
         rdf:resource="http://purl.org/dc/dcmitype/StillImage" /><dc:title></dc:title></cc:Work></rdf:RDF></metadata><defs
   id="defs48094" /><sodipodi:namedview
   pagecolor="#ffffff"
   bordercolor="#666666"
   borderopacity="1"
   objecttolerance="10"
   gridtolerance="10"
   guidetolerance="10"
   inkscape:pageopacity="0"
   inkscape:pageshadow="2"
   inkscape:window-width="728"
   inkscape:window-height="480"
   id="namedview48092"
   showgrid="false"
   inkscape:zoom="3.3286318"
   inkscape:cx="35.450001"
   inkscape:cy="35.450001"
   inkscape:window-x="0"
   inkscape:window-y="0"
   inkscape:window-maximized="0"
   inkscape:current-layer="svg2" />
<style
   type="text/css"
   id="style48084">
	.st0{fill:#00A650;}
	.st1{fill:none;}
	.st2{fill:#FFFFFF;}
</style>


<g
   id="g48644"
   transform="matrix(0.91678418,0,0,0.91678418,30,30)"><rect
     id="rect48086"
     height="70.900002"
     width="70.900002"
     class="st0"
     y="0"
     x="0"
     style="fill:#00a650" /><polyline
     id="polyline48088"
     points="70.9,70.9 70.9,0 0,0 "
     class="st1"
     style="fill:none" /><path
     d="M 44.5,61.7 V 45.8 c 0,-0.7 0.7,-1.1 1.3,-1.1 H 61.7 C 62.4,44.7 63,44 63,43.4 V 27.5 c 0,-0.7 -0.7,-1.3 -1.3,-1.3 H 45.8 c -0.7,0 -1.3,-0.5 -1.3,-1.1 V 9.1 C 44.5,8.4 44.1,7.8 43.4,7.8 H 27.5 c -0.7,0 -1.4,0.7 -1.4,1.3 V 25 c 0,0.7 -0.4,1.1 -1.3,1.1 H 9.1 c -0.9,0 -1.3,0.6 -1.3,1.3 v 15.9 c 0,0.7 0.5,1.3 1.3,1.3 h 15.7 c 0.9,0 1.3,0.5 1.3,1.1 v 15.9 c 0,0.6 0.7,1.3 1.4,1.3 h 15.9 c 0.6,0.1 1.1,-0.5 1.1,-1.2"
     class="st2"
     id="path132"
     inkscape:connector-curvature="0"
     style="fill:#ffffff" /></g>
</svg>