<?xml version="1.0" encoding="utf-8"?>
<!-- Generator: Adobe Illustrator 24.1.0, SVG Export Plug-In . SVG Version: 6.00 Build 0)  -->
<svg version="1.1"
	 id="svg2" xmlns:cc="http://creativecommons.org/ns#" xmlns:dc="http://purl.org/dc/elements/1.1/" xmlns:rdf="http://www.w3.org/1999/02/22-rdf-syntax-ns#" xmlns:svg="http://www.w3.org/2000/svg"
	 xmlns="http://www.w3.org/2000/svg" xmlns:xlink="http://www.w3.org/1999/xlink" x="0px" y="0px" viewBox="0 0 70.9 70.9"
	 style="enable-background:new 0 0 70.9 70.9;" xml:space="preserve">
<style type="text/css">
	.st0{fill:#FFFFFF;}
	.st1{clip-path:url(#SVGID_2_);}
	.st2{fill:#231F20;}
	.st3{fill:#E30613;}
</style>
<g id="g10" transform="matrix(1.25,0,0,-1.25,0,70.8625)">
	<path id="rect3031" class="st0" d="M0.8,55.7h54.9c0,0,0.1,0,0.1-0.1V0.5c0,0,0-0.1-0.1-0.1H0.8c0,0-0.1,0-0.1,0.1L0.8,55.7
		C0.7,55.7,0.7,55.7,0.8,55.7z"/>
	<g id="g12" transform="scale(0.1,0.1)">
		<g id="g14">
			<g>
				<defs>
					<rect id="SVGID_1_" x="248" y="248" width="70.9" height="70.9"/>
				</defs>
				<clipPath id="SVGID_2_">
					<use xlink:href="#SVGID_1_"  style="overflow:visible;"/>
				</clipPath>
				<g id="g16" class="st1">
					<path id="path42" class="st2" d="M547.6,547.6c0-18.3,0-510,0-528.3c-18.3,0-510,0-528.3,0c0,18.3,0,510,0,528.3
						C37.6,547.6,529.3,547.6,547.6,547.6z M557.3,566.9H0V0h566.9v566.9H557.3"/>
				</g>
			</g>
		</g>
	</g>
</g>
<path class="st3" d="M35.6,66.3C18.7,66.3,5,52.6,5,35.7S18.7,5.2,35.6,5.2s30.6,13.7,30.6,30.6S52.4,66.3,35.6,66.3z M35.6,10
	C21.4,10,9.8,21.5,9.8,35.7s11.5,25.7,25.7,25.7s25.7-11.5,25.7-25.7S49.7,10,35.6,10z"/>
<g>
	<path d="M49.7,51.3h-3.5l-0.8-3.7c-1.5,1.7-2.9,2.8-4.4,3.5c-1.5,0.6-3.2,1-5.1,1c-2.4,0-4.5-0.4-6.3-1.3c-1.9-0.9-3.5-2.1-4.8-3.6
		c-1.3-1.5-2.3-3.3-3-5.3c-0.7-2-1-4.1-1-6.4c0-2.2,0.3-4.4,1-6.4c0.7-2,1.7-3.8,3-5.3c1.3-1.5,2.9-2.7,4.8-3.6
		c1.9-0.9,4-1.3,6.3-1.3c1.7,0,3.3,0.2,4.9,0.7c1.5,0.5,2.9,1.1,4.1,2c1.2,0.9,2.2,2,3,3.4c0.8,1.4,1.3,2.9,1.5,4.7h-5.4
		c-0.1-1-0.5-1.9-1-2.7c-0.5-0.8-1.1-1.4-1.8-2c-0.7-0.5-1.6-0.9-2.5-1.2c-0.9-0.3-1.9-0.4-2.9-0.4c-1.7,0-3.1,0.3-4.4,1
		c-1.2,0.7-2.2,1.6-3,2.7c-0.8,1.1-1.3,2.4-1.7,3.9c-0.4,1.4-0.6,2.9-0.6,4.4s0.2,3,0.6,4.4c0.4,1.4,0.9,2.7,1.7,3.9
		c0.8,1.1,1.8,2,3,2.7s2.7,1,4.4,1c1.4,0,2.7-0.2,3.8-0.6c1.1-0.4,2-1,2.8-1.7c0.8-0.8,1.3-1.7,1.7-2.8c0.4-1.1,0.6-2.3,0.6-3.6
		h-8.4v-4.2h13.4V51.3z"/>
</g>
</svg>
