<?xml version="1.0" encoding="UTF-8" standalone="no"?>
<!-- Generator: Adobe Illustrator 24.1.0, SVG Export Plug-In . SVG Version: 6.00 Build 0)  -->

<svg
   xmlns:dc="http://purl.org/dc/elements/1.1/"
   xmlns:cc="http://creativecommons.org/ns#"
   xmlns:rdf="http://www.w3.org/1999/02/22-rdf-syntax-ns#"
   xmlns:svg="http://www.w3.org/2000/svg"
   xmlns="http://www.w3.org/2000/svg"
   xmlns:xlink="http://www.w3.org/1999/xlink"
   xmlns:sodipodi="http://sodipodi.sourceforge.net/DTD/sodipodi-0.dtd"
   xmlns:inkscape="http://www.inkscape.org/namespaces/inkscape"
   version="1.1"
   id="svg2"
   x="0px"
   y="0px"
   viewBox="0 0 125 125"
   xml:space="preserve"
   sodipodi:docname="203.svg"
   width="125"
   height="125"
   inkscape:version="0.92.5 (2060ec1f9f, 2020-04-08)"><metadata
   id="metadata48702"><rdf:RDF><cc:Work
       rdf:about=""><dc:format>image/svg+xml</dc:format><dc:type
         rdf:resource="http://purl.org/dc/dcmitype/StillImage" /><dc:title></dc:title></cc:Work></rdf:RDF></metadata><defs
   id="defs48700" /><sodipodi:namedview
   pagecolor="#ffffff"
   bordercolor="#666666"
   borderopacity="1"
   objecttolerance="10"
   gridtolerance="10"
   guidetolerance="10"
   inkscape:pageopacity="0"
   inkscape:pageshadow="2"
   inkscape:window-width="728"
   inkscape:window-height="480"
   id="namedview48698"
   showgrid="false"
   inkscape:zoom="3.3286318"
   inkscape:cx="35.450001"
   inkscape:cy="35.450001"
   inkscape:window-x="0"
   inkscape:window-y="0"
   inkscape:window-maximized="0"
   inkscape:current-layer="svg2" />
<style
   type="text/css"
   id="style48675">
	.st0{fill:#FFFFFF;}
	.st1{clip-path:url(#SVGID_2_);}
	.st2{fill:#231F20;}
	.st3{fill:#E30613;}
</style>


<g
   id="g49261"
   transform="matrix(0.94373866,0,0,0.94373866,29.174229,28.714156)"><g
     transform="matrix(1.25,0,0,-1.25,0,70.8625)"
     id="g10">
	<path
   d="m 0.8,55.7 h 54.9 c 0,0 0.1,0 0.1,-0.1 V 0.5 c 0,0 0,-0.1 -0.1,-0.1 H 0.8 c 0,0 -0.1,0 -0.1,0.1 l 0.1,55.2 c -0.1,0 -0.1,0 0,0 z"
   class="st0"
   id="rect3031"
   inkscape:connector-curvature="0"
   style="fill:#ffffff" />
	<g
   transform="scale(0.1)"
   id="g12">
		<g
   id="g14">
			<g
   id="g48686">
				<defs
   id="defs48679">
					<rect
   height="70.900002"
   width="70.900002"
   y="248"
   x="248"
   id="SVGID_1_" />
				</defs>
				<clipPath
   id="SVGID_2_">
					<use
   id="use48681"
   style="overflow:visible"
   xlink:href="#SVGID_1_"
   x="0"
   y="0"
   width="100%"
   height="100%" />
				</clipPath>
				<g
   clip-path="url(#SVGID_2_)"
   class="st1"
   id="g16">
					<path
   d="m 547.6,547.6 c 0,-18.3 0,-510 0,-528.3 -18.3,0 -510,0 -528.3,0 0,18.3 0,510 0,528.3 18.3,0 510,0 528.3,0 z m 9.7,19.3 H 0 V 0 h 566.9 v 566.9 h -9.6"
   class="st2"
   id="path42"
   inkscape:connector-curvature="0"
   style="fill:#231f20" />
				</g>
			</g>
		</g>
	</g>
</g><path
     id="path48691"
     d="M 35.6,66.3 C 18.7,66.3 5,52.6 5,35.7 5,18.8 18.7,5.2 35.6,5.2 c 16.9,0 30.6,13.7 30.6,30.6 0,16.9 -13.8,30.5 -30.6,30.5 z M 35.6,10 C 21.4,10 9.8,21.5 9.8,35.7 9.8,49.9 21.3,61.4 35.5,61.4 49.7,61.4 61.2,49.9 61.2,35.7 61.2,21.5 49.7,10 35.6,10 Z"
     class="st3"
     inkscape:connector-curvature="0"
     style="fill:#e30613" /><g
     id="g48695">
	<path
   id="path48693"
   d="m 49.7,51.3 h -3.5 l -0.8,-3.7 c -1.5,1.7 -2.9,2.8 -4.4,3.5 -1.5,0.6 -3.2,1 -5.1,1 -2.4,0 -4.5,-0.4 -6.3,-1.3 -1.9,-0.9 -3.5,-2.1 -4.8,-3.6 -1.3,-1.5 -2.3,-3.3 -3,-5.3 -0.7,-2 -1,-4.1 -1,-6.4 0,-2.2 0.3,-4.4 1,-6.4 0.7,-2 1.7,-3.8 3,-5.3 1.3,-1.5 2.9,-2.7 4.8,-3.6 1.9,-0.9 4,-1.3 6.3,-1.3 1.7,0 3.3,0.2 4.9,0.7 1.5,0.5 2.9,1.1 4.1,2 1.2,0.9 2.2,2 3,3.4 0.8,1.4 1.3,2.9 1.5,4.7 H 44 c -0.1,-1 -0.5,-1.9 -1,-2.7 -0.5,-0.8 -1.1,-1.4 -1.8,-2 -0.7,-0.5 -1.6,-0.9 -2.5,-1.2 -0.9,-0.3 -1.9,-0.4 -2.9,-0.4 -1.7,0 -3.1,0.3 -4.4,1 -1.2,0.7 -2.2,1.6 -3,2.7 -0.8,1.1 -1.3,2.4 -1.7,3.9 -0.4,1.4 -0.6,2.9 -0.6,4.4 0,1.5 0.2,3 0.6,4.4 0.4,1.4 0.9,2.7 1.7,3.9 0.8,1.1 1.8,2 3,2.7 1.2,0.7 2.7,1 4.4,1 1.4,0 2.7,-0.2 3.8,-0.6 1.1,-0.4 2,-1 2.8,-1.7 0.8,-0.8 1.3,-1.7 1.7,-2.8 0.4,-1.1 0.6,-2.3 0.6,-3.6 h -8.4 v -4.2 h 13.4 z"
   inkscape:connector-curvature="0" />
</g></g>
</svg>