<?xml version="1.0" encoding="utf-8"?>
<!-- Generator: Adobe Illustrator 24.1.0, SVG Export Plug-In . SVG Version: 6.00 Build 0)  -->
<svg version="1.1"
	 id="svg2" xmlns:cc="http://creativecommons.org/ns#" xmlns:dc="http://purl.org/dc/elements/1.1/" xmlns:rdf="http://www.w3.org/1999/02/22-rdf-syntax-ns#" xmlns:svg="http://www.w3.org/2000/svg"
	 xmlns="http://www.w3.org/2000/svg" xmlns:xlink="http://www.w3.org/1999/xlink" x="0px" y="0px" viewBox="0 0 70.9 70.9"
	 style="enable-background:new 0 0 70.9 70.9;" xml:space="preserve">
<style type="text/css">
	.st0{enable-background:new    ;}
	.st1{fill:#FFFFFF;}
	.st2{fill:#FFFF00;}
	.st3{fill:#1D1D1B;}
</style>
<g class="st0">
	<path class="st1" d="M35.4,68.1c-18,0-32.7-14.7-32.7-32.7S17.4,2.7,35.4,2.7s32.7,14.7,32.7,32.7S53.5,68.1,35.4,68.1z"/>
	<path class="st2" d="M35.4,5c16.8,0,30.4,13.7,30.4,30.4S52.2,65.9,35.4,65.9S5,52.2,5,35.4S18.6,5,35.4,5 M35.4,0.5
		C16.1,0.5,0.5,16.1,0.5,35.4s15.6,34.9,34.9,34.9s34.9-15.6,34.9-34.9S54.7,0.5,35.4,0.5L35.4,0.5z"/>
</g>
<g>
	<path class="st3" d="M27,30.3l-3,0.8l3.5,2.7c1.4,0,2.6,0.4,3.4,0.7c1.3-0.5,3.6-1,5.3-0.5c5.8,1.4,10.1,5.1,11.2,9.5
		c1.7,0.3,3,1.8,3,3.6v1.6c0,0.9-0.4,1.8-0.9,2.4l4.3,3.4l-3.6-30.2l-0.7,0.2l4-9c0.1-0.2,0.1-0.5-0.1-0.7c-0.1-0.2-0.4-0.3-0.6-0.3
		l-5.3,0.2c-0.3,0-0.6,0.2-0.7,0.5l-3.1,7.5l1-11.2c0-0.3-0.1-0.5-0.3-0.7c-0.2-0.2-0.5-0.2-0.8,0l-5.6,2.9
		c-0.2,0.1-0.4,0.4-0.4,0.6L37.2,19l-2.4-6.6c-0.1-0.2-0.3-0.4-0.5-0.5c-0.2-0.1-0.5,0-0.7,0.2L29.1,16c-0.2,0.2-0.3,0.6-0.2,0.9
		l0.4,0.9l-5.1-1.3c-0.3-0.1-0.6,0-0.8,0.3c-0.2,0.2-0.2,0.6-0.1,0.8l1.8,3.2l-0.7-0.6c-0.2-0.2-0.6-0.2-0.8-0.1l-4.5,2.4
		c-0.2,0.1-0.4,0.3-0.4,0.6c0,0.2,0.1,0.5,0.3,0.6L27,30.3z M47.9,16.2l3.6-0.1l-4,9L43.9,26L47.9,16.2z M39,14.8l4-2.1l-1.2,13.8
		l-1.6,0.4l-1.6-4.4L39,14.8z M33.8,14l4.9,13.3l-3.5,0.9l-4.7-11.4L33.8,14z M29.9,19.5l3.1,7.6l-4.7-3.7l-2.9-5L29.9,19.5z
		 M23.9,21.6l9,7.2l-4.1,1l-7.9-6.6L23.9,21.6z"/>
</g>
<path class="st3" d="M46.6,44.6h-0.3c-0.7-4.4-4.8-8.1-10.5-9.5c-1.5-0.4-3.7,0.1-4.8,0.6c-0.1,0.1-0.2,0.1-0.3,0
	c-0.9-0.4-3.2-1.1-5.5-0.4c-5.4,1.6-9.1,5.2-9.7,9.3h-1.2c-1.4,0-2.5,1.1-2.5,2.5v1.6c0,1.4,1.1,2.5,2.5,2.5H16
	c1.4,4.1,5.9,6,14.9,6.3c0.6,0,1.2,0,1.7,0c5.6,0,9.3-1,11.4-3c0.9-0.9,1.5-1.9,1.9-3.2h0.7c1.4,0,2.5-1.1,2.5-2.5v-1.6
	C49.1,45.7,48,44.6,46.6,44.6z M44.1,51.2c-0.3,0.8-0.7,1.5-1.3,2c-2,1.9-5.9,2.7-11.9,2.5c-7.8-0.2-11.7-1.6-13.1-4.6H44.1z
	 M44.6,44.6H17.2c0.7-3.4,3.9-6.3,8.5-7.7c0.5-0.1,1-0.2,1.5-0.2c1.2,0,2.3,0.4,2.9,0.6c0.5,0.2,1.1,0.2,1.6,0
	c0.9-0.4,2.7-0.8,3.7-0.5C40.3,38,43.9,41,44.6,44.6z"/>
</svg>
