<?xml version="1.0" encoding="UTF-8" standalone="no"?>
<!-- Generator: Adobe Illustrator 24.1.0, SVG Export Plug-In . SVG Version: 6.00 Build 0)  -->

<svg
   xmlns:dc="http://purl.org/dc/elements/1.1/"
   xmlns:cc="http://creativecommons.org/ns#"
   xmlns:rdf="http://www.w3.org/1999/02/22-rdf-syntax-ns#"
   xmlns:svg="http://www.w3.org/2000/svg"
   xmlns="http://www.w3.org/2000/svg"
   xmlns:sodipodi="http://sodipodi.sourceforge.net/DTD/sodipodi-0.dtd"
   xmlns:inkscape="http://www.inkscape.org/namespaces/inkscape"
   version="1.1"
   id="svg2"
   x="0px"
   y="0px"
   viewBox="0 0 125 125"
   xml:space="preserve"
   sodipodi:docname="205.svg"
   width="125"
   height="125"
   inkscape:version="0.92.5 (2060ec1f9f, 2020-04-08)"><metadata
   id="metadata855"><rdf:RDF><cc:Work
       rdf:about=""><dc:format>image/svg+xml</dc:format><dc:type
         rdf:resource="http://purl.org/dc/dcmitype/StillImage" /><dc:title></dc:title></cc:Work></rdf:RDF></metadata><defs
   id="defs853" /><sodipodi:namedview
   pagecolor="#ffffff"
   bordercolor="#666666"
   borderopacity="1"
   objecttolerance="10"
   gridtolerance="10"
   guidetolerance="10"
   inkscape:pageopacity="0"
   inkscape:pageshadow="2"
   inkscape:window-width="1920"
   inkscape:window-height="1017"
   id="namedview851"
   showgrid="false"
   inkscape:zoom="11.960507"
   inkscape:cx="35.450001"
   inkscape:cy="35.450001"
   inkscape:window-x="-8"
   inkscape:window-y="-8"
   inkscape:window-maximized="1"
   inkscape:current-layer="svg2" />
<style
   type="text/css"
   id="style836">
	.st0{enable-background:new    ;}
	.st1{fill:#FFFFFF;}
	.st2{fill:#0069B4;}
	.st3{fill:#1D1D1B;}
</style>


<g
   id="g863"
   transform="matrix(0.93123209,0,0,0.93123209,29.534384,29.534384)"><g
     id="g842"
     class="st0"
     style="enable-background:new">
	<path
   id="path838"
   d="M 35.4,68.1 C 17.4,68.1 2.7,53.4 2.7,35.4 2.7,17.4 17.4,2.7 35.4,2.7 c 18,0 32.7,14.7 32.7,32.7 0,18 -14.6,32.7 -32.7,32.7 z"
   class="st1"
   inkscape:connector-curvature="0"
   style="fill:#ffffff" />
	<path
   id="path840"
   d="M 35.4,5 C 52.2,5 65.8,18.7 65.8,35.4 65.8,52.1 52.2,65.9 35.4,65.9 18.6,65.9 5,52.2 5,35.4 5,18.6 18.6,5 35.4,5 m 0,-4.5 C 16.1,0.5 0.5,16.1 0.5,35.4 0.5,54.7 16.1,70.3 35.4,70.3 54.7,70.3 70.3,54.7 70.3,35.4 70.3,16.1 54.7,0.5 35.4,0.5 Z"
   class="st2"
   inkscape:connector-curvature="0"
   style="fill:#0069b4" />
</g><g
     id="g846">
	<path
   id="path844"
   d="m 27,30.3 -3,0.8 3.5,2.7 c 1.4,0 2.6,0.4 3.4,0.7 1.3,-0.5 3.6,-1 5.3,-0.5 5.8,1.4 10.1,5.1 11.2,9.5 1.7,0.3 3,1.8 3,3.6 v 1.6 c 0,0.9 -0.4,1.8 -0.9,2.4 l 4.3,3.4 -3.6,-30.2 -0.7,0.2 4,-9 C 53.6,15.3 53.6,15 53.4,14.8 53.3,14.6 53,14.5 52.8,14.5 l -5.3,0.2 c -0.3,0 -0.6,0.2 -0.7,0.5 l -3.1,7.5 1,-11.2 c 0,-0.3 -0.1,-0.5 -0.3,-0.7 -0.2,-0.2 -0.5,-0.2 -0.8,0 L 38,13.7 c -0.2,0.1 -0.4,0.4 -0.4,0.6 L 37.2,19 34.8,12.4 c -0.1,-0.2 -0.3,-0.4 -0.5,-0.5 -0.2,-0.1 -0.5,0 -0.7,0.2 L 29.1,16 c -0.2,0.2 -0.3,0.6 -0.2,0.9 l 0.4,0.9 -5.1,-1.3 c -0.3,-0.1 -0.6,0 -0.8,0.3 -0.2,0.2 -0.2,0.6 -0.1,0.8 l 1.8,3.2 -0.7,-0.6 C 24.2,20 23.8,20 23.6,20.1 l -4.5,2.4 c -0.2,0.1 -0.4,0.3 -0.4,0.6 0,0.2 0.1,0.5 0.3,0.6 z m 20.9,-14.1 3.6,-0.1 -4,9 -3.6,0.9 z M 39,14.8 43,12.7 41.8,26.5 40.2,26.9 38.6,22.5 Z M 33.8,14 38.7,27.3 35.2,28.2 30.5,16.8 Z m -3.9,5.5 3.1,7.6 -4.7,-3.7 -2.9,-5 z m -6,2.1 9,7.2 -4.1,1 -7.9,-6.6 z"
   class="st3"
   inkscape:connector-curvature="0"
   style="fill:#1d1d1b" />
</g><path
     id="path848"
     d="m 46.6,44.6 h -0.3 c -0.7,-4.4 -4.8,-8.1 -10.5,-9.5 -1.5,-0.4 -3.7,0.1 -4.8,0.6 -0.1,0.1 -0.2,0.1 -0.3,0 -0.9,-0.4 -3.2,-1.1 -5.5,-0.4 -5.4,1.6 -9.1,5.2 -9.7,9.3 h -1.2 c -1.4,0 -2.5,1.1 -2.5,2.5 v 1.6 c 0,1.4 1.1,2.5 2.5,2.5 H 16 c 1.4,4.1 5.9,6 14.9,6.3 0.6,0 1.2,0 1.7,0 5.6,0 9.3,-1 11.4,-3 0.9,-0.9 1.5,-1.9 1.9,-3.2 h 0.7 c 1.4,0 2.5,-1.1 2.5,-2.5 v -1.6 c 0,-1.5 -1.1,-2.6 -2.5,-2.6 z m -2.5,6.6 c -0.3,0.8 -0.7,1.5 -1.3,2 -2,1.9 -5.9,2.7 -11.9,2.5 -7.8,-0.2 -11.7,-1.6 -13.1,-4.6 h 26.3 z m 0.5,-6.6 H 17.2 c 0.7,-3.4 3.9,-6.3 8.5,-7.7 0.5,-0.1 1,-0.2 1.5,-0.2 1.2,0 2.3,0.4 2.9,0.6 0.5,0.2 1.1,0.2 1.6,0 0.9,-0.4 2.7,-0.8 3.7,-0.5 4.9,1.2 8.5,4.2 9.2,7.8 z"
     class="st3"
     inkscape:connector-curvature="0"
     style="fill:#1d1d1b" /></g>
</svg>