<?xml version="1.0" encoding="utf-8"?>
<!-- Generator: Adobe Illustrator 24.1.0, SVG Export Plug-In . SVG Version: 6.00 Build 0)  -->
<svg version="1.1"
	 id="svg2" xmlns:cc="http://creativecommons.org/ns#" xmlns:dc="http://purl.org/dc/elements/1.1/" xmlns:rdf="http://www.w3.org/1999/02/22-rdf-syntax-ns#" xmlns:svg="http://www.w3.org/2000/svg"
	 xmlns="http://www.w3.org/2000/svg" xmlns:xlink="http://www.w3.org/1999/xlink" x="0px" y="0px" viewBox="0 0 70.9 70.9"
	 style="enable-background:new 0 0 70.9 70.9;" xml:space="preserve">
<style type="text/css">
	.st0{fill:#0069B4;}
	.st1{fill:none;stroke:#FFFFFF;stroke-width:1.2;stroke-miterlimit:10;}
	.st2{fill:#FFFFFF;}
</style>
<rect class="st0" width="70.9" height="70.9"/>
<path class="st1" d="M62.7,67.8H8.2c-2.8,0-5.1-2.3-5.1-5.1V8.2c0-2.8,2.3-5.1,5.1-5.1h54.5c2.8,0,5.1,2.3,5.1,5.1v54.5
	C67.8,65.5,65.5,67.8,62.7,67.8z"/>
<g>
	<path class="st2" d="M39.1,12.5c2.9,0,5.4,0.4,7.4,1.3c2,0.8,3.7,2,5,3.3c1.3,1.4,2.2,3,2.8,4.7c0.6,1.8,0.9,3.6,0.9,5.5
		c0,1.9-0.3,3.7-0.9,5.5c-0.6,1.8-1.5,3.4-2.8,4.8c-1.3,1.4-2.9,2.5-5,3.3c-2,0.8-4.5,1.3-7.4,1.3H28.4v16.6H18.2V12.5H39.1z
		 M36.3,34.3c1.2,0,2.3-0.1,3.4-0.3c1.1-0.2,2-0.5,2.9-1c0.8-0.5,1.5-1.2,2-2.1c0.5-0.9,0.7-2.1,0.7-3.6c0-1.5-0.2-2.7-0.7-3.6
		c-0.5-0.9-1.2-1.6-2-2.1c-0.8-0.5-1.8-0.8-2.9-1c-1.1-0.2-2.2-0.3-3.4-0.3h-7.9v13.9H36.3z"/>
</g>
</svg>
