<?xml version="1.0" encoding="UTF-8" standalone="no"?>
<!-- Generator: Adobe Illustrator 24.1.0, SVG Export Plug-In . SVG Version: 6.00 Build 0)  -->

<svg
   xmlns:dc="http://purl.org/dc/elements/1.1/"
   xmlns:cc="http://creativecommons.org/ns#"
   xmlns:rdf="http://www.w3.org/1999/02/22-rdf-syntax-ns#"
   xmlns:svg="http://www.w3.org/2000/svg"
   xmlns="http://www.w3.org/2000/svg"
   xmlns:sodipodi="http://sodipodi.sourceforge.net/DTD/sodipodi-0.dtd"
   xmlns:inkscape="http://www.inkscape.org/namespaces/inkscape"
   version="1.1"
   id="svg2"
   x="0px"
   y="0px"
   viewBox="0 0 125 125"
   xml:space="preserve"
   sodipodi:docname="206.svg"
   width="125"
   height="125"
   inkscape:version="0.92.5 (2060ec1f9f, 2020-04-08)"><metadata
   id="metadata905"><rdf:RDF><cc:Work
       rdf:about=""><dc:format>image/svg+xml</dc:format><dc:type
         rdf:resource="http://purl.org/dc/dcmitype/StillImage" /><dc:title></dc:title></cc:Work></rdf:RDF></metadata><defs
   id="defs903" /><sodipodi:namedview
   pagecolor="#ffffff"
   bordercolor="#666666"
   borderopacity="1"
   objecttolerance="10"
   gridtolerance="10"
   guidetolerance="10"
   inkscape:pageopacity="0"
   inkscape:pageshadow="2"
   inkscape:window-width="1920"
   inkscape:window-height="1017"
   id="namedview901"
   showgrid="false"
   inkscape:zoom="11.960507"
   inkscape:cx="35.450001"
   inkscape:cy="35.450001"
   inkscape:window-x="-8"
   inkscape:window-y="-8"
   inkscape:window-maximized="1"
   inkscape:current-layer="svg2" />
<style
   type="text/css"
   id="style890">
	.st0{fill:#0069B4;}
	.st1{fill:none;stroke:#FFFFFF;stroke-width:1.2;stroke-miterlimit:10;}
	.st2{fill:#FFFFFF;}
</style>


<g
   id="g911"
   transform="matrix(0.91678418,0,0,0.91678418,30,30)"><rect
     id="rect892"
     height="70.900002"
     width="70.900002"
     class="st0"
     x="0"
     y="0"
     style="fill:#0069b4" /><path
     id="path894"
     d="M 62.7,67.8 H 8.2 C 5.4,67.8 3.1,65.5 3.1,62.7 V 8.2 C 3.1,5.4 5.4,3.1 8.2,3.1 h 54.5 c 2.8,0 5.1,2.3 5.1,5.1 v 54.5 c 0,2.8 -2.3,5.1 -5.1,5.1 z"
     class="st1"
     inkscape:connector-curvature="0"
     style="fill:none;stroke:#ffffff;stroke-width:1.20000005;stroke-miterlimit:10" /><g
     id="g898">
	<path
   id="path896"
   d="m 39.1,12.5 c 2.9,0 5.4,0.4 7.4,1.3 2,0.8 3.7,2 5,3.3 1.3,1.4 2.2,3 2.8,4.7 0.6,1.8 0.9,3.6 0.9,5.5 0,1.9 -0.3,3.7 -0.9,5.5 -0.6,1.8 -1.5,3.4 -2.8,4.8 -1.3,1.4 -2.9,2.5 -5,3.3 -2,0.8 -4.5,1.3 -7.4,1.3 H 28.4 V 58.8 H 18.2 V 12.5 Z m -2.8,21.8 c 1.2,0 2.3,-0.1 3.4,-0.3 1.1,-0.2 2,-0.5 2.9,-1 0.8,-0.5 1.5,-1.2 2,-2.1 0.5,-0.9 0.7,-2.1 0.7,-3.6 0,-1.5 -0.2,-2.7 -0.7,-3.6 -0.5,-0.9 -1.2,-1.6 -2,-2.1 -0.8,-0.5 -1.8,-0.8 -2.9,-1 -1.1,-0.2 -2.2,-0.3 -3.4,-0.3 h -7.9 v 13.9 h 7.9 z"
   class="st2"
   inkscape:connector-curvature="0"
   style="fill:#ffffff" />
</g></g>
</svg>