<?xml version="1.0" encoding="UTF-8" standalone="no"?>
<!-- Created with Inkscape (http://www.inkscape.org/) -->

<svg
   xmlns:dc="http://purl.org/dc/elements/1.1/"
   xmlns:cc="http://creativecommons.org/ns#"
   xmlns:rdf="http://www.w3.org/1999/02/22-rdf-syntax-ns#"
   xmlns:svg="http://www.w3.org/2000/svg"
   xmlns="http://www.w3.org/2000/svg"
   xmlns:sodipodi="http://sodipodi.sourceforge.net/DTD/sodipodi-0.dtd"
   xmlns:inkscape="http://www.inkscape.org/namespaces/inkscape"
   version="1.1"
   width="70.862503"
   height="30.8125"
   id="svg2"
   xml:space="preserve"
   inkscape:version="0.48.5 r10040"
   sodipodi:docname="Tb1.009.svg"><sodipodi:namedview
     pagecolor="#ffffff"
     bordercolor="#666666"
     borderopacity="1"
     objecttolerance="10"
     gridtolerance="10"
     guidetolerance="10"
     inkscape:pageopacity="0"
     inkscape:pageshadow="2"
     inkscape:window-width="1600"
     inkscape:window-height="838"
     id="namedview3034"
     showgrid="false"
     inkscape:zoom="4.035985"
     inkscape:cx="51.026781"
     inkscape:cy="21.929867"
     inkscape:window-x="-8"
     inkscape:window-y="-8"
     inkscape:window-maximized="1"
     inkscape:current-layer="svg2" /><metadata
     id="metadata8"><rdf:RDF><cc:Work
         rdf:about=""><dc:format>image/svg+xml</dc:format><dc:type
           rdf:resource="http://purl.org/dc/dcmitype/StillImage" /><dc:title></dc:title></cc:Work></rdf:RDF></metadata><defs
     id="defs6"><clipPath
       id="clipPath18"><path
         d="m 0,0 566.934,0 0,246 L 0,246 0,0 z"
         id="path20" /></clipPath></defs><g
     transform="matrix(1.25,0,0,-1.25,0,30.8125)"
     id="g10"><path
       d="M 1.8959867,2.6096978 64.22655,2.8466961 68.729518,8.5346562 68.966516,23.465552 65.174543,27.257525 2.132985,27.494523 z"
       transform="matrix(0.8,0,0,-0.8,0,24.65)"
       id="path3001"
       style="fill:#ffffff;fill-opacity:1;stroke:none" /><g
       transform="scale(0.1,0.1)"
       id="g12"><g
         id="g14"><g
           clip-path="url(#clipPath18)"
           id="g16"><path
             d="m 448.73,214.977 c 0,-4.278 0,-12.165 0,-12.165 0,0 52.325,-0.019 61.094,-0.019 21.543,-16.305 25.567,-27.145 25.567,-32.164 l 0.039,-94.711 c 0,-7.9805 -10.45,-20.3321 -25.879,-32.1602 -9.219,0 -60.703,0 -60.703,0 0,0 0,-7.957 -0.039,-12.1875 -15.235,0 -32.911,0 -48.223,0 0,4.2891 0,12.1485 0,12.1485 l -267.152,0 c 0,0 0,-7.9766 0,-12.2266 -15.485,0 -33.852,0 -49.3246,0 0,4.2695 -0.0078,12.207 -0.0078,12.207 0,0 -37.086,-0.039 -52.5352,-0.039 -0.0078,24.1132 -0.0469,134.9178 -0.0586,159.0388 15.461,0.012 52.5664,0.02 52.5664,0.02 0,0 0,7.922 0,12.187 15.4766,0 33.8478,0 49.3208,0 0,-4.277 0,-12.176 0,-12.176 l 267.152,0.028 c 0,0 0,7.961 0,12.207 15.312,0 32.91,0.012 48.183,0.012 z m 15.762,31.496 -95.43,-0.02 c 0,0 0,-7.949 0,-12.207 -25.449,0 -178.707,-0.008 -204.175,-0.019 0,4.277 0,12.168 0,12.168 l -112.305,0 c 0,0 0,-7.93 0,-12.188 C 37.125,234.199 0,234.188 0,234.188 L 0.078125,12.1289 c 0,0 37.105475,0.0391 52.554675,0.0391 C 52.6328,7.92188 52.6406,0 52.6406,0 L 164.926,0 c 0,0 0,7.97656 0,12.2266 25.461,0 178.726,0 204.176,0 0,-4.2891 0,-12.148475 0,-12.148475 l 111.113,0 c 0,0 0.039,7.957035 0.039,12.187475 15,0 40.234,0 40.234,0 l 4.102,2.9375 c 19.316,13.7891 42.305,35.5274 42.344,60.6758 l -0.039,94.7501 c 0,20.543 -13.848,40.41 -42.422,60.734 l -4.063,2.922 c 0,0 -25.156,0.012 -40.195,0.02 0,4.269 0,12.179 0,12.179 l -15.723,-0.011"
             id="path22"
             style="fill:#ed1c24;fill-opacity:1;fill-rule:nonzero;stroke:none" /><path
             d="m 462.617,62.4219 32.285,1.7656 c 0,0 6.114,33.957 6.075,59.9175 0,25.899 -6.114,58.52 -6.114,58.52 l -32.285,2.691 0.039,-122.8941"
             id="path24"
             style="fill:#ed1c24;fill-opacity:1;fill-rule:nonzero;stroke:none" /></g></g></g></g><text
     xml:space="preserve"
     style="font-size:40px;font-style:normal;font-weight:normal;line-height:125%;letter-spacing:0px;word-spacing:0px;fill:#ed1c24;fill-opacity:1;stroke:none;font-family:Sans"
     x="16.600657"
     y="23.131599"
     id="text3036"
     sodipodi:linespacing="125%"><tspan
       sodipodi:role="line"
       id="tspan3038"
       x="16.600657"
       y="23.131599"
       style="font-size:22px;letter-spacing:0px;font-weight:bold;-inkscape-font-specification:Sans Bold;fill:#ed1c24;fill-opacity:1">RV</tspan></text>
</svg>