<?xml version="1.0" encoding="UTF-8" standalone="no"?>
<!-- Created with Inkscape (http://www.inkscape.org/) -->

<svg
   xmlns:dc="http://purl.org/dc/elements/1.1/"
   xmlns:cc="http://creativecommons.org/ns#"
   xmlns:rdf="http://www.w3.org/1999/02/22-rdf-syntax-ns#"
   xmlns:svg="http://www.w3.org/2000/svg"
   xmlns="http://www.w3.org/2000/svg"
   xmlns:sodipodi="http://sodipodi.sourceforge.net/DTD/sodipodi-0.dtd"
   xmlns:inkscape="http://www.inkscape.org/namespaces/inkscape"
   version="1.1"
   width="125"
   height="125"
   id="svg2"
   xml:space="preserve"
   inkscape:version="0.92.5 (2060ec1f9f, 2020-04-08)"
   sodipodi:docname="Redvoertuig.svg"><sodipodi:namedview
   pagecolor="#ffffff"
   bordercolor="#666666"
   borderopacity="1"
   objecttolerance="10"
   gridtolerance="10"
   guidetolerance="10"
   inkscape:pageopacity="0"
   inkscape:pageshadow="2"
   inkscape:window-width="1920"
   inkscape:window-height="1017"
   id="namedview3034"
   showgrid="false"
   inkscape:zoom="4.035985"
   inkscape:cx="9.2773691"
   inkscape:cy="21.929867"
   inkscape:window-x="-8"
   inkscape:window-y="-8"
   inkscape:window-maximized="1"
   inkscape:current-layer="svg2" /><metadata
   id="metadata8"><rdf:RDF><cc:Work
       rdf:about=""><dc:format>image/svg+xml</dc:format><dc:type
         rdf:resource="http://purl.org/dc/dcmitype/StillImage" /><dc:title></dc:title></cc:Work></rdf:RDF></metadata><defs
   id="defs6"><clipPath
     id="clipPath18"><path
       d="M 0,0 H 566.934 V 246 H 0 Z"
       id="path20"
       inkscape:connector-curvature="0" /></clipPath></defs><g
   id="g10889"
   transform="translate(30.000001,-48.39783)"><g
     id="g10"
     transform="matrix(1.1465179,0,0,-1.1465179,0,125)"><path
       inkscape:connector-curvature="0"
       style="fill:#ffffff;fill-opacity:1;stroke:none"
       id="path3001"
       transform="matrix(0.8,0,0,-0.8,0,24.65)"
       d="M 1.8959867,2.6096978 64.22655,2.8466961 68.729518,8.5346562 68.966516,23.465552 65.174543,27.257525 2.132985,27.494523 Z" /><g
       id="g12"
       transform="scale(0.1)"><g
         id="g14"><g
           id="g16"
           clip-path="url(#clipPath18)"><path
             inkscape:connector-curvature="0"
             style="fill:#ed1c24;fill-opacity:1;fill-rule:nonzero;stroke:none"
             id="path22"
             d="m 448.73,214.977 c 0,-4.278 0,-12.165 0,-12.165 0,0 52.325,-0.019 61.094,-0.019 21.543,-16.305 25.567,-27.145 25.567,-32.164 l 0.039,-94.711 c 0,-7.9805 -10.45,-20.3321 -25.879,-32.1602 -9.219,0 -60.703,0 -60.703,0 0,0 0,-7.957 -0.039,-12.1875 -15.235,0 -32.911,0 -48.223,0 0,4.2891 0,12.1485 0,12.1485 H 133.434 c 0,0 0,-7.9766 0,-12.2266 -15.485,0 -33.852,0 -49.3246,0 0,4.2695 -0.0078,12.207 -0.0078,12.207 0,0 -37.086,-0.039 -52.5352,-0.039 -0.0078,24.1132 -0.0469,134.9178 -0.0586,159.0388 15.461,0.012 52.5664,0.02 52.5664,0.02 0,0 0,7.922 0,12.187 15.4766,0 33.8478,0 49.3208,0 0,-4.277 0,-12.176 0,-12.176 l 267.152,0.028 c 0,0 0,7.961 0,12.207 15.312,0 32.91,0.012 48.183,0.012 z m 15.762,31.496 -95.43,-0.02 c 0,0 0,-7.949 0,-12.207 -25.449,0 -178.707,-0.008 -204.175,-0.019 0,4.277 0,12.168 0,12.168 H 52.582 c 0,0 0,-7.93 0,-12.188 C 37.125,234.199 0,234.188 0,234.188 L 0.078125,12.1289 c 0,0 37.105475,0.0391 52.554675,0.0391 C 52.6328,7.92188 52.6406,0 52.6406,0 H 164.926 c 0,0 0,7.97656 0,12.2266 25.461,0 178.726,0 204.176,0 0,-4.2891 0,-12.148475 0,-12.148475 h 111.113 c 0,0 0.039,7.957035 0.039,12.187475 15,0 40.234,0 40.234,0 l 4.102,2.9375 c 19.316,13.7891 42.305,35.5274 42.344,60.6758 l -0.039,94.7501 c 0,20.543 -13.848,40.41 -42.422,60.734 l -4.063,2.922 c 0,0 -25.156,0.012 -40.195,0.02 0,4.269 0,12.179 0,12.179 l -15.723,-0.011" /><path
             inkscape:connector-curvature="0"
             style="fill:#ed1c24;fill-opacity:1;fill-rule:nonzero;stroke:none"
             id="path24"
             d="m 462.617,62.4219 32.285,1.7656 c 0,0 6.114,33.957 6.075,59.9175 0,25.899 -6.114,58.52 -6.114,58.52 l -32.285,2.691 0.039,-122.8941" /></g></g></g></g><text
     id="text3036"
     y="117.95497"
     x="15.22636"
     style="font-style:normal;font-weight:normal;font-size:11.00657177px;line-height:0%;font-family:sans-serif;letter-spacing:0px;word-spacing:0px;fill:#ed1c24;fill-opacity:1;stroke:none;stroke-width:0.91721433"
     xml:space="preserve"><tspan
       style="font-weight:bold;font-size:20.17871475px;line-height:1.25;font-family:sans-serif;-inkscape-font-specification:'Sans Bold';letter-spacing:0px;fill:#ed1c24;fill-opacity:1;stroke-width:0.91721433"
       y="117.95497"
       x="15.22636"
       id="tspan3038"
       sodipodi:role="line">RV</tspan></text>
</g>
</svg>