<?xml version="1.0" encoding="UTF-8" standalone="no"?>
<!-- Created with Inkscape (http://www.inkscape.org/) -->

<svg
   xmlns:dc="http://purl.org/dc/elements/1.1/"
   xmlns:cc="http://creativecommons.org/ns#"
   xmlns:rdf="http://www.w3.org/1999/02/22-rdf-syntax-ns#"
   xmlns:svg="http://www.w3.org/2000/svg"
   xmlns="http://www.w3.org/2000/svg"
   version="1.1"
   width="70.862503"
   height="28.450001"
   id="svg2"
   xml:space="preserve"><metadata
     id="metadata8"><rdf:RDF><cc:Work
         rdf:about=""><dc:format>image/svg+xml</dc:format><dc:type
           rdf:resource="http://purl.org/dc/dcmitype/StillImage" /><dc:title></dc:title></cc:Work></rdf:RDF></metadata><defs
     id="defs6"><clipPath
       id="clipPath18"><path
         d="M 0,227.562 0,0 l 566.934,0 0,227.562 -566.934,0 z"
         id="path20" /></clipPath></defs><g
     transform="matrix(1.25,0,0,-1.25,0,28.45)"
     id="g10"><rect
       width="9.2429352"
       height="19.670862"
       rx="0.4204641"
       x="56.642601"
       y="4.0391722"
       transform="matrix(0.8,0,0,-0.8,0,22.76)"
       id="rect3001"
       style="color:#000000;fill:#ffffff;fill-opacity:1;fill-rule:nonzero;stroke:none;stroke-width:1;marker:none;visibility:visible;display:inline;overflow:visible;enable-background:accumulate" /><g
       transform="scale(0.1,0.1)"
       id="g12"><g
         id="g14"><g
           clip-path="url(#clipPath18)"
           id="g16"><path
             d="m 141.227,12.9297 249.543,0 0,-12.9297 84.425,0 0,12.9297 53.907,0 c 16.132,11.5312 37.832,31.0937 37.832,50.7031 l 0,100.2892 c 0,20.742 -21.7,39.207 -37.832,50.73 l -53.907,0 0,12.91 -84.425,0 0,-12.91 -249.543,0 0,12.91 -85.5825,0 0,-12.91 -55.6445,0 0,-201.7223 55.6445,0 0,-12.9297 85.5825,0 0,12.9297"
             id="path22"
             style="fill:#ed1c24;fill-opacity:1;fill-rule:nonzero;stroke:none" /><path
             d="m 473.125,51.5625 34.238,1.9141 c 0,0 6.446,35.957 6.446,63.3984 0,27.437 -6.446,62.031 -6.446,62.031 l -34.238,2.828 0,-130.1715"
             id="path24"
             style="fill:#ffffff;fill-opacity:1;fill-rule:nonzero;stroke:none" /></g></g></g></g></svg>