<?xml version="1.0" encoding="UTF-8" standalone="no"?>
<!-- Created with Inkscape (http://www.inkscape.org/) -->

<svg
   xmlns:dc="http://purl.org/dc/elements/1.1/"
   xmlns:cc="http://creativecommons.org/ns#"
   xmlns:rdf="http://www.w3.org/1999/02/22-rdf-syntax-ns#"
   xmlns:svg="http://www.w3.org/2000/svg"
   xmlns="http://www.w3.org/2000/svg"
   xmlns:sodipodi="http://sodipodi.sourceforge.net/DTD/sodipodi-0.dtd"
   xmlns:inkscape="http://www.inkscape.org/namespaces/inkscape"
   version="1.0"
   width="775.60504"
   height="775.54199"
   viewBox="0 0 581.7038 581.65652"
   id="svg8"
   sodipodi:docname="GHS02_flammable_substances.svg"
   inkscape:version="0.92.3 (unknown)"
   inkscape:export-filename="/media/juhele/data_2TB/_GRAFIKA/GHS hazard symbols/GHS02_flammable_substances.png"
   inkscape:export-xdpi="99.027519"
   inkscape:export-ydpi="99.027519">
  <title
     id="title821">Globally Harmonized System of Classification and Labelling of Chemicals (GHS) pictogram for flammable substances</title>
  <metadata
     id="metadata14">
    <rdf:RDF>
      <cc:Work
         rdf:about="">
        <dc:format>image/svg+xml</dc:format>
        <dc:type
           rdf:resource="http://purl.org/dc/dcmitype/StillImage" />
        <dc:title>Globally Harmonized System of Classification and Labelling of Chemicals (GHS) pictogram for flammable substances</dc:title>
        <dc:description>Official hazard symbols according to directive (EC) No 1272/2008 by the European Chemicals Bureau 
The Globally Harmonized System of Classification and Labelling of Chemicals (GHS) is an internationally agreed-upon standard managed by the United Nations that was set up to replace the assortment of hazardous material classification and labelling schemes previously used around the world.
https://en.wikipedia.org/wiki/Globally_Harmonized_System_of_Classification_and_Labelling_of_Chemicals

symbols (Public Domain)
https://commons.wikimedia.org/wiki/GHS_hazard_symbols</dc:description>
        <dc:source>EPS file flamme.eps from UNECE web site converted with ImageMagick convert and with potrace, edited and flame redrawn in inkscape</dc:source>
        <dc:subject>
          <rdf:Bag>
            <rdf:li>GHS</rdf:li>
            <rdf:li>explosive</rdf:li>
            <rdf:li>flammable</rdf:li>
            <rdf:li>gas</rdf:li>
            <rdf:li>corrosive</rdf:li>
            <rdf:li>acid</rdf:li>
            <rdf:li>harmful</rdf:li>
            <rdf:li>health</rdf:li>
            <rdf:li>pollution</rdf:li>
            <rdf:li>contamination</rdf:li>
            <rdf:li>nature</rdf:li>
            <rdf:li>toxic</rdf:li>
            <rdf:li>hazard</rdf:li>
            <rdf:li>warning</rdf:li>
            <rdf:li>label</rdf:li>
            <rdf:li>chemical</rdf:li>
            <rdf:li>pictogram</rdf:li>
            <rdf:li>symbol</rdf:li>
            <rdf:li>danger</rdf:li>
          </rdf:Bag>
        </dc:subject>
        <cc:license
           rdf:resource="http://creativecommons.org/publicdomain/zero/1.0/" />
      </cc:Work>
      <cc:License
         rdf:about="http://creativecommons.org/publicdomain/zero/1.0/">
        <cc:permits
           rdf:resource="http://creativecommons.org/ns#Reproduction" />
        <cc:permits
           rdf:resource="http://creativecommons.org/ns#Distribution" />
        <cc:permits
           rdf:resource="http://creativecommons.org/ns#DerivativeWorks" />
      </cc:License>
    </rdf:RDF>
  </metadata>
  <defs
     id="defs12" />
  <sodipodi:namedview
     pagecolor="#ffffff"
     bordercolor="#666666"
     borderopacity="1"
     objecttolerance="10"
     gridtolerance="10"
     guidetolerance="10"
     inkscape:pageopacity="0"
     inkscape:pageshadow="2"
     inkscape:window-width="1920"
     inkscape:window-height="1140"
     id="namedview10"
     showgrid="false"
     units="px"
     fit-margin-top="10"
     fit-margin-left="10"
     fit-margin-bottom="10"
     fit-margin-right="10"
     inkscape:zoom="0.61139896"
     inkscape:cx="27.652844"
     inkscape:cy="237.20354"
     inkscape:window-x="0"
     inkscape:window-y="0"
     inkscape:window-maximized="1"
     inkscape:current-layer="svg8" />
  <g
     id="g832"
     transform="translate(1.475,1.0815306)">
    <path
       id="path815"
       style="fill:#ffffff;stroke:none"
       d="M 25.301165,289.67172 289.32987,553.70044 553.40261,289.6277 C 465.35022,201.6757 377.47182,113.54942 289.3739,25.643024 Z"
       inkscape:connector-curvature="0" />
    <path
       id="path817"
       style="fill:#ff0000;stroke:none"
       d="M 147.65941,148.01233 6,289.67173 147.66886,431.34059 289.32827,573 431.01602,431.31224 572.70378,289.62449 431.06327,147.98398 C 353.16571,70.086424 289.40386,6.34347 289.37551,6.34347 c -0.0284,0 -63.79965,63.752403 -141.7161,141.66886 z M 408.62189,170.42535 527.82103,289.62449 408.57465,408.87087 289.31882,528.1267 170.12913,408.87087 50.939444,289.61504 170.13858,170.41591 C 235.69574,104.85874 289.34716,51.22622 289.37551,51.22622 c 0.0283,0 53.68922,53.64197 119.24638,119.19913 z"
       inkscape:connector-curvature="0" />
    <path
       id="path819"
       style="fill:#000000;stroke:none"
       transform="scale(0.8)"
       d="m 361.90625,151.71875 c -21.97671,41.97446 4.80086,65.66838 -24.71875,127.5 -15.66202,-12.51358 -6.58224,-59.27877 -37.6875,-60.0625 4.78696,14.36089 1.20407,19.93912 0.40625,25.125 -3.09414,20.11189 -10.27447,38.08529 3.6875,64.8125 -21.44769,-10.42044 -21.80367,-29.54028 -39.9375,-41.53125 3.59022,20.3446 -5.05551,61.59867 19.03125,101.125 -21.4634,-2.11113 -28.5816,-10.36205 -51.8125,-32.625 24.24474,125.59567 42.28191,129.12387 131.1875,136.25 -6.69856,-0.78528 -51.49428,-7.93919 -67.71875,-59.5625 -0.92088,-12.78254 -1.42642,11.23343 41.65625,12.03125 -27.27922,-43.20279 -19.84756,-35.02469 -16.65625,-60.15625 11.29265,17.19944 1.3994,18.70351 33.3125,31.46875 -10.11823,-32.14696 15.61604,-54.14369 10.03125,-90.84375 7.05157,16.11791 32.13424,13.57949 30.9375,90.96875 20.76835,-23.17028 23.2459,-7.1331 33.21875,-33.0625 0.57762,14.43551 6.91343,32.40954 -21.3125,62 7.18045,1.99457 19.20322,3.53915 38.75,-9.625 -19.03226,21.56989 -1.83119,22.07856 -49.96875,57.375 60.63489,0.79782 100.45931,-37.37162 99.03125,-121.25 -1.59565,7.18045 -3.38283,21.5182 -36.09375,25.90625 20.48991,-20.36032 31.16796,-60.8975 14.8125,-94.40625 -5.75854,5.35573 -14.70866,30.25705 -36.25,37.4375 10.92635,-17.92607 8.46875,-41.125 8.46875,-41.125 0,0 2.78752,-31.33249 -15.71875,-55.53125 -5.18588,37.8968 -4.75267,56.9538 -28.6875,62.9375 3.8518,-22.36642 4.56116,-32.78203 -7.40625,-58.3125 -12.49935,-26.66526 -26.97228,-52.90893 -30.5625,-76.84375 z m -100.125,342.25 v 10.96875 11 H 368.5 475.21875 l -0.0312,-10.96875 -0.0312,-10.9375 L 368.5,494 Z"
       inkscape:connector-curvature="0" />
  </g>
</svg>
