<?xml version="1.0" encoding="UTF-8" standalone="no"?>
<svg
   xmlns:dc="http://purl.org/dc/elements/1.1/"
   xmlns:cc="http://creativecommons.org/ns#"
   xmlns:rdf="http://www.w3.org/1999/02/22-rdf-syntax-ns#"
   xmlns:svg="http://www.w3.org/2000/svg"
   xmlns="http://www.w3.org/2000/svg"
   xmlns:sodipodi="http://sodipodi.sourceforge.net/DTD/sodipodi-0.dtd"
   xmlns:inkscape="http://www.inkscape.org/namespaces/inkscape"
   stroke-miterlimit="2"
   version="1.1"
   viewBox="0 0 125 125"
   xml:space="preserve"
   id="svg6860"
   sodipodi:docname="4.svg"
   width="125"
   height="125"
   style="clip-rule:evenodd;fill-rule:evenodd;stroke-linejoin:round;stroke-miterlimit:2"
   inkscape:version="0.92.5 (2060ec1f9f, 2020-04-08)"><defs
   id="defs6864" /><sodipodi:namedview
   pagecolor="#ffffff"
   bordercolor="#666666"
   borderopacity="1"
   objecttolerance="10"
   gridtolerance="10"
   guidetolerance="10"
   inkscape:pageopacity="0"
   inkscape:pageshadow="2"
   inkscape:window-width="1920"
   inkscape:window-height="1017"
   id="namedview6862"
   showgrid="false"
   inkscape:zoom="0.40759931"
   inkscape:cx="289.5"
   inkscape:cy="289.5"
   inkscape:window-x="-8"
   inkscape:window-y="-8"
   inkscape:window-maximized="1"
   inkscape:current-layer="svg6860" /><metadata
   id="metadata6850"><rdf:RDF><cc:Work
       rdf:about=""><dc:format>image/svg+xml</dc:format><dc:type
         rdf:resource="http://purl.org/dc/dcmitype/StillImage" /><dc:title></dc:title></cc:Work></rdf:RDF></metadata>
    
        
        
        <g
   id="g7413"
   transform="matrix(0.11469711,0,0,0.11470723,29.311818,29.272757)"><path
     id="path6852"
     d="M 25.301,289.67 289.331,553.7 553.401,289.63 C 465.348,201.678 377.471,113.55 289.371,25.65 L 25.301,289.68 Z"
     inkscape:connector-curvature="0"
     style="fill:#ffffff;fill-rule:nonzero" /><path
     id="path6854"
     d="M 147.66,148.01 6,289.67 289.33,573 572.71,289.62 431.07,147.98 C 353.173,70.082 289.41,6.34 289.38,6.34 c -0.029,0 -63.8,63.753 -141.72,141.67 z m 260.96,22.413 119.2,119.2 -238.5,238.5 L 170.13,408.863 50.95,289.603 170.14,170.413 c 65.557,-65.557 119.21,-119.19 119.24,-119.19 0.028,0 53.689,53.642 119.25,119.2 z"
     inkscape:connector-curvature="0"
     style="fill:#ff0000;fill-rule:nonzero" /><g
     id="g6858"
     transform="scale(0.8)">
            <path
   id="path6856"
   d="m 437.62,288 c -0.969,-0.003 -1.948,0.044 -2.562,0.156 -1.193,0.225 -231.27,61.994 -232.09,62.313 -6.52,2.563 -10.896,9.67 -12.219,19.875 -0.272,2.067 -0.399,5.84 -0.281,8.25 0.189,3.909 0.699,7.239 1.656,11.125 3.898,15.827 13.746,28.263 24.281,30.625 1.229,0.271 4.116,0.349 5.344,0.125 1.039,-0.177 229.03,-61.311 231.34,-62.031 4.405,-1.371 7.723,-4.446 10.156,-9.407 1.358,-2.752 2.178,-5.415 2.875,-9.312 0.555,-3.071 1.033,-4.391 2.344,-6.375 1.594,-2.422 4.357,-4.486 7.156,-5.313 0.461,-0.13 11.84,-3.179 25.281,-6.781 13.441,-3.614 24.728,-6.71 25.094,-6.875 5.433,-2.492 7.411,-10.428 4.281,-17.125 -1.724,-3.673 -4.849,-6.385 -8.156,-7.094 -1.122,-0.236 -2.835,-0.209 -3.969,0.063 -0.519,0.13 -11.713,3.124 -24.906,6.656 -13.181,3.543 -24.271,6.511 -24.625,6.594 -0.425,0.106 -1.36,0.156 -2.719,0.156 -2.268,-0.012 -3.138,-0.162 -4.968,-0.906 -2.292,-0.945 -3.736,-2.096 -6.063,-4.813 -3.484,-4.063 -6.629,-6.627 -10.125,-8.281 -1.5,-0.697 -3.114,-1.221 -4.531,-1.469 -0.65,-0.112 -1.625,-0.153 -2.594,-0.156 z"
   inkscape:connector-curvature="0"
   style="fill-rule:nonzero" />
        </g></g>
    
</svg>