<?xml version="1.0" encoding="UTF-8" standalone="no"?>
<!-- Created with Inkscape (http://www.inkscape.org/) -->

<svg
   xmlns:dc="http://purl.org/dc/elements/1.1/"
   xmlns:cc="http://creativecommons.org/ns#"
   xmlns:rdf="http://www.w3.org/1999/02/22-rdf-syntax-ns#"
   xmlns:svg="http://www.w3.org/2000/svg"
   xmlns="http://www.w3.org/2000/svg"
   xmlns:sodipodi="http://sodipodi.sourceforge.net/DTD/sodipodi-0.dtd"
   xmlns:inkscape="http://www.inkscape.org/namespaces/inkscape"
   version="1.0"
   width="125"
   height="125"
   viewBox="0 0 93.750003 93.750004"
   id="svg8"
   sodipodi:docname="5.svg"
   inkscape:version="0.92.5 (2060ec1f9f, 2020-04-08)"
   inkscape:export-filename="/media/juhele/data_2TB/_GRAFIKA/GHS hazard symbols/GHS05_corrosive_substances.png"
   inkscape:export-xdpi="99.027519"
   inkscape:export-ydpi="99.027519">
  <title
     id="title821">Globally Harmonized System of Classification and Labelling of Chemicals (GHS) pictogram for corrosive substances</title>
  <metadata
     id="metadata14">
    <rdf:RDF>
      <cc:Work
         rdf:about="">
        <dc:format>image/svg+xml</dc:format>
        <dc:type
           rdf:resource="http://purl.org/dc/dcmitype/StillImage" />
        <dc:title>Globally Harmonized System of Classification and Labelling of Chemicals (GHS) pictogram for corrosive substances</dc:title>
        <dc:description>Official hazard symbols according to directive (EC) No 1272/2008 by the European Chemicals Bureau 
The Globally Harmonized System of Classification and Labelling of Chemicals (GHS) is an internationally agreed-upon standard managed by the United Nations that was set up to replace the assortment of hazardous material classification and labelling schemes previously used around the world.
https://en.wikipedia.org/wiki/Globally_Harmonized_System_of_Classification_and_Labelling_of_Chemicals

symbols (Public Domain)
https://commons.wikimedia.org/wiki/GHS_hazard_symbols</dc:description>
        <dc:source>EPS file acid.eps from UNECE web site converted with ImageMagick convert and with potrace, edited in inkscape</dc:source>
        <dc:subject>
          <rdf:Bag>
            <rdf:li>GHS</rdf:li>
            <rdf:li>explosive</rdf:li>
            <rdf:li>flammable</rdf:li>
            <rdf:li>gas</rdf:li>
            <rdf:li>corrosive</rdf:li>
            <rdf:li>acid</rdf:li>
            <rdf:li>harmful</rdf:li>
            <rdf:li>health</rdf:li>
            <rdf:li>pollution</rdf:li>
            <rdf:li>contamination</rdf:li>
            <rdf:li>nature</rdf:li>
            <rdf:li>toxic</rdf:li>
            <rdf:li>hazard</rdf:li>
            <rdf:li>warning</rdf:li>
            <rdf:li>label</rdf:li>
            <rdf:li>chemical</rdf:li>
            <rdf:li>pictogram</rdf:li>
            <rdf:li>symbol</rdf:li>
            <rdf:li>danger</rdf:li>
          </rdf:Bag>
        </dc:subject>
        <cc:license
           rdf:resource="http://creativecommons.org/publicdomain/zero/1.0/" />
      </cc:Work>
      <cc:License
         rdf:about="http://creativecommons.org/publicdomain/zero/1.0/">
        <cc:permits
           rdf:resource="http://creativecommons.org/ns#Reproduction" />
        <cc:permits
           rdf:resource="http://creativecommons.org/ns#Distribution" />
        <cc:permits
           rdf:resource="http://creativecommons.org/ns#DerivativeWorks" />
      </cc:License>
    </rdf:RDF>
  </metadata>
  <defs
     id="defs12" />
  <sodipodi:namedview
     pagecolor="#ffffff"
     bordercolor="#666666"
     borderopacity="1"
     objecttolerance="10"
     gridtolerance="10"
     guidetolerance="10"
     inkscape:pageopacity="0"
     inkscape:pageshadow="2"
     inkscape:window-width="1920"
     inkscape:window-height="1017"
     id="namedview10"
     showgrid="false"
     units="px"
     fit-margin-top="10"
     fit-margin-left="10"
     fit-margin-bottom="10"
     fit-margin-right="10"
     inkscape:zoom="0.8646487"
     inkscape:cx="115.36684"
     inkscape:cy="377.26325"
     inkscape:window-x="-8"
     inkscape:window-y="-8"
     inkscape:window-maximized="1"
     inkscape:current-layer="svg8" />
  <g
     id="g893"
     transform="matrix(0.06770834,0,0,0.06770834,21.992187,21.998958)">
    <path
       id="path819-3"
       d="m 367.5,727.4 360,-360 -360,-360 -360,360 z"
       inkscape:connector-curvature="0"
       style="fill:#ff0000" />
    <path
       id="path821"
       d="M 367.5,670.3 64.7,367.5 367.5,64.7 670.3,367.5 Z"
       inkscape:connector-curvature="0"
       style="fill:#ffffff" />
    <path
       id="path823"
       d="m 233.3,384.1 c -11.1,0 -17.9,-3.85 -21.1,-10.13 h -79.98 v 36.56 h 199.3 v -36.56 h -72.5 c -4.93,6.32 -14.54,10.13 -25.76,10.13"
       inkscape:connector-curvature="0" />
    <path
       id="path825"
       d="m 251.7,370.5 c 3.25,0 7.91,-1.57 11.67,-9.1 0.86,-1.71 1.03,-3.89 1.22,-6.2 0.1,-1.2 0.26,-3.13 0.54,-3.87 0.36,-0.25 1.19,-0.61 1.78,-0.87 2.21,-0.97 5.24,-2.29 6.83,-5.47 0.89,-1.78 1.15,-3.54 1.15,-5.22 0,-1.26 -0.15,-2.47 -0.29,-3.62 -0.15,-1.21 -0.28,-2.37 -0.28,-3.57 0,-0.41 0.001,-0.82 0.05,-1.24 0.18,-2.1 3.87,-6.65 7.19,-9.58 l -5.07,-5.77 c -1.54,1.35 -9.23,8.4 -9.78,14.69 -0.21,2.47 0.04,4.56 0.26,6.4 0.26,2.19 0.39,3.48 -0.11,4.48 -0.35,0.69 -1.77,1.32 -3.04,1.87 -1.96,0.86 -4.17,1.82 -5.4,4.07 -1.08,1.99 -1.29,4.58 -1.5,7.09 -0.09,1.15 -0.23,2.9 -0.45,3.42 -0.66,1.31 -1.35,2.37 -2.06,3.16 -0.48,1.32 -1.31,3.21 -2.73,5.25 v 4.08"
       inkscape:connector-curvature="0" />
    <path
       id="path827"
       d="m 241.7,365.7 4.39,6.3 c 2.51,-1.75 4.31,-3.73 5.61,-5.59 1.42,-2.03 2.24,-3.92 2.73,-5.25 0.18,-0.5 0.32,-0.92 0.42,-1.23 0.69,-2.15 0.18,-4.19 -0.27,-5.98 -0.47,-1.88 -0.74,-3.09 -0.22,-4.23 0.6,-1.34 1.62,-2.14 2.91,-3.15 1.47,-1.15 3.3,-2.59 4.44,-5 1.42,-2.98 0.59,-6.27 -0.21,-9.44 -0.56,-2.23 -1.14,-4.54 -0.83,-6.3 l -7.56,-1.34 c -0.15,0.82 -0.21,1.63 -0.21,2.44 0,2.51 0.6,4.91 1.16,7.09 0.31,1.23 0.76,3 0.76,3.9 0,0.16 -0.001,0.29 -0.04,0.39 -0.34,0.72 -1.04,1.29 -2.24,2.24 -1.69,1.33 -3.79,2.98 -5.16,6 -0.71,1.58 -0.95,3.11 -0.95,4.51 0,1.84 0.41,3.47 0.73,4.74 0.15,0.6 0.37,1.48 0.38,1.84 -0.79,2.42 -2.17,5.5 -5.81,8"
       inkscape:connector-curvature="0" />
    <path
       id="path829"
       d="m 208,350 c 0.51,0.95 0.84,1.84 1.06,2.68 0.76,0.49 1.88,1.22 2.1,1.58 0.34,0.9 0.02,3.43 -0.2,5.11 -0.07,0.55 -0.14,1.08 -0.19,1.6 1.83,1.83 4.71,3.95 6.26,4.73 l -2.89,5.79 c 1.43,2.04 3.1,4.08 4.62,5.75 l 5.68,-5.17 c -3.27,-3.6 -5.57,-7.1 -6.12,-8.64 -0.001,-0.07 -0.001,-0.14 -0.001,-0.24 0,-0.67 0.16,-1.95 0.28,-2.84 0.19,-1.51 0.4,-3.12 0.4,-4.71 0,-1.44 -0.17,-2.87 -0.67,-4.18 -1.01,-2.64 -3.38,-4.15 -5.27,-5.36 -1.12,-0.71 -2.65,-1.69 -2.73,-2.31 -0.02,-0.16 -0.03,-0.31 -0.03,-0.47 0,-0.77 0.24,-1.56 0.67,-2.9 0.63,-1.95 1.46,-4.53 1.46,-8.3 0,-0.51 -0.02,-1.04 -0.05,-1.59 l -7.67,0.46 c 0.19,3.2 -0.42,5.08 -1.06,7.1 -0.6,1.87 -1.29,4 -0.96,6.67 0.02,0.13 0.04,0.25 0.06,0.38 1.78,0.94 3.86,2.29 5.25,4.87"
       inkscape:connector-curvature="0" />
    <path
       id="path831"
       d="m 191.8,334.1 c 0.13,1.5 -0.11,2.56 -0.38,3.8 -0.47,2.11 -1.05,4.73 0.69,8.19 1.55,3.09 4.21,4.42 6.15,5.38 1.57,0.78 2.48,1.27 2.99,2.19 0.63,1.16 0.56,1.96 0.44,3.29 -0.14,1.62 -0.34,3.85 1.07,6.25 2.3,3.92 8.29,8.11 10.84,9.38 l 0.54,-1.08 2.89,-5.79 c -1.56,-0.78 -4.44,-2.89 -6.26,-4.73 -0.61,-0.61 -1.1,-1.19 -1.39,-1.68 -0.14,-0.23 -0.15,-0.52 -0.04,-1.67 0.11,-1.24 0.25,-2.94 -0.28,-4.94 -0.22,-0.84 -0.55,-1.74 -1.06,-2.68 -1.4,-2.58 -3.47,-3.93 -5.26,-4.87 -0.37,-0.19 -0.73,-0.38 -1.07,-0.55 -1.64,-0.81 -2.34,-1.21 -2.7,-1.94 -0.5,-1 -0.44,-1.39 -0.06,-3.1 0.32,-1.46 0.77,-3.45 0.54,-6.12 -0.44,-5.07 -4.36,-9.32 -7.52,-12.73 l -2.33,-2.61 -5.94,4.86 2.63,2.96 c 2.36,2.55 5.29,5.73 5.51,8.18"
       inkscape:connector-curvature="0" />
    <path
       id="path833"
       d="m 225.8,339.3 c 0,5.9 1.42,13.83 8.34,13.83 6.91,0 8.74,-8.94 8.74,-12.6 0,-3.23 -4.91,-16.91 -6.1,-29.3 -1.53,-0.02 -2.81,-0.46 -3.88,-1.16 -1.07,13.9 -7.15,23.86 -7.15,29.2"
       inkscape:connector-curvature="0" />
    <path
       id="path835"
       d="m 334.1,227.5 c -15.1,2.4 -84.1,14.8 -90.7,16.1 -9.81,1.88 -12.1,-7 -16.56,-9.12 0,0 6.61,38.83 7,41.72 1.38,10.38 -5.72,15.72 -5.72,23.48 0,2.81 1.22,8 4.79,10.35 1.07,0.7 2.35,1.13 3.88,1.16 0.05,0 0.09,0 0.14,0 6.72,0 8.16,-6.72 8.16,-11.84 0,-7.92 -3.84,-12.48 -3.84,-14.4 0,-1.92 1.6,-4.16 7.68,-5.12 6.08,-0.96 82.1,-14.16 94.1,-16.1 12,-1.94 20.88,-11.76 18.96,-21.84 -1.92,-10.1 -12.72,-16.8 -27.84,-14.4 m 5.2,28.32 c -10.24,0.64 -99.7,9.28 -99.7,9.28 l -1.92,-12.64 c 0,0 88.5,-15.36 98.9,-17.1 10.4,-1.76 17.76,2.4 17.76,8.96 0,6.56 -4.8,10.88 -15,11.52"
       inkscape:connector-curvature="0" />
    <path
       id="path837"
       d="m 498.8,306.2 c -2.07,10.68 -6.52,20.93 -6.52,23.74 0,3.66 1.09,12.8 8,12.8 6.91,0 9.1,-8.13 9.1,-14 0,-4.66 -4.08,-12.2 -5.79,-23.1 -1,0.44 -2.14,0.7 -3.45,0.7 -0.47,0 -0.9,-0.05 -1.32,-0.13"
       inkscape:connector-curvature="0" />
    <path
       id="path839"
       d="m 387.7,261.5 c 12,1.92 96.1,15.93 102.2,16.9 3.47,0.55 6.31,2.84 6.31,3.79 0,0.95 -3.71,4.5 -3.71,10.73 0,4.76 0.74,12.26 6.26,13.29 0.41,0.08 0.85,0.13 1.32,0.13 1.31,0 2.45,-0.25 3.45,-0.7 4.14,-1.83 5.78,-6.99 5.78,-11.69 0,-10.97 -5.7,-8.81 -4.33,-19.2 0.38,-2.88 5.92,-40.54 5.92,-40.54 -4.48,2.08 -5.67,9.82 -15.48,7.94 -6.67,-1.28 -83.8,-15.51 -98.9,-17.91 -15.1,-2.4 -25.36,5.46 -27.3,15.54 -1.94,10.08 6.48,19.79 18.48,21.71 m 9,-29.75 c 10.41,1.71 104.1,18.1 104.1,18.1 l -1.92,12.64 c 0,0 -96.9,-8.48 -107.1,-9.12 -10.24,-0.64 -14.88,-4.16 -14.88,-10.72 0,-6.56 8.16,-12.8 19.84,-10.88"
       inkscape:connector-curvature="0" />
    <path
       id="path841"
       d="m 532.7,318.2 c 0.05,1.08 0.08,1.67 -0.51,3 -1.12,2.48 -3.07,5.57 -6,6.27 l 1.75,7.48 c 3.33,-0.78 7.99,-3.25 11.3,-10.6 1.36,-3 1.25,-5.1 1.18,-6.54 -0.06,-1.2 -0.09,-1.7 0.93,-3.31 0.73,-1.14 0.93,-1.19 1.8,-1.42 1.97,-0.52 4.23,-1.37 6.18,-5 2.22,-4.14 1.5,-7.58 0.98,-10.1 -0.28,-1.38 -0.51,-2.46 -0.33,-3.59 0.27,-1.72 1.48,-3.04 3.79,-5.41 1.25,-1.29 2.67,-2.75 4.11,-4.58 l -6,-4.75 c -1.18,1.51 -2.4,2.76 -3.58,3.97 -2.56,2.63 -5.2,5.35 -5.87,9.56 -0.4,2.51 0.04,4.64 0.4,6.35 0.46,2.24 0.63,3.29 -0.23,4.9 -0.52,0.98 -0.54,0.98 -1.36,1.2 -1.93,0.51 -4.18,1.33 -6.34,4.74 -2.15,3.39 -2.23,5.63 -2.12,7.81"
       inkscape:connector-curvature="0" />
    <path
       id="path843"
       d="m 519.6,331.2 c 3.68,-3.24 4.82,-4.41 6.5,-9.81 1.09,-3.51 0.84,-5.83 0.64,-7.69 -0.16,-1.48 -0.27,-2.55 0.23,-4.46 0.26,-0.98 0.35,-1.02 1.42,-1.6 1.64,-0.88 4.38,-2.35 5.59,-7.11 1.11,-4.37 -0.15,-7.12 -1.07,-9.13 -0.72,-1.56 -1.15,-2.51 -0.77,-4.56 l -7.56,-1.38 c -0.8,4.43 0.44,7.15 1.35,9.13 0.72,1.57 1.05,2.29 0.61,4 -0.38,1.49 -0.65,1.63 -1.78,2.24 -1.53,0.82 -4.1,2.2 -5.22,6.39 -0.88,3.29 -0.64,5.49 -0.45,7.26 0.17,1.56 0.28,2.6 -0.34,4.58 -1.11,3.57 -1.23,3.68 -4.24,6.32 l -1.79,1.59 5.14,5.71 1.72,-1.53"
       inkscape:connector-curvature="0" />
    <path
       id="path845"
       d="m 462.7,305.6 c 0.87,3.85 3.61,5.54 5.61,6.78 1.82,1.13 2.44,1.59 2.69,2.8 0.4,1.88 0.22,2.42 -0.05,3.22 -0.54,1.6 -0.95,3.28 -0.13,6.18 1.44,5.1 2.98,6.76 8.1,11.87 l 5.43,-5.43 c -4.85,-4.85 -5.25,-5.41 -6.15,-8.55 -0.24,-0.84 -0.22,-0.9 0.02,-1.63 0.56,-1.68 1.05,-3.63 0.28,-7.26 -0.96,-4.52 -4.1,-6.45 -6.17,-7.73 -1.57,-0.97 -2,-1.32 -2.15,-1.93 -0.27,-1.22 0.02,-2.15 0.67,-3.98 0.78,-2.22 1.76,-4.98 1.3,-8.93 l -7.63,0.9 c 0.26,2.17 -0.26,3.63 -0.91,5.47 -0.75,2.13 -1.69,4.8 -0.92,8.23"
       inkscape:connector-curvature="0" />
    <path
       id="path847"
       d="m 457.5,303.6 c 0,-1.37 -0.21,-2.96 -0.85,-4.86 -1.78,-5.23 -3.63,-7.25 -5.77,-9.58 l -2.15,-2.44 -5.91,4.9 2.41,2.73 c 1.93,2.1 2.9,3.16 4.16,6.86 0.66,1.95 0.46,2.97 0.17,4.51 -0.38,1.98 -0.91,4.69 0.79,8.52 1.88,4.22 4.69,5.26 6.56,5.95 1.24,0.46 1.46,0.54 1.9,1.47 0.74,1.6 0.65,2.06 0.47,2.89 -0.23,1.1 -0.62,2.94 0.45,5.35 1.37,3.12 5.24,10.48 11.51,11.4 l 1.12,-7.6 c -1.54,-0.23 -4,-3.25 -5.6,-6.89 l -0.06,-0.18 0.1,-0.51 c 0.16,-0.76 0.3,-1.57 0.3,-2.49 0,-1.39 -0.31,-3.04 -1.31,-5.21 -1.77,-3.81 -4.44,-4.8 -6.21,-5.45 -1.32,-0.49 -1.63,-0.6 -2.19,-1.86 -0.38,-0.86 -0.52,-1.47 -0.52,-2.09 0,-0.55 0.11,-1.1 0.25,-1.85 0.19,-0.99 0.42,-2.16 0.42,-3.58"
       inkscape:connector-curvature="0" />
    <path
       id="path849"
       d="m 507.7,348.4 c -7.53,6.09 -24.39,6.56 -33.3,-1.56 l -1.88,-1.71 -2.31,1.07 c -3.43,1.59 -8,1.72 -11.67,1.82 -4.67,0.13 -8.36,0.24 -10.25,3.19 -1.37,2.14 -1.24,5.1 0.37,7.99 0.26,0.48 0.57,0.96 0.91,1.44 h 16.75 c -6.23,0 -9.5,-2.94 -10.71,-4.8 0.98,-0.07 2.15,-0.12 3.15,-0.14 3.68,-0.11 8.11,-0.31 12.31,-1.69 4.58,3.49 10.17,5.49 15.87,6.25 4.13,-4.86 11.1,-6.64 15.18,-6.64 v 5.75 c 3.18,-0.83 6.11,-2.06 8.56,-3.65 4.08,1.76 9.8,5.23 13.78,7.64 3.46,2.1 5.17,3.13 6.31,3.56 3.48,1.34 18,2.53 26.99,2.53 v -7.68 c -10.16,0 -22.32,-1.34 -24.2,-2.02 -0.61,-0.25 -3.09,-1.75 -5.07,-2.96 -5.17,-3.14 -12.25,-7.44 -17.1,-9.1 l -1.99,-0.66 -1.63,1.32"
       inkscape:connector-curvature="0" />
    <path
       id="path851"
       d="m 466.3,360.6 h -28.65 c -12.9,0 -14.28,7.9 -14.28,10.67 0,0.77 0.09,1.75 0.36,2.8 h 11.64 c -3.42,0 -4.51,-1.34 -4.51,-2.77 0,-1.43 1.31,-3 6.79,-3 h 45.99 c 0.25,-3.12 1.36,-5.66 2.96,-7.68 h -20.3"
       inkscape:connector-curvature="0" />
    <path
       id="path853"
       d="m 491.4,368.3 h 1.1 l 22.96,-5.36 -13.1,-2.32 h -0.24 v 0.66 c -0.1,0 -9.61,0.43 -10.73,7"
       inkscape:connector-curvature="0" />
    <path
       id="path855"
       d="m 419.3,374.1 c -7.4,0 -12.38,5.81 -12.38,11.24 0,5.18 4.6,11.43 12.76,11.43 h 2.39 c 0.55,-2.95 2.9,-7.15 11.65,-7.63 v -0.05 h -14 c -2.88,0 -5,-2.82 -5.08,-3.76 0,-1 1.4,-3.55 4.7,-3.55 h 49.89 v -7.68 h -49.89"
       inkscape:connector-curvature="0" />
    <path
       id="path857"
       d="m 422,396.7 c -0.12,0.63 -0.15,1.19 -0.15,1.66 0,6.3 5.55,11.43 15,11.43 h 0.18 c 1.44,-4.26 6.69,-7.26 13.67,-7.64 v -0.05 h -13.85 c -4.76,0 -7.36,-2.48 -7.36,-3.75 0,-1.09 2.94,-1.66 5.84,-1.66 h 33.77 v -7.68 h -33.77 c -0.6,0 -1.16,0.02 -1.71,0.05 -8.75,0.48 -11.1,4.68 -11.65,7.63"
       inkscape:connector-curvature="0" />
    <path
       id="path859"
       d="m 437.1,409.8 c -0.26,0.77 -0.41,1.58 -0.41,2.42 0,4.82 4.32,10 13.96,10.85 6.98,0.58 37.1,1.53 42.62,1.53 4.5,0 23.36,-0.61 33.52,-3.57 3,-0.88 5.55,-2.06 8,-3.2 5.28,-2.46 10.74,-5 22.6,-5 v -7.68 c -13.57,0 -20.1,3.04 -25.84,5.71 -2.29,1.06 -4.45,2.07 -6.91,2.79 -8.53,2.49 -25.98,3.26 -31.37,3.26 -5.1,0 -35.2,-0.94 -41.99,-1.5 -4.88,-0.41 -6.91,-2.28 -6.91,-3.19 0.17,-0.47 2.52,-2.42 7.92,-2.42 h 30.92 l -7.4,-7.68 h -23.52 c -0.51,0 -1.02,0.02 -1.52,0.05 -6.99,0.38 -12.23,3.37 -13.67,7.63"
       inkscape:connector-curvature="0" />
    <path
       id="path861"
       d="m 486.9,360.2 c -0.11,0.13 -0.22,0.25 -0.32,0.38 -1.6,2.02 -2.71,4.56 -2.96,7.68 -0.03,0.43 -0.06,0.86 -0.06,1.31 0,7.14 3.76,19.6 28.96,22.79 l 0.96,-7.62 c -8.31,-1.05 -22.2,-4.42 -22.2,-15.17 0,-0.46 0.04,-0.9 0.11,-1.31 1.13,-6.59 10.63,-7 10.73,-7 v -7.68 c -4.07,0 -11.1,1.78 -15.18,6.63"
       inkscape:connector-curvature="0" />
  </g>
</svg>
