<?xml version="1.0" encoding="UTF-8" standalone="no"?>
<!-- Created with Inkscape (http://www.inkscape.org/) -->

<svg
   xmlns:dc="http://purl.org/dc/elements/1.1/"
   xmlns:cc="http://creativecommons.org/ns#"
   xmlns:rdf="http://www.w3.org/1999/02/22-rdf-syntax-ns#"
   xmlns:svg="http://www.w3.org/2000/svg"
   xmlns="http://www.w3.org/2000/svg"
   xmlns:sodipodi="http://sodipodi.sourceforge.net/DTD/sodipodi-0.dtd"
   xmlns:inkscape="http://www.inkscape.org/namespaces/inkscape"
   version="1.0"
   width="125"
   height="125"
   viewBox="0 0 93.750003 93.750004"
   id="svg8"
   sodipodi:docname="9.svg"
   inkscape:version="0.92.5 (2060ec1f9f, 2020-04-08)"
   inkscape:export-filename="/media/juhele/data_2TB/_GRAFIKA/GHS hazard symbols/GHS09_environmentally_hazardous_substances.png"
   inkscape:export-xdpi="99.027519"
   inkscape:export-ydpi="99.027519">
  <title
     id="title821">Globally Harmonized System of Classification and Labelling of Chemicals (GHS) pictogram for environmentally hazardous substances</title>
  <metadata
     id="metadata14">
    <rdf:RDF>
      <cc:Work
         rdf:about="">
        <dc:format>image/svg+xml</dc:format>
        <dc:type
           rdf:resource="http://purl.org/dc/dcmitype/StillImage" />
        <dc:title>Globally Harmonized System of Classification and Labelling of Chemicals (GHS) pictogram for environmentally hazardous substances</dc:title>
        <dc:description>Official hazard symbols according to directive (EC) No 1272/2008 by the European Chemicals Bureau 
The Globally Harmonized System of Classification and Labelling of Chemicals (GHS) is an internationally agreed-upon standard managed by the United Nations that was set up to replace the assortment of hazardous material classification and labelling schemes previously used around the world.
https://en.wikipedia.org/wiki/Globally_Harmonized_System_of_Classification_and_Labelling_of_Chemicals

symbols (Public Domain)
https://commons.wikimedia.org/wiki/GHS_hazard_symbols</dc:description>
        <dc:source>EPS file pollu.eps from UNECE web site converted with ImageMagick convert and with potrace, edited in inkscape</dc:source>
        <dc:subject>
          <rdf:Bag>
            <rdf:li>GHS</rdf:li>
            <rdf:li>explosive</rdf:li>
            <rdf:li>flammable</rdf:li>
            <rdf:li>gas</rdf:li>
            <rdf:li>corrosive</rdf:li>
            <rdf:li>acid</rdf:li>
            <rdf:li>harmful</rdf:li>
            <rdf:li>health</rdf:li>
            <rdf:li>pollution</rdf:li>
            <rdf:li>contamination</rdf:li>
            <rdf:li>nature</rdf:li>
            <rdf:li>toxic</rdf:li>
            <rdf:li>hazard</rdf:li>
            <rdf:li>warning</rdf:li>
            <rdf:li>label</rdf:li>
            <rdf:li>chemical</rdf:li>
            <rdf:li>pictogram</rdf:li>
            <rdf:li>symbol</rdf:li>
            <rdf:li>danger</rdf:li>
          </rdf:Bag>
        </dc:subject>
        <cc:license
           rdf:resource="http://creativecommons.org/publicdomain/zero/1.0/" />
      </cc:Work>
      <cc:License
         rdf:about="http://creativecommons.org/publicdomain/zero/1.0/">
        <cc:permits
           rdf:resource="http://creativecommons.org/ns#Reproduction" />
        <cc:permits
           rdf:resource="http://creativecommons.org/ns#Distribution" />
        <cc:permits
           rdf:resource="http://creativecommons.org/ns#DerivativeWorks" />
      </cc:License>
    </rdf:RDF>
  </metadata>
  <defs
     id="defs12" />
  <sodipodi:namedview
     pagecolor="#ffffff"
     bordercolor="#666666"
     borderopacity="1"
     objecttolerance="10"
     gridtolerance="10"
     guidetolerance="10"
     inkscape:pageopacity="0"
     inkscape:pageshadow="2"
     inkscape:window-width="1920"
     inkscape:window-height="1017"
     id="namedview10"
     showgrid="false"
     units="px"
     fit-margin-top="10"
     fit-margin-left="10"
     fit-margin-bottom="10"
     fit-margin-right="10"
     inkscape:zoom="0.8646487"
     inkscape:cx="39.469527"
     inkscape:cy="328.80624"
     inkscape:window-x="-8"
     inkscape:window-y="-8"
     inkscape:window-maximized="1"
     inkscape:current-layer="svg8" />
  <g
     id="g848"
     transform="matrix(0.06770834,0,0,0.06770834,21.992187,21.998958)">
    <path
       id="path819"
       d="m 367.5,727.4 360,-360 -360,-360 -360,360 z"
       inkscape:connector-curvature="0"
       style="fill:#ff0000" />
    <path
       id="path821"
       d="M 367.5,670.3 64.7,367.5 367.5,64.7 670.3,367.5 Z"
       inkscape:connector-curvature="0"
       style="fill:#ffffff" />
    <g
       id="g829"
       style="stroke:#000000;stroke-width:5">
      <path
         id="path823"
         d="M 223.7,367.2 H 504.9"
         inkscape:connector-curvature="0" />
      <path
         id="path825"
         d="m 462.7,418 32.98,23.79 -31.36,15.1 42.2,3.79 -11.36,15.1 h 23.3 l 0.54,16.76 -294.2,-1.605 c 0,0 49.2,-14.58 57.3,-8.635 10.82,-4.87 89.8,-38.4 89.8,-36.2 m -75.72,-25.98 1.62,-85.4 -42.72,-23.2 c 0,0 -6.49,-4.33 -15.68,-1.62 -3.25,1.08 -7.57,2.16 -7.57,2.16 0,0 23.3,-19.47 27.58,-17.84 4.33,1.62 34.61,16.22 34.61,16.22 0,0 -3.25,-22.71 -11.36,-29.2 -8.11,-6.49 -39.47,-31.36 -39.47,-31.36 v -5.95 l 42.72,25.96 c 0,0 1.62,-24.87 -7,-39.47 -8.65,-14.6 -15.1,-27.58 -15.1,-27.58 l 2.7,-2.16 21.1,32.44 7,-22.2 4.33,-1.08 c 0,0 -5.41,31.36 -1.62,41.1 3.79,9.73 17.84,62.73 17.84,62.73 l 21.1,-30.3 c 0,0 0.54,-12.44 -0.54,-21.1 -1.08,-8.65 -2.7,-48.67 -2.7,-48.67 h 3.79 l 5.95,43.8 34.1,-39.47 v 4.33 c 0,0 -33.51,42.2 -31.89,51.4 1.62,9.19 3.24,14.6 -2.7,27.58 -5.94,12.98 -9.73,22.2 -9.73,22.2 0,0 17.84,-21.1 25.96,-22.71 8.11,-0.54 18.91,0.54 26.48,-5.95 7.57,-6.49 25.96,-27 25.96,-27 l -28.66,44.3 c 0,0 -13.51,0.54 -18.91,6.49 -5.41,5.95 -27.58,31.36 -27.58,31.36 v 58.4 l 36.76,18.38 -44.87,6.49 -10.82,15.68 -14.6,-12.44 -40.62,3.735 z"
         inkscape:connector-curvature="0"
         style="stroke-width:4" />
      <path
         id="path827"
         d="m 355.2,445.1 c 10.29,-4.29 27,-11.36 36.76,-25.42 10.1,-14.54 45.96,-75.7 95.2,-70.8 -2.7,6.49 -11.36,20.55 -11.36,20.55 l 35.1,-10.82 c 0,0 0.54,46.5 -65.97,76.2 -30.82,10.82 -37.3,11.36 -40,15.1 -2.7,3.79 -15.1,22.71 -15.1,22.71 l -55.14,-24.3 c 0,0 14.06,-0.515 20.51,-3.215 z"
         inkscape:connector-curvature="0"
         style="fill:#ffffff" />
    </g>
    <ellipse
       id="ellipse831"
       ry="5.1300001"
       rx="5.9499998"
       cx="484.29999"
       cy="385.79999" />
  </g>
</svg>
