<?xml version="1.0" encoding="UTF-8"?>
<svg width="80" height="60" version="1.1" viewBox="0 0 80 60" xml:space="preserve" xmlns="http://www.w3.org/2000/svg">
<style type="text/css">
	.st0{fill:#F18419;}
	.st1{fill:#1D1D1B;}
	.st2{fill:#FBBA00;}
</style>
<g transform="matrix(.99455 0 0 1.0363 4.7514 4.7539)">
	<g transform="matrix(1.25 0 0 -1.25 0 33.238)">
		
			
				<path class="st0" d="m2.4-11.5c-0.8 0-1.4 0.6-1.4 1.4v34.2c0 0.8 0.6 1.4 1.4 1.4h51.9c0.8 0 1.4-0.6 1.4-1.4v-34.2c0-0.8-0.6-1.4-1.4-1.4z"/>
			
			
				<path class="st1" d="m54.3 24.8c0.4 0 0.6-0.3 0.6-0.6v-34.2c0-0.4-0.3-0.6-0.6-0.6h-51.9c-0.4 0-0.6 0.3-0.6 0.6v34.2c0 0.4 0.3 0.6 0.6 0.6h51.9m0 1.6h-51.9c-1.2 0-2.2-1-2.2-2.2v-34.2c0-1.2 1-2.2 2.2-2.2h51.9c1.2 0 2.2 1 2.2 2.2v34.2c0.1 1.2-0.9 2.2-2.2 2.2z"/>
			
		
	</g>
	
		<path class="st1" d="m63.1 25.4h-55.3c-0.6 0-1-0.4-1-1s0.4-1 1-1h55.3c0.6 0 1 0.4 1 1s-0.4 1-1 1z"/>
	
</g>
</svg>
