<?xml version="1.0" encoding="UTF-8" standalone="no"?>
<!-- Created with Inkscape (http://www.inkscape.org/) -->

<svg
   xmlns:dc="http://purl.org/dc/elements/1.1/"
   xmlns:cc="http://creativecommons.org/ns#"
   xmlns:rdf="http://www.w3.org/1999/02/22-rdf-syntax-ns#"
   xmlns:svg="http://www.w3.org/2000/svg"
   xmlns="http://www.w3.org/2000/svg"
   version="1.1"
   width="70.862503"
   height="70.862503"
   id="svg2"
   xml:space="preserve"><metadata
     id="metadata8"><rdf:RDF><cc:Work
         rdf:about=""><dc:format>image/svg+xml</dc:format><dc:type
           rdf:resource="http://purl.org/dc/dcmitype/StillImage" /><dc:title></dc:title></cc:Work></rdf:RDF></metadata><defs
     id="defs6"><clipPath
       id="clipPath18"><path
         d="M 0,566.93 0,0 l 566.934,0 0,566.93 -566.934,0 z"
         id="path20" /></clipPath></defs><g
     transform="matrix(1.25,0,0,-1.25,0,70.8625)"
     id="g10"><rect
       width="66.058266"
       height="65.457726"
       x="2.4021187"
       y="2.4021187"
       transform="matrix(0.8,0,0,-0.8,0,56.69)"
       id="rect3026"
       style="fill:#ffffff;fill-opacity:1;stroke:none" /><g
       transform="scale(0.1,0.1)"
       id="g12"><g
         id="g14"><g
           clip-path="url(#clipPath18)"
           id="g16"><path
             d="m 259.641,392.602 c -37.512,0 -63.684,19.882 -63.684,37.746 0,17.89 26.172,37.879 63.684,37.879 37.5,0 63.613,-19.989 63.613,-37.879 0,-17.864 -26.113,-37.746 -63.613,-37.746 z m 121.746,-164.055 0,42.5 -93.992,0 0,84.914 c 43.335,9.922 75.554,40.234 75.554,74.387 0,43.445 -45.344,77.566 -103.308,77.566 -57.922,0 -103.371,-34.121 -103.371,-77.566 0,-34.153 32.265,-64.465 75.625,-74.387 l 0,-269.8946 55.5,0 0,29.7266 93.992,0 0,51.414 -38.465,0 0,61.34 38.465,0"
             id="path22"
             style="fill:#ed1c24;fill-opacity:1;fill-rule:nonzero;stroke:none" /><path
             d="m 287.395,355.961 0,-84.914 93.992,0 0,-42.5 -38.465,0 0,-61.34 38.465,0 0,-51.414 -93.992,0 0,-29.7266 -55.5,0 0,269.8946 c -43.36,9.922 -75.625,40.234 -75.625,74.387 0,43.445 45.449,77.566 103.371,77.566 57.964,0 103.308,-34.121 103.308,-77.566 0,-34.153 -32.219,-64.465 -75.554,-74.387 z m 7.949,-77.031 0,70.937 c 45.254,11.485 75.574,43.399 75.574,80.481 0,47.976 -48.914,85.488 -111.277,85.488 -62.434,0 -111.262,-37.512 -111.262,-85.488 0,-37.082 30.254,-68.996 75.527,-80.481 l 0,-271.7303 71.438,0 0,29.8043 94.07,0 0,67.313 -38.574,0 0,45.351 38.574,0 0,58.325 -94.07,0"
             id="path24"
             style="fill:#231f20;fill-opacity:1;fill-rule:nonzero;stroke:none" /><path
             d="m 259.641,468.227 c -37.512,0 -63.684,-19.989 -63.684,-37.879 0,-17.864 26.172,-37.746 63.684,-37.746 37.5,0 63.613,19.882 63.613,37.746 0,17.89 -26.113,37.879 -63.613,37.879 z m 55.703,-37.879 c 0,-13.84 -24.297,-29.895 -55.703,-29.895 -31.399,0 -55.696,16.055 -55.696,29.895 0,13.828 24.297,29.968 55.696,29.968 31.406,0 55.703,-16.14 55.703,-29.968"
             id="path26"
             style="fill:#231f20;fill-opacity:1;fill-rule:nonzero;stroke:none" /><path
             d="m 287.395,99.6562 7.94922,0 0,237.516 -7.94922,0 0,-237.516 z"
             id="path28"
             style="fill:#231f20;fill-opacity:1;fill-rule:nonzero;stroke:none" /><path
             d="m 539.062,27.8906 -511.1714,0 0,511.1714 511.1714,0 0,-511.1714 z M 0,566.93 0,0 l 566.934,0 0,566.93 -566.934,0"
             id="path30"
             style="fill:#ed1c24;fill-opacity:1;fill-rule:nonzero;stroke:none" /></g></g></g></g></svg>