<?xml version="1.0" encoding="UTF-8" standalone="no"?>
<!-- Generator: Adobe Illustrator 24.1.0, SVG Export Plug-In . SVG Version: 6.00 Build 0)  -->

<svg
   xmlns:dc="http://purl.org/dc/elements/1.1/"
   xmlns:cc="http://creativecommons.org/ns#"
   xmlns:rdf="http://www.w3.org/1999/02/22-rdf-syntax-ns#"
   xmlns:svg="http://www.w3.org/2000/svg"
   xmlns="http://www.w3.org/2000/svg"
   xmlns:xlink="http://www.w3.org/1999/xlink"
   xmlns:sodipodi="http://sodipodi.sourceforge.net/DTD/sodipodi-0.dtd"
   xmlns:inkscape="http://www.inkscape.org/namespaces/inkscape"
   version="1.1"
   id="svg2"
   x="0px"
   y="0px"
   viewBox="0 0 125 125"
   xml:space="preserve"
   sodipodi:docname="10.svg"
   width="125"
   height="125"
   inkscape:version="0.92.5 (2060ec1f9f, 2020-04-08)"><metadata
   id="metadata14000"><rdf:RDF><cc:Work
       rdf:about=""><dc:format>image/svg+xml</dc:format><dc:type
         rdf:resource="http://purl.org/dc/dcmitype/StillImage" /><dc:title></dc:title></cc:Work></rdf:RDF></metadata><defs
   id="defs13998" /><sodipodi:namedview
   pagecolor="#ffffff"
   bordercolor="#666666"
   borderopacity="1"
   objecttolerance="10"
   gridtolerance="10"
   guidetolerance="10"
   inkscape:pageopacity="0"
   inkscape:pageshadow="2"
   inkscape:window-width="1920"
   inkscape:window-height="1017"
   id="namedview13996"
   showgrid="false"
   inkscape:zoom="3.3286318"
   inkscape:cx="35.450001"
   inkscape:cy="35.450001"
   inkscape:window-x="-8"
   inkscape:window-y="-8"
   inkscape:window-maximized="1"
   inkscape:current-layer="svg2" />
<style
   type="text/css"
   id="style13975">
	.st0{fill:#FFFFFF;}
	.st1{clip-path:url(#SVGID_2_);}
	.st2{fill:#0069B4;}
	.st3{fill:#231F20;}
</style>
<g
   id="g10"
   transform="matrix(9.1678418,0,0,-9.1678418,-197.36248,322.36248)">
	<rect
   id="rect3026"
   x="1.9"
   y="54.799999"
   class="st0"
   width="52.799999"
   height="0"
   style="fill:#ffffff" />
	<g
   id="g12"
   transform="scale(0.1)">
		<g
   id="g14">
			<g
   id="g13990">
				<defs
   id="defs13979">
					<rect
   id="SVGID_1_"
   x="248"
   y="248"
   width="70.900002"
   height="70.900002" />
				</defs>
				<clipPath
   id="SVGID_2_">
					<use
   xlink:href="#SVGID_1_"
   style="overflow:visible"
   id="use13981"
   x="0"
   y="0"
   width="100%"
   height="100%" />
				</clipPath>
				<g
   id="g16"
   class="st1"
   clip-path="url(#SVGID_2_)">
					<path
   id="path22"
   class="st2"
   d="m 259.6,392.6 c -37.5,0 -63.7,19.9 -63.7,37.7 0,17.9 26.2,37.9 63.7,37.9 37.5,0 63.6,-20 63.6,-37.9 0.1,-17.8 -26.1,-37.7 -63.6,-37.7 z M 381.4,228.5 V 271 h -94 v 85 c 43.3,9.9 75.6,40.2 75.6,74.4 0,43.4 -45.3,77.6 -103.3,77.6 -57.9,0 -103.4,-34.1 -103.4,-77.6 0,-34.2 32.3,-64.5 75.6,-74.4 V 86.1 h 55.5 v 29.7 h 94 v 51.4 h -38.5 v 61.3 h 38.5"
   inkscape:connector-curvature="0"
   style="fill:#0069b4" />
					<path
   id="path24"
   class="st3"
   d="m 287.4,356 v -85 h 94 v -42.5 h -38.5 v -61.3 h 38.5 v -51.4 h -94 V 86.1 H 231.9 V 356 c -43.4,9.9 -75.6,40.2 -75.6,74.4 0,43.4 45.4,77.6 103.4,77.6 58,0 103.3,-34.1 103.3,-77.6 -0.1,-34.2 -32.3,-64.5 -75.6,-74.4 z m 7.9,-77.1 v 70.9 c 45.3,11.5 75.6,43.4 75.6,80.5 0,48 -48.9,85.5 -111.3,85.5 -62.4,0 -111.3,-37.5 -111.3,-85.5 0,-37.1 30.3,-69 75.5,-80.5 V 78.1 h 71.4 v 29.8 h 94.1 v 67.3 h -38.6 v 45.4 h 38.6 v 58.3 h -94"
   inkscape:connector-curvature="0"
   style="fill:#231f20" />
					<path
   id="path26"
   class="st3"
   d="m 259.6,468.2 c -37.5,0 -63.7,-20 -63.7,-37.9 0,-17.9 26.2,-37.7 63.7,-37.7 37.5,0 63.6,19.9 63.6,37.7 0.1,17.9 -26.1,37.9 -63.6,37.9 z m 55.7,-37.9 c 0,-13.8 -24.3,-29.9 -55.7,-29.9 -31.4,0 -55.7,16.1 -55.7,29.9 0,13.8 24.3,30 55.7,30 31.4,0 55.7,-16.1 55.7,-30"
   inkscape:connector-curvature="0"
   style="fill:#231f20" />
					<path
   id="path28_1_"
   class="st3"
   d="m 295.3,337.2 h -7.9 c 0,0 0,-237.5 0,-237.5 h 7.9"
   inkscape:connector-curvature="0"
   style="fill:#231f20" />
					<path
   id="path30"
   class="st2"
   d="M 539.1,27.9 H 27.9 v 511.2 h 511.2 c 0,0 0,-511.2 0,-511.2 z M 0,566.9 V 0 H 566.9 V 566.9 H 0"
   inkscape:connector-curvature="0"
   style="fill:#0069b4" />
				</g>
			</g>
		</g>
	</g>
</g>
</svg>