<?xml version="1.0" encoding="utf-8"?>
<!-- Generator: Adobe Illustrator 24.1.0, SVG Export Plug-In . SVG Version: 6.00 Build 0)  -->
<svg version="1.1"
	 id="svg2" xmlns:cc="http://creativecommons.org/ns#" xmlns:dc="http://purl.org/dc/elements/1.1/" xmlns:rdf="http://www.w3.org/1999/02/22-rdf-syntax-ns#" xmlns:svg="http://www.w3.org/2000/svg"
	 xmlns="http://www.w3.org/2000/svg" xmlns:xlink="http://www.w3.org/1999/xlink" x="0px" y="0px" viewBox="0 0 70.9 70.9"
	 style="enable-background:new 0 0 70.9 70.9;" xml:space="preserve">
<style type="text/css">
	.st0{fill:#FFFFFF;}
	.st1{clip-path:url(#SVGID_2_);}
	.st2{fill:#0069B4;}
	.st3{fill:#231F20;}
</style>
<g id="g10" transform="matrix(1.25,0,0,-1.25,0,70.8625)">
	<rect id="rect3026" x="1.9" y="54.8" class="st0" width="52.8" height="-52.4"/>
	<g id="g12" transform="scale(0.1,0.1)">
		<g id="g14">
			<g>
				<defs>
					<rect id="SVGID_1_" x="248" y="248" width="70.9" height="70.9"/>
				</defs>
				<clipPath id="SVGID_2_">
					<use xlink:href="#SVGID_1_"  style="overflow:visible;"/>
				</clipPath>
				<g id="g16" class="st1">
					<path id="path22" class="st2" d="M259.6,392.6c-37.5,0-63.7,19.9-63.7,37.7c0,17.9,26.2,37.9,63.7,37.9
						c37.5,0,63.6-20,63.6-37.9C323.3,412.5,297.1,392.6,259.6,392.6z M381.4,228.5V271h-94V356c43.3,9.9,75.6,40.2,75.6,74.4
						c0,43.4-45.3,77.6-103.3,77.6c-57.9,0-103.4-34.1-103.4-77.6c0-34.2,32.3-64.5,75.6-74.4V86.1h55.5v29.7h94v51.4h-38.5v61.3
						H381.4"/>
					<path id="path24" class="st3" d="M287.4,356V271h94v-42.5h-38.5v-61.3h38.5v-51.4h-94V86.1h-55.5V356
						c-43.4,9.9-75.6,40.2-75.6,74.4c0,43.4,45.4,77.6,103.4,77.6c58,0,103.3-34.1,103.3-77.6C362.9,396.2,330.7,365.9,287.4,356z
						 M295.3,278.9v70.9c45.3,11.5,75.6,43.4,75.6,80.5c0,48-48.9,85.5-111.3,85.5c-62.4,0-111.3-37.5-111.3-85.5
						c0-37.1,30.3-69,75.5-80.5V78.1h71.4v29.8h94.1v67.3h-38.6v45.4h38.6v58.3L295.3,278.9"/>
					<path id="path26" class="st3" d="M259.6,468.2c-37.5,0-63.7-20-63.7-37.9c0-17.9,26.2-37.7,63.7-37.7
						c37.5,0,63.6,19.9,63.6,37.7C323.3,448.2,297.1,468.2,259.6,468.2z M315.3,430.3c0-13.8-24.3-29.9-55.7-29.9
						c-31.4,0-55.7,16.1-55.7,29.9c0,13.8,24.3,30,55.7,30C291,460.3,315.3,444.2,315.3,430.3"/>
					<path id="path28_1_" class="st3" d="M295.3,337.2h-7.9c0,0,0-237.5,0-237.5h7.9"/>
					<path id="path30" class="st2" d="M539.1,27.9H27.9v511.2h511.2C539.1,539.1,539.1,27.9,539.1,27.9z M0,566.9V0h566.9v566.9H0"
						/>
				</g>
			</g>
		</g>
	</g>
</g>
</svg>
