<?xml version="1.0" encoding="UTF-8" standalone="no"?>
<!-- Created with Inkscape (http://www.inkscape.org/) -->

<svg
   xmlns:dc="http://purl.org/dc/elements/1.1/"
   xmlns:cc="http://creativecommons.org/ns#"
   xmlns:rdf="http://www.w3.org/1999/02/22-rdf-syntax-ns#"
   xmlns:svg="http://www.w3.org/2000/svg"
   xmlns="http://www.w3.org/2000/svg"
   xmlns:sodipodi="http://sodipodi.sourceforge.net/DTD/sodipodi-0.dtd"
   xmlns:inkscape="http://www.inkscape.org/namespaces/inkscape"
   version="1.1"
   width="125"
   height="125"
   id="svg2"
   xml:space="preserve"
   sodipodi:docname="1.svg"
   inkscape:version="0.92.5 (2060ec1f9f, 2020-04-08)"><sodipodi:namedview
     pagecolor="#ffffff"
     bordercolor="#666666"
     borderopacity="1"
     objecttolerance="10"
     gridtolerance="10"
     guidetolerance="10"
     inkscape:pageopacity="0"
     inkscape:pageshadow="2"
     inkscape:window-width="1920"
     inkscape:window-height="1017"
     id="namedview13403"
     showgrid="false"
     inkscape:zoom="3.3303932"
     inkscape:cx="35.431252"
     inkscape:cy="35.431252"
     inkscape:window-x="-8"
     inkscape:window-y="-8"
     inkscape:window-maximized="1"
     inkscape:current-layer="svg2" /><metadata
     id="metadata8"><rdf:RDF><cc:Work
         rdf:about=""><dc:format>image/svg+xml</dc:format><dc:type
           rdf:resource="http://purl.org/dc/dcmitype/StillImage" /><dc:title></dc:title></cc:Work></rdf:RDF></metadata><defs
     id="defs6"><clipPath
       id="clipPath18"><path
         d="M 0,566.93 V 0 h 566.934 v 566.93 z"
         id="path20"
         inkscape:connector-curvature="0" /></clipPath></defs><g
     transform="matrix(1.1465179,0,0,-1.146526,30.000001,94.999999)"
     id="g10"><rect
       width="66.058266"
       height="65.457726"
       x="2.4021187"
       y="2.4021187"
       transform="matrix(0.8,0,0,-0.8,0,56.69)"
       id="rect3026"
       style="fill:#ffffff;fill-opacity:1;stroke:none" /><g
       transform="scale(0.1)"
       id="g12"><g
         id="g14"><g
           clip-path="url(#clipPath18)"
           id="g16"><path
             d="m 259.641,392.602 c -37.512,0 -63.684,19.882 -63.684,37.746 0,17.89 26.172,37.879 63.684,37.879 37.5,0 63.613,-19.989 63.613,-37.879 0,-17.864 -26.113,-37.746 -63.613,-37.746 z M 381.387,228.547 v 42.5 h -93.992 v 84.914 c 43.335,9.922 75.554,40.234 75.554,74.387 0,43.445 -45.344,77.566 -103.308,77.566 -57.922,0 -103.371,-34.121 -103.371,-77.566 0,-34.153 32.265,-64.465 75.625,-74.387 V 86.0664 h 55.5 v 29.7266 h 93.992 v 51.414 h -38.465 v 61.34 h 38.465"
             id="path22"
             style="fill:#ed1c24;fill-opacity:1;fill-rule:nonzero;stroke:none"
             inkscape:connector-curvature="0" /><path
             d="m 287.395,355.961 v -84.914 h 93.992 v -42.5 h -38.465 v -61.34 h 38.465 V 115.793 H 287.395 V 86.0664 h -55.5 V 355.961 c -43.36,9.922 -75.625,40.234 -75.625,74.387 0,43.445 45.449,77.566 103.371,77.566 57.964,0 103.308,-34.121 103.308,-77.566 0,-34.153 -32.219,-64.465 -75.554,-74.387 z m 7.949,-77.031 v 70.937 c 45.254,11.485 75.574,43.399 75.574,80.481 0,47.976 -48.914,85.488 -111.277,85.488 -62.434,0 -111.262,-37.512 -111.262,-85.488 0,-37.082 30.254,-68.996 75.527,-80.481 V 78.1367 h 71.438 v 29.8043 h 94.07 v 67.313 H 350.84 v 45.351 h 38.574 v 58.325 h -94.07"
             id="path24"
             style="fill:#231f20;fill-opacity:1;fill-rule:nonzero;stroke:none"
             inkscape:connector-curvature="0" /><path
             d="m 259.641,468.227 c -37.512,0 -63.684,-19.989 -63.684,-37.879 0,-17.864 26.172,-37.746 63.684,-37.746 37.5,0 63.613,19.882 63.613,37.746 0,17.89 -26.113,37.879 -63.613,37.879 z m 55.703,-37.879 c 0,-13.84 -24.297,-29.895 -55.703,-29.895 -31.399,0 -55.696,16.055 -55.696,29.895 0,13.828 24.297,29.968 55.696,29.968 31.406,0 55.703,-16.14 55.703,-29.968"
             id="path26"
             style="fill:#231f20;fill-opacity:1;fill-rule:nonzero;stroke:none"
             inkscape:connector-curvature="0" /><path
             d="m 287.395,99.6562 h 7.94922 v 237.516 H 287.395 Z"
             id="path28"
             style="fill:#231f20;fill-opacity:1;fill-rule:nonzero;stroke:none"
             inkscape:connector-curvature="0" /><path
             d="M 539.062,27.8906 H 27.8906 V 539.062 H 539.062 Z M 0,566.93 V 0 H 566.934 V 566.93 H 0"
             id="path30"
             style="fill:#ed1c24;fill-opacity:1;fill-rule:nonzero;stroke:none"
             inkscape:connector-curvature="0" /></g></g></g></g></svg>